ISO-10303-21;
HEADER;
FILE_DESCRIPTION(('FreeCAD Model'),'2;1');
FILE_NAME('Open CASCADE Shape Model','2000-01-01T00:00:00',('FreeCAD'),(
    'FreeCAD'),'Open CASCADE STEP processor 7.9','FreeCAD','Unknown');
FILE_SCHEMA(('AUTOMOTIVE_DESIGN { 1 0 10303 214 1 1 1 1 }'));
ENDSEC;
DATA;
#1 = APPLICATION_PROTOCOL_DEFINITION('international standard',
  'automotive_design',2000,#2);
#2 = APPLICATION_CONTEXT(
  'core data for automotive mechanical design processes');
#3 = SHAPE_DEFINITION_REPRESENTATION(#4,#10);
#4 = PRODUCT_DEFINITION_SHAPE('','',#5);
#5 = PRODUCT_DEFINITION('design','',#6,#9);
#6 = PRODUCT_DEFINITION_FORMATION('','',#7);
#7 = PRODUCT('Open CASCADE STEP translator 7.9 0',
  'Open CASCADE STEP translator 7.9 0','',(#8));
#8 = PRODUCT_CONTEXT('',#2,'mechanical');
#9 = PRODUCT_DEFINITION_CONTEXT('part definition',#2,'design');
#10 = ADVANCED_BREP_SHAPE_REPRESENTATION('',(#11,#15),#559);
#11 = AXIS2_PLACEMENT_3D('',#12,#13,#14);
#12 = CARTESIAN_POINT('',(0.,0.,0.));
#13 = DIRECTION('',(0.,0.,1.));
#14 = DIRECTION('',(1.,0.,-0.));
#15 = MANIFOLD_SOLID_BREP('',#16);
#16 = CLOSED_SHELL('',(#17,#183,#262,#326,#390,#462,#491,#508,#525,#542)
  );
#17 = ADVANCED_FACE('',(#18,#114),#178,.T.);
#18 = FACE_BOUND('',#19,.T.);
#19 = EDGE_LOOP('',(#20,#30,#37,#38,#69,#77,#84,#85));
#20 = ORIENTED_EDGE('',*,*,#21,.T.);
#21 = EDGE_CURVE('',#22,#24,#26,.T.);
#22 = VERTEX_POINT('',#23);
#23 = CARTESIAN_POINT('',(18.,3.918869757272E-16,6.6));
#24 = VERTEX_POINT('',#25);
#25 = CARTESIAN_POINT('',(18.,-4.40872847693E-15,10.));
#26 = LINE('',#27,#28);
#27 = CARTESIAN_POINT('',(18.,-4.40872847693E-15,0.));
#28 = VECTOR('',#29,1.);
#29 = DIRECTION('',(0.,0.,1.));
#30 = ORIENTED_EDGE('',*,*,#31,.F.);
#31 = EDGE_CURVE('',#24,#24,#32,.T.);
#32 = CIRCLE('',#33,18.);
#33 = AXIS2_PLACEMENT_3D('',#34,#35,#36);
#34 = CARTESIAN_POINT('',(0.,0.,10.));
#35 = DIRECTION('',(0.,0.,1.));
#36 = DIRECTION('',(1.,0.,0.));
#37 = ORIENTED_EDGE('',*,*,#21,.F.);
#38 = ORIENTED_EDGE('',*,*,#39,.F.);
#39 = EDGE_CURVE('',#40,#22,#42,.T.);
#40 = VERTEX_POINT('',#41);
#41 = CARTESIAN_POINT('',(18.,1.439541830797E-14,3.4));
#42 = B_SPLINE_CURVE_WITH_KNOTS('',7,(#43,#44,#45,#46,#47,#48,#49,#50,
    #51,#52,#53,#54,#55,#56,#57,#58,#59,#60,#61,#62,#63,#64,#65,#66,#67,
    #68),.UNSPECIFIED.,.F.,.F.,(8,6,6,6,8),(0.,0.257887063456,
    0.50042646018,0.74239346329,1.),.UNSPECIFIED.);
#43 = CARTESIAN_POINT('',(18.,1.323113727588E-15,3.4));
#44 = CARTESIAN_POINT('',(18.,0.219176612441,3.4));
#45 = CARTESIAN_POINT('',(17.99688635004,0.432811052886,3.435027698183)
  );
#46 = CARTESIAN_POINT('',(17.990942876191,0.634387132688,3.50189655643)
  );
#47 = CARTESIAN_POINT('',(17.982992735942,0.818447357892,3.596114504911)
  );
#48 = CARTESIAN_POINT('',(17.974187455811,0.98081879129,3.711956769247)
  );
#49 = CARTESIAN_POINT('',(17.965544215233,1.119030960836,3.842572859721)
  );
#50 = CARTESIAN_POINT('',(17.95038543456,1.339839403262,4.109484415832)
  );
#51 = CARTESIAN_POINT('',(17.943603983878,1.4277309242,4.247971239732));
#52 = CARTESIAN_POINT('',(17.937823092776,1.497147486869,4.392804054816)
  );
#53 = CARTESIAN_POINT('',(17.933324645242,1.548715560604,4.541945928424)
  );
#54 = CARTESIAN_POINT('',(17.930272992606,1.582910103767,4.693778280223)
  );
#55 = CARTESIAN_POINT('',(17.928747864812,1.6,4.846905798615));
#56 = CARTESIAN_POINT('',(17.928747864812,1.6,5.152732898667));
#57 = CARTESIAN_POINT('',(17.930265803797,1.582990630219,5.305912140298)
  );
#58 = CARTESIAN_POINT('',(17.933317845516,1.548791895441,5.457989767168)
  );
#59 = CARTESIAN_POINT('',(17.937826237811,1.497122746197,5.607372668854)
  );
#60 = CARTESIAN_POINT('',(17.943616553895,1.427583680335,5.752312943863)
  );
#61 = CARTESIAN_POINT('',(17.950397548462,1.339662947652,5.89072888236)
  );
#62 = CARTESIAN_POINT('',(17.965541280192,1.119073713734,6.157375460902)
  );
#63 = CARTESIAN_POINT('',(17.974185244767,0.980860234029,6.288020564853)
  );
#64 = CARTESIAN_POINT('',(17.982993907174,0.818444478703,6.403907430515)
  );
#65 = CARTESIAN_POINT('',(17.990946766997,0.634321129511,6.498147104424)
  );
#66 = CARTESIAN_POINT('',(17.996889095336,0.43270047818,6.565003203427)
  );
#67 = CARTESIAN_POINT('',(18.,0.219079914357,6.6));
#68 = CARTESIAN_POINT('',(18.,9.064862236237E-16,6.6));
#69 = ORIENTED_EDGE('',*,*,#70,.F.);
#70 = EDGE_CURVE('',#71,#40,#73,.T.);
#71 = VERTEX_POINT('',#72);
#72 = CARTESIAN_POINT('',(18.,-4.40872847693E-15,0.));
#73 = LINE('',#74,#75);
#74 = CARTESIAN_POINT('',(18.,-4.40872847693E-15,0.));
#75 = VECTOR('',#76,1.);
#76 = DIRECTION('',(0.,0.,1.));
#77 = ORIENTED_EDGE('',*,*,#78,.T.);
#78 = EDGE_CURVE('',#71,#71,#79,.T.);
#79 = CIRCLE('',#80,18.);
#80 = AXIS2_PLACEMENT_3D('',#81,#82,#83);
#81 = CARTESIAN_POINT('',(0.,0.,0.));
#82 = DIRECTION('',(0.,0.,1.));
#83 = DIRECTION('',(1.,0.,0.));
#84 = ORIENTED_EDGE('',*,*,#70,.T.);
#85 = ORIENTED_EDGE('',*,*,#86,.F.);
#86 = EDGE_CURVE('',#22,#40,#87,.T.);
#87 = B_SPLINE_CURVE_WITH_KNOTS('',7,(#88,#89,#90,#91,#92,#93,#94,#95,
    #96,#97,#98,#99,#100,#101,#102,#103,#104,#105,#106,#107,#108,#109,
    #110,#111,#112,#113),.UNSPECIFIED.,.F.,.F.,(8,6,6,6,8),(0.,
    0.257871620126,0.500332486552,0.742318459261,1.),.UNSPECIFIED.);
#88 = CARTESIAN_POINT('',(18.,-1.33226762955E-15,6.6));
#89 = CARTESIAN_POINT('',(18.,-0.219176612441,6.6));
#90 = CARTESIAN_POINT('',(17.99688635004,-0.432811052886,6.564972301818)
  );
#91 = CARTESIAN_POINT('',(17.990942876191,-0.634387132689,6.49810344357)
  );
#92 = CARTESIAN_POINT('',(17.982992735942,-0.818447357891,6.403885495089
    ));
#93 = CARTESIAN_POINT('',(17.974187455811,-0.98081879129,6.288043230752)
  );
#94 = CARTESIAN_POINT('',(17.965544215233,-1.119030960836,6.157427140279
    ));
#95 = CARTESIAN_POINT('',(17.950387373529,-1.339811159507,5.890549725003
    ));
#96 = CARTESIAN_POINT('',(17.943606463951,-1.427700530851,5.752082532281
    ));
#97 = CARTESIAN_POINT('',(17.937824314318,-1.497135591738,5.607241158125
    ));
#98 = CARTESIAN_POINT('',(17.933323856514,-1.548724400544,5.458060778932
    ));
#99 = CARTESIAN_POINT('',(17.930271769233,-1.582923820216,5.306179397866
    ));
#100 = CARTESIAN_POINT('',(17.928747864812,-1.6,5.153032634605));
#101 = CARTESIAN_POINT('',(17.928747864812,-1.6,4.847267101338));
#102 = CARTESIAN_POINT('',(17.930265803797,-1.58299063022,4.694087859706
    ));
#103 = CARTESIAN_POINT('',(17.933317845516,-1.548791895442,
    4.542010232834));
#104 = CARTESIAN_POINT('',(17.937826237811,-1.497122746196,
    4.392627331142));
#105 = CARTESIAN_POINT('',(17.943616553895,-1.427583680333,
    4.247687056134));
#106 = CARTESIAN_POINT('',(17.950397548462,-1.339662947649,
    4.109271117637));
#107 = CARTESIAN_POINT('',(17.965542941484,-1.119049514738,
    3.842595287536));
#108 = CARTESIAN_POINT('',(17.974186325053,-0.980839304214,
    3.711969646943));
#109 = CARTESIAN_POINT('',(17.982992970426,-0.81845092997,3.596107952254
    ));
#110 = CARTESIAN_POINT('',(17.990944516186,-0.634362354149,
    3.501878059172));
#111 = CARTESIAN_POINT('',(17.996887644256,-0.432762545631,
    3.435013156167));
#112 = CARTESIAN_POINT('',(18.,-0.219131123467,3.4));
#113 = CARTESIAN_POINT('',(18.,-8.881784197001E-16,3.4));
#114 = FACE_BOUND('',#115,.T.);
#115 = EDGE_LOOP('',(#116,#149));
#116 = ORIENTED_EDGE('',*,*,#117,.T.);
#117 = EDGE_CURVE('',#118,#120,#122,.T.);
#118 = VERTEX_POINT('',#119);
#119 = CARTESIAN_POINT('',(-18.,-1.959434878636E-16,3.4));
#120 = VERTEX_POINT('',#121);
#121 = CARTESIAN_POINT('',(-18.,3.918869757272E-16,6.6));
#122 = B_SPLINE_CURVE_WITH_KNOTS('',7,(#123,#124,#125,#126,#127,#128,
    #129,#130,#131,#132,#133,#134,#135,#136,#137,#138,#139,#140,#141,
    #142,#143,#144,#145,#146,#147,#148),.UNSPECIFIED.,.F.,.F.,(8,6,6,6,8
    ),(0.,0.257887063474,0.500426460216,0.742393463333,1.),
  .UNSPECIFIED.);
#123 = CARTESIAN_POINT('',(-18.,2.425295846821E-15,3.4));
#124 = CARTESIAN_POINT('',(-18.,0.219176612441,3.4));
#125 = CARTESIAN_POINT('',(-17.99688635004,0.432811052886,3.435027698183
    ));
#126 = CARTESIAN_POINT('',(-17.99094287619,0.634387132688,3.50189655643)
  );
#127 = CARTESIAN_POINT('',(-17.98299273594,0.818447357892,3.596114504911
    ));
#128 = CARTESIAN_POINT('',(-17.97418745581,0.98081879129,3.711956769247)
  );
#129 = CARTESIAN_POINT('',(-17.96554421523,1.119030960836,3.842572859721
    ));
#130 = CARTESIAN_POINT('',(-17.95038543456,1.339839403262,4.109484415832
    ));
#131 = CARTESIAN_POINT('',(-17.94360398387,1.427730924199,4.247971239732
    ));
#132 = CARTESIAN_POINT('',(-17.93782309277,1.497147486869,4.392804054816
    ));
#133 = CARTESIAN_POINT('',(-17.93332464524,1.548715560604,4.541945928424
    ));
#134 = CARTESIAN_POINT('',(-17.9302729926,1.582910103767,4.693778280222)
  );
#135 = CARTESIAN_POINT('',(-17.92874786481,1.6,4.846905798615));
#136 = CARTESIAN_POINT('',(-17.92874786481,1.6,5.152732898661));
#137 = CARTESIAN_POINT('',(-17.93026580379,1.58299063022,5.305912140293)
  );
#138 = CARTESIAN_POINT('',(-17.93331784551,1.548791895442,5.457989767166
    ));
#139 = CARTESIAN_POINT('',(-17.93782623781,1.497122746196,5.607372668859
    ));
#140 = CARTESIAN_POINT('',(-17.94361655389,1.427583680332,5.752312943868
    ));
#141 = CARTESIAN_POINT('',(-17.95039754846,1.339662947648,5.890728882364
    ));
#142 = CARTESIAN_POINT('',(-17.96554128019,1.11907371376,6.157375460871)
  );
#143 = CARTESIAN_POINT('',(-17.97418524476,0.980860234037,6.28802056486)
  );
#144 = CARTESIAN_POINT('',(-17.98299390717,0.818444478676,6.403907430538
    ));
#145 = CARTESIAN_POINT('',(-17.99094676699,0.63432112948,6.498147104429)
  );
#146 = CARTESIAN_POINT('',(-17.99688909533,0.432700478184,6.565003203415
    ));
#147 = CARTESIAN_POINT('',(-18.,0.219079914395,6.6));
#148 = CARTESIAN_POINT('',(-18.,2.008668342856E-15,6.6));
#149 = ORIENTED_EDGE('',*,*,#150,.T.);
#150 = EDGE_CURVE('',#120,#118,#151,.T.);
#151 = B_SPLINE_CURVE_WITH_KNOTS('',7,(#152,#153,#154,#155,#156,#157,
    #158,#159,#160,#161,#162,#163,#164,#165,#166,#167,#168,#169,#170,
    #171,#172,#173,#174,#175,#176,#177),.UNSPECIFIED.,.F.,.F.,(8,6,6,6,8
    ),(0.,0.257871620127,0.500332486558,0.742318459265,1.),
  .UNSPECIFIED.);
#152 = CARTESIAN_POINT('',(-18.,1.998401444325E-15,6.6));
#153 = CARTESIAN_POINT('',(-18.,-0.219176612441,6.6));
#154 = CARTESIAN_POINT('',(-17.99688635004,-0.432811052886,
    6.564972301817));
#155 = CARTESIAN_POINT('',(-17.99094287619,-0.634387132688,6.49810344357
    ));
#156 = CARTESIAN_POINT('',(-17.98299273594,-0.818447357892,
    6.403885495089));
#157 = CARTESIAN_POINT('',(-17.97418745581,-0.98081879129,6.288043230753
    ));
#158 = CARTESIAN_POINT('',(-17.96554421523,-1.119030960836,
    6.157427140279));
#159 = CARTESIAN_POINT('',(-17.95038737352,-1.339811159509,
    5.890549725001));
#160 = CARTESIAN_POINT('',(-17.94360646395,-1.427700530854,
    5.752082532276));
#161 = CARTESIAN_POINT('',(-17.93782431431,-1.497135591739,
    5.607241158123));
#162 = CARTESIAN_POINT('',(-17.93332385651,-1.548724400543,
    5.458060778931));
#163 = CARTESIAN_POINT('',(-17.93027176923,-1.582923820215,5.30617939787
    ));
#164 = CARTESIAN_POINT('',(-17.92874786481,-1.6,5.153032634611));
#165 = CARTESIAN_POINT('',(-17.92874786481,-1.6,4.847267101337));
#166 = CARTESIAN_POINT('',(-17.93026580379,-1.58299063022,4.694087859706
    ));
#167 = CARTESIAN_POINT('',(-17.93331784551,-1.548791895441,
    4.542010232833));
#168 = CARTESIAN_POINT('',(-17.93782623781,-1.497122746196,
    4.392627331143));
#169 = CARTESIAN_POINT('',(-17.94361655389,-1.427583680333,
    4.247687056134));
#170 = CARTESIAN_POINT('',(-17.95039754846,-1.33966294765,4.109271117638
    ));
#171 = CARTESIAN_POINT('',(-17.96554294148,-1.119049514738,
    3.842595287536));
#172 = CARTESIAN_POINT('',(-17.97418632505,-0.980839304214,
    3.711969646943));
#173 = CARTESIAN_POINT('',(-17.98299297042,-0.818450929971,
    3.596107952255));
#174 = CARTESIAN_POINT('',(-17.99094451618,-0.634362354149,
    3.501878059172));
#175 = CARTESIAN_POINT('',(-17.99688764425,-0.432762545632,
    3.435013156167));
#176 = CARTESIAN_POINT('',(-18.,-0.219131123467,3.4));
#177 = CARTESIAN_POINT('',(-18.,2.442490654175E-15,3.4));
#178 = CYLINDRICAL_SURFACE('',#179,18.);
#179 = AXIS2_PLACEMENT_3D('',#180,#181,#182);
#180 = CARTESIAN_POINT('',(0.,0.,0.));
#181 = DIRECTION('',(0.,0.,1.));
#182 = DIRECTION('',(1.,0.,0.));
#183 = ADVANCED_FACE('',(#184),#257,.F.);
#184 = FACE_BOUND('',#185,.F.);
#185 = EDGE_LOOP('',(#186,#187,#195,#226,#255,#256));
#186 = ORIENTED_EDGE('',*,*,#86,.F.);
#187 = ORIENTED_EDGE('',*,*,#188,.F.);
#188 = EDGE_CURVE('',#189,#22,#191,.T.);
#189 = VERTEX_POINT('',#190);
#190 = CARTESIAN_POINT('',(10.2,-1.053196247267E-15,6.6));
#191 = LINE('',#192,#193);
#192 = CARTESIAN_POINT('',(-18.,3.918869757272E-16,6.6));
#193 = VECTOR('',#194,1.);
#194 = DIRECTION('',(1.,0.,0.));
#195 = ORIENTED_EDGE('',*,*,#196,.T.);
#196 = EDGE_CURVE('',#189,#197,#199,.T.);
#197 = VERTEX_POINT('',#198);
#198 = CARTESIAN_POINT('',(10.2,-2.498279470261E-15,3.4));
#199 = B_SPLINE_CURVE_WITH_KNOTS('',7,(#200,#201,#202,#203,#204,#205,
    #206,#207,#208,#209,#210,#211,#212,#213,#214,#215,#216,#217,#218,
    #219,#220,#221,#222,#223,#224,#225),.UNSPECIFIED.,.F.,.F.,(8,6,6,6,8
    ),(0.,0.247833570234,0.500041170763,0.752264549243,1.),
  .UNSPECIFIED.);
#200 = CARTESIAN_POINT('',(10.2,-4.440892098501E-16,6.6));
#201 = CARTESIAN_POINT('',(10.2,-0.210469464711,6.6));
#202 = CARTESIAN_POINT('',(10.194933153397,-0.415968399036,
    6.567700069838));
#203 = CARTESIAN_POINT('',(10.185231352734,-0.610653615719,
    6.505844552016));
#204 = CARTESIAN_POINT('',(10.172134075916,-0.789545561411,
    6.418360683009));
#205 = CARTESIAN_POINT('',(10.157408586527,-0.948740869377,6.31031107858
    ));
#206 = CARTESIAN_POINT('',(10.142698052397,-1.085791888971,
    6.187844231985));
#207 = CARTESIAN_POINT('',(10.115352253935,-1.316582336434,
    5.926063855003));
#208 = CARTESIAN_POINT('',(10.102423610578,-1.412339436176,
    5.783286814692));
#209 = CARTESIAN_POINT('',(10.091297704044,-1.487979295045,
    5.633073279785));
#210 = CARTESIAN_POINT('',(10.082600291361,-1.54414101516,5.477876210303
    ));
#211 = CARTESIAN_POINT('',(10.076687077319,-1.58137063309,5.319608600085
    ));
#212 = CARTESIAN_POINT('',(10.07372820757,-1.6,5.15984104862));
#213 = CARTESIAN_POINT('',(10.07372820757,-1.6,4.840148951823));
#214 = CARTESIAN_POINT('',(10.07668744149,-1.58136832655,4.680382787578)
  );
#215 = CARTESIAN_POINT('',(10.082600658369,-1.544138744243,
    4.522123779645));
#216 = CARTESIAN_POINT('',(10.091297322805,-1.487981287426,
    4.366937010659));
#217 = CARTESIAN_POINT('',(10.102422317703,-1.412347872433,
    4.216729111923));
#218 = CARTESIAN_POINT('',(10.115350974416,-1.3165931352,4.073948393793)
  );
#219 = CARTESIAN_POINT('',(10.142693095783,-1.085833721324,
    3.812203217505));
#220 = CARTESIAN_POINT('',(10.157404611744,-0.948783799724,
    3.689713467466));
#221 = CARTESIAN_POINT('',(10.172135427021,-0.78954934977,3.581623669612
    ));
#222 = CARTESIAN_POINT('',(10.185237272924,-0.610597675617,
    3.494117604585));
#223 = CARTESIAN_POINT('',(10.194937623772,-0.415866944653,
    3.432271499049));
#224 = CARTESIAN_POINT('',(10.2,-0.210376734204,3.4));
#225 = CARTESIAN_POINT('',(10.2,-6.661338147751E-16,3.4));
#226 = ORIENTED_EDGE('',*,*,#227,.T.);
#227 = EDGE_CURVE('',#197,#189,#228,.T.);
#228 = B_SPLINE_CURVE_WITH_KNOTS('',7,(#229,#230,#231,#232,#233,#234,
    #235,#236,#237,#238,#239,#240,#241,#242,#243,#244,#245,#246,#247,
    #248,#249,#250,#251,#252,#253,#254),.UNSPECIFIED.,.F.,.F.,(8,6,6,6,8
    ),(0.,0.247822991487,0.500043222669,0.752263453852,1.),
  .UNSPECIFIED.);
#229 = CARTESIAN_POINT('',(10.2,6.125709918283E-16,3.4));
#230 = CARTESIAN_POINT('',(10.2,0.210469464711,3.4));
#231 = CARTESIAN_POINT('',(10.194933153397,0.415968399036,3.432299930162
    ));
#232 = CARTESIAN_POINT('',(10.185231352734,0.610653615719,3.494155447983
    ));
#233 = CARTESIAN_POINT('',(10.172134075916,0.789545561411,3.581639316992
    ));
#234 = CARTESIAN_POINT('',(10.157408586527,0.948740869377,3.689688921419
    ));
#235 = CARTESIAN_POINT('',(10.142698052397,1.085791888971,3.812155768015
    ));
#236 = CARTESIAN_POINT('',(10.115350974416,1.316593135201,4.073948393793
    ));
#237 = CARTESIAN_POINT('',(10.102422317703,1.412347872433,4.216729111924
    ));
#238 = CARTESIAN_POINT('',(10.091297322805,1.487981287426,4.366937010659
    ));
#239 = CARTESIAN_POINT('',(10.082600658369,1.544138744243,4.522123779645
    ));
#240 = CARTESIAN_POINT('',(10.07668744149,1.58136832655,4.680382787578)
  );
#241 = CARTESIAN_POINT('',(10.07372820757,1.6,4.840148951823));
#242 = CARTESIAN_POINT('',(10.07372820757,1.6,5.159851048177));
#243 = CARTESIAN_POINT('',(10.07668744149,1.58136832655,5.319617212422)
  );
#244 = CARTESIAN_POINT('',(10.082600658369,1.544138744243,5.477876220355
    ));
#245 = CARTESIAN_POINT('',(10.091297322805,1.487981287426,5.633062989341
    ));
#246 = CARTESIAN_POINT('',(10.102422317703,1.412347872433,5.783270888076
    ));
#247 = CARTESIAN_POINT('',(10.115350974416,1.316593135201,5.926051606207
    ));
#248 = CARTESIAN_POINT('',(10.142693324751,1.085831788905,6.187798974393
    ));
#249 = CARTESIAN_POINT('',(10.157405235144,0.948778129581,6.310291858202
    ));
#250 = CARTESIAN_POINT('',(10.172136102275,0.789541399475,6.418380538744
    ));
#251 = CARTESIAN_POINT('',(10.185237392865,0.610592281061,6.505882957545
    ));
#252 = CARTESIAN_POINT('',(10.194937376658,0.415867526319,6.567727009245
    ));
#253 = CARTESIAN_POINT('',(10.2,0.210381688669,6.6));
#254 = CARTESIAN_POINT('',(10.2,9.064862236237E-16,6.6));
#255 = ORIENTED_EDGE('',*,*,#188,.T.);
#256 = ORIENTED_EDGE('',*,*,#39,.F.);
#257 = CYLINDRICAL_SURFACE('',#258,1.6);
#258 = AXIS2_PLACEMENT_3D('',#259,#260,#261);
#259 = CARTESIAN_POINT('',(-18.,0.,5.));
#260 = DIRECTION('',(1.,0.,0.));
#261 = DIRECTION('',(0.,0.,1.));
#262 = ADVANCED_FACE('',(#263,#266,#277,#288,#299,#310),#321,.F.);
#263 = FACE_BOUND('',#264,.F.);
#264 = EDGE_LOOP('',(#265));
#265 = ORIENTED_EDGE('',*,*,#78,.T.);
#266 = FACE_BOUND('',#267,.F.);
#267 = EDGE_LOOP('',(#268));
#268 = ORIENTED_EDGE('',*,*,#269,.F.);
#269 = EDGE_CURVE('',#270,#270,#272,.T.);
#270 = VERTEX_POINT('',#271);
#271 = CARTESIAN_POINT('',(-7.649494936612,-9.899494936612,0.));
#272 = CIRCLE('',#273,2.25);
#273 = AXIS2_PLACEMENT_3D('',#274,#275,#276);
#274 = CARTESIAN_POINT('',(-9.899494936612,-9.899494936612,0.));
#275 = DIRECTION('',(0.,0.,1.));
#276 = DIRECTION('',(1.,0.,0.));
#277 = FACE_BOUND('',#278,.F.);
#278 = EDGE_LOOP('',(#279));
#279 = ORIENTED_EDGE('',*,*,#280,.F.);
#280 = EDGE_CURVE('',#281,#281,#283,.T.);
#281 = VERTEX_POINT('',#282);
#282 = CARTESIAN_POINT('',(12.149494936612,-9.899494936612,0.));
#283 = CIRCLE('',#284,2.25);
#284 = AXIS2_PLACEMENT_3D('',#285,#286,#287);
#285 = CARTESIAN_POINT('',(9.899494936612,-9.899494936612,0.));
#286 = DIRECTION('',(0.,0.,1.));
#287 = DIRECTION('',(1.,0.,0.));
#288 = FACE_BOUND('',#289,.F.);
#289 = EDGE_LOOP('',(#290));
#290 = ORIENTED_EDGE('',*,*,#291,.F.);
#291 = EDGE_CURVE('',#292,#292,#294,.T.);
#292 = VERTEX_POINT('',#293);
#293 = CARTESIAN_POINT('',(-7.649494936612,9.899494936612,0.));
#294 = CIRCLE('',#295,2.25);
#295 = AXIS2_PLACEMENT_3D('',#296,#297,#298);
#296 = CARTESIAN_POINT('',(-9.899494936612,9.899494936612,0.));
#297 = DIRECTION('',(0.,0.,1.));
#298 = DIRECTION('',(1.,0.,0.));
#299 = FACE_BOUND('',#300,.F.);
#300 = EDGE_LOOP('',(#301));
#301 = ORIENTED_EDGE('',*,*,#302,.F.);
#302 = EDGE_CURVE('',#303,#303,#305,.T.);
#303 = VERTEX_POINT('',#304);
#304 = CARTESIAN_POINT('',(10.2,-2.498279470261E-15,0.));
#305 = CIRCLE('',#306,10.2);
#306 = AXIS2_PLACEMENT_3D('',#307,#308,#309);
#307 = CARTESIAN_POINT('',(0.,0.,0.));
#308 = DIRECTION('',(0.,0.,1.));
#309 = DIRECTION('',(1.,0.,0.));
#310 = FACE_BOUND('',#311,.F.);
#311 = EDGE_LOOP('',(#312));
#312 = ORIENTED_EDGE('',*,*,#313,.F.);
#313 = EDGE_CURVE('',#314,#314,#316,.T.);
#314 = VERTEX_POINT('',#315);
#315 = CARTESIAN_POINT('',(12.149494936612,9.899494936612,0.));
#316 = CIRCLE('',#317,2.25);
#317 = AXIS2_PLACEMENT_3D('',#318,#319,#320);
#318 = CARTESIAN_POINT('',(9.899494936612,9.899494936612,0.));
#319 = DIRECTION('',(0.,0.,1.));
#320 = DIRECTION('',(1.,0.,0.));
#321 = PLANE('',#322);
#322 = AXIS2_PLACEMENT_3D('',#323,#324,#325);
#323 = CARTESIAN_POINT('',(0.,0.,0.));
#324 = DIRECTION('',(0.,0.,1.));
#325 = DIRECTION('',(1.,0.,0.));
#326 = ADVANCED_FACE('',(#327,#330,#341,#352,#363,#374),#385,.T.);
#327 = FACE_BOUND('',#328,.T.);
#328 = EDGE_LOOP('',(#329));
#329 = ORIENTED_EDGE('',*,*,#31,.T.);
#330 = FACE_BOUND('',#331,.T.);
#331 = EDGE_LOOP('',(#332));
#332 = ORIENTED_EDGE('',*,*,#333,.F.);
#333 = EDGE_CURVE('',#334,#334,#336,.T.);
#334 = VERTEX_POINT('',#335);
#335 = CARTESIAN_POINT('',(-7.649494936612,-9.899494936612,10.));
#336 = CIRCLE('',#337,2.25);
#337 = AXIS2_PLACEMENT_3D('',#338,#339,#340);
#338 = CARTESIAN_POINT('',(-9.899494936612,-9.899494936612,10.));
#339 = DIRECTION('',(0.,0.,1.));
#340 = DIRECTION('',(1.,0.,0.));
#341 = FACE_BOUND('',#342,.T.);
#342 = EDGE_LOOP('',(#343));
#343 = ORIENTED_EDGE('',*,*,#344,.F.);
#344 = EDGE_CURVE('',#345,#345,#347,.T.);
#345 = VERTEX_POINT('',#346);
#346 = CARTESIAN_POINT('',(12.149494936612,-9.899494936612,10.));
#347 = CIRCLE('',#348,2.25);
#348 = AXIS2_PLACEMENT_3D('',#349,#350,#351);
#349 = CARTESIAN_POINT('',(9.899494936612,-9.899494936612,10.));
#350 = DIRECTION('',(0.,0.,1.));
#351 = DIRECTION('',(1.,0.,0.));
#352 = FACE_BOUND('',#353,.T.);
#353 = EDGE_LOOP('',(#354));
#354 = ORIENTED_EDGE('',*,*,#355,.F.);
#355 = EDGE_CURVE('',#356,#356,#358,.T.);
#356 = VERTEX_POINT('',#357);
#357 = CARTESIAN_POINT('',(-7.649494936612,9.899494936612,10.));
#358 = CIRCLE('',#359,2.25);
#359 = AXIS2_PLACEMENT_3D('',#360,#361,#362);
#360 = CARTESIAN_POINT('',(-9.899494936612,9.899494936612,10.));
#361 = DIRECTION('',(0.,0.,1.));
#362 = DIRECTION('',(1.,0.,0.));
#363 = FACE_BOUND('',#364,.T.);
#364 = EDGE_LOOP('',(#365));
#365 = ORIENTED_EDGE('',*,*,#366,.F.);
#366 = EDGE_CURVE('',#367,#367,#369,.T.);
#367 = VERTEX_POINT('',#368);
#368 = CARTESIAN_POINT('',(10.2,-2.498279470261E-15,10.));
#369 = CIRCLE('',#370,10.2);
#370 = AXIS2_PLACEMENT_3D('',#371,#372,#373);
#371 = CARTESIAN_POINT('',(0.,0.,10.));
#372 = DIRECTION('',(0.,0.,1.));
#373 = DIRECTION('',(1.,0.,0.));
#374 = FACE_BOUND('',#375,.T.);
#375 = EDGE_LOOP('',(#376));
#376 = ORIENTED_EDGE('',*,*,#377,.F.);
#377 = EDGE_CURVE('',#378,#378,#380,.T.);
#378 = VERTEX_POINT('',#379);
#379 = CARTESIAN_POINT('',(12.149494936612,9.899494936612,10.));
#380 = CIRCLE('',#381,2.25);
#381 = AXIS2_PLACEMENT_3D('',#382,#383,#384);
#382 = CARTESIAN_POINT('',(9.899494936612,9.899494936612,10.));
#383 = DIRECTION('',(0.,0.,1.));
#384 = DIRECTION('',(1.,0.,0.));
#385 = PLANE('',#386);
#386 = AXIS2_PLACEMENT_3D('',#387,#388,#389);
#387 = CARTESIAN_POINT('',(0.,0.,10.));
#388 = DIRECTION('',(0.,0.,1.));
#389 = DIRECTION('',(1.,0.,0.));
#390 = ADVANCED_FACE('',(#391),#457,.F.);
#391 = FACE_BOUND('',#392,.F.);
#392 = EDGE_LOOP('',(#393,#448,#454,#455,#456));
#393 = ORIENTED_EDGE('',*,*,#394,.F.);
#394 = EDGE_CURVE('',#395,#395,#397,.T.);
#395 = VERTEX_POINT('',#396);
#396 = CARTESIAN_POINT('',(-10.2,3.918869757272E-16,6.6));
#397 = B_SPLINE_CURVE_WITH_KNOTS('',7,(#398,#399,#400,#401,#402,#403,
    #404,#405,#406,#407,#408,#409,#410,#411,#412,#413,#414,#415,#416,
    #417,#418,#419,#420,#421,#422,#423,#424,#425,#426,#427,#428,#429,
    #430,#431,#432,#433,#434,#435,#436,#437,#438,#439,#440,#441,#442,
    #443,#444,#445,#446,#447),.UNSPECIFIED.,.T.,.F.,(8,6,6,6,6,6,6,6,8),
  (0.,0.123911370905,0.250009661403,0.376115840531,0.499978153842,
    0.623895063566,0.7500106892,0.876126314834,1.),.UNSPECIFIED.);
#398 = CARTESIAN_POINT('',(-10.2,1.554312234475E-15,6.6));
#399 = CARTESIAN_POINT('',(-10.2,-0.210469464711,6.6));
#400 = CARTESIAN_POINT('',(-10.19493315339,-0.415968399035,
    6.567700069838));
#401 = CARTESIAN_POINT('',(-10.18523135273,-0.610653615719,
    6.505844552016));
#402 = CARTESIAN_POINT('',(-10.17213407591,-0.789545561411,
    6.418360683009));
#403 = CARTESIAN_POINT('',(-10.15740858652,-0.948740869377,6.31031107858
    ));
#404 = CARTESIAN_POINT('',(-10.14269805239,-1.085791888971,
    6.187844231985));
#405 = CARTESIAN_POINT('',(-10.11535225393,-1.316582336434,
    5.926063855003));
#406 = CARTESIAN_POINT('',(-10.10242361057,-1.412339436176,
    5.783286814691));
#407 = CARTESIAN_POINT('',(-10.09129770404,-1.487979295045,
    5.633073279785));
#408 = CARTESIAN_POINT('',(-10.08260029136,-1.54414101516,5.477876210303
    ));
#409 = CARTESIAN_POINT('',(-10.07668707732,-1.58137063309,5.319608600086
    ));
#410 = CARTESIAN_POINT('',(-10.07372820757,-1.6,5.15984104862));
#411 = CARTESIAN_POINT('',(-10.07372820757,-1.6,4.840148951823));
#412 = CARTESIAN_POINT('',(-10.07668744149,-1.58136832655,4.680382787578
    ));
#413 = CARTESIAN_POINT('',(-10.08260065836,-1.544138744243,
    4.522123779645));
#414 = CARTESIAN_POINT('',(-10.0912973228,-1.487981287426,4.366937010659
    ));
#415 = CARTESIAN_POINT('',(-10.1024223177,-1.412347872433,4.216729111924
    ));
#416 = CARTESIAN_POINT('',(-10.11535097441,-1.3165931352,4.073948393793)
  );
#417 = CARTESIAN_POINT('',(-10.14269309578,-1.085833721324,
    3.812203217505));
#418 = CARTESIAN_POINT('',(-10.15740461174,-0.948783799724,
    3.689713467466));
#419 = CARTESIAN_POINT('',(-10.17213542702,-0.78954934977,3.581623669612
    ));
#420 = CARTESIAN_POINT('',(-10.18523727292,-0.610597675617,
    3.494117604585));
#421 = CARTESIAN_POINT('',(-10.19493762377,-0.415866944653,
    3.432271499049));
#422 = CARTESIAN_POINT('',(-10.2,-0.210376734204,3.4));
#423 = CARTESIAN_POINT('',(-10.2,0.210469464711,3.4));
#424 = CARTESIAN_POINT('',(-10.19493315339,0.415968399036,3.432299930163
    ));
#425 = CARTESIAN_POINT('',(-10.18523135273,0.610653615718,3.494155447983
    ));
#426 = CARTESIAN_POINT('',(-10.17213407591,0.789545561412,3.581639316992
    ));
#427 = CARTESIAN_POINT('',(-10.15740858652,0.948740869377,3.689688921419
    ));
#428 = CARTESIAN_POINT('',(-10.14269805239,1.085791888971,3.812155768015
    ));
#429 = CARTESIAN_POINT('',(-10.11535097441,1.3165931352,4.073948393793)
  );
#430 = CARTESIAN_POINT('',(-10.1024223177,1.412347872434,4.216729111924)
  );
#431 = CARTESIAN_POINT('',(-10.0912973228,1.487981287425,4.366937010658)
  );
#432 = CARTESIAN_POINT('',(-10.08260065836,1.544138744243,4.522123779646
    ));
#433 = CARTESIAN_POINT('',(-10.07668744149,1.58136832655,4.680382787577)
  );
#434 = CARTESIAN_POINT('',(-10.07372820757,1.6,4.840148951823));
#435 = CARTESIAN_POINT('',(-10.07372820757,1.6,5.159851048176));
#436 = CARTESIAN_POINT('',(-10.07668744149,1.58136832655,5.319617212421)
  );
#437 = CARTESIAN_POINT('',(-10.08260065836,1.544138744244,5.477876220355
    ));
#438 = CARTESIAN_POINT('',(-10.0912973228,1.487981287426,5.633062989341)
  );
#439 = CARTESIAN_POINT('',(-10.1024223177,1.412347872433,5.783270888077)
  );
#440 = CARTESIAN_POINT('',(-10.11535097441,1.3165931352,5.926051606208)
  );
#441 = CARTESIAN_POINT('',(-10.14269332475,1.085831788906,6.187798974393
    ));
#442 = CARTESIAN_POINT('',(-10.15740523514,0.948778129581,6.310291858202
    ));
#443 = CARTESIAN_POINT('',(-10.17213610227,0.789541399475,6.418380538744
    ));
#444 = CARTESIAN_POINT('',(-10.18523739286,0.610592281061,6.505882957545
    ));
#445 = CARTESIAN_POINT('',(-10.19493737665,0.415867526319,6.567727009245
    ));
#446 = CARTESIAN_POINT('',(-10.2,0.210381688669,6.6));
#447 = CARTESIAN_POINT('',(-10.2,1.554312234475E-15,6.6));
#448 = ORIENTED_EDGE('',*,*,#449,.F.);
#449 = EDGE_CURVE('',#120,#395,#450,.T.);
#450 = LINE('',#451,#452);
#451 = CARTESIAN_POINT('',(-18.,3.918869757272E-16,6.6));
#452 = VECTOR('',#453,1.);
#453 = DIRECTION('',(1.,0.,0.));
#454 = ORIENTED_EDGE('',*,*,#150,.T.);
#455 = ORIENTED_EDGE('',*,*,#117,.T.);
#456 = ORIENTED_EDGE('',*,*,#449,.T.);
#457 = CYLINDRICAL_SURFACE('',#458,1.6);
#458 = AXIS2_PLACEMENT_3D('',#459,#460,#461);
#459 = CARTESIAN_POINT('',(-18.,0.,5.));
#460 = DIRECTION('',(1.,0.,0.));
#461 = DIRECTION('',(0.,0.,1.));
#462 = ADVANCED_FACE('',(#463,#483),#486,.F.);
#463 = FACE_BOUND('',#464,.F.);
#464 = EDGE_LOOP('',(#465,#471,#472,#473,#474,#480,#481,#482));
#465 = ORIENTED_EDGE('',*,*,#466,.T.);
#466 = EDGE_CURVE('',#189,#367,#467,.T.);
#467 = LINE('',#468,#469);
#468 = CARTESIAN_POINT('',(10.2,-2.498279470261E-15,0.));
#469 = VECTOR('',#470,1.);
#470 = DIRECTION('',(0.,0.,1.));
#471 = ORIENTED_EDGE('',*,*,#366,.F.);
#472 = ORIENTED_EDGE('',*,*,#466,.F.);
#473 = ORIENTED_EDGE('',*,*,#227,.F.);
#474 = ORIENTED_EDGE('',*,*,#475,.F.);
#475 = EDGE_CURVE('',#303,#197,#476,.T.);
#476 = LINE('',#477,#478);
#477 = CARTESIAN_POINT('',(10.2,-2.498279470261E-15,0.));
#478 = VECTOR('',#479,1.);
#479 = DIRECTION('',(0.,0.,1.));
#480 = ORIENTED_EDGE('',*,*,#302,.T.);
#481 = ORIENTED_EDGE('',*,*,#475,.T.);
#482 = ORIENTED_EDGE('',*,*,#196,.F.);
#483 = FACE_BOUND('',#484,.F.);
#484 = EDGE_LOOP('',(#485));
#485 = ORIENTED_EDGE('',*,*,#394,.T.);
#486 = CYLINDRICAL_SURFACE('',#487,10.2);
#487 = AXIS2_PLACEMENT_3D('',#488,#489,#490);
#488 = CARTESIAN_POINT('',(0.,0.,0.));
#489 = DIRECTION('',(0.,0.,1.));
#490 = DIRECTION('',(1.,0.,0.));
#491 = ADVANCED_FACE('',(#492),#503,.F.);
#492 = FACE_BOUND('',#493,.F.);
#493 = EDGE_LOOP('',(#494,#495,#501,#502));
#494 = ORIENTED_EDGE('',*,*,#333,.F.);
#495 = ORIENTED_EDGE('',*,*,#496,.F.);
#496 = EDGE_CURVE('',#270,#334,#497,.T.);
#497 = LINE('',#498,#499);
#498 = CARTESIAN_POINT('',(-7.649494936612,-9.899494936612,0.));
#499 = VECTOR('',#500,1.);
#500 = DIRECTION('',(0.,0.,1.));
#501 = ORIENTED_EDGE('',*,*,#269,.T.);
#502 = ORIENTED_EDGE('',*,*,#496,.T.);
#503 = CYLINDRICAL_SURFACE('',#504,2.25);
#504 = AXIS2_PLACEMENT_3D('',#505,#506,#507);
#505 = CARTESIAN_POINT('',(-9.899494936612,-9.899494936612,0.));
#506 = DIRECTION('',(0.,0.,1.));
#507 = DIRECTION('',(1.,0.,0.));
#508 = ADVANCED_FACE('',(#509),#520,.F.);
#509 = FACE_BOUND('',#510,.F.);
#510 = EDGE_LOOP('',(#511,#512,#518,#519));
#511 = ORIENTED_EDGE('',*,*,#344,.F.);
#512 = ORIENTED_EDGE('',*,*,#513,.F.);
#513 = EDGE_CURVE('',#281,#345,#514,.T.);
#514 = LINE('',#515,#516);
#515 = CARTESIAN_POINT('',(12.149494936612,-9.899494936612,0.));
#516 = VECTOR('',#517,1.);
#517 = DIRECTION('',(0.,0.,1.));
#518 = ORIENTED_EDGE('',*,*,#280,.T.);
#519 = ORIENTED_EDGE('',*,*,#513,.T.);
#520 = CYLINDRICAL_SURFACE('',#521,2.25);
#521 = AXIS2_PLACEMENT_3D('',#522,#523,#524);
#522 = CARTESIAN_POINT('',(9.899494936612,-9.899494936612,0.));
#523 = DIRECTION('',(0.,0.,1.));
#524 = DIRECTION('',(1.,0.,0.));
#525 = ADVANCED_FACE('',(#526),#537,.F.);
#526 = FACE_BOUND('',#527,.F.);
#527 = EDGE_LOOP('',(#528,#529,#535,#536));
#528 = ORIENTED_EDGE('',*,*,#355,.F.);
#529 = ORIENTED_EDGE('',*,*,#530,.F.);
#530 = EDGE_CURVE('',#292,#356,#531,.T.);
#531 = LINE('',#532,#533);
#532 = CARTESIAN_POINT('',(-7.649494936612,9.899494936612,0.));
#533 = VECTOR('',#534,1.);
#534 = DIRECTION('',(0.,0.,1.));
#535 = ORIENTED_EDGE('',*,*,#291,.T.);
#536 = ORIENTED_EDGE('',*,*,#530,.T.);
#537 = CYLINDRICAL_SURFACE('',#538,2.25);
#538 = AXIS2_PLACEMENT_3D('',#539,#540,#541);
#539 = CARTESIAN_POINT('',(-9.899494936612,9.899494936612,0.));
#540 = DIRECTION('',(0.,0.,1.));
#541 = DIRECTION('',(1.,0.,0.));
#542 = ADVANCED_FACE('',(#543),#554,.F.);
#543 = FACE_BOUND('',#544,.F.);
#544 = EDGE_LOOP('',(#545,#546,#552,#553));
#545 = ORIENTED_EDGE('',*,*,#377,.F.);
#546 = ORIENTED_EDGE('',*,*,#547,.F.);
#547 = EDGE_CURVE('',#314,#378,#548,.T.);
#548 = LINE('',#549,#550);
#549 = CARTESIAN_POINT('',(12.149494936612,9.899494936612,0.));
#550 = VECTOR('',#551,1.);
#551 = DIRECTION('',(0.,0.,1.));
#552 = ORIENTED_EDGE('',*,*,#313,.T.);
#553 = ORIENTED_EDGE('',*,*,#547,.T.);
#554 = CYLINDRICAL_SURFACE('',#555,2.25);
#555 = AXIS2_PLACEMENT_3D('',#556,#557,#558);
#556 = CARTESIAN_POINT('',(9.899494936612,9.899494936612,0.));
#557 = DIRECTION('',(0.,0.,1.));
#558 = DIRECTION('',(1.,0.,0.));
#559 = ( GEOMETRIC_REPRESENTATION_CONTEXT(3) 
GLOBAL_UNCERTAINTY_ASSIGNED_CONTEXT((#563)) GLOBAL_UNIT_ASSIGNED_CONTEXT
((#560,#561,#562)) REPRESENTATION_CONTEXT('Context #1',
  '3D Context with UNIT and UNCERTAINTY') );
#560 = ( LENGTH_UNIT() NAMED_UNIT(*) SI_UNIT(.MILLI.,.METRE.) );
#561 = ( NAMED_UNIT(*) PLANE_ANGLE_UNIT() SI_UNIT($,.RADIAN.) );
#562 = ( NAMED_UNIT(*) SI_UNIT($,.STERADIAN.) SOLID_ANGLE_UNIT() );
#563 = UNCERTAINTY_MEASURE_WITH_UNIT(LENGTH_MEASURE(1.E-07),#560,
  'distance_accuracy_value','confusion accuracy');
#564 = PRODUCT_RELATED_PRODUCT_CATEGORY('part',$,(#7));
ENDSEC;
END-ISO-10303-21;
