ISO-10303-21;
HEADER;
FILE_DESCRIPTION(('FreeCAD Model'),'2;1');
FILE_NAME('Open CASCADE Shape Model','2026-08-28T03:19:55',('FreeCAD'),(
    'FreeCAD'),'Open CASCADE STEP processor 7.9','FreeCAD','Unknown');
FILE_SCHEMA(('AUTOMOTIVE_DESIGN { 1 0 10303 214 1 1 1 1 }'));
ENDSEC;
DATA;
#1 = APPLICATION_PROTOCOL_DEFINITION('international standard',
  'automotive_design',2000,#2);
#2 = APPLICATION_CONTEXT(
  'core data for automotive mechanical design processes');
#3 = SHAPE_DEFINITION_REPRESENTATION(#4,#10);
#4 = PRODUCT_DEFINITION_SHAPE('','',#5);
#5 = PRODUCT_DEFINITION('design','',#6,#9);
#6 = PRODUCT_DEFINITION_FORMATION('','',#7);
#7 = PRODUCT('Open CASCADE STEP translator 7.9 25',
  'Open CASCADE STEP translator 7.9 25','',(#8));
#8 = PRODUCT_CONTEXT('',#2,'mechanical');
#9 = PRODUCT_DEFINITION_CONTEXT('part definition',#2,'design');
#10 = ADVANCED_BREP_SHAPE_REPRESENTATION('',(#11,#15),#1039);
#11 = AXIS2_PLACEMENT_3D('',#12,#13,#14);
#12 = CARTESIAN_POINT('',(0.,0.,0.));
#13 = DIRECTION('',(0.,0.,1.));
#14 = DIRECTION('',(1.,0.,-0.));
#15 = MANIFOLD_SOLID_BREP('',#16);
#16 = CLOSED_SHELL('',(#17,#338,#380,#390,#410,#420,#440,#467,#487,#892,
    #912,#946,#956,#966,#982,#993,#1012,#1029));
#17 = ADVANCED_FACE('',(#18,#304),#333,.T.);
#18 = FACE_BOUND('',#19,.T.);
#19 = EDGE_LOOP('',(#20,#77,#85,#92,#93,#156,#164,#227,#235,#242,#243,
    #298));
#20 = ORIENTED_EDGE('',*,*,#21,.T.);
#21 = EDGE_CURVE('',#22,#24,#26,.T.);
#22 = VERTEX_POINT('',#23);
#23 = CARTESIAN_POINT('',(156.40312423743,150.,58.));
#24 = VERTEX_POINT('',#25);
#25 = CARTESIAN_POINT('',(171.,130.,78.));
#26 = B_SPLINE_CURVE_WITH_KNOTS('',7,(#27,#28,#29,#30,#31,#32,#33,#34,
    #35,#36,#37,#38,#39,#40,#41,#42,#43,#44,#45,#46,#47,#48,#49,#50,#51,
    #52,#53,#54,#55,#56,#57,#58,#59,#60,#61,#62,#63,#64,#65,#66,#67,#68,
    #69,#70,#71,#72,#73,#74,#75,#76),.UNSPECIFIED.,.F.,.F.,(8,6,6,6,6,6,
    6,6,8),(0.,9.929874323598E-02,0.26600139824,0.360939232953,
    0.549914504634,0.702138877826,0.81057744011,0.887465995439,1.),
  .UNSPECIFIED.);
#27 = CARTESIAN_POINT('',(156.40312423743,150.,57.9999994));
#28 = CARTESIAN_POINT('',(156.4031241957,150.00000001335,58.445294035667
    ));
#29 = CARTESIAN_POINT('',(156.4392527597,149.98843335826,58.886246109978
    ));
#30 = CARTESIAN_POINT('',(156.51024059628,149.96570546323,
    59.322803276588));
#31 = CARTESIAN_POINT('',(156.61353214903,149.93218470288,
    59.754517214156));
#32 = CARTESIAN_POINT('',(156.74519425898,149.88830305913,
    60.180002331409));
#33 = CARTESIAN_POINT('',(156.89990046768,149.83492808008,
    60.596523534429));
#34 = CARTESIAN_POINT('',(157.35810214631,149.67107862879,
    61.676598707055));
#35 = CARTESIAN_POINT('',(157.6981879956,149.543979956,62.332128430521)
  );
#36 = CARTESIAN_POINT('',(158.07434595589,149.39473063368,
    62.968069231603));
#37 = CARTESIAN_POINT('',(158.47277406076,149.22523025468,
    63.584319436433));
#38 = CARTESIAN_POINT('',(158.88515046587,149.03724756972,
    64.182502295262));
#39 = CARTESIAN_POINT('',(159.30895669144,148.83049192395,
    64.767724742916));
#40 = CARTESIAN_POINT('',(159.99581685876,148.47059326918,
    65.678770773148));
#41 = CARTESIAN_POINT('',(160.24817351277,148.33339835204,
    66.006006617698));
#42 = CARTESIAN_POINT('',(160.5029074932,148.18962262054,66.32998299942)
  );
#43 = CARTESIAN_POINT('',(160.75946868916,148.03923541264,
    66.650843220666));
#44 = CARTESIAN_POINT('',(161.01746675363,147.8821459051,66.968775186873
    ));
#45 = CARTESIAN_POINT('',(161.27663301815,147.7181963128,67.283995964135
    ));
#46 = CARTESIAN_POINT('',(162.0546139093,147.20669480653,68.21925102829)
  );
#47 = CARTESIAN_POINT('',(162.57571801756,146.83854747524,
    68.831187891847));
#48 = CARTESIAN_POINT('',(163.09775085179,146.44159247817,
    69.433350434097));
#49 = CARTESIAN_POINT('',(163.61903152916,146.01432523205,
    70.026033390276));
#50 = CARTESIAN_POINT('',(164.13791482185,145.55491144512,
    70.609032639979));
#51 = CARTESIAN_POINT('',(164.65252829413,145.06129163238,
    71.181525972742));
#52 = CARTESIAN_POINT('',(165.56984157594,144.10424878894,
    72.193531288888));
#53 = CARTESIAN_POINT('',(165.97468310046,143.6537886906,72.63707662073)
  );
#54 = CARTESIAN_POINT('',(166.37439745763,143.17821840316,
    73.072423280612));
#55 = CARTESIAN_POINT('',(166.76794628517,142.67580160577,
    73.498860991027));
#56 = CARTESIAN_POINT('',(167.15389428427,142.14474870641,
    73.915192157251));
#57 = CARTESIAN_POINT('',(167.53034850847,141.58327173252,
    74.319700785673));
#58 = CARTESIAN_POINT('',(168.15460879611,140.56676155292,
    74.988223082829));
#59 = CARTESIAN_POINT('',(168.40839010972,140.12737404605,
    75.259307021942));
#60 = CARTESIAN_POINT('',(168.65544342986,139.67071766843,75.52259916273
    ));
#61 = CARTESIAN_POINT('',(168.89479337446,139.19605187212,
    75.777156001955));
#62 = CARTESIAN_POINT('',(169.12528921598,138.70267523512,76.02184487094
    ));
#63 = CARTESIAN_POINT('',(169.34559455103,138.18994469106,
    76.255334944308));
#64 = CARTESIAN_POINT('',(169.70207270492,137.27961837785,76.63261377158
    ));
#65 = CARTESIAN_POINT('',(169.8441299655,136.89178655434,76.782794257829
    ));
#66 = CARTESIAN_POINT('',(169.97968487433,136.49386369528,
    76.925956562335));
#67 = CARTESIAN_POINT('',(170.108063093,136.08594174097,77.061417097567)
  );
#68 = CARTESIAN_POINT('',(170.22858016924,135.66814019635,
    77.188481500436));
#69 = CARTESIAN_POINT('',(170.34054188407,135.24060616223,
    77.306444299136));
#70 = CARTESIAN_POINT('',(170.59356017874,134.16378729772,
    77.572868429866));
#71 = CARTESIAN_POINT('',(170.72442780156,133.50194404873,
    77.710522197589));
#72 = CARTESIAN_POINT('',(170.83263009992,132.82185668824,
    77.824235950999));
#73 = CARTESIAN_POINT('',(170.91567405711,132.12751291102,
    77.911457735608));
#74 = CARTESIAN_POINT('',(170.97180217533,131.42299091959,
    77.970392294362));
#75 = CARTESIAN_POINT('',(171.,130.71243045835,78.));
#76 = CARTESIAN_POINT('',(171.,130.,78.));
#77 = ORIENTED_EDGE('',*,*,#78,.T.);
#78 = EDGE_CURVE('',#24,#79,#81,.T.);
#79 = VERTEX_POINT('',#80);
#80 = CARTESIAN_POINT('',(242.,130.,78.));
#81 = LINE('',#82,#83);
#82 = CARTESIAN_POINT('',(58.,130.,78.));
#83 = VECTOR('',#84,1.);
#84 = DIRECTION('',(1.,0.,0.));
#85 = ORIENTED_EDGE('',*,*,#86,.F.);
#86 = EDGE_CURVE('',#79,#79,#87,.T.);
#87 = CIRCLE('',#88,20.);
#88 = AXIS2_PLACEMENT_3D('',#89,#90,#91);
#89 = CARTESIAN_POINT('',(242.,130.,58.));
#90 = DIRECTION('',(1.,0.,-0.));
#91 = DIRECTION('',(0.,0.,1.));
#92 = ORIENTED_EDGE('',*,*,#78,.F.);
#93 = ORIENTED_EDGE('',*,*,#94,.T.);
#94 = EDGE_CURVE('',#24,#95,#97,.T.);
#95 = VERTEX_POINT('',#96);
#96 = CARTESIAN_POINT('',(156.40312423743,110.,58.));
#97 = B_SPLINE_CURVE_WITH_KNOTS('',8,(#98,#99,#100,#101,#102,#103,#104,
    #105,#106,#107,#108,#109,#110,#111,#112,#113,#114,#115,#116,#117,
    #118,#119,#120,#121,#122,#123,#124,#125,#126,#127,#128,#129,#130,
    #131,#132,#133,#134,#135,#136,#137,#138,#139,#140,#141,#142,#143,
    #144,#145,#146,#147,#148,#149,#150,#151,#152,#153,#154,#155),
  .UNSPECIFIED.,.F.,.F.,(9,7,7,7,7,7,7,7,9),(0.,0.111627242606,
    0.186462481385,0.294527741968,0.442262636815,0.635788059075,
    0.882983557981,0.970512307545,1.),.UNSPECIFIED.);
#98 = CARTESIAN_POINT('',(171.,130.,78.));
#99 = CARTESIAN_POINT('',(171.,129.37909041207,78.));
#100 = CARTESIAN_POINT('',(170.97901869654,128.75955092202,
    77.977969638767));
#101 = CARTESIAN_POINT('',(170.93721878579,128.14396435888,
    77.934079714096));
#102 = CARTESIAN_POINT('',(170.87513216387,127.53489954896,
    77.868876135083));
#103 = CARTESIAN_POINT('',(170.79365850612,126.93489922372,
    77.783278766857));
#104 = CARTESIAN_POINT('',(170.69406295184,126.34646886817,
    77.678581308753));
#105 = CARTESIAN_POINT('',(170.5779728944,125.77206650949,
    77.556452205926));
#106 = CARTESIAN_POINT('',(170.35981990306,124.84002662824,
    77.326745715333));
#107 = CARTESIAN_POINT('',(170.26561541641,124.47279018987,
    77.227503059564));
#108 = CARTESIAN_POINT('',(170.16517128133,124.11249147988,
    77.121627271008));
#109 = CARTESIAN_POINT('',(170.05889465576,123.75922518768,
    77.009532386104));
#110 = CARTESIAN_POINT('',(169.94718887133,123.41307335179,76.8916279477
    ));
#111 = CARTESIAN_POINT('',(169.83045331363,123.07410536841,
    76.768319118924));
#112 = CARTESIAN_POINT('',(169.70908330248,122.74237799993,
    76.640006797065));
#113 = CARTESIAN_POINT('',(169.40207899257,121.94942647701,
    76.315146950227));
#114 = CARTESIAN_POINT('',(169.21176438317,121.49591426637,
    76.113520429036));
#115 = CARTESIAN_POINT('',(169.0134960446,121.05705093594,
    75.903182172804));
#116 = CARTESIAN_POINT('',(168.80814562515,120.63244897034,
    75.685002352139));
#117 = CARTESIAN_POINT('',(168.59649037037,120.22168841772,
    75.459750677104));
#118 = CARTESIAN_POINT('',(168.37921697275,119.824324153,75.228099774992
    ));
#119 = CARTESIAN_POINT('',(168.15692542124,119.43989314116,
    74.990628568097));
#120 = CARTESIAN_POINT('',(167.62008708468,118.55940340899,
    74.415892307142));
#121 = CARTESIAN_POINT('',(167.30146606096,118.07390328095,
    74.073819406757));
#122 = CARTESIAN_POINT('',(166.97567189459,117.61041160808,
    73.722939567448));
#123 = CARTESIAN_POINT('',(166.64387460716,117.16789124825,
    73.364329071062));
#124 = CARTESIAN_POINT('',(166.30702831904,116.74529657617,
    72.998821753707));
#125 = CARTESIAN_POINT('',(165.96588999712,116.3415921449,
    72.627020641063));
#126 = CARTESIAN_POINT('',(165.62104075849,115.9557710581,
    72.249307329464));
#127 = CARTESIAN_POINT('',(164.81687526101,115.10363487027,
    71.363537770662));
#128 = CARTESIAN_POINT('',(164.35536211311,114.64959794217,
    70.851536644173));
#129 = CARTESIAN_POINT('',(163.88996111527,114.22322490488,
    70.33091325244));
#130 = CARTESIAN_POINT('',(163.42202040904,113.8230729584,
    69.802359822722));
#131 = CARTESIAN_POINT('',(162.95272308258,113.44781425482,
    69.26621103098));
#132 = CARTESIAN_POINT('',(162.48318530425,113.0962730746,68.72248424393
    ));
#133 = CARTESIAN_POINT('',(162.0146177915,112.76746409457,
    68.170911420758));
#134 = CARTESIAN_POINT('',(160.9533273713,112.06867036088,
    66.895654056593));
#135 = CARTESIAN_POINT('',(160.37507755155,111.72102645873,
    66.182120130311));
#136 = CARTESIAN_POINT('',(159.80622277644,111.4064032987,
    65.457478410896));
#137 = CARTESIAN_POINT('',(159.24344048387,111.12030737279,
    64.711102758633));
#138 = CARTESIAN_POINT('',(158.69091058327,110.863262312,63.937116463136
    ));
#139 = CARTESIAN_POINT('',(158.162384825,110.63900615763,63.135435774462
    ));
#140 = CARTESIAN_POINT('',(157.68168208384,110.45063489655,
    62.309192232263));
#141 = CARTESIAN_POINT('',(157.134004926,110.24830935372,61.156635930519
    ));
#142 = CARTESIAN_POINT('',(156.9989416118,110.19976582954,
    60.849160290135));
#143 = CARTESIAN_POINT('',(156.87409236092,110.15606451916,
    60.536467289212));
#144 = CARTESIAN_POINT('',(156.76140926304,110.11756171119,
    60.219174359766));
#145 = CARTESIAN_POINT('',(156.66272730096,110.0845303744,
    59.897648624607));
#146 = CARTESIAN_POINT('',(156.5797575178,110.05720069482,
    59.572010343648));
#147 = CARTESIAN_POINT('',(156.51408006174,110.03580215792,
    59.242137088913));
#148 = CARTESIAN_POINT('',(156.45132242565,110.01548811531,
    58.794989070837));
#149 = CARTESIAN_POINT('',(156.43766001038,110.01108154783,
    58.681973186321));
#150 = CARTESIAN_POINT('',(156.42620294724,110.00739704993,
    58.568680810703));
#151 = CARTESIAN_POINT('',(156.41699388463,110.00444208447,
    58.455169378764));
#152 = CARTESIAN_POINT('',(156.41006501494,110.00222212875,58.3414939612
    ));
#153 = CARTESIAN_POINT('',(156.40543805504,110.00074080261,
    58.227707281743));
#154 = CARTESIAN_POINT('',(156.40312422676,109.99999999658,
    58.113859734286));
#155 = CARTESIAN_POINT('',(156.40312423743,110.,57.9999994));
#156 = ORIENTED_EDGE('',*,*,#157,.F.);
#157 = EDGE_CURVE('',#158,#95,#160,.T.);
#158 = VERTEX_POINT('',#159);
#159 = CARTESIAN_POINT('',(143.59687576256,110.,58.));
#160 = LINE('',#161,#162);
#161 = CARTESIAN_POINT('',(58.,110.,58.));
#162 = VECTOR('',#163,1.);
#163 = DIRECTION('',(1.,0.,0.));
#164 = ORIENTED_EDGE('',*,*,#165,.F.);
#165 = EDGE_CURVE('',#166,#158,#168,.T.);
#166 = VERTEX_POINT('',#167);
#167 = CARTESIAN_POINT('',(129.,130.,78.));
#168 = B_SPLINE_CURVE_WITH_KNOTS('',8,(#169,#170,#171,#172,#173,#174,
    #175,#176,#177,#178,#179,#180,#181,#182,#183,#184,#185,#186,#187,
    #188,#189,#190,#191,#192,#193,#194,#195,#196,#197,#198,#199,#200,
    #201,#202,#203,#204,#205,#206,#207,#208,#209,#210,#211,#212,#213,
    #214,#215,#216,#217,#218,#219,#220,#221,#222,#223,#224,#225,#226),
  .UNSPECIFIED.,.F.,.F.,(9,7,7,7,7,7,7,7,9),(0.,0.111627243118,
    0.18646248222,0.294527740994,0.442262636061,0.635788058608,
    0.882983557879,0.970512307528,1.),.UNSPECIFIED.);
#169 = CARTESIAN_POINT('',(129.,130.,78.));
#170 = CARTESIAN_POINT('',(129.,129.37909041194,78.));
#171 = CARTESIAN_POINT('',(129.02098130346,128.75955092196,
    77.977969638758));
#172 = CARTESIAN_POINT('',(129.0627812142,128.14396435894,
    77.934079714094));
#173 = CARTESIAN_POINT('',(129.12486783611,127.53489954908,
    77.868876135097));
#174 = CARTESIAN_POINT('',(129.20634149385,126.9348992238,
    77.783278766876));
#175 = CARTESIAN_POINT('',(129.30593704815,126.34646886813,
    77.678581308752));
#176 = CARTESIAN_POINT('',(129.42202710562,125.77206650936,
    77.556452205896));
#177 = CARTESIAN_POINT('',(129.64018009689,124.84002662842,
    77.326745715378));
#178 = CARTESIAN_POINT('',(129.73438458356,124.47279018994,
    77.227503059589));
#179 = CARTESIAN_POINT('',(129.83482871868,124.1124914798,
    77.121627270989));
#180 = CARTESIAN_POINT('',(129.94110534427,123.75922518753,
    77.009532386058));
#181 = CARTESIAN_POINT('',(130.05281112869,123.41307335171,
    76.891627947666));
#182 = CARTESIAN_POINT('',(130.16954668634,123.07410536846,
    76.768319118938));
#183 = CARTESIAN_POINT('',(130.29091669746,122.74237800007,
    76.640006797122));
#184 = CARTESIAN_POINT('',(130.59792100368,121.94942648667,
    76.315146954187));
#185 = CARTESIAN_POINT('',(130.78823561919,121.49591426233,
    76.113520426504));
#186 = CARTESIAN_POINT('',(130.98650395928,121.05705092711,
    75.903182168668));
#187 = CARTESIAN_POINT('',(131.1918543747,120.6324489691,75.685002352308
    ));
#188 = CARTESIAN_POINT('',(131.40350962558,120.22168842518,
    75.459750681413));
#189 = CARTESIAN_POINT('',(131.62078302506,119.82432415821,
    75.228099777312));
#190 = CARTESIAN_POINT('',(131.84307458288,119.43989313438,
    74.990628563673));
#191 = CARTESIAN_POINT('',(132.37991291531,118.55940340899,
    74.415892307142));
#192 = CARTESIAN_POINT('',(132.69853393903,118.07390328095,
    74.073819406755));
#193 = CARTESIAN_POINT('',(133.0243281054,117.61041160808,
    73.722939567448));
#194 = CARTESIAN_POINT('',(133.35612539283,117.16789124825,
    73.364329071063));
#195 = CARTESIAN_POINT('',(133.69297168095,116.74529657618,
    72.998821753708));
#196 = CARTESIAN_POINT('',(134.03411000287,116.3415921449,
    72.627020641063));
#197 = CARTESIAN_POINT('',(134.3789592415,115.9557710581,72.249307329465
    ));
#198 = CARTESIAN_POINT('',(135.18312473898,115.10363487027,
    71.363537770663));
#199 = CARTESIAN_POINT('',(135.64463788688,114.64959794217,
    70.851536644179));
#200 = CARTESIAN_POINT('',(136.11003888473,114.22322490487,
    70.330913252431));
#201 = CARTESIAN_POINT('',(136.57797959095,113.8230729584,69.80235982272
    ));
#202 = CARTESIAN_POINT('',(137.0472769174,113.44781425483,
    69.266211030989));
#203 = CARTESIAN_POINT('',(137.51681469574,113.0962730746,
    68.722484243928));
#204 = CARTESIAN_POINT('',(137.98538220849,112.76746409457,
    68.170911420759));
#205 = CARTESIAN_POINT('',(139.04667262868,112.06867036089,
    66.895654056598));
#206 = CARTESIAN_POINT('',(139.62492244845,111.72102645873,
    66.182120130294));
#207 = CARTESIAN_POINT('',(140.19377722352,111.40640329871,
    65.457478410922));
#208 = CARTESIAN_POINT('',(140.75655951614,111.12030737278,
    64.711102758606));
#209 = CARTESIAN_POINT('',(141.30908941671,110.863262312,63.937116463161
    ));
#210 = CARTESIAN_POINT('',(141.837615175,110.63900615763,63.135435774444
    ));
#211 = CARTESIAN_POINT('',(142.31831791615,110.45063489655,
    62.309192232269));
#212 = CARTESIAN_POINT('',(142.86599507392,110.24830935375,
    61.156635930667));
#213 = CARTESIAN_POINT('',(143.00105838818,110.19976582955,
    60.849160290176));
#214 = CARTESIAN_POINT('',(143.12590763911,110.15606451914,
    60.536467289123));
#215 = CARTESIAN_POINT('',(143.23859073699,110.11756171118,
    60.219174359636));
#216 = CARTESIAN_POINT('',(143.33727269904,110.0845303744,
    59.897648624548));
#217 = CARTESIAN_POINT('',(143.42024248217,110.05720069482,
    59.572010343714));
#218 = CARTESIAN_POINT('',(143.48591993824,110.03580215792,
    59.242137089048));
#219 = CARTESIAN_POINT('',(143.54867757434,110.01548811531,
    58.794989070837));
#220 = CARTESIAN_POINT('',(143.56233998961,110.01108154783,
    58.681973186321));
#221 = CARTESIAN_POINT('',(143.57379705276,110.00739704993,
    58.568680810703));
#222 = CARTESIAN_POINT('',(143.58300611536,110.00444208447,
    58.455169378764));
#223 = CARTESIAN_POINT('',(143.58993498505,110.00222212875,58.3414939612
    ));
#224 = CARTESIAN_POINT('',(143.59456194495,110.00074080261,
    58.227707281743));
#225 = CARTESIAN_POINT('',(143.59687577323,109.99999999658,
    58.113859734286));
#226 = CARTESIAN_POINT('',(143.59687576256,110.,57.9999994));
#227 = ORIENTED_EDGE('',*,*,#228,.F.);
#228 = EDGE_CURVE('',#229,#166,#231,.T.);
#229 = VERTEX_POINT('',#230);
#230 = CARTESIAN_POINT('',(58.,130.,78.));
#231 = LINE('',#232,#233);
#232 = CARTESIAN_POINT('',(58.,130.,78.));
#233 = VECTOR('',#234,1.);
#234 = DIRECTION('',(1.,0.,0.));
#235 = ORIENTED_EDGE('',*,*,#236,.T.);
#236 = EDGE_CURVE('',#229,#229,#237,.T.);
#237 = CIRCLE('',#238,20.);
#238 = AXIS2_PLACEMENT_3D('',#239,#240,#241);
#239 = CARTESIAN_POINT('',(58.,130.,58.));
#240 = DIRECTION('',(1.,0.,-0.));
#241 = DIRECTION('',(0.,0.,1.));
#242 = ORIENTED_EDGE('',*,*,#228,.T.);
#243 = ORIENTED_EDGE('',*,*,#244,.F.);
#244 = EDGE_CURVE('',#245,#166,#247,.T.);
#245 = VERTEX_POINT('',#246);
#246 = CARTESIAN_POINT('',(143.59687576256,150.,58.));
#247 = B_SPLINE_CURVE_WITH_KNOTS('',7,(#248,#249,#250,#251,#252,#253,
    #254,#255,#256,#257,#258,#259,#260,#261,#262,#263,#264,#265,#266,
    #267,#268,#269,#270,#271,#272,#273,#274,#275,#276,#277,#278,#279,
    #280,#281,#282,#283,#284,#285,#286,#287,#288,#289,#290,#291,#292,
    #293,#294,#295,#296,#297),.UNSPECIFIED.,.F.,.F.,(8,6,6,6,6,6,6,6,8),
  (0.,9.929874307807E-02,0.266001397818,0.360939232378,0.549914503754,
    0.7021388767,0.810577440787,0.88746599582,1.),.UNSPECIFIED.);
#248 = CARTESIAN_POINT('',(143.59687576256,150.,57.9999994));
#249 = CARTESIAN_POINT('',(143.59687580429,150.00000001335,
    58.445294035668));
#250 = CARTESIAN_POINT('',(143.56074724029,149.98843335826,
    58.886246109976));
#251 = CARTESIAN_POINT('',(143.48975940371,149.96570546322,
    59.322803276589));
#252 = CARTESIAN_POINT('',(143.38646785096,149.93218470288,
    59.754517214154));
#253 = CARTESIAN_POINT('',(143.25480574101,149.88830305912,
    60.180002331411));
#254 = CARTESIAN_POINT('',(143.10009953231,149.83492808008,
    60.596523534428));
#255 = CARTESIAN_POINT('',(142.64189785368,149.67107862879,
    61.676598707059));
#256 = CARTESIAN_POINT('',(142.30181200439,149.543979956,62.332128430518
    ));
#257 = CARTESIAN_POINT('',(141.92565404411,149.39473063369,62.9680692316
    ));
#258 = CARTESIAN_POINT('',(141.52722593923,149.22523025467,
    63.584319436435));
#259 = CARTESIAN_POINT('',(141.11484953411,149.03724756972,
    64.182502295267));
#260 = CARTESIAN_POINT('',(140.69104330855,148.83049192396,
    64.767724742912));
#261 = CARTESIAN_POINT('',(140.00418314123,148.47059326918,
    65.678770773146));
#262 = CARTESIAN_POINT('',(139.75182648723,148.33339835204,
    66.006006617698));
#263 = CARTESIAN_POINT('',(139.49709250679,148.18962262054,
    66.329982999421));
#264 = CARTESIAN_POINT('',(139.24053131083,148.03923541264,
    66.650843220667));
#265 = CARTESIAN_POINT('',(138.98253324636,147.8821459051,
    66.968775186872));
#266 = CARTESIAN_POINT('',(138.72336698184,147.7181963128,
    67.283995964133));
#267 = CARTESIAN_POINT('',(137.9453860907,147.20669480653,
    68.219251028286));
#268 = CARTESIAN_POINT('',(137.42428198242,146.83854747524,
    68.831187891854));
#269 = CARTESIAN_POINT('',(136.9022491482,146.44159247817,
    69.433350434097));
#270 = CARTESIAN_POINT('',(136.38096847084,146.01432523205,
    70.026033390272));
#271 = CARTESIAN_POINT('',(135.86208517814,145.55491144512,
    70.609032639977));
#272 = CARTESIAN_POINT('',(135.34747170586,145.06129163237,
    71.181525972745));
#273 = CARTESIAN_POINT('',(134.43015842405,144.10424878894,
    72.193531288886));
#274 = CARTESIAN_POINT('',(134.02531689953,143.6537886906,72.63707662073
    ));
#275 = CARTESIAN_POINT('',(133.62560254236,143.17821840316,
    73.072423280612));
#276 = CARTESIAN_POINT('',(133.23205371482,142.67580160577,
    73.498860991027));
#277 = CARTESIAN_POINT('',(132.84610571572,142.14474870641,
    73.915192157251));
#278 = CARTESIAN_POINT('',(132.46965149152,141.58327173252,
    74.319700785673));
#279 = CARTESIAN_POINT('',(131.84539119915,140.5667615452,
    74.988223087902));
#280 = CARTESIAN_POINT('',(131.59160989476,140.1273740555,
    75.259307017157));
#281 = CARTESIAN_POINT('',(131.34455657391,139.67071767463,
    75.522599158688));
#282 = CARTESIAN_POINT('',(131.10520662205,139.19605186353,
    75.777156005638));
#283 = CARTESIAN_POINT('',(130.87471077942,138.70267522611,
    76.021844875832));
#284 = CARTESIAN_POINT('',(130.65440545323,138.18994470197,
    76.255334939787));
#285 = CARTESIAN_POINT('',(130.29792729507,137.27961837785,
    76.63261377158));
#286 = CARTESIAN_POINT('',(130.15587003449,136.89178655434,
    76.782794257829));
#287 = CARTESIAN_POINT('',(130.02031512566,136.49386369528,
    76.925956562335));
#288 = CARTESIAN_POINT('',(129.89193690699,136.08594174097,
    77.061417097567));
#289 = CARTESIAN_POINT('',(129.77141983075,135.66814019635,
    77.188481500436));
#290 = CARTESIAN_POINT('',(129.65945811592,135.24060616223,
    77.306444299136));
#291 = CARTESIAN_POINT('',(129.40643982118,134.16378729741,
    77.57286842994));
#292 = CARTESIAN_POINT('',(129.27557219845,133.50194404872,
    77.710522197565));
#293 = CARTESIAN_POINT('',(129.16736990012,132.82185668852,
    77.824235950945));
#294 = CARTESIAN_POINT('',(129.08432594289,132.12751291127,
    77.911457735599));
#295 = CARTESIAN_POINT('',(129.02819782464,131.42299091953,
    77.97039229439));
#296 = CARTESIAN_POINT('',(129.,130.71243045802,78.));
#297 = CARTESIAN_POINT('',(129.,130.,78.));
#298 = ORIENTED_EDGE('',*,*,#299,.T.);
#299 = EDGE_CURVE('',#245,#22,#300,.T.);
#300 = LINE('',#301,#302);
#301 = CARTESIAN_POINT('',(58.,150.,58.));
#302 = VECTOR('',#303,1.);
#303 = DIRECTION('',(1.,0.,0.));
#304 = FACE_BOUND('',#305,.T.);
#305 = EDGE_LOOP('',(#306,#317,#326));
#306 = ORIENTED_EDGE('',*,*,#307,.T.);
#307 = EDGE_CURVE('',#308,#310,#312,.T.);
#308 = VERTEX_POINT('',#309);
#309 = CARTESIAN_POINT('',(220.,110.,58.));
#310 = VERTEX_POINT('',#311);
#311 = CARTESIAN_POINT('',(240.,130.,38.));
#312 = ELLIPSE('',#313,28.284271247462,20.);
#313 = AXIS2_PLACEMENT_3D('',#314,#315,#316);
#314 = CARTESIAN_POINT('',(220.,130.,58.));
#315 = DIRECTION('',(0.707106781187,-0.,0.707106781187));
#316 = DIRECTION('',(0.707106781187,0.,-0.707106781187));
#317 = ORIENTED_EDGE('',*,*,#318,.T.);
#318 = EDGE_CURVE('',#310,#319,#321,.T.);
#319 = VERTEX_POINT('',#320);
#320 = CARTESIAN_POINT('',(220.,150.,58.));
#321 = ELLIPSE('',#322,28.284271247462,20.);
#322 = AXIS2_PLACEMENT_3D('',#323,#324,#325);
#323 = CARTESIAN_POINT('',(220.,130.,58.));
#324 = DIRECTION('',(0.707106781187,-0.,0.707106781187));
#325 = DIRECTION('',(0.707106781187,0.,-0.707106781187));
#326 = ORIENTED_EDGE('',*,*,#327,.F.);
#327 = EDGE_CURVE('',#308,#319,#328,.T.);
#328 = ELLIPSE('',#329,28.284271247462,20.);
#329 = AXIS2_PLACEMENT_3D('',#330,#331,#332);
#330 = CARTESIAN_POINT('',(220.,130.,58.));
#331 = DIRECTION('',(0.707106781187,0.,-0.707106781187));
#332 = DIRECTION('',(0.707106781187,0.,0.707106781187));
#333 = CYLINDRICAL_SURFACE('',#334,20.);
#334 = AXIS2_PLACEMENT_3D('',#335,#336,#337);
#335 = CARTESIAN_POINT('',(58.,130.,58.));
#336 = DIRECTION('',(1.,0.,0.));
#337 = DIRECTION('',(0.,0.,1.));
#338 = ADVANCED_FACE('',(#339),#375,.T.);
#339 = FACE_BOUND('',#340,.T.);
#340 = EDGE_LOOP('',(#341,#349,#356,#357,#358,#365,#366,#367,#374));
#341 = ORIENTED_EDGE('',*,*,#342,.T.);
#342 = EDGE_CURVE('',#24,#343,#345,.T.);
#343 = VERTEX_POINT('',#344);
#344 = CARTESIAN_POINT('',(171.,130.,100.));
#345 = LINE('',#346,#347);
#346 = CARTESIAN_POINT('',(171.,130.,58.));
#347 = VECTOR('',#348,1.);
#348 = DIRECTION('',(0.,0.,1.));
#349 = ORIENTED_EDGE('',*,*,#350,.F.);
#350 = EDGE_CURVE('',#343,#343,#351,.T.);
#351 = CIRCLE('',#352,21.);
#352 = AXIS2_PLACEMENT_3D('',#353,#354,#355);
#353 = CARTESIAN_POINT('',(150.,130.,100.));
#354 = DIRECTION('',(0.,0.,1.));
#355 = DIRECTION('',(1.,0.,0.));
#356 = ORIENTED_EDGE('',*,*,#342,.F.);
#357 = ORIENTED_EDGE('',*,*,#21,.F.);
#358 = ORIENTED_EDGE('',*,*,#359,.T.);
#359 = EDGE_CURVE('',#22,#245,#360,.T.);
#360 = CIRCLE('',#361,21.);
#361 = AXIS2_PLACEMENT_3D('',#362,#363,#364);
#362 = CARTESIAN_POINT('',(150.,130.,58.));
#363 = DIRECTION('',(0.,0.,1.));
#364 = DIRECTION('',(1.,0.,0.));
#365 = ORIENTED_EDGE('',*,*,#244,.T.);
#366 = ORIENTED_EDGE('',*,*,#165,.T.);
#367 = ORIENTED_EDGE('',*,*,#368,.T.);
#368 = EDGE_CURVE('',#158,#95,#369,.T.);
#369 = CIRCLE('',#370,21.);
#370 = AXIS2_PLACEMENT_3D('',#371,#372,#373);
#371 = CARTESIAN_POINT('',(150.,130.,58.));
#372 = DIRECTION('',(0.,0.,1.));
#373 = DIRECTION('',(1.,0.,0.));
#374 = ORIENTED_EDGE('',*,*,#94,.F.);
#375 = CYLINDRICAL_SURFACE('',#376,21.);
#376 = AXIS2_PLACEMENT_3D('',#377,#378,#379);
#377 = CARTESIAN_POINT('',(150.,130.,58.));
#378 = DIRECTION('',(0.,0.,1.));
#379 = DIRECTION('',(1.,0.,0.));
#380 = ADVANCED_FACE('',(#381),#385,.F.);
#381 = FACE_BOUND('',#382,.F.);
#382 = EDGE_LOOP('',(#383,#384));
#383 = ORIENTED_EDGE('',*,*,#299,.T.);
#384 = ORIENTED_EDGE('',*,*,#359,.T.);
#385 = PLANE('',#386);
#386 = AXIS2_PLACEMENT_3D('',#387,#388,#389);
#387 = CARTESIAN_POINT('',(150.,130.,58.));
#388 = DIRECTION('',(0.,0.,1.));
#389 = DIRECTION('',(1.,0.,0.));
#390 = ADVANCED_FACE('',(#391,#394),#405,.F.);
#391 = FACE_BOUND('',#392,.F.);
#392 = EDGE_LOOP('',(#393));
#393 = ORIENTED_EDGE('',*,*,#236,.T.);
#394 = FACE_BOUND('',#395,.F.);
#395 = EDGE_LOOP('',(#396));
#396 = ORIENTED_EDGE('',*,*,#397,.F.);
#397 = EDGE_CURVE('',#398,#398,#400,.T.);
#398 = VERTEX_POINT('',#399);
#399 = CARTESIAN_POINT('',(58.,130.,75.));
#400 = CIRCLE('',#401,17.);
#401 = AXIS2_PLACEMENT_3D('',#402,#403,#404);
#402 = CARTESIAN_POINT('',(58.,130.,58.));
#403 = DIRECTION('',(1.,0.,-0.));
#404 = DIRECTION('',(0.,0.,1.));
#405 = PLANE('',#406);
#406 = AXIS2_PLACEMENT_3D('',#407,#408,#409);
#407 = CARTESIAN_POINT('',(58.,130.,58.));
#408 = DIRECTION('',(1.,0.,0.));
#409 = DIRECTION('',(0.,0.,1.));
#410 = ADVANCED_FACE('',(#411),#415,.F.);
#411 = FACE_BOUND('',#412,.F.);
#412 = EDGE_LOOP('',(#413,#414));
#413 = ORIENTED_EDGE('',*,*,#368,.T.);
#414 = ORIENTED_EDGE('',*,*,#157,.F.);
#415 = PLANE('',#416);
#416 = AXIS2_PLACEMENT_3D('',#417,#418,#419);
#417 = CARTESIAN_POINT('',(150.,130.,58.));
#418 = DIRECTION('',(0.,0.,1.));
#419 = DIRECTION('',(1.,0.,0.));
#420 = ADVANCED_FACE('',(#421,#424),#435,.T.);
#421 = FACE_BOUND('',#422,.T.);
#422 = EDGE_LOOP('',(#423));
#423 = ORIENTED_EDGE('',*,*,#86,.T.);
#424 = FACE_BOUND('',#425,.T.);
#425 = EDGE_LOOP('',(#426));
#426 = ORIENTED_EDGE('',*,*,#427,.F.);
#427 = EDGE_CURVE('',#428,#428,#430,.T.);
#428 = VERTEX_POINT('',#429);
#429 = CARTESIAN_POINT('',(242.,130.,75.));
#430 = CIRCLE('',#431,17.);
#431 = AXIS2_PLACEMENT_3D('',#432,#433,#434);
#432 = CARTESIAN_POINT('',(242.,130.,58.));
#433 = DIRECTION('',(1.,0.,-0.));
#434 = DIRECTION('',(0.,0.,1.));
#435 = PLANE('',#436);
#436 = AXIS2_PLACEMENT_3D('',#437,#438,#439);
#437 = CARTESIAN_POINT('',(242.,130.,58.));
#438 = DIRECTION('',(1.,0.,0.));
#439 = DIRECTION('',(0.,0.,1.));
#440 = ADVANCED_FACE('',(#441),#462,.T.);
#441 = FACE_BOUND('',#442,.T.);
#442 = EDGE_LOOP('',(#443,#444,#445,#453,#460,#461));
#443 = ORIENTED_EDGE('',*,*,#327,.T.);
#444 = ORIENTED_EDGE('',*,*,#318,.F.);
#445 = ORIENTED_EDGE('',*,*,#446,.F.);
#446 = EDGE_CURVE('',#447,#310,#449,.T.);
#447 = VERTEX_POINT('',#448);
#448 = CARTESIAN_POINT('',(240.,130.,16.));
#449 = LINE('',#450,#451);
#450 = CARTESIAN_POINT('',(240.,130.,16.));
#451 = VECTOR('',#452,1.);
#452 = DIRECTION('',(0.,0.,1.));
#453 = ORIENTED_EDGE('',*,*,#454,.T.);
#454 = EDGE_CURVE('',#447,#447,#455,.T.);
#455 = CIRCLE('',#456,20.);
#456 = AXIS2_PLACEMENT_3D('',#457,#458,#459);
#457 = CARTESIAN_POINT('',(220.,130.,16.));
#458 = DIRECTION('',(0.,0.,1.));
#459 = DIRECTION('',(1.,0.,0.));
#460 = ORIENTED_EDGE('',*,*,#446,.T.);
#461 = ORIENTED_EDGE('',*,*,#307,.F.);
#462 = CYLINDRICAL_SURFACE('',#463,20.);
#463 = AXIS2_PLACEMENT_3D('',#464,#465,#466);
#464 = CARTESIAN_POINT('',(220.,130.,16.));
#465 = DIRECTION('',(0.,0.,1.));
#466 = DIRECTION('',(1.,0.,0.));
#467 = ADVANCED_FACE('',(#468,#471),#482,.T.);
#468 = FACE_BOUND('',#469,.T.);
#469 = EDGE_LOOP('',(#470));
#470 = ORIENTED_EDGE('',*,*,#350,.T.);
#471 = FACE_BOUND('',#472,.T.);
#472 = EDGE_LOOP('',(#473));
#473 = ORIENTED_EDGE('',*,*,#474,.F.);
#474 = EDGE_CURVE('',#475,#475,#477,.T.);
#475 = VERTEX_POINT('',#476);
#476 = CARTESIAN_POINT('',(168.,130.,100.));
#477 = CIRCLE('',#478,18.);
#478 = AXIS2_PLACEMENT_3D('',#479,#480,#481);
#479 = CARTESIAN_POINT('',(150.,130.,100.));
#480 = DIRECTION('',(0.,0.,1.));
#481 = DIRECTION('',(1.,0.,0.));
#482 = PLANE('',#483);
#483 = AXIS2_PLACEMENT_3D('',#484,#485,#486);
#484 = CARTESIAN_POINT('',(150.,130.,100.));
#485 = DIRECTION('',(0.,0.,1.));
#486 = DIRECTION('',(1.,0.,0.));
#487 = ADVANCED_FACE('',(#488,#802,#830,#859),#887,.F.);
#488 = FACE_BOUND('',#489,.F.);
#489 = EDGE_LOOP('',(#490,#500,#570,#576,#577,#578,#648,#656,#726,#732,
    #733,#734));
#490 = ORIENTED_EDGE('',*,*,#491,.T.);
#491 = EDGE_CURVE('',#492,#494,#496,.T.);
#492 = VERTEX_POINT('',#493);
#493 = CARTESIAN_POINT('',(144.,146.97056274847,57.));
#494 = VERTEX_POINT('',#495);
#495 = CARTESIAN_POINT('',(156.,146.97056274847,57.));
#496 = LINE('',#497,#498);
#497 = CARTESIAN_POINT('',(57.,146.97056274847,57.));
#498 = VECTOR('',#499,1.);
#499 = DIRECTION('',(1.,0.,0.));
#500 = ORIENTED_EDGE('',*,*,#501,.T.);
#501 = EDGE_CURVE('',#494,#502,#504,.T.);
#502 = VERTEX_POINT('',#503);
#503 = CARTESIAN_POINT('',(168.,130.,75.));
#504 = B_SPLINE_CURVE_WITH_KNOTS('',8,(#505,#506,#507,#508,#509,#510,
    #511,#512,#513,#514,#515,#516,#517,#518,#519,#520,#521,#522,#523,
    #524,#525,#526,#527,#528,#529,#530,#531,#532,#533,#534,#535,#536,
    #537,#538,#539,#540,#541,#542,#543,#544,#545,#546,#547,#548,#549,
    #550,#551,#552,#553,#554,#555,#556,#557,#558,#559,#560,#561,#562,
    #563,#564,#565,#566,#567,#568,#569),.UNSPECIFIED.,.F.,.F.,(9,7,7,7,7
    ,7,7,7,7,9),(0.,1.81290633959E-02,3.640800109714E-02,0.138241988674,
    0.331234714225,0.392456212181,0.714126329639,0.817717640717,
    0.89122603252,1.),.UNSPECIFIED.);
#505 = CARTESIAN_POINT('',(156.0000001,146.97056271312,56.9999994));
#506 = CARTESIAN_POINT('',(155.9897523126,146.97418585316,
    57.061486088493));
#507 = CARTESIAN_POINT('',(155.9801844126,146.97756064434,
    57.123093548438));
#508 = CARTESIAN_POINT('',(155.97130750662,146.98068504709,
    57.184813892999));
#509 = CARTESIAN_POINT('',(155.96313176884,146.98355718999,
    57.246638745197));
#510 = CARTESIAN_POINT('',(155.95566644101,146.98617536981,
    57.308559237916));
#511 = CARTESIAN_POINT('',(155.94891983243,146.98853805146,
    57.370566013896));
#512 = CARTESIAN_POINT('',(155.94289931994,146.99064386802,
    57.432649225739));
#513 = CARTESIAN_POINT('',(155.9322796599,146.99435464895,
    57.557461639011));
#514 = CARTESIAN_POINT('',(155.92769251571,146.99595536163,
    57.620192156676));
#515 = CARTESIAN_POINT('',(155.92385643609,146.99729254596,
    57.682979392312));
#516 = CARTESIAN_POINT('',(155.92077665797,146.99836522776,
    57.745812448361));
#517 = CARTESIAN_POINT('',(155.91845713439,146.99917267146,
    57.808680226304));
#518 = CARTESIAN_POINT('',(155.91690053461,146.99971438013,
    57.871571426658));
#519 = CARTESIAN_POINT('',(155.91610824402,146.99999009546,
    57.934474548977));
#520 = CARTESIAN_POINT('',(155.9159250425,147.00005385045,
    58.347819385837));
#521 = CARTESIAN_POINT('',(155.93949504387,146.99185146088,
    58.695566138543));
#522 = CARTESIAN_POINT('',(155.98615388711,146.97561457946,
    59.040513875366));
#523 = CARTESIAN_POINT('',(156.05470173911,146.95155522429,
    59.382399982396));
#524 = CARTESIAN_POINT('',(156.14334724523,146.91990756331,
    59.720631626621));
#525 = CARTESIAN_POINT('',(156.24969664674,146.88102055274,
    60.05414071046));
#526 = CARTESIAN_POINT('',(156.37075531413,146.83548548217,
    60.381266192288));
#527 = CARTESIAN_POINT('',(156.75344327017,146.68721598994,
    61.303082878081));
#528 = CARTESIAN_POINT('',(157.0494811204,146.56760378277,
    61.888602883091));
#529 = CARTESIAN_POINT('',(157.37795048253,146.42727389213,
    62.45755877756));
#530 = CARTESIAN_POINT('',(157.72766959332,146.26776705909,
    63.009921885916));
#531 = CARTESIAN_POINT('',(158.09075449869,146.09060313497,
    63.546205055986));
#532 = CARTESIAN_POINT('',(158.46302573562,145.89645815157,64.068689598)
  );
#533 = CARTESIAN_POINT('',(158.84386267943,145.684197778,64.581834235239
    ));
#534 = CARTESIAN_POINT('',(159.3594690812,145.37599642854,
    65.253302151914));
#535 = CARTESIAN_POINT('',(159.48427327494,145.29984728132,
    65.414103867381));
#536 = CARTESIAN_POINT('',(159.6096277701,145.22176380291,
    65.574019708094));
#537 = CARTESIAN_POINT('',(159.73546000445,145.14173453017,
    65.733069778068));
#538 = CARTESIAN_POINT('',(159.86170649528,145.05974418178,
    65.891275010523));
#539 = CARTESIAN_POINT('',(159.98831222582,144.97577309576,
    66.048657508389));
#540 = CARTESIAN_POINT('',(160.11523003169,144.88979666692,
    66.205240884806));
#541 = CARTESIAN_POINT('',(160.91070170741,144.33935257457,
    67.179706341005));
#542 = CARTESIAN_POINT('',(161.5830826363,143.82308993141,
    67.972823108782));
#543 = CARTESIAN_POINT('',(162.25460051014,143.24896736605,
    68.745615070643));
#544 = CARTESIAN_POINT('',(162.92242934719,142.61098278807,
    69.499780847981));
#545 = CARTESIAN_POINT('',(163.5821712009,141.90185101468,
    70.234097187273));
#546 = CARTESIAN_POINT('',(164.22725550301,141.11361760926,
    70.943834434749));
#547 = CARTESIAN_POINT('',(164.84800877643,140.23806896851,
    71.620642431536));
#548 = CARTESIAN_POINT('',(165.61853584548,138.95512342751,
    72.454920710619));
#549 = CARTESIAN_POINT('',(165.80254659667,138.6323526125,
    72.653669255108));
#550 = CARTESIAN_POINT('',(165.98244657684,138.29895371104,
    72.847541108473));
#551 = CARTESIAN_POINT('',(166.15774596302,137.95455992747,
    73.036065440662));
#552 = CARTESIAN_POINT('',(166.32788756162,137.59881892602,
    73.21869771694));
#553 = CARTESIAN_POINT('',(166.4922438331,137.23139843979,
    73.394817121237));
#554 = CARTESIAN_POINT('',(166.65011391674,136.8519918798,
    73.563723979498));
#555 = CARTESIAN_POINT('',(166.90759119332,136.1823963864,
    73.838821188323));
#556 = CARTESIAN_POINT('',(167.01083586642,135.89821316955,
    73.94901370216));
#557 = CARTESIAN_POINT('',(167.11011727422,135.60781480379,
    74.054871597398));
#558 = CARTESIAN_POINT('',(167.20509466361,135.31125271774,
    74.156048446562));
#559 = CARTESIAN_POINT('',(167.29542405231,135.00858926691,
    74.25219440589));
#560 = CARTESIAN_POINT('',(167.38075835234,134.69989774224,
    74.342956099373));
#561 = CARTESIAN_POINT('',(167.46074749358,134.38526237866,
    74.427976502786));
#562 = CARTESIAN_POINT('',(167.64497065784,133.5905424708,
    74.623674138252));
#563 = CARTESIAN_POINT('',(167.74266202577,133.10248166493,
    74.727342799219));
#564 = CARTESIAN_POINT('',(167.82645414654,132.60261990103,
    74.816183964731));
#565 = CARTESIAN_POINT('',(167.89498751124,132.09302863685,
    74.888797885592));
#566 = CARTESIAN_POINT('',(167.94720547879,131.57581898523,
    74.94409990816));
#567 = CARTESIAN_POINT('',(167.98235725803,131.05313312144,
    74.981319456807));
#568 = CARTESIAN_POINT('',(168.,130.52713494556,75.));
#569 = CARTESIAN_POINT('',(168.,130.,75.));
#570 = ORIENTED_EDGE('',*,*,#571,.T.);
#571 = EDGE_CURVE('',#502,#428,#572,.T.);
#572 = LINE('',#573,#574);
#573 = CARTESIAN_POINT('',(57.,130.,75.));
#574 = VECTOR('',#575,1.);
#575 = DIRECTION('',(1.,0.,0.));
#576 = ORIENTED_EDGE('',*,*,#427,.F.);
#577 = ORIENTED_EDGE('',*,*,#571,.F.);
#578 = ORIENTED_EDGE('',*,*,#579,.T.);
#579 = EDGE_CURVE('',#502,#580,#582,.T.);
#580 = VERTEX_POINT('',#581);
#581 = CARTESIAN_POINT('',(156.,113.02943725152,57.));
#582 = B_SPLINE_CURVE_WITH_KNOTS('',8,(#583,#584,#585,#586,#587,#588,
    #589,#590,#591,#592,#593,#594,#595,#596,#597,#598,#599,#600,#601,
    #602,#603,#604,#605,#606,#607,#608,#609,#610,#611,#612,#613,#614,
    #615,#616,#617,#618,#619,#620,#621,#622,#623,#624,#625,#626,#627,
    #628,#629,#630,#631,#632,#633,#634,#635,#636,#637,#638,#639,#640,
    #641,#642,#643,#644,#645,#646,#647),.UNSPECIFIED.,.F.,.F.,(9,7,7,7,7
    ,7,7,7,7,9),(0.,0.106968319943,0.180491170106,0.285116606745,
    0.605348359933,0.854136079371,0.898022696826,0.963032846089,
    0.981587461697,1.),.UNSPECIFIED.);
#583 = CARTESIAN_POINT('',(168.,130.,75.));
#584 = CARTESIAN_POINT('',(168.,129.47960679193,75.));
#585 = CARTESIAN_POINT('',(167.98280585239,128.96027945908,
    74.98179402635));
#586 = CARTESIAN_POINT('',(167.94854071949,128.44412854694,
    74.945513774493));
#587 = CARTESIAN_POINT('',(167.89762567994,127.93325291452,
    74.891592324999));
#588 = CARTESIAN_POINT('',(167.83077735157,127.42973125323,
    74.820764629508));
#589 = CARTESIAN_POINT('',(167.74900551426,126.9356136058,
    74.734067996667));
#590 = CARTESIAN_POINT('',(167.65361073283,126.45291288521,
    74.632842578067));
#591 = CARTESIAN_POINT('',(167.47234265891,125.66101970817,
    74.440299794501));
#592 = CARTESIAN_POINT('',(167.39271492862,125.34431560311,
    74.355670909232));
#593 = CARTESIAN_POINT('',(167.30765638459,125.03358598351,
    74.265210834916));
#594 = CARTESIAN_POINT('',(167.21752225433,124.72892157503,
    74.169281928759));
#595 = CARTESIAN_POINT('',(167.12266526795,124.43040193228,
    74.068243389983));
#596 = CARTESIAN_POINT('',(167.02343552883,124.13809544719,
    73.962451381168));
#597 = CARTESIAN_POINT('',(166.92018038432,123.85205935739,
    73.852259149596));
#598 = CARTESIAN_POINT('',(166.66107072218,123.1742895496,
    73.575447019587));
#599 = CARTESIAN_POINT('',(166.50137848467,122.78886154454,
    73.404607026417));
#600 = CARTESIAN_POINT('',(166.33498196502,122.41577108761,
    73.226315961836));
#601 = CARTESIAN_POINT('',(166.16261485366,122.05470015909,
    73.041306507809));
#602 = CARTESIAN_POINT('',(165.98493333048,121.70530338692,
    72.85022799412));
#603 = CARTESIAN_POINT('',(165.80251924499,121.36721406233,
    72.653649156973));
#604 = CARTESIAN_POINT('',(165.61588329659,121.04005015548,
    72.452060897587));
#605 = CARTESIAN_POINT('',(164.84265625772,119.75429726631,
    71.614809010441));
#606 = CARTESIAN_POINT('',(164.22204986286,118.8798815434,
    70.938114270405));
#607 = CARTESIAN_POINT('',(163.5771936498,118.09262412375,
    70.228572173027));
#608 = CARTESIAN_POINT('',(162.917729391,117.38433076081,69.494499742763
    ));
#609 = CARTESIAN_POINT('',(162.25020869252,116.74706851089,
    68.740605890271));
#610 = CARTESIAN_POINT('',(161.57902162919,116.17357382404,
    67.968105271595));
#611 = CARTESIAN_POINT('',(160.90699809869,115.65786435959,
    67.175301509259));
#612 = CARTESIAN_POINT('',(159.72022834554,114.83704534503,
    65.721254287351));
#613 = CARTESIAN_POINT('',(159.21609149914,114.51908961198,
    65.085126384572));
#614 = CARTESIAN_POINT('',(158.72078851298,114.23194597264,
    64.437590091403));
#615 = CARTESIAN_POINT('',(158.23239054303,113.97181301433,
    63.769635922485));
#616 = CARTESIAN_POINT('',(157.75561043071,113.7393631351,
    63.076229671171));
#617 = CARTESIAN_POINT('',(157.30375952544,113.53803501605,
    62.357378406934));
#618 = CARTESIAN_POINT('',(156.89860755122,113.37059973564,
    61.615067016674));
#619 = CARTESIAN_POINT('',(156.50712398633,113.21723168338,
    60.712477541079));
#620 = CARTESIAN_POINT('',(156.4505394503,113.19533509357,
    60.576050111783));
#621 = CARTESIAN_POINT('',(156.39625185116,113.17457372665,
    60.438569681536));
#622 = CARTESIAN_POINT('',(156.34443917365,113.15497914107,
    60.300058023347));
#623 = CARTESIAN_POINT('',(156.29527882675,113.13658103782,
    60.160527851743));
#624 = CARTESIAN_POINT('',(156.24894746103,113.1194080651,60.0199828174)
  );
#625 = CARTESIAN_POINT('',(156.20562078593,113.10348862293,
    59.878417501764));
#626 = CARTESIAN_POINT('',(156.10600221922,113.06716964507,
    59.524580964706));
#627 = CARTESIAN_POINT('',(156.05340486429,113.04826442871,
    59.310709956773));
#628 = CARTESIAN_POINT('',(156.00847394364,113.03231425066,
    59.094795983185));
#629 = CARTESIAN_POINT('',(155.97185162864,113.01944084577,
    58.877311238518));
#630 = CARTESIAN_POINT('',(155.94403015202,113.00972666593,
    58.658633747219));
#631 = CARTESIAN_POINT('',(155.92535322197,113.00322723109,
    58.43907271061));
#632 = CARTESIAN_POINT('',(155.91601833881,112.99997861709,
    58.21889397033));
#633 = CARTESIAN_POINT('',(155.91609761732,113.00000620639,
    57.935398640655));
#634 = CARTESIAN_POINT('',(155.91688069124,113.00027871422,
    57.872451782428));
#635 = CARTESIAN_POINT('',(155.91842914749,113.00081758673,
    57.80951673842));
#636 = CARTESIAN_POINT('',(155.92074160971,113.00162256728,
    57.746605033109));
#637 = CARTESIAN_POINT('',(155.92381541384,113.00269315991,
    57.683727990528));
#638 = CARTESIAN_POINT('',(155.92764660813,113.0040286293,
    57.620896734258));
#639 = CARTESIAN_POINT('',(155.93222995313,113.00562800076,
    57.558122187435));
#640 = CARTESIAN_POINT('',(155.94284708505,113.00933786155,
    57.433188122022));
#641 = CARTESIAN_POINT('',(155.94886965385,113.01144437585,
    57.371027355691));
#642 = CARTESIAN_POINT('',(155.9556201661,113.01380840108,
    57.308943153708));
#643 = CARTESIAN_POINT('',(155.96309122248,113.01642856615,
    57.246945403066));
#644 = CARTESIAN_POINT('',(155.97127448648,113.01930333093,
    57.185043497792));
#645 = CARTESIAN_POINT('',(155.9801606843,113.02243098626,57.12324633895
    ));
#646 = CARTESIAN_POINT('',(155.9897396049,113.02580965398,
    57.061562334641));
#647 = CARTESIAN_POINT('',(156.0000001,113.02943728687,56.9999994));
#648 = ORIENTED_EDGE('',*,*,#649,.F.);
#649 = EDGE_CURVE('',#650,#580,#652,.T.);
#650 = VERTEX_POINT('',#651);
#651 = CARTESIAN_POINT('',(144.,113.02943725152,57.));
#652 = LINE('',#653,#654);
#653 = CARTESIAN_POINT('',(57.,113.02943725152,57.));
#654 = VECTOR('',#655,1.);
#655 = DIRECTION('',(1.,0.,0.));
#656 = ORIENTED_EDGE('',*,*,#657,.F.);
#657 = EDGE_CURVE('',#658,#650,#660,.T.);
#658 = VERTEX_POINT('',#659);
#659 = CARTESIAN_POINT('',(132.,130.,75.));
#660 = B_SPLINE_CURVE_WITH_KNOTS('',8,(#661,#662,#663,#664,#665,#666,
    #667,#668,#669,#670,#671,#672,#673,#674,#675,#676,#677,#678,#679,
    #680,#681,#682,#683,#684,#685,#686,#687,#688,#689,#690,#691,#692,
    #693,#694,#695,#696,#697,#698,#699,#700,#701,#702,#703,#704,#705,
    #706,#707,#708,#709,#710,#711,#712,#713,#714,#715,#716,#717,#718,
    #719,#720,#721,#722,#723,#724,#725),.UNSPECIFIED.,.F.,.F.,(9,7,7,7,7
    ,7,7,7,7,9),(0.,0.106968318658,0.18049116863,0.285116607086,
    0.605348360165,0.854136079511,0.898022696948,0.963032846146,
    0.981587461725,1.),.UNSPECIFIED.);
#661 = CARTESIAN_POINT('',(132.,130.,75.));
#662 = CARTESIAN_POINT('',(132.,129.47960679726,75.));
#663 = CARTESIAN_POINT('',(132.01719414814,128.9602794563,
    74.981794025779));
#664 = CARTESIAN_POINT('',(132.05145928081,128.44412854168,
    74.945513774163));
#665 = CARTESIAN_POINT('',(132.10237431962,127.93325291415,
    74.891592325455));
#666 = CARTESIAN_POINT('',(132.16922264764,127.42973125809,
    74.820764630342));
#667 = CARTESIAN_POINT('',(132.25099448561,126.93561360896,
    74.734067996798));
#668 = CARTESIAN_POINT('',(132.34638926818,126.45291288079,
    74.632842576991));
#669 = CARTESIAN_POINT('',(132.52765734108,125.66101970817,
    74.440299794503));
#670 = CARTESIAN_POINT('',(132.60728507137,125.34431560311,
    74.355670909233));
#671 = CARTESIAN_POINT('',(132.6923436154,125.0335859835,74.265210834915
    ));
#672 = CARTESIAN_POINT('',(132.78247774566,124.72892157502,
    74.169281928757));
#673 = CARTESIAN_POINT('',(132.87733473204,124.43040193228,
    74.068243389981));
#674 = CARTESIAN_POINT('',(132.97656447116,124.13809544719,
    73.962451381168));
#675 = CARTESIAN_POINT('',(133.07981961567,123.8520593574,
    73.852259149599));
#676 = CARTESIAN_POINT('',(133.33892928085,123.17428954165,
    73.575447016337));
#677 = CARTESIAN_POINT('',(133.49862151339,122.78886154788,
    73.404607028505));
#678 = CARTESIAN_POINT('',(133.6650180318,122.4157710949,73.226315965236
    ));
#679 = CARTESIAN_POINT('',(133.83738514645,122.0547001601,
    73.041306507661));
#680 = CARTESIAN_POINT('',(134.01506667281,121.70530338075,
    72.850227990569));
#681 = CARTESIAN_POINT('',(134.19748075679,121.36721405804,
    72.653649155066));
#682 = CARTESIAN_POINT('',(134.38411670003,121.04005016108,
    72.452060901237));
#683 = CARTESIAN_POINT('',(135.15734374228,119.75429726631,
    71.61480901044));
#684 = CARTESIAN_POINT('',(135.77795013714,118.8798815434,
    70.938114270399));
#685 = CARTESIAN_POINT('',(136.42280635017,118.09262412377,
    70.228572173059));
#686 = CARTESIAN_POINT('',(137.08227060903,117.38433076077,
    69.494499742709));
#687 = CARTESIAN_POINT('',(137.74979130746,116.74706851091,
    68.740605890298));
#688 = CARTESIAN_POINT('',(138.42097837079,116.17357382405,
    67.968105271605));
#689 = CARTESIAN_POINT('',(139.09300190131,115.65786435958,
    67.175301509249));
#690 = CARTESIAN_POINT('',(140.27977165443,114.83704534505,
    65.72125428738));
#691 = CARTESIAN_POINT('',(140.78390850091,114.51908961194,
    65.085126384511));
#692 = CARTESIAN_POINT('',(141.27921148696,114.23194597267,
    64.437590091431));
#693 = CARTESIAN_POINT('',(141.76760945696,113.97181301433,
    63.769635922532));
#694 = CARTESIAN_POINT('',(142.24438956931,113.73936313509,
    63.076229671109));
#695 = CARTESIAN_POINT('',(142.69624047454,113.53803501606,
    62.357378406956));
#696 = CARTESIAN_POINT('',(143.10139244877,113.37059973564,
    61.615067016675));
#697 = CARTESIAN_POINT('',(143.49287601366,113.21723168339,
    60.712477541084));
#698 = CARTESIAN_POINT('',(143.54946054969,113.19533509357,
    60.576050111785));
#699 = CARTESIAN_POINT('',(143.60374814883,113.17457372665,
    60.438569681533));
#700 = CARTESIAN_POINT('',(143.65556082635,113.15497914107,
    60.300058023342));
#701 = CARTESIAN_POINT('',(143.70472117325,113.13658103782,
    60.16052785174));
#702 = CARTESIAN_POINT('',(143.75105253896,113.1194080651,
    60.019982817402));
#703 = CARTESIAN_POINT('',(143.79437921405,113.10348862293,
    59.878417501769));
#704 = CARTESIAN_POINT('',(143.89399778073,113.06716964508,
    59.524580964822));
#705 = CARTESIAN_POINT('',(143.9465951357,113.04826442871,
    59.310709956813));
#706 = CARTESIAN_POINT('',(143.99152605637,113.03231425065,
    59.09479598312));
#707 = CARTESIAN_POINT('',(144.02814837137,113.01944084576,
    58.877311238413));
#708 = CARTESIAN_POINT('',(144.05596984797,113.00972666593,
    58.658633747163));
#709 = CARTESIAN_POINT('',(144.07464677801,113.00322723109,
    58.439072710658));
#710 = CARTESIAN_POINT('',(144.08398166118,112.99997861709,
    58.218893970443));
#711 = CARTESIAN_POINT('',(144.08390238267,113.00000620639,
    57.935398640655));
#712 = CARTESIAN_POINT('',(144.08311930875,113.00027871422,
    57.872451782428));
#713 = CARTESIAN_POINT('',(144.0815708525,113.00081758673,57.80951673842
    ));
#714 = CARTESIAN_POINT('',(144.07925839028,113.00162256728,
    57.746605033109));
#715 = CARTESIAN_POINT('',(144.07618458615,113.00269315991,
    57.683727990528));
#716 = CARTESIAN_POINT('',(144.07235339186,113.0040286293,
    57.620896734258));
#717 = CARTESIAN_POINT('',(144.06777004686,113.00562800076,
    57.558122187435));
#718 = CARTESIAN_POINT('',(144.05715291495,113.00933786155,
    57.433188122022));
#719 = CARTESIAN_POINT('',(144.05113034614,113.01144437585,
    57.371027355691));
#720 = CARTESIAN_POINT('',(144.0443798339,113.01380840108,
    57.308943153708));
#721 = CARTESIAN_POINT('',(144.03690877751,113.01642856615,
    57.246945403066));
#722 = CARTESIAN_POINT('',(144.02872551351,113.01930333093,
    57.185043497792));
#723 = CARTESIAN_POINT('',(144.01983931569,113.02243098626,
    57.12324633895));
#724 = CARTESIAN_POINT('',(144.01026039509,113.02580965398,
    57.061562334641));
#725 = CARTESIAN_POINT('',(143.9999999,113.02943728687,56.9999994));
#726 = ORIENTED_EDGE('',*,*,#727,.F.);
#727 = EDGE_CURVE('',#398,#658,#728,.T.);
#728 = LINE('',#729,#730);
#729 = CARTESIAN_POINT('',(57.,130.,75.));
#730 = VECTOR('',#731,1.);
#731 = DIRECTION('',(1.,0.,0.));
#732 = ORIENTED_EDGE('',*,*,#397,.T.);
#733 = ORIENTED_EDGE('',*,*,#727,.T.);
#734 = ORIENTED_EDGE('',*,*,#735,.F.);
#735 = EDGE_CURVE('',#492,#658,#736,.T.);
#736 = B_SPLINE_CURVE_WITH_KNOTS('',8,(#737,#738,#739,#740,#741,#742,
    #743,#744,#745,#746,#747,#748,#749,#750,#751,#752,#753,#754,#755,
    #756,#757,#758,#759,#760,#761,#762,#763,#764,#765,#766,#767,#768,
    #769,#770,#771,#772,#773,#774,#775,#776,#777,#778,#779,#780,#781,
    #782,#783,#784,#785,#786,#787,#788,#789,#790,#791,#792,#793,#794,
    #795,#796,#797,#798,#799,#800,#801),.UNSPECIFIED.,.F.,.F.,(9,7,7,7,7
    ,7,7,7,7,9),(0.,1.812906340155E-02,3.640800110849E-02,0.138241988717
    ,0.331234714125,0.392456211966,0.714126328817,0.817717641442,
    0.891226032953,1.),.UNSPECIFIED.);
#737 = CARTESIAN_POINT('',(143.9999999,146.97056271312,56.9999994));
#738 = CARTESIAN_POINT('',(144.01024768739,146.97418585316,
    57.061486088493));
#739 = CARTESIAN_POINT('',(144.01981558739,146.97756064434,
    57.123093548438));
#740 = CARTESIAN_POINT('',(144.02869249337,146.98068504709,
    57.184813892999));
#741 = CARTESIAN_POINT('',(144.03686823115,146.98355718999,
    57.246638745197));
#742 = CARTESIAN_POINT('',(144.04433355898,146.98617536981,
    57.308559237916));
#743 = CARTESIAN_POINT('',(144.05108016756,146.98853805146,
    57.370566013896));
#744 = CARTESIAN_POINT('',(144.05710068006,146.99064386802,
    57.432649225739));
#745 = CARTESIAN_POINT('',(144.06772034009,146.99435464895,
    57.557461639011));
#746 = CARTESIAN_POINT('',(144.07230748428,146.99595536163,
    57.620192156676));
#747 = CARTESIAN_POINT('',(144.0761435639,146.99729254596,
    57.682979392312));
#748 = CARTESIAN_POINT('',(144.07922334202,146.99836522776,
    57.745812448361));
#749 = CARTESIAN_POINT('',(144.0815428656,146.99917267146,
    57.808680226304));
#750 = CARTESIAN_POINT('',(144.08309946538,146.99971438013,
    57.871571426658));
#751 = CARTESIAN_POINT('',(144.08389175598,146.99999009546,
    57.934474548977));
#752 = CARTESIAN_POINT('',(144.08407495749,147.00005385045,
    58.347819385837));
#753 = CARTESIAN_POINT('',(144.06050495612,146.99185146088,
    58.695566138543));
#754 = CARTESIAN_POINT('',(144.01384611288,146.97561457946,
    59.040513875365));
#755 = CARTESIAN_POINT('',(143.94529826088,146.95155522429,
    59.382399982396));
#756 = CARTESIAN_POINT('',(143.85665275476,146.91990756331,
    59.720631626622));
#757 = CARTESIAN_POINT('',(143.75030335325,146.88102055274,
    60.05414071046));
#758 = CARTESIAN_POINT('',(143.62924468586,146.83548548217,
    60.381266192288));
#759 = CARTESIAN_POINT('',(143.24655673008,146.68721599005,
    61.303082877447));
#760 = CARTESIAN_POINT('',(142.95051887922,146.56760378263,
    61.888602884202));
#761 = CARTESIAN_POINT('',(142.62204951724,146.42727389204,
    62.457558777332));
#762 = CARTESIAN_POINT('',(142.27233040719,146.26776705923,
    63.009921885373));
#763 = CARTESIAN_POINT('',(141.90924550161,146.09060313529,
    63.546205055612));
#764 = CARTESIAN_POINT('',(141.53697426349,145.896458151,64.068689599134
    ));
#765 = CARTESIAN_POINT('',(141.15613732101,145.68419777826,
    64.581834234657));
#766 = CARTESIAN_POINT('',(140.64053091879,145.37599642854,
    65.253302151915));
#767 = CARTESIAN_POINT('',(140.51572672505,145.29984728132,
    65.414103867381));
#768 = CARTESIAN_POINT('',(140.39037222989,145.22176380291,
    65.574019708094));
#769 = CARTESIAN_POINT('',(140.26453999554,145.14173453017,
    65.733069778068));
#770 = CARTESIAN_POINT('',(140.13829350471,145.05974418178,
    65.891275010523));
#771 = CARTESIAN_POINT('',(140.01168777417,144.97577309576,
    66.048657508388));
#772 = CARTESIAN_POINT('',(139.88476996831,144.88979666692,
    66.205240884804));
#773 = CARTESIAN_POINT('',(139.08929829258,144.33935257457,
    67.179706341006));
#774 = CARTESIAN_POINT('',(138.4169173637,143.82308993142,67.97282310877
    ));
#775 = CARTESIAN_POINT('',(137.74539948983,143.24896736604,
    68.745615070675));
#776 = CARTESIAN_POINT('',(137.07757065283,142.61098278809,
    69.499780847943));
#777 = CARTESIAN_POINT('',(136.41782879907,141.90185101467,
    70.234097187297));
#778 = CARTESIAN_POINT('',(135.77274449699,141.11361760927,
    70.94383443474));
#779 = CARTESIAN_POINT('',(135.15199122356,140.23806896851,
    71.620642431539));
#780 = CARTESIAN_POINT('',(134.38146415136,138.95512342226,
    72.454920714035));
#781 = CARTESIAN_POINT('',(134.19745340499,138.6323526165,
    72.653669253324));
#782 = CARTESIAN_POINT('',(134.01755342623,138.29895371681,
    72.847541105149));
#783 = CARTESIAN_POINT('',(133.84225403708,137.95455992655,
    73.036065440523));
#784 = CARTESIAN_POINT('',(133.67211243541,137.59881891923,
    73.218697720122));
#785 = CARTESIAN_POINT('',(133.50775616508,137.23139843665,
    73.394817123191));
#786 = CARTESIAN_POINT('',(133.3498860861,136.85199188721,
    73.563723976457));
#787 = CARTESIAN_POINT('',(133.09240880667,136.1823963864,
    73.838821188323));
#788 = CARTESIAN_POINT('',(132.98916413357,135.89821316955,
    73.94901370216));
#789 = CARTESIAN_POINT('',(132.88988272577,135.60781480379,
    74.054871597398));
#790 = CARTESIAN_POINT('',(132.79490533638,135.31125271774,
    74.156048446562));
#791 = CARTESIAN_POINT('',(132.70457594768,135.00858926691,
    74.25219440589));
#792 = CARTESIAN_POINT('',(132.61924164765,134.69989774224,
    74.342956099373));
#793 = CARTESIAN_POINT('',(132.53925250641,134.38526237866,
    74.427976502787));
#794 = CARTESIAN_POINT('',(132.35502934215,133.59054247081,
    74.623674138252));
#795 = CARTESIAN_POINT('',(132.25733797422,133.10248166492,
    74.727342799219));
#796 = CARTESIAN_POINT('',(132.17354585345,132.60261990103,
    74.816183964731));
#797 = CARTESIAN_POINT('',(132.10501248875,132.09302863685,
    74.888797885592));
#798 = CARTESIAN_POINT('',(132.0527945212,131.57581898524,
    74.944099908159));
#799 = CARTESIAN_POINT('',(132.01764274196,131.05313312144,
    74.981319456807));
#800 = CARTESIAN_POINT('',(132.,130.52713494556,75.));
#801 = CARTESIAN_POINT('',(132.,130.,75.));
#802 = FACE_BOUND('',#803,.F.);
#803 = EDGE_LOOP('',(#804,#814,#823));
#804 = ORIENTED_EDGE('',*,*,#805,.T.);
#805 = EDGE_CURVE('',#806,#808,#810,.T.);
#806 = VERTEX_POINT('',#807);
#807 = CARTESIAN_POINT('',(219.,113.02943725152,59.));
#808 = VERTEX_POINT('',#809);
#809 = CARTESIAN_POINT('',(221.,113.02943725152,59.));
#810 = LINE('',#811,#812);
#811 = CARTESIAN_POINT('',(57.,113.02943725152,59.));
#812 = VECTOR('',#813,1.);
#813 = DIRECTION('',(1.,0.,0.));
#814 = ORIENTED_EDGE('',*,*,#815,.T.);
#815 = EDGE_CURVE('',#808,#816,#818,.T.);
#816 = VERTEX_POINT('',#817);
#817 = CARTESIAN_POINT('',(220.,113.,58.));
#818 = ELLIPSE('',#819,24.041630560343,17.);
#819 = AXIS2_PLACEMENT_3D('',#820,#821,#822);
#820 = CARTESIAN_POINT('',(220.,130.,58.));
#821 = DIRECTION('',(0.707106781187,0.,-0.707106781187));
#822 = DIRECTION('',(0.707106781187,0.,0.707106781187));
#823 = ORIENTED_EDGE('',*,*,#824,.F.);
#824 = EDGE_CURVE('',#806,#816,#825,.T.);
#825 = ELLIPSE('',#826,24.041630560343,17.);
#826 = AXIS2_PLACEMENT_3D('',#827,#828,#829);
#827 = CARTESIAN_POINT('',(220.,130.,58.));
#828 = DIRECTION('',(0.707106781187,-0.,0.707106781187));
#829 = DIRECTION('',(0.707106781187,0.,-0.707106781187));
#830 = FACE_BOUND('',#831,.F.);
#831 = EDGE_LOOP('',(#832,#843,#852));
#832 = ORIENTED_EDGE('',*,*,#833,.F.);
#833 = EDGE_CURVE('',#834,#836,#838,.T.);
#834 = VERTEX_POINT('',#835);
#835 = CARTESIAN_POINT('',(220.,113.,58.));
#836 = VERTEX_POINT('',#837);
#837 = CARTESIAN_POINT('',(220.,147.,58.));
#838 = ELLIPSE('',#839,24.041630560343,17.);
#839 = AXIS2_PLACEMENT_3D('',#840,#841,#842);
#840 = CARTESIAN_POINT('',(220.,130.,58.));
#841 = DIRECTION('',(0.707106781187,0.,-0.707106781187));
#842 = DIRECTION('',(0.707106781187,0.,0.707106781187));
#843 = ORIENTED_EDGE('',*,*,#844,.T.);
#844 = EDGE_CURVE('',#834,#845,#847,.T.);
#845 = VERTEX_POINT('',#846);
#846 = CARTESIAN_POINT('',(237.,130.,41.));
#847 = ELLIPSE('',#848,24.041630560343,17.);
#848 = AXIS2_PLACEMENT_3D('',#849,#850,#851);
#849 = CARTESIAN_POINT('',(220.,130.,58.));
#850 = DIRECTION('',(0.707106781187,-0.,0.707106781187));
#851 = DIRECTION('',(0.707106781187,0.,-0.707106781187));
#852 = ORIENTED_EDGE('',*,*,#853,.T.);
#853 = EDGE_CURVE('',#845,#836,#854,.T.);
#854 = ELLIPSE('',#855,24.041630560343,17.);
#855 = AXIS2_PLACEMENT_3D('',#856,#857,#858);
#856 = CARTESIAN_POINT('',(220.,130.,58.));
#857 = DIRECTION('',(0.707106781187,-0.,0.707106781187));
#858 = DIRECTION('',(0.707106781187,0.,-0.707106781187));
#859 = FACE_BOUND('',#860,.F.);
#860 = EDGE_LOOP('',(#861,#872,#881));
#861 = ORIENTED_EDGE('',*,*,#862,.F.);
#862 = EDGE_CURVE('',#863,#865,#867,.T.);
#863 = VERTEX_POINT('',#864);
#864 = CARTESIAN_POINT('',(220.,147.,58.));
#865 = VERTEX_POINT('',#866);
#866 = CARTESIAN_POINT('',(219.,146.97056274847,59.));
#867 = ELLIPSE('',#868,24.041630560343,17.);
#868 = AXIS2_PLACEMENT_3D('',#869,#870,#871);
#869 = CARTESIAN_POINT('',(220.,130.,58.));
#870 = DIRECTION('',(0.707106781187,-0.,0.707106781187));
#871 = DIRECTION('',(0.707106781187,0.,-0.707106781187));
#872 = ORIENTED_EDGE('',*,*,#873,.T.);
#873 = EDGE_CURVE('',#863,#874,#876,.T.);
#874 = VERTEX_POINT('',#875);
#875 = CARTESIAN_POINT('',(221.,146.97056274847,59.));
#876 = ELLIPSE('',#877,24.041630560343,17.);
#877 = AXIS2_PLACEMENT_3D('',#878,#879,#880);
#878 = CARTESIAN_POINT('',(220.,130.,58.));
#879 = DIRECTION('',(0.707106781187,0.,-0.707106781187));
#880 = DIRECTION('',(0.707106781187,0.,0.707106781187));
#881 = ORIENTED_EDGE('',*,*,#882,.F.);
#882 = EDGE_CURVE('',#865,#874,#883,.T.);
#883 = LINE('',#884,#885);
#884 = CARTESIAN_POINT('',(57.,146.97056274847,59.));
#885 = VECTOR('',#886,1.);
#886 = DIRECTION('',(1.,0.,0.));
#887 = CYLINDRICAL_SURFACE('',#888,17.);
#888 = AXIS2_PLACEMENT_3D('',#889,#890,#891);
#889 = CARTESIAN_POINT('',(57.,130.,58.));
#890 = DIRECTION('',(1.,0.,0.));
#891 = DIRECTION('',(0.,0.,1.));
#892 = ADVANCED_FACE('',(#893,#896),#907,.F.);
#893 = FACE_BOUND('',#894,.F.);
#894 = EDGE_LOOP('',(#895));
#895 = ORIENTED_EDGE('',*,*,#454,.T.);
#896 = FACE_BOUND('',#897,.F.);
#897 = EDGE_LOOP('',(#898));
#898 = ORIENTED_EDGE('',*,*,#899,.F.);
#899 = EDGE_CURVE('',#900,#900,#902,.T.);
#900 = VERTEX_POINT('',#901);
#901 = CARTESIAN_POINT('',(237.,130.,16.));
#902 = CIRCLE('',#903,17.);
#903 = AXIS2_PLACEMENT_3D('',#904,#905,#906);
#904 = CARTESIAN_POINT('',(220.,130.,16.));
#905 = DIRECTION('',(0.,0.,1.));
#906 = DIRECTION('',(1.,0.,0.));
#907 = PLANE('',#908);
#908 = AXIS2_PLACEMENT_3D('',#909,#910,#911);
#909 = CARTESIAN_POINT('',(220.,130.,16.));
#910 = DIRECTION('',(0.,0.,1.));
#911 = DIRECTION('',(1.,0.,0.));
#912 = ADVANCED_FACE('',(#913),#941,.F.);
#913 = FACE_BOUND('',#914,.F.);
#914 = EDGE_LOOP('',(#915,#916,#922,#923,#924,#925,#932,#933,#934));
#915 = ORIENTED_EDGE('',*,*,#579,.F.);
#916 = ORIENTED_EDGE('',*,*,#917,.T.);
#917 = EDGE_CURVE('',#502,#475,#918,.T.);
#918 = LINE('',#919,#920);
#919 = CARTESIAN_POINT('',(168.,130.,57.));
#920 = VECTOR('',#921,1.);
#921 = DIRECTION('',(0.,0.,1.));
#922 = ORIENTED_EDGE('',*,*,#474,.F.);
#923 = ORIENTED_EDGE('',*,*,#917,.F.);
#924 = ORIENTED_EDGE('',*,*,#501,.F.);
#925 = ORIENTED_EDGE('',*,*,#926,.T.);
#926 = EDGE_CURVE('',#494,#492,#927,.T.);
#927 = CIRCLE('',#928,18.);
#928 = AXIS2_PLACEMENT_3D('',#929,#930,#931);
#929 = CARTESIAN_POINT('',(150.,130.,57.));
#930 = DIRECTION('',(0.,0.,1.));
#931 = DIRECTION('',(1.,0.,0.));
#932 = ORIENTED_EDGE('',*,*,#735,.T.);
#933 = ORIENTED_EDGE('',*,*,#657,.T.);
#934 = ORIENTED_EDGE('',*,*,#935,.T.);
#935 = EDGE_CURVE('',#650,#580,#936,.T.);
#936 = CIRCLE('',#937,18.);
#937 = AXIS2_PLACEMENT_3D('',#938,#939,#940);
#938 = CARTESIAN_POINT('',(150.,130.,57.));
#939 = DIRECTION('',(0.,0.,1.));
#940 = DIRECTION('',(1.,0.,0.));
#941 = CYLINDRICAL_SURFACE('',#942,18.);
#942 = AXIS2_PLACEMENT_3D('',#943,#944,#945);
#943 = CARTESIAN_POINT('',(150.,130.,57.));
#944 = DIRECTION('',(0.,0.,1.));
#945 = DIRECTION('',(1.,0.,0.));
#946 = ADVANCED_FACE('',(#947),#951,.T.);
#947 = FACE_BOUND('',#948,.T.);
#948 = EDGE_LOOP('',(#949,#950));
#949 = ORIENTED_EDGE('',*,*,#491,.T.);
#950 = ORIENTED_EDGE('',*,*,#926,.T.);
#951 = PLANE('',#952);
#952 = AXIS2_PLACEMENT_3D('',#953,#954,#955);
#953 = CARTESIAN_POINT('',(150.,130.,57.));
#954 = DIRECTION('',(0.,0.,1.));
#955 = DIRECTION('',(1.,0.,0.));
#956 = ADVANCED_FACE('',(#957),#961,.T.);
#957 = FACE_BOUND('',#958,.T.);
#958 = EDGE_LOOP('',(#959,#960));
#959 = ORIENTED_EDGE('',*,*,#935,.T.);
#960 = ORIENTED_EDGE('',*,*,#649,.F.);
#961 = PLANE('',#962);
#962 = AXIS2_PLACEMENT_3D('',#963,#964,#965);
#963 = CARTESIAN_POINT('',(150.,130.,57.));
#964 = DIRECTION('',(0.,0.,1.));
#965 = DIRECTION('',(1.,0.,0.));
#966 = ADVANCED_FACE('',(#967),#977,.F.);
#967 = FACE_BOUND('',#968,.F.);
#968 = EDGE_LOOP('',(#969,#976));
#969 = ORIENTED_EDGE('',*,*,#970,.T.);
#970 = EDGE_CURVE('',#806,#808,#971,.T.);
#971 = CIRCLE('',#972,17.);
#972 = AXIS2_PLACEMENT_3D('',#973,#974,#975);
#973 = CARTESIAN_POINT('',(220.,130.,59.));
#974 = DIRECTION('',(0.,0.,1.));
#975 = DIRECTION('',(1.,0.,0.));
#976 = ORIENTED_EDGE('',*,*,#805,.F.);
#977 = PLANE('',#978);
#978 = AXIS2_PLACEMENT_3D('',#979,#980,#981);
#979 = CARTESIAN_POINT('',(220.,130.,59.));
#980 = DIRECTION('',(0.,0.,1.));
#981 = DIRECTION('',(1.,0.,0.));
#982 = ADVANCED_FACE('',(#983),#988,.F.);
#983 = FACE_BOUND('',#984,.F.);
#984 = EDGE_LOOP('',(#985,#986,#987));
#985 = ORIENTED_EDGE('',*,*,#815,.F.);
#986 = ORIENTED_EDGE('',*,*,#970,.F.);
#987 = ORIENTED_EDGE('',*,*,#824,.T.);
#988 = CYLINDRICAL_SURFACE('',#989,17.);
#989 = AXIS2_PLACEMENT_3D('',#990,#991,#992);
#990 = CARTESIAN_POINT('',(220.,130.,15.));
#991 = DIRECTION('',(0.,0.,1.));
#992 = DIRECTION('',(1.,0.,0.));
#993 = ADVANCED_FACE('',(#994),#1007,.F.);
#994 = FACE_BOUND('',#995,.F.);
#995 = EDGE_LOOP('',(#996,#1002,#1003,#1004,#1005,#1006));
#996 = ORIENTED_EDGE('',*,*,#997,.T.);
#997 = EDGE_CURVE('',#900,#845,#998,.T.);
#998 = LINE('',#999,#1000);
#999 = CARTESIAN_POINT('',(237.,130.,15.));
#1000 = VECTOR('',#1001,1.);
#1001 = DIRECTION('',(0.,0.,1.));
#1002 = ORIENTED_EDGE('',*,*,#844,.F.);
#1003 = ORIENTED_EDGE('',*,*,#833,.T.);
#1004 = ORIENTED_EDGE('',*,*,#853,.F.);
#1005 = ORIENTED_EDGE('',*,*,#997,.F.);
#1006 = ORIENTED_EDGE('',*,*,#899,.T.);
#1007 = CYLINDRICAL_SURFACE('',#1008,17.);
#1008 = AXIS2_PLACEMENT_3D('',#1009,#1010,#1011);
#1009 = CARTESIAN_POINT('',(220.,130.,15.));
#1010 = DIRECTION('',(0.,0.,1.));
#1011 = DIRECTION('',(1.,0.,0.));
#1012 = ADVANCED_FACE('',(#1013),#1024,.F.);
#1013 = FACE_BOUND('',#1014,.F.);
#1014 = EDGE_LOOP('',(#1015,#1022,#1023));
#1015 = ORIENTED_EDGE('',*,*,#1016,.F.);
#1016 = EDGE_CURVE('',#874,#865,#1017,.T.);
#1017 = CIRCLE('',#1018,17.);
#1018 = AXIS2_PLACEMENT_3D('',#1019,#1020,#1021);
#1019 = CARTESIAN_POINT('',(220.,130.,59.));
#1020 = DIRECTION('',(0.,0.,1.));
#1021 = DIRECTION('',(1.,0.,0.));
#1022 = ORIENTED_EDGE('',*,*,#873,.F.);
#1023 = ORIENTED_EDGE('',*,*,#862,.T.);
#1024 = CYLINDRICAL_SURFACE('',#1025,17.);
#1025 = AXIS2_PLACEMENT_3D('',#1026,#1027,#1028);
#1026 = CARTESIAN_POINT('',(220.,130.,15.));
#1027 = DIRECTION('',(0.,0.,1.));
#1028 = DIRECTION('',(1.,0.,0.));
#1029 = ADVANCED_FACE('',(#1030),#1034,.F.);
#1030 = FACE_BOUND('',#1031,.F.);
#1031 = EDGE_LOOP('',(#1032,#1033));
#1032 = ORIENTED_EDGE('',*,*,#882,.T.);
#1033 = ORIENTED_EDGE('',*,*,#1016,.T.);
#1034 = PLANE('',#1035);
#1035 = AXIS2_PLACEMENT_3D('',#1036,#1037,#1038);
#1036 = CARTESIAN_POINT('',(220.,130.,59.));
#1037 = DIRECTION('',(0.,0.,1.));
#1038 = DIRECTION('',(1.,0.,0.));
#1039 = ( GEOMETRIC_REPRESENTATION_CONTEXT(3) 
GLOBAL_UNCERTAINTY_ASSIGNED_CONTEXT((#1043)) 
GLOBAL_UNIT_ASSIGNED_CONTEXT((#1040,#1041,#1042)) REPRESENTATION_CONTEXT
('Context #1','3D Context with UNIT and UNCERTAINTY') );
#1040 = ( LENGTH_UNIT() NAMED_UNIT(*) SI_UNIT(.MILLI.,.METRE.) );
#1041 = ( NAMED_UNIT(*) PLANE_ANGLE_UNIT() SI_UNIT($,.RADIAN.) );
#1042 = ( NAMED_UNIT(*) SI_UNIT($,.STERADIAN.) SOLID_ANGLE_UNIT() );
#1043 = UNCERTAINTY_MEASURE_WITH_UNIT(LENGTH_MEASURE(1.E-07),#1040,
  'distance_accuracy_value','confusion accuracy');
#1044 = PRODUCT_RELATED_PRODUCT_CATEGORY('part',$,(#7));
ENDSEC;
END-ISO-10303-21;
