ISO-10303-21;
HEADER;
FILE_DESCRIPTION(('FreeCAD Model'),'2;1');
FILE_NAME('Open CASCADE Shape Model','2000-01-01T00:00:00',('FreeCAD'),(
    'FreeCAD'),'Open CASCADE STEP processor 7.9','FreeCAD','Unknown');
FILE_SCHEMA(('AUTOMOTIVE_DESIGN { 1 0 10303 214 1 1 1 1 }'));
ENDSEC;
DATA;
#1 = APPLICATION_PROTOCOL_DEFINITION('international standard',
  'automotive_design',2000,#2);
#2 = APPLICATION_CONTEXT(
  'core data for automotive mechanical design processes');
#3 = SHAPE_DEFINITION_REPRESENTATION(#4,#10);
#4 = PRODUCT_DEFINITION_SHAPE('','',#5);
#5 = PRODUCT_DEFINITION('design','',#6,#9);
#6 = PRODUCT_DEFINITION_FORMATION('','',#7);
#7 = PRODUCT('Open CASCADE STEP translator 7.9 28',
  'Open CASCADE STEP translator 7.9 28','',(#8));
#8 = PRODUCT_CONTEXT('',#2,'mechanical');
#9 = PRODUCT_DEFINITION_CONTEXT('part definition',#2,'design');
#10 = ADVANCED_BREP_SHAPE_REPRESENTATION('',(#11,#15),#1223);
#11 = AXIS2_PLACEMENT_3D('',#12,#13,#14);
#12 = CARTESIAN_POINT('',(0.,0.,0.));
#13 = DIRECTION('',(0.,0.,1.));
#14 = DIRECTION('',(1.,0.,-0.));
#15 = MANIFOLD_SOLID_BREP('',#16);
#16 = CLOSED_SHELL('',(#17,#587,#607,#633,#659,#685,#705,#1073,#1093,
    #1113,#1133,#1151,#1169,#1203,#1213));
#17 = ADVANCED_FACE('',(#18),#582,.T.);
#18 = FACE_BOUND('',#19,.T.);
#19 = EDGE_LOOP('',(#20,#30,#85,#93,#170,#178,#304,#312,#319,#320,#444,
    #445,#520,#521,#574,#575));
#20 = ORIENTED_EDGE('',*,*,#21,.F.);
#21 = EDGE_CURVE('',#22,#24,#26,.T.);
#22 = VERTEX_POINT('',#23);
#23 = CARTESIAN_POINT('',(624.,110.,169.));
#24 = VERTEX_POINT('',#25);
#25 = CARTESIAN_POINT('',(646.,110.,169.));
#26 = LINE('',#27,#28);
#27 = CARTESIAN_POINT('',(208.,110.,169.));
#28 = VECTOR('',#29,1.);
#29 = DIRECTION('',(1.,0.,0.));
#30 = ORIENTED_EDGE('',*,*,#31,.F.);
#31 = EDGE_CURVE('',#32,#22,#34,.T.);
#32 = VERTEX_POINT('',#33);
#33 = CARTESIAN_POINT('',(612.,110.,169.));
#34 = B_SPLINE_CURVE_WITH_KNOTS('',7,(#35,#36,#37,#38,#39,#40,#41,#42,
    #43,#44,#45,#46,#47,#48,#49,#50,#51,#52,#53,#54,#55,#56,#57,#58,#59,
    #60,#61,#62,#63,#64,#65,#66,#67,#68,#69,#70,#71,#72,#73,#74,#75,#76,
    #77,#78,#79,#80,#81,#82,#83,#84),.UNSPECIFIED.,.F.,.F.,(8,6,6,6,6,6,
    6,6,8),(0.,8.320673560784E-02,0.206985412788,0.316327698907,
    0.500241066888,0.642670741669,0.733417597885,0.865340285095,1.),
  .UNSPECIFIED.);
#35 = CARTESIAN_POINT('',(612.,110.,169.));
#36 = CARTESIAN_POINT('',(612.,109.72553891489,169.));
#37 = CARTESIAN_POINT('',(612.01464732287,109.45152318178,
    168.99537456123));
#38 = CARTESIAN_POINT('',(612.04385619714,109.17963823672,
    168.98615060014));
#39 = CARTESIAN_POINT('',(612.08722731352,108.91155391417,
    168.97251863343));
#40 = CARTESIAN_POINT('',(612.14405161377,108.64889231824,
    168.95482818206));
#41 = CARTESIAN_POINT('',(612.21330884821,108.39319622757,
    168.93356611963));
#42 = CARTESIAN_POINT('',(612.4131929435,107.77801623816,168.87324631169
    ));
#43 = CARTESIAN_POINT('',(612.55724294133,107.42882399179,
    168.83057685796));
#44 = CARTESIAN_POINT('',(612.72260350107,107.0992637935,168.78287660405
    ));
#45 = CARTESIAN_POINT('',(612.90632444705,106.78993318364,
    168.73169609251));
#46 = CARTESIAN_POINT('',(613.10566822877,106.50113923361,
    168.67848543965));
#47 = CARTESIAN_POINT('',(613.3180740966,106.23294620262,168.62454144327
    ));
#48 = CARTESIAN_POINT('',(613.73817271425,105.7663794204,168.52367632459
    ));
#49 = CARTESIAN_POINT('',(613.94398938798,105.56299550356,
    168.47655826944));
#50 = CARTESIAN_POINT('',(614.15735443569,105.37469865783,
    168.43032017886));
#51 = CARTESIAN_POINT('',(614.37724450467,105.20110844781,
    168.38554655983));
#52 = CARTESIAN_POINT('',(614.60281057165,105.04185223755,
    168.34273153334));
#53 = CARTESIAN_POINT('',(614.83334899234,104.89658747185,
    168.30229251935));
#54 = CARTESIAN_POINT('',(615.4634132091,104.5437345564,168.20115818381)
  );
#55 = CARTESIAN_POINT('',(615.87108479023,104.36113708644,
    168.14543735031));
#56 = CARTESIAN_POINT('',(616.28802087359,104.2161651711,168.09919721151
    ));
#57 = CARTESIAN_POINT('',(616.71157010406,104.10798253067,
    168.06369494545));
#58 = CARTESIAN_POINT('',(617.13946031848,104.03601754585,
    168.03974380684));
#59 = CARTESIAN_POINT('',(617.56961184851,104.,168.02775637732));
#60 = CARTESIAN_POINT('',(618.33330934623,104.,168.02775637732));
#61 = CARTESIAN_POINT('',(618.66655381118,104.02160190342,
    168.03494592854));
#62 = CARTESIAN_POINT('',(618.99875008047,104.06479019342,
    168.04931984387));
#63 = CARTESIAN_POINT('',(619.32890597287,104.12965807374,
    168.07072808639));
#64 = CARTESIAN_POINT('',(619.65597414715,104.21639792407,
    168.09887293547));
#65 = CARTESIAN_POINT('',(619.97880526273,104.32529477536,
    168.13330088593));
#66 = CARTESIAN_POINT('',(620.49826038895,104.54046013369,
    168.19893097868));
#67 = CARTESIAN_POINT('',(620.6981789466,104.63334630447,168.22677127209
    ));
#68 = CARTESIAN_POINT('',(620.89556680219,104.73549851029,
    168.25675519792));
#69 = CARTESIAN_POINT('',(621.09009853366,104.84705861697,
    168.28870243383));
#70 = CARTESIAN_POINT('',(621.28140348408,104.96818863292,
    168.32240322921));
#71 = CARTESIAN_POINT('',(621.46905648407,105.09906617899,
    168.35761433629));
#72 = CARTESIAN_POINT('',(621.91934815248,105.44458712862,
    168.44703024825));
#73 = CARTESIAN_POINT('',(622.17753527879,105.6704156097,168.50263573335
    ));
#74 = CARTESIAN_POINT('',(622.4256024389,105.91798341101,168.56001137331
    ));
#75 = CARTESIAN_POINT('',(622.66168535847,106.18793194512,
    168.61812023694));
#76 = CARTESIAN_POINT('',(622.8835172748,106.48084429988,168.67570186239
    ));
#77 = CARTESIAN_POINT('',(623.08835584297,106.7971544543,168.73125707566
    ));
#78 = CARTESIAN_POINT('',(623.46127834087,107.48399225369,
    168.83594627923));
#79 = CARTESIAN_POINT('',(623.63022067011,107.85865710233,
    168.88540314573));
#80 = CARTESIAN_POINT('',(623.77309919842,108.25757096995,
    168.92879624718));
#81 = CARTESIAN_POINT('',(623.88470345604,108.67638957083,
    168.96359089826));
#82 = CARTESIAN_POINT('',(623.96117989176,109.11008588767,
    168.98774093829));
#83 = CARTESIAN_POINT('',(624.,109.55318155766,169.));
#84 = CARTESIAN_POINT('',(624.,110.,169.));
#85 = ORIENTED_EDGE('',*,*,#86,.F.);
#86 = EDGE_CURVE('',#87,#32,#89,.T.);
#87 = VERTEX_POINT('',#88);
#88 = CARTESIAN_POINT('',(601.,110.,169.));
#89 = LINE('',#90,#91);
#90 = CARTESIAN_POINT('',(208.,110.,169.));
#91 = VECTOR('',#92,1.);
#92 = DIRECTION('',(1.,0.,0.));
#93 = ORIENTED_EDGE('',*,*,#94,.F.);
#94 = EDGE_CURVE('',#95,#87,#97,.T.);
#95 = VERTEX_POINT('',#96);
#96 = CARTESIAN_POINT('',(587.,110.,169.));
#97 = B_SPLINE_CURVE_WITH_KNOTS('',6,(#98,#99,#100,#101,#102,#103,#104,
    #105,#106,#107,#108,#109,#110,#111,#112,#113,#114,#115,#116,#117,
    #118,#119,#120,#121,#122,#123,#124,#125,#126,#127,#128,#129,#130,
    #131,#132,#133,#134,#135,#136,#137,#138,#139,#140,#141,#142,#143,
    #144,#145,#146,#147,#148,#149,#150,#151,#152,#153,#154,#155,#156,
    #157,#158,#159,#160,#161,#162,#163,#164,#165,#166,#167,#168,#169),
  .UNSPECIFIED.,.F.,.F.,(7,5,5,5,5,5,5,5,5,5,5,5,5,5,7),(0.,
    7.862075083325E-02,0.193588778408,0.247232643815,0.293991848551,
    0.334177428457,0.367161239527,0.500105328283,0.631552494382,
    0.664332664563,0.704176573906,0.750340079014,0.805279440745,
    0.87191384223,1.),.UNSPECIFIED.);
#98 = CARTESIAN_POINT('',(587.,110.,169.));
#99 = CARTESIAN_POINT('',(587.,109.64534961947,169.));
#100 = CARTESIAN_POINT('',(587.02156180401,109.29134590007,
    168.99205621029));
#101 = CARTESIAN_POINT('',(587.06453764053,108.94103916762,
    168.97622285361));
#102 = CARTESIAN_POINT('',(587.12804340305,108.59744738214,
    168.95298498124));
#103 = CARTESIAN_POINT('',(587.21046946556,108.26345539162,
    168.92324383346));
#104 = CARTESIAN_POINT('',(587.45418765576,107.47123703318,
    168.83691425017));
#105 = CARTESIAN_POINT('',(587.63424754692,107.02720586592,
    168.77429735377));
#106 = CARTESIAN_POINT('',(587.84420159988,106.61124701068,
    168.70333614381));
#107 = CARTESIAN_POINT('',(588.07916097387,106.22425508683,
    168.62701228966));
#108 = CARTESIAN_POINT('',(588.33462812447,105.86655666081,
    168.54801537224));
#109 = CARTESIAN_POINT('',(588.7332189529,105.38474311647,
    168.43161069821));
#110 = CARTESIAN_POINT('',(588.86375021004,105.23760207521,
    168.39444601348));
#111 = CARTESIAN_POINT('',(588.99768866013,105.09651252213,
    168.35735591212));
#112 = CARTESIAN_POINT('',(589.13475577644,104.9613773265,168.3205269535
    ));
#113 = CARTESIAN_POINT('',(589.27470693674,104.83209862609,
    168.28412797061));
#114 = CARTESIAN_POINT('',(589.54165150097,104.60090965366,
    168.21709061756));
#115 = CARTESIAN_POINT('',(589.66800320086,104.49761590953,
    168.18631246448));
#116 = CARTESIAN_POINT('',(589.79624205216,104.3986362177,
    168.15607815397));
#117 = CARTESIAN_POINT('',(589.92623729545,104.30391331905,
    168.12648148179));
#118 = CARTESIAN_POINT('',(590.05787190208,104.21339304564,
    168.09760833726));
#119 = CARTESIAN_POINT('',(590.30549149857,104.05279770993,
    168.04541150918));
#120 = CARTESIAN_POINT('',(590.4210717243,103.98163935613,
    168.02187906618));
#121 = CARTESIAN_POINT('',(590.53771463085,103.91351894299,
    167.99898965083));
#122 = CARTESIAN_POINT('',(590.65535494146,103.84840915492,
    167.97679026164));
#123 = CARTESIAN_POINT('',(590.77393072322,103.78628567712,
    167.95532461906));
#124 = CARTESIAN_POINT('',(590.99142860877,103.67857066908,
    167.91764988446));
#125 = CARTESIAN_POINT('',(591.09006430693,103.63201164049,
    167.90118821034));
#126 = CARTESIAN_POINT('',(591.18925788275,103.58743834754,
    167.88527055735));
#127 = CARTESIAN_POINT('',(591.28897755219,103.54484021573,
    167.86991794158));
#128 = CARTESIAN_POINT('',(591.3891923459,103.5042078584,167.85514998093
    ));
#129 = CARTESIAN_POINT('',(591.89567055858,103.30965104104,
    167.78389129789));
#130 = CARTESIAN_POINT('',(592.30916708362,103.18551485425,
    167.73657137415));
#131 = CARTESIAN_POINT('',(592.72819682546,103.09270009073,
    167.70025846189));
#132 = CARTESIAN_POINT('',(593.1508542151,103.0309101447,167.6757713454)
  );
#133 = CARTESIAN_POINT('',(593.57537195489,103.,167.66352173265));
#134 = CARTESIAN_POINT('',(594.41984682205,103.,167.66352173265));
#135 = CARTESIAN_POINT('',(594.83958930946,103.03021798743,
    167.67549703888));
#136 = CARTESIAN_POINT('',(595.25753340431,103.09062554408,
    167.69943633795));
#137 = CARTESIAN_POINT('',(595.67196886505,103.18136075455,
    167.73494589269));
#138 = CARTESIAN_POINT('',(596.08105506711,103.3027059667,
    167.78124268519));
#139 = CARTESIAN_POINT('',(596.58287033458,103.49306084171,
    167.85108906475));
#140 = CARTESIAN_POINT('',(596.68258003859,103.53298818777,
    167.86562928746));
#141 = CARTESIAN_POINT('',(596.78180638642,103.57485549519,
    167.88075052839));
#142 = CARTESIAN_POINT('',(596.88051907753,103.6186718176,
    167.89643372484));
#143 = CARTESIAN_POINT('',(596.97868704023,103.66444735742,
    167.91265845097));
#144 = CARTESIAN_POINT('',(597.19489961415,103.77022829615,
    167.94975561928));
#145 = CARTESIAN_POINT('',(597.31266858391,103.83117446553,
    167.97087613474));
#146 = CARTESIAN_POINT('',(597.42952850017,103.89505239397,
    167.99272542174));
#147 = CARTESIAN_POINT('',(597.54541938235,103.96188539115,
    168.01526128711));
#148 = CARTESIAN_POINT('',(597.66027811008,104.03169965641,
    168.03843838694));
#149 = CARTESIAN_POINT('',(597.90584212622,104.188899529,168.08974817258
    ));
#150 = CARTESIAN_POINT('',(598.03616715899,104.2773133166,
    168.11808282481));
#151 = CARTESIAN_POINT('',(598.1649150836,104.36981401904,
    168.14713791885));
#152 = CARTESIAN_POINT('',(598.29197467306,104.46645302438,
    168.17683176599));
#153 = CARTESIAN_POINT('',(598.41722191131,104.56728473122,
    168.20707525324));
#154 = CARTESIAN_POINT('',(598.68725750603,104.79742481648,
    168.27430397105));
#155 = CARTESIAN_POINT('',(598.83123446833,104.92850278814,
    168.31147772715));
#156 = CARTESIAN_POINT('',(598.97222928804,105.06570590757,
    168.34913235663));
#157 = CARTESIAN_POINT('',(599.1099834383,105.20913917424,
    168.38708876135));
#158 = CARTESIAN_POINT('',(599.2442014784,105.35890718705,
    168.42514851784));
#159 = CARTESIAN_POINT('',(599.53264842161,105.70457325162,
    168.50911455958));
#160 = CARTESIAN_POINT('',(599.68509612401,105.90355342984,
    168.55497835816));
#161 = CARTESIAN_POINT('',(599.83123495613,106.11218058088,
    168.60027712423));
#162 = CARTESIAN_POINT('',(599.97032606884,106.33054068047,
    168.64455450716));
#163 = CARTESIAN_POINT('',(600.10154938023,106.55867839178,
    168.68731030206));
#164 = CARTESIAN_POINT('',(600.45938310428,107.25392555653,
    168.80623154911));
#165 = CARTESIAN_POINT('',(600.66498619005,107.7524993582,
    168.87771799201));
#166 = CARTESIAN_POINT('',(600.82877032361,108.28558787506,
    168.93691284945));
#167 = CARTESIAN_POINT('',(600.94222098524,108.84453187897,
    168.97871370112));
#168 = CARTESIAN_POINT('',(601.,109.41944793655,169.));
#169 = CARTESIAN_POINT('',(601.,110.,169.));
#170 = ORIENTED_EDGE('',*,*,#171,.F.);
#171 = EDGE_CURVE('',#172,#95,#174,.T.);
#172 = VERTEX_POINT('',#173);
#173 = CARTESIAN_POINT('',(246.,110.,169.));
#174 = LINE('',#175,#176);
#175 = CARTESIAN_POINT('',(208.,110.,169.));
#176 = VECTOR('',#177,1.);
#177 = DIRECTION('',(1.,0.,0.));
#178 = ORIENTED_EDGE('',*,*,#179,.F.);
#179 = EDGE_CURVE('',#180,#172,#182,.T.);
#180 = VERTEX_POINT('',#181);
#181 = CARTESIAN_POINT('',(210.,110.,169.));
#182 = B_SPLINE_CURVE_WITH_KNOTS('',8,(#183,#184,#185,#186,#187,#188,
    #189,#190,#191,#192,#193,#194,#195,#196,#197,#198,#199,#200,#201,
    #202,#203,#204,#205,#206,#207,#208,#209,#210,#211,#212,#213,#214,
    #215,#216,#217,#218,#219,#220,#221,#222,#223,#224,#225,#226,#227,
    #228,#229,#230,#231,#232,#233,#234,#235,#236,#237,#238,#239,#240,
    #241,#242,#243,#244,#245,#246,#247,#248,#249,#250,#251,#252,#253,
    #254,#255,#256,#257,#258,#259,#260,#261,#262,#263,#264,#265,#266,
    #267,#268,#269,#270,#271,#272,#273,#274,#275,#276,#277,#278,#279,
    #280,#281,#282,#283,#284,#285,#286,#287,#288,#289,#290,#291,#292,
    #293,#294,#295,#296,#297,#298,#299,#300,#301,#302,#303),
  .UNSPECIFIED.,.F.,.F.,(9,7,7,7,7,7,7,7,7,7,7,7,7,7,7,7,7,9),(0.,
    5.645242589409E-02,9.361149964231E-02,0.146875457352,0.213772062258,
    0.313839268522,0.440468769011,0.463744768007,0.497973936155,
    0.529945032158,0.550101577343,0.644115451503,0.683469444492,
    0.784533867664,0.851889275893,0.906225283812,0.943096074874,1.),
  .UNSPECIFIED.);
#183 = CARTESIAN_POINT('',(210.,110.,169.));
#184 = CARTESIAN_POINT('',(210.,109.43472348321,169.));
#185 = CARTESIAN_POINT('',(210.02028823695,108.87070983068,
    168.9807795576));
#186 = CARTESIAN_POINT('',(210.06070545813,108.31034834803,
    168.94248957707));
#187 = CARTESIAN_POINT('',(210.12074229911,107.75601509066,
    168.88562499561));
#188 = CARTESIAN_POINT('',(210.19954040298,107.21006138845,
    168.8110233897));
#189 = CARTESIAN_POINT('',(210.29589245337,106.67480332868,
    168.71986263947));
#190 = CARTESIAN_POINT('',(210.40824112148,106.15251219742,168.613657651
    ));
#191 = CARTESIAN_POINT('',(210.61790164852,105.31160975302,
    168.41566164545));
#192 = CARTESIAN_POINT('',(210.7073589693,104.9838756177,168.33122760595
    ));
#193 = CARTESIAN_POINT('',(210.80268175272,104.66229443733,
    168.24131365964));
#194 = CARTESIAN_POINT('',(210.90350720189,104.34694620729,
    168.14627597868));
#195 = CARTESIAN_POINT('',(211.00947675446,104.03789995849,
    168.04646715168));
#196 = CARTESIAN_POINT('',(211.12023597742,103.73521376164,
    167.94223606961));
#197 = CARTESIAN_POINT('',(211.23543446194,103.43893473151,
    167.8339278118));
#198 = CARTESIAN_POINT('',(211.52571825886,102.73364743553,
    167.56127883458));
#199 = CARTESIAN_POINT('',(211.70518639497,102.33127338266,
    167.39293548308));
#200 = CARTESIAN_POINT('',(211.89229552117,101.94167918091,
    167.21768425292));
#201 = CARTESIAN_POINT('',(212.0862987247,101.56453366089,
    167.03627346141));
#202 = CARTESIAN_POINT('',(212.2865339891,101.19947822928,
    166.84937218649));
#203 = CARTESIAN_POINT('',(212.49242139803,100.84613292249,
    166.65757348567));
#204 = CARTESIAN_POINT('',(212.70346033891,100.50410246037,
    166.46139761487));
#205 = CARTESIAN_POINT('',(213.19021741189,99.757113568063,
    166.00997766616));
#206 = CARTESIAN_POINT('',(213.46877937717,99.35827947892,
    165.75236067929));
#207 = CARTESIAN_POINT('',(213.75402264588,98.975797435831,
    165.48938473167));
#208 = CARTESIAN_POINT('',(214.04521558029,98.608967506434,
    165.22184806542));
#209 = CARTESIAN_POINT('',(214.34177730639,98.257083247868,
    164.95041588659));
#210 = CARTESIAN_POINT('',(214.64327132274,97.919442379176,
    164.67563086642));
#211 = CARTESIAN_POINT('',(214.9494002732,97.595357300914,
    164.39792497723));
#212 = CARTESIAN_POINT('',(215.72461493059,96.81866952275,
    163.69835774024));
#213 = CARTESIAN_POINT('',(216.19918670813,96.38207208013,
    163.27333977201));
#214 = CARTESIAN_POINT('',(216.68253474085,95.972782820354,
    162.84427577198));
#215 = CARTESIAN_POINT('',(217.17388785657,95.589302690641,
    162.41258674896));
#216 = CARTESIAN_POINT('',(217.67286363041,95.23024873584,
    161.97950094961));
#217 = CARTESIAN_POINT('',(218.1794237024,94.894396093396,161.5461577111
    ));
#218 = CARTESIAN_POINT('',(218.69383847551,94.580720844786,
    161.1137765279));
#219 = CARTESIAN_POINT('',(219.87833572901,93.918546303021,
    160.13999650585));
#220 = CARTESIAN_POINT('',(220.53929128197,93.590843164426,
    159.61180146288));
#221 = CARTESIAN_POINT('',(221.2112644545,93.294698260032,159.092764322)
  );
#222 = CARTESIAN_POINT('',(221.90388400778,93.025986200532,
    158.58036258445));
#223 = CARTESIAN_POINT('',(222.6226070854,92.785246395322,
    158.07894319299));
#224 = CARTESIAN_POINT('',(223.36752415661,92.575993332645,
    157.60179558869));
#225 = CARTESIAN_POINT('',(224.13633539242,92.40110793847,
    157.17117654667));
#226 = CARTESIAN_POINT('',(225.07597988193,92.238467667551,
    156.74780914474));
#227 = CARTESIAN_POINT('',(225.22309927912,92.21441592842,
    156.68436857009));
#228 = CARTESIAN_POINT('',(225.37141004985,92.191604009155,156.623429806
    ));
#229 = CARTESIAN_POINT('',(225.52089395345,92.170067427234,
    156.56520002252));
#230 = CARTESIAN_POINT('',(225.67154286542,92.149839925607,
    156.50988770633));
#231 = CARTESIAN_POINT('',(225.82335878914,92.13095439811,
    156.45770245005));
#232 = CARTESIAN_POINT('',(225.97635386762,92.113443814872,
    156.40885474154));
#233 = CARTESIAN_POINT('',(226.35730839063,92.073663392974,
    156.29694006521));
#234 = CARTESIAN_POINT('',(226.58713864061,92.052982044213,
    156.23785949596));
#235 = CARTESIAN_POINT('',(226.81933790817,92.035511496314,
    156.18727377782));
#236 = CARTESIAN_POINT('',(227.05335306736,92.021395943626,
    156.14596159996));
#237 = CARTESIAN_POINT('',(227.28874968769,92.010732265109,
    156.11452142784));
#238 = CARTESIAN_POINT('',(227.52518045016,92.003585798,156.09337343265)
  );
#239 = CARTESIAN_POINT('',(227.76235339481,92.,156.08276253029));
#240 = CARTESIAN_POINT('',(228.22196923969,92.,156.08276253029));
#241 = CARTESIAN_POINT('',(228.44359062944,92.003128292287,
    156.0920196383));
#242 = CARTESIAN_POINT('',(228.66461880661,92.009367645688,
    156.11048320372));
#243 = CARTESIAN_POINT('',(228.88479191801,92.01868473157,
    156.13796619279));
#244 = CARTESIAN_POINT('',(229.10380754089,92.031027811318,
    156.17414218434));
#245 = CARTESIAN_POINT('',(229.32129870274,92.046320081472,
    156.21854314616));
#246 = CARTESIAN_POINT('',(229.5368099999,92.0644486765,156.27055799179)
  );
#247 = CARTESIAN_POINT('',(229.88403930159,92.098363339956,
    156.36654966178));
#248 = CARTESIAN_POINT('',(230.01743124218,92.112553029252,
    156.40643220263));
#249 = CARTESIAN_POINT('',(230.14995782121,92.1277961697,156.44894277232
    ));
#250 = CARTESIAN_POINT('',(230.28162005865,92.144070702102,
    156.49394287268));
#251 = CARTESIAN_POINT('',(230.41241181185,92.161354176934,
    156.5412923959));
#252 = CARTESIAN_POINT('',(230.54231977751,92.179623195811,
    156.59084974476));
#253 = CARTESIAN_POINT('',(230.67132349349,92.198852852953,
    156.64247195295));
#254 = CARTESIAN_POINT('',(231.39674624708,92.313061667082,
    156.94574862356));
#255 = CARTESIAN_POINT('',(231.97695150326,92.427911144862,
    157.23857171076));
#256 = CARTESIAN_POINT('',(232.54123295378,92.561892575424,
    157.56245247032));
#257 = CARTESIAN_POINT('',(233.08966864683,92.71359114845,
    157.90712192828));
#258 = CARTESIAN_POINT('',(233.62282701004,92.881640342618,
    158.2652551441));
#259 = CARTESIAN_POINT('',(234.14286269941,93.065420460652,
    158.63287395703));
#260 = CARTESIAN_POINT('',(234.65390218343,93.265846306218,
    159.00923782898));
#261 = CARTESIAN_POINT('',(235.37421511915,93.578227106207,
    159.55824858508));
#262 = CARTESIAN_POINT('',(235.58527485277,93.673472556795,
    159.72141746935));
#263 = CARTESIAN_POINT('',(235.794884427,93.77179573825,159.88556889223)
  );
#264 = CARTESIAN_POINT('',(236.0030848789,93.87321347953,160.05054508171
    ));
#265 = CARTESIAN_POINT('',(236.20992040275,93.977752198662,
    160.21621355905));
#266 = CARTESIAN_POINT('',(236.41543945297,94.085449807588,
    160.38246514033));
#267 = CARTESIAN_POINT('',(236.61969584698,94.196357617011,160.549211938
    ));
#268 = CARTESIAN_POINT('',(237.34420997839,94.603778131836,
    161.14570102841));
#269 = CARTESIAN_POINT('',(237.85727343342,94.918362986337,
    161.57744660214));
#270 = CARTESIAN_POINT('',(238.36251778122,95.255102263855,
    162.0100754808));
#271 = CARTESIAN_POINT('',(238.86020393884,95.615026958898,
    162.44238455648));
#272 = CARTESIAN_POINT('',(239.35028266228,95.999366087934,
    162.87324200498));
#273 = CARTESIAN_POINT('',(239.83236031548,96.409504313523,
    163.30142207899));
#274 = CARTESIAN_POINT('',(240.30565490889,96.84694038654,
    163.72550323897));
#275 = CARTESIAN_POINT('',(241.07775666334,97.624046906369,
    164.4225547059));
#276 = CARTESIAN_POINT('',(241.38209039251,97.947643314129,
    164.69873133305));
#277 = CARTESIAN_POINT('',(241.68180996292,98.284707822183,
    164.97198322045));
#278 = CARTESIAN_POINT('',(241.97661751122,98.635921266563,
    165.24188104762));
#279 = CARTESIAN_POINT('',(242.2660778879,99.001978603636,
    165.50788594699));
#280 = CARTESIAN_POINT('',(242.54961350616,99.383578559481,
    165.76933795119));
#281 = CARTESIAN_POINT('',(242.82649806487,99.781413132422,
    166.02544572963));
#282 = CARTESIAN_POINT('',(243.31313626236,100.53073324897,
    166.47681847988));
#283 = CARTESIAN_POINT('',(243.52559582562,100.87642916985,
    166.67434464233));
#284 = CARTESIAN_POINT('',(243.732788263,101.23365789158,166.86738973214
    ));
#285 = CARTESIAN_POINT('',(243.93419500866,101.60282273435,
    167.05541547059));
#286 = CARTESIAN_POINT('',(244.1292155883,101.98431082634,
    167.23780833521));
#287 = CARTESIAN_POINT('',(244.31716470425,102.37848677174,
    167.41387622507));
#288 = CARTESIAN_POINT('',(244.49726932051,102.78568631874,
    167.58284512607));
#289 = CARTESIAN_POINT('',(244.78497024083,103.49156484836,
    167.8531127915));
#290 = CARTESIAN_POINT('',(244.89729314548,103.78312393969,
    167.95873186842));
#291 = CARTESIAN_POINT('',(245.00530487904,104.08084872425,
    168.06038860837));
#292 = CARTESIAN_POINT('',(245.10867263162,104.3846904438,
    168.15775536221));
#293 = CARTESIAN_POINT('',(245.20706026929,104.69459015788,
    168.25050133681));
#294 = CARTESIAN_POINT('',(245.30012823725,105.01047874251,
    168.33829270153));
#295 = CARTESIAN_POINT('',(245.387533463,105.33227688888,168.42079269467
    ));
#296 = CARTESIAN_POINT('',(245.5945501149,106.16551924882,168.6162962832
    ));
#297 = CARTESIAN_POINT('',(245.70615609059,106.68620868221,
    168.72180082111));
#298 = CARTESIAN_POINT('',(245.80185718472,107.21975741663,
    168.81234654569));
#299 = CARTESIAN_POINT('',(245.88011263133,107.76390686903,
    168.88643475044));
#300 = CARTESIAN_POINT('',(245.93972882966,108.31635432958,
    168.94290100718));
#301 = CARTESIAN_POINT('',(245.97985834768,108.87476237358,
    168.98091842765));
#302 = CARTESIAN_POINT('',(246.,109.4367692148,169.));
#303 = CARTESIAN_POINT('',(246.,110.,169.));
#304 = ORIENTED_EDGE('',*,*,#305,.F.);
#305 = EDGE_CURVE('',#306,#180,#308,.T.);
#306 = VERTEX_POINT('',#307);
#307 = CARTESIAN_POINT('',(208.,110.,169.));
#308 = LINE('',#309,#310);
#309 = CARTESIAN_POINT('',(208.,110.,169.));
#310 = VECTOR('',#311,1.);
#311 = DIRECTION('',(1.,0.,0.));
#312 = ORIENTED_EDGE('',*,*,#313,.T.);
#313 = EDGE_CURVE('',#306,#306,#314,.T.);
#314 = CIRCLE('',#315,19.);
#315 = AXIS2_PLACEMENT_3D('',#316,#317,#318);
#316 = CARTESIAN_POINT('',(208.,110.,150.));
#317 = DIRECTION('',(1.,0.,-0.));
#318 = DIRECTION('',(0.,0.,1.));
#319 = ORIENTED_EDGE('',*,*,#305,.T.);
#320 = ORIENTED_EDGE('',*,*,#321,.F.);
#321 = EDGE_CURVE('',#172,#180,#322,.T.);
#322 = B_SPLINE_CURVE_WITH_KNOTS('',8,(#323,#324,#325,#326,#327,#328,
    #329,#330,#331,#332,#333,#334,#335,#336,#337,#338,#339,#340,#341,
    #342,#343,#344,#345,#346,#347,#348,#349,#350,#351,#352,#353,#354,
    #355,#356,#357,#358,#359,#360,#361,#362,#363,#364,#365,#366,#367,
    #368,#369,#370,#371,#372,#373,#374,#375,#376,#377,#378,#379,#380,
    #381,#382,#383,#384,#385,#386,#387,#388,#389,#390,#391,#392,#393,
    #394,#395,#396,#397,#398,#399,#400,#401,#402,#403,#404,#405,#406,
    #407,#408,#409,#410,#411,#412,#413,#414,#415,#416,#417,#418,#419,
    #420,#421,#422,#423,#424,#425,#426,#427,#428,#429,#430,#431,#432,
    #433,#434,#435,#436,#437,#438,#439,#440,#441,#442,#443),
  .UNSPECIFIED.,.F.,.F.,(9,7,7,7,7,7,7,7,7,7,7,7,7,7,7,7,7,9),(0.,
    5.64524269703E-02,9.361150140893E-02,0.146875461111,0.213772067373,
    0.313839274833,0.440468774984,0.463744773808,0.497973941788,
    0.529945037715,0.550101582849,0.644115456775,0.683469449669,
    0.784533871497,0.85188927829,0.906225286013,0.94309607621,1.),
  .UNSPECIFIED.);
#323 = CARTESIAN_POINT('',(246.,110.,169.));
#324 = CARTESIAN_POINT('',(246.,110.56527651678,169.));
#325 = CARTESIAN_POINT('',(245.97971176304,111.12929016931,
    168.9807795576));
#326 = CARTESIAN_POINT('',(245.93929454186,111.68965165196,
    168.94248957707));
#327 = CARTESIAN_POINT('',(245.87925770088,112.24398490933,
    168.88562499561));
#328 = CARTESIAN_POINT('',(245.80045959701,112.78993861154,
    168.8110233897));
#329 = CARTESIAN_POINT('',(245.70410754662,113.32519667131,
    168.71986263948));
#330 = CARTESIAN_POINT('',(245.59175887851,113.84748780257,168.613657651
    ));
#331 = CARTESIAN_POINT('',(245.38209835151,114.68839024681,
    168.41566164549));
#332 = CARTESIAN_POINT('',(245.29264103072,115.01612438223,
    168.33122760597));
#333 = CARTESIAN_POINT('',(245.19731824726,115.33770556273,
    168.24131365963));
#334 = CARTESIAN_POINT('',(245.09649279806,115.65305379283,
    168.14627597865));
#335 = CARTESIAN_POINT('',(244.9905232455,115.96210004157,
    168.04646715165));
#336 = CARTESIAN_POINT('',(244.87976402259,116.26478623831,
    167.94223606962));
#337 = CARTESIAN_POINT('',(244.7645655381,116.56106526836,
    167.83392781184));
#338 = CARTESIAN_POINT('',(244.47428173784,117.26635257246,
    167.56127883149));
#339 = CARTESIAN_POINT('',(244.29481360713,117.66872661395,
    167.39293548504));
#340 = CARTESIAN_POINT('',(244.10770448226,118.05832081175,
    167.21768425614));
#341 = CARTESIAN_POINT('',(243.91370127514,118.4354663381,
    167.03627346128));
#342 = CARTESIAN_POINT('',(243.71346600729,118.80052177694,
    166.84937218315));
#343 = CARTESIAN_POINT('',(243.50757860003,119.15386708183,
    166.65757348386));
#344 = CARTESIAN_POINT('',(243.29653966478,119.49589753394,
    166.4613976183));
#345 = CARTESIAN_POINT('',(242.8097825881,120.24288643193,
    166.00997766617));
#346 = CARTESIAN_POINT('',(242.53122062282,120.64172052107,
    165.75236067929));
#347 = CARTESIAN_POINT('',(242.2459773541,121.02420256417,
    165.48938473167));
#348 = CARTESIAN_POINT('',(241.9547844197,121.39103249357,
    165.22184806542));
#349 = CARTESIAN_POINT('',(241.6582226936,121.74291675213,
    164.95041588658));
#350 = CARTESIAN_POINT('',(241.35672867725,122.08055762082,
    164.67563086642));
#351 = CARTESIAN_POINT('',(241.0505997268,122.40464269908,
    164.39792497724));
#352 = CARTESIAN_POINT('',(240.27538507326,123.18133047338,
    163.69835774372));
#353 = CARTESIAN_POINT('',(239.80081328455,123.61792792772,
    163.27333976529));
#354 = CARTESIAN_POINT('',(239.31746525945,124.02721717722,
    162.84427577266));
#355 = CARTESIAN_POINT('',(238.82611215144,124.4106973034,
    162.41258675584));
#356 = CARTESIAN_POINT('',(238.3271363694,124.76975126645,
    161.97950094906));
#357 = CARTESIAN_POINT('',(237.82057628794,125.1056039113,
    161.54615770327));
#358 = CARTESIAN_POINT('',(237.30616153045,125.41927915187,
    161.11377653281));
#359 = CARTESIAN_POINT('',(236.12166427309,126.0814536958,
    160.13999650759));
#360 = CARTESIAN_POINT('',(235.46070870702,126.40915684044,
    159.61180145496));
#361 = CARTESIAN_POINT('',(234.78873557205,126.70530173015,
    159.0927643394));
#362 = CARTESIAN_POINT('',(234.09611595527,126.97401381107,
    158.58036256215));
#363 = CARTESIAN_POINT('',(233.3773929459,127.21475359628,
    158.07894321045));
#364 = CARTESIAN_POINT('',(232.63247582775,127.42400667084,
    157.60179558072));
#365 = CARTESIAN_POINT('',(231.86366461133,127.59889206088,
    157.17117654836));
#366 = CARTESIAN_POINT('',(230.92402011806,127.76153233244,
    156.74780914474));
#367 = CARTESIAN_POINT('',(230.77690072087,127.78558407158,
    156.68436857009));
#368 = CARTESIAN_POINT('',(230.62858995014,127.80839599084,156.623429806
    ));
#369 = CARTESIAN_POINT('',(230.47910604654,127.82993257276,
    156.56520002252));
#370 = CARTESIAN_POINT('',(230.32845713457,127.85016007439,
    156.50988770633));
#371 = CARTESIAN_POINT('',(230.17664121085,127.86904560189,
    156.45770245005));
#372 = CARTESIAN_POINT('',(230.02364613237,127.88655618512,
    156.40885474154));
#373 = CARTESIAN_POINT('',(229.64269160879,127.92633660708,
    156.29694006504));
#374 = CARTESIAN_POINT('',(229.41286135918,127.94701795579,
    156.23785949594));
#375 = CARTESIAN_POINT('',(229.18066209213,127.96448850365,
    156.18727377792));
#376 = CARTESIAN_POINT('',(228.94664693315,127.97860405634,
    156.14596160003));
#377 = CARTESIAN_POINT('',(228.71125031257,127.98926773489,
    156.11452142783));
#378 = CARTESIAN_POINT('',(228.4748195496,127.99641420201,156.0933734326
    ));
#379 = CARTESIAN_POINT('',(228.23764660463,128.,156.08276253029));
#380 = CARTESIAN_POINT('',(227.77803076026,128.,156.08276253029));
#381 = CARTESIAN_POINT('',(227.55640937057,127.99687170771,
    156.09201963831));
#382 = CARTESIAN_POINT('',(227.33538119343,127.99063235431,
    156.11048320372));
#383 = CARTESIAN_POINT('',(227.11520808199,127.98131526843,
    156.13796619278));
#384 = CARTESIAN_POINT('',(226.89619245907,127.96897218868,
    156.17414218435));
#385 = CARTESIAN_POINT('',(226.67870129722,127.95367991852,
    156.21854314617));
#386 = CARTESIAN_POINT('',(226.46319000012,127.9355513235,
    156.27055799178));
#387 = CARTESIAN_POINT('',(226.11596069841,127.90163666004,
    156.36654966178));
#388 = CARTESIAN_POINT('',(225.98256875781,127.88744697074,
    156.40643220263));
#389 = CARTESIAN_POINT('',(225.85004217878,127.8722038303,
    156.44894277232));
#390 = CARTESIAN_POINT('',(225.71837994134,127.85592929789,
    156.49394287268));
#391 = CARTESIAN_POINT('',(225.58758818814,127.83864582306,
    156.5412923959));
#392 = CARTESIAN_POINT('',(225.45768022248,127.82037680418,
    156.59084974476));
#393 = CARTESIAN_POINT('',(225.32867650651,127.80114714704,
    156.64247195295));
#394 = CARTESIAN_POINT('',(224.60325375289,127.68693833291,
    156.94574862357));
#395 = CARTESIAN_POINT('',(224.02304849673,127.57208885513,
    157.23857171076));
#396 = CARTESIAN_POINT('',(223.45876704626,127.43810742458,
    157.56245247029));
#397 = CARTESIAN_POINT('',(222.91033135313,127.28640885155,
    157.90712192829));
#398 = CARTESIAN_POINT('',(222.37717298989,127.11835965734,
    158.26525514415));
#399 = CARTESIAN_POINT('',(221.85713730067,126.93457953938,
    158.63287395696));
#400 = CARTESIAN_POINT('',(221.34609781652,126.73415369376,
    159.00923782901));
#401 = CARTESIAN_POINT('',(220.62578488084,126.42177289379,
    159.55824858509));
#402 = CARTESIAN_POINT('',(220.41472514722,126.3265274432,
    159.72141746935));
#403 = CARTESIAN_POINT('',(220.20511557299,126.22820426175,
    159.88556889223));
#404 = CARTESIAN_POINT('',(219.99691512109,126.12678652047,
    160.05054508171));
#405 = CARTESIAN_POINT('',(219.79007959724,126.02224780133,
    160.21621355905));
#406 = CARTESIAN_POINT('',(219.58456054702,125.91455019241,
    160.38246514033));
#407 = CARTESIAN_POINT('',(219.38030415301,125.80364238298,
    160.54921193799));
#408 = CARTESIAN_POINT('',(218.65579002728,125.39622187135,
    161.14570102374));
#409 = CARTESIAN_POINT('',(218.14272655735,125.08163700913,
    161.57744660963));
#410 = CARTESIAN_POINT('',(217.63748221865,124.74489773397,
    162.01007548128));
#411 = CARTESIAN_POINT('',(217.13979606883,124.38497304684,
    162.44238454988));
#412 = CARTESIAN_POINT('',(216.64971733795,124.00063391435,
    162.87324200437));
#413 = CARTESIAN_POINT('',(216.16763967746,123.59049567887,
    163.30142208547));
#414 = CARTESIAN_POINT('',(215.69434509481,123.15305961719,
    163.72550323563));
#415 = CARTESIAN_POINT('',(214.92224333666,122.37595309363,
    164.4225547059));
#416 = CARTESIAN_POINT('',(214.61790960749,122.05235668587,
    164.69873133305));
#417 = CARTESIAN_POINT('',(214.31819003707,121.71529217781,
    164.97198322045));
#418 = CARTESIAN_POINT('',(214.02338248877,121.36407873343,
    165.24188104762));
#419 = CARTESIAN_POINT('',(213.7339221121,120.99802139636,
    165.50788594699));
#420 = CARTESIAN_POINT('',(213.45038649383,120.61642144051,
    165.76933795119));
#421 = CARTESIAN_POINT('',(213.17350193513,120.21858686757,
    166.02544572963));
#422 = CARTESIAN_POINT('',(212.68686373379,119.4692667451,
    166.47681848345));
#423 = CARTESIAN_POINT('',(212.47440417637,119.12357083466,
    166.67434464046));
#424 = CARTESIAN_POINT('',(212.26721174073,118.76634211492,
    166.86738972866));
#425 = CARTESIAN_POINT('',(212.0658049915,118.39717726461,
    167.05541547045));
#426 = CARTESIAN_POINT('',(211.87078440813,118.01568916599,
    167.23780833855));
#427 = CARTESIAN_POINT('',(211.68283529354,117.62151322472,
    167.41387622711));
#428 = CARTESIAN_POINT('',(211.50273068289,117.21431368961,
    167.58284512287));
#429 = CARTESIAN_POINT('',(211.21502975916,116.50843515164,
    167.8531127915));
#430 = CARTESIAN_POINT('',(211.10270685451,116.2168760603,
    167.95873186842));
#431 = CARTESIAN_POINT('',(210.99469512095,115.91915127574,
    168.06038860837));
#432 = CARTESIAN_POINT('',(210.89132736837,115.6153095562,
    168.15775536221));
#433 = CARTESIAN_POINT('',(210.7929397307,115.30540984211,
    168.25050133681));
#434 = CARTESIAN_POINT('',(210.69987176274,114.98952125748,
    168.33829270153));
#435 = CARTESIAN_POINT('',(210.61246653699,114.66772311111,
    168.42079269467));
#436 = CARTESIAN_POINT('',(210.40544988509,113.83448075117,
    168.6162962832));
#437 = CARTESIAN_POINT('',(210.2938439094,113.31379131779,168.7218008211
    ));
#438 = CARTESIAN_POINT('',(210.19814281527,112.78024258337,
    168.81234654569));
#439 = CARTESIAN_POINT('',(210.11988736866,112.23609313096,
    168.88643475044));
#440 = CARTESIAN_POINT('',(210.06027117033,111.68364567041,
    168.94290100718));
#441 = CARTESIAN_POINT('',(210.02014165231,111.12523762641,
    168.98091842765));
#442 = CARTESIAN_POINT('',(210.,110.56323078519,169.));
#443 = CARTESIAN_POINT('',(210.,110.,169.));
#444 = ORIENTED_EDGE('',*,*,#171,.T.);
#445 = ORIENTED_EDGE('',*,*,#446,.F.);
#446 = EDGE_CURVE('',#87,#95,#447,.T.);
#447 = B_SPLINE_CURVE_WITH_KNOTS('',6,(#448,#449,#450,#451,#452,#453,
    #454,#455,#456,#457,#458,#459,#460,#461,#462,#463,#464,#465,#466,
    #467,#468,#469,#470,#471,#472,#473,#474,#475,#476,#477,#478,#479,
    #480,#481,#482,#483,#484,#485,#486,#487,#488,#489,#490,#491,#492,
    #493,#494,#495,#496,#497,#498,#499,#500,#501,#502,#503,#504,#505,
    #506,#507,#508,#509,#510,#511,#512,#513,#514,#515,#516,#517,#518,
    #519),.UNSPECIFIED.,.F.,.F.,(7,5,5,5,5,5,5,5,5,5,5,5,5,5,7),(0.,
    7.862075126341E-02,0.193588779489,0.2472326452,0.293991850201,
    0.334177430334,0.367161241591,0.50010532513,0.631552491872,
    0.664332662215,0.704176571753,0.750340077087,0.805279439185,
    0.871913841209,1.),.UNSPECIFIED.);
#448 = CARTESIAN_POINT('',(601.,110.,169.));
#449 = CARTESIAN_POINT('',(601.,110.35465038059,169.));
#450 = CARTESIAN_POINT('',(600.97843819597,110.7086540999,
    168.99205621029));
#451 = CARTESIAN_POINT('',(600.93546235947,111.05896083231,
    168.97622285361));
#452 = CARTESIAN_POINT('',(600.87195659695,111.40255261784,
    168.95298498124));
#453 = CARTESIAN_POINT('',(600.78953053441,111.73654460843,
    168.92324383345));
#454 = CARTESIAN_POINT('',(600.54581234423,112.52876296681,
    168.83691425017));
#455 = CARTESIAN_POINT('',(600.36575245307,112.97279413407,
    168.77429735377));
#456 = CARTESIAN_POINT('',(600.15579840011,113.38875298931,
    168.70333614381));
#457 = CARTESIAN_POINT('',(599.92083902612,113.77574491316,
    168.62701228966));
#458 = CARTESIAN_POINT('',(599.66537187552,114.13344333918,
    168.54801537224));
#459 = CARTESIAN_POINT('',(599.26678104709,114.61525688353,
    168.43161069821));
#460 = CARTESIAN_POINT('',(599.13624978995,114.76239792478,
    168.39444601348));
#461 = CARTESIAN_POINT('',(599.00231133986,114.90348747786,
    168.35735591212));
#462 = CARTESIAN_POINT('',(598.86524422355,115.03862267349,
    168.3205269535));
#463 = CARTESIAN_POINT('',(598.72529306325,115.1679013739,
    168.28412797061));
#464 = CARTESIAN_POINT('',(598.45834849903,115.39909034633,
    168.21709061756));
#465 = CARTESIAN_POINT('',(598.33199679913,115.50238409046,
    168.18631246448));
#466 = CARTESIAN_POINT('',(598.20375794783,115.60136378229,
    168.15607815397));
#467 = CARTESIAN_POINT('',(598.07376270455,115.69608668094,
    168.12648148179));
#468 = CARTESIAN_POINT('',(597.94212809791,115.78660695435,
    168.09760833726));
#469 = CARTESIAN_POINT('',(597.69450850142,115.94720229006,
    168.04541150918));
#470 = CARTESIAN_POINT('',(597.57892827569,116.01836064386,
    168.02187906618));
#471 = CARTESIAN_POINT('',(597.46228536914,116.086481057,167.99898965083
    ));
#472 = CARTESIAN_POINT('',(597.34464505853,116.15159084507,
    167.97679026164));
#473 = CARTESIAN_POINT('',(597.22606927677,116.21371432287,
    167.95532461906));
#474 = CARTESIAN_POINT('',(597.00857139122,116.32142933091,
    167.91764988446));
#475 = CARTESIAN_POINT('',(596.90993569306,116.3679883595,
    167.90118821034));
#476 = CARTESIAN_POINT('',(596.81074211725,116.41256165245,
    167.88527055735));
#477 = CARTESIAN_POINT('',(596.7110224478,116.45515978426,
    167.86991794158));
#478 = CARTESIAN_POINT('',(596.61080765409,116.49579214159,
    167.85514998093));
#479 = CARTESIAN_POINT('',(596.10432945964,116.69034895195,
    167.78389130045));
#480 = CARTESIAN_POINT('',(595.69083288666,116.81448515209,
    167.7365713718));
#481 = CARTESIAN_POINT('',(595.27180317476,116.90729991251,
    167.7002584607));
#482 = CARTESIAN_POINT('',(594.8491458147,116.96908985048,
    167.67577134718));
#483 = CARTESIAN_POINT('',(594.42462802636,117.,167.66352173265));
#484 = CARTESIAN_POINT('',(593.58015317794,117.,167.66352173265));
#485 = CARTESIAN_POINT('',(593.16041069054,116.96978201256,
    167.67549703888));
#486 = CARTESIAN_POINT('',(592.74246659568,116.90937445591,
    167.69943633795));
#487 = CARTESIAN_POINT('',(592.32803113494,116.81863924544,
    167.73494589269));
#488 = CARTESIAN_POINT('',(591.91894493288,116.69729403329,
    167.78124268519));
#489 = CARTESIAN_POINT('',(591.41712966541,116.50693915829,
    167.85108906475));
#490 = CARTESIAN_POINT('',(591.3174199614,116.46701181222,
    167.86562928746));
#491 = CARTESIAN_POINT('',(591.21819361358,116.4251445048,
    167.88075052839));
#492 = CARTESIAN_POINT('',(591.11948092246,116.38132818239,
    167.89643372484));
#493 = CARTESIAN_POINT('',(591.02131295976,116.33555264258,
    167.91265845097));
#494 = CARTESIAN_POINT('',(590.80510038584,116.22977170384,
    167.94975561928));
#495 = CARTESIAN_POINT('',(590.68733141608,116.16882553446,
    167.97087613474));
#496 = CARTESIAN_POINT('',(590.57047149983,116.10494760602,
    167.99272542174));
#497 = CARTESIAN_POINT('',(590.45458061765,116.03811460884,
    168.01526128711));
#498 = CARTESIAN_POINT('',(590.33972188991,115.96830034358,
    168.03843838694));
#499 = CARTESIAN_POINT('',(590.09415787377,115.81110047099,
    168.08974817258));
#500 = CARTESIAN_POINT('',(589.963832841,115.72268668339,168.11808282481
    ));
#501 = CARTESIAN_POINT('',(589.83508491639,115.63018598095,
    168.14713791885));
#502 = CARTESIAN_POINT('',(589.70802532693,115.53354697561,
    168.17683176599));
#503 = CARTESIAN_POINT('',(589.58277808868,115.43271526877,
    168.20707525324));
#504 = CARTESIAN_POINT('',(589.3127424937,115.20257518329,
    168.27430397112));
#505 = CARTESIAN_POINT('',(589.16876553171,115.07149721185,
    168.31147772714));
#506 = CARTESIAN_POINT('',(589.02777071219,114.93429409265,
    168.34913235656));
#507 = CARTESIAN_POINT('',(588.89001656177,114.79086082587,
    168.38708876132));
#508 = CARTESIAN_POINT('',(588.75579852139,114.64109281269,
    168.4251485179));
#509 = CARTESIAN_POINT('',(588.4673515784,114.2954267484,168.50911455957
    ));
#510 = CARTESIAN_POINT('',(588.31490387597,114.09644657015,
    168.55497835816));
#511 = CARTESIAN_POINT('',(588.16876504384,113.88781941908,
    168.60027712423));
#512 = CARTESIAN_POINT('',(588.02967393115,113.66945931951,
    168.64455450716));
#513 = CARTESIAN_POINT('',(587.89845061978,113.44132160824,
    168.68731030205));
#514 = CARTESIAN_POINT('',(587.54061689571,112.74607444346,
    168.80623154911));
#515 = CARTESIAN_POINT('',(587.33501380994,112.24750064179,
    168.87771799201));
#516 = CARTESIAN_POINT('',(587.17122967638,111.71441212494,
    168.93691284945));
#517 = CARTESIAN_POINT('',(587.05777901475,111.15546812102,
    168.97871370112));
#518 = CARTESIAN_POINT('',(587.,110.58055206344,169.));
#519 = CARTESIAN_POINT('',(587.,110.,169.));
#520 = ORIENTED_EDGE('',*,*,#86,.T.);
#521 = ORIENTED_EDGE('',*,*,#522,.F.);
#522 = EDGE_CURVE('',#22,#32,#523,.T.);
#523 = B_SPLINE_CURVE_WITH_KNOTS('',7,(#524,#525,#526,#527,#528,#529,
    #530,#531,#532,#533,#534,#535,#536,#537,#538,#539,#540,#541,#542,
    #543,#544,#545,#546,#547,#548,#549,#550,#551,#552,#553,#554,#555,
    #556,#557,#558,#559,#560,#561,#562,#563,#564,#565,#566,#567,#568,
    #569,#570,#571,#572,#573),.UNSPECIFIED.,.F.,.F.,(8,6,6,6,6,6,6,6,8),
  (0.,8.320673605416E-02,0.206985413905,0.316327693676,0.500241062566,
    0.642670738044,0.733417596796,0.865340284645,1.),.UNSPECIFIED.);
#524 = CARTESIAN_POINT('',(624.,110.,169.));
#525 = CARTESIAN_POINT('',(624.,110.2744610851,169.));
#526 = CARTESIAN_POINT('',(623.98535267712,110.54847681821,
    168.99537456123));
#527 = CARTESIAN_POINT('',(623.95614380285,110.82036176327,
    168.98615060014));
#528 = CARTESIAN_POINT('',(623.91277268647,111.08844608583,
    168.97251863343));
#529 = CARTESIAN_POINT('',(623.85594838622,111.35110768175,
    168.95482818206));
#530 = CARTESIAN_POINT('',(623.78669115178,111.60680377242,
    168.93356611963));
#531 = CARTESIAN_POINT('',(623.58680705649,112.22198376185,
    168.87324631169));
#532 = CARTESIAN_POINT('',(623.44275705866,112.5711760082,
    168.83057685796));
#533 = CARTESIAN_POINT('',(623.27739649893,112.90073620647,
    168.78287660406));
#534 = CARTESIAN_POINT('',(623.09367555295,113.21006681633,
    168.73169609251));
#535 = CARTESIAN_POINT('',(622.89433177122,113.49886076639,
    168.67848543965));
#536 = CARTESIAN_POINT('',(622.68192590337,113.76705379739,
    168.62454144326));
#537 = CARTESIAN_POINT('',(622.26182729826,114.23362056569,
    168.52367632759));
#538 = CARTESIAN_POINT('',(622.05601059806,114.43700450719,
    168.47655826675));
#539 = CARTESIAN_POINT('',(621.84264555413,114.62530135314,
    168.43032017645));
#540 = CARTESIAN_POINT('',(621.62275550715,114.7988915453,
    168.38554656178));
#541 = CARTESIAN_POINT('',(621.39718944195,114.95814775084,
    168.34273153612));
#542 = CARTESIAN_POINT('',(621.16665099285,115.10341253643,
    168.30229251698));
#543 = CARTESIAN_POINT('',(620.53658679089,115.45626544359,
    168.20115818381));
#544 = CARTESIAN_POINT('',(620.12891520976,115.63886291355,
    168.14543735031));
#545 = CARTESIAN_POINT('',(619.7119791264,115.78383482889,
    168.09919721151));
#546 = CARTESIAN_POINT('',(619.28842989593,115.89201746932,
    168.06369494545));
#547 = CARTESIAN_POINT('',(618.86053968151,115.96398245414,
    168.03974380684));
#548 = CARTESIAN_POINT('',(618.43038815148,116.,168.02775637732));
#549 = CARTESIAN_POINT('',(617.66669065378,116.,168.02775637732));
#550 = CARTESIAN_POINT('',(617.33344618879,115.97839809657,
    168.03494592854));
#551 = CARTESIAN_POINT('',(617.00124991951,115.93520980656,
    168.04931984387));
#552 = CARTESIAN_POINT('',(616.67109402714,115.87034192625,
    168.07072808639));
#553 = CARTESIAN_POINT('',(616.34402585285,115.78360207593,
    168.09887293547));
#554 = CARTESIAN_POINT('',(616.02119473725,115.67470522462,
    168.13330088593));
#555 = CARTESIAN_POINT('',(615.50173960639,115.45953986438,
    168.19893097926));
#556 = CARTESIAN_POINT('',(615.30182105783,115.36665369822,
    168.22677127135));
#557 = CARTESIAN_POINT('',(615.10443320151,115.26450149129,
    168.25675519743));
#558 = CARTESIAN_POINT('',(614.90990146291,115.15294138046,
    168.2887024345));
#559 = CARTESIAN_POINT('',(614.71859651141,115.03181136457,
    168.32240322991));
#560 = CARTESIAN_POINT('',(614.53094352016,114.90093382426,
    168.35761433545));
#561 = CARTESIAN_POINT('',(614.08065184751,114.55541287137,
    168.44703024825));
#562 = CARTESIAN_POINT('',(613.8224647212,114.32958439029,
    168.50263573335));
#563 = CARTESIAN_POINT('',(613.57439756109,114.08201658898,
    168.56001137331));
#564 = CARTESIAN_POINT('',(613.33831464152,113.81206805487,
    168.61812023694));
#565 = CARTESIAN_POINT('',(613.11648272519,113.51915570012,
    168.67570186239));
#566 = CARTESIAN_POINT('',(612.91164415703,113.20284554569,
    168.73125707566));
#567 = CARTESIAN_POINT('',(612.53872165941,112.51600774682,
    168.83594627915));
#568 = CARTESIAN_POINT('',(612.36977932981,112.14134289772,
    168.88540314574));
#569 = CARTESIAN_POINT('',(612.22690080137,111.74242902958,
    168.92879624725));
#570 = CARTESIAN_POINT('',(612.11529654391,111.32361042871,
    168.96359089827));
#571 = CARTESIAN_POINT('',(612.03882010833,110.88991411239,
    168.98774093826));
#572 = CARTESIAN_POINT('',(612.,110.44681844292,169.));
#573 = CARTESIAN_POINT('',(612.,110.,169.));
#574 = ORIENTED_EDGE('',*,*,#21,.T.);
#575 = ORIENTED_EDGE('',*,*,#576,.F.);
#576 = EDGE_CURVE('',#24,#24,#577,.T.);
#577 = CIRCLE('',#578,19.);
#578 = AXIS2_PLACEMENT_3D('',#579,#580,#581);
#579 = CARTESIAN_POINT('',(646.,110.,150.));
#580 = DIRECTION('',(1.,0.,-0.));
#581 = DIRECTION('',(0.,0.,1.));
#582 = CYLINDRICAL_SURFACE('',#583,19.);
#583 = AXIS2_PLACEMENT_3D('',#584,#585,#586);
#584 = CARTESIAN_POINT('',(208.,110.,150.));
#585 = DIRECTION('',(1.,0.,0.));
#586 = DIRECTION('',(0.,0.,1.));
#587 = ADVANCED_FACE('',(#588,#591),#602,.T.);
#588 = FACE_BOUND('',#589,.T.);
#589 = EDGE_LOOP('',(#590));
#590 = ORIENTED_EDGE('',*,*,#576,.T.);
#591 = FACE_BOUND('',#592,.T.);
#592 = EDGE_LOOP('',(#593));
#593 = ORIENTED_EDGE('',*,*,#594,.F.);
#594 = EDGE_CURVE('',#595,#595,#597,.T.);
#595 = VERTEX_POINT('',#596);
#596 = CARTESIAN_POINT('',(646.,110.,159.1));
#597 = CIRCLE('',#598,9.1);
#598 = AXIS2_PLACEMENT_3D('',#599,#600,#601);
#599 = CARTESIAN_POINT('',(646.,110.,150.));
#600 = DIRECTION('',(1.,0.,-0.));
#601 = DIRECTION('',(0.,0.,1.));
#602 = PLANE('',#603);
#603 = AXIS2_PLACEMENT_3D('',#604,#605,#606);
#604 = CARTESIAN_POINT('',(646.,110.,150.));
#605 = DIRECTION('',(1.,0.,0.));
#606 = DIRECTION('',(0.,0.,1.));
#607 = ADVANCED_FACE('',(#608),#628,.T.);
#608 = FACE_BOUND('',#609,.T.);
#609 = EDGE_LOOP('',(#610,#618,#625,#626,#627));
#610 = ORIENTED_EDGE('',*,*,#611,.T.);
#611 = EDGE_CURVE('',#22,#612,#614,.T.);
#612 = VERTEX_POINT('',#613);
#613 = CARTESIAN_POINT('',(624.,110.,185.));
#614 = LINE('',#615,#616);
#615 = CARTESIAN_POINT('',(624.,110.,150.));
#616 = VECTOR('',#617,1.);
#617 = DIRECTION('',(0.,0.,1.));
#618 = ORIENTED_EDGE('',*,*,#619,.F.);
#619 = EDGE_CURVE('',#612,#612,#620,.T.);
#620 = CIRCLE('',#621,6.);
#621 = AXIS2_PLACEMENT_3D('',#622,#623,#624);
#622 = CARTESIAN_POINT('',(618.,110.,185.));
#623 = DIRECTION('',(0.,0.,1.));
#624 = DIRECTION('',(1.,0.,0.));
#625 = ORIENTED_EDGE('',*,*,#611,.F.);
#626 = ORIENTED_EDGE('',*,*,#522,.T.);
#627 = ORIENTED_EDGE('',*,*,#31,.T.);
#628 = CYLINDRICAL_SURFACE('',#629,6.);
#629 = AXIS2_PLACEMENT_3D('',#630,#631,#632);
#630 = CARTESIAN_POINT('',(618.,110.,150.));
#631 = DIRECTION('',(0.,0.,1.));
#632 = DIRECTION('',(1.,0.,0.));
#633 = ADVANCED_FACE('',(#634),#654,.T.);
#634 = FACE_BOUND('',#635,.T.);
#635 = EDGE_LOOP('',(#636,#644,#651,#652,#653));
#636 = ORIENTED_EDGE('',*,*,#637,.T.);
#637 = EDGE_CURVE('',#87,#638,#640,.T.);
#638 = VERTEX_POINT('',#639);
#639 = CARTESIAN_POINT('',(601.,110.,185.));
#640 = LINE('',#641,#642);
#641 = CARTESIAN_POINT('',(601.,110.,150.));
#642 = VECTOR('',#643,1.);
#643 = DIRECTION('',(0.,0.,1.));
#644 = ORIENTED_EDGE('',*,*,#645,.F.);
#645 = EDGE_CURVE('',#638,#638,#646,.T.);
#646 = CIRCLE('',#647,7.);
#647 = AXIS2_PLACEMENT_3D('',#648,#649,#650);
#648 = CARTESIAN_POINT('',(594.,110.,185.));
#649 = DIRECTION('',(0.,0.,1.));
#650 = DIRECTION('',(1.,0.,0.));
#651 = ORIENTED_EDGE('',*,*,#637,.F.);
#652 = ORIENTED_EDGE('',*,*,#446,.T.);
#653 = ORIENTED_EDGE('',*,*,#94,.T.);
#654 = CYLINDRICAL_SURFACE('',#655,7.);
#655 = AXIS2_PLACEMENT_3D('',#656,#657,#658);
#656 = CARTESIAN_POINT('',(594.,110.,150.));
#657 = DIRECTION('',(0.,0.,1.));
#658 = DIRECTION('',(1.,0.,0.));
#659 = ADVANCED_FACE('',(#660),#680,.T.);
#660 = FACE_BOUND('',#661,.T.);
#661 = EDGE_LOOP('',(#662,#670,#677,#678,#679));
#662 = ORIENTED_EDGE('',*,*,#663,.T.);
#663 = EDGE_CURVE('',#172,#664,#666,.T.);
#664 = VERTEX_POINT('',#665);
#665 = CARTESIAN_POINT('',(246.,110.,236.));
#666 = LINE('',#667,#668);
#667 = CARTESIAN_POINT('',(246.,110.,150.));
#668 = VECTOR('',#669,1.);
#669 = DIRECTION('',(0.,0.,1.));
#670 = ORIENTED_EDGE('',*,*,#671,.F.);
#671 = EDGE_CURVE('',#664,#664,#672,.T.);
#672 = CIRCLE('',#673,18.);
#673 = AXIS2_PLACEMENT_3D('',#674,#675,#676);
#674 = CARTESIAN_POINT('',(228.,110.,236.));
#675 = DIRECTION('',(0.,0.,1.));
#676 = DIRECTION('',(1.,0.,0.));
#677 = ORIENTED_EDGE('',*,*,#663,.F.);
#678 = ORIENTED_EDGE('',*,*,#321,.T.);
#679 = ORIENTED_EDGE('',*,*,#179,.T.);
#680 = CYLINDRICAL_SURFACE('',#681,18.);
#681 = AXIS2_PLACEMENT_3D('',#682,#683,#684);
#682 = CARTESIAN_POINT('',(228.,110.,150.));
#683 = DIRECTION('',(0.,0.,1.));
#684 = DIRECTION('',(1.,0.,0.));
#685 = ADVANCED_FACE('',(#686,#689),#700,.F.);
#686 = FACE_BOUND('',#687,.F.);
#687 = EDGE_LOOP('',(#688));
#688 = ORIENTED_EDGE('',*,*,#313,.T.);
#689 = FACE_BOUND('',#690,.F.);
#690 = EDGE_LOOP('',(#691));
#691 = ORIENTED_EDGE('',*,*,#692,.F.);
#692 = EDGE_CURVE('',#693,#693,#695,.T.);
#693 = VERTEX_POINT('',#694);
#694 = CARTESIAN_POINT('',(208.,110.,159.1));
#695 = CIRCLE('',#696,9.1);
#696 = AXIS2_PLACEMENT_3D('',#697,#698,#699);
#697 = CARTESIAN_POINT('',(208.,110.,150.));
#698 = DIRECTION('',(1.,0.,-0.));
#699 = DIRECTION('',(0.,0.,1.));
#700 = PLANE('',#701);
#701 = AXIS2_PLACEMENT_3D('',#702,#703,#704);
#702 = CARTESIAN_POINT('',(208.,110.,150.));
#703 = DIRECTION('',(1.,0.,0.));
#704 = DIRECTION('',(0.,0.,1.));
#705 = ADVANCED_FACE('',(#706),#1068,.F.);
#706 = FACE_BOUND('',#707,.F.);
#707 = EDGE_LOOP('',(#708,#741,#747,#748,#749,#778,#786,#828,#836,#878,
    #886,#928,#934,#935,#936,#978,#986,#1026,#1027,#1067));
#708 = ORIENTED_EDGE('',*,*,#709,.F.);
#709 = EDGE_CURVE('',#710,#712,#714,.T.);
#710 = VERTEX_POINT('',#711);
#711 = CARTESIAN_POINT('',(620.,110.,159.1));
#712 = VERTEX_POINT('',#713);
#713 = CARTESIAN_POINT('',(616.,110.,159.1));
#714 = B_SPLINE_CURVE_WITH_KNOTS('',7,(#715,#716,#717,#718,#719,#720,
    #721,#722,#723,#724,#725,#726,#727,#728,#729,#730,#731,#732,#733,
    #734,#735,#736,#737,#738,#739,#740),.UNSPECIFIED.,.F.,.F.,(8,6,6,6,8
    ),(0.,0.235989170466,0.500007525423,0.764044337761,1.),
  .UNSPECIFIED.);
#715 = CARTESIAN_POINT('',(620.,110.,159.1));
#716 = CARTESIAN_POINT('',(620.,110.2547342686,159.1));
#717 = CARTESIAN_POINT('',(619.96214814341,110.5029563203,
    159.09168052291));
#718 = CARTESIAN_POINT('',(619.88992537801,110.73811610009,
    159.07580944712));
#719 = CARTESIAN_POINT('',(619.78801761251,110.9546853791,159.0543505623
    ));
#720 = CARTESIAN_POINT('',(619.66231501151,111.14832879827,
    159.03002853678));
#721 = CARTESIAN_POINT('',(619.51992055893,111.31630188741,
    159.00543937861));
#722 = CARTESIAN_POINT('',(619.20035373974,111.61639510542,
    158.95673139218));
#723 = CARTESIAN_POINT('',(619.0163995315,111.74626315168,
    158.93230538169));
#724 = CARTESIAN_POINT('',(618.82212749971,111.84859153617,
    158.91113639247));
#725 = CARTESIAN_POINT('',(618.62096175827,111.92448535561,
    158.89451238549));
#726 = CARTESIAN_POINT('',(618.41549280781,111.97479954457,
    158.88317699188));
#727 = CARTESIAN_POINT('',(618.2078500577,112.,158.87749964798));
#728 = CARTESIAN_POINT('',(617.7921354116,112.,158.87749964798));
#729 = CARTESIAN_POINT('',(617.58449380439,111.97479607402,
    158.88317776828));
#730 = CARTESIAN_POINT('',(617.37903272608,111.92448152092,
    158.89451326535));
#731 = CARTESIAN_POINT('',(617.17787433296,111.8485909034,158.9111363795
    ));
#732 = CARTESIAN_POINT('',(616.98360482669,111.74626589752,
    158.93230483545));
#733 = CARTESIAN_POINT('',(616.79964881496,111.61639750445,
    158.95673100279));
#734 = CARTESIAN_POINT('',(616.48010911592,111.31632975396,
    159.00543485561));
#735 = CARTESIAN_POINT('',(616.33770168189,111.14835798718,
    159.03002485197));
#736 = CARTESIAN_POINT('',(616.21197340546,110.95468927412,
    159.05435160984));
#737 = CARTESIAN_POINT('',(616.11005028191,110.73808002135,
    159.07581478233));
#738 = CARTESIAN_POINT('',(616.03783304027,110.50288803738,
    159.09168466561));
#739 = CARTESIAN_POINT('',(616.,110.25467095859,159.1));
#740 = CARTESIAN_POINT('',(616.,110.,159.1));
#741 = ORIENTED_EDGE('',*,*,#742,.T.);
#742 = EDGE_CURVE('',#710,#595,#743,.T.);
#743 = LINE('',#744,#745);
#744 = CARTESIAN_POINT('',(207.,110.,159.1));
#745 = VECTOR('',#746,1.);
#746 = DIRECTION('',(1.,0.,0.));
#747 = ORIENTED_EDGE('',*,*,#594,.F.);
#748 = ORIENTED_EDGE('',*,*,#742,.F.);
#749 = ORIENTED_EDGE('',*,*,#750,.F.);
#750 = EDGE_CURVE('',#712,#710,#751,.T.);
#751 = B_SPLINE_CURVE_WITH_KNOTS('',7,(#752,#753,#754,#755,#756,#757,
    #758,#759,#760,#761,#762,#763,#764,#765,#766,#767,#768,#769,#770,
    #771,#772,#773,#774,#775,#776,#777),.UNSPECIFIED.,.F.,.F.,(8,6,6,6,8
    ),(0.,0.236011154683,0.500048237047,0.764085307896,1.),
  .UNSPECIFIED.);
#752 = CARTESIAN_POINT('',(616.,110.,159.1));
#753 = CARTESIAN_POINT('',(616.,109.74526573139,159.1));
#754 = CARTESIAN_POINT('',(616.03785185658,109.49704367969,
    159.09168052291));
#755 = CARTESIAN_POINT('',(616.11007462198,109.2618838999,
    159.07580944712));
#756 = CARTESIAN_POINT('',(616.21198238748,109.04531462089,
    159.0543505623));
#757 = CARTESIAN_POINT('',(616.33768498848,108.85167120172,
    159.03002853678));
#758 = CARTESIAN_POINT('',(616.48007944106,108.68369811258,
    159.00543937861));
#759 = CARTESIAN_POINT('',(616.79964251026,108.38360841605,
    158.95673196375));
#760 = CARTESIAN_POINT('',(616.98360152767,108.25373399062,
    158.93230506496));
#761 = CARTESIAN_POINT('',(617.17787857627,108.15140568544,
    158.91113560004));
#762 = CARTESIAN_POINT('',(617.37904040868,108.07551629211,
    158.89451277486));
#763 = CARTESIAN_POINT('',(617.58449869885,108.02520395208,
    158.88317777448));
#764 = CARTESIAN_POINT('',(617.79213540254,108.,158.87749964798));
#765 = CARTESIAN_POINT('',(618.20786458839,108.,158.87749964798));
#766 = CARTESIAN_POINT('',(618.4155061956,108.02520392597,
    158.88317776828));
#767 = CARTESIAN_POINT('',(618.62096727391,108.07551847907,
    158.89451326535));
#768 = CARTESIAN_POINT('',(618.82212566703,108.1514090966,158.9111363795
    ));
#769 = CARTESIAN_POINT('',(619.01639517331,108.25373410247,
    158.93230483545));
#770 = CARTESIAN_POINT('',(619.20035118503,108.38360249554,
    158.95673100279));
#771 = CARTESIAN_POINT('',(619.51986455289,108.68364551941,
    159.00543084224));
#772 = CARTESIAN_POINT('',(619.66229211391,108.85162422637,
    159.03002289391));
#773 = CARTESIAN_POINT('',(619.78804304643,109.04532219543,
    159.05435444269));
#774 = CARTESIAN_POINT('',(619.88997317035,109.2619642853,
    159.07581997491));
#775 = CARTESIAN_POINT('',(619.9621814145,109.49717324526,159.0916878303
    ));
#776 = CARTESIAN_POINT('',(620.,109.7453776845,159.1));
#777 = CARTESIAN_POINT('',(620.,110.,159.1));
#778 = ORIENTED_EDGE('',*,*,#779,.F.);
#779 = EDGE_CURVE('',#780,#712,#782,.T.);
#780 = VERTEX_POINT('',#781);
#781 = CARTESIAN_POINT('',(597.,110.,159.1));
#782 = LINE('',#783,#784);
#783 = CARTESIAN_POINT('',(207.,110.,159.1));
#784 = VECTOR('',#785,1.);
#785 = DIRECTION('',(1.,0.,0.));
#786 = ORIENTED_EDGE('',*,*,#787,.F.);
#787 = EDGE_CURVE('',#788,#780,#790,.T.);
#788 = VERTEX_POINT('',#789);
#789 = CARTESIAN_POINT('',(591.,110.,159.1));
#790 = B_SPLINE_CURVE_WITH_KNOTS('',8,(#791,#792,#793,#794,#795,#796,
    #797,#798,#799,#800,#801,#802,#803,#804,#805,#806,#807,#808,#809,
    #810,#811,#812,#813,#814,#815,#816,#817,#818,#819,#820,#821,#822,
    #823,#824,#825,#826,#827),.UNSPECIFIED.,.F.,.F.,(9,7,7,7,7,9),(0.,
    0.207704587536,0.358805018537,0.500864840807,0.733861719395,1.),
  .UNSPECIFIED.);
#791 = CARTESIAN_POINT('',(591.,110.,159.1));
#792 = CARTESIAN_POINT('',(591.,109.69972942163,159.1));
#793 = CARTESIAN_POINT('',(591.03434723633,109.40595031599,
    159.08867624424));
#794 = CARTESIAN_POINT('',(591.10044487417,109.12318963065,
    159.06688779087));
#795 = CARTESIAN_POINT('',(591.19506967211,108.85546468005,
    159.03633667537));
#796 = CARTESIAN_POINT('',(591.31434313665,108.60622201412,
    158.99936136217));
#797 = CARTESIAN_POINT('',(591.45369051053,108.37822128782,
    158.95861941577));
#798 = CARTESIAN_POINT('',(591.60779635962,108.17338165142,
    158.91671553835));
#799 = CARTESIAN_POINT('',(591.88897644129,107.8610995338,
    158.84608862357));
#800 = CARTESIAN_POINT('',(592.01376916582,107.74033165797,
    158.81643447874));
#801 = CARTESIAN_POINT('',(592.14397255014,107.63007570995,
    158.78745497193));
#802 = CARTESIAN_POINT('',(592.27877363144,107.53008781262,
    158.75965028308));
#803 = CARTESIAN_POINT('',(592.41749436613,107.44012654173,
    158.73344244294));
#804 = CARTESIAN_POINT('',(592.55956909429,107.35996931055,
    158.70918425115));
#805 = CARTESIAN_POINT('',(592.70452273362,107.2894276526,
    158.68716915586));
#806 = CARTESIAN_POINT('',(592.99055585322,107.17094885517,
    158.64928337281));
#807 = CARTESIAN_POINT('',(593.13132130164,107.1219227139,
    158.63312738711));
#808 = CARTESIAN_POINT('',(593.27383197716,107.08119184612,
    158.6193855892));
#809 = CARTESIAN_POINT('',(593.41770771083,107.04868145128,
    158.60822556529));
#810 = CARTESIAN_POINT('',(593.56259429969,107.02433448564,
    158.59977201838));
#811 = CARTESIAN_POINT('',(593.70815557068,107.00811308709,
    158.59410775026));
#812 = CARTESIAN_POINT('',(593.85406544459,107.,158.59127464349));
#813 = CARTESIAN_POINT('',(594.23935195289,107.,158.59127464349));
#814 = CARTESIAN_POINT('',(594.47841892181,107.02182425387,
    158.59889550921));
#815 = CARTESIAN_POINT('',(594.7159134524,107.06538340965,
    158.61410590513));
#816 = CARTESIAN_POINT('',(594.95050231359,107.13081413366,
    158.63660560477));
#817 = CARTESIAN_POINT('',(595.18072345369,107.21844408025,
    158.6658189061));
#818 = CARTESIAN_POINT('',(595.40488413688,107.32875953694,
    158.70086926145));
#819 = CARTESIAN_POINT('',(595.62093118968,107.46236700546,
    158.74054181431));
#820 = CARTESIAN_POINT('',(596.06084674372,107.79992608251,
    158.83201270831));
#821 = CARTESIAN_POINT('',(596.28820356406,108.01635769363,
    158.88613621925));
#822 = CARTESIAN_POINT('',(596.49876679578,108.27006279754,
    158.94272823527));
#823 = CARTESIAN_POINT('',(596.68351164025,108.55989461882,
    158.99750485505));
#824 = CARTESIAN_POINT('',(596.83395620886,108.88298311679,
    159.04526069212));
#825 = CARTESIAN_POINT('',(596.94203544278,109.23494891624,
    159.08089072942));
#826 = CARTESIAN_POINT('',(597.,109.60992645541,159.1));
#827 = CARTESIAN_POINT('',(597.,110.,159.1));
#828 = ORIENTED_EDGE('',*,*,#829,.F.);
#829 = EDGE_CURVE('',#830,#788,#832,.T.);
#830 = VERTEX_POINT('',#831);
#831 = CARTESIAN_POINT('',(241.,110.,159.1));
#832 = LINE('',#833,#834);
#833 = CARTESIAN_POINT('',(207.,110.,159.1));
#834 = VECTOR('',#835,1.);
#835 = DIRECTION('',(1.,0.,0.));
#836 = ORIENTED_EDGE('',*,*,#837,.T.);
#837 = EDGE_CURVE('',#830,#838,#840,.T.);
#838 = VERTEX_POINT('',#839);
#839 = CARTESIAN_POINT('',(237.33755856742,100.95511194099,149.));
#840 = B_SPLINE_CURVE_WITH_KNOTS('',6,(#841,#842,#843,#844,#845,#846,
    #847,#848,#849,#850,#851,#852,#853,#854,#855,#856,#857,#858,#859,
    #860,#861,#862,#863,#864,#865,#866,#867,#868,#869,#870,#871,#872,
    #873,#874,#875,#876,#877),.UNSPECIFIED.,.F.,.F.,(7,5,5,5,5,5,5,7),(
    0.,0.120576105644,0.192834957753,0.285715114538,0.53251260771,
    0.740437084887,0.928463932199,1.),.UNSPECIFIED.);
#841 = CARTESIAN_POINT('',(241.,110.,159.1));
#842 = CARTESIAN_POINT('',(241.,109.60460022581,159.1));
#843 = CARTESIAN_POINT('',(240.98556846156,109.21006766782,
    159.07938353465));
#844 = CARTESIAN_POINT('',(240.95682449957,108.81952169044,
    159.03832064568));
#845 = CARTESIAN_POINT('',(240.9145238829,108.43605864421,
    158.97771275011));
#846 = CARTESIAN_POINT('',(240.86005092046,108.06269704658,
    158.89918900603));
#847 = CARTESIAN_POINT('',(240.75655904935,107.48636829649,
    158.74879824112));
#848 = CARTESIAN_POINT('',(240.71404814074,107.27477579418,
    158.68679502105));
#849 = CARTESIAN_POINT('',(240.66811792417,107.06772112049,
    158.61950638961));
#850 = CARTESIAN_POINT('',(240.61908787745,106.86535702886,
    158.5473001371));
#851 = CARTESIAN_POINT('',(240.56728330327,106.66781985881,
    158.47054977854));
#852 = CARTESIAN_POINT('',(240.44330056276,106.22767768489,
    158.28563113574));
#853 = CARTESIAN_POINT('',(240.36951285469,105.9882478382,
    158.17472615776));
#854 = CARTESIAN_POINT('',(240.29226375556,105.75684356688,
    158.05757321284));
#855 = CARTESIAN_POINT('',(240.21210246396,105.53334224896,
    157.9347565649));
#856 = CARTESIAN_POINT('',(240.12953276251,105.31759552457,
    157.80679319417));
#857 = CARTESIAN_POINT('',(239.82042799853,104.55629970929,
    157.32163473523));
#858 = CARTESIAN_POINT('',(239.58174933463,104.05590480537,
    156.93547221041));
#859 = CARTESIAN_POINT('',(239.33715391374,103.60445616953,
    156.52337365573));
#860 = CARTESIAN_POINT('',(239.09266550356,103.19785942689,
    156.08972302091));
#861 = CARTESIAN_POINT('',(238.8530285018,102.83265456971,
    155.63640652163));
#862 = CARTESIAN_POINT('',(238.42945948643,102.23216376398,
    154.76496519862));
#863 = CARTESIAN_POINT('',(238.24273038322,101.98552038961,
    154.35261038955));
#864 = CARTESIAN_POINT('',(238.06647073075,101.76638520136,
    153.92761441493));
#865 = CARTESIAN_POINT('',(237.90426372476,101.57465219289,
    153.49086975697));
#866 = CARTESIAN_POINT('',(237.75981787056,101.41049703178,
    153.04293527092));
#867 = CARTESIAN_POINT('',(237.52550988641,101.15171523398,
    152.16913305393));
#868 = CARTESIAN_POINT('',(237.43160205226,101.05177801977,
    151.74471366269));
#869 = CARTESIAN_POINT('',(237.35851548248,100.97616657288,
    151.31353653654));
#870 = CARTESIAN_POINT('',(237.30880873222,100.92545600221,
    150.87779781778));
#871 = CARTESIAN_POINT('',(237.2838569571,100.9,150.43936756098));
#872 = CARTESIAN_POINT('',(237.2838569571,100.9,149.83283968177));
#873 = CARTESIAN_POINT('',(237.28746867413,100.90368474249,
    149.66568953791));
#874 = CARTESIAN_POINT('',(237.29469150273,100.9110533497,
    149.49868741249));
#875 = CARTESIAN_POINT('',(237.30549379341,100.92209598433,149.331974583
    ));
#876 = CARTESIAN_POINT('',(237.31981346742,100.93679265259,
    149.16569581219));
#877 = CARTESIAN_POINT('',(237.33755863167,100.95511200732,148.9999994)
  );
#878 = ORIENTED_EDGE('',*,*,#879,.F.);
#879 = EDGE_CURVE('',#880,#838,#882,.T.);
#880 = VERTEX_POINT('',#881);
#881 = CARTESIAN_POINT('',(218.66244143258,100.95511194099,149.));
#882 = LINE('',#883,#884);
#883 = CARTESIAN_POINT('',(207.,100.95511194099,149.));
#884 = VECTOR('',#885,1.);
#885 = DIRECTION('',(1.,0.,0.));
#886 = ORIENTED_EDGE('',*,*,#887,.F.);
#887 = EDGE_CURVE('',#888,#880,#890,.T.);
#888 = VERTEX_POINT('',#889);
#889 = CARTESIAN_POINT('',(215.,110.,159.1));
#890 = B_SPLINE_CURVE_WITH_KNOTS('',6,(#891,#892,#893,#894,#895,#896,
    #897,#898,#899,#900,#901,#902,#903,#904,#905,#906,#907,#908,#909,
    #910,#911,#912,#913,#914,#915,#916,#917,#918,#919,#920,#921,#922,
    #923,#924,#925,#926,#927),.UNSPECIFIED.,.F.,.F.,(7,5,5,5,5,5,5,7),(
    0.,0.120576105661,0.192834957761,0.28571511454,0.532512607711,
    0.740437084887,0.928463932199,1.),.UNSPECIFIED.);
#891 = CARTESIAN_POINT('',(215.,110.,159.1));
#892 = CARTESIAN_POINT('',(215.,109.60460022591,159.1));
#893 = CARTESIAN_POINT('',(215.01443153842,109.21006766779,
    159.07938353466));
#894 = CARTESIAN_POINT('',(215.04317550043,108.81952169034,
    159.03832064567));
#895 = CARTESIAN_POINT('',(215.0854761171,108.43605864418,
    158.97771275009));
#896 = CARTESIAN_POINT('',(215.13994907951,108.06269704668,
    158.89918900606));
#897 = CARTESIAN_POINT('',(215.24344095064,107.48636829649,
    158.74879824112));
#898 = CARTESIAN_POINT('',(215.28595185925,107.27477579417,
    158.68679502105));
#899 = CARTESIAN_POINT('',(215.33188207582,107.06772112049,
    158.61950638961));
#900 = CARTESIAN_POINT('',(215.38091212255,106.86535702886,
    158.5473001371));
#901 = CARTESIAN_POINT('',(215.43271669672,106.66781985881,
    158.47054977854));
#902 = CARTESIAN_POINT('',(215.55669943723,106.22767768488,
    158.28563113573));
#903 = CARTESIAN_POINT('',(215.6304871453,105.9882478382,158.17472615776
    ));
#904 = CARTESIAN_POINT('',(215.70773624443,105.7568435669,
    158.05757321285));
#905 = CARTESIAN_POINT('',(215.78789753603,105.53334224897,
    157.9347565649));
#906 = CARTESIAN_POINT('',(215.87046723749,105.31759552456,
    157.80679319416));
#907 = CARTESIAN_POINT('',(216.17957200146,104.55629970929,
    157.32163473523));
#908 = CARTESIAN_POINT('',(216.41825066536,104.05590480537,
    156.9354722104));
#909 = CARTESIAN_POINT('',(216.66284608625,103.60445616953,
    156.52337365573));
#910 = CARTESIAN_POINT('',(216.90733449643,103.19785942689,
    156.08972302091));
#911 = CARTESIAN_POINT('',(217.14697149819,102.83265456971,
    155.63640652163));
#912 = CARTESIAN_POINT('',(217.57054051357,102.23216376398,
    154.76496519862));
#913 = CARTESIAN_POINT('',(217.75726961677,101.98552038961,
    154.35261038955));
#914 = CARTESIAN_POINT('',(217.93352926924,101.76638520136,
    153.92761441493));
#915 = CARTESIAN_POINT('',(218.09573627523,101.57465219289,
    153.49086975697));
#916 = CARTESIAN_POINT('',(218.24018212943,101.41049703178,
    153.04293527092));
#917 = CARTESIAN_POINT('',(218.47449011358,101.15171523398,
    152.16913305393));
#918 = CARTESIAN_POINT('',(218.56839794773,101.05177801977,
    151.74471366268));
#919 = CARTESIAN_POINT('',(218.64148451751,100.97616657288,
    151.31353653654));
#920 = CARTESIAN_POINT('',(218.69119126777,100.92545600221,
    150.87779781778));
#921 = CARTESIAN_POINT('',(218.71614304289,100.9,150.43936756098));
#922 = CARTESIAN_POINT('',(218.71614304289,100.9,149.83283968177));
#923 = CARTESIAN_POINT('',(218.71253132586,100.90368474249,
    149.66568953791));
#924 = CARTESIAN_POINT('',(218.70530849726,100.9110533497,
    149.49868741249));
#925 = CARTESIAN_POINT('',(218.69450620658,100.92209598433,149.331974583
    ));
#926 = CARTESIAN_POINT('',(218.68018653257,100.93679265259,
    149.16569581219));
#927 = CARTESIAN_POINT('',(218.66244136832,100.95511200732,148.9999994)
  );
#928 = ORIENTED_EDGE('',*,*,#929,.F.);
#929 = EDGE_CURVE('',#693,#888,#930,.T.);
#930 = LINE('',#931,#932);
#931 = CARTESIAN_POINT('',(207.,110.,159.1));
#932 = VECTOR('',#933,1.);
#933 = DIRECTION('',(1.,0.,0.));
#934 = ORIENTED_EDGE('',*,*,#692,.T.);
#935 = ORIENTED_EDGE('',*,*,#929,.T.);
#936 = ORIENTED_EDGE('',*,*,#937,.F.);
#937 = EDGE_CURVE('',#938,#888,#940,.T.);
#938 = VERTEX_POINT('',#939);
#939 = CARTESIAN_POINT('',(218.66244143258,119.044888059,149.));
#940 = B_SPLINE_CURVE_WITH_KNOTS('',6,(#941,#942,#943,#944,#945,#946,
    #947,#948,#949,#950,#951,#952,#953,#954,#955,#956,#957,#958,#959,
    #960,#961,#962,#963,#964,#965,#966,#967,#968,#969,#970,#971,#972,
    #973,#974,#975,#976,#977),.UNSPECIFIED.,.F.,.F.,(7,5,5,5,5,5,5,7),(
    0.,7.131825814013E-02,0.25882674573,0.465964947512,0.718535325217,
    0.81010173098,0.884378251368,1.),.UNSPECIFIED.);
#941 = CARTESIAN_POINT('',(218.66244136832,119.04488799267,148.9999994)
  );
#942 = CARTESIAN_POINT('',(218.68013313953,119.06315222669,
    149.16519725184));
#943 = CARTESIAN_POINT('',(218.69442001541,119.07781555467,
    149.33097407842));
#944 = CARTESIAN_POINT('',(218.70521091617,119.08884689609,
    149.49718286268));
#945 = CARTESIAN_POINT('',(218.71244422478,119.09622639669,
    149.66368008953));
#946 = CARTESIAN_POINT('',(218.71608839386,119.09994424683,
    149.83032569487));
#947 = CARTESIAN_POINT('',(218.7162849459,119.10014477004,
    150.43515498904));
#948 = CARTESIAN_POINT('',(218.69161087422,119.07497207503,
    150.87241337678));
#949 = CARTESIAN_POINT('',(218.64230934211,119.02467845387,
    151.30701163618));
#950 = CARTESIAN_POINT('',(218.5697372951,118.94961388918,
    151.73709064681));
#951 = CARTESIAN_POINT('',(218.47642483436,118.85034825592,
    152.16046969772));
#952 = CARTESIAN_POINT('',(218.24359356497,118.59334994731,
    153.03177785576));
#953 = CARTESIAN_POINT('',(218.1000887141,118.43039507229,
    153.47828017489));
#954 = CARTESIAN_POINT('',(217.93888578949,118.24005595545,
    153.91369216952));
#955 = CARTESIAN_POINT('',(217.76365511989,118.02251385505,
    154.33745643682));
#956 = CARTESIAN_POINT('',(217.57794741204,117.77767508152,
    154.74868714887));
#957 = CARTESIAN_POINT('',(217.15028667529,117.17282104835,
    155.63080410685));
#958 = CARTESIAN_POINT('',(216.9049970223,116.79941648945,
    156.09485374438));
#959 = CARTESIAN_POINT('',(216.65462332158,116.38269018716,
    156.53834974697));
#960 = CARTESIAN_POINT('',(216.40422393131,115.91890537073,
    156.95927394204));
#961 = CARTESIAN_POINT('',(216.16029055393,115.40363995681,
    157.35285405907));
#962 = CARTESIAN_POINT('',(215.84884621461,114.62592148293,
    157.8403120807));
#963 = CARTESIAN_POINT('',(215.76795174469,114.41157968094,
    157.96537506781));
#964 = CARTESIAN_POINT('',(215.68947828762,114.18967004899,
    158.08535472982));
#965 = CARTESIAN_POINT('',(215.61391657014,113.96005956693,
    158.19974383165));
#966 = CARTESIAN_POINT('',(215.54179942213,113.7226405353,
    158.30797289523));
#967 = CARTESIAN_POINT('',(215.41846096218,113.27834160176,
    158.49169262342));
#968 = CARTESIAN_POINT('',(215.36585403495,113.0741195003,
    158.56952295703));
#969 = CARTESIAN_POINT('',(215.3162429354,112.86481220913,
    158.64247840525));
#970 = CARTESIAN_POINT('',(215.26998444214,112.65058569885,
    158.71014811218));
#971 = CARTESIAN_POINT('',(215.2274264191,112.43162439934,
    158.77213069775));
#972 = CARTESIAN_POINT('',(215.12894091096,111.86023299521,
    158.91505124287));
#973 = CARTESIAN_POINT('',(215.07864802386,111.50071592202,
    158.98749489835));
#974 = CARTESIAN_POINT('',(215.03969298339,111.13219168678,
    159.04329569022));
#975 = CARTESIAN_POINT('',(215.01326243743,110.75737553504,
    159.0810536736));
#976 = CARTESIAN_POINT('',(215.,110.37904602424,159.1));
#977 = CARTESIAN_POINT('',(215.,110.,159.1));
#978 = ORIENTED_EDGE('',*,*,#979,.T.);
#979 = EDGE_CURVE('',#938,#980,#982,.T.);
#980 = VERTEX_POINT('',#981);
#981 = CARTESIAN_POINT('',(237.33755856742,119.044888059,149.));
#982 = LINE('',#983,#984);
#983 = CARTESIAN_POINT('',(207.,119.044888059,149.));
#984 = VECTOR('',#985,1.);
#985 = DIRECTION('',(1.,0.,0.));
#986 = ORIENTED_EDGE('',*,*,#987,.T.);
#987 = EDGE_CURVE('',#980,#830,#988,.T.);
#988 = B_SPLINE_CURVE_WITH_KNOTS('',6,(#989,#990,#991,#992,#993,#994,
    #995,#996,#997,#998,#999,#1000,#1001,#1002,#1003,#1004,#1005,#1006,
    #1007,#1008,#1009,#1010,#1011,#1012,#1013,#1014,#1015,#1016,#1017,
    #1018,#1019,#1020,#1021,#1022,#1023,#1024,#1025),.UNSPECIFIED.,.F.,
  .F.,(7,5,5,5,5,5,5,7),(0.,7.131825813669E-02,0.258826745718,
    0.465964947537,0.718535325348,0.810101731145,0.88437825153,1.),
  .UNSPECIFIED.);
#989 = CARTESIAN_POINT('',(237.33755863167,119.04488799267,148.9999994)
  );
#990 = CARTESIAN_POINT('',(237.31986686046,119.06315222669,
    149.16519725184));
#991 = CARTESIAN_POINT('',(237.30557998458,119.07781555467,
    149.33097407842));
#992 = CARTESIAN_POINT('',(237.29478908382,119.08884689609,
    149.49718286268));
#993 = CARTESIAN_POINT('',(237.28755577521,119.09622639669,
    149.66368008953));
#994 = CARTESIAN_POINT('',(237.28391160613,119.09994424683,
    149.83032569487));
#995 = CARTESIAN_POINT('',(237.28371505409,119.10014477004,
    150.43515498904));
#996 = CARTESIAN_POINT('',(237.30838912577,119.07497207503,
    150.87241337678));
#997 = CARTESIAN_POINT('',(237.35769065788,119.02467845387,
    151.30701163618));
#998 = CARTESIAN_POINT('',(237.43026270489,118.94961388918,
    151.73709064682));
#999 = CARTESIAN_POINT('',(237.52357516563,118.85034825592,
    152.16046969772));
#1000 = CARTESIAN_POINT('',(237.75640643505,118.59334994728,
    153.03177785587));
#1001 = CARTESIAN_POINT('',(237.8999112859,118.43039507229,
    153.47828017486));
#1002 = CARTESIAN_POINT('',(238.06111421045,118.2400559555,
    153.91369216942));
#1003 = CARTESIAN_POINT('',(238.23634488009,118.02251385509,
    154.33745643679));
#1004 = CARTESIAN_POINT('',(238.422052588,117.77767508146,
    154.74868714897));
#1005 = CARTESIAN_POINT('',(238.8497133247,117.17282104835,
    155.63080410685));
#1006 = CARTESIAN_POINT('',(239.09500297769,116.79941648945,
    156.09485374438));
#1007 = CARTESIAN_POINT('',(239.34537667841,116.38269018717,
    156.53834974697));
#1008 = CARTESIAN_POINT('',(239.59577606868,115.91890537073,
    156.95927394204));
#1009 = CARTESIAN_POINT('',(239.83970944606,115.40363995681,
    157.35285405907));
#1010 = CARTESIAN_POINT('',(240.15115378538,114.62592148294,
    157.84031208069));
#1011 = CARTESIAN_POINT('',(240.23204825531,114.41157968094,
    157.96537506782));
#1012 = CARTESIAN_POINT('',(240.31052171237,114.18967004898,
    158.08535472982));
#1013 = CARTESIAN_POINT('',(240.38608342985,113.96005956693,
    158.19974383165));
#1014 = CARTESIAN_POINT('',(240.45820057786,113.72264053531,
    158.30797289522));
#1015 = CARTESIAN_POINT('',(240.58153903779,113.27834160182,
    158.4916926234));
#1016 = CARTESIAN_POINT('',(240.63414596505,113.07411950028,
    158.56952295704));
#1017 = CARTESIAN_POINT('',(240.68375706461,112.86481220906,
    158.64247840527));
#1018 = CARTESIAN_POINT('',(240.73001555785,112.65058569883,
    158.71014811218));
#1019 = CARTESIAN_POINT('',(240.77257358088,112.43162439942,
    158.77213069773));
#1020 = CARTESIAN_POINT('',(240.87105908897,111.86023299556,
    158.91505124278));
#1021 = CARTESIAN_POINT('',(240.92135197617,111.5007159219,
    158.98749489841));
#1022 = CARTESIAN_POINT('',(240.96030701664,111.1321916864,
    159.04329569026));
#1023 = CARTESIAN_POINT('',(240.98673756253,110.75737553495,
    159.08105367356));
#1024 = CARTESIAN_POINT('',(241.,110.37904602462,159.1));
#1025 = CARTESIAN_POINT('',(241.,110.,159.1));
#1026 = ORIENTED_EDGE('',*,*,#829,.T.);
#1027 = ORIENTED_EDGE('',*,*,#1028,.F.);
#1028 = EDGE_CURVE('',#780,#788,#1029,.T.);
#1029 = B_SPLINE_CURVE_WITH_KNOTS('',8,(#1030,#1031,#1032,#1033,#1034,
    #1035,#1036,#1037,#1038,#1039,#1040,#1041,#1042,#1043,#1044,#1045,
    #1046,#1047,#1048,#1049,#1050,#1051,#1052,#1053,#1054,#1055,#1056,
    #1057,#1058,#1059,#1060,#1061,#1062,#1063,#1064,#1065,#1066),
  .UNSPECIFIED.,.F.,.F.,(9,7,7,7,7,9),(0.,0.207704585896,0.358805015704,
    0.500864844735,0.733861721489,1.),.UNSPECIFIED.);
#1030 = CARTESIAN_POINT('',(597.,110.,159.1));
#1031 = CARTESIAN_POINT('',(597.,110.30027057836,159.1));
#1032 = CARTESIAN_POINT('',(596.96565276366,110.594049684,
    159.08867624424));
#1033 = CARTESIAN_POINT('',(596.89955512582,110.87681036934,
    159.06688779087));
#1034 = CARTESIAN_POINT('',(596.80493032788,111.14453531994,
    159.03633667537));
#1035 = CARTESIAN_POINT('',(596.68565686334,111.39377798587,
    158.99936136217));
#1036 = CARTESIAN_POINT('',(596.54630948946,111.62177871217,
    158.95861941577));
#1037 = CARTESIAN_POINT('',(596.39220364037,111.82661834857,
    158.91671553835));
#1038 = CARTESIAN_POINT('',(596.11102355871,112.13890046619,
    158.84608862357));
#1039 = CARTESIAN_POINT('',(595.98623083417,112.25966834202,
    158.81643447874));
#1040 = CARTESIAN_POINT('',(595.85602744986,112.36992429004,
    158.78745497193));
#1041 = CARTESIAN_POINT('',(595.72122636855,112.46991218737,
    158.75965028308));
#1042 = CARTESIAN_POINT('',(595.58250563386,112.55987345826,
    158.73344244294));
#1043 = CARTESIAN_POINT('',(595.4404309057,112.64003068944,
    158.70918425115));
#1044 = CARTESIAN_POINT('',(595.29547726637,112.7105723474,
    158.68716915586));
#1045 = CARTESIAN_POINT('',(595.00944413908,112.82905114801,
    158.64928337179));
#1046 = CARTESIAN_POINT('',(594.86867870301,112.87807728583,
    158.6331273872));
#1047 = CARTESIAN_POINT('',(594.7261680307,112.91880815154,
    158.61938558995));
#1048 = CARTESIAN_POINT('',(594.58229228899,112.95131854739,
    158.60822556572));
#1049 = CARTESIAN_POINT('',(594.43740569225,112.97566551523,
    158.5997720181));
#1050 = CARTESIAN_POINT('',(594.29184442482,112.99188691448,
    158.59410774974));
#1051 = CARTESIAN_POINT('',(594.1459345635,113.,158.59127464349));
#1052 = CARTESIAN_POINT('',(593.7606480471,113.,158.59127464349));
#1053 = CARTESIAN_POINT('',(593.52158107818,112.97817574612,
    158.59889550921));
#1054 = CARTESIAN_POINT('',(593.28408654759,112.93461659034,
    158.61410590513));
#1055 = CARTESIAN_POINT('',(593.0494976864,112.86918586633,
    158.63660560477));
#1056 = CARTESIAN_POINT('',(592.8192765463,112.78155591974,
    158.6658189061));
#1057 = CARTESIAN_POINT('',(592.59511586311,112.67124046305,
    158.70086926145));
#1058 = CARTESIAN_POINT('',(592.37906881031,112.53763299453,
    158.74054181431));
#1059 = CARTESIAN_POINT('',(591.93915325627,112.20007391748,
    158.83201270831));
#1060 = CARTESIAN_POINT('',(591.71179643593,111.98364230636,
    158.88613621925));
#1061 = CARTESIAN_POINT('',(591.50123320421,111.72993720245,
    158.94272823527));
#1062 = CARTESIAN_POINT('',(591.31648835974,111.44010538117,
    158.99750485505));
#1063 = CARTESIAN_POINT('',(591.16604379113,111.1170168832,
    159.04526069212));
#1064 = CARTESIAN_POINT('',(591.05796455721,110.76505108375,
    159.08089072942));
#1065 = CARTESIAN_POINT('',(591.,110.39007354459,159.1));
#1066 = CARTESIAN_POINT('',(591.,110.,159.1));
#1067 = ORIENTED_EDGE('',*,*,#779,.T.);
#1068 = CYLINDRICAL_SURFACE('',#1069,9.1);
#1069 = AXIS2_PLACEMENT_3D('',#1070,#1071,#1072);
#1070 = CARTESIAN_POINT('',(207.,110.,150.));
#1071 = DIRECTION('',(1.,0.,0.));
#1072 = DIRECTION('',(0.,0.,1.));
#1073 = ADVANCED_FACE('',(#1074,#1077),#1088,.T.);
#1074 = FACE_BOUND('',#1075,.T.);
#1075 = EDGE_LOOP('',(#1076));
#1076 = ORIENTED_EDGE('',*,*,#619,.T.);
#1077 = FACE_BOUND('',#1078,.T.);
#1078 = EDGE_LOOP('',(#1079));
#1079 = ORIENTED_EDGE('',*,*,#1080,.F.);
#1080 = EDGE_CURVE('',#1081,#1081,#1083,.T.);
#1081 = VERTEX_POINT('',#1082);
#1082 = CARTESIAN_POINT('',(620.,110.,185.));
#1083 = CIRCLE('',#1084,2.);
#1084 = AXIS2_PLACEMENT_3D('',#1085,#1086,#1087);
#1085 = CARTESIAN_POINT('',(618.,110.,185.));
#1086 = DIRECTION('',(0.,0.,1.));
#1087 = DIRECTION('',(1.,0.,0.));
#1088 = PLANE('',#1089);
#1089 = AXIS2_PLACEMENT_3D('',#1090,#1091,#1092);
#1090 = CARTESIAN_POINT('',(618.,110.,185.));
#1091 = DIRECTION('',(0.,0.,1.));
#1092 = DIRECTION('',(1.,0.,0.));
#1093 = ADVANCED_FACE('',(#1094,#1097),#1108,.T.);
#1094 = FACE_BOUND('',#1095,.T.);
#1095 = EDGE_LOOP('',(#1096));
#1096 = ORIENTED_EDGE('',*,*,#645,.T.);
#1097 = FACE_BOUND('',#1098,.T.);
#1098 = EDGE_LOOP('',(#1099));
#1099 = ORIENTED_EDGE('',*,*,#1100,.F.);
#1100 = EDGE_CURVE('',#1101,#1101,#1103,.T.);
#1101 = VERTEX_POINT('',#1102);
#1102 = CARTESIAN_POINT('',(597.,110.,185.));
#1103 = CIRCLE('',#1104,3.);
#1104 = AXIS2_PLACEMENT_3D('',#1105,#1106,#1107);
#1105 = CARTESIAN_POINT('',(594.,110.,185.));
#1106 = DIRECTION('',(0.,0.,1.));
#1107 = DIRECTION('',(1.,0.,0.));
#1108 = PLANE('',#1109);
#1109 = AXIS2_PLACEMENT_3D('',#1110,#1111,#1112);
#1110 = CARTESIAN_POINT('',(594.,110.,185.));
#1111 = DIRECTION('',(0.,0.,1.));
#1112 = DIRECTION('',(1.,0.,0.));
#1113 = ADVANCED_FACE('',(#1114,#1117),#1128,.T.);
#1114 = FACE_BOUND('',#1115,.T.);
#1115 = EDGE_LOOP('',(#1116));
#1116 = ORIENTED_EDGE('',*,*,#671,.T.);
#1117 = FACE_BOUND('',#1118,.T.);
#1118 = EDGE_LOOP('',(#1119));
#1119 = ORIENTED_EDGE('',*,*,#1120,.F.);
#1120 = EDGE_CURVE('',#1121,#1121,#1123,.T.);
#1121 = VERTEX_POINT('',#1122);
#1122 = CARTESIAN_POINT('',(241.,110.,236.));
#1123 = CIRCLE('',#1124,13.);
#1124 = AXIS2_PLACEMENT_3D('',#1125,#1126,#1127);
#1125 = CARTESIAN_POINT('',(228.,110.,236.));
#1126 = DIRECTION('',(0.,0.,1.));
#1127 = DIRECTION('',(1.,0.,0.));
#1128 = PLANE('',#1129);
#1129 = AXIS2_PLACEMENT_3D('',#1130,#1131,#1132);
#1130 = CARTESIAN_POINT('',(228.,110.,236.));
#1131 = DIRECTION('',(0.,0.,1.));
#1132 = DIRECTION('',(1.,0.,0.));
#1133 = ADVANCED_FACE('',(#1134),#1146,.F.);
#1134 = FACE_BOUND('',#1135,.F.);
#1135 = EDGE_LOOP('',(#1136,#1137,#1143,#1144,#1145));
#1136 = ORIENTED_EDGE('',*,*,#750,.T.);
#1137 = ORIENTED_EDGE('',*,*,#1138,.T.);
#1138 = EDGE_CURVE('',#710,#1081,#1139,.T.);
#1139 = LINE('',#1140,#1141);
#1140 = CARTESIAN_POINT('',(620.,110.,149.));
#1141 = VECTOR('',#1142,1.);
#1142 = DIRECTION('',(0.,0.,1.));
#1143 = ORIENTED_EDGE('',*,*,#1080,.F.);
#1144 = ORIENTED_EDGE('',*,*,#1138,.F.);
#1145 = ORIENTED_EDGE('',*,*,#709,.T.);
#1146 = CYLINDRICAL_SURFACE('',#1147,2.);
#1147 = AXIS2_PLACEMENT_3D('',#1148,#1149,#1150);
#1148 = CARTESIAN_POINT('',(618.,110.,149.));
#1149 = DIRECTION('',(0.,0.,1.));
#1150 = DIRECTION('',(1.,0.,0.));
#1151 = ADVANCED_FACE('',(#1152),#1164,.F.);
#1152 = FACE_BOUND('',#1153,.F.);
#1153 = EDGE_LOOP('',(#1154,#1155,#1161,#1162,#1163));
#1154 = ORIENTED_EDGE('',*,*,#787,.T.);
#1155 = ORIENTED_EDGE('',*,*,#1156,.T.);
#1156 = EDGE_CURVE('',#780,#1101,#1157,.T.);
#1157 = LINE('',#1158,#1159);
#1158 = CARTESIAN_POINT('',(597.,110.,149.));
#1159 = VECTOR('',#1160,1.);
#1160 = DIRECTION('',(0.,0.,1.));
#1161 = ORIENTED_EDGE('',*,*,#1100,.F.);
#1162 = ORIENTED_EDGE('',*,*,#1156,.F.);
#1163 = ORIENTED_EDGE('',*,*,#1028,.T.);
#1164 = CYLINDRICAL_SURFACE('',#1165,3.);
#1165 = AXIS2_PLACEMENT_3D('',#1166,#1167,#1168);
#1166 = CARTESIAN_POINT('',(594.,110.,149.));
#1167 = DIRECTION('',(0.,0.,1.));
#1168 = DIRECTION('',(1.,0.,0.));
#1169 = ADVANCED_FACE('',(#1170),#1198,.F.);
#1170 = FACE_BOUND('',#1171,.F.);
#1171 = EDGE_LOOP('',(#1172,#1173,#1179,#1180,#1181,#1182,#1189,#1190,
    #1191));
#1172 = ORIENTED_EDGE('',*,*,#837,.F.);
#1173 = ORIENTED_EDGE('',*,*,#1174,.T.);
#1174 = EDGE_CURVE('',#830,#1121,#1175,.T.);
#1175 = LINE('',#1176,#1177);
#1176 = CARTESIAN_POINT('',(241.,110.,149.));
#1177 = VECTOR('',#1178,1.);
#1178 = DIRECTION('',(0.,0.,1.));
#1179 = ORIENTED_EDGE('',*,*,#1120,.F.);
#1180 = ORIENTED_EDGE('',*,*,#1174,.F.);
#1181 = ORIENTED_EDGE('',*,*,#987,.F.);
#1182 = ORIENTED_EDGE('',*,*,#1183,.T.);
#1183 = EDGE_CURVE('',#980,#938,#1184,.T.);
#1184 = CIRCLE('',#1185,13.);
#1185 = AXIS2_PLACEMENT_3D('',#1186,#1187,#1188);
#1186 = CARTESIAN_POINT('',(228.,110.,149.));
#1187 = DIRECTION('',(0.,0.,1.));
#1188 = DIRECTION('',(1.,0.,0.));
#1189 = ORIENTED_EDGE('',*,*,#937,.T.);
#1190 = ORIENTED_EDGE('',*,*,#887,.T.);
#1191 = ORIENTED_EDGE('',*,*,#1192,.T.);
#1192 = EDGE_CURVE('',#880,#838,#1193,.T.);
#1193 = CIRCLE('',#1194,13.);
#1194 = AXIS2_PLACEMENT_3D('',#1195,#1196,#1197);
#1195 = CARTESIAN_POINT('',(228.,110.,149.));
#1196 = DIRECTION('',(0.,0.,1.));
#1197 = DIRECTION('',(1.,0.,0.));
#1198 = CYLINDRICAL_SURFACE('',#1199,13.);
#1199 = AXIS2_PLACEMENT_3D('',#1200,#1201,#1202);
#1200 = CARTESIAN_POINT('',(228.,110.,149.));
#1201 = DIRECTION('',(0.,0.,1.));
#1202 = DIRECTION('',(1.,0.,0.));
#1203 = ADVANCED_FACE('',(#1204),#1208,.T.);
#1204 = FACE_BOUND('',#1205,.T.);
#1205 = EDGE_LOOP('',(#1206,#1207));
#1206 = ORIENTED_EDGE('',*,*,#979,.T.);
#1207 = ORIENTED_EDGE('',*,*,#1183,.T.);
#1208 = PLANE('',#1209);
#1209 = AXIS2_PLACEMENT_3D('',#1210,#1211,#1212);
#1210 = CARTESIAN_POINT('',(228.,110.,149.));
#1211 = DIRECTION('',(0.,0.,1.));
#1212 = DIRECTION('',(1.,0.,0.));
#1213 = ADVANCED_FACE('',(#1214),#1218,.T.);
#1214 = FACE_BOUND('',#1215,.T.);
#1215 = EDGE_LOOP('',(#1216,#1217));
#1216 = ORIENTED_EDGE('',*,*,#1192,.T.);
#1217 = ORIENTED_EDGE('',*,*,#879,.F.);
#1218 = PLANE('',#1219);
#1219 = AXIS2_PLACEMENT_3D('',#1220,#1221,#1222);
#1220 = CARTESIAN_POINT('',(228.,110.,149.));
#1221 = DIRECTION('',(0.,0.,1.));
#1222 = DIRECTION('',(1.,0.,0.));
#1223 = ( GEOMETRIC_REPRESENTATION_CONTEXT(3) 
GLOBAL_UNCERTAINTY_ASSIGNED_CONTEXT((#1227)) 
GLOBAL_UNIT_ASSIGNED_CONTEXT((#1224,#1225,#1226)) REPRESENTATION_CONTEXT
('Context #1','3D Context with UNIT and UNCERTAINTY') );
#1224 = ( LENGTH_UNIT() NAMED_UNIT(*) SI_UNIT(.MILLI.,.METRE.) );
#1225 = ( NAMED_UNIT(*) PLANE_ANGLE_UNIT() SI_UNIT($,.RADIAN.) );
#1226 = ( NAMED_UNIT(*) SI_UNIT($,.STERADIAN.) SOLID_ANGLE_UNIT() );
#1227 = UNCERTAINTY_MEASURE_WITH_UNIT(LENGTH_MEASURE(1.E-07),#1224,
  'distance_accuracy_value','confusion accuracy');
#1228 = PRODUCT_RELATED_PRODUCT_CATEGORY('part',$,(#7));
ENDSEC;
END-ISO-10303-21;
