ISO-10303-21;
HEADER;
FILE_DESCRIPTION(('FreeCAD Model'),'2;1');
FILE_NAME('Open CASCADE Shape Model','2000-01-01T00:00:00',('FreeCAD'),(
    'FreeCAD'),'Open CASCADE STEP processor 7.9','FreeCAD','Unknown');
FILE_SCHEMA(('AUTOMOTIVE_DESIGN { 1 0 10303 214 1 1 1 1 }'));
ENDSEC;
DATA;
#1 = APPLICATION_PROTOCOL_DEFINITION('international standard',
  'automotive_design',2000,#2);
#2 = APPLICATION_CONTEXT(
  'core data for automotive mechanical design processes');
#3 = SHAPE_DEFINITION_REPRESENTATION(#4,#10);
#4 = PRODUCT_DEFINITION_SHAPE('','',#5);
#5 = PRODUCT_DEFINITION('design','',#6,#9);
#6 = PRODUCT_DEFINITION_FORMATION('','',#7);
#7 = PRODUCT('Open CASCADE STEP translator 7.9 2',
  'Open CASCADE STEP translator 7.9 2','',(#8));
#8 = PRODUCT_CONTEXT('',#2,'mechanical');
#9 = PRODUCT_DEFINITION_CONTEXT('part definition',#2,'design');
#10 = ADVANCED_BREP_SHAPE_REPRESENTATION('',(#11,#15),#2101);
#11 = AXIS2_PLACEMENT_3D('',#12,#13,#14);
#12 = CARTESIAN_POINT('',(0.,0.,0.));
#13 = DIRECTION('',(0.,0.,1.));
#14 = DIRECTION('',(1.,0.,-0.));
#15 = MANIFOLD_SOLID_BREP('',#16);
#16 = CLOSED_SHELL('',(#17,#59,#90,#121,#152,#194,#225,#256,#287,#329,
    #360,#391,#422,#462,#493,#524,#555,#586,#617,#650,#683,#714,#745,
    #776,#807,#849,#880,#911,#942,#964,#995,#1026,#1048,#1079,#1110,
    #1152,#1183,#1214,#1245,#1267,#1298,#1329,#1351,#1382,#1413,#1455,
    #1486,#1517,#1548,#1570,#1601,#1632,#1654,#1685,#1716,#1747,#1769,
    #1884,#1916,#1940,#1964,#1988,#2012,#2029));
#17 = ADVANCED_FACE('',(#18),#54,.T.);
#18 = FACE_BOUND('',#19,.T.);
#19 = EDGE_LOOP('',(#20,#31,#39,#48));
#20 = ORIENTED_EDGE('',*,*,#21,.F.);
#21 = EDGE_CURVE('',#22,#24,#26,.T.);
#22 = VERTEX_POINT('',#23);
#23 = CARTESIAN_POINT('',(-17.98973082244,-6.113066737397,6.));
#24 = VERTEX_POINT('',#25);
#25 = CARTESIAN_POINT('',(-16.80061218898,-8.873524106885,6.));
#26 = CIRCLE('',#27,19.);
#27 = AXIS2_PLACEMENT_3D('',#28,#29,#30);
#28 = CARTESIAN_POINT('',(0.,0.,6.));
#29 = DIRECTION('',(0.,0.,1.));
#30 = DIRECTION('',(1.,0.,0.));
#31 = ORIENTED_EDGE('',*,*,#32,.F.);
#32 = EDGE_CURVE('',#33,#22,#35,.T.);
#33 = VERTEX_POINT('',#34);
#34 = CARTESIAN_POINT('',(-17.98973082244,-6.113066737397,0.));
#35 = LINE('',#36,#37);
#36 = CARTESIAN_POINT('',(-17.98973082244,-6.113066737397,0.));
#37 = VECTOR('',#38,1.);
#38 = DIRECTION('',(0.,0.,1.));
#39 = ORIENTED_EDGE('',*,*,#40,.T.);
#40 = EDGE_CURVE('',#33,#41,#43,.T.);
#41 = VERTEX_POINT('',#42);
#42 = CARTESIAN_POINT('',(-16.80061218898,-8.873524106885,0.));
#43 = CIRCLE('',#44,19.);
#44 = AXIS2_PLACEMENT_3D('',#45,#46,#47);
#45 = CARTESIAN_POINT('',(0.,0.,0.));
#46 = DIRECTION('',(0.,0.,1.));
#47 = DIRECTION('',(1.,0.,0.));
#48 = ORIENTED_EDGE('',*,*,#49,.T.);
#49 = EDGE_CURVE('',#41,#24,#50,.T.);
#50 = LINE('',#51,#52);
#51 = CARTESIAN_POINT('',(-16.80061218898,-8.873524106884,0.));
#52 = VECTOR('',#53,1.);
#53 = DIRECTION('',(0.,0.,1.));
#54 = CYLINDRICAL_SURFACE('',#55,19.);
#55 = AXIS2_PLACEMENT_3D('',#56,#57,#58);
#56 = CARTESIAN_POINT('',(0.,0.,0.));
#57 = DIRECTION('',(0.,0.,1.));
#58 = DIRECTION('',(1.,0.,0.));
#59 = ADVANCED_FACE('',(#60),#85,.F.);
#60 = FACE_BOUND('',#61,.F.);
#61 = EDGE_LOOP('',(#62,#70,#71,#79));
#62 = ORIENTED_EDGE('',*,*,#63,.F.);
#63 = EDGE_CURVE('',#41,#64,#66,.T.);
#64 = VERTEX_POINT('',#65);
#65 = CARTESIAN_POINT('',(-18.45075249479,-11.98205877033,0.));
#66 = LINE('',#67,#68);
#67 = CARTESIAN_POINT('',(-16.5727213499,-8.444223295156,0.));
#68 = VECTOR('',#69,1.);
#69 = DIRECTION('',(-0.468874050184,-0.883265036704,0.));
#70 = ORIENTED_EDGE('',*,*,#49,.T.);
#71 = ORIENTED_EDGE('',*,*,#72,.T.);
#72 = EDGE_CURVE('',#24,#73,#75,.T.);
#73 = VERTEX_POINT('',#74);
#74 = CARTESIAN_POINT('',(-18.45075249479,-11.98205877033,6.));
#75 = LINE('',#76,#77);
#76 = CARTESIAN_POINT('',(-16.5727213499,-8.444223295156,6.));
#77 = VECTOR('',#78,1.);
#78 = DIRECTION('',(-0.468874050184,-0.883265036704,0.));
#79 = ORIENTED_EDGE('',*,*,#80,.F.);
#80 = EDGE_CURVE('',#64,#73,#81,.T.);
#81 = LINE('',#82,#83);
#82 = CARTESIAN_POINT('',(-18.45075249479,-11.98205877033,0.));
#83 = VECTOR('',#84,1.);
#84 = DIRECTION('',(0.,0.,1.));
#85 = PLANE('',#86);
#86 = AXIS2_PLACEMENT_3D('',#87,#88,#89);
#87 = CARTESIAN_POINT('',(-16.5727213499,-8.444223295156,0.));
#88 = DIRECTION('',(0.883265036704,-0.468874050184,0.));
#89 = DIRECTION('',(-0.468874050184,-0.883265036704,0.));
#90 = ADVANCED_FACE('',(#91),#116,.F.);
#91 = FACE_BOUND('',#92,.F.);
#92 = EDGE_LOOP('',(#93,#101,#109,#115));
#93 = ORIENTED_EDGE('',*,*,#94,.F.);
#94 = EDGE_CURVE('',#95,#33,#97,.T.);
#95 = VERTEX_POINT('',#96);
#96 = CARTESIAN_POINT('',(-19.22523391876,-5.51274711634,0.));
#97 = LINE('',#98,#99);
#98 = CARTESIAN_POINT('',(-19.22523391876,-5.51274711634,0.));
#99 = VECTOR('',#100,1.);
#100 = DIRECTION('',(0.899445745462,-0.437032436977,0.));
#101 = ORIENTED_EDGE('',*,*,#102,.T.);
#102 = EDGE_CURVE('',#95,#103,#105,.T.);
#103 = VERTEX_POINT('',#104);
#104 = CARTESIAN_POINT('',(-19.22523391876,-5.51274711634,6.));
#105 = LINE('',#106,#107);
#106 = CARTESIAN_POINT('',(-19.22523391876,-5.51274711634,0.));
#107 = VECTOR('',#108,1.);
#108 = DIRECTION('',(0.,0.,1.));
#109 = ORIENTED_EDGE('',*,*,#110,.T.);
#110 = EDGE_CURVE('',#103,#22,#111,.T.);
#111 = LINE('',#112,#113);
#112 = CARTESIAN_POINT('',(-19.22523391876,-5.51274711634,6.));
#113 = VECTOR('',#114,1.);
#114 = DIRECTION('',(0.899445745462,-0.437032436977,0.));
#115 = ORIENTED_EDGE('',*,*,#32,.F.);
#116 = PLANE('',#117);
#117 = AXIS2_PLACEMENT_3D('',#118,#119,#120);
#118 = CARTESIAN_POINT('',(-19.22523391876,-5.51274711634,0.));
#119 = DIRECTION('',(0.437032436977,0.899445745462,0.));
#120 = DIRECTION('',(0.899445745462,-0.437032436977,0.));
#121 = ADVANCED_FACE('',(#122),#147,.F.);
#122 = FACE_BOUND('',#123,.F.);
#123 = EDGE_LOOP('',(#124,#125,#133,#141));
#124 = ORIENTED_EDGE('',*,*,#80,.T.);
#125 = ORIENTED_EDGE('',*,*,#126,.T.);
#126 = EDGE_CURVE('',#73,#127,#129,.T.);
#127 = VERTEX_POINT('',#128);
#128 = CARTESIAN_POINT('',(-22.46867162367,-19.87860144647,6.));
#129 = LINE('',#130,#131);
#130 = CARTESIAN_POINT('',(-18.45075249479,-11.98205877033,6.));
#131 = VECTOR('',#132,1.);
#132 = DIRECTION('',(-0.453491302408,-0.891260701838,0.));
#133 = ORIENTED_EDGE('',*,*,#134,.F.);
#134 = EDGE_CURVE('',#135,#127,#137,.T.);
#135 = VERTEX_POINT('',#136);
#136 = CARTESIAN_POINT('',(-22.46867162367,-19.87860144647,0.));
#137 = LINE('',#138,#139);
#138 = CARTESIAN_POINT('',(-22.46867162367,-19.87860144647,0.));
#139 = VECTOR('',#140,1.);
#140 = DIRECTION('',(0.,0.,1.));
#141 = ORIENTED_EDGE('',*,*,#142,.F.);
#142 = EDGE_CURVE('',#64,#135,#143,.T.);
#143 = LINE('',#144,#145);
#144 = CARTESIAN_POINT('',(-18.45075249479,-11.98205877033,0.));
#145 = VECTOR('',#146,1.);
#146 = DIRECTION('',(-0.453491302408,-0.891260701838,0.));
#147 = PLANE('',#148);
#148 = AXIS2_PLACEMENT_3D('',#149,#150,#151);
#149 = CARTESIAN_POINT('',(-18.45075249479,-11.98205877033,0.));
#150 = DIRECTION('',(0.891260701838,-0.453491302408,0.));
#151 = DIRECTION('',(-0.453491302408,-0.891260701838,0.));
#152 = ADVANCED_FACE('',(#153),#189,.T.);
#153 = FACE_BOUND('',#154,.T.);
#154 = EDGE_LOOP('',(#155,#166,#174,#183));
#155 = ORIENTED_EDGE('',*,*,#156,.F.);
#156 = EDGE_CURVE('',#157,#159,#161,.T.);
#157 = VERTEX_POINT('',#158);
#158 = CARTESIAN_POINT('',(-8.398069712415,-17.04325160013,6.));
#159 = VERTEX_POINT('',#160);
#160 = CARTESIAN_POINT('',(-5.605297737914,-18.15435587591,6.));
#161 = CIRCLE('',#162,19.);
#162 = AXIS2_PLACEMENT_3D('',#163,#164,#165);
#163 = CARTESIAN_POINT('',(0.,0.,6.));
#164 = DIRECTION('',(0.,0.,1.));
#165 = DIRECTION('',(1.,0.,0.));
#166 = ORIENTED_EDGE('',*,*,#167,.F.);
#167 = EDGE_CURVE('',#168,#157,#170,.T.);
#168 = VERTEX_POINT('',#169);
#169 = CARTESIAN_POINT('',(-8.398069712415,-17.04325160013,0.));
#170 = LINE('',#171,#172);
#171 = CARTESIAN_POINT('',(-8.398069712414,-17.04325160013,0.));
#172 = VECTOR('',#173,1.);
#173 = DIRECTION('',(0.,0.,1.));
#174 = ORIENTED_EDGE('',*,*,#175,.T.);
#175 = EDGE_CURVE('',#168,#176,#178,.T.);
#176 = VERTEX_POINT('',#177);
#177 = CARTESIAN_POINT('',(-5.605297737914,-18.15435587591,0.));
#178 = CIRCLE('',#179,19.);
#179 = AXIS2_PLACEMENT_3D('',#180,#181,#182);
#180 = CARTESIAN_POINT('',(0.,0.,0.));
#181 = DIRECTION('',(0.,0.,1.));
#182 = DIRECTION('',(1.,0.,0.));
#183 = ORIENTED_EDGE('',*,*,#184,.T.);
#184 = EDGE_CURVE('',#176,#159,#185,.T.);
#185 = LINE('',#186,#187);
#186 = CARTESIAN_POINT('',(-5.605297737914,-18.15435587591,0.));
#187 = VECTOR('',#188,1.);
#188 = DIRECTION('',(0.,0.,1.));
#189 = CYLINDRICAL_SURFACE('',#190,19.);
#190 = AXIS2_PLACEMENT_3D('',#191,#192,#193);
#191 = CARTESIAN_POINT('',(0.,0.,0.));
#192 = DIRECTION('',(0.,0.,1.));
#193 = DIRECTION('',(1.,0.,0.));
#194 = ADVANCED_FACE('',(#195),#220,.F.);
#195 = FACE_BOUND('',#196,.F.);
#196 = EDGE_LOOP('',(#197,#205,#206,#214));
#197 = ORIENTED_EDGE('',*,*,#198,.F.);
#198 = EDGE_CURVE('',#176,#199,#201,.T.);
#199 = VERTEX_POINT('',#200);
#200 = CARTESIAN_POINT('',(-4.574057197991,-21.51924721614,0.));
#201 = LINE('',#202,#203);
#202 = CARTESIAN_POINT('',(-5.747716095374,-17.68965120309,0.));
#203 = VECTOR('',#204,1.);
#204 = DIRECTION('',(0.293018676631,-0.956106717446,0.));
#205 = ORIENTED_EDGE('',*,*,#184,.T.);
#206 = ORIENTED_EDGE('',*,*,#207,.T.);
#207 = EDGE_CURVE('',#159,#208,#210,.T.);
#208 = VERTEX_POINT('',#209);
#209 = CARTESIAN_POINT('',(-4.574057197991,-21.51924721614,6.));
#210 = LINE('',#211,#212);
#211 = CARTESIAN_POINT('',(-5.747716095374,-17.68965120309,6.));
#212 = VECTOR('',#213,1.);
#213 = DIRECTION('',(0.293018676631,-0.956106717446,0.));
#214 = ORIENTED_EDGE('',*,*,#215,.F.);
#215 = EDGE_CURVE('',#199,#208,#216,.T.);
#216 = LINE('',#217,#218);
#217 = CARTESIAN_POINT('',(-4.574057197991,-21.51924721614,0.));
#218 = VECTOR('',#219,1.);
#219 = DIRECTION('',(0.,0.,1.));
#220 = PLANE('',#221);
#221 = AXIS2_PLACEMENT_3D('',#222,#223,#224);
#222 = CARTESIAN_POINT('',(-5.747716095374,-17.68965120309,0.));
#223 = DIRECTION('',(0.956106717446,0.293018676631,0.));
#224 = DIRECTION('',(0.293018676631,-0.956106717446,0.));
#225 = ADVANCED_FACE('',(#226),#251,.F.);
#226 = FACE_BOUND('',#227,.F.);
#227 = EDGE_LOOP('',(#228,#236,#244,#250));
#228 = ORIENTED_EDGE('',*,*,#229,.F.);
#229 = EDGE_CURVE('',#230,#168,#232,.T.);
#230 = VERTEX_POINT('',#231);
#231 = CARTESIAN_POINT('',(-9.696192404927,-17.49239414278,0.));
#232 = LINE('',#233,#234);
#233 = CARTESIAN_POINT('',(-9.696192404927,-17.49239414278,0.));
#234 = VECTOR('',#235,1.);
#235 = DIRECTION('',(0.945032785711,0.32697558614,0.));
#236 = ORIENTED_EDGE('',*,*,#237,.T.);
#237 = EDGE_CURVE('',#230,#238,#240,.T.);
#238 = VERTEX_POINT('',#239);
#239 = CARTESIAN_POINT('',(-9.696192404927,-17.49239414278,6.));
#240 = LINE('',#241,#242);
#241 = CARTESIAN_POINT('',(-9.696192404927,-17.49239414278,0.));
#242 = VECTOR('',#243,1.);
#243 = DIRECTION('',(0.,0.,1.));
#244 = ORIENTED_EDGE('',*,*,#245,.T.);
#245 = EDGE_CURVE('',#238,#157,#246,.T.);
#246 = LINE('',#247,#248);
#247 = CARTESIAN_POINT('',(-9.696192404927,-17.49239414278,6.));
#248 = VECTOR('',#249,1.);
#249 = DIRECTION('',(0.945032785711,0.32697558614,0.));
#250 = ORIENTED_EDGE('',*,*,#167,.F.);
#251 = PLANE('',#252);
#252 = AXIS2_PLACEMENT_3D('',#253,#254,#255);
#253 = CARTESIAN_POINT('',(-9.696192404927,-17.49239414278,0.));
#254 = DIRECTION('',(-0.32697558614,0.945032785711,0.));
#255 = DIRECTION('',(0.945032785711,0.32697558614,0.));
#256 = ADVANCED_FACE('',(#257),#282,.F.);
#257 = FACE_BOUND('',#258,.F.);
#258 = EDGE_LOOP('',(#259,#260,#268,#276));
#259 = ORIENTED_EDGE('',*,*,#215,.T.);
#260 = ORIENTED_EDGE('',*,*,#261,.T.);
#261 = EDGE_CURVE('',#208,#262,#264,.T.);
#262 = VERTEX_POINT('',#263);
#263 = CARTESIAN_POINT('',(-1.831456186046,-29.94404395265,6.));
#264 = LINE('',#265,#266);
#265 = CARTESIAN_POINT('',(-4.574057197991,-21.51924721614,6.));
#266 = VECTOR('',#267,1.);
#267 = DIRECTION('',(0.309549710933,-0.950883261216,0.));
#268 = ORIENTED_EDGE('',*,*,#269,.F.);
#269 = EDGE_CURVE('',#270,#262,#272,.T.);
#270 = VERTEX_POINT('',#271);
#271 = CARTESIAN_POINT('',(-1.831456186046,-29.94404395265,0.));
#272 = LINE('',#273,#274);
#273 = CARTESIAN_POINT('',(-1.831456186046,-29.94404395265,0.));
#274 = VECTOR('',#275,1.);
#275 = DIRECTION('',(0.,0.,1.));
#276 = ORIENTED_EDGE('',*,*,#277,.F.);
#277 = EDGE_CURVE('',#199,#270,#278,.T.);
#278 = LINE('',#279,#280);
#279 = CARTESIAN_POINT('',(-4.574057197991,-21.51924721614,0.));
#280 = VECTOR('',#281,1.);
#281 = DIRECTION('',(0.309549710933,-0.950883261216,0.));
#282 = PLANE('',#283);
#283 = AXIS2_PLACEMENT_3D('',#284,#285,#286);
#284 = CARTESIAN_POINT('',(-4.574057197991,-21.51924721614,0.));
#285 = DIRECTION('',(0.950883261216,0.309549710933,0.));
#286 = DIRECTION('',(0.309549710933,-0.950883261216,0.));
#287 = ADVANCED_FACE('',(#288),#324,.T.);
#288 = FACE_BOUND('',#289,.T.);
#289 = EDGE_LOOP('',(#290,#301,#309,#318));
#290 = ORIENTED_EDGE('',*,*,#291,.F.);
#291 = EDGE_CURVE('',#292,#294,#296,.T.);
#292 = VERTEX_POINT('',#293);
#293 = CARTESIAN_POINT('',(6.113066737397,-17.98973082244,6.));
#294 = VERTEX_POINT('',#295);
#295 = CARTESIAN_POINT('',(8.873524106884,-16.80061218898,6.));
#296 = CIRCLE('',#297,19.);
#297 = AXIS2_PLACEMENT_3D('',#298,#299,#300);
#298 = CARTESIAN_POINT('',(0.,0.,6.));
#299 = DIRECTION('',(0.,0.,1.));
#300 = DIRECTION('',(1.,0.,0.));
#301 = ORIENTED_EDGE('',*,*,#302,.F.);
#302 = EDGE_CURVE('',#303,#292,#305,.T.);
#303 = VERTEX_POINT('',#304);
#304 = CARTESIAN_POINT('',(6.113066737397,-17.98973082244,0.));
#305 = LINE('',#306,#307);
#306 = CARTESIAN_POINT('',(6.113066737397,-17.98973082244,0.));
#307 = VECTOR('',#308,1.);
#308 = DIRECTION('',(0.,0.,1.));
#309 = ORIENTED_EDGE('',*,*,#310,.T.);
#310 = EDGE_CURVE('',#303,#311,#313,.T.);
#311 = VERTEX_POINT('',#312);
#312 = CARTESIAN_POINT('',(8.873524106884,-16.80061218898,0.));
#313 = CIRCLE('',#314,19.);
#314 = AXIS2_PLACEMENT_3D('',#315,#316,#317);
#315 = CARTESIAN_POINT('',(0.,0.,0.));
#316 = DIRECTION('',(0.,0.,1.));
#317 = DIRECTION('',(1.,0.,0.));
#318 = ORIENTED_EDGE('',*,*,#319,.T.);
#319 = EDGE_CURVE('',#311,#294,#320,.T.);
#320 = LINE('',#321,#322);
#321 = CARTESIAN_POINT('',(8.873524106884,-16.80061218898,0.));
#322 = VECTOR('',#323,1.);
#323 = DIRECTION('',(0.,0.,1.));
#324 = CYLINDRICAL_SURFACE('',#325,19.);
#325 = AXIS2_PLACEMENT_3D('',#326,#327,#328);
#326 = CARTESIAN_POINT('',(0.,0.,0.));
#327 = DIRECTION('',(0.,0.,1.));
#328 = DIRECTION('',(1.,0.,0.));
#329 = ADVANCED_FACE('',(#330),#355,.F.);
#330 = FACE_BOUND('',#331,.F.);
#331 = EDGE_LOOP('',(#332,#340,#341,#349));
#332 = ORIENTED_EDGE('',*,*,#333,.F.);
#333 = EDGE_CURVE('',#311,#334,#336,.T.);
#334 = VERTEX_POINT('',#335);
#335 = CARTESIAN_POINT('',(11.982058770331,-18.45075249479,0.));
#336 = LINE('',#337,#338);
#337 = CARTESIAN_POINT('',(8.444223295156,-16.5727213499,0.));
#338 = VECTOR('',#339,1.);
#339 = DIRECTION('',(0.883265036704,-0.468874050184,0.));
#340 = ORIENTED_EDGE('',*,*,#319,.T.);
#341 = ORIENTED_EDGE('',*,*,#342,.T.);
#342 = EDGE_CURVE('',#294,#343,#345,.T.);
#343 = VERTEX_POINT('',#344);
#344 = CARTESIAN_POINT('',(11.982058770331,-18.45075249479,6.));
#345 = LINE('',#346,#347);
#346 = CARTESIAN_POINT('',(8.444223295156,-16.5727213499,6.));
#347 = VECTOR('',#348,1.);
#348 = DIRECTION('',(0.883265036704,-0.468874050184,0.));
#349 = ORIENTED_EDGE('',*,*,#350,.F.);
#350 = EDGE_CURVE('',#334,#343,#351,.T.);
#351 = LINE('',#352,#353);
#352 = CARTESIAN_POINT('',(11.982058770331,-18.45075249479,0.));
#353 = VECTOR('',#354,1.);
#354 = DIRECTION('',(0.,0.,1.));
#355 = PLANE('',#356);
#356 = AXIS2_PLACEMENT_3D('',#357,#358,#359);
#357 = CARTESIAN_POINT('',(8.444223295156,-16.5727213499,0.));
#358 = DIRECTION('',(0.468874050184,0.883265036704,0.));
#359 = DIRECTION('',(0.883265036704,-0.468874050184,0.));
#360 = ADVANCED_FACE('',(#361),#386,.F.);
#361 = FACE_BOUND('',#362,.F.);
#362 = EDGE_LOOP('',(#363,#371,#379,#385));
#363 = ORIENTED_EDGE('',*,*,#364,.F.);
#364 = EDGE_CURVE('',#365,#303,#367,.T.);
#365 = VERTEX_POINT('',#366);
#366 = CARTESIAN_POINT('',(5.51274711634,-19.22523391876,0.));
#367 = LINE('',#368,#369);
#368 = CARTESIAN_POINT('',(5.51274711634,-19.22523391876,0.));
#369 = VECTOR('',#370,1.);
#370 = DIRECTION('',(0.437032436977,0.899445745462,0.));
#371 = ORIENTED_EDGE('',*,*,#372,.T.);
#372 = EDGE_CURVE('',#365,#373,#375,.T.);
#373 = VERTEX_POINT('',#374);
#374 = CARTESIAN_POINT('',(5.51274711634,-19.22523391876,6.));
#375 = LINE('',#376,#377);
#376 = CARTESIAN_POINT('',(5.51274711634,-19.22523391876,0.));
#377 = VECTOR('',#378,1.);
#378 = DIRECTION('',(0.,0.,1.));
#379 = ORIENTED_EDGE('',*,*,#380,.T.);
#380 = EDGE_CURVE('',#373,#292,#381,.T.);
#381 = LINE('',#382,#383);
#382 = CARTESIAN_POINT('',(5.51274711634,-19.22523391876,6.));
#383 = VECTOR('',#384,1.);
#384 = DIRECTION('',(0.437032436977,0.899445745462,0.));
#385 = ORIENTED_EDGE('',*,*,#302,.F.);
#386 = PLANE('',#387);
#387 = AXIS2_PLACEMENT_3D('',#388,#389,#390);
#388 = CARTESIAN_POINT('',(5.51274711634,-19.22523391876,0.));
#389 = DIRECTION('',(-0.899445745462,0.437032436977,0.));
#390 = DIRECTION('',(0.437032436977,0.899445745462,0.));
#391 = ADVANCED_FACE('',(#392),#417,.F.);
#392 = FACE_BOUND('',#393,.F.);
#393 = EDGE_LOOP('',(#394,#395,#403,#411));
#394 = ORIENTED_EDGE('',*,*,#350,.T.);
#395 = ORIENTED_EDGE('',*,*,#396,.T.);
#396 = EDGE_CURVE('',#343,#397,#399,.T.);
#397 = VERTEX_POINT('',#398);
#398 = CARTESIAN_POINT('',(19.878601446472,-22.46867162367,6.));
#399 = LINE('',#400,#401);
#400 = CARTESIAN_POINT('',(11.982058770331,-18.45075249479,6.));
#401 = VECTOR('',#402,1.);
#402 = DIRECTION('',(0.891260701838,-0.453491302408,0.));
#403 = ORIENTED_EDGE('',*,*,#404,.F.);
#404 = EDGE_CURVE('',#405,#397,#407,.T.);
#405 = VERTEX_POINT('',#406);
#406 = CARTESIAN_POINT('',(19.878601446472,-22.46867162367,0.));
#407 = LINE('',#408,#409);
#408 = CARTESIAN_POINT('',(19.878601446472,-22.46867162367,0.));
#409 = VECTOR('',#410,1.);
#410 = DIRECTION('',(0.,0.,1.));
#411 = ORIENTED_EDGE('',*,*,#412,.F.);
#412 = EDGE_CURVE('',#334,#405,#413,.T.);
#413 = LINE('',#414,#415);
#414 = CARTESIAN_POINT('',(11.982058770331,-18.45075249479,0.));
#415 = VECTOR('',#416,1.);
#416 = DIRECTION('',(0.891260701838,-0.453491302408,0.));
#417 = PLANE('',#418);
#418 = AXIS2_PLACEMENT_3D('',#419,#420,#421);
#419 = CARTESIAN_POINT('',(11.982058770331,-18.45075249479,0.));
#420 = DIRECTION('',(0.453491302408,0.891260701838,0.));
#421 = DIRECTION('',(0.891260701838,-0.453491302408,0.));
#422 = ADVANCED_FACE('',(#423),#457,.F.);
#423 = FACE_BOUND('',#424,.F.);
#424 = EDGE_LOOP('',(#425,#435,#443,#451));
#425 = ORIENTED_EDGE('',*,*,#426,.F.);
#426 = EDGE_CURVE('',#427,#429,#431,.T.);
#427 = VERTEX_POINT('',#428);
#428 = CARTESIAN_POINT('',(19.225233918766,5.51274711634,0.));
#429 = VERTEX_POINT('',#430);
#430 = CARTESIAN_POINT('',(17.989730822448,6.113066737397,0.));
#431 = LINE('',#432,#433);
#432 = CARTESIAN_POINT('',(19.225233918766,5.51274711634,0.));
#433 = VECTOR('',#434,1.);
#434 = DIRECTION('',(-0.899445745462,0.437032436977,0.));
#435 = ORIENTED_EDGE('',*,*,#436,.T.);
#436 = EDGE_CURVE('',#427,#437,#439,.T.);
#437 = VERTEX_POINT('',#438);
#438 = CARTESIAN_POINT('',(19.225233918766,5.51274711634,6.));
#439 = LINE('',#440,#441);
#440 = CARTESIAN_POINT('',(19.225233918766,5.51274711634,0.));
#441 = VECTOR('',#442,1.);
#442 = DIRECTION('',(0.,0.,1.));
#443 = ORIENTED_EDGE('',*,*,#444,.T.);
#444 = EDGE_CURVE('',#437,#445,#447,.T.);
#445 = VERTEX_POINT('',#446);
#446 = CARTESIAN_POINT('',(17.989730822448,6.113066737397,6.));
#447 = LINE('',#448,#449);
#448 = CARTESIAN_POINT('',(19.225233918766,5.51274711634,6.));
#449 = VECTOR('',#450,1.);
#450 = DIRECTION('',(-0.899445745462,0.437032436977,0.));
#451 = ORIENTED_EDGE('',*,*,#452,.F.);
#452 = EDGE_CURVE('',#429,#445,#453,.T.);
#453 = LINE('',#454,#455);
#454 = CARTESIAN_POINT('',(17.989730822448,6.113066737397,0.));
#455 = VECTOR('',#456,1.);
#456 = DIRECTION('',(0.,0.,1.));
#457 = PLANE('',#458);
#458 = AXIS2_PLACEMENT_3D('',#459,#460,#461);
#459 = CARTESIAN_POINT('',(19.225233918766,5.51274711634,0.));
#460 = DIRECTION('',(-0.437032436977,-0.899445745462,0.));
#461 = DIRECTION('',(-0.899445745462,0.437032436977,0.));
#462 = ADVANCED_FACE('',(#463),#488,.F.);
#463 = FACE_BOUND('',#464,.F.);
#464 = EDGE_LOOP('',(#465,#475,#481,#482));
#465 = ORIENTED_EDGE('',*,*,#466,.T.);
#466 = EDGE_CURVE('',#467,#469,#471,.T.);
#467 = VERTEX_POINT('',#468);
#468 = CARTESIAN_POINT('',(26.798746094316,3.290472271939,0.));
#469 = VERTEX_POINT('',#470);
#470 = CARTESIAN_POINT('',(26.798746094316,3.290472271939,6.));
#471 = LINE('',#472,#473);
#472 = CARTESIAN_POINT('',(26.798746094316,3.290472271939,0.));
#473 = VECTOR('',#474,1.);
#474 = DIRECTION('',(0.,0.,1.));
#475 = ORIENTED_EDGE('',*,*,#476,.T.);
#476 = EDGE_CURVE('',#469,#437,#477,.T.);
#477 = LINE('',#478,#479);
#478 = CARTESIAN_POINT('',(26.798746094316,3.290472271939,6.));
#479 = VECTOR('',#480,1.);
#480 = DIRECTION('',(-0.95954463821,0.281556543668,0.));
#481 = ORIENTED_EDGE('',*,*,#436,.F.);
#482 = ORIENTED_EDGE('',*,*,#483,.F.);
#483 = EDGE_CURVE('',#467,#427,#484,.T.);
#484 = LINE('',#485,#486);
#485 = CARTESIAN_POINT('',(26.798746094316,3.290472271939,0.));
#486 = VECTOR('',#487,1.);
#487 = DIRECTION('',(-0.95954463821,0.281556543668,0.));
#488 = PLANE('',#489);
#489 = AXIS2_PLACEMENT_3D('',#490,#491,#492);
#490 = CARTESIAN_POINT('',(26.798746094316,3.290472271939,0.));
#491 = DIRECTION('',(-0.281556543668,-0.95954463821,0.));
#492 = DIRECTION('',(-0.95954463821,0.281556543668,0.));
#493 = ADVANCED_FACE('',(#494),#519,.F.);
#494 = FACE_BOUND('',#495,.F.);
#495 = EDGE_LOOP('',(#496,#506,#512,#513));
#496 = ORIENTED_EDGE('',*,*,#497,.T.);
#497 = EDGE_CURVE('',#498,#500,#502,.T.);
#498 = VERTEX_POINT('',#499);
#499 = CARTESIAN_POINT('',(30.,0.,0.));
#500 = VERTEX_POINT('',#501);
#501 = CARTESIAN_POINT('',(30.,0.,6.));
#502 = LINE('',#503,#504);
#503 = CARTESIAN_POINT('',(30.,0.,0.));
#504 = VECTOR('',#505,1.);
#505 = DIRECTION('',(0.,0.,1.));
#506 = ORIENTED_EDGE('',*,*,#507,.T.);
#507 = EDGE_CURVE('',#500,#469,#508,.T.);
#508 = LINE('',#509,#510);
#509 = CARTESIAN_POINT('',(30.,0.,6.));
#510 = VECTOR('',#511,1.);
#511 = DIRECTION('',(-0.697322879995,0.716757142299,0.));
#512 = ORIENTED_EDGE('',*,*,#466,.F.);
#513 = ORIENTED_EDGE('',*,*,#514,.F.);
#514 = EDGE_CURVE('',#498,#467,#515,.T.);
#515 = LINE('',#516,#517);
#516 = CARTESIAN_POINT('',(30.,0.,0.));
#517 = VECTOR('',#518,1.);
#518 = DIRECTION('',(-0.697322879995,0.716757142299,0.));
#519 = PLANE('',#520);
#520 = AXIS2_PLACEMENT_3D('',#521,#522,#523);
#521 = CARTESIAN_POINT('',(30.,0.,0.));
#522 = DIRECTION('',(-0.716757142299,-0.697322879995,0.));
#523 = DIRECTION('',(-0.697322879995,0.716757142299,0.));
#524 = ADVANCED_FACE('',(#525),#550,.F.);
#525 = FACE_BOUND('',#526,.F.);
#526 = EDGE_LOOP('',(#527,#537,#543,#544));
#527 = ORIENTED_EDGE('',*,*,#528,.T.);
#528 = EDGE_CURVE('',#529,#531,#533,.T.);
#529 = VERTEX_POINT('',#530);
#530 = CARTESIAN_POINT('',(29.944043952656,-1.831456186046,0.));
#531 = VERTEX_POINT('',#532);
#532 = CARTESIAN_POINT('',(29.944043952656,-1.831456186046,6.));
#533 = LINE('',#534,#535);
#534 = CARTESIAN_POINT('',(29.944043952656,-1.831456186046,0.));
#535 = VECTOR('',#536,1.);
#536 = DIRECTION('',(0.,0.,1.));
#537 = ORIENTED_EDGE('',*,*,#538,.T.);
#538 = EDGE_CURVE('',#531,#500,#539,.T.);
#539 = LINE('',#540,#541);
#540 = CARTESIAN_POINT('',(29.944043952656,-1.831456186046,6.));
#541 = VECTOR('',#542,1.);
#542 = DIRECTION('',(3.053851320982E-02,0.999533590837,0.));
#543 = ORIENTED_EDGE('',*,*,#497,.F.);
#544 = ORIENTED_EDGE('',*,*,#545,.F.);
#545 = EDGE_CURVE('',#529,#498,#546,.T.);
#546 = LINE('',#547,#548);
#547 = CARTESIAN_POINT('',(29.944043952656,-1.831456186046,0.));
#548 = VECTOR('',#549,1.);
#549 = DIRECTION('',(3.053851320982E-02,0.999533590837,0.));
#550 = PLANE('',#551);
#551 = AXIS2_PLACEMENT_3D('',#552,#553,#554);
#552 = CARTESIAN_POINT('',(29.944043952656,-1.831456186046,0.));
#553 = DIRECTION('',(-0.999533590837,3.053851320982E-02,0.));
#554 = DIRECTION('',(3.053851320982E-02,0.999533590837,0.));
#555 = ADVANCED_FACE('',(#556),#581,.F.);
#556 = FACE_BOUND('',#557,.F.);
#557 = EDGE_LOOP('',(#558,#568,#574,#575));
#558 = ORIENTED_EDGE('',*,*,#559,.T.);
#559 = EDGE_CURVE('',#560,#562,#564,.T.);
#560 = VERTEX_POINT('',#561);
#561 = CARTESIAN_POINT('',(21.519247216144,-4.574057197991,0.));
#562 = VERTEX_POINT('',#563);
#563 = CARTESIAN_POINT('',(21.519247216144,-4.574057197991,6.));
#564 = LINE('',#565,#566);
#565 = CARTESIAN_POINT('',(21.519247216144,-4.574057197991,0.));
#566 = VECTOR('',#567,1.);
#567 = DIRECTION('',(0.,0.,1.));
#568 = ORIENTED_EDGE('',*,*,#569,.T.);
#569 = EDGE_CURVE('',#562,#531,#570,.T.);
#570 = LINE('',#571,#572);
#571 = CARTESIAN_POINT('',(21.519247216144,-4.574057197991,6.));
#572 = VECTOR('',#573,1.);
#573 = DIRECTION('',(0.950883261216,0.309549710933,0.));
#574 = ORIENTED_EDGE('',*,*,#528,.F.);
#575 = ORIENTED_EDGE('',*,*,#576,.F.);
#576 = EDGE_CURVE('',#560,#529,#577,.T.);
#577 = LINE('',#578,#579);
#578 = CARTESIAN_POINT('',(21.519247216144,-4.574057197991,0.));
#579 = VECTOR('',#580,1.);
#580 = DIRECTION('',(0.950883261216,0.309549710933,0.));
#581 = PLANE('',#582);
#582 = AXIS2_PLACEMENT_3D('',#583,#584,#585);
#583 = CARTESIAN_POINT('',(21.519247216144,-4.574057197991,0.));
#584 = DIRECTION('',(-0.309549710933,0.950883261216,0.));
#585 = DIRECTION('',(0.950883261216,0.309549710933,0.));
#586 = ADVANCED_FACE('',(#587),#612,.F.);
#587 = FACE_BOUND('',#588,.F.);
#588 = EDGE_LOOP('',(#589,#597,#605,#611));
#589 = ORIENTED_EDGE('',*,*,#590,.F.);
#590 = EDGE_CURVE('',#591,#560,#593,.T.);
#591 = VERTEX_POINT('',#592);
#592 = CARTESIAN_POINT('',(18.154355875914,-5.605297737914,0.));
#593 = LINE('',#594,#595);
#594 = CARTESIAN_POINT('',(17.68965120309,-5.747716095374,0.));
#595 = VECTOR('',#596,1.);
#596 = DIRECTION('',(0.956106717446,0.293018676631,0.));
#597 = ORIENTED_EDGE('',*,*,#598,.T.);
#598 = EDGE_CURVE('',#591,#599,#601,.T.);
#599 = VERTEX_POINT('',#600);
#600 = CARTESIAN_POINT('',(18.154355875914,-5.605297737914,6.));
#601 = LINE('',#602,#603);
#602 = CARTESIAN_POINT('',(18.154355875914,-5.605297737914,0.));
#603 = VECTOR('',#604,1.);
#604 = DIRECTION('',(0.,0.,1.));
#605 = ORIENTED_EDGE('',*,*,#606,.T.);
#606 = EDGE_CURVE('',#599,#562,#607,.T.);
#607 = LINE('',#608,#609);
#608 = CARTESIAN_POINT('',(17.68965120309,-5.747716095374,6.));
#609 = VECTOR('',#610,1.);
#610 = DIRECTION('',(0.956106717446,0.293018676631,0.));
#611 = ORIENTED_EDGE('',*,*,#559,.F.);
#612 = PLANE('',#613);
#613 = AXIS2_PLACEMENT_3D('',#614,#615,#616);
#614 = CARTESIAN_POINT('',(17.68965120309,-5.747716095374,0.));
#615 = DIRECTION('',(-0.293018676631,0.956106717446,0.));
#616 = DIRECTION('',(0.956106717446,0.293018676631,0.));
#617 = ADVANCED_FACE('',(#618),#645,.T.);
#618 = FACE_BOUND('',#619,.T.);
#619 = EDGE_LOOP('',(#620,#629,#630,#639));
#620 = ORIENTED_EDGE('',*,*,#621,.F.);
#621 = EDGE_CURVE('',#445,#622,#624,.T.);
#622 = VERTEX_POINT('',#623);
#623 = CARTESIAN_POINT('',(16.800612188981,8.873524106885,6.));
#624 = CIRCLE('',#625,19.);
#625 = AXIS2_PLACEMENT_3D('',#626,#627,#628);
#626 = CARTESIAN_POINT('',(0.,0.,6.));
#627 = DIRECTION('',(0.,0.,1.));
#628 = DIRECTION('',(1.,0.,0.));
#629 = ORIENTED_EDGE('',*,*,#452,.F.);
#630 = ORIENTED_EDGE('',*,*,#631,.T.);
#631 = EDGE_CURVE('',#429,#632,#634,.T.);
#632 = VERTEX_POINT('',#633);
#633 = CARTESIAN_POINT('',(16.800612188981,8.873524106885,0.));
#634 = CIRCLE('',#635,19.);
#635 = AXIS2_PLACEMENT_3D('',#636,#637,#638);
#636 = CARTESIAN_POINT('',(0.,0.,0.));
#637 = DIRECTION('',(0.,0.,1.));
#638 = DIRECTION('',(1.,0.,0.));
#639 = ORIENTED_EDGE('',*,*,#640,.T.);
#640 = EDGE_CURVE('',#632,#622,#641,.T.);
#641 = LINE('',#642,#643);
#642 = CARTESIAN_POINT('',(16.800612188981,8.873524106884,0.));
#643 = VECTOR('',#644,1.);
#644 = DIRECTION('',(0.,0.,1.));
#645 = CYLINDRICAL_SURFACE('',#646,19.);
#646 = AXIS2_PLACEMENT_3D('',#647,#648,#649);
#647 = CARTESIAN_POINT('',(0.,0.,0.));
#648 = DIRECTION('',(0.,0.,1.));
#649 = DIRECTION('',(1.,0.,0.));
#650 = ADVANCED_FACE('',(#651),#678,.T.);
#651 = FACE_BOUND('',#652,.T.);
#652 = EDGE_LOOP('',(#653,#662,#670,#677));
#653 = ORIENTED_EDGE('',*,*,#654,.F.);
#654 = EDGE_CURVE('',#655,#599,#657,.T.);
#655 = VERTEX_POINT('',#656);
#656 = CARTESIAN_POINT('',(17.043251600133,-8.398069712415,6.));
#657 = CIRCLE('',#658,19.);
#658 = AXIS2_PLACEMENT_3D('',#659,#660,#661);
#659 = CARTESIAN_POINT('',(0.,0.,6.));
#660 = DIRECTION('',(0.,0.,1.));
#661 = DIRECTION('',(1.,0.,0.));
#662 = ORIENTED_EDGE('',*,*,#663,.F.);
#663 = EDGE_CURVE('',#664,#655,#666,.T.);
#664 = VERTEX_POINT('',#665);
#665 = CARTESIAN_POINT('',(17.043251600133,-8.398069712415,0.));
#666 = LINE('',#667,#668);
#667 = CARTESIAN_POINT('',(17.043251600133,-8.398069712414,0.));
#668 = VECTOR('',#669,1.);
#669 = DIRECTION('',(0.,0.,1.));
#670 = ORIENTED_EDGE('',*,*,#671,.T.);
#671 = EDGE_CURVE('',#664,#591,#672,.T.);
#672 = CIRCLE('',#673,19.);
#673 = AXIS2_PLACEMENT_3D('',#674,#675,#676);
#674 = CARTESIAN_POINT('',(0.,0.,0.));
#675 = DIRECTION('',(0.,0.,1.));
#676 = DIRECTION('',(1.,0.,0.));
#677 = ORIENTED_EDGE('',*,*,#598,.T.);
#678 = CYLINDRICAL_SURFACE('',#679,19.);
#679 = AXIS2_PLACEMENT_3D('',#680,#681,#682);
#680 = CARTESIAN_POINT('',(0.,0.,0.));
#681 = DIRECTION('',(0.,0.,1.));
#682 = DIRECTION('',(1.,0.,0.));
#683 = ADVANCED_FACE('',(#684),#709,.F.);
#684 = FACE_BOUND('',#685,.F.);
#685 = EDGE_LOOP('',(#686,#694,#695,#703));
#686 = ORIENTED_EDGE('',*,*,#687,.F.);
#687 = EDGE_CURVE('',#632,#688,#690,.T.);
#688 = VERTEX_POINT('',#689);
#689 = CARTESIAN_POINT('',(18.450752494799,11.982058770331,0.));
#690 = LINE('',#691,#692);
#691 = CARTESIAN_POINT('',(16.572721349904,8.444223295156,0.));
#692 = VECTOR('',#693,1.);
#693 = DIRECTION('',(0.468874050184,0.883265036704,0.));
#694 = ORIENTED_EDGE('',*,*,#640,.T.);
#695 = ORIENTED_EDGE('',*,*,#696,.T.);
#696 = EDGE_CURVE('',#622,#697,#699,.T.);
#697 = VERTEX_POINT('',#698);
#698 = CARTESIAN_POINT('',(18.450752494799,11.982058770331,6.));
#699 = LINE('',#700,#701);
#700 = CARTESIAN_POINT('',(16.572721349904,8.444223295156,6.));
#701 = VECTOR('',#702,1.);
#702 = DIRECTION('',(0.468874050184,0.883265036704,0.));
#703 = ORIENTED_EDGE('',*,*,#704,.F.);
#704 = EDGE_CURVE('',#688,#697,#705,.T.);
#705 = LINE('',#706,#707);
#706 = CARTESIAN_POINT('',(18.450752494799,11.982058770331,0.));
#707 = VECTOR('',#708,1.);
#708 = DIRECTION('',(0.,0.,1.));
#709 = PLANE('',#710);
#710 = AXIS2_PLACEMENT_3D('',#711,#712,#713);
#711 = CARTESIAN_POINT('',(16.572721349904,8.444223295156,0.));
#712 = DIRECTION('',(-0.883265036704,0.468874050184,0.));
#713 = DIRECTION('',(0.468874050184,0.883265036704,0.));
#714 = ADVANCED_FACE('',(#715),#740,.F.);
#715 = FACE_BOUND('',#716,.F.);
#716 = EDGE_LOOP('',(#717,#725,#733,#739));
#717 = ORIENTED_EDGE('',*,*,#718,.F.);
#718 = EDGE_CURVE('',#719,#664,#721,.T.);
#719 = VERTEX_POINT('',#720);
#720 = CARTESIAN_POINT('',(17.492394142788,-9.696192404927,0.));
#721 = LINE('',#722,#723);
#722 = CARTESIAN_POINT('',(17.492394142788,-9.696192404927,0.));
#723 = VECTOR('',#724,1.);
#724 = DIRECTION('',(-0.32697558614,0.945032785711,0.));
#725 = ORIENTED_EDGE('',*,*,#726,.T.);
#726 = EDGE_CURVE('',#719,#727,#729,.T.);
#727 = VERTEX_POINT('',#728);
#728 = CARTESIAN_POINT('',(17.492394142788,-9.696192404927,6.));
#729 = LINE('',#730,#731);
#730 = CARTESIAN_POINT('',(17.492394142788,-9.696192404927,0.));
#731 = VECTOR('',#732,1.);
#732 = DIRECTION('',(0.,0.,1.));
#733 = ORIENTED_EDGE('',*,*,#734,.T.);
#734 = EDGE_CURVE('',#727,#655,#735,.T.);
#735 = LINE('',#736,#737);
#736 = CARTESIAN_POINT('',(17.492394142788,-9.696192404927,6.));
#737 = VECTOR('',#738,1.);
#738 = DIRECTION('',(-0.32697558614,0.945032785711,0.));
#739 = ORIENTED_EDGE('',*,*,#663,.F.);
#740 = PLANE('',#741);
#741 = AXIS2_PLACEMENT_3D('',#742,#743,#744);
#742 = CARTESIAN_POINT('',(17.492394142788,-9.696192404927,0.));
#743 = DIRECTION('',(-0.945032785711,-0.32697558614,0.));
#744 = DIRECTION('',(-0.32697558614,0.945032785711,0.));
#745 = ADVANCED_FACE('',(#746),#771,.F.);
#746 = FACE_BOUND('',#747,.F.);
#747 = EDGE_LOOP('',(#748,#749,#757,#765));
#748 = ORIENTED_EDGE('',*,*,#704,.T.);
#749 = ORIENTED_EDGE('',*,*,#750,.T.);
#750 = EDGE_CURVE('',#697,#751,#753,.T.);
#751 = VERTEX_POINT('',#752);
#752 = CARTESIAN_POINT('',(22.46867162367,19.878601446472,6.));
#753 = LINE('',#754,#755);
#754 = CARTESIAN_POINT('',(18.450752494799,11.982058770331,6.));
#755 = VECTOR('',#756,1.);
#756 = DIRECTION('',(0.453491302408,0.891260701838,0.));
#757 = ORIENTED_EDGE('',*,*,#758,.F.);
#758 = EDGE_CURVE('',#759,#751,#761,.T.);
#759 = VERTEX_POINT('',#760);
#760 = CARTESIAN_POINT('',(22.46867162367,19.878601446472,0.));
#761 = LINE('',#762,#763);
#762 = CARTESIAN_POINT('',(22.46867162367,19.878601446472,0.));
#763 = VECTOR('',#764,1.);
#764 = DIRECTION('',(0.,0.,1.));
#765 = ORIENTED_EDGE('',*,*,#766,.F.);
#766 = EDGE_CURVE('',#688,#759,#767,.T.);
#767 = LINE('',#768,#769);
#768 = CARTESIAN_POINT('',(18.450752494799,11.982058770331,0.));
#769 = VECTOR('',#770,1.);
#770 = DIRECTION('',(0.453491302408,0.891260701838,0.));
#771 = PLANE('',#772);
#772 = AXIS2_PLACEMENT_3D('',#773,#774,#775);
#773 = CARTESIAN_POINT('',(18.450752494799,11.982058770331,0.));
#774 = DIRECTION('',(-0.891260701838,0.453491302408,0.));
#775 = DIRECTION('',(0.453491302408,0.891260701838,0.));
#776 = ADVANCED_FACE('',(#777),#802,.F.);
#777 = FACE_BOUND('',#778,.F.);
#778 = EDGE_LOOP('',(#779,#780,#788,#796));
#779 = ORIENTED_EDGE('',*,*,#758,.T.);
#780 = ORIENTED_EDGE('',*,*,#781,.T.);
#781 = EDGE_CURVE('',#751,#782,#784,.T.);
#782 = VERTEX_POINT('',#783);
#783 = CARTESIAN_POINT('',(21.213203435596,21.213203435596,6.));
#784 = LINE('',#785,#786);
#785 = CARTESIAN_POINT('',(22.46867162367,19.878601446472,6.));
#786 = VECTOR('',#787,1.);
#787 = DIRECTION('',(-0.685182990326,0.728370969882,0.));
#788 = ORIENTED_EDGE('',*,*,#789,.F.);
#789 = EDGE_CURVE('',#790,#782,#792,.T.);
#790 = VERTEX_POINT('',#791);
#791 = CARTESIAN_POINT('',(21.213203435596,21.213203435596,0.));
#792 = LINE('',#793,#794);
#793 = CARTESIAN_POINT('',(21.213203435596,21.213203435596,0.));
#794 = VECTOR('',#795,1.);
#795 = DIRECTION('',(0.,0.,1.));
#796 = ORIENTED_EDGE('',*,*,#797,.F.);
#797 = EDGE_CURVE('',#759,#790,#798,.T.);
#798 = LINE('',#799,#800);
#799 = CARTESIAN_POINT('',(22.46867162367,19.878601446472,0.));
#800 = VECTOR('',#801,1.);
#801 = DIRECTION('',(-0.685182990326,0.728370969882,0.));
#802 = PLANE('',#803);
#803 = AXIS2_PLACEMENT_3D('',#804,#805,#806);
#804 = CARTESIAN_POINT('',(22.46867162367,19.878601446472,0.));
#805 = DIRECTION('',(-0.728370969882,-0.685182990326,0.));
#806 = DIRECTION('',(-0.685182990326,0.728370969882,0.));
#807 = ADVANCED_FACE('',(#808),#844,.T.);
#808 = FACE_BOUND('',#809,.T.);
#809 = EDGE_LOOP('',(#810,#821,#829,#838));
#810 = ORIENTED_EDGE('',*,*,#811,.F.);
#811 = EDGE_CURVE('',#812,#814,#816,.T.);
#812 = VERTEX_POINT('',#813);
#813 = CARTESIAN_POINT('',(8.398069712415,17.043251600133,6.));
#814 = VERTEX_POINT('',#815);
#815 = CARTESIAN_POINT('',(5.605297737914,18.154355875914,6.));
#816 = CIRCLE('',#817,19.);
#817 = AXIS2_PLACEMENT_3D('',#818,#819,#820);
#818 = CARTESIAN_POINT('',(0.,0.,6.));
#819 = DIRECTION('',(0.,0.,1.));
#820 = DIRECTION('',(1.,0.,0.));
#821 = ORIENTED_EDGE('',*,*,#822,.F.);
#822 = EDGE_CURVE('',#823,#812,#825,.T.);
#823 = VERTEX_POINT('',#824);
#824 = CARTESIAN_POINT('',(8.398069712415,17.043251600133,0.));
#825 = LINE('',#826,#827);
#826 = CARTESIAN_POINT('',(8.398069712414,17.043251600133,0.));
#827 = VECTOR('',#828,1.);
#828 = DIRECTION('',(0.,0.,1.));
#829 = ORIENTED_EDGE('',*,*,#830,.T.);
#830 = EDGE_CURVE('',#823,#831,#833,.T.);
#831 = VERTEX_POINT('',#832);
#832 = CARTESIAN_POINT('',(5.605297737914,18.154355875914,0.));
#833 = CIRCLE('',#834,19.);
#834 = AXIS2_PLACEMENT_3D('',#835,#836,#837);
#835 = CARTESIAN_POINT('',(0.,0.,0.));
#836 = DIRECTION('',(0.,0.,1.));
#837 = DIRECTION('',(1.,0.,0.));
#838 = ORIENTED_EDGE('',*,*,#839,.T.);
#839 = EDGE_CURVE('',#831,#814,#840,.T.);
#840 = LINE('',#841,#842);
#841 = CARTESIAN_POINT('',(5.605297737914,18.154355875914,0.));
#842 = VECTOR('',#843,1.);
#843 = DIRECTION('',(0.,0.,1.));
#844 = CYLINDRICAL_SURFACE('',#845,19.);
#845 = AXIS2_PLACEMENT_3D('',#846,#847,#848);
#846 = CARTESIAN_POINT('',(0.,0.,0.));
#847 = DIRECTION('',(0.,0.,1.));
#848 = DIRECTION('',(1.,0.,0.));
#849 = ADVANCED_FACE('',(#850),#875,.F.);
#850 = FACE_BOUND('',#851,.F.);
#851 = EDGE_LOOP('',(#852,#860,#861,#869));
#852 = ORIENTED_EDGE('',*,*,#853,.F.);
#853 = EDGE_CURVE('',#831,#854,#856,.T.);
#854 = VERTEX_POINT('',#855);
#855 = CARTESIAN_POINT('',(4.574057197991,21.519247216144,0.));
#856 = LINE('',#857,#858);
#857 = CARTESIAN_POINT('',(5.747716095374,17.68965120309,0.));
#858 = VECTOR('',#859,1.);
#859 = DIRECTION('',(-0.293018676631,0.956106717446,0.));
#860 = ORIENTED_EDGE('',*,*,#839,.T.);
#861 = ORIENTED_EDGE('',*,*,#862,.T.);
#862 = EDGE_CURVE('',#814,#863,#865,.T.);
#863 = VERTEX_POINT('',#864);
#864 = CARTESIAN_POINT('',(4.574057197991,21.519247216144,6.));
#865 = LINE('',#866,#867);
#866 = CARTESIAN_POINT('',(5.747716095374,17.68965120309,6.));
#867 = VECTOR('',#868,1.);
#868 = DIRECTION('',(-0.293018676631,0.956106717446,0.));
#869 = ORIENTED_EDGE('',*,*,#870,.F.);
#870 = EDGE_CURVE('',#854,#863,#871,.T.);
#871 = LINE('',#872,#873);
#872 = CARTESIAN_POINT('',(4.574057197991,21.519247216144,0.));
#873 = VECTOR('',#874,1.);
#874 = DIRECTION('',(0.,0.,1.));
#875 = PLANE('',#876);
#876 = AXIS2_PLACEMENT_3D('',#877,#878,#879);
#877 = CARTESIAN_POINT('',(5.747716095374,17.68965120309,0.));
#878 = DIRECTION('',(-0.956106717446,-0.293018676631,0.));
#879 = DIRECTION('',(-0.293018676631,0.956106717446,0.));
#880 = ADVANCED_FACE('',(#881),#906,.F.);
#881 = FACE_BOUND('',#882,.F.);
#882 = EDGE_LOOP('',(#883,#891,#899,#905));
#883 = ORIENTED_EDGE('',*,*,#884,.F.);
#884 = EDGE_CURVE('',#885,#823,#887,.T.);
#885 = VERTEX_POINT('',#886);
#886 = CARTESIAN_POINT('',(9.696192404927,17.492394142788,0.));
#887 = LINE('',#888,#889);
#888 = CARTESIAN_POINT('',(9.696192404927,17.492394142788,0.));
#889 = VECTOR('',#890,1.);
#890 = DIRECTION('',(-0.945032785711,-0.32697558614,0.));
#891 = ORIENTED_EDGE('',*,*,#892,.T.);
#892 = EDGE_CURVE('',#885,#893,#895,.T.);
#893 = VERTEX_POINT('',#894);
#894 = CARTESIAN_POINT('',(9.696192404927,17.492394142788,6.));
#895 = LINE('',#896,#897);
#896 = CARTESIAN_POINT('',(9.696192404927,17.492394142788,0.));
#897 = VECTOR('',#898,1.);
#898 = DIRECTION('',(0.,0.,1.));
#899 = ORIENTED_EDGE('',*,*,#900,.T.);
#900 = EDGE_CURVE('',#893,#812,#901,.T.);
#901 = LINE('',#902,#903);
#902 = CARTESIAN_POINT('',(9.696192404927,17.492394142788,6.));
#903 = VECTOR('',#904,1.);
#904 = DIRECTION('',(-0.945032785711,-0.32697558614,0.));
#905 = ORIENTED_EDGE('',*,*,#822,.F.);
#906 = PLANE('',#907);
#907 = AXIS2_PLACEMENT_3D('',#908,#909,#910);
#908 = CARTESIAN_POINT('',(9.696192404927,17.492394142788,0.));
#909 = DIRECTION('',(0.32697558614,-0.945032785711,0.));
#910 = DIRECTION('',(-0.945032785711,-0.32697558614,0.));
#911 = ADVANCED_FACE('',(#912),#937,.F.);
#912 = FACE_BOUND('',#913,.F.);
#913 = EDGE_LOOP('',(#914,#924,#930,#931));
#914 = ORIENTED_EDGE('',*,*,#915,.T.);
#915 = EDGE_CURVE('',#916,#918,#920,.T.);
#916 = VERTEX_POINT('',#917);
#917 = CARTESIAN_POINT('',(16.622859833793,21.276290347381,0.));
#918 = VERTEX_POINT('',#919);
#919 = CARTESIAN_POINT('',(16.622859833793,21.276290347381,6.));
#920 = LINE('',#921,#922);
#921 = CARTESIAN_POINT('',(16.622859833793,21.276290347381,0.));
#922 = VECTOR('',#923,1.);
#923 = DIRECTION('',(0.,0.,1.));
#924 = ORIENTED_EDGE('',*,*,#925,.T.);
#925 = EDGE_CURVE('',#918,#893,#926,.T.);
#926 = LINE('',#927,#928);
#927 = CARTESIAN_POINT('',(16.622859833793,21.276290347381,6.));
#928 = VECTOR('',#929,1.);
#929 = DIRECTION('',(-0.877591061845,-0.479409979215,0.));
#930 = ORIENTED_EDGE('',*,*,#892,.F.);
#931 = ORIENTED_EDGE('',*,*,#932,.F.);
#932 = EDGE_CURVE('',#916,#885,#933,.T.);
#933 = LINE('',#934,#935);
#934 = CARTESIAN_POINT('',(16.622859833793,21.276290347381,0.));
#935 = VECTOR('',#936,1.);
#936 = DIRECTION('',(-0.877591061845,-0.479409979215,0.));
#937 = PLANE('',#938);
#938 = AXIS2_PLACEMENT_3D('',#939,#940,#941);
#939 = CARTESIAN_POINT('',(16.622859833793,21.276290347381,0.));
#940 = DIRECTION('',(0.479409979215,-0.877591061845,0.));
#941 = DIRECTION('',(-0.877591061845,-0.479409979215,0.));
#942 = ADVANCED_FACE('',(#943),#959,.F.);
#943 = FACE_BOUND('',#944,.F.);
#944 = EDGE_LOOP('',(#945,#946,#952,#953));
#945 = ORIENTED_EDGE('',*,*,#789,.T.);
#946 = ORIENTED_EDGE('',*,*,#947,.T.);
#947 = EDGE_CURVE('',#782,#918,#948,.T.);
#948 = LINE('',#949,#950);
#949 = CARTESIAN_POINT('',(21.213203435596,21.213203435596,6.));
#950 = VECTOR('',#951,1.);
#951 = DIRECTION('',(-0.999905572904,1.374209866259E-02,0.));
#952 = ORIENTED_EDGE('',*,*,#915,.F.);
#953 = ORIENTED_EDGE('',*,*,#954,.F.);
#954 = EDGE_CURVE('',#790,#916,#955,.T.);
#955 = LINE('',#956,#957);
#956 = CARTESIAN_POINT('',(21.213203435596,21.213203435596,0.));
#957 = VECTOR('',#958,1.);
#958 = DIRECTION('',(-0.999905572904,1.374209866259E-02,0.));
#959 = PLANE('',#960);
#960 = AXIS2_PLACEMENT_3D('',#961,#962,#963);
#961 = CARTESIAN_POINT('',(21.213203435596,21.213203435596,0.));
#962 = DIRECTION('',(-1.374209866259E-02,-0.999905572904,0.));
#963 = DIRECTION('',(-0.999905572904,1.374209866259E-02,0.));
#964 = ADVANCED_FACE('',(#965),#990,.F.);
#965 = FACE_BOUND('',#966,.F.);
#966 = EDGE_LOOP('',(#967,#977,#983,#984));
#967 = ORIENTED_EDGE('',*,*,#968,.T.);
#968 = EDGE_CURVE('',#969,#971,#973,.T.);
#969 = VERTEX_POINT('',#970);
#970 = CARTESIAN_POINT('',(21.276290347381,-16.62285983379,0.));
#971 = VERTEX_POINT('',#972);
#972 = CARTESIAN_POINT('',(21.276290347381,-16.62285983379,6.));
#973 = LINE('',#974,#975);
#974 = CARTESIAN_POINT('',(21.276290347381,-16.62285983379,0.));
#975 = VECTOR('',#976,1.);
#976 = DIRECTION('',(0.,0.,1.));
#977 = ORIENTED_EDGE('',*,*,#978,.T.);
#978 = EDGE_CURVE('',#971,#727,#979,.T.);
#979 = LINE('',#980,#981);
#980 = CARTESIAN_POINT('',(21.276290347381,-16.62285983379,6.));
#981 = VECTOR('',#982,1.);
#982 = DIRECTION('',(-0.479409979215,0.877591061845,0.));
#983 = ORIENTED_EDGE('',*,*,#726,.F.);
#984 = ORIENTED_EDGE('',*,*,#985,.F.);
#985 = EDGE_CURVE('',#969,#719,#986,.T.);
#986 = LINE('',#987,#988);
#987 = CARTESIAN_POINT('',(21.276290347381,-16.62285983379,0.));
#988 = VECTOR('',#989,1.);
#989 = DIRECTION('',(-0.479409979215,0.877591061845,0.));
#990 = PLANE('',#991);
#991 = AXIS2_PLACEMENT_3D('',#992,#993,#994);
#992 = CARTESIAN_POINT('',(21.276290347381,-16.62285983379,0.));
#993 = DIRECTION('',(-0.877591061845,-0.479409979215,0.));
#994 = DIRECTION('',(-0.479409979215,0.877591061845,0.));
#995 = ADVANCED_FACE('',(#996),#1021,.F.);
#996 = FACE_BOUND('',#997,.F.);
#997 = EDGE_LOOP('',(#998,#1008,#1014,#1015));
#998 = ORIENTED_EDGE('',*,*,#999,.T.);
#999 = EDGE_CURVE('',#1000,#1002,#1004,.T.);
#1000 = VERTEX_POINT('',#1001);
#1001 = CARTESIAN_POINT('',(21.213203435596,-21.21320343559,0.));
#1002 = VERTEX_POINT('',#1003);
#1003 = CARTESIAN_POINT('',(21.213203435596,-21.21320343559,6.));
#1004 = LINE('',#1005,#1006);
#1005 = CARTESIAN_POINT('',(21.213203435596,-21.21320343559,0.));
#1006 = VECTOR('',#1007,1.);
#1007 = DIRECTION('',(0.,0.,1.));
#1008 = ORIENTED_EDGE('',*,*,#1009,.T.);
#1009 = EDGE_CURVE('',#1002,#971,#1010,.T.);
#1010 = LINE('',#1011,#1012);
#1011 = CARTESIAN_POINT('',(21.213203435596,-21.21320343559,6.));
#1012 = VECTOR('',#1013,1.);
#1013 = DIRECTION('',(1.374209866259E-02,0.999905572904,0.));
#1014 = ORIENTED_EDGE('',*,*,#968,.F.);
#1015 = ORIENTED_EDGE('',*,*,#1016,.F.);
#1016 = EDGE_CURVE('',#1000,#969,#1017,.T.);
#1017 = LINE('',#1018,#1019);
#1018 = CARTESIAN_POINT('',(21.213203435596,-21.21320343559,0.));
#1019 = VECTOR('',#1020,1.);
#1020 = DIRECTION('',(1.374209866259E-02,0.999905572904,0.));
#1021 = PLANE('',#1022);
#1022 = AXIS2_PLACEMENT_3D('',#1023,#1024,#1025);
#1023 = CARTESIAN_POINT('',(21.213203435596,-21.21320343559,0.));
#1024 = DIRECTION('',(-0.999905572904,1.374209866259E-02,0.));
#1025 = DIRECTION('',(1.374209866259E-02,0.999905572904,0.));
#1026 = ADVANCED_FACE('',(#1027),#1043,.F.);
#1027 = FACE_BOUND('',#1028,.F.);
#1028 = EDGE_LOOP('',(#1029,#1030,#1036,#1037));
#1029 = ORIENTED_EDGE('',*,*,#404,.T.);
#1030 = ORIENTED_EDGE('',*,*,#1031,.T.);
#1031 = EDGE_CURVE('',#397,#1002,#1032,.T.);
#1032 = LINE('',#1033,#1034);
#1033 = CARTESIAN_POINT('',(19.878601446472,-22.46867162367,6.));
#1034 = VECTOR('',#1035,1.);
#1035 = DIRECTION('',(0.728370969882,0.685182990326,0.));
#1036 = ORIENTED_EDGE('',*,*,#999,.F.);
#1037 = ORIENTED_EDGE('',*,*,#1038,.F.);
#1038 = EDGE_CURVE('',#405,#1000,#1039,.T.);
#1039 = LINE('',#1040,#1041);
#1040 = CARTESIAN_POINT('',(19.878601446472,-22.46867162367,0.));
#1041 = VECTOR('',#1042,1.);
#1042 = DIRECTION('',(0.728370969882,0.685182990326,0.));
#1043 = PLANE('',#1044);
#1044 = AXIS2_PLACEMENT_3D('',#1045,#1046,#1047);
#1045 = CARTESIAN_POINT('',(19.878601446472,-22.46867162367,0.));
#1046 = DIRECTION('',(-0.685182990326,0.728370969882,0.));
#1047 = DIRECTION('',(0.728370969882,0.685182990326,0.));
#1048 = ADVANCED_FACE('',(#1049),#1074,.F.);
#1049 = FACE_BOUND('',#1050,.F.);
#1050 = EDGE_LOOP('',(#1051,#1052,#1060,#1068));
#1051 = ORIENTED_EDGE('',*,*,#870,.T.);
#1052 = ORIENTED_EDGE('',*,*,#1053,.T.);
#1053 = EDGE_CURVE('',#863,#1054,#1056,.T.);
#1054 = VERTEX_POINT('',#1055);
#1055 = CARTESIAN_POINT('',(1.831456186046,29.944043952656,6.));
#1056 = LINE('',#1057,#1058);
#1057 = CARTESIAN_POINT('',(4.574057197991,21.519247216144,6.));
#1058 = VECTOR('',#1059,1.);
#1059 = DIRECTION('',(-0.309549710933,0.950883261216,0.));
#1060 = ORIENTED_EDGE('',*,*,#1061,.F.);
#1061 = EDGE_CURVE('',#1062,#1054,#1064,.T.);
#1062 = VERTEX_POINT('',#1063);
#1063 = CARTESIAN_POINT('',(1.831456186046,29.944043952656,0.));
#1064 = LINE('',#1065,#1066);
#1065 = CARTESIAN_POINT('',(1.831456186046,29.944043952656,0.));
#1066 = VECTOR('',#1067,1.);
#1067 = DIRECTION('',(0.,0.,1.));
#1068 = ORIENTED_EDGE('',*,*,#1069,.F.);
#1069 = EDGE_CURVE('',#854,#1062,#1070,.T.);
#1070 = LINE('',#1071,#1072);
#1071 = CARTESIAN_POINT('',(4.574057197991,21.519247216144,0.));
#1072 = VECTOR('',#1073,1.);
#1073 = DIRECTION('',(-0.309549710933,0.950883261216,0.));
#1074 = PLANE('',#1075);
#1075 = AXIS2_PLACEMENT_3D('',#1076,#1077,#1078);
#1076 = CARTESIAN_POINT('',(4.574057197991,21.519247216144,0.));
#1077 = DIRECTION('',(-0.950883261216,-0.309549710933,0.));
#1078 = DIRECTION('',(-0.309549710933,0.950883261216,0.));
#1079 = ADVANCED_FACE('',(#1080),#1105,.F.);
#1080 = FACE_BOUND('',#1081,.F.);
#1081 = EDGE_LOOP('',(#1082,#1083,#1091,#1099));
#1082 = ORIENTED_EDGE('',*,*,#1061,.T.);
#1083 = ORIENTED_EDGE('',*,*,#1084,.T.);
#1084 = EDGE_CURVE('',#1054,#1085,#1087,.T.);
#1085 = VERTEX_POINT('',#1086);
#1086 = CARTESIAN_POINT('',(1.836970198721E-15,30.,6.));
#1087 = LINE('',#1088,#1089);
#1088 = CARTESIAN_POINT('',(1.831456186046,29.944043952656,6.));
#1089 = VECTOR('',#1090,1.);
#1090 = DIRECTION('',(-0.999533590837,3.053851320982E-02,0.));
#1091 = ORIENTED_EDGE('',*,*,#1092,.F.);
#1092 = EDGE_CURVE('',#1093,#1085,#1095,.T.);
#1093 = VERTEX_POINT('',#1094);
#1094 = CARTESIAN_POINT('',(1.836970198721E-15,30.,0.));
#1095 = LINE('',#1096,#1097);
#1096 = CARTESIAN_POINT('',(1.836970198721E-15,30.,0.));
#1097 = VECTOR('',#1098,1.);
#1098 = DIRECTION('',(0.,0.,1.));
#1099 = ORIENTED_EDGE('',*,*,#1100,.F.);
#1100 = EDGE_CURVE('',#1062,#1093,#1101,.T.);
#1101 = LINE('',#1102,#1103);
#1102 = CARTESIAN_POINT('',(1.831456186046,29.944043952656,0.));
#1103 = VECTOR('',#1104,1.);
#1104 = DIRECTION('',(-0.999533590837,3.053851320982E-02,0.));
#1105 = PLANE('',#1106);
#1106 = AXIS2_PLACEMENT_3D('',#1107,#1108,#1109);
#1107 = CARTESIAN_POINT('',(1.831456186046,29.944043952656,0.));
#1108 = DIRECTION('',(-3.053851320982E-02,-0.999533590837,0.));
#1109 = DIRECTION('',(-0.999533590837,3.053851320982E-02,0.));
#1110 = ADVANCED_FACE('',(#1111),#1147,.T.);
#1111 = FACE_BOUND('',#1112,.T.);
#1112 = EDGE_LOOP('',(#1113,#1124,#1132,#1141));
#1113 = ORIENTED_EDGE('',*,*,#1114,.F.);
#1114 = EDGE_CURVE('',#1115,#1117,#1119,.T.);
#1115 = VERTEX_POINT('',#1116);
#1116 = CARTESIAN_POINT('',(-6.113066737397,17.989730822448,6.));
#1117 = VERTEX_POINT('',#1118);
#1118 = CARTESIAN_POINT('',(-8.873524106885,16.800612188981,6.));
#1119 = CIRCLE('',#1120,19.);
#1120 = AXIS2_PLACEMENT_3D('',#1121,#1122,#1123);
#1121 = CARTESIAN_POINT('',(0.,0.,6.));
#1122 = DIRECTION('',(0.,0.,1.));
#1123 = DIRECTION('',(1.,0.,0.));
#1124 = ORIENTED_EDGE('',*,*,#1125,.F.);
#1125 = EDGE_CURVE('',#1126,#1115,#1128,.T.);
#1126 = VERTEX_POINT('',#1127);
#1127 = CARTESIAN_POINT('',(-6.113066737397,17.989730822448,0.));
#1128 = LINE('',#1129,#1130);
#1129 = CARTESIAN_POINT('',(-6.113066737397,17.989730822448,0.));
#1130 = VECTOR('',#1131,1.);
#1131 = DIRECTION('',(0.,0.,1.));
#1132 = ORIENTED_EDGE('',*,*,#1133,.T.);
#1133 = EDGE_CURVE('',#1126,#1134,#1136,.T.);
#1134 = VERTEX_POINT('',#1135);
#1135 = CARTESIAN_POINT('',(-8.873524106885,16.800612188981,0.));
#1136 = CIRCLE('',#1137,19.);
#1137 = AXIS2_PLACEMENT_3D('',#1138,#1139,#1140);
#1138 = CARTESIAN_POINT('',(0.,0.,0.));
#1139 = DIRECTION('',(0.,0.,1.));
#1140 = DIRECTION('',(1.,0.,0.));
#1141 = ORIENTED_EDGE('',*,*,#1142,.T.);
#1142 = EDGE_CURVE('',#1134,#1117,#1143,.T.);
#1143 = LINE('',#1144,#1145);
#1144 = CARTESIAN_POINT('',(-8.873524106884,16.800612188981,0.));
#1145 = VECTOR('',#1146,1.);
#1146 = DIRECTION('',(0.,0.,1.));
#1147 = CYLINDRICAL_SURFACE('',#1148,19.);
#1148 = AXIS2_PLACEMENT_3D('',#1149,#1150,#1151);
#1149 = CARTESIAN_POINT('',(0.,0.,0.));
#1150 = DIRECTION('',(0.,0.,1.));
#1151 = DIRECTION('',(1.,0.,0.));
#1152 = ADVANCED_FACE('',(#1153),#1178,.F.);
#1153 = FACE_BOUND('',#1154,.F.);
#1154 = EDGE_LOOP('',(#1155,#1163,#1164,#1172));
#1155 = ORIENTED_EDGE('',*,*,#1156,.F.);
#1156 = EDGE_CURVE('',#1134,#1157,#1159,.T.);
#1157 = VERTEX_POINT('',#1158);
#1158 = CARTESIAN_POINT('',(-11.98205877033,18.450752494799,0.));
#1159 = LINE('',#1160,#1161);
#1160 = CARTESIAN_POINT('',(-8.444223295156,16.572721349904,0.));
#1161 = VECTOR('',#1162,1.);
#1162 = DIRECTION('',(-0.883265036704,0.468874050184,0.));
#1163 = ORIENTED_EDGE('',*,*,#1142,.T.);
#1164 = ORIENTED_EDGE('',*,*,#1165,.T.);
#1165 = EDGE_CURVE('',#1117,#1166,#1168,.T.);
#1166 = VERTEX_POINT('',#1167);
#1167 = CARTESIAN_POINT('',(-11.98205877033,18.450752494799,6.));
#1168 = LINE('',#1169,#1170);
#1169 = CARTESIAN_POINT('',(-8.444223295156,16.572721349904,6.));
#1170 = VECTOR('',#1171,1.);
#1171 = DIRECTION('',(-0.883265036704,0.468874050184,0.));
#1172 = ORIENTED_EDGE('',*,*,#1173,.F.);
#1173 = EDGE_CURVE('',#1157,#1166,#1174,.T.);
#1174 = LINE('',#1175,#1176);
#1175 = CARTESIAN_POINT('',(-11.98205877033,18.450752494799,0.));
#1176 = VECTOR('',#1177,1.);
#1177 = DIRECTION('',(0.,0.,1.));
#1178 = PLANE('',#1179);
#1179 = AXIS2_PLACEMENT_3D('',#1180,#1181,#1182);
#1180 = CARTESIAN_POINT('',(-8.444223295156,16.572721349904,0.));
#1181 = DIRECTION('',(-0.468874050184,-0.883265036704,0.));
#1182 = DIRECTION('',(-0.883265036704,0.468874050184,0.));
#1183 = ADVANCED_FACE('',(#1184),#1209,.F.);
#1184 = FACE_BOUND('',#1185,.F.);
#1185 = EDGE_LOOP('',(#1186,#1194,#1202,#1208));
#1186 = ORIENTED_EDGE('',*,*,#1187,.F.);
#1187 = EDGE_CURVE('',#1188,#1126,#1190,.T.);
#1188 = VERTEX_POINT('',#1189);
#1189 = CARTESIAN_POINT('',(-5.51274711634,19.225233918766,0.));
#1190 = LINE('',#1191,#1192);
#1191 = CARTESIAN_POINT('',(-5.51274711634,19.225233918766,0.));
#1192 = VECTOR('',#1193,1.);
#1193 = DIRECTION('',(-0.437032436977,-0.899445745462,0.));
#1194 = ORIENTED_EDGE('',*,*,#1195,.T.);
#1195 = EDGE_CURVE('',#1188,#1196,#1198,.T.);
#1196 = VERTEX_POINT('',#1197);
#1197 = CARTESIAN_POINT('',(-5.51274711634,19.225233918766,6.));
#1198 = LINE('',#1199,#1200);
#1199 = CARTESIAN_POINT('',(-5.51274711634,19.225233918766,0.));
#1200 = VECTOR('',#1201,1.);
#1201 = DIRECTION('',(0.,0.,1.));
#1202 = ORIENTED_EDGE('',*,*,#1203,.T.);
#1203 = EDGE_CURVE('',#1196,#1115,#1204,.T.);
#1204 = LINE('',#1205,#1206);
#1205 = CARTESIAN_POINT('',(-5.51274711634,19.225233918766,6.));
#1206 = VECTOR('',#1207,1.);
#1207 = DIRECTION('',(-0.437032436977,-0.899445745462,0.));
#1208 = ORIENTED_EDGE('',*,*,#1125,.F.);
#1209 = PLANE('',#1210);
#1210 = AXIS2_PLACEMENT_3D('',#1211,#1212,#1213);
#1211 = CARTESIAN_POINT('',(-5.51274711634,19.225233918766,0.));
#1212 = DIRECTION('',(0.899445745462,-0.437032436977,0.));
#1213 = DIRECTION('',(-0.437032436977,-0.899445745462,0.));
#1214 = ADVANCED_FACE('',(#1215),#1240,.F.);
#1215 = FACE_BOUND('',#1216,.F.);
#1216 = EDGE_LOOP('',(#1217,#1227,#1233,#1234));
#1217 = ORIENTED_EDGE('',*,*,#1218,.T.);
#1218 = EDGE_CURVE('',#1219,#1221,#1223,.T.);
#1219 = VERTEX_POINT('',#1220);
#1220 = CARTESIAN_POINT('',(-3.290472271939,26.798746094316,0.));
#1221 = VERTEX_POINT('',#1222);
#1222 = CARTESIAN_POINT('',(-3.290472271939,26.798746094316,6.));
#1223 = LINE('',#1224,#1225);
#1224 = CARTESIAN_POINT('',(-3.290472271939,26.798746094316,0.));
#1225 = VECTOR('',#1226,1.);
#1226 = DIRECTION('',(0.,0.,1.));
#1227 = ORIENTED_EDGE('',*,*,#1228,.T.);
#1228 = EDGE_CURVE('',#1221,#1196,#1229,.T.);
#1229 = LINE('',#1230,#1231);
#1230 = CARTESIAN_POINT('',(-3.290472271939,26.798746094316,6.));
#1231 = VECTOR('',#1232,1.);
#1232 = DIRECTION('',(-0.281556543668,-0.95954463821,0.));
#1233 = ORIENTED_EDGE('',*,*,#1195,.F.);
#1234 = ORIENTED_EDGE('',*,*,#1235,.F.);
#1235 = EDGE_CURVE('',#1219,#1188,#1236,.T.);
#1236 = LINE('',#1237,#1238);
#1237 = CARTESIAN_POINT('',(-3.290472271939,26.798746094316,0.));
#1238 = VECTOR('',#1239,1.);
#1239 = DIRECTION('',(-0.281556543668,-0.95954463821,0.));
#1240 = PLANE('',#1241);
#1241 = AXIS2_PLACEMENT_3D('',#1242,#1243,#1244);
#1242 = CARTESIAN_POINT('',(-3.290472271939,26.798746094316,0.));
#1243 = DIRECTION('',(0.95954463821,-0.281556543668,0.));
#1244 = DIRECTION('',(-0.281556543668,-0.95954463821,0.));
#1245 = ADVANCED_FACE('',(#1246),#1262,.F.);
#1246 = FACE_BOUND('',#1247,.F.);
#1247 = EDGE_LOOP('',(#1248,#1249,#1255,#1256));
#1248 = ORIENTED_EDGE('',*,*,#1092,.T.);
#1249 = ORIENTED_EDGE('',*,*,#1250,.T.);
#1250 = EDGE_CURVE('',#1085,#1221,#1251,.T.);
#1251 = LINE('',#1252,#1253);
#1252 = CARTESIAN_POINT('',(1.836970198721E-15,30.,6.));
#1253 = VECTOR('',#1254,1.);
#1254 = DIRECTION('',(-0.716757142299,-0.697322879995,0.));
#1255 = ORIENTED_EDGE('',*,*,#1218,.F.);
#1256 = ORIENTED_EDGE('',*,*,#1257,.F.);
#1257 = EDGE_CURVE('',#1093,#1219,#1258,.T.);
#1258 = LINE('',#1259,#1260);
#1259 = CARTESIAN_POINT('',(1.836970198721E-15,30.,0.));
#1260 = VECTOR('',#1261,1.);
#1261 = DIRECTION('',(-0.716757142299,-0.697322879995,0.));
#1262 = PLANE('',#1263);
#1263 = AXIS2_PLACEMENT_3D('',#1264,#1265,#1266);
#1264 = CARTESIAN_POINT('',(1.836970198721E-15,30.,0.));
#1265 = DIRECTION('',(0.697322879995,-0.716757142299,0.));
#1266 = DIRECTION('',(-0.716757142299,-0.697322879995,0.));
#1267 = ADVANCED_FACE('',(#1268),#1293,.F.);
#1268 = FACE_BOUND('',#1269,.F.);
#1269 = EDGE_LOOP('',(#1270,#1280,#1286,#1287));
#1270 = ORIENTED_EDGE('',*,*,#1271,.T.);
#1271 = EDGE_CURVE('',#1272,#1274,#1276,.T.);
#1272 = VERTEX_POINT('',#1273);
#1273 = CARTESIAN_POINT('',(3.290472271939,-26.79874609431,0.));
#1274 = VERTEX_POINT('',#1275);
#1275 = CARTESIAN_POINT('',(3.290472271939,-26.79874609431,6.));
#1276 = LINE('',#1277,#1278);
#1277 = CARTESIAN_POINT('',(3.290472271939,-26.79874609431,0.));
#1278 = VECTOR('',#1279,1.);
#1279 = DIRECTION('',(0.,0.,1.));
#1280 = ORIENTED_EDGE('',*,*,#1281,.T.);
#1281 = EDGE_CURVE('',#1274,#373,#1282,.T.);
#1282 = LINE('',#1283,#1284);
#1283 = CARTESIAN_POINT('',(3.290472271939,-26.79874609431,6.));
#1284 = VECTOR('',#1285,1.);
#1285 = DIRECTION('',(0.281556543668,0.95954463821,0.));
#1286 = ORIENTED_EDGE('',*,*,#372,.F.);
#1287 = ORIENTED_EDGE('',*,*,#1288,.F.);
#1288 = EDGE_CURVE('',#1272,#365,#1289,.T.);
#1289 = LINE('',#1290,#1291);
#1290 = CARTESIAN_POINT('',(3.290472271939,-26.79874609431,0.));
#1291 = VECTOR('',#1292,1.);
#1292 = DIRECTION('',(0.281556543668,0.95954463821,0.));
#1293 = PLANE('',#1294);
#1294 = AXIS2_PLACEMENT_3D('',#1295,#1296,#1297);
#1295 = CARTESIAN_POINT('',(3.290472271939,-26.79874609431,0.));
#1296 = DIRECTION('',(-0.95954463821,0.281556543668,0.));
#1297 = DIRECTION('',(0.281556543668,0.95954463821,0.));
#1298 = ADVANCED_FACE('',(#1299),#1324,.F.);
#1299 = FACE_BOUND('',#1300,.F.);
#1300 = EDGE_LOOP('',(#1301,#1311,#1317,#1318));
#1301 = ORIENTED_EDGE('',*,*,#1302,.T.);
#1302 = EDGE_CURVE('',#1303,#1305,#1307,.T.);
#1303 = VERTEX_POINT('',#1304);
#1304 = CARTESIAN_POINT('',(-5.510910596163E-15,-30.,0.));
#1305 = VERTEX_POINT('',#1306);
#1306 = CARTESIAN_POINT('',(-5.510910596163E-15,-30.,6.));
#1307 = LINE('',#1308,#1309);
#1308 = CARTESIAN_POINT('',(-5.510910596163E-15,-30.,0.));
#1309 = VECTOR('',#1310,1.);
#1310 = DIRECTION('',(0.,0.,1.));
#1311 = ORIENTED_EDGE('',*,*,#1312,.T.);
#1312 = EDGE_CURVE('',#1305,#1274,#1313,.T.);
#1313 = LINE('',#1314,#1315);
#1314 = CARTESIAN_POINT('',(-5.510910596163E-15,-30.,6.));
#1315 = VECTOR('',#1316,1.);
#1316 = DIRECTION('',(0.716757142299,0.697322879995,0.));
#1317 = ORIENTED_EDGE('',*,*,#1271,.F.);
#1318 = ORIENTED_EDGE('',*,*,#1319,.F.);
#1319 = EDGE_CURVE('',#1303,#1272,#1320,.T.);
#1320 = LINE('',#1321,#1322);
#1321 = CARTESIAN_POINT('',(-5.510910596163E-15,-30.,0.));
#1322 = VECTOR('',#1323,1.);
#1323 = DIRECTION('',(0.716757142299,0.697322879995,0.));
#1324 = PLANE('',#1325);
#1325 = AXIS2_PLACEMENT_3D('',#1326,#1327,#1328);
#1326 = CARTESIAN_POINT('',(-5.510910596163E-15,-30.,0.));
#1327 = DIRECTION('',(-0.697322879995,0.716757142299,0.));
#1328 = DIRECTION('',(0.716757142299,0.697322879995,0.));
#1329 = ADVANCED_FACE('',(#1330),#1346,.F.);
#1330 = FACE_BOUND('',#1331,.F.);
#1331 = EDGE_LOOP('',(#1332,#1333,#1339,#1340));
#1332 = ORIENTED_EDGE('',*,*,#269,.T.);
#1333 = ORIENTED_EDGE('',*,*,#1334,.T.);
#1334 = EDGE_CURVE('',#262,#1305,#1335,.T.);
#1335 = LINE('',#1336,#1337);
#1336 = CARTESIAN_POINT('',(-1.831456186046,-29.94404395265,6.));
#1337 = VECTOR('',#1338,1.);
#1338 = DIRECTION('',(0.999533590837,-3.053851320982E-02,0.));
#1339 = ORIENTED_EDGE('',*,*,#1302,.F.);
#1340 = ORIENTED_EDGE('',*,*,#1341,.F.);
#1341 = EDGE_CURVE('',#270,#1303,#1342,.T.);
#1342 = LINE('',#1343,#1344);
#1343 = CARTESIAN_POINT('',(-1.831456186046,-29.94404395265,0.));
#1344 = VECTOR('',#1345,1.);
#1345 = DIRECTION('',(0.999533590837,-3.053851320982E-02,0.));
#1346 = PLANE('',#1347);
#1347 = AXIS2_PLACEMENT_3D('',#1348,#1349,#1350);
#1348 = CARTESIAN_POINT('',(-1.831456186046,-29.94404395265,0.));
#1349 = DIRECTION('',(3.053851320982E-02,0.999533590837,0.));
#1350 = DIRECTION('',(0.999533590837,-3.053851320982E-02,0.));
#1351 = ADVANCED_FACE('',(#1352),#1377,.F.);
#1352 = FACE_BOUND('',#1353,.F.);
#1353 = EDGE_LOOP('',(#1354,#1355,#1363,#1371));
#1354 = ORIENTED_EDGE('',*,*,#1173,.T.);
#1355 = ORIENTED_EDGE('',*,*,#1356,.T.);
#1356 = EDGE_CURVE('',#1166,#1357,#1359,.T.);
#1357 = VERTEX_POINT('',#1358);
#1358 = CARTESIAN_POINT('',(-19.87860144647,22.46867162367,6.));
#1359 = LINE('',#1360,#1361);
#1360 = CARTESIAN_POINT('',(-11.98205877033,18.450752494799,6.));
#1361 = VECTOR('',#1362,1.);
#1362 = DIRECTION('',(-0.891260701838,0.453491302408,0.));
#1363 = ORIENTED_EDGE('',*,*,#1364,.F.);
#1364 = EDGE_CURVE('',#1365,#1357,#1367,.T.);
#1365 = VERTEX_POINT('',#1366);
#1366 = CARTESIAN_POINT('',(-19.87860144647,22.46867162367,0.));
#1367 = LINE('',#1368,#1369);
#1368 = CARTESIAN_POINT('',(-19.87860144647,22.46867162367,0.));
#1369 = VECTOR('',#1370,1.);
#1370 = DIRECTION('',(0.,0.,1.));
#1371 = ORIENTED_EDGE('',*,*,#1372,.F.);
#1372 = EDGE_CURVE('',#1157,#1365,#1373,.T.);
#1373 = LINE('',#1374,#1375);
#1374 = CARTESIAN_POINT('',(-11.98205877033,18.450752494799,0.));
#1375 = VECTOR('',#1376,1.);
#1376 = DIRECTION('',(-0.891260701838,0.453491302408,0.));
#1377 = PLANE('',#1378);
#1378 = AXIS2_PLACEMENT_3D('',#1379,#1380,#1381);
#1379 = CARTESIAN_POINT('',(-11.98205877033,18.450752494799,0.));
#1380 = DIRECTION('',(-0.453491302408,-0.891260701838,0.));
#1381 = DIRECTION('',(-0.891260701838,0.453491302408,0.));
#1382 = ADVANCED_FACE('',(#1383),#1408,.F.);
#1383 = FACE_BOUND('',#1384,.F.);
#1384 = EDGE_LOOP('',(#1385,#1386,#1394,#1402));
#1385 = ORIENTED_EDGE('',*,*,#1364,.T.);
#1386 = ORIENTED_EDGE('',*,*,#1387,.T.);
#1387 = EDGE_CURVE('',#1357,#1388,#1390,.T.);
#1388 = VERTEX_POINT('',#1389);
#1389 = CARTESIAN_POINT('',(-21.21320343559,21.213203435596,6.));
#1390 = LINE('',#1391,#1392);
#1391 = CARTESIAN_POINT('',(-19.87860144647,22.46867162367,6.));
#1392 = VECTOR('',#1393,1.);
#1393 = DIRECTION('',(-0.728370969882,-0.685182990326,0.));
#1394 = ORIENTED_EDGE('',*,*,#1395,.F.);
#1395 = EDGE_CURVE('',#1396,#1388,#1398,.T.);
#1396 = VERTEX_POINT('',#1397);
#1397 = CARTESIAN_POINT('',(-21.21320343559,21.213203435596,0.));
#1398 = LINE('',#1399,#1400);
#1399 = CARTESIAN_POINT('',(-21.21320343559,21.213203435596,0.));
#1400 = VECTOR('',#1401,1.);
#1401 = DIRECTION('',(0.,0.,1.));
#1402 = ORIENTED_EDGE('',*,*,#1403,.F.);
#1403 = EDGE_CURVE('',#1365,#1396,#1404,.T.);
#1404 = LINE('',#1405,#1406);
#1405 = CARTESIAN_POINT('',(-19.87860144647,22.46867162367,0.));
#1406 = VECTOR('',#1407,1.);
#1407 = DIRECTION('',(-0.728370969882,-0.685182990326,0.));
#1408 = PLANE('',#1409);
#1409 = AXIS2_PLACEMENT_3D('',#1410,#1411,#1412);
#1410 = CARTESIAN_POINT('',(-19.87860144647,22.46867162367,0.));
#1411 = DIRECTION('',(0.685182990326,-0.728370969882,0.));
#1412 = DIRECTION('',(-0.728370969882,-0.685182990326,0.));
#1413 = ADVANCED_FACE('',(#1414),#1450,.T.);
#1414 = FACE_BOUND('',#1415,.T.);
#1415 = EDGE_LOOP('',(#1416,#1427,#1435,#1444));
#1416 = ORIENTED_EDGE('',*,*,#1417,.F.);
#1417 = EDGE_CURVE('',#1418,#1420,#1422,.T.);
#1418 = VERTEX_POINT('',#1419);
#1419 = CARTESIAN_POINT('',(-17.04325160013,8.398069712415,6.));
#1420 = VERTEX_POINT('',#1421);
#1421 = CARTESIAN_POINT('',(-18.15435587591,5.605297737914,6.));
#1422 = CIRCLE('',#1423,19.);
#1423 = AXIS2_PLACEMENT_3D('',#1424,#1425,#1426);
#1424 = CARTESIAN_POINT('',(0.,0.,6.));
#1425 = DIRECTION('',(0.,0.,1.));
#1426 = DIRECTION('',(1.,0.,0.));
#1427 = ORIENTED_EDGE('',*,*,#1428,.F.);
#1428 = EDGE_CURVE('',#1429,#1418,#1431,.T.);
#1429 = VERTEX_POINT('',#1430);
#1430 = CARTESIAN_POINT('',(-17.04325160013,8.398069712415,0.));
#1431 = LINE('',#1432,#1433);
#1432 = CARTESIAN_POINT('',(-17.04325160013,8.398069712414,0.));
#1433 = VECTOR('',#1434,1.);
#1434 = DIRECTION('',(0.,0.,1.));
#1435 = ORIENTED_EDGE('',*,*,#1436,.T.);
#1436 = EDGE_CURVE('',#1429,#1437,#1439,.T.);
#1437 = VERTEX_POINT('',#1438);
#1438 = CARTESIAN_POINT('',(-18.15435587591,5.605297737914,0.));
#1439 = CIRCLE('',#1440,19.);
#1440 = AXIS2_PLACEMENT_3D('',#1441,#1442,#1443);
#1441 = CARTESIAN_POINT('',(0.,0.,0.));
#1442 = DIRECTION('',(0.,0.,1.));
#1443 = DIRECTION('',(1.,0.,0.));
#1444 = ORIENTED_EDGE('',*,*,#1445,.T.);
#1445 = EDGE_CURVE('',#1437,#1420,#1446,.T.);
#1446 = LINE('',#1447,#1448);
#1447 = CARTESIAN_POINT('',(-18.15435587591,5.605297737914,0.));
#1448 = VECTOR('',#1449,1.);
#1449 = DIRECTION('',(0.,0.,1.));
#1450 = CYLINDRICAL_SURFACE('',#1451,19.);
#1451 = AXIS2_PLACEMENT_3D('',#1452,#1453,#1454);
#1452 = CARTESIAN_POINT('',(0.,0.,0.));
#1453 = DIRECTION('',(0.,0.,1.));
#1454 = DIRECTION('',(1.,0.,0.));
#1455 = ADVANCED_FACE('',(#1456),#1481,.F.);
#1456 = FACE_BOUND('',#1457,.F.);
#1457 = EDGE_LOOP('',(#1458,#1466,#1467,#1475));
#1458 = ORIENTED_EDGE('',*,*,#1459,.F.);
#1459 = EDGE_CURVE('',#1437,#1460,#1462,.T.);
#1460 = VERTEX_POINT('',#1461);
#1461 = CARTESIAN_POINT('',(-21.51924721614,4.574057197991,0.));
#1462 = LINE('',#1463,#1464);
#1463 = CARTESIAN_POINT('',(-17.68965120309,5.747716095374,0.));
#1464 = VECTOR('',#1465,1.);
#1465 = DIRECTION('',(-0.956106717446,-0.293018676631,0.));
#1466 = ORIENTED_EDGE('',*,*,#1445,.T.);
#1467 = ORIENTED_EDGE('',*,*,#1468,.T.);
#1468 = EDGE_CURVE('',#1420,#1469,#1471,.T.);
#1469 = VERTEX_POINT('',#1470);
#1470 = CARTESIAN_POINT('',(-21.51924721614,4.574057197991,6.));
#1471 = LINE('',#1472,#1473);
#1472 = CARTESIAN_POINT('',(-17.68965120309,5.747716095374,6.));
#1473 = VECTOR('',#1474,1.);
#1474 = DIRECTION('',(-0.956106717446,-0.293018676631,0.));
#1475 = ORIENTED_EDGE('',*,*,#1476,.F.);
#1476 = EDGE_CURVE('',#1460,#1469,#1477,.T.);
#1477 = LINE('',#1478,#1479);
#1478 = CARTESIAN_POINT('',(-21.51924721614,4.574057197991,0.));
#1479 = VECTOR('',#1480,1.);
#1480 = DIRECTION('',(0.,0.,1.));
#1481 = PLANE('',#1482);
#1482 = AXIS2_PLACEMENT_3D('',#1483,#1484,#1485);
#1483 = CARTESIAN_POINT('',(-17.68965120309,5.747716095374,0.));
#1484 = DIRECTION('',(0.293018676631,-0.956106717446,0.));
#1485 = DIRECTION('',(-0.956106717446,-0.293018676631,0.));
#1486 = ADVANCED_FACE('',(#1487),#1512,.F.);
#1487 = FACE_BOUND('',#1488,.F.);
#1488 = EDGE_LOOP('',(#1489,#1497,#1505,#1511));
#1489 = ORIENTED_EDGE('',*,*,#1490,.F.);
#1490 = EDGE_CURVE('',#1491,#1429,#1493,.T.);
#1491 = VERTEX_POINT('',#1492);
#1492 = CARTESIAN_POINT('',(-17.49239414278,9.696192404927,0.));
#1493 = LINE('',#1494,#1495);
#1494 = CARTESIAN_POINT('',(-17.49239414278,9.696192404927,0.));
#1495 = VECTOR('',#1496,1.);
#1496 = DIRECTION('',(0.32697558614,-0.945032785711,0.));
#1497 = ORIENTED_EDGE('',*,*,#1498,.T.);
#1498 = EDGE_CURVE('',#1491,#1499,#1501,.T.);
#1499 = VERTEX_POINT('',#1500);
#1500 = CARTESIAN_POINT('',(-17.49239414278,9.696192404927,6.));
#1501 = LINE('',#1502,#1503);
#1502 = CARTESIAN_POINT('',(-17.49239414278,9.696192404927,0.));
#1503 = VECTOR('',#1504,1.);
#1504 = DIRECTION('',(0.,0.,1.));
#1505 = ORIENTED_EDGE('',*,*,#1506,.T.);
#1506 = EDGE_CURVE('',#1499,#1418,#1507,.T.);
#1507 = LINE('',#1508,#1509);
#1508 = CARTESIAN_POINT('',(-17.49239414278,9.696192404927,6.));
#1509 = VECTOR('',#1510,1.);
#1510 = DIRECTION('',(0.32697558614,-0.945032785711,0.));
#1511 = ORIENTED_EDGE('',*,*,#1428,.F.);
#1512 = PLANE('',#1513);
#1513 = AXIS2_PLACEMENT_3D('',#1514,#1515,#1516);
#1514 = CARTESIAN_POINT('',(-17.49239414278,9.696192404927,0.));
#1515 = DIRECTION('',(0.945032785711,0.32697558614,0.));
#1516 = DIRECTION('',(0.32697558614,-0.945032785711,0.));
#1517 = ADVANCED_FACE('',(#1518),#1543,.F.);
#1518 = FACE_BOUND('',#1519,.F.);
#1519 = EDGE_LOOP('',(#1520,#1530,#1536,#1537));
#1520 = ORIENTED_EDGE('',*,*,#1521,.T.);
#1521 = EDGE_CURVE('',#1522,#1524,#1526,.T.);
#1522 = VERTEX_POINT('',#1523);
#1523 = CARTESIAN_POINT('',(-21.27629034738,16.622859833793,0.));
#1524 = VERTEX_POINT('',#1525);
#1525 = CARTESIAN_POINT('',(-21.27629034738,16.622859833793,6.));
#1526 = LINE('',#1527,#1528);
#1527 = CARTESIAN_POINT('',(-21.27629034738,16.622859833793,0.));
#1528 = VECTOR('',#1529,1.);
#1529 = DIRECTION('',(0.,0.,1.));
#1530 = ORIENTED_EDGE('',*,*,#1531,.T.);
#1531 = EDGE_CURVE('',#1524,#1499,#1532,.T.);
#1532 = LINE('',#1533,#1534);
#1533 = CARTESIAN_POINT('',(-21.27629034738,16.622859833793,6.));
#1534 = VECTOR('',#1535,1.);
#1535 = DIRECTION('',(0.479409979215,-0.877591061845,0.));
#1536 = ORIENTED_EDGE('',*,*,#1498,.F.);
#1537 = ORIENTED_EDGE('',*,*,#1538,.F.);
#1538 = EDGE_CURVE('',#1522,#1491,#1539,.T.);
#1539 = LINE('',#1540,#1541);
#1540 = CARTESIAN_POINT('',(-21.27629034738,16.622859833793,0.));
#1541 = VECTOR('',#1542,1.);
#1542 = DIRECTION('',(0.479409979215,-0.877591061845,0.));
#1543 = PLANE('',#1544);
#1544 = AXIS2_PLACEMENT_3D('',#1545,#1546,#1547);
#1545 = CARTESIAN_POINT('',(-21.27629034738,16.622859833793,0.));
#1546 = DIRECTION('',(0.877591061845,0.479409979215,0.));
#1547 = DIRECTION('',(0.479409979215,-0.877591061845,0.));
#1548 = ADVANCED_FACE('',(#1549),#1565,.F.);
#1549 = FACE_BOUND('',#1550,.F.);
#1550 = EDGE_LOOP('',(#1551,#1552,#1558,#1559));
#1551 = ORIENTED_EDGE('',*,*,#1395,.T.);
#1552 = ORIENTED_EDGE('',*,*,#1553,.T.);
#1553 = EDGE_CURVE('',#1388,#1524,#1554,.T.);
#1554 = LINE('',#1555,#1556);
#1555 = CARTESIAN_POINT('',(-21.21320343559,21.213203435596,6.));
#1556 = VECTOR('',#1557,1.);
#1557 = DIRECTION('',(-1.374209866259E-02,-0.999905572904,0.));
#1558 = ORIENTED_EDGE('',*,*,#1521,.F.);
#1559 = ORIENTED_EDGE('',*,*,#1560,.F.);
#1560 = EDGE_CURVE('',#1396,#1522,#1561,.T.);
#1561 = LINE('',#1562,#1563);
#1562 = CARTESIAN_POINT('',(-21.21320343559,21.213203435596,0.));
#1563 = VECTOR('',#1564,1.);
#1564 = DIRECTION('',(-1.374209866259E-02,-0.999905572904,0.));
#1565 = PLANE('',#1566);
#1566 = AXIS2_PLACEMENT_3D('',#1567,#1568,#1569);
#1567 = CARTESIAN_POINT('',(-21.21320343559,21.213203435596,0.));
#1568 = DIRECTION('',(0.999905572904,-1.374209866259E-02,0.));
#1569 = DIRECTION('',(-1.374209866259E-02,-0.999905572904,0.));
#1570 = ADVANCED_FACE('',(#1571),#1596,.F.);
#1571 = FACE_BOUND('',#1572,.F.);
#1572 = EDGE_LOOP('',(#1573,#1583,#1589,#1590));
#1573 = ORIENTED_EDGE('',*,*,#1574,.T.);
#1574 = EDGE_CURVE('',#1575,#1577,#1579,.T.);
#1575 = VERTEX_POINT('',#1576);
#1576 = CARTESIAN_POINT('',(-16.62285983379,-21.27629034738,0.));
#1577 = VERTEX_POINT('',#1578);
#1578 = CARTESIAN_POINT('',(-16.62285983379,-21.27629034738,6.));
#1579 = LINE('',#1580,#1581);
#1580 = CARTESIAN_POINT('',(-16.62285983379,-21.27629034738,0.));
#1581 = VECTOR('',#1582,1.);
#1582 = DIRECTION('',(0.,0.,1.));
#1583 = ORIENTED_EDGE('',*,*,#1584,.T.);
#1584 = EDGE_CURVE('',#1577,#238,#1585,.T.);
#1585 = LINE('',#1586,#1587);
#1586 = CARTESIAN_POINT('',(-16.62285983379,-21.27629034738,6.));
#1587 = VECTOR('',#1588,1.);
#1588 = DIRECTION('',(0.877591061845,0.479409979215,0.));
#1589 = ORIENTED_EDGE('',*,*,#237,.F.);
#1590 = ORIENTED_EDGE('',*,*,#1591,.F.);
#1591 = EDGE_CURVE('',#1575,#230,#1592,.T.);
#1592 = LINE('',#1593,#1594);
#1593 = CARTESIAN_POINT('',(-16.62285983379,-21.27629034738,0.));
#1594 = VECTOR('',#1595,1.);
#1595 = DIRECTION('',(0.877591061845,0.479409979215,0.));
#1596 = PLANE('',#1597);
#1597 = AXIS2_PLACEMENT_3D('',#1598,#1599,#1600);
#1598 = CARTESIAN_POINT('',(-16.62285983379,-21.27629034738,0.));
#1599 = DIRECTION('',(-0.479409979215,0.877591061845,0.));
#1600 = DIRECTION('',(0.877591061845,0.479409979215,0.));
#1601 = ADVANCED_FACE('',(#1602),#1627,.F.);
#1602 = FACE_BOUND('',#1603,.F.);
#1603 = EDGE_LOOP('',(#1604,#1614,#1620,#1621));
#1604 = ORIENTED_EDGE('',*,*,#1605,.T.);
#1605 = EDGE_CURVE('',#1606,#1608,#1610,.T.);
#1606 = VERTEX_POINT('',#1607);
#1607 = CARTESIAN_POINT('',(-21.21320343559,-21.21320343559,0.));
#1608 = VERTEX_POINT('',#1609);
#1609 = CARTESIAN_POINT('',(-21.21320343559,-21.21320343559,6.));
#1610 = LINE('',#1611,#1612);
#1611 = CARTESIAN_POINT('',(-21.21320343559,-21.21320343559,0.));
#1612 = VECTOR('',#1613,1.);
#1613 = DIRECTION('',(0.,0.,1.));
#1614 = ORIENTED_EDGE('',*,*,#1615,.T.);
#1615 = EDGE_CURVE('',#1608,#1577,#1616,.T.);
#1616 = LINE('',#1617,#1618);
#1617 = CARTESIAN_POINT('',(-21.21320343559,-21.21320343559,6.));
#1618 = VECTOR('',#1619,1.);
#1619 = DIRECTION('',(0.999905572904,-1.374209866259E-02,0.));
#1620 = ORIENTED_EDGE('',*,*,#1574,.F.);
#1621 = ORIENTED_EDGE('',*,*,#1622,.F.);
#1622 = EDGE_CURVE('',#1606,#1575,#1623,.T.);
#1623 = LINE('',#1624,#1625);
#1624 = CARTESIAN_POINT('',(-21.21320343559,-21.21320343559,0.));
#1625 = VECTOR('',#1626,1.);
#1626 = DIRECTION('',(0.999905572904,-1.374209866259E-02,0.));
#1627 = PLANE('',#1628);
#1628 = AXIS2_PLACEMENT_3D('',#1629,#1630,#1631);
#1629 = CARTESIAN_POINT('',(-21.21320343559,-21.21320343559,0.));
#1630 = DIRECTION('',(1.374209866259E-02,0.999905572904,0.));
#1631 = DIRECTION('',(0.999905572904,-1.374209866259E-02,0.));
#1632 = ADVANCED_FACE('',(#1633),#1649,.F.);
#1633 = FACE_BOUND('',#1634,.F.);
#1634 = EDGE_LOOP('',(#1635,#1636,#1642,#1643));
#1635 = ORIENTED_EDGE('',*,*,#134,.T.);
#1636 = ORIENTED_EDGE('',*,*,#1637,.T.);
#1637 = EDGE_CURVE('',#127,#1608,#1638,.T.);
#1638 = LINE('',#1639,#1640);
#1639 = CARTESIAN_POINT('',(-22.46867162367,-19.87860144647,6.));
#1640 = VECTOR('',#1641,1.);
#1641 = DIRECTION('',(0.685182990326,-0.728370969882,0.));
#1642 = ORIENTED_EDGE('',*,*,#1605,.F.);
#1643 = ORIENTED_EDGE('',*,*,#1644,.F.);
#1644 = EDGE_CURVE('',#135,#1606,#1645,.T.);
#1645 = LINE('',#1646,#1647);
#1646 = CARTESIAN_POINT('',(-22.46867162367,-19.87860144647,0.));
#1647 = VECTOR('',#1648,1.);
#1648 = DIRECTION('',(0.685182990326,-0.728370969882,0.));
#1649 = PLANE('',#1650);
#1650 = AXIS2_PLACEMENT_3D('',#1651,#1652,#1653);
#1651 = CARTESIAN_POINT('',(-22.46867162367,-19.87860144647,0.));
#1652 = DIRECTION('',(0.728370969882,0.685182990326,0.));
#1653 = DIRECTION('',(0.685182990326,-0.728370969882,0.));
#1654 = ADVANCED_FACE('',(#1655),#1680,.F.);
#1655 = FACE_BOUND('',#1656,.F.);
#1656 = EDGE_LOOP('',(#1657,#1658,#1666,#1674));
#1657 = ORIENTED_EDGE('',*,*,#1476,.T.);
#1658 = ORIENTED_EDGE('',*,*,#1659,.T.);
#1659 = EDGE_CURVE('',#1469,#1660,#1662,.T.);
#1660 = VERTEX_POINT('',#1661);
#1661 = CARTESIAN_POINT('',(-29.94404395265,1.831456186046,6.));
#1662 = LINE('',#1663,#1664);
#1663 = CARTESIAN_POINT('',(-21.51924721614,4.574057197991,6.));
#1664 = VECTOR('',#1665,1.);
#1665 = DIRECTION('',(-0.950883261216,-0.309549710933,0.));
#1666 = ORIENTED_EDGE('',*,*,#1667,.F.);
#1667 = EDGE_CURVE('',#1668,#1660,#1670,.T.);
#1668 = VERTEX_POINT('',#1669);
#1669 = CARTESIAN_POINT('',(-29.94404395265,1.831456186046,0.));
#1670 = LINE('',#1671,#1672);
#1671 = CARTESIAN_POINT('',(-29.94404395265,1.831456186046,0.));
#1672 = VECTOR('',#1673,1.);
#1673 = DIRECTION('',(0.,0.,1.));
#1674 = ORIENTED_EDGE('',*,*,#1675,.F.);
#1675 = EDGE_CURVE('',#1460,#1668,#1676,.T.);
#1676 = LINE('',#1677,#1678);
#1677 = CARTESIAN_POINT('',(-21.51924721614,4.574057197991,0.));
#1678 = VECTOR('',#1679,1.);
#1679 = DIRECTION('',(-0.950883261216,-0.309549710933,0.));
#1680 = PLANE('',#1681);
#1681 = AXIS2_PLACEMENT_3D('',#1682,#1683,#1684);
#1682 = CARTESIAN_POINT('',(-21.51924721614,4.574057197991,0.));
#1683 = DIRECTION('',(0.309549710933,-0.950883261216,0.));
#1684 = DIRECTION('',(-0.950883261216,-0.309549710933,0.));
#1685 = ADVANCED_FACE('',(#1686),#1711,.F.);
#1686 = FACE_BOUND('',#1687,.F.);
#1687 = EDGE_LOOP('',(#1688,#1698,#1704,#1705));
#1688 = ORIENTED_EDGE('',*,*,#1689,.T.);
#1689 = EDGE_CURVE('',#1690,#1692,#1694,.T.);
#1690 = VERTEX_POINT('',#1691);
#1691 = CARTESIAN_POINT('',(-26.79874609431,-3.290472271939,0.));
#1692 = VERTEX_POINT('',#1693);
#1693 = CARTESIAN_POINT('',(-26.79874609431,-3.290472271939,6.));
#1694 = LINE('',#1695,#1696);
#1695 = CARTESIAN_POINT('',(-26.79874609431,-3.290472271939,0.));
#1696 = VECTOR('',#1697,1.);
#1697 = DIRECTION('',(0.,0.,1.));
#1698 = ORIENTED_EDGE('',*,*,#1699,.T.);
#1699 = EDGE_CURVE('',#1692,#103,#1700,.T.);
#1700 = LINE('',#1701,#1702);
#1701 = CARTESIAN_POINT('',(-26.79874609431,-3.290472271939,6.));
#1702 = VECTOR('',#1703,1.);
#1703 = DIRECTION('',(0.95954463821,-0.281556543668,0.));
#1704 = ORIENTED_EDGE('',*,*,#102,.F.);
#1705 = ORIENTED_EDGE('',*,*,#1706,.F.);
#1706 = EDGE_CURVE('',#1690,#95,#1707,.T.);
#1707 = LINE('',#1708,#1709);
#1708 = CARTESIAN_POINT('',(-26.79874609431,-3.290472271939,0.));
#1709 = VECTOR('',#1710,1.);
#1710 = DIRECTION('',(0.95954463821,-0.281556543668,0.));
#1711 = PLANE('',#1712);
#1712 = AXIS2_PLACEMENT_3D('',#1713,#1714,#1715);
#1713 = CARTESIAN_POINT('',(-26.79874609431,-3.290472271939,0.));
#1714 = DIRECTION('',(0.281556543668,0.95954463821,0.));
#1715 = DIRECTION('',(0.95954463821,-0.281556543668,0.));
#1716 = ADVANCED_FACE('',(#1717),#1742,.F.);
#1717 = FACE_BOUND('',#1718,.F.);
#1718 = EDGE_LOOP('',(#1719,#1729,#1735,#1736));
#1719 = ORIENTED_EDGE('',*,*,#1720,.T.);
#1720 = EDGE_CURVE('',#1721,#1723,#1725,.T.);
#1721 = VERTEX_POINT('',#1722);
#1722 = CARTESIAN_POINT('',(-30.,3.673940397442E-15,0.));
#1723 = VERTEX_POINT('',#1724);
#1724 = CARTESIAN_POINT('',(-30.,3.673940397442E-15,6.));
#1725 = LINE('',#1726,#1727);
#1726 = CARTESIAN_POINT('',(-30.,3.673940397442E-15,0.));
#1727 = VECTOR('',#1728,1.);
#1728 = DIRECTION('',(0.,0.,1.));
#1729 = ORIENTED_EDGE('',*,*,#1730,.T.);
#1730 = EDGE_CURVE('',#1723,#1692,#1731,.T.);
#1731 = LINE('',#1732,#1733);
#1732 = CARTESIAN_POINT('',(-30.,3.673940397442E-15,6.));
#1733 = VECTOR('',#1734,1.);
#1734 = DIRECTION('',(0.697322879995,-0.716757142299,0.));
#1735 = ORIENTED_EDGE('',*,*,#1689,.F.);
#1736 = ORIENTED_EDGE('',*,*,#1737,.F.);
#1737 = EDGE_CURVE('',#1721,#1690,#1738,.T.);
#1738 = LINE('',#1739,#1740);
#1739 = CARTESIAN_POINT('',(-30.,3.673940397442E-15,0.));
#1740 = VECTOR('',#1741,1.);
#1741 = DIRECTION('',(0.697322879995,-0.716757142299,0.));
#1742 = PLANE('',#1743);
#1743 = AXIS2_PLACEMENT_3D('',#1744,#1745,#1746);
#1744 = CARTESIAN_POINT('',(-30.,3.673940397442E-15,0.));
#1745 = DIRECTION('',(0.716757142299,0.697322879995,0.));
#1746 = DIRECTION('',(0.697322879995,-0.716757142299,0.));
#1747 = ADVANCED_FACE('',(#1748),#1764,.F.);
#1748 = FACE_BOUND('',#1749,.F.);
#1749 = EDGE_LOOP('',(#1750,#1751,#1757,#1758));
#1750 = ORIENTED_EDGE('',*,*,#1667,.T.);
#1751 = ORIENTED_EDGE('',*,*,#1752,.T.);
#1752 = EDGE_CURVE('',#1660,#1723,#1753,.T.);
#1753 = LINE('',#1754,#1755);
#1754 = CARTESIAN_POINT('',(-29.94404395265,1.831456186046,6.));
#1755 = VECTOR('',#1756,1.);
#1756 = DIRECTION('',(-3.053851320982E-02,-0.999533590837,0.));
#1757 = ORIENTED_EDGE('',*,*,#1720,.F.);
#1758 = ORIENTED_EDGE('',*,*,#1759,.F.);
#1759 = EDGE_CURVE('',#1668,#1721,#1760,.T.);
#1760 = LINE('',#1761,#1762);
#1761 = CARTESIAN_POINT('',(-29.94404395265,1.831456186046,0.));
#1762 = VECTOR('',#1763,1.);
#1763 = DIRECTION('',(-3.053851320982E-02,-0.999533590837,0.));
#1764 = PLANE('',#1765);
#1765 = AXIS2_PLACEMENT_3D('',#1766,#1767,#1768);
#1766 = CARTESIAN_POINT('',(-29.94404395265,1.831456186046,0.));
#1767 = DIRECTION('',(0.999533590837,-3.053851320982E-02,0.));
#1768 = DIRECTION('',(-3.053851320982E-02,-0.999533590837,0.));
#1769 = ADVANCED_FACE('',(#1770,#1828),#1879,.T.);
#1770 = FACE_BOUND('',#1771,.T.);
#1771 = EDGE_LOOP('',(#1772,#1773,#1774,#1775,#1776,#1777,#1778,#1779,
    #1780,#1781,#1782,#1783,#1784,#1785,#1786,#1787,#1788,#1789,#1790,
    #1791,#1792,#1793,#1794,#1795,#1796,#1797,#1798,#1799,#1800,#1801,
    #1802,#1803,#1804,#1805,#1806,#1807,#1808,#1809,#1810,#1811,#1812,
    #1813,#1814,#1815,#1816,#1817,#1818,#1819,#1820,#1821,#1822,#1823,
    #1824,#1825,#1826,#1827));
#1772 = ORIENTED_EDGE('',*,*,#426,.F.);
#1773 = ORIENTED_EDGE('',*,*,#483,.F.);
#1774 = ORIENTED_EDGE('',*,*,#514,.F.);
#1775 = ORIENTED_EDGE('',*,*,#545,.F.);
#1776 = ORIENTED_EDGE('',*,*,#576,.F.);
#1777 = ORIENTED_EDGE('',*,*,#590,.F.);
#1778 = ORIENTED_EDGE('',*,*,#671,.F.);
#1779 = ORIENTED_EDGE('',*,*,#718,.F.);
#1780 = ORIENTED_EDGE('',*,*,#985,.F.);
#1781 = ORIENTED_EDGE('',*,*,#1016,.F.);
#1782 = ORIENTED_EDGE('',*,*,#1038,.F.);
#1783 = ORIENTED_EDGE('',*,*,#412,.F.);
#1784 = ORIENTED_EDGE('',*,*,#333,.F.);
#1785 = ORIENTED_EDGE('',*,*,#310,.F.);
#1786 = ORIENTED_EDGE('',*,*,#364,.F.);
#1787 = ORIENTED_EDGE('',*,*,#1288,.F.);
#1788 = ORIENTED_EDGE('',*,*,#1319,.F.);
#1789 = ORIENTED_EDGE('',*,*,#1341,.F.);
#1790 = ORIENTED_EDGE('',*,*,#277,.F.);
#1791 = ORIENTED_EDGE('',*,*,#198,.F.);
#1792 = ORIENTED_EDGE('',*,*,#175,.F.);
#1793 = ORIENTED_EDGE('',*,*,#229,.F.);
#1794 = ORIENTED_EDGE('',*,*,#1591,.F.);
#1795 = ORIENTED_EDGE('',*,*,#1622,.F.);
#1796 = ORIENTED_EDGE('',*,*,#1644,.F.);
#1797 = ORIENTED_EDGE('',*,*,#142,.F.);
#1798 = ORIENTED_EDGE('',*,*,#63,.F.);
#1799 = ORIENTED_EDGE('',*,*,#40,.F.);
#1800 = ORIENTED_EDGE('',*,*,#94,.F.);
#1801 = ORIENTED_EDGE('',*,*,#1706,.F.);
#1802 = ORIENTED_EDGE('',*,*,#1737,.F.);
#1803 = ORIENTED_EDGE('',*,*,#1759,.F.);
#1804 = ORIENTED_EDGE('',*,*,#1675,.F.);
#1805 = ORIENTED_EDGE('',*,*,#1459,.F.);
#1806 = ORIENTED_EDGE('',*,*,#1436,.F.);
#1807 = ORIENTED_EDGE('',*,*,#1490,.F.);
#1808 = ORIENTED_EDGE('',*,*,#1538,.F.);
#1809 = ORIENTED_EDGE('',*,*,#1560,.F.);
#1810 = ORIENTED_EDGE('',*,*,#1403,.F.);
#1811 = ORIENTED_EDGE('',*,*,#1372,.F.);
#1812 = ORIENTED_EDGE('',*,*,#1156,.F.);
#1813 = ORIENTED_EDGE('',*,*,#1133,.F.);
#1814 = ORIENTED_EDGE('',*,*,#1187,.F.);
#1815 = ORIENTED_EDGE('',*,*,#1235,.F.);
#1816 = ORIENTED_EDGE('',*,*,#1257,.F.);
#1817 = ORIENTED_EDGE('',*,*,#1100,.F.);
#1818 = ORIENTED_EDGE('',*,*,#1069,.F.);
#1819 = ORIENTED_EDGE('',*,*,#853,.F.);
#1820 = ORIENTED_EDGE('',*,*,#830,.F.);
#1821 = ORIENTED_EDGE('',*,*,#884,.F.);
#1822 = ORIENTED_EDGE('',*,*,#932,.F.);
#1823 = ORIENTED_EDGE('',*,*,#954,.F.);
#1824 = ORIENTED_EDGE('',*,*,#797,.F.);
#1825 = ORIENTED_EDGE('',*,*,#766,.F.);
#1826 = ORIENTED_EDGE('',*,*,#687,.F.);
#1827 = ORIENTED_EDGE('',*,*,#631,.F.);
#1828 = FACE_BOUND('',#1829,.T.);
#1829 = EDGE_LOOP('',(#1830,#1841,#1849,#1857,#1865,#1873));
#1830 = ORIENTED_EDGE('',*,*,#1831,.T.);
#1831 = EDGE_CURVE('',#1832,#1834,#1836,.T.);
#1832 = VERTEX_POINT('',#1833);
#1833 = CARTESIAN_POINT('',(9.6,2.8,0.));
#1834 = VERTEX_POINT('',#1835);
#1835 = CARTESIAN_POINT('',(9.6,-2.8,0.));
#1836 = CIRCLE('',#1837,10.);
#1837 = AXIS2_PLACEMENT_3D('',#1838,#1839,#1840);
#1838 = CARTESIAN_POINT('',(0.,0.,0.));
#1839 = DIRECTION('',(0.,0.,1.));
#1840 = DIRECTION('',(1.,0.,0.));
#1841 = ORIENTED_EDGE('',*,*,#1842,.F.);
#1842 = EDGE_CURVE('',#1843,#1834,#1845,.T.);
#1843 = VERTEX_POINT('',#1844);
#1844 = CARTESIAN_POINT('',(9.6,-3.,0.));
#1845 = LINE('',#1846,#1847);
#1846 = CARTESIAN_POINT('',(9.6,-1.5,0.));
#1847 = VECTOR('',#1848,1.);
#1848 = DIRECTION('',(0.,1.,0.));
#1849 = ORIENTED_EDGE('',*,*,#1850,.F.);
#1850 = EDGE_CURVE('',#1851,#1843,#1853,.T.);
#1851 = VERTEX_POINT('',#1852);
#1852 = CARTESIAN_POINT('',(13.6,-3.,0.));
#1853 = LINE('',#1854,#1855);
#1854 = CARTESIAN_POINT('',(4.8,-3.,0.));
#1855 = VECTOR('',#1856,1.);
#1856 = DIRECTION('',(-1.,0.,0.));
#1857 = ORIENTED_EDGE('',*,*,#1858,.T.);
#1858 = EDGE_CURVE('',#1851,#1859,#1861,.T.);
#1859 = VERTEX_POINT('',#1860);
#1860 = CARTESIAN_POINT('',(13.6,3.,0.));
#1861 = LINE('',#1862,#1863);
#1862 = CARTESIAN_POINT('',(13.6,-1.5,0.));
#1863 = VECTOR('',#1864,1.);
#1864 = DIRECTION('',(0.,1.,0.));
#1865 = ORIENTED_EDGE('',*,*,#1866,.T.);
#1866 = EDGE_CURVE('',#1859,#1867,#1869,.T.);
#1867 = VERTEX_POINT('',#1868);
#1868 = CARTESIAN_POINT('',(9.6,3.,0.));
#1869 = LINE('',#1870,#1871);
#1870 = CARTESIAN_POINT('',(4.8,3.,0.));
#1871 = VECTOR('',#1872,1.);
#1872 = DIRECTION('',(-1.,0.,0.));
#1873 = ORIENTED_EDGE('',*,*,#1874,.F.);
#1874 = EDGE_CURVE('',#1832,#1867,#1875,.T.);
#1875 = LINE('',#1876,#1877);
#1876 = CARTESIAN_POINT('',(9.6,-1.5,0.));
#1877 = VECTOR('',#1878,1.);
#1878 = DIRECTION('',(0.,1.,0.));
#1879 = PLANE('',#1880);
#1880 = AXIS2_PLACEMENT_3D('',#1881,#1882,#1883);
#1881 = CARTESIAN_POINT('',(-1.964848053472E-15,-3.165191591594E-15,0.)
  );
#1882 = DIRECTION('',(-0.,-0.,-1.));
#1883 = DIRECTION('',(-1.,0.,0.));
#1884 = ADVANCED_FACE('',(#1885),#1911,.F.);
#1885 = FACE_BOUND('',#1886,.F.);
#1886 = EDGE_LOOP('',(#1887,#1898,#1904,#1905));
#1887 = ORIENTED_EDGE('',*,*,#1888,.F.);
#1888 = EDGE_CURVE('',#1889,#1891,#1893,.T.);
#1889 = VERTEX_POINT('',#1890);
#1890 = CARTESIAN_POINT('',(9.6,2.8,6.));
#1891 = VERTEX_POINT('',#1892);
#1892 = CARTESIAN_POINT('',(9.6,-2.8,6.));
#1893 = CIRCLE('',#1894,10.);
#1894 = AXIS2_PLACEMENT_3D('',#1895,#1896,#1897);
#1895 = CARTESIAN_POINT('',(0.,0.,6.));
#1896 = DIRECTION('',(0.,0.,1.));
#1897 = DIRECTION('',(1.,0.,0.));
#1898 = ORIENTED_EDGE('',*,*,#1899,.F.);
#1899 = EDGE_CURVE('',#1832,#1889,#1900,.T.);
#1900 = LINE('',#1901,#1902);
#1901 = CARTESIAN_POINT('',(9.6,2.8,-1.));
#1902 = VECTOR('',#1903,1.);
#1903 = DIRECTION('',(0.,0.,1.));
#1904 = ORIENTED_EDGE('',*,*,#1831,.T.);
#1905 = ORIENTED_EDGE('',*,*,#1906,.T.);
#1906 = EDGE_CURVE('',#1834,#1891,#1907,.T.);
#1907 = LINE('',#1908,#1909);
#1908 = CARTESIAN_POINT('',(9.6,-2.8,-1.));
#1909 = VECTOR('',#1910,1.);
#1910 = DIRECTION('',(0.,0.,1.));
#1911 = CYLINDRICAL_SURFACE('',#1912,10.);
#1912 = AXIS2_PLACEMENT_3D('',#1913,#1914,#1915);
#1913 = CARTESIAN_POINT('',(0.,0.,-1.));
#1914 = DIRECTION('',(0.,0.,1.));
#1915 = DIRECTION('',(1.,0.,0.));
#1916 = ADVANCED_FACE('',(#1917),#1935,.T.);
#1917 = FACE_BOUND('',#1918,.T.);
#1918 = EDGE_LOOP('',(#1919,#1927,#1928,#1929));
#1919 = ORIENTED_EDGE('',*,*,#1920,.F.);
#1920 = EDGE_CURVE('',#1843,#1921,#1923,.T.);
#1921 = VERTEX_POINT('',#1922);
#1922 = CARTESIAN_POINT('',(9.6,-3.,6.));
#1923 = LINE('',#1924,#1925);
#1924 = CARTESIAN_POINT('',(9.6,-3.,-1.));
#1925 = VECTOR('',#1926,1.);
#1926 = DIRECTION('',(0.,0.,1.));
#1927 = ORIENTED_EDGE('',*,*,#1842,.T.);
#1928 = ORIENTED_EDGE('',*,*,#1906,.T.);
#1929 = ORIENTED_EDGE('',*,*,#1930,.F.);
#1930 = EDGE_CURVE('',#1921,#1891,#1931,.T.);
#1931 = LINE('',#1932,#1933);
#1932 = CARTESIAN_POINT('',(9.6,-1.5,6.));
#1933 = VECTOR('',#1934,1.);
#1934 = DIRECTION('',(0.,1.,0.));
#1935 = PLANE('',#1936);
#1936 = AXIS2_PLACEMENT_3D('',#1937,#1938,#1939);
#1937 = CARTESIAN_POINT('',(9.6,-3.,-1.));
#1938 = DIRECTION('',(1.,0.,0.));
#1939 = DIRECTION('',(0.,0.,1.));
#1940 = ADVANCED_FACE('',(#1941),#1959,.T.);
#1941 = FACE_BOUND('',#1942,.T.);
#1942 = EDGE_LOOP('',(#1943,#1951,#1952,#1953));
#1943 = ORIENTED_EDGE('',*,*,#1944,.F.);
#1944 = EDGE_CURVE('',#1851,#1945,#1947,.T.);
#1945 = VERTEX_POINT('',#1946);
#1946 = CARTESIAN_POINT('',(13.6,-3.,6.));
#1947 = LINE('',#1948,#1949);
#1948 = CARTESIAN_POINT('',(13.6,-3.,-1.));
#1949 = VECTOR('',#1950,1.);
#1950 = DIRECTION('',(0.,0.,1.));
#1951 = ORIENTED_EDGE('',*,*,#1850,.T.);
#1952 = ORIENTED_EDGE('',*,*,#1920,.T.);
#1953 = ORIENTED_EDGE('',*,*,#1954,.F.);
#1954 = EDGE_CURVE('',#1945,#1921,#1955,.T.);
#1955 = LINE('',#1956,#1957);
#1956 = CARTESIAN_POINT('',(4.8,-3.,6.));
#1957 = VECTOR('',#1958,1.);
#1958 = DIRECTION('',(-1.,0.,0.));
#1959 = PLANE('',#1960);
#1960 = AXIS2_PLACEMENT_3D('',#1961,#1962,#1963);
#1961 = CARTESIAN_POINT('',(9.6,-3.,-1.));
#1962 = DIRECTION('',(0.,1.,0.));
#1963 = DIRECTION('',(0.,0.,1.));
#1964 = ADVANCED_FACE('',(#1965),#1983,.F.);
#1965 = FACE_BOUND('',#1966,.F.);
#1966 = EDGE_LOOP('',(#1967,#1968,#1969,#1977));
#1967 = ORIENTED_EDGE('',*,*,#1944,.F.);
#1968 = ORIENTED_EDGE('',*,*,#1858,.T.);
#1969 = ORIENTED_EDGE('',*,*,#1970,.T.);
#1970 = EDGE_CURVE('',#1859,#1971,#1973,.T.);
#1971 = VERTEX_POINT('',#1972);
#1972 = CARTESIAN_POINT('',(13.6,3.,6.));
#1973 = LINE('',#1974,#1975);
#1974 = CARTESIAN_POINT('',(13.6,3.,-1.));
#1975 = VECTOR('',#1976,1.);
#1976 = DIRECTION('',(0.,0.,1.));
#1977 = ORIENTED_EDGE('',*,*,#1978,.F.);
#1978 = EDGE_CURVE('',#1945,#1971,#1979,.T.);
#1979 = LINE('',#1980,#1981);
#1980 = CARTESIAN_POINT('',(13.6,-1.5,6.));
#1981 = VECTOR('',#1982,1.);
#1982 = DIRECTION('',(0.,1.,0.));
#1983 = PLANE('',#1984);
#1984 = AXIS2_PLACEMENT_3D('',#1985,#1986,#1987);
#1985 = CARTESIAN_POINT('',(13.6,-3.,-1.));
#1986 = DIRECTION('',(1.,0.,0.));
#1987 = DIRECTION('',(0.,0.,1.));
#1988 = ADVANCED_FACE('',(#1989),#2007,.F.);
#1989 = FACE_BOUND('',#1990,.F.);
#1990 = EDGE_LOOP('',(#1991,#1992,#1993,#2001));
#1991 = ORIENTED_EDGE('',*,*,#1970,.F.);
#1992 = ORIENTED_EDGE('',*,*,#1866,.T.);
#1993 = ORIENTED_EDGE('',*,*,#1994,.T.);
#1994 = EDGE_CURVE('',#1867,#1995,#1997,.T.);
#1995 = VERTEX_POINT('',#1996);
#1996 = CARTESIAN_POINT('',(9.6,3.,6.));
#1997 = LINE('',#1998,#1999);
#1998 = CARTESIAN_POINT('',(9.6,3.,-1.));
#1999 = VECTOR('',#2000,1.);
#2000 = DIRECTION('',(0.,0.,1.));
#2001 = ORIENTED_EDGE('',*,*,#2002,.F.);
#2002 = EDGE_CURVE('',#1971,#1995,#2003,.T.);
#2003 = LINE('',#2004,#2005);
#2004 = CARTESIAN_POINT('',(4.8,3.,6.));
#2005 = VECTOR('',#2006,1.);
#2006 = DIRECTION('',(-1.,0.,0.));
#2007 = PLANE('',#2008);
#2008 = AXIS2_PLACEMENT_3D('',#2009,#2010,#2011);
#2009 = CARTESIAN_POINT('',(9.6,3.,-1.));
#2010 = DIRECTION('',(0.,1.,0.));
#2011 = DIRECTION('',(0.,0.,1.));
#2012 = ADVANCED_FACE('',(#2013),#2024,.T.);
#2013 = FACE_BOUND('',#2014,.T.);
#2014 = EDGE_LOOP('',(#2015,#2016,#2017,#2023));
#2015 = ORIENTED_EDGE('',*,*,#1874,.T.);
#2016 = ORIENTED_EDGE('',*,*,#1994,.T.);
#2017 = ORIENTED_EDGE('',*,*,#2018,.F.);
#2018 = EDGE_CURVE('',#1889,#1995,#2019,.T.);
#2019 = LINE('',#2020,#2021);
#2020 = CARTESIAN_POINT('',(9.6,-1.5,6.));
#2021 = VECTOR('',#2022,1.);
#2022 = DIRECTION('',(0.,1.,0.));
#2023 = ORIENTED_EDGE('',*,*,#1899,.F.);
#2024 = PLANE('',#2025);
#2025 = AXIS2_PLACEMENT_3D('',#2026,#2027,#2028);
#2026 = CARTESIAN_POINT('',(9.6,-3.,-1.));
#2027 = DIRECTION('',(1.,0.,0.));
#2028 = DIRECTION('',(0.,0.,1.));
#2029 = ADVANCED_FACE('',(#2030,#2088),#2096,.T.);
#2030 = FACE_BOUND('',#2031,.T.);
#2031 = EDGE_LOOP('',(#2032,#2033,#2034,#2035,#2036,#2037,#2038,#2039,
    #2040,#2041,#2042,#2043,#2044,#2045,#2046,#2047,#2048,#2049,#2050,
    #2051,#2052,#2053,#2054,#2055,#2056,#2057,#2058,#2059,#2060,#2061,
    #2062,#2063,#2064,#2065,#2066,#2067,#2068,#2069,#2070,#2071,#2072,
    #2073,#2074,#2075,#2076,#2077,#2078,#2079,#2080,#2081,#2082,#2083,
    #2084,#2085,#2086,#2087));
#2032 = ORIENTED_EDGE('',*,*,#444,.T.);
#2033 = ORIENTED_EDGE('',*,*,#621,.T.);
#2034 = ORIENTED_EDGE('',*,*,#696,.T.);
#2035 = ORIENTED_EDGE('',*,*,#750,.T.);
#2036 = ORIENTED_EDGE('',*,*,#781,.T.);
#2037 = ORIENTED_EDGE('',*,*,#947,.T.);
#2038 = ORIENTED_EDGE('',*,*,#925,.T.);
#2039 = ORIENTED_EDGE('',*,*,#900,.T.);
#2040 = ORIENTED_EDGE('',*,*,#811,.T.);
#2041 = ORIENTED_EDGE('',*,*,#862,.T.);
#2042 = ORIENTED_EDGE('',*,*,#1053,.T.);
#2043 = ORIENTED_EDGE('',*,*,#1084,.T.);
#2044 = ORIENTED_EDGE('',*,*,#1250,.T.);
#2045 = ORIENTED_EDGE('',*,*,#1228,.T.);
#2046 = ORIENTED_EDGE('',*,*,#1203,.T.);
#2047 = ORIENTED_EDGE('',*,*,#1114,.T.);
#2048 = ORIENTED_EDGE('',*,*,#1165,.T.);
#2049 = ORIENTED_EDGE('',*,*,#1356,.T.);
#2050 = ORIENTED_EDGE('',*,*,#1387,.T.);
#2051 = ORIENTED_EDGE('',*,*,#1553,.T.);
#2052 = ORIENTED_EDGE('',*,*,#1531,.T.);
#2053 = ORIENTED_EDGE('',*,*,#1506,.T.);
#2054 = ORIENTED_EDGE('',*,*,#1417,.T.);
#2055 = ORIENTED_EDGE('',*,*,#1468,.T.);
#2056 = ORIENTED_EDGE('',*,*,#1659,.T.);
#2057 = ORIENTED_EDGE('',*,*,#1752,.T.);
#2058 = ORIENTED_EDGE('',*,*,#1730,.T.);
#2059 = ORIENTED_EDGE('',*,*,#1699,.T.);
#2060 = ORIENTED_EDGE('',*,*,#110,.T.);
#2061 = ORIENTED_EDGE('',*,*,#21,.T.);
#2062 = ORIENTED_EDGE('',*,*,#72,.T.);
#2063 = ORIENTED_EDGE('',*,*,#126,.T.);
#2064 = ORIENTED_EDGE('',*,*,#1637,.T.);
#2065 = ORIENTED_EDGE('',*,*,#1615,.T.);
#2066 = ORIENTED_EDGE('',*,*,#1584,.T.);
#2067 = ORIENTED_EDGE('',*,*,#245,.T.);
#2068 = ORIENTED_EDGE('',*,*,#156,.T.);
#2069 = ORIENTED_EDGE('',*,*,#207,.T.);
#2070 = ORIENTED_EDGE('',*,*,#261,.T.);
#2071 = ORIENTED_EDGE('',*,*,#1334,.T.);
#2072 = ORIENTED_EDGE('',*,*,#1312,.T.);
#2073 = ORIENTED_EDGE('',*,*,#1281,.T.);
#2074 = ORIENTED_EDGE('',*,*,#380,.T.);
#2075 = ORIENTED_EDGE('',*,*,#291,.T.);
#2076 = ORIENTED_EDGE('',*,*,#342,.T.);
#2077 = ORIENTED_EDGE('',*,*,#396,.T.);
#2078 = ORIENTED_EDGE('',*,*,#1031,.T.);
#2079 = ORIENTED_EDGE('',*,*,#1009,.T.);
#2080 = ORIENTED_EDGE('',*,*,#978,.T.);
#2081 = ORIENTED_EDGE('',*,*,#734,.T.);
#2082 = ORIENTED_EDGE('',*,*,#654,.T.);
#2083 = ORIENTED_EDGE('',*,*,#606,.T.);
#2084 = ORIENTED_EDGE('',*,*,#569,.T.);
#2085 = ORIENTED_EDGE('',*,*,#538,.T.);
#2086 = ORIENTED_EDGE('',*,*,#507,.T.);
#2087 = ORIENTED_EDGE('',*,*,#476,.T.);
#2088 = FACE_BOUND('',#2089,.T.);
#2089 = EDGE_LOOP('',(#2090,#2091,#2092,#2093,#2094,#2095));
#2090 = ORIENTED_EDGE('',*,*,#1888,.F.);
#2091 = ORIENTED_EDGE('',*,*,#2018,.T.);
#2092 = ORIENTED_EDGE('',*,*,#2002,.F.);
#2093 = ORIENTED_EDGE('',*,*,#1978,.F.);
#2094 = ORIENTED_EDGE('',*,*,#1954,.T.);
#2095 = ORIENTED_EDGE('',*,*,#1930,.T.);
#2096 = PLANE('',#2097);
#2097 = AXIS2_PLACEMENT_3D('',#2098,#2099,#2100);
#2098 = CARTESIAN_POINT('',(-2.400687076243E-15,-3.515291790212E-15,6.)
  );
#2099 = DIRECTION('',(0.,0.,1.));
#2100 = DIRECTION('',(1.,0.,0.));
#2101 = ( GEOMETRIC_REPRESENTATION_CONTEXT(3) 
GLOBAL_UNCERTAINTY_ASSIGNED_CONTEXT((#2105)) 
GLOBAL_UNIT_ASSIGNED_CONTEXT((#2102,#2103,#2104)) REPRESENTATION_CONTEXT
('Context #1','3D Context with UNIT and UNCERTAINTY') );
#2102 = ( LENGTH_UNIT() NAMED_UNIT(*) SI_UNIT(.MILLI.,.METRE.) );
#2103 = ( NAMED_UNIT(*) PLANE_ANGLE_UNIT() SI_UNIT($,.RADIAN.) );
#2104 = ( NAMED_UNIT(*) SI_UNIT($,.STERADIAN.) SOLID_ANGLE_UNIT() );
#2105 = UNCERTAINTY_MEASURE_WITH_UNIT(LENGTH_MEASURE(1.E-07),#2102,
  'distance_accuracy_value','confusion accuracy');
#2106 = PRODUCT_RELATED_PRODUCT_CATEGORY('part',$,(#7));
ENDSEC;
END-ISO-10303-21;
