999
FreeCAD v1.1 Unknown
  0
SECTION
  2
HEADER
  9
$ACADVER
  1
AC1014
  9
$ACADMAINTVER
 70
     9
  9
$DWGCODEPAGE
  3
ANSI_1252
  9
$TEXTSTYLE
  7
STANDARD
  9
$DIMSTYLE
  2
STANDARD
  9
$DIMTXSTY
  7
STANDARD
  9
$CMLSTYLE
  2
STANDARD
  9
$LUNITS
 70
2
  9
$INSUNITS
 70
4
  9
$PEXTMAX
 10
50
 20
50
 30
50
  9
$PEXTMIN
 10
0
 20
0
 30
0
  9
$HANDSEED
  5
FFFF
  0
ENDSEC
  0
SECTION
  2
CLASSES
  0
CLASS
  1
ACDBDICTIONARYWDFLT
  2
AcDbDictionaryWithDefault
  3
ObjectDBX Classes
 90
        0
280
     0
281
     0
  0
CLASS
  1
XRECORD
  2
AcDbXrecord
  3
ObjectDBX Classes
 90
        0
280
     0
281
     0
  0
CLASS
  1
LWPOLYLINE
  2
AcDbPolyline
  3
ObjectDBX Classes
 90
        0
280
     0
281
     1
  0
ENDSEC
  0
SECTION
  2
TABLES
  0
TABLE
  2
VPORT
  5
20
330
0
100
AcDbSymbolTable
 70
     1
  0
VPORT
  5
21
330
20
100
AcDbSymbolTableRecord
100
AcDbViewportTableRecord
  2
*ACTIVE
 70
     0
  0
ENDTAB
  0
TABLE
  2
LTYPE
  5
22
330
0
100
AcDbSymbolTable
 70
     1
  0
LTYPE
  5
23
330
21
100
AcDbSymbolTableRecord
100
AcDbLinetypeTableRecord
  2
BYBLOCK
 70
     0
  3

 72
    65
 73
     0
 40
0.0
  0
LTYPE
  5
24
330
21
100
AcDbSymbolTableRecord
100
AcDbLinetypeTableRecord
  2
BYLAYER
 70
     0
  3

 72
    65
 73
     0
 40
0.0
  0
LTYPE
  5
25
330
21
100
AcDbSymbolTableRecord
100
AcDbLinetypeTableRecord
  2
CONTINUOUS
 70
     0
  3
Solid line
 72
    65
 73
     0
 40
0.0
  0
ENDTAB
  0
TABLE
  2
LAYER
  5
EB8
330
0
100
AcDbSymbolTable
 70
3
  0
LAYER
  5
EB9
330
EB8
100
AcDbSymbolTableRecord
100
AcDbLayerTableRecord
  2
0
 70
   0
 62
   7
  6
CONTINUOUS
  0
LAYER
  5
EBA
330
EB8
100
AcDbSymbolTableRecord
100
AcDbLayerTableRecord
  2
none
 70
    0
 62
    7
  6
CONTINUOUS
  0
LAYER
  5
EBB
330
EB8
100
AcDbSymbolTableRecord
100
AcDbLayerTableRecord
  2
Part
 70
    0
 62
    7
  6
CONTINUOUS
  0
ENDTAB
  0
TABLE
  2
STYLE
  5
70
330
0
100
AcDbSymbolTable
 70
     2
  0
STYLE
  5
71
330
70
100
AcDbSymbolTableRecord
100
AcDbTextStyleTableRecord
  2
STANDARD
 70
     0
 40
0.0
 41
1.0
 50
0.0
 71
     0
 42
2.5
  3
arial.ttf
  4

  0
STYLE
  5
72
330
70
100
AcDbSymbolTableRecord
100
AcDbTextStyleTableRecord
  2
ANNOTATIVE
 70
     0
 40
0.0
 41
1.0
 50
0.0
 71
     0
 42
2.5
  3
arial.ttf
  4

  0
ENDTAB
  0
TABLE
  2
VIEW
  5
73
330
0
100
AcDbSymbolTable
 70
     0
  0
ENDTAB
  0
TABLE
  2
UCS
  5
74
330
0
100
AcDbSymbolTable
 70
     0
  0
ENDTAB
  0
TABLE
  2
APPID
  5
75
330
0
100
AcDbSymbolTable
 70
     2
  0
APPID
  5
76
330
75
100
AcDbSymbolTableRecord
100
AcDbRegAppTableRecord
  2
ACAD
 70
     0
  0
APPID
  5
77
330
75
100
AcDbSymbolTableRecord
100
AcDbRegAppTableRecord
  2
ACADANNOTATIVE
 70
     0
  0
ENDTAB
  0
TABLE
  2
DIMSTYLE
  5
78
330
0
100
AcDbSymbolTable
 70
     2
  0
DIMSTYLE
105
79
330
78
100
AcDbSymbolTableRecord
100
AcDbDimStyleTableRecord
  2
STANDARD
 70
     0
  3

  4

  5

  6

  7

 40
0.0
 41
2.5
 42
0.625
 43
3.75
 44
1.25
 45
0.0
 46
0.0
 47
0.0
 48
0.0
140
2.5
141
2.5
142
0.0
143
0.03937007874016
144
1.0
145
0.0
146
1.0
147
0.625
 71
     0
 72
     0
 73
     0
 74
     0
 75
     0
 76
     0
 77
     1
 78
     8
170
     0
171
     3
172
     1
173
     0
174
     0
175
     0
176
     0
177
     0
178
     0
270
     2
271
     2
272
     2
273
     2
274
     3
340
71
275
     0
280
     0
281
     0
282
     0
283
     0
284
     8
285
     0
286
     0
287
     3
288
     0
  0
ENDTAB
  0
TABLE
  2
BLOCK_RECORD
  5
A01
330
0
100
AcDbSymbolTable
  70
5
  0
BLOCK_RECORD
  5
A02
330
A01
100
AcDbSymbolTableRecord
100
AcDbBlockTableRecord
  2
*MODEL_SPACE
  0
BLOCK_RECORD
  5
A03
330
A01
100
AcDbSymbolTableRecord
100
AcDbBlockTableRecord
  2
*PAPER_SPACE
  0
ENDTAB
  0
ENDSEC
  0
SECTION
  2
BLOCKS
  0
BLOCK
  5
A04
330
A02
100
AcDbEntity
  8
0
100
AcDbBlockBegin
  2
*MODEL_SPACE
 70
   0
 10
0
 20
0
 30
0
  3
*MODEL_SPACE
  1

  0
ENDBLK
  5
A05
330
A02
100
AcDbEntity
  8
0
100
AcDbBlockEnd
  0
BLOCK
  5
A06
330
A03
100
AcDbEntity
 67
1
  8
0
100
AcDbBlockBegin
  2
*PAPER_SPACE
 70
   0
 10
0
 20
0
 30
0
  3
*PAPER_SPACE
  1

  0
ENDBLK
  5
A07
330
A03
100
AcDbEntity
 67
    1
  8
0
100
AcDbBlockEnd
  0
ENDSEC
  0
SECTION
  2
ENTITIES
  0
LINE
  5
A08
330
A02
100
AcDbEntity
  8
Part
100
AcDbLine
 10
18.000000000
 20
0.000000000
 30
0.000000000
 11
18.000000000
 21
6.000000000
 31
0.000000000
  0
LINE
  5
A09
330
A02
100
AcDbEntity
  8
Part
100
AcDbLine
 10
17.999400920
 20
0.000000000
 30
0.682478480
 11
17.999400920
 21
6.000000000
 31
0.682478480
  0
LINE
  5
A0A
330
A02
100
AcDbEntity
  8
Part
100
AcDbLine
 10
18.000000000
 20
0.000000000
 30
0.000000000
 11
17.999400920
 21
0.000000000
 31
0.682478480
  0
LINE
  5
A0B
330
A02
100
AcDbEntity
  8
Part
100
AcDbLine
 10
18.000000000
 20
6.000000000
 30
0.000000000
 11
17.999400920
 21
6.000000000
 31
0.682478480
  0
LINE
  5
A0C
330
A02
100
AcDbEntity
  8
Part
100
AcDbLine
 10
18.017604131
 20
0.000000000
 30
-0.323486024
 11
18.017604131
 21
6.000000000
 31
-0.323486024
  0
LINE
  5
A0D
330
A02
100
AcDbEntity
  8
Part
100
AcDbLine
 10
18.000000000
 20
0.000000000
 30
0.000000000
 11
18.000000000
 21
6.000000000
 31
0.000000000
  0
LINE
  5
A0E
330
A02
100
AcDbEntity
  8
Part
100
AcDbLine
 10
18.017604131
 20
0.000000000
 30
-0.323486024
 11
18.000000000
 21
0.000000000
 31
0.000000000
  0
LINE
  5
A0F
330
A02
100
AcDbEntity
  8
Part
100
AcDbLine
 10
18.017604131
 20
6.000000000
 30
-0.323486024
 11
18.000000000
 21
6.000000000
 31
0.000000000
  0
LINE
  5
A10
330
A02
100
AcDbEntity
  8
Part
100
AcDbLine
 10
17.999400920
 20
0.000000000
 30
0.682478480
 11
17.999400920
 21
6.000000000
 31
0.682478480
  0
LINE
  5
A11
330
A02
100
AcDbEntity
  8
Part
100
AcDbLine
 10
18.044930817
 20
0.000000000
 30
1.370379816
 11
18.044930817
 21
6.000000000
 31
1.370379816
  0
LINE
  5
A12
330
A02
100
AcDbEntity
  8
Part
100
AcDbLine
 10
17.999400920
 20
0.000000000
 30
0.682478480
 11
18.044930817
 21
0.000000000
 31
1.370379816
  0
LINE
  5
A13
330
A02
100
AcDbEntity
  8
Part
100
AcDbLine
 10
17.999400920
 20
6.000000000
 30
0.682478480
 11
18.044930817
 21
6.000000000
 31
1.370379816
  0
LINE
  5
A14
330
A02
100
AcDbEntity
  8
Part
100
AcDbLine
 10
18.000000000
 20
0.000000000
 30
0.000000000
 11
17.999400920
 21
0.000000000
 31
0.682478480
  0
LINE
  5
A15
330
A02
100
AcDbEntity
  8
Part
100
AcDbLine
 10
18.017604131
 20
0.000000000
 30
-0.323486024
 11
18.000000000
 21
0.000000000
 31
0.000000000
  0
LINE
  5
A16
330
A02
100
AcDbEntity
  8
Part
100
AcDbLine
 10
17.999400920
 20
0.000000000
 30
0.682478480
 11
18.044930817
 21
0.000000000
 31
1.370379816
  0
LINE
  5
A17
330
A02
100
AcDbEntity
  8
Part
100
AcDbLine
 10
18.152356191
 20
0.000000000
 30
-0.652020868
 11
18.017604131
 21
0.000000000
 31
-0.323486024
  0
LINE
  5
A18
330
A02
100
AcDbEntity
  8
Part
100
AcDbLine
 10
18.044930817
 20
0.000000000
 30
1.370379816
 11
18.198915829
 21
0.000000000
 31
2.078101166
  0
LINE
  5
A19
330
A02
100
AcDbEntity
  8
Part
100
AcDbLine
 10
18.526810337
 20
0.000000000
 30
-0.998743354
 11
18.152356191
 21
0.000000000
 31
-0.652020868
  0
LINE
  5
A1A
330
A02
100
AcDbEntity
  8
Part
100
AcDbLine
 10
18.198915829
 20
0.000000000
 30
2.078101166
 11
18.505644334
 21
0.000000000
 31
2.827039585
  0
LINE
  5
A1B
330
A02
100
AcDbEntity
  8
Part
100
AcDbLine
 10
19.262730244
 20
0.000000000
 30
-1.385597266
 11
18.526810337
 21
0.000000000
 31
-0.998743354
  0
LINE
  5
A1C
330
A02
100
AcDbEntity
  8
Part
100
AcDbLine
 10
18.505644334
 20
0.000000000
 30
2.827039585
 11
18.985413090
 21
0.000000000
 31
3.641288747
  0
LINE
  5
A1D
330
A02
100
AcDbEntity
  8
Part
100
AcDbLine
 10
20.480694051
 20
0.000000000
 30
-1.843295828
 11
19.262730244
 21
0.000000000
 31
-1.385597266
  0
LINE
  5
A1E
330
A02
100
AcDbEntity
  8
Part
100
AcDbLine
 10
18.985413090
 20
0.000000000
 30
3.641288747
 11
19.631793050
 21
0.000000000
 31
4.542669228
  0
LINE
  5
A1F
330
A02
100
AcDbEntity
  8
Part
100
AcDbLine
 10
22.299700640
 20
0.000000000
 30
-2.411272008
 11
20.480694051
 21
0.000000000
 31
-1.843295828
  0
LINE
  5
A20
330
A02
100
AcDbEntity
  8
Part
100
AcDbLine
 10
19.631793050
 20
0.000000000
 30
4.542669228
 11
20.412459962
 21
0.000000000
 31
5.545942626
  0
LINE
  5
A21
330
A02
100
AcDbEntity
  8
Part
100
AcDbLine
 10
24.836777703
 20
0.000000000
 30
-3.137614690
 11
22.299700640
 21
0.000000000
 31
-2.411272008
  0
LINE
  5
A22
330
A02
100
AcDbEntity
  8
Part
100
AcDbLine
 10
20.412459962
 20
0.000000000
 30
5.545942626
 11
21.273445779
 21
0.000000000
 31
6.655045464
  0
LINE
  5
A23
330
A02
100
AcDbEntity
  8
Part
100
AcDbLine
 10
28.206592036
 20
0.000000000
 30
-4.078990772
 11
24.836777703
 21
0.000000000
 31
-3.137614690
  0
LINE
  5
A24
330
A02
100
AcDbEntity
  8
Part
100
AcDbLine
 10
21.273445779
 20
0.000000000
 30
6.655045464
 11
22.146201201
 21
0.000000000
 31
7.861028709
  0
LINE
  5
A25
330
A02
100
AcDbEntity
  8
Part
100
AcDbLine
 10
29.075119343
 20
0.000000000
 30
-5.276356241
 11
28.206592036
 21
0.000000000
 31
-4.078990772
  0
LINE
  5
A26
330
A02
100
AcDbEntity
  8
Part
100
AcDbLine
 10
22.146201201
 20
0.000000000
 30
7.861028709
 11
22.956482386
 21
0.000000000
 31
9.142124778
  0
LINE
  5
A27
330
A02
100
AcDbEntity
  8
Part
100
AcDbLine
 10
28.329692688
 20
0.000000000
 30
-6.199073495
 11
29.075119343
 21
0.000000000
 31
-5.276356241
  0
LINE
  5
A28
330
A02
100
AcDbEntity
  8
Part
100
AcDbLine
 10
22.956482386
 20
0.000000000
 30
9.142124778
 11
23.633838097
 21
0.000000000
 31
10.466026395
  0
LINE
  5
A29
330
A02
100
AcDbEntity
  8
Part
100
AcDbLine
 10
28.062529006
 20
0.000000000
 30
-7.264928826
 11
28.329692688
 21
0.000000000
 31
-6.199073495
  0
LINE
  5
A2A
330
A02
100
AcDbEntity
  8
Part
100
AcDbLine
 10
23.633838097
 20
0.000000000
 30
10.466026395
 11
24.120409151
 21
0.000000000
 31
11.794102649
  0
LINE
  5
A2B
330
A02
100
AcDbEntity
  8
Part
100
AcDbLine
 10
27.686117835
 20
0.000000000
 30
-8.298709589
 11
28.062529006
 21
0.000000000
 31
-7.264928826
  0
LINE
  5
A2C
330
A02
100
AcDbEntity
  8
Part
100
AcDbLine
 10
24.120409151
 20
0.000000000
 30
11.794102649
 11
24.377867133
 21
0.000000000
 31
13.086953290
  0
LINE
  5
A2D
330
A02
100
AcDbEntity
  8
Part
100
AcDbLine
 10
27.143339079
 20
0.000000000
 30
-9.270564792
 11
27.686117835
 21
0.000000000
 31
-8.298709589
  0
LINE
  5
A2E
330
A02
100
AcDbEntity
  8
Part
100
AcDbLine
 10
24.377867133
 20
0.000000000
 30
13.086953290
 11
24.391595722
 21
0.000000000
 31
14.310464213
  0
LINE
  5
A2F
330
A02
100
AcDbEntity
  8
Part
100
AcDbLine
 10
26.396282634
 20
0.000000000
 30
-10.147688947
 11
27.143339079
 21
0.000000000
 31
-9.270564792
  0
LINE
  5
A30
330
A02
100
AcDbEntity
  8
Part
100
AcDbLine
 10
24.391595722
 20
0.000000000
 30
14.310464213
 11
24.171614519
 21
0.000000000
 31
15.441414426
  0
LINE
  5
A31
330
A02
100
AcDbEntity
  8
Part
100
AcDbLine
 10
25.431143640
 20
0.000000000
 30
-10.899802086
 11
26.396282634
 21
0.000000000
 31
-10.147688947
  0
LINE
  5
A32
330
A02
100
AcDbEntity
  8
Part
100
AcDbLine
 10
24.171614519
 20
0.000000000
 30
15.441414426
 11
23.750204544
 21
0.000000000
 31
16.471717754
  0
LINE
  5
A33
330
A02
100
AcDbEntity
  8
Part
100
AcDbLine
 10
24.259829881
 20
0.000000000
 30
-11.504592520
 11
25.431143640
 21
0.000000000
 31
-10.899802086
  0
LINE
  5
A34
330
A02
100
AcDbEntity
  8
Part
100
AcDbLine
 10
23.750204544
 20
0.000000000
 30
16.471717754
 11
23.176650723
 21
0.000000000
 31
17.410559620
  0
LINE
  5
A35
330
A02
100
AcDbEntity
  8
Part
100
AcDbLine
 10
22.918125964
 20
0.000000000
 30
-11.952217953
 11
24.259829881
 21
0.000000000
 31
-11.504592520
  0
LINE
  5
A36
330
A02
100
AcDbEntity
  8
Part
100
AcDbLine
 10
23.176650723
 20
0.000000000
 30
17.410559620
 11
22.509905301
 21
0.000000000
 31
18.283986527
  0
LINE
  5
A37
330
A02
100
AcDbEntity
  8
Part
100
AcDbLine
 10
21.460733623
 20
0.000000000
 30
-12.248079089
 11
22.918125964
 21
0.000000000
 31
-11.952217953
  0
LINE
  5
A38
330
A02
100
AcDbEntity
  8
Part
100
AcDbLine
 10
22.509905301
 20
0.000000000
 30
18.283986527
 11
22.253261820
 21
0.000000000
 31
19.442089352
  0
LINE
  5
A39
330
A02
100
AcDbEntity
  8
Part
100
AcDbLine
 10
19.953930328
 20
0.000000000
 30
-12.413326084
 11
21.460733623
 21
0.000000000
 31
-12.248079089
  0
LINE
  5
A3A
330
A02
100
AcDbEntity
  8
Part
100
AcDbLine
 10
22.253261820
 20
0.000000000
 30
19.442089352
 11
20.775605882
 21
0.000000000
 31
19.509592519
  0
LINE
  5
A3B
330
A02
100
AcDbEntity
  8
Part
100
AcDbLine
 10
18.466900554
 20
0.000000000
 30
-12.482896673
 11
19.953930328
 21
0.000000000
 31
-12.413326084
  0
LINE
  5
A3C
330
A02
100
AcDbEntity
  8
Part
100
AcDbLine
 10
20.775605882
 20
0.000000000
 30
19.509592519
 11
17.938563553
 21
0.000000000
 31
17.461903970
  0
LINE
  5
A3D
330
A02
100
AcDbEntity
  8
Part
100
AcDbLine
 10
17.062953162
 20
0.000000000
 30
-12.501265164
 11
18.466900554
 21
0.000000000
 31
-12.482896673
  0
LINE
  5
A3E
330
A02
100
AcDbEntity
  8
Part
100
AcDbLine
 10
17.938563553
 20
0.000000000
 30
17.461903970
 11
15.788844302
 21
0.000000000
 31
15.931204504
  0
LINE
  5
A3F
330
A02
100
AcDbEntity
  8
Part
100
AcDbLine
 10
15.791824576
 20
0.000000000
 30
-12.516445927
 11
17.062953162
 21
0.000000000
 31
-12.501265164
  0
LINE
  5
A40
330
A02
100
AcDbEntity
  8
Part
100
AcDbLine
 10
15.788844302
 20
0.000000000
 30
15.931204504
 11
14.210650586
 21
0.000000000
 31
14.863175242
  0
LINE
  5
A41
330
A02
100
AcDbEntity
  8
Part
100
AcDbLine
 10
14.684085625
 20
0.000000000
 30
-12.573087262
 11
15.791824576
 21
0.000000000
 31
-12.516445927
  0
LINE
  5
A42
330
A02
100
AcDbEntity
  8
Part
100
AcDbLine
 10
14.210650586
 20
0.000000000
 30
14.863175242
 11
13.093419428
 21
0.000000000
 31
14.196303178
  0
LINE
  5
A43
330
A02
100
AcDbEntity
  8
Part
100
AcDbLine
 10
13.748349069
 20
0.000000000
 30
-12.705664992
 11
14.684085625
 21
0.000000000
 31
-12.573087262
  0
LINE
  5
A44
330
A02
100
AcDbEntity
  8
Part
100
AcDbLine
 10
13.093419428
 20
0.000000000
 30
14.196303178
 11
12.332126304
 21
0.000000000
 31
13.862137295
  0
LINE
  5
A45
330
A02
100
AcDbEntity
  8
Part
100
AcDbLine
 10
12.971563339
 20
0.000000000
 30
-12.932810458
 11
13.748349069
 21
0.000000000
 31
-12.705664992
  0
LINE
  5
A46
330
A02
100
AcDbEntity
  8
Part
100
AcDbLine
 10
12.332126304
 20
0.000000000
 30
13.862137295
 11
11.827579407
 21
0.000000000
 31
13.785555189
  0
LINE
  5
A47
330
A02
100
AcDbEntity
  8
Part
100
AcDbLine
 10
12.322236423
 20
0.000000000
 30
-13.253677171
 11
12.971563339
 21
0.000000000
 31
-12.932810458
  0
LINE
  5
A48
330
A02
100
AcDbEntity
  8
Part
100
AcDbLine
 10
11.827579407
 20
0.000000000
 30
13.785555189
 11
11.486703987
 21
0.000000000
 31
13.885039911
  0
LINE
  5
A49
330
A02
100
AcDbEntity
  8
Part
100
AcDbLine
 10
11.756026075
 20
0.000000000
 30
-13.646979932
 11
12.322236423
 21
0.000000000
 31
-13.253677171
  0
LINE
  5
A4A
330
A02
100
AcDbEntity
  8
Part
100
AcDbLine
 10
11.486703987
 20
0.000000000
 30
13.885039911
 11
11.222816433
 21
0.000000000
 31
14.072966684
  0
LINE
  5
A4B
330
A02
100
AcDbEntity
  8
Part
100
AcDbLine
 10
11.222816433
 20
0.000000000
 30
-14.072966684
 11
11.756026075
 21
0.000000000
 31
-13.646979932
  0
LINE
  5
A4C
330
A02
100
AcDbEntity
  8
Part
100
AcDbLine
 10
11.222816433
 20
0.000000000
 30
14.072966684
 11
10.688859751
 21
0.000000000
 31
14.498016677
  0
LINE
  5
A4D
330
A02
100
AcDbEntity
  8
Part
100
AcDbLine
 10
10.980880872
 20
0.000000000
 30
-14.288420385
 11
11.222816433
 21
0.000000000
 31
-14.072966684
  0
LINE
  5
A4E
330
A02
100
AcDbEntity
  8
Part
100
AcDbLine
 10
10.688859751
 20
0.000000000
 30
14.498016677
 11
10.179424256
 21
0.000000000
 31
14.962512851
  0
LINE
  5
A4F
330
A02
100
AcDbEntity
  8
Part
100
AcDbLine
 10
10.808038523
 20
0.000000000
 30
-14.598611913
 11
10.980880872
 21
0.000000000
 31
-14.288420385
  0
LINE
  5
A50
330
A02
100
AcDbEntity
  8
Part
100
AcDbLine
 10
10.179424256
 20
0.000000000
 30
14.962512851
 11
9.722113509
 21
0.000000000
 31
15.524160226
  0
LINE
  5
A51
330
A02
100
AcDbEntity
  8
Part
100
AcDbLine
 10
10.770428309
 20
0.000000000
 30
-15.107549887
 11
10.808038523
 21
0.000000000
 31
-14.598611913
  0
LINE
  5
A52
330
A02
100
AcDbEntity
  8
Part
100
AcDbLine
 10
9.722113509
 20
0.000000000
 30
15.524160226
 11
9.327811969
 21
0.000000000
 31
16.230925694
  0
LINE
  5
A53
330
A02
100
AcDbEntity
  8
Part
100
AcDbLine
 10
10.926812299
 20
0.000000000
 30
-15.924114708
 11
10.770428309
 21
0.000000000
 31
-15.107549887
  0
LINE
  5
A54
330
A02
100
AcDbEntity
  8
Part
100
AcDbLine
 10
9.327811969
 20
0.000000000
 30
16.230925694
 11
8.990337267
 21
0.000000000
 31
17.113700061
  0
LINE
  5
A55
330
A02
100
AcDbEntity
  8
Part
100
AcDbLine
 10
11.328357166
 20
0.000000000
 30
-17.161727543
 11
10.926812299
 21
0.000000000
 31
-15.924114708
  0
LINE
  5
A56
330
A02
100
AcDbEntity
  8
Part
100
AcDbLine
 10
8.990337267
 20
0.000000000
 30
17.113700061
 11
8.688620942
 21
0.000000000
 31
18.181061801
  0
LINE
  5
A57
330
A02
100
AcDbEntity
  8
Part
100
AcDbLine
 10
12.018427566
 20
0.000000000
 30
-18.938011517
 11
11.328357166
 21
0.000000000
 31
-17.161727543
  0
LINE
  5
A58
330
A02
100
AcDbEntity
  8
Part
100
AcDbLine
 10
8.688620942
 20
0.000000000
 30
18.181061801
 11
8.390968072
 21
0.000000000
 31
19.416942502
  0
LINE
  5
A59
330
A02
100
AcDbEntity
  8
Part
100
AcDbLine
 10
13.032391665
 20
0.000000000
 30
-21.374445493
 11
12.018427566
 21
0.000000000
 31
-18.938011517
  0
LINE
  5
A5A
330
A02
100
AcDbEntity
  8
Part
100
AcDbLine
 10
8.390968072
 20
0.000000000
 30
19.416942502
 11
8.060652432
 21
0.000000000
 31
20.781602628
  0
LINE
  5
A5B
330
A02
100
AcDbEntity
  8
Part
100
AcDbLine
 10
14.397439078
 20
0.000000000
 30
-24.596010815
 11
13.032391665
 21
0.000000000
 31
-21.374445493
  0
LINE
  5
A5C
330
A02
100
AcDbEntity
  8
Part
100
AcDbLine
 10
8.060652432
 20
0.000000000
 30
20.781602628
 11
7.661930869
 21
0.000000000
 31
22.215868548
  0
LINE
  5
A5D
330
A02
100
AcDbEntity
  8
Part
100
AcDbLine
 10
14.002818976
 20
0.000000000
 30
-26.021597966
 11
14.397439078
 21
0.000000000
 31
-24.596010815
  0
LINE
  5
A5E
330
A02
100
AcDbEntity
  8
Part
100
AcDbLine
 10
7.661930869
 20
0.000000000
 30
22.215868548
 11
7.165531686
 21
0.000000000
 31
23.648122223
  0
LINE
  5
A5F
330
A02
100
AcDbEntity
  8
Part
100
AcDbLine
 10
12.816643661
 20
0.000000000
 30
-26.014104737
 11
14.002818976
 21
0.000000000
 31
-26.021597966
  0
LINE
  5
A60
330
A02
100
AcDbEntity
  8
Part
100
AcDbLine
 10
7.165531686
 20
0.000000000
 30
23.648122223
 11
6.552788101
 21
0.000000000
 31
25.003139399
  0
LINE
  5
A61
330
A02
100
AcDbEntity
  8
Part
100
AcDbLine
 10
11.816750575
 20
0.000000000
 30
-26.469777689
 11
12.816643661
 21
0.000000000
 31
-26.014104737
  0
LINE
  5
A62
330
A02
100
AcDbEntity
  8
Part
100
AcDbLine
 10
6.552788101
 20
0.000000000
 30
25.003139399
 11
5.817828364
 21
0.000000000
 31
26.211597968
  0
LINE
  5
A63
330
A02
100
AcDbEntity
  8
Part
100
AcDbLine
 10
10.773819703
 20
0.000000000
 30
-26.820039348
 11
11.816750575
 21
0.000000000
 31
-26.469777689
  0
LINE
  5
A64
330
A02
100
AcDbEntity
  8
Part
100
AcDbLine
 10
5.817828364
 20
0.000000000
 30
26.211597968
 11
4.967559457
 21
0.000000000
 31
27.218965913
  0
LINE
  5
A65
330
A02
100
AcDbEntity
  8
Part
100
AcDbLine
 10
9.675575690
 20
0.000000000
 30
-27.001619637
 11
10.773819703
 21
0.000000000
 31
-26.820039348
  0
LINE
  5
A66
330
A02
100
AcDbEntity
  8
Part
100
AcDbLine
 10
4.967559457
 20
0.000000000
 30
27.218965913
 11
4.019539734
 21
0.000000000
 31
27.992545940
  0
LINE
  5
A67
330
A02
100
AcDbEntity
  8
Part
100
AcDbLine
 10
8.524030337
 20
0.000000000
 30
-26.964425354
 11
9.675575690
 21
0.000000000
 31
-27.001619637
  0
LINE
  5
A68
330
A02
100
AcDbEntity
  8
Part
100
AcDbLine
 10
4.019539734
 20
0.000000000
 30
27.992545940
 11
2.998171215
 21
0.000000000
 31
28.525693634
  0
LINE
  5
A69
330
A02
100
AcDbEntity
  8
Part
100
AcDbLine
 10
7.334250285
 20
0.000000000
 30
-26.678784176
 11
8.524030337
 21
0.000000000
 31
-26.964425354
  0
LINE
  5
A6A
330
A02
100
AcDbEntity
  8
Part
100
AcDbLine
 10
2.998171215
 20
0.000000000
 30
28.525693634
 11
1.929902815
 21
0.000000000
 31
28.838605666
  0
LINE
  5
A6B
330
A02
100
AcDbEntity
  8
Part
100
AcDbLine
 10
6.131103900
 20
0.000000000
 30
-26.140094871
 11
7.334250285
 21
0.000000000
 31
-26.678784176
  0
LINE
  5
A6C
330
A02
100
AcDbEntity
  8
Part
100
AcDbLine
 10
1.929902815
 20
0.000000000
 30
28.838605666
 11
0.838281729
 21
0.000000000
 31
28.975541562
  0
LINE
  5
A6D
330
A02
100
AcDbEntity
  8
Part
100
AcDbLine
 10
4.944597535
 20
0.000000000
 30
-25.370198401
 11
6.131103900
 21
0.000000000
 31
-26.140094871
  0
LINE
  5
A6E
330
A02
100
AcDbEntity
  8
Part
100
AcDbLine
 10
0.838281729
 20
0.000000000
 30
28.975541562
 11
-0.260299896
 21
0.000000000
 31
28.998831769
  0
LINE
  5
A6F
330
A02
100
AcDbEntity
  8
Part
100
AcDbLine
 10
3.804614722
 20
0.000000000
 30
-24.415229588
 11
4.944597535
 21
0.000000000
 31
-25.370198401
  0
LINE
  5
A70
330
A02
100
AcDbEntity
  8
Part
100
AcDbLine
 10
-0.260299896
 20
0.000000000
 30
28.998831769
 11
-1.325755737
 21
0.000000000
 31
29.520245116
  0
LINE
  5
A71
330
A02
100
AcDbEntity
  8
Part
100
AcDbLine
 10
2.735942932
 20
0.000000000
 30
-23.340193150
 11
3.804614722
 21
0.000000000
 31
-24.415229588
  0
LINE
  5
A72
330
A02
100
AcDbEntity
  8
Part
100
AcDbLine
 10
-1.325755737
 20
0.000000000
 30
29.520245116
 11
-2.299835247
 21
0.000000000
 31
28.407054720
  0
LINE
  5
A73
330
A02
100
AcDbEntity
  8
Part
100
AcDbLine
 10
1.754402557
 20
0.000000000
 30
-22.220963010
 11
2.735942932
 21
0.000000000
 31
-23.340193150
  0
LINE
  5
A74
330
A02
100
AcDbEntity
  8
Part
100
AcDbLine
 10
-2.299835247
 20
0.000000000
 30
28.407054720
 11
-2.467754832
 21
0.000000000
 31
24.912252783
  0
LINE
  5
A75
330
A02
100
AcDbEntity
  8
Part
100
AcDbLine
 10
0.864694610
 20
0.000000000
 30
-21.134765306
 11
1.754402557
 21
0.000000000
 31
-22.220963010
  0
LINE
  5
A76
330
A02
100
AcDbEntity
  8
Part
100
AcDbLine
 10
-2.467754832
 20
0.000000000
 30
24.912252783
 11
-2.611333829
 21
0.000000000
 31
22.277159087
  0
LINE
  5
A77
330
A02
100
AcDbEntity
  8
Part
100
AcDbLine
 10
0.060290102
 20
0.000000000
 30
-20.150422010
 11
0.864694610
 21
0.000000000
 31
-21.134765306
  0
LINE
  5
A78
330
A02
100
AcDbEntity
  8
Part
100
AcDbLine
 10
-2.611333829
 20
0.000000000
 30
22.277159087
 11
-2.760302616
 21
0.000000000
 31
20.377372201
  0
LINE
  5
A79
330
A02
100
AcDbEntity
  8
Part
100
AcDbLine
 10
-0.674657817
 20
0.000000000
 30
-19.319672119
 11
0.060290102
 21
0.000000000
 31
-20.150422010
  0
LINE
  5
A7A
330
A02
100
AcDbEntity
  8
Part
100
AcDbLine
 10
-2.760302616
 20
0.000000000
 30
20.377372201
 11
-2.935503275
 21
0.000000000
 31
19.088097778
  0
LINE
  5
A7B
330
A02
100
AcDbEntity
  8
Part
100
AcDbLine
 10
-1.361733460
 20
0.000000000
 30
-18.670744683
 11
-0.674657817
 21
0.000000000
 31
-19.319672119
  0
LINE
  5
A7C
330
A02
100
AcDbEntity
  8
Part
100
AcDbLine
 10
-2.935503275
 20
0.000000000
 30
19.088097778
 11
-3.148900366
 21
0.000000000
 31
18.284545825
  0
LINE
  5
A7D
330
A02
100
AcDbEntity
  8
Part
100
AcDbLine
 10
-2.023640916
 20
0.000000000
 30
-18.205052025
 11
-1.361733460
 21
0.000000000
 31
-18.670744683
  0
LINE
  5
A7E
330
A02
100
AcDbEntity
  8
Part
100
AcDbLine
 10
-3.148900366
 20
0.000000000
 30
18.284545825
 11
-3.403605909
 21
0.000000000
 31
17.842327015
  0
LINE
  5
A7F
330
A02
100
AcDbEntity
  8
Part
100
AcDbLine
 10
-2.679353325
 20
0.000000000
 30
-17.897444923
 11
-2.023640916
 21
0.000000000
 31
-18.205052025
  0
LINE
  5
A80
330
A02
100
AcDbEntity
  8
Part
100
AcDbLine
 10
-3.403605909
 20
0.000000000
 30
17.842327015
 11
-3.693918545
 21
0.000000000
 31
17.637847590
  0
LINE
  5
A81
330
A02
100
AcDbEntity
  8
Part
100
AcDbLine
 10
-3.339876184
 20
0.000000000
 30
-17.699984108
 11
-2.679353325
 21
0.000000000
 31
-17.897444923
  0
LINE
  5
A82
330
A02
100
AcDbEntity
  8
Part
100
AcDbLine
 10
-3.693918545
 20
0.000000000
 30
17.637847590
 11
-4.005376811
 21
0.000000000
 31
17.548702419
  0
LINE
  5
A83
330
A02
100
AcDbEntity
  8
Part
100
AcDbLine
 10
-4.005376811
 20
0.000000000
 30
-17.548702419
 11
-3.339876184
 21
0.000000000
 31
-17.699984108
  0
LINE
  5
A84
330
A02
100
AcDbEntity
  8
Part
100
AcDbLine
 10
-4.005376811
 20
0.000000000
 30
17.548702419
 11
-4.670610823
 21
0.000000000
 31
17.396252611
  0
LINE
  5
A85
330
A02
100
AcDbEntity
  8
Part
100
AcDbLine
 10
-4.324669653
 20
0.000000000
 30
-17.493882766
 11
-4.005376811
 21
0.000000000
 31
-17.548702419
  0
LINE
  5
A86
330
A02
100
AcDbEntity
  8
Part
100
AcDbLine
 10
-4.670610823
 20
0.000000000
 30
17.396252611
 11
-5.351396392
 21
0.000000000
 31
17.287568530
  0
LINE
  5
A87
330
A02
100
AcDbEntity
  8
Part
100
AcDbLine
 10
-4.674952597
 20
0.000000000
 30
-17.552150430
 11
-4.324669653
 21
0.000000000
 31
-17.493882766
  0
LINE
  5
A88
330
A02
100
AcDbEntity
  8
Part
100
AcDbLine
 10
-5.351396392
 20
0.000000000
 30
17.287568530
 11
-6.075638578
 21
0.000000000
 31
17.280210000
  0
LINE
  5
A89
330
A02
100
AcDbEntity
  8
Part
100
AcDbLine
 10
-5.096305913
 20
0.000000000
 30
-17.840063217
 11
-4.674952597
 21
0.000000000
 31
-17.552150430
  0
LINE
  5
A8A
330
A02
100
AcDbEntity
  8
Part
100
AcDbLine
 10
-6.075638578
 20
0.000000000
 30
17.280210000
 11
-6.874053061
 21
0.000000000
 31
17.412593705
  0
LINE
  5
A8B
330
A02
100
AcDbEntity
  8
Part
100
AcDbLine
 10
-5.637218174
 20
0.000000000
 30
-18.471448982
 11
-5.096305913
 21
0.000000000
 31
-17.840063217
  0
LINE
  5
A8C
330
A02
100
AcDbEntity
  8
Part
100
AcDbLine
 10
-6.874053061
 20
0.000000000
 30
17.412593705
 11
-7.774645888
 21
0.000000000
 31
17.699146173
  0
LINE
  5
A8D
330
A02
100
AcDbEntity
  8
Part
100
AcDbLine
 10
-6.354463721
 20
0.000000000
 30
-19.557028382
 11
-5.637218174
 21
0.000000000
 31
-18.471448982
  0
LINE
  5
A8E
330
A02
100
AcDbEntity
  8
Part
100
AcDbLine
 10
-7.774645888
 20
0.000000000
 30
17.699146173
 11
-8.797259951
 21
0.000000000
 31
18.128744012
  0
LINE
  5
A8F
330
A02
100
AcDbEntity
  8
Part
100
AcDbLine
 10
-7.312966597
 20
0.000000000
 30
-21.204042089
 11
-6.354463721
 21
0.000000000
 31
-19.557028382
  0
LINE
  5
A90
330
A02
100
AcDbEntity
  8
Part
100
AcDbLine
 10
-8.797259951
 20
0.000000000
 30
18.128744012
 11
-9.949093921
 21
0.000000000
 31
18.666588640
  0
LINE
  5
A91
330
A02
100
AcDbEntity
  8
Part
100
AcDbLine
 10
-8.585651110
 20
0.000000000
 30
-23.515882880
 11
-7.312966597
 21
0.000000000
 31
-21.204042089
  0
LINE
  5
A92
330
A02
100
AcDbEntity
  8
Part
100
AcDbLine
 10
-9.949093921
 20
0.000000000
 30
18.666588640
 11
-11.221976603
 21
0.000000000
 31
19.259189146
  0
LINE
  5
A93
330
A02
100
AcDbEntity
  8
Part
100
AcDbLine
 10
-10.253279160
 20
0.000000000
 30
-26.591733047
 11
-8.585651110
 21
0.000000000
 31
-23.515882880
  0
LINE
  5
A94
330
A02
100
AcDbEntity
  8
Part
100
AcDbLine
 10
-11.221976603
 20
0.000000000
 30
19.259189146
 11
-12.591929682
 21
0.000000000
 31
19.841706249
  0
LINE
  5
A95
330
A02
100
AcDbEntity
  8
Part
100
AcDbLine
 10
-11.613889685
 20
0.000000000
 30
-27.172045679
 11
-10.253279160
 21
0.000000000
 31
-26.591733047
  0
LINE
  5
A96
330
A02
100
AcDbEntity
  8
Part
100
AcDbLine
 10
-12.591929682
 20
0.000000000
 30
19.841706249
 11
-14.021210524
 21
0.000000000
 31
20.346601299
  0
LINE
  5
A97
330
A02
100
AcDbEntity
  8
Part
100
AcDbLine
 10
-12.347599455
 20
0.000000000
 30
-26.239984522
 11
-11.613889685
 21
0.000000000
 31
-27.172045679
  0
LINE
  5
A98
330
A02
100
AcDbEntity
  8
Part
100
AcDbLine
 10
-14.021210524
 20
0.000000000
 30
20.346601299
 11
-15.462644988
 21
0.000000000
 31
20.712378465
  0
LINE
  5
A99
330
A02
100
AcDbEntity
  8
Part
100
AcDbLine
 10
-13.327282056
 20
0.000000000
 30
-25.742344067
 11
-12.347599455
 21
0.000000000
 31
-26.239984522
  0
LINE
  5
A9A
330
A02
100
AcDbEntity
  8
Part
100
AcDbLine
 10
-15.462644988
 20
0.000000000
 30
20.712378465
 11
-16.865695843
 21
0.000000000
 31
20.891225398
  0
LINE
  5
A9B
330
A02
100
AcDbEntity
  8
Part
100
AcDbLine
 10
-14.251384411
 20
0.000000000
 30
-25.145332449
 11
-13.327282056
 21
0.000000000
 31
-25.742344067
  0
LINE
  5
A9C
330
A02
100
AcDbEntity
  8
Part
100
AcDbLine
 10
-16.865695843
 20
0.000000000
 30
20.891225398
 11
-18.183421810
 21
0.000000000
 31
20.854542039
  0
LINE
  5
A9D
330
A02
100
AcDbEntity
  8
Part
100
AcDbLine
 10
-15.078093540
 20
0.000000000
 30
-24.399904162
 11
-14.251384411
 21
0.000000000
 31
-25.145332449
  0
LINE
  5
A9E
330
A02
100
AcDbEntity
  8
Part
100
AcDbLine
 10
-18.183421810
 20
0.000000000
 30
20.854542039
 11
-19.379311658
 21
0.000000000
 31
20.595669630
  0
LINE
  5
A9F
330
A02
100
AcDbEntity
  8
Part
100
AcDbLine
 10
-15.766990663
 20
0.000000000
 30
-23.476399496
 11
-15.078093540
 21
0.000000000
 31
-24.399904162
  0
LINE
  5
AA0
330
A02
100
AcDbEntity
  8
Part
100
AcDbLine
 10
-19.379311658
 20
0.000000000
 30
20.595669630
 11
-20.432956165
 21
0.000000000
 31
20.129543717
  0
LINE
  5
AA1
330
A02
100
AcDbEntity
  8
Part
100
AcDbLine
 10
-16.285483126
 20
0.000000000
 30
-22.368097633
 11
-15.766990663
 21
0.000000000
 31
-23.476399496
  0
LINE
  5
AA2
330
A02
100
AcDbEntity
  8
Part
100
AcDbLine
 10
-20.432956165
 20
0.000000000
 30
20.129543717
 11
-21.343655097
 21
0.000000000
 31
19.489435311
  0
LINE
  5
AA3
330
A02
100
AcDbEntity
  8
Part
100
AcDbLine
 10
-16.614468369
 20
0.000000000
 30
-21.091572623
 11
-16.285483126
 21
0.000000000
 31
-22.368097633
  0
LINE
  5
AA4
330
A02
100
AcDbEntity
  8
Part
100
AcDbLine
 10
-21.343655097
 20
0.000000000
 30
19.489435311
 11
-22.131330505
 21
0.000000000
 31
18.721349714
  0
LINE
  5
AA5
330
A02
100
AcDbEntity
  8
Part
100
AcDbLine
 10
-16.752313689
 20
0.000000000
 30
-19.683901996
 11
-16.614468369
 21
0.000000000
 31
-21.091572623
  0
LINE
  5
AA6
330
A02
100
AcDbEntity
  8
Part
100
AcDbLine
 10
-22.131330505
 20
0.000000000
 30
18.721349714
 11
-22.834493962
 21
0.000000000
 31
17.876965220
  0
LINE
  5
AA7
330
A02
100
AcDbEntity
  8
Part
100
AcDbLine
 10
-16.716456664
 20
0.000000000
 30
-18.197214226
 11
-16.752313689
 21
0.000000000
 31
-19.683901996
  0
LINE
  5
AA8
330
A02
100
AcDbEntity
  8
Part
100
AcDbLine
 10
-22.834493962
 20
0.000000000
 30
17.876965220
 11
-23.906452184
 21
0.000000000
 31
17.369054205
  0
LINE
  5
AA9
330
A02
100
AcDbEntity
  8
Part
100
AcDbLine
 10
-16.542265295
 20
0.000000000
 30
-16.691418721
 11
-16.716456664
 21
0.000000000
 31
-18.197214226
  0
LINE
  5
AAA
330
A02
100
AcDbEntity
  8
Part
100
AcDbLine
 10
-23.906452184
 20
0.000000000
 30
17.369054205
 11
-23.643453526
 21
0.000000000
 31
15.913425318
  0
LINE
  5
AAB
330
A02
100
AcDbEntity
  8
Part
100
AcDbLine
 10
-16.279196350
 20
0.000000000
 30
-15.226190976
 11
-16.542265295
 21
0.000000000
 31
-16.691418721
  0
LINE
  5
AAC
330
A02
100
AcDbEntity
  8
Part
100
AcDbLine
 10
-23.643453526
 20
0.000000000
 30
15.913425318
 11
-21.015803496
 21
0.000000000
 31
13.603167133
  0
LINE
  5
AAD
330
A02
100
AcDbEntity
  8
Part
100
AcDbLine
 10
-15.984696620
 20
0.000000000
 30
-13.853356102
 11
-16.279196350
 21
0.000000000
 31
-15.226190976
  0
LINE
  5
AAE
330
A02
100
AcDbEntity
  8
Part
100
AcDbLine
 10
-21.015803496
 20
0.000000000
 30
13.603167133
 11
-19.045124326
 21
0.000000000
 31
11.847958506
  0
LINE
  5
AAF
330
A02
100
AcDbEntity
  8
Part
100
AcDbLine
 10
-15.716644049
 20
0.000000000
 30
-12.610719326
 11
-15.984696620
 21
0.000000000
 31
-13.853356102
  0
LINE
  5
AB0
330
A02
100
AcDbEntity
  8
Part
100
AcDbLine
 10
-19.045124326
 20
0.000000000
 30
11.847958506
 11
-17.652691647
 21
0.000000000
 31
10.546992270
  0
LINE
  5
AB1
330
A02
100
AcDbEntity
  8
Part
100
AcDbLine
 10
-15.525370162
 20
0.000000000
 30
-11.518149820
 11
-15.716644049
 21
0.000000000
 31
-12.610719326
  0
LINE
  5
AB2
330
A02
100
AcDbEntity
  8
Part
100
AcDbLine
 10
-17.652691647
 20
0.000000000
 30
10.546992270
 11
-16.753932138
 21
0.000000000
 31
9.606165424
  0
LINE
  5
AB3
330
A02
100
AcDbEntity
  8
Part
100
AcDbLine
 10
-15.446402919
 20
0.000000000
 30
-10.576372813
 11
-15.525370162
 21
0.000000000
 31
-11.518149820
  0
LINE
  5
AB4
330
A02
100
AcDbEntity
  8
Part
100
AcDbLine
 10
-16.753932138
 20
0.000000000
 30
9.606165424
 11
-16.258740834
 21
0.000000000
 31
8.938318412
  0
LINE
  5
AB5
330
A02
100
AcDbEntity
  8
Part
100
AcDbLine
 10
-15.495002287
 20
0.000000000
 30
-9.768518102
 11
-15.446402919
 21
0.000000000
 31
-10.576372813
  0
LINE
  5
AB6
330
A02
100
AcDbEntity
  8
Part
100
AcDbLine
 10
-16.258740834
 20
0.000000000
 30
8.938318412
 11
-16.071806555
 21
0.000000000
 31
8.463462681
  0
LINE
  5
AB7
330
A02
100
AcDbEntity
  8
Part
100
AcDbLine
 10
-15.663335371
 20
0.000000000
 30
-9.064071606
 11
-15.495002287
 21
0.000000000
 31
-9.768518102
  0
LINE
  5
AB8
330
A02
100
AcDbEntity
  8
Part
100
AcDbLine
 10
-16.071806555
 20
0.000000000
 30
8.463462681
 11
-16.092945070
 21
0.000000000
 31
8.108996287
  0
LINE
  5
AB9
330
A02
100
AcDbEntity
  8
Part
100
AcDbLine
 10
-15.920783555
 20
0.000000000
 30
-8.424539237
 11
-15.663335371
 21
0.000000000
 31
-9.064071606
  0
LINE
  5
ABA
330
A02
100
AcDbEntity
  8
Part
100
AcDbLine
 10
-16.092945070
 20
0.000000000
 30
8.108996287
 11
-16.217439622
 21
0.000000000
 31
7.809907304
  0
LINE
  5
ABB
330
A02
100
AcDbEntity
  8
Part
100
AcDbLine
 10
-16.217439622
 20
0.000000000
 30
-7.809907304
 11
-15.920783555
 21
0.000000000
 31
-8.424539237
  0
LINE
  5
ABC
330
A02
100
AcDbEntity
  8
Part
100
AcDbLine
 10
-16.217439622
 20
0.000000000
 30
7.809907304
 11
-16.513016185
 21
0.000000000
 31
7.194755509
  0
LINE
  5
ABD
330
A02
100
AcDbEntity
  8
Part
100
AcDbLine
 10
-16.373655722
 20
0.000000000
 30
-7.526094613
 11
-16.217439622
 21
0.000000000
 31
-7.809907304
  0
LINE
  5
ABE
330
A02
100
AcDbEntity
  8
Part
100
AcDbLine
 10
-16.513016185
 20
0.000000000
 30
7.194755509
 11
-16.852506408
 21
0.000000000
 31
6.594732503
  0
LINE
  5
ABF
330
A02
100
AcDbEntity
  8
Part
100
AcDbLine
 10
-16.637609060
 20
0.000000000
 30
-7.288561675
 11
-16.373655722
 21
0.000000000
 31
-7.526094613
  0
LINE
  5
AC0
330
A02
100
AcDbEntity
  8
Part
100
AcDbLine
 10
-16.852506408
 20
0.000000000
 30
6.594732503
 11
-17.298310895
 21
0.000000000
 31
6.023909193
  0
LINE
  5
AC1
330
A02
100
AcDbEntity
  8
Part
100
AcDbLine
 10
-17.125417836
 20
0.000000000
 30
-7.138645074
 11
-16.637609060
 21
0.000000000
 31
-7.288561675
  0
LINE
  5
AC2
330
A02
100
AcDbEntity
  8
Part
100
AcDbLine
 10
-17.298310895
 20
0.000000000
 30
6.023909193
 11
-17.899615931
 21
0.000000000
 31
5.482223503
  0
LINE
  5
AC3
330
A02
100
AcDbEntity
  8
Part
100
AcDbLine
 10
-17.956308384
 20
0.000000000
 30
-7.109405424
 11
-17.125417836
 21
0.000000000
 31
-7.138645074
  0
LINE
  5
AC4
330
A02
100
AcDbEntity
  8
Part
100
AcDbLine
 10
-17.899615931
 20
0.000000000
 30
5.482223503
 11
-18.685162115
 21
0.000000000
 31
4.956774220
  0
LINE
  5
AC5
330
A02
100
AcDbEntity
  8
Part
100
AcDbLine
 10
-19.252243819
 20
0.000000000
 30
-7.225487960
 11
-17.956308384
 21
0.000000000
 31
-7.109405424
  0
LINE
  5
AC6
330
A02
100
AcDbEntity
  8
Part
100
AcDbLine
 10
-18.685162115
 20
0.000000000
 30
4.956774220
 11
-19.658624670
 21
0.000000000
 31
4.425112223
  0
LINE
  5
AC7
330
A02
100
AcDbEntity
  8
Part
100
AcDbLine
 10
-21.137547755
 20
0.000000000
 30
-7.502996484
 11
-19.252243819
 21
0.000000000
 31
-7.225487960
  0
LINE
  5
AC8
330
A02
100
AcDbEntity
  8
Part
100
AcDbLine
 10
-19.658624670
 20
0.000000000
 30
4.425112223
 11
-20.797285267
 21
0.000000000
 31
3.859912804
  0
LINE
  5
AC9
330
A02
100
AcDbEntity
  8
Part
100
AcDbLine
 10
-23.738523483
 20
0.000000000
 30
-7.949380823
 11
-21.137547755
 21
0.000000000
 31
-7.502996484
  0
LINE
  5
ACA
330
A02
100
AcDbEntity
  8
Part
100
AcDbLine
 10
-20.797285267
 20
0.000000000
 30
3.859912804
 11
-22.054228370
 21
0.000000000
 31
3.234213421
  0
LINE
  5
ACB
330
A02
100
AcDbEntity
  8
Part
100
AcDbLine
 10
-27.183069062
 20
0.000000000
 30
-8.563337923
 11
-23.738523483
 21
0.000000000
 31
-7.949380823
  0
LINE
  5
ACC
330
A02
100
AcDbEntity
  8
Part
100
AcDbLine
 10
-22.054228370
 20
0.000000000
 30
3.234213421
 11
-23.363810354
 21
0.000000000
 31
2.526334447
  0
LINE
  5
ACD
330
A02
100
AcDbEntity
  8
Part
100
AcDbLine
 10
-28.485102534
 20
0.000000000
 30
-7.861388786
 11
-27.183069062
 21
0.000000000
 31
-8.563337923
  0
LINE
  5
ACE
330
A02
100
AcDbEntity
  8
Part
100
AcDbLine
 10
-23.363810354
 20
0.000000000
 30
2.526334447
 11
-24.649695229
 21
0.000000000
 31
1.723674603
  0
LINE
  5
ACF
330
A02
100
AcDbEntity
  8
Part
100
AcDbLine
 10
-28.213848336
 20
0.000000000
 30
-6.706620763
 11
-28.485102534
 21
0.000000000
 31
-7.861388786
  0
LINE
  5
AD0
330
A02
100
AcDbEntity
  8
Part
100
AcDbLine
 10
-24.649695229
 20
0.000000000
 30
1.723674603
 11
-25.834391021
 21
0.000000000
 31
0.824774091
  0
LINE
  5
AD1
330
A02
100
AcDbEntity
  8
Part
100
AcDbLine
 10
-28.435599472
 20
0.000000000
 30
-5.630400314
 11
-28.213848336
 21
0.000000000
 31
-6.706620763
  0
LINE
  5
AD2
330
A02
100
AcDbEntity
  8
Part
100
AcDbLine
 10
-25.834391021
 20
0.000000000
 30
0.824774091
 11
-26.849007083
 21
0.000000000
 31
-0.160666000
  0
LINE
  5
AD3
330
A02
100
AcDbEntity
  8
Part
100
AcDbLine
 10
-28.545005389
 20
0.000000000
 30
-4.535677345
 11
-28.435599472
 21
0.000000000
 31
-5.630400314
  0
LINE
  5
AD4
330
A02
100
AcDbEntity
  8
Part
100
AcDbLine
 10
-26.849007083
 20
0.000000000
 30
-0.160666000
 11
-27.641915580
 21
0.000000000
 31
-1.213777346
  0
LINE
  5
AD5
330
A02
100
AcDbEntity
  8
Part
100
AcDbLine
 10
-28.477650797
 20
0.000000000
 30
-3.424563186
 11
-28.545005389
 21
0.000000000
 31
-4.535677345
  0
LINE
  5
AD6
330
A02
100
AcDbEntity
  8
Part
100
AcDbLine
 10
-27.641915580
 20
0.000000000
 30
-1.213777346
 11
-28.185146106
 21
0.000000000
 31
-2.310165986
  0
LINE
  5
AD7
330
A02
100
AcDbEntity
  8
Part
100
AcDbLine
 10
-28.185146106
 20
0.000000000
 30
-2.310165986
 11
-28.477650797
 21
0.000000000
 31
-3.424563186
  0
ARC
  5
AD8
330
A02
100
AcDbEntity
  8
Part
100
AcDbCircle
 10
0.000000000
 20
0.000000000
 30
0.000000000
 40
3.100000000
100
AcDbArc
 50
180.000000000
 51
0.000000000
  0
LINE
  5
AD9
330
A02
100
AcDbEntity
  8
Part
100
AcDbLine
 10
3.100000000
 20
0.000000000
 30
9.612491873
 11
3.100000000
 21
0.000000000
 31
13.000000000
  0
LINE
  5
ADA
330
A02
100
AcDbEntity
  8
Part
100
AcDbLine
 10
-3.100000000
 20
0.000000000
 30
13.000000000
 11
3.100000000
 21
0.000000000
 31
13.000000000
  0
LINE
  5
ADB
330
A02
100
AcDbEntity
  8
Part
100
AcDbLine
 10
-3.100000000
 20
0.000000000
 30
9.612491873
 11
-3.100000000
 21
0.000000000
 31
13.000000000
  0
LINE
  5
ADC
330
A02
100
AcDbEntity
  8
Part
100
AcDbLine
 10
18.000000000
 20
6.000000000
 30
0.000000000
 11
17.999400920
 21
6.000000000
 31
0.682478480
  0
LINE
  5
ADD
330
A02
100
AcDbEntity
  8
Part
100
AcDbLine
 10
18.017604131
 20
6.000000000
 30
-0.323486024
 11
18.000000000
 21
6.000000000
 31
0.000000000
  0
LINE
  5
ADE
330
A02
100
AcDbEntity
  8
Part
100
AcDbLine
 10
17.999400920
 20
6.000000000
 30
0.682478480
 11
18.044930817
 21
6.000000000
 31
1.370379816
  0
LINE
  5
ADF
330
A02
100
AcDbEntity
  8
Part
100
AcDbLine
 10
18.152356191
 20
6.000000000
 30
-0.652020868
 11
18.017604131
 21
6.000000000
 31
-0.323486024
  0
LINE
  5
AE0
330
A02
100
AcDbEntity
  8
Part
100
AcDbLine
 10
18.044930817
 20
6.000000000
 30
1.370379816
 11
18.198915829
 21
6.000000000
 31
2.078101166
  0
LINE
  5
AE1
330
A02
100
AcDbEntity
  8
Part
100
AcDbLine
 10
18.526810337
 20
6.000000000
 30
-0.998743354
 11
18.152356191
 21
6.000000000
 31
-0.652020868
  0
LINE
  5
AE2
330
A02
100
AcDbEntity
  8
Part
100
AcDbLine
 10
18.198915829
 20
6.000000000
 30
2.078101166
 11
18.505644334
 21
6.000000000
 31
2.827039585
  0
LINE
  5
AE3
330
A02
100
AcDbEntity
  8
Part
100
AcDbLine
 10
19.262730244
 20
6.000000000
 30
-1.385597266
 11
18.526810337
 21
6.000000000
 31
-0.998743354
  0
LINE
  5
AE4
330
A02
100
AcDbEntity
  8
Part
100
AcDbLine
 10
18.505644334
 20
6.000000000
 30
2.827039585
 11
18.985413090
 21
6.000000000
 31
3.641288747
  0
LINE
  5
AE5
330
A02
100
AcDbEntity
  8
Part
100
AcDbLine
 10
20.480694051
 20
6.000000000
 30
-1.843295828
 11
19.262730244
 21
6.000000000
 31
-1.385597266
  0
LINE
  5
AE6
330
A02
100
AcDbEntity
  8
Part
100
AcDbLine
 10
18.985413090
 20
6.000000000
 30
3.641288747
 11
19.631793050
 21
6.000000000
 31
4.542669228
  0
LINE
  5
AE7
330
A02
100
AcDbEntity
  8
Part
100
AcDbLine
 10
22.299700640
 20
6.000000000
 30
-2.411272008
 11
20.480694051
 21
6.000000000
 31
-1.843295828
  0
LINE
  5
AE8
330
A02
100
AcDbEntity
  8
Part
100
AcDbLine
 10
19.631793050
 20
6.000000000
 30
4.542669228
 11
20.412459962
 21
6.000000000
 31
5.545942626
  0
LINE
  5
AE9
330
A02
100
AcDbEntity
  8
Part
100
AcDbLine
 10
24.836777703
 20
6.000000000
 30
-3.137614690
 11
22.299700640
 21
6.000000000
 31
-2.411272008
  0
LINE
  5
AEA
330
A02
100
AcDbEntity
  8
Part
100
AcDbLine
 10
20.412459962
 20
6.000000000
 30
5.545942626
 11
21.273445779
 21
6.000000000
 31
6.655045464
  0
LINE
  5
AEB
330
A02
100
AcDbEntity
  8
Part
100
AcDbLine
 10
28.206592036
 20
6.000000000
 30
-4.078990772
 11
24.836777703
 21
6.000000000
 31
-3.137614690
  0
LINE
  5
AEC
330
A02
100
AcDbEntity
  8
Part
100
AcDbLine
 10
21.273445779
 20
6.000000000
 30
6.655045464
 11
22.146201201
 21
6.000000000
 31
7.861028709
  0
LINE
  5
AED
330
A02
100
AcDbEntity
  8
Part
100
AcDbLine
 10
29.075119343
 20
6.000000000
 30
-5.276356241
 11
28.206592036
 21
6.000000000
 31
-4.078990772
  0
LINE
  5
AEE
330
A02
100
AcDbEntity
  8
Part
100
AcDbLine
 10
22.146201201
 20
6.000000000
 30
7.861028709
 11
22.956482386
 21
6.000000000
 31
9.142124778
  0
LINE
  5
AEF
330
A02
100
AcDbEntity
  8
Part
100
AcDbLine
 10
28.329692688
 20
6.000000000
 30
-6.199073495
 11
29.075119343
 21
6.000000000
 31
-5.276356241
  0
LINE
  5
AF0
330
A02
100
AcDbEntity
  8
Part
100
AcDbLine
 10
22.956482386
 20
6.000000000
 30
9.142124778
 11
23.633838097
 21
6.000000000
 31
10.466026395
  0
LINE
  5
AF1
330
A02
100
AcDbEntity
  8
Part
100
AcDbLine
 10
28.062529006
 20
6.000000000
 30
-7.264928826
 11
28.329692688
 21
6.000000000
 31
-6.199073495
  0
LINE
  5
AF2
330
A02
100
AcDbEntity
  8
Part
100
AcDbLine
 10
23.633838097
 20
6.000000000
 30
10.466026395
 11
24.120409151
 21
6.000000000
 31
11.794102649
  0
LINE
  5
AF3
330
A02
100
AcDbEntity
  8
Part
100
AcDbLine
 10
27.686117835
 20
6.000000000
 30
-8.298709589
 11
28.062529006
 21
6.000000000
 31
-7.264928826
  0
LINE
  5
AF4
330
A02
100
AcDbEntity
  8
Part
100
AcDbLine
 10
24.120409151
 20
6.000000000
 30
11.794102649
 11
24.377867133
 21
6.000000000
 31
13.086953290
  0
LINE
  5
AF5
330
A02
100
AcDbEntity
  8
Part
100
AcDbLine
 10
27.143339079
 20
6.000000000
 30
-9.270564792
 11
27.686117835
 21
6.000000000
 31
-8.298709589
  0
LINE
  5
AF6
330
A02
100
AcDbEntity
  8
Part
100
AcDbLine
 10
24.377867133
 20
6.000000000
 30
13.086953290
 11
24.391595722
 21
6.000000000
 31
14.310464213
  0
LINE
  5
AF7
330
A02
100
AcDbEntity
  8
Part
100
AcDbLine
 10
26.396282634
 20
6.000000000
 30
-10.147688947
 11
27.143339079
 21
6.000000000
 31
-9.270564792
  0
LINE
  5
AF8
330
A02
100
AcDbEntity
  8
Part
100
AcDbLine
 10
24.391595722
 20
6.000000000
 30
14.310464213
 11
24.171614519
 21
6.000000000
 31
15.441414426
  0
LINE
  5
AF9
330
A02
100
AcDbEntity
  8
Part
100
AcDbLine
 10
25.431143640
 20
6.000000000
 30
-10.899802086
 11
26.396282634
 21
6.000000000
 31
-10.147688947
  0
LINE
  5
AFA
330
A02
100
AcDbEntity
  8
Part
100
AcDbLine
 10
24.171614519
 20
6.000000000
 30
15.441414426
 11
23.750204544
 21
6.000000000
 31
16.471717754
  0
LINE
  5
AFB
330
A02
100
AcDbEntity
  8
Part
100
AcDbLine
 10
24.259829881
 20
6.000000000
 30
-11.504592520
 11
25.431143640
 21
6.000000000
 31
-10.899802086
  0
LINE
  5
AFC
330
A02
100
AcDbEntity
  8
Part
100
AcDbLine
 10
23.750204544
 20
6.000000000
 30
16.471717754
 11
23.176650723
 21
6.000000000
 31
17.410559620
  0
LINE
  5
AFD
330
A02
100
AcDbEntity
  8
Part
100
AcDbLine
 10
22.918125964
 20
6.000000000
 30
-11.952217953
 11
24.259829881
 21
6.000000000
 31
-11.504592520
  0
LINE
  5
AFE
330
A02
100
AcDbEntity
  8
Part
100
AcDbLine
 10
23.176650723
 20
6.000000000
 30
17.410559620
 11
22.509905301
 21
6.000000000
 31
18.283986527
  0
LINE
  5
AFF
330
A02
100
AcDbEntity
  8
Part
100
AcDbLine
 10
21.460733623
 20
6.000000000
 30
-12.248079089
 11
22.918125964
 21
6.000000000
 31
-11.952217953
  0
LINE
  5
B00
330
A02
100
AcDbEntity
  8
Part
100
AcDbLine
 10
22.509905301
 20
6.000000000
 30
18.283986527
 11
22.253261820
 21
6.000000000
 31
19.442089352
  0
LINE
  5
B01
330
A02
100
AcDbEntity
  8
Part
100
AcDbLine
 10
19.953930328
 20
6.000000000
 30
-12.413326084
 11
21.460733623
 21
6.000000000
 31
-12.248079089
  0
LINE
  5
B02
330
A02
100
AcDbEntity
  8
Part
100
AcDbLine
 10
22.253261820
 20
6.000000000
 30
19.442089352
 11
20.775605882
 21
6.000000000
 31
19.509592519
  0
LINE
  5
B03
330
A02
100
AcDbEntity
  8
Part
100
AcDbLine
 10
18.466900554
 20
6.000000000
 30
-12.482896673
 11
19.953930328
 21
6.000000000
 31
-12.413326084
  0
LINE
  5
B04
330
A02
100
AcDbEntity
  8
Part
100
AcDbLine
 10
20.775605882
 20
6.000000000
 30
19.509592519
 11
17.938563553
 21
6.000000000
 31
17.461903970
  0
LINE
  5
B05
330
A02
100
AcDbEntity
  8
Part
100
AcDbLine
 10
17.062953162
 20
6.000000000
 30
-12.501265164
 11
18.466900554
 21
6.000000000
 31
-12.482896673
  0
LINE
  5
B06
330
A02
100
AcDbEntity
  8
Part
100
AcDbLine
 10
17.938563553
 20
6.000000000
 30
17.461903970
 11
15.788844302
 21
6.000000000
 31
15.931204504
  0
LINE
  5
B07
330
A02
100
AcDbEntity
  8
Part
100
AcDbLine
 10
15.791824576
 20
6.000000000
 30
-12.516445927
 11
17.062953162
 21
6.000000000
 31
-12.501265164
  0
LINE
  5
B08
330
A02
100
AcDbEntity
  8
Part
100
AcDbLine
 10
15.788844302
 20
6.000000000
 30
15.931204504
 11
14.210650586
 21
6.000000000
 31
14.863175242
  0
LINE
  5
B09
330
A02
100
AcDbEntity
  8
Part
100
AcDbLine
 10
14.684085625
 20
6.000000000
 30
-12.573087262
 11
15.791824576
 21
6.000000000
 31
-12.516445927
  0
LINE
  5
B0A
330
A02
100
AcDbEntity
  8
Part
100
AcDbLine
 10
14.210650586
 20
6.000000000
 30
14.863175242
 11
13.093419428
 21
6.000000000
 31
14.196303178
  0
LINE
  5
B0B
330
A02
100
AcDbEntity
  8
Part
100
AcDbLine
 10
13.748349069
 20
6.000000000
 30
-12.705664992
 11
14.684085625
 21
6.000000000
 31
-12.573087262
  0
LINE
  5
B0C
330
A02
100
AcDbEntity
  8
Part
100
AcDbLine
 10
13.093419428
 20
6.000000000
 30
14.196303178
 11
12.332126304
 21
6.000000000
 31
13.862137295
  0
LINE
  5
B0D
330
A02
100
AcDbEntity
  8
Part
100
AcDbLine
 10
12.971563339
 20
6.000000000
 30
-12.932810458
 11
13.748349069
 21
6.000000000
 31
-12.705664992
  0
LINE
  5
B0E
330
A02
100
AcDbEntity
  8
Part
100
AcDbLine
 10
12.332126304
 20
6.000000000
 30
13.862137295
 11
11.827579407
 21
6.000000000
 31
13.785555189
  0
LINE
  5
B0F
330
A02
100
AcDbEntity
  8
Part
100
AcDbLine
 10
12.322236423
 20
6.000000000
 30
-13.253677171
 11
12.971563339
 21
6.000000000
 31
-12.932810458
  0
LINE
  5
B10
330
A02
100
AcDbEntity
  8
Part
100
AcDbLine
 10
11.827579407
 20
6.000000000
 30
13.785555189
 11
11.486703987
 21
6.000000000
 31
13.885039911
  0
LINE
  5
B11
330
A02
100
AcDbEntity
  8
Part
100
AcDbLine
 10
11.756026075
 20
6.000000000
 30
-13.646979932
 11
12.322236423
 21
6.000000000
 31
-13.253677171
  0
LINE
  5
B12
330
A02
100
AcDbEntity
  8
Part
100
AcDbLine
 10
11.486703987
 20
6.000000000
 30
13.885039911
 11
11.222816433
 21
6.000000000
 31
14.072966684
  0
LINE
  5
B13
330
A02
100
AcDbEntity
  8
Part
100
AcDbLine
 10
11.222816433
 20
6.000000000
 30
-14.072966684
 11
11.756026075
 21
6.000000000
 31
-13.646979932
  0
LINE
  5
B14
330
A02
100
AcDbEntity
  8
Part
100
AcDbLine
 10
11.222816433
 20
6.000000000
 30
14.072966684
 11
10.688859751
 21
6.000000000
 31
14.498016677
  0
LINE
  5
B15
330
A02
100
AcDbEntity
  8
Part
100
AcDbLine
 10
10.980880872
 20
6.000000000
 30
-14.288420385
 11
11.222816433
 21
6.000000000
 31
-14.072966684
  0
LINE
  5
B16
330
A02
100
AcDbEntity
  8
Part
100
AcDbLine
 10
10.688859751
 20
6.000000000
 30
14.498016677
 11
10.179424256
 21
6.000000000
 31
14.962512851
  0
LINE
  5
B17
330
A02
100
AcDbEntity
  8
Part
100
AcDbLine
 10
10.808038523
 20
6.000000000
 30
-14.598611913
 11
10.980880872
 21
6.000000000
 31
-14.288420385
  0
LINE
  5
B18
330
A02
100
AcDbEntity
  8
Part
100
AcDbLine
 10
10.179424256
 20
6.000000000
 30
14.962512851
 11
9.722113509
 21
6.000000000
 31
15.524160226
  0
LINE
  5
B19
330
A02
100
AcDbEntity
  8
Part
100
AcDbLine
 10
10.770428309
 20
6.000000000
 30
-15.107549887
 11
10.808038523
 21
6.000000000
 31
-14.598611913
  0
LINE
  5
B1A
330
A02
100
AcDbEntity
  8
Part
100
AcDbLine
 10
9.722113509
 20
6.000000000
 30
15.524160226
 11
9.327811969
 21
6.000000000
 31
16.230925694
  0
LINE
  5
B1B
330
A02
100
AcDbEntity
  8
Part
100
AcDbLine
 10
10.926812299
 20
6.000000000
 30
-15.924114708
 11
10.770428309
 21
6.000000000
 31
-15.107549887
  0
LINE
  5
B1C
330
A02
100
AcDbEntity
  8
Part
100
AcDbLine
 10
9.327811969
 20
6.000000000
 30
16.230925694
 11
8.990337267
 21
6.000000000
 31
17.113700061
  0
LINE
  5
B1D
330
A02
100
AcDbEntity
  8
Part
100
AcDbLine
 10
11.328357166
 20
6.000000000
 30
-17.161727543
 11
10.926812299
 21
6.000000000
 31
-15.924114708
  0
LINE
  5
B1E
330
A02
100
AcDbEntity
  8
Part
100
AcDbLine
 10
8.990337267
 20
6.000000000
 30
17.113700061
 11
8.688620942
 21
6.000000000
 31
18.181061801
  0
LINE
  5
B1F
330
A02
100
AcDbEntity
  8
Part
100
AcDbLine
 10
12.018427566
 20
6.000000000
 30
-18.938011517
 11
11.328357166
 21
6.000000000
 31
-17.161727543
  0
LINE
  5
B20
330
A02
100
AcDbEntity
  8
Part
100
AcDbLine
 10
8.688620942
 20
6.000000000
 30
18.181061801
 11
8.390968072
 21
6.000000000
 31
19.416942502
  0
LINE
  5
B21
330
A02
100
AcDbEntity
  8
Part
100
AcDbLine
 10
13.032391665
 20
6.000000000
 30
-21.374445493
 11
12.018427566
 21
6.000000000
 31
-18.938011517
  0
LINE
  5
B22
330
A02
100
AcDbEntity
  8
Part
100
AcDbLine
 10
8.390968072
 20
6.000000000
 30
19.416942502
 11
8.060652432
 21
6.000000000
 31
20.781602628
  0
LINE
  5
B23
330
A02
100
AcDbEntity
  8
Part
100
AcDbLine
 10
14.397439078
 20
6.000000000
 30
-24.596010815
 11
13.032391665
 21
6.000000000
 31
-21.374445493
  0
LINE
  5
B24
330
A02
100
AcDbEntity
  8
Part
100
AcDbLine
 10
8.060652432
 20
6.000000000
 30
20.781602628
 11
7.661930869
 21
6.000000000
 31
22.215868548
  0
LINE
  5
B25
330
A02
100
AcDbEntity
  8
Part
100
AcDbLine
 10
14.002818976
 20
6.000000000
 30
-26.021597966
 11
14.397439078
 21
6.000000000
 31
-24.596010815
  0
LINE
  5
B26
330
A02
100
AcDbEntity
  8
Part
100
AcDbLine
 10
7.661930869
 20
6.000000000
 30
22.215868548
 11
7.165531686
 21
6.000000000
 31
23.648122223
  0
LINE
  5
B27
330
A02
100
AcDbEntity
  8
Part
100
AcDbLine
 10
12.816643661
 20
6.000000000
 30
-26.014104737
 11
14.002818976
 21
6.000000000
 31
-26.021597966
  0
LINE
  5
B28
330
A02
100
AcDbEntity
  8
Part
100
AcDbLine
 10
7.165531686
 20
6.000000000
 30
23.648122223
 11
6.552788101
 21
6.000000000
 31
25.003139399
  0
LINE
  5
B29
330
A02
100
AcDbEntity
  8
Part
100
AcDbLine
 10
11.816750575
 20
6.000000000
 30
-26.469777689
 11
12.816643661
 21
6.000000000
 31
-26.014104737
  0
LINE
  5
B2A
330
A02
100
AcDbEntity
  8
Part
100
AcDbLine
 10
6.552788101
 20
6.000000000
 30
25.003139399
 11
5.817828364
 21
6.000000000
 31
26.211597968
  0
LINE
  5
B2B
330
A02
100
AcDbEntity
  8
Part
100
AcDbLine
 10
10.773819703
 20
6.000000000
 30
-26.820039348
 11
11.816750575
 21
6.000000000
 31
-26.469777689
  0
LINE
  5
B2C
330
A02
100
AcDbEntity
  8
Part
100
AcDbLine
 10
5.817828364
 20
6.000000000
 30
26.211597968
 11
4.967559457
 21
6.000000000
 31
27.218965913
  0
LINE
  5
B2D
330
A02
100
AcDbEntity
  8
Part
100
AcDbLine
 10
9.675575690
 20
6.000000000
 30
-27.001619637
 11
10.773819703
 21
6.000000000
 31
-26.820039348
  0
LINE
  5
B2E
330
A02
100
AcDbEntity
  8
Part
100
AcDbLine
 10
4.967559457
 20
6.000000000
 30
27.218965913
 11
4.019539734
 21
6.000000000
 31
27.992545940
  0
LINE
  5
B2F
330
A02
100
AcDbEntity
  8
Part
100
AcDbLine
 10
8.524030337
 20
6.000000000
 30
-26.964425354
 11
9.675575690
 21
6.000000000
 31
-27.001619637
  0
LINE
  5
B30
330
A02
100
AcDbEntity
  8
Part
100
AcDbLine
 10
4.019539734
 20
6.000000000
 30
27.992545940
 11
2.998171215
 21
6.000000000
 31
28.525693634
  0
LINE
  5
B31
330
A02
100
AcDbEntity
  8
Part
100
AcDbLine
 10
7.334250285
 20
6.000000000
 30
-26.678784176
 11
8.524030337
 21
6.000000000
 31
-26.964425354
  0
LINE
  5
B32
330
A02
100
AcDbEntity
  8
Part
100
AcDbLine
 10
2.998171215
 20
6.000000000
 30
28.525693634
 11
1.929902815
 21
6.000000000
 31
28.838605666
  0
LINE
  5
B33
330
A02
100
AcDbEntity
  8
Part
100
AcDbLine
 10
6.131103900
 20
6.000000000
 30
-26.140094871
 11
7.334250285
 21
6.000000000
 31
-26.678784176
  0
LINE
  5
B34
330
A02
100
AcDbEntity
  8
Part
100
AcDbLine
 10
1.929902815
 20
6.000000000
 30
28.838605666
 11
0.838281729
 21
6.000000000
 31
28.975541562
  0
LINE
  5
B35
330
A02
100
AcDbEntity
  8
Part
100
AcDbLine
 10
4.944597535
 20
6.000000000
 30
-25.370198401
 11
6.131103900
 21
6.000000000
 31
-26.140094871
  0
LINE
  5
B36
330
A02
100
AcDbEntity
  8
Part
100
AcDbLine
 10
0.838281729
 20
6.000000000
 30
28.975541562
 11
-0.260299896
 21
6.000000000
 31
28.998831769
  0
LINE
  5
B37
330
A02
100
AcDbEntity
  8
Part
100
AcDbLine
 10
3.804614722
 20
6.000000000
 30
-24.415229588
 11
4.944597535
 21
6.000000000
 31
-25.370198401
  0
LINE
  5
B38
330
A02
100
AcDbEntity
  8
Part
100
AcDbLine
 10
-0.260299896
 20
6.000000000
 30
28.998831769
 11
-1.325755737
 21
6.000000000
 31
29.520245116
  0
LINE
  5
B39
330
A02
100
AcDbEntity
  8
Part
100
AcDbLine
 10
2.735942932
 20
6.000000000
 30
-23.340193150
 11
3.804614722
 21
6.000000000
 31
-24.415229588
  0
LINE
  5
B3A
330
A02
100
AcDbEntity
  8
Part
100
AcDbLine
 10
-1.325755737
 20
6.000000000
 30
29.520245116
 11
-2.299835247
 21
6.000000000
 31
28.407054720
  0
LINE
  5
B3B
330
A02
100
AcDbEntity
  8
Part
100
AcDbLine
 10
1.754402557
 20
6.000000000
 30
-22.220963010
 11
2.735942932
 21
6.000000000
 31
-23.340193150
  0
LINE
  5
B3C
330
A02
100
AcDbEntity
  8
Part
100
AcDbLine
 10
-2.299835247
 20
6.000000000
 30
28.407054720
 11
-2.467754832
 21
6.000000000
 31
24.912252783
  0
LINE
  5
B3D
330
A02
100
AcDbEntity
  8
Part
100
AcDbLine
 10
0.864694610
 20
6.000000000
 30
-21.134765306
 11
1.754402557
 21
6.000000000
 31
-22.220963010
  0
LINE
  5
B3E
330
A02
100
AcDbEntity
  8
Part
100
AcDbLine
 10
-2.467754832
 20
6.000000000
 30
24.912252783
 11
-2.611333829
 21
6.000000000
 31
22.277159087
  0
LINE
  5
B3F
330
A02
100
AcDbEntity
  8
Part
100
AcDbLine
 10
0.060290102
 20
6.000000000
 30
-20.150422010
 11
0.864694610
 21
6.000000000
 31
-21.134765306
  0
LINE
  5
B40
330
A02
100
AcDbEntity
  8
Part
100
AcDbLine
 10
-2.611333829
 20
6.000000000
 30
22.277159087
 11
-2.760302616
 21
6.000000000
 31
20.377372201
  0
LINE
  5
B41
330
A02
100
AcDbEntity
  8
Part
100
AcDbLine
 10
-0.674657817
 20
6.000000000
 30
-19.319672119
 11
0.060290102
 21
6.000000000
 31
-20.150422010
  0
LINE
  5
B42
330
A02
100
AcDbEntity
  8
Part
100
AcDbLine
 10
-2.760302616
 20
6.000000000
 30
20.377372201
 11
-2.935503275
 21
6.000000000
 31
19.088097778
  0
LINE
  5
B43
330
A02
100
AcDbEntity
  8
Part
100
AcDbLine
 10
-1.361733460
 20
6.000000000
 30
-18.670744683
 11
-0.674657817
 21
6.000000000
 31
-19.319672119
  0
LINE
  5
B44
330
A02
100
AcDbEntity
  8
Part
100
AcDbLine
 10
-2.935503275
 20
6.000000000
 30
19.088097778
 11
-3.148900366
 21
6.000000000
 31
18.284545825
  0
LINE
  5
B45
330
A02
100
AcDbEntity
  8
Part
100
AcDbLine
 10
-2.023640916
 20
6.000000000
 30
-18.205052025
 11
-1.361733460
 21
6.000000000
 31
-18.670744683
  0
LINE
  5
B46
330
A02
100
AcDbEntity
  8
Part
100
AcDbLine
 10
-3.148900366
 20
6.000000000
 30
18.284545825
 11
-3.403605909
 21
6.000000000
 31
17.842327015
  0
LINE
  5
B47
330
A02
100
AcDbEntity
  8
Part
100
AcDbLine
 10
-2.679353325
 20
6.000000000
 30
-17.897444923
 11
-2.023640916
 21
6.000000000
 31
-18.205052025
  0
LINE
  5
B48
330
A02
100
AcDbEntity
  8
Part
100
AcDbLine
 10
-3.403605909
 20
6.000000000
 30
17.842327015
 11
-3.693918545
 21
6.000000000
 31
17.637847590
  0
LINE
  5
B49
330
A02
100
AcDbEntity
  8
Part
100
AcDbLine
 10
-3.339876184
 20
6.000000000
 30
-17.699984108
 11
-2.679353325
 21
6.000000000
 31
-17.897444923
  0
LINE
  5
B4A
330
A02
100
AcDbEntity
  8
Part
100
AcDbLine
 10
-3.693918545
 20
6.000000000
 30
17.637847590
 11
-4.005376811
 21
6.000000000
 31
17.548702419
  0
LINE
  5
B4B
330
A02
100
AcDbEntity
  8
Part
100
AcDbLine
 10
-4.005376811
 20
6.000000000
 30
-17.548702419
 11
-3.339876184
 21
6.000000000
 31
-17.699984108
  0
LINE
  5
B4C
330
A02
100
AcDbEntity
  8
Part
100
AcDbLine
 10
-4.005376811
 20
6.000000000
 30
17.548702419
 11
-4.670610823
 21
6.000000000
 31
17.396252611
  0
LINE
  5
B4D
330
A02
100
AcDbEntity
  8
Part
100
AcDbLine
 10
-4.324669653
 20
6.000000000
 30
-17.493882766
 11
-4.005376811
 21
6.000000000
 31
-17.548702419
  0
LINE
  5
B4E
330
A02
100
AcDbEntity
  8
Part
100
AcDbLine
 10
-4.670610823
 20
6.000000000
 30
17.396252611
 11
-5.351396392
 21
6.000000000
 31
17.287568530
  0
LINE
  5
B4F
330
A02
100
AcDbEntity
  8
Part
100
AcDbLine
 10
-4.674952597
 20
6.000000000
 30
-17.552150430
 11
-4.324669653
 21
6.000000000
 31
-17.493882766
  0
LINE
  5
B50
330
A02
100
AcDbEntity
  8
Part
100
AcDbLine
 10
-5.351396392
 20
6.000000000
 30
17.287568530
 11
-6.075638578
 21
6.000000000
 31
17.280210000
  0
LINE
  5
B51
330
A02
100
AcDbEntity
  8
Part
100
AcDbLine
 10
-5.096305913
 20
6.000000000
 30
-17.840063217
 11
-4.674952597
 21
6.000000000
 31
-17.552150430
  0
LINE
  5
B52
330
A02
100
AcDbEntity
  8
Part
100
AcDbLine
 10
-6.075638578
 20
6.000000000
 30
17.280210000
 11
-6.874053061
 21
6.000000000
 31
17.412593705
  0
LINE
  5
B53
330
A02
100
AcDbEntity
  8
Part
100
AcDbLine
 10
-5.637218174
 20
6.000000000
 30
-18.471448982
 11
-5.096305913
 21
6.000000000
 31
-17.840063217
  0
LINE
  5
B54
330
A02
100
AcDbEntity
  8
Part
100
AcDbLine
 10
-6.874053061
 20
6.000000000
 30
17.412593705
 11
-7.774645888
 21
6.000000000
 31
17.699146173
  0
LINE
  5
B55
330
A02
100
AcDbEntity
  8
Part
100
AcDbLine
 10
-6.354463721
 20
6.000000000
 30
-19.557028382
 11
-5.637218174
 21
6.000000000
 31
-18.471448982
  0
LINE
  5
B56
330
A02
100
AcDbEntity
  8
Part
100
AcDbLine
 10
-7.774645888
 20
6.000000000
 30
17.699146173
 11
-8.797259951
 21
6.000000000
 31
18.128744012
  0
LINE
  5
B57
330
A02
100
AcDbEntity
  8
Part
100
AcDbLine
 10
-7.312966597
 20
6.000000000
 30
-21.204042089
 11
-6.354463721
 21
6.000000000
 31
-19.557028382
  0
LINE
  5
B58
330
A02
100
AcDbEntity
  8
Part
100
AcDbLine
 10
-8.797259951
 20
6.000000000
 30
18.128744012
 11
-9.949093921
 21
6.000000000
 31
18.666588640
  0
LINE
  5
B59
330
A02
100
AcDbEntity
  8
Part
100
AcDbLine
 10
-8.585651110
 20
6.000000000
 30
-23.515882880
 11
-7.312966597
 21
6.000000000
 31
-21.204042089
  0
LINE
  5
B5A
330
A02
100
AcDbEntity
  8
Part
100
AcDbLine
 10
-9.949093921
 20
6.000000000
 30
18.666588640
 11
-11.221976603
 21
6.000000000
 31
19.259189146
  0
LINE
  5
B5B
330
A02
100
AcDbEntity
  8
Part
100
AcDbLine
 10
-10.253279160
 20
6.000000000
 30
-26.591733047
 11
-8.585651110
 21
6.000000000
 31
-23.515882880
  0
LINE
  5
B5C
330
A02
100
AcDbEntity
  8
Part
100
AcDbLine
 10
-11.221976603
 20
6.000000000
 30
19.259189146
 11
-12.591929682
 21
6.000000000
 31
19.841706249
  0
LINE
  5
B5D
330
A02
100
AcDbEntity
  8
Part
100
AcDbLine
 10
-11.613889685
 20
6.000000000
 30
-27.172045679
 11
-10.253279160
 21
6.000000000
 31
-26.591733047
  0
LINE
  5
B5E
330
A02
100
AcDbEntity
  8
Part
100
AcDbLine
 10
-12.591929682
 20
6.000000000
 30
19.841706249
 11
-14.021210524
 21
6.000000000
 31
20.346601299
  0
LINE
  5
B5F
330
A02
100
AcDbEntity
  8
Part
100
AcDbLine
 10
-12.347599455
 20
6.000000000
 30
-26.239984522
 11
-11.613889685
 21
6.000000000
 31
-27.172045679
  0
LINE
  5
B60
330
A02
100
AcDbEntity
  8
Part
100
AcDbLine
 10
-14.021210524
 20
6.000000000
 30
20.346601299
 11
-15.462644988
 21
6.000000000
 31
20.712378465
  0
LINE
  5
B61
330
A02
100
AcDbEntity
  8
Part
100
AcDbLine
 10
-13.327282056
 20
6.000000000
 30
-25.742344067
 11
-12.347599455
 21
6.000000000
 31
-26.239984522
  0
LINE
  5
B62
330
A02
100
AcDbEntity
  8
Part
100
AcDbLine
 10
-15.462644988
 20
6.000000000
 30
20.712378465
 11
-16.865695843
 21
6.000000000
 31
20.891225398
  0
LINE
  5
B63
330
A02
100
AcDbEntity
  8
Part
100
AcDbLine
 10
-14.251384411
 20
6.000000000
 30
-25.145332449
 11
-13.327282056
 21
6.000000000
 31
-25.742344067
  0
LINE
  5
B64
330
A02
100
AcDbEntity
  8
Part
100
AcDbLine
 10
-16.865695843
 20
6.000000000
 30
20.891225398
 11
-18.183421810
 21
6.000000000
 31
20.854542039
  0
LINE
  5
B65
330
A02
100
AcDbEntity
  8
Part
100
AcDbLine
 10
-15.078093540
 20
6.000000000
 30
-24.399904162
 11
-14.251384411
 21
6.000000000
 31
-25.145332449
  0
LINE
  5
B66
330
A02
100
AcDbEntity
  8
Part
100
AcDbLine
 10
-18.183421810
 20
6.000000000
 30
20.854542039
 11
-19.379311658
 21
6.000000000
 31
20.595669630
  0
LINE
  5
B67
330
A02
100
AcDbEntity
  8
Part
100
AcDbLine
 10
-15.766990663
 20
6.000000000
 30
-23.476399496
 11
-15.078093540
 21
6.000000000
 31
-24.399904162
  0
LINE
  5
B68
330
A02
100
AcDbEntity
  8
Part
100
AcDbLine
 10
-19.379311658
 20
6.000000000
 30
20.595669630
 11
-20.432956165
 21
6.000000000
 31
20.129543717
  0
LINE
  5
B69
330
A02
100
AcDbEntity
  8
Part
100
AcDbLine
 10
-16.285483126
 20
6.000000000
 30
-22.368097633
 11
-15.766990663
 21
6.000000000
 31
-23.476399496
  0
LINE
  5
B6A
330
A02
100
AcDbEntity
  8
Part
100
AcDbLine
 10
-20.432956165
 20
6.000000000
 30
20.129543717
 11
-21.343655097
 21
6.000000000
 31
19.489435311
  0
LINE
  5
B6B
330
A02
100
AcDbEntity
  8
Part
100
AcDbLine
 10
-16.614468369
 20
6.000000000
 30
-21.091572623
 11
-16.285483126
 21
6.000000000
 31
-22.368097633
  0
LINE
  5
B6C
330
A02
100
AcDbEntity
  8
Part
100
AcDbLine
 10
-21.343655097
 20
6.000000000
 30
19.489435311
 11
-22.131330505
 21
6.000000000
 31
18.721349714
  0
LINE
  5
B6D
330
A02
100
AcDbEntity
  8
Part
100
AcDbLine
 10
-16.752313689
 20
6.000000000
 30
-19.683901996
 11
-16.614468369
 21
6.000000000
 31
-21.091572623
  0
LINE
  5
B6E
330
A02
100
AcDbEntity
  8
Part
100
AcDbLine
 10
-22.131330505
 20
6.000000000
 30
18.721349714
 11
-22.834493962
 21
6.000000000
 31
17.876965220
  0
LINE
  5
B6F
330
A02
100
AcDbEntity
  8
Part
100
AcDbLine
 10
-16.716456664
 20
6.000000000
 30
-18.197214226
 11
-16.752313689
 21
6.000000000
 31
-19.683901996
  0
LINE
  5
B70
330
A02
100
AcDbEntity
  8
Part
100
AcDbLine
 10
-22.834493962
 20
6.000000000
 30
17.876965220
 11
-23.906452184
 21
6.000000000
 31
17.369054205
  0
LINE
  5
B71
330
A02
100
AcDbEntity
  8
Part
100
AcDbLine
 10
-16.542265295
 20
6.000000000
 30
-16.691418721
 11
-16.716456664
 21
6.000000000
 31
-18.197214226
  0
LINE
  5
B72
330
A02
100
AcDbEntity
  8
Part
100
AcDbLine
 10
-23.906452184
 20
6.000000000
 30
17.369054205
 11
-23.643453526
 21
6.000000000
 31
15.913425318
  0
LINE
  5
B73
330
A02
100
AcDbEntity
  8
Part
100
AcDbLine
 10
-16.279196350
 20
6.000000000
 30
-15.226190976
 11
-16.542265295
 21
6.000000000
 31
-16.691418721
  0
LINE
  5
B74
330
A02
100
AcDbEntity
  8
Part
100
AcDbLine
 10
-23.643453526
 20
6.000000000
 30
15.913425318
 11
-21.015803496
 21
6.000000000
 31
13.603167133
  0
LINE
  5
B75
330
A02
100
AcDbEntity
  8
Part
100
AcDbLine
 10
-15.984696620
 20
6.000000000
 30
-13.853356102
 11
-16.279196350
 21
6.000000000
 31
-15.226190976
  0
LINE
  5
B76
330
A02
100
AcDbEntity
  8
Part
100
AcDbLine
 10
-21.015803496
 20
6.000000000
 30
13.603167133
 11
-19.045124326
 21
6.000000000
 31
11.847958506
  0
LINE
  5
B77
330
A02
100
AcDbEntity
  8
Part
100
AcDbLine
 10
-15.716644049
 20
6.000000000
 30
-12.610719326
 11
-15.984696620
 21
6.000000000
 31
-13.853356102
  0
LINE
  5
B78
330
A02
100
AcDbEntity
  8
Part
100
AcDbLine
 10
-19.045124326
 20
6.000000000
 30
11.847958506
 11
-17.652691647
 21
6.000000000
 31
10.546992270
  0
LINE
  5
B79
330
A02
100
AcDbEntity
  8
Part
100
AcDbLine
 10
-15.525370162
 20
6.000000000
 30
-11.518149820
 11
-15.716644049
 21
6.000000000
 31
-12.610719326
  0
LINE
  5
B7A
330
A02
100
AcDbEntity
  8
Part
100
AcDbLine
 10
-17.652691647
 20
6.000000000
 30
10.546992270
 11
-16.753932138
 21
6.000000000
 31
9.606165424
  0
LINE
  5
B7B
330
A02
100
AcDbEntity
  8
Part
100
AcDbLine
 10
-15.446402919
 20
6.000000000
 30
-10.576372813
 11
-15.525370162
 21
6.000000000
 31
-11.518149820
  0
LINE
  5
B7C
330
A02
100
AcDbEntity
  8
Part
100
AcDbLine
 10
-16.753932138
 20
6.000000000
 30
9.606165424
 11
-16.258740834
 21
6.000000000
 31
8.938318412
  0
LINE
  5
B7D
330
A02
100
AcDbEntity
  8
Part
100
AcDbLine
 10
-15.495002287
 20
6.000000000
 30
-9.768518102
 11
-15.446402919
 21
6.000000000
 31
-10.576372813
  0
LINE
  5
B7E
330
A02
100
AcDbEntity
  8
Part
100
AcDbLine
 10
-16.258740834
 20
6.000000000
 30
8.938318412
 11
-16.071806555
 21
6.000000000
 31
8.463462681
  0
LINE
  5
B7F
330
A02
100
AcDbEntity
  8
Part
100
AcDbLine
 10
-15.663335371
 20
6.000000000
 30
-9.064071606
 11
-15.495002287
 21
6.000000000
 31
-9.768518102
  0
LINE
  5
B80
330
A02
100
AcDbEntity
  8
Part
100
AcDbLine
 10
-16.071806555
 20
6.000000000
 30
8.463462681
 11
-16.092945070
 21
6.000000000
 31
8.108996287
  0
LINE
  5
B81
330
A02
100
AcDbEntity
  8
Part
100
AcDbLine
 10
-15.920783555
 20
6.000000000
 30
-8.424539237
 11
-15.663335371
 21
6.000000000
 31
-9.064071606
  0
LINE
  5
B82
330
A02
100
AcDbEntity
  8
Part
100
AcDbLine
 10
-16.092945070
 20
6.000000000
 30
8.108996287
 11
-16.217439622
 21
6.000000000
 31
7.809907304
  0
LINE
  5
B83
330
A02
100
AcDbEntity
  8
Part
100
AcDbLine
 10
-16.217439622
 20
6.000000000
 30
-7.809907304
 11
-15.920783555
 21
6.000000000
 31
-8.424539237
  0
LINE
  5
B84
330
A02
100
AcDbEntity
  8
Part
100
AcDbLine
 10
-16.217439622
 20
6.000000000
 30
7.809907304
 11
-16.513016185
 21
6.000000000
 31
7.194755509
  0
LINE
  5
B85
330
A02
100
AcDbEntity
  8
Part
100
AcDbLine
 10
-16.373655722
 20
6.000000000
 30
-7.526094613
 11
-16.217439622
 21
6.000000000
 31
-7.809907304
  0
LINE
  5
B86
330
A02
100
AcDbEntity
  8
Part
100
AcDbLine
 10
-16.513016185
 20
6.000000000
 30
7.194755509
 11
-16.852506408
 21
6.000000000
 31
6.594732503
  0
LINE
  5
B87
330
A02
100
AcDbEntity
  8
Part
100
AcDbLine
 10
-16.637609060
 20
6.000000000
 30
-7.288561675
 11
-16.373655722
 21
6.000000000
 31
-7.526094613
  0
LINE
  5
B88
330
A02
100
AcDbEntity
  8
Part
100
AcDbLine
 10
-16.852506408
 20
6.000000000
 30
6.594732503
 11
-17.298310895
 21
6.000000000
 31
6.023909193
  0
LINE
  5
B89
330
A02
100
AcDbEntity
  8
Part
100
AcDbLine
 10
-17.125417836
 20
6.000000000
 30
-7.138645074
 11
-16.637609060
 21
6.000000000
 31
-7.288561675
  0
LINE
  5
B8A
330
A02
100
AcDbEntity
  8
Part
100
AcDbLine
 10
-17.298310895
 20
6.000000000
 30
6.023909193
 11
-17.899615931
 21
6.000000000
 31
5.482223503
  0
LINE
  5
B8B
330
A02
100
AcDbEntity
  8
Part
100
AcDbLine
 10
-17.956308384
 20
6.000000000
 30
-7.109405424
 11
-17.125417836
 21
6.000000000
 31
-7.138645074
  0
LINE
  5
B8C
330
A02
100
AcDbEntity
  8
Part
100
AcDbLine
 10
-17.899615931
 20
6.000000000
 30
5.482223503
 11
-18.685162115
 21
6.000000000
 31
4.956774220
  0
LINE
  5
B8D
330
A02
100
AcDbEntity
  8
Part
100
AcDbLine
 10
-19.252243819
 20
6.000000000
 30
-7.225487960
 11
-17.956308384
 21
6.000000000
 31
-7.109405424
  0
LINE
  5
B8E
330
A02
100
AcDbEntity
  8
Part
100
AcDbLine
 10
-18.685162115
 20
6.000000000
 30
4.956774220
 11
-19.658624670
 21
6.000000000
 31
4.425112223
  0
LINE
  5
B8F
330
A02
100
AcDbEntity
  8
Part
100
AcDbLine
 10
-21.137547755
 20
6.000000000
 30
-7.502996484
 11
-19.252243819
 21
6.000000000
 31
-7.225487960
  0
LINE
  5
B90
330
A02
100
AcDbEntity
  8
Part
100
AcDbLine
 10
-19.658624670
 20
6.000000000
 30
4.425112223
 11
-20.797285267
 21
6.000000000
 31
3.859912804
  0
LINE
  5
B91
330
A02
100
AcDbEntity
  8
Part
100
AcDbLine
 10
-23.738523483
 20
6.000000000
 30
-7.949380823
 11
-21.137547755
 21
6.000000000
 31
-7.502996484
  0
LINE
  5
B92
330
A02
100
AcDbEntity
  8
Part
100
AcDbLine
 10
-20.797285267
 20
6.000000000
 30
3.859912804
 11
-22.054228370
 21
6.000000000
 31
3.234213421
  0
LINE
  5
B93
330
A02
100
AcDbEntity
  8
Part
100
AcDbLine
 10
-27.183069062
 20
6.000000000
 30
-8.563337923
 11
-23.738523483
 21
6.000000000
 31
-7.949380823
  0
LINE
  5
B94
330
A02
100
AcDbEntity
  8
Part
100
AcDbLine
 10
-22.054228370
 20
6.000000000
 30
3.234213421
 11
-23.363810354
 21
6.000000000
 31
2.526334447
  0
LINE
  5
B95
330
A02
100
AcDbEntity
  8
Part
100
AcDbLine
 10
-28.485102534
 20
6.000000000
 30
-7.861388786
 11
-27.183069062
 21
6.000000000
 31
-8.563337923
  0
LINE
  5
B96
330
A02
100
AcDbEntity
  8
Part
100
AcDbLine
 10
-23.363810354
 20
6.000000000
 30
2.526334447
 11
-24.649695229
 21
6.000000000
 31
1.723674603
  0
LINE
  5
B97
330
A02
100
AcDbEntity
  8
Part
100
AcDbLine
 10
-28.213848336
 20
6.000000000
 30
-6.706620763
 11
-28.485102534
 21
6.000000000
 31
-7.861388786
  0
LINE
  5
B98
330
A02
100
AcDbEntity
  8
Part
100
AcDbLine
 10
-24.649695229
 20
6.000000000
 30
1.723674603
 11
-25.834391021
 21
6.000000000
 31
0.824774091
  0
LINE
  5
B99
330
A02
100
AcDbEntity
  8
Part
100
AcDbLine
 10
-28.435599472
 20
6.000000000
 30
-5.630400314
 11
-28.213848336
 21
6.000000000
 31
-6.706620763
  0
LINE
  5
B9A
330
A02
100
AcDbEntity
  8
Part
100
AcDbLine
 10
-25.834391021
 20
6.000000000
 30
0.824774091
 11
-26.849007083
 21
6.000000000
 31
-0.160666000
  0
LINE
  5
B9B
330
A02
100
AcDbEntity
  8
Part
100
AcDbLine
 10
-28.545005389
 20
6.000000000
 30
-4.535677345
 11
-28.435599472
 21
6.000000000
 31
-5.630400314
  0
LINE
  5
B9C
330
A02
100
AcDbEntity
  8
Part
100
AcDbLine
 10
-26.849007083
 20
6.000000000
 30
-0.160666000
 11
-27.641915580
 21
6.000000000
 31
-1.213777346
  0
LINE
  5
B9D
330
A02
100
AcDbEntity
  8
Part
100
AcDbLine
 10
-28.477650797
 20
6.000000000
 30
-3.424563186
 11
-28.545005389
 21
6.000000000
 31
-4.535677345
  0
LINE
  5
B9E
330
A02
100
AcDbEntity
  8
Part
100
AcDbLine
 10
-27.641915580
 20
6.000000000
 30
-1.213777346
 11
-28.185146106
 21
6.000000000
 31
-2.310165986
  0
LINE
  5
B9F
330
A02
100
AcDbEntity
  8
Part
100
AcDbLine
 10
-28.185146106
 20
6.000000000
 30
-2.310165986
 11
-28.477650797
 21
6.000000000
 31
-3.424563186
  0
LINE
  5
BA0
330
A02
100
AcDbEntity
  8
Part
100
AcDbLine
 10
3.100000000
 20
6.000000000
 30
9.612491873
 11
3.100000000
 21
6.000000000
 31
13.000000000
  0
LINE
  5
BA1
330
A02
100
AcDbEntity
  8
Part
100
AcDbLine
 10
-3.100000000
 20
6.000000000
 30
13.000000000
 11
3.100000000
 21
6.000000000
 31
13.000000000
  0
LINE
  5
BA2
330
A02
100
AcDbEntity
  8
Part
100
AcDbLine
 10
-3.100000000
 20
6.000000000
 30
9.612491873
 11
-3.100000000
 21
6.000000000
 31
13.000000000
  0
ARC
  5
BA3
330
A02
100
AcDbEntity
  8
Part
100
AcDbCircle
 10
0.000000000
 20
6.000000000
 30
0.000000000
 40
3.100000000
100
AcDbArc
 50
180.000000000
 51
0.000000000
  0
LINE
  5
BA4
330
A02
100
AcDbEntity
  8
Part
100
AcDbLine
 10
18.152356191
 20
0.000000000
 30
-0.652020868
 11
18.152356191
 21
6.000000000
 31
-0.652020868
  0
LINE
  5
BA5
330
A02
100
AcDbEntity
  8
Part
100
AcDbLine
 10
18.017604131
 20
0.000000000
 30
-0.323486024
 11
18.017604131
 21
6.000000000
 31
-0.323486024
  0
LINE
  5
BA6
330
A02
100
AcDbEntity
  8
Part
100
AcDbLine
 10
18.152356191
 20
0.000000000
 30
-0.652020868
 11
18.017604131
 21
0.000000000
 31
-0.323486024
  0
LINE
  5
BA7
330
A02
100
AcDbEntity
  8
Part
100
AcDbLine
 10
18.152356191
 20
6.000000000
 30
-0.652020868
 11
18.017604131
 21
6.000000000
 31
-0.323486024
  0
LINE
  5
BA8
330
A02
100
AcDbEntity
  8
Part
100
AcDbLine
 10
18.044930817
 20
0.000000000
 30
1.370379816
 11
18.044930817
 21
6.000000000
 31
1.370379816
  0
LINE
  5
BA9
330
A02
100
AcDbEntity
  8
Part
100
AcDbLine
 10
18.198915829
 20
0.000000000
 30
2.078101166
 11
18.198915829
 21
6.000000000
 31
2.078101166
  0
LINE
  5
BAA
330
A02
100
AcDbEntity
  8
Part
100
AcDbLine
 10
18.044930817
 20
0.000000000
 30
1.370379816
 11
18.198915829
 21
0.000000000
 31
2.078101166
  0
LINE
  5
BAB
330
A02
100
AcDbEntity
  8
Part
100
AcDbLine
 10
18.044930817
 20
6.000000000
 30
1.370379816
 11
18.198915829
 21
6.000000000
 31
2.078101166
  0
LINE
  5
BAC
330
A02
100
AcDbEntity
  8
Part
100
AcDbLine
 10
18.526810337
 20
0.000000000
 30
-0.998743354
 11
18.526810337
 21
6.000000000
 31
-0.998743354
  0
LINE
  5
BAD
330
A02
100
AcDbEntity
  8
Part
100
AcDbLine
 10
18.152356191
 20
0.000000000
 30
-0.652020868
 11
18.152356191
 21
6.000000000
 31
-0.652020868
  0
LINE
  5
BAE
330
A02
100
AcDbEntity
  8
Part
100
AcDbLine
 10
18.526810337
 20
0.000000000
 30
-0.998743354
 11
18.152356191
 21
0.000000000
 31
-0.652020868
  0
LINE
  5
BAF
330
A02
100
AcDbEntity
  8
Part
100
AcDbLine
 10
18.526810337
 20
6.000000000
 30
-0.998743354
 11
18.152356191
 21
6.000000000
 31
-0.652020868
  0
LINE
  5
BB0
330
A02
100
AcDbEntity
  8
Part
100
AcDbLine
 10
18.198915829
 20
0.000000000
 30
2.078101166
 11
18.198915829
 21
6.000000000
 31
2.078101166
  0
LINE
  5
BB1
330
A02
100
AcDbEntity
  8
Part
100
AcDbLine
 10
18.505644334
 20
0.000000000
 30
2.827039585
 11
18.505644334
 21
6.000000000
 31
2.827039585
  0
LINE
  5
BB2
330
A02
100
AcDbEntity
  8
Part
100
AcDbLine
 10
18.198915829
 20
0.000000000
 30
2.078101166
 11
18.505644334
 21
0.000000000
 31
2.827039585
  0
LINE
  5
BB3
330
A02
100
AcDbEntity
  8
Part
100
AcDbLine
 10
18.198915829
 20
6.000000000
 30
2.078101166
 11
18.505644334
 21
6.000000000
 31
2.827039585
  0
LINE
  5
BB4
330
A02
100
AcDbEntity
  8
Part
100
AcDbLine
 10
19.262730244
 20
0.000000000
 30
-1.385597266
 11
19.262730244
 21
6.000000000
 31
-1.385597266
  0
LINE
  5
BB5
330
A02
100
AcDbEntity
  8
Part
100
AcDbLine
 10
18.526810337
 20
0.000000000
 30
-0.998743354
 11
18.526810337
 21
6.000000000
 31
-0.998743354
  0
LINE
  5
BB6
330
A02
100
AcDbEntity
  8
Part
100
AcDbLine
 10
19.262730244
 20
0.000000000
 30
-1.385597266
 11
18.526810337
 21
0.000000000
 31
-0.998743354
  0
LINE
  5
BB7
330
A02
100
AcDbEntity
  8
Part
100
AcDbLine
 10
19.262730244
 20
6.000000000
 30
-1.385597266
 11
18.526810337
 21
6.000000000
 31
-0.998743354
  0
LINE
  5
BB8
330
A02
100
AcDbEntity
  8
Part
100
AcDbLine
 10
18.505644334
 20
0.000000000
 30
2.827039585
 11
18.505644334
 21
6.000000000
 31
2.827039585
  0
LINE
  5
BB9
330
A02
100
AcDbEntity
  8
Part
100
AcDbLine
 10
18.985413090
 20
0.000000000
 30
3.641288747
 11
18.985413090
 21
6.000000000
 31
3.641288747
  0
LINE
  5
BBA
330
A02
100
AcDbEntity
  8
Part
100
AcDbLine
 10
18.505644334
 20
0.000000000
 30
2.827039585
 11
18.985413090
 21
0.000000000
 31
3.641288747
  0
LINE
  5
BBB
330
A02
100
AcDbEntity
  8
Part
100
AcDbLine
 10
18.505644334
 20
6.000000000
 30
2.827039585
 11
18.985413090
 21
6.000000000
 31
3.641288747
  0
LINE
  5
BBC
330
A02
100
AcDbEntity
  8
Part
100
AcDbLine
 10
20.480694051
 20
0.000000000
 30
-1.843295828
 11
20.480694051
 21
6.000000000
 31
-1.843295828
  0
LINE
  5
BBD
330
A02
100
AcDbEntity
  8
Part
100
AcDbLine
 10
19.262730244
 20
0.000000000
 30
-1.385597266
 11
19.262730244
 21
6.000000000
 31
-1.385597266
  0
LINE
  5
BBE
330
A02
100
AcDbEntity
  8
Part
100
AcDbLine
 10
20.480694051
 20
0.000000000
 30
-1.843295828
 11
19.262730244
 21
0.000000000
 31
-1.385597266
  0
LINE
  5
BBF
330
A02
100
AcDbEntity
  8
Part
100
AcDbLine
 10
20.480694051
 20
6.000000000
 30
-1.843295828
 11
19.262730244
 21
6.000000000
 31
-1.385597266
  0
LINE
  5
BC0
330
A02
100
AcDbEntity
  8
Part
100
AcDbLine
 10
18.985413090
 20
0.000000000
 30
3.641288747
 11
18.985413090
 21
6.000000000
 31
3.641288747
  0
LINE
  5
BC1
330
A02
100
AcDbEntity
  8
Part
100
AcDbLine
 10
19.631793050
 20
0.000000000
 30
4.542669228
 11
19.631793050
 21
6.000000000
 31
4.542669228
  0
LINE
  5
BC2
330
A02
100
AcDbEntity
  8
Part
100
AcDbLine
 10
18.985413090
 20
0.000000000
 30
3.641288747
 11
19.631793050
 21
0.000000000
 31
4.542669228
  0
LINE
  5
BC3
330
A02
100
AcDbEntity
  8
Part
100
AcDbLine
 10
18.985413090
 20
6.000000000
 30
3.641288747
 11
19.631793050
 21
6.000000000
 31
4.542669228
  0
LINE
  5
BC4
330
A02
100
AcDbEntity
  8
Part
100
AcDbLine
 10
22.299700640
 20
0.000000000
 30
-2.411272008
 11
22.299700640
 21
6.000000000
 31
-2.411272008
  0
LINE
  5
BC5
330
A02
100
AcDbEntity
  8
Part
100
AcDbLine
 10
20.480694051
 20
0.000000000
 30
-1.843295828
 11
20.480694051
 21
6.000000000
 31
-1.843295828
  0
LINE
  5
BC6
330
A02
100
AcDbEntity
  8
Part
100
AcDbLine
 10
22.299700640
 20
0.000000000
 30
-2.411272008
 11
20.480694051
 21
0.000000000
 31
-1.843295828
  0
LINE
  5
BC7
330
A02
100
AcDbEntity
  8
Part
100
AcDbLine
 10
22.299700640
 20
6.000000000
 30
-2.411272008
 11
20.480694051
 21
6.000000000
 31
-1.843295828
  0
LINE
  5
BC8
330
A02
100
AcDbEntity
  8
Part
100
AcDbLine
 10
19.631793050
 20
0.000000000
 30
4.542669228
 11
19.631793050
 21
6.000000000
 31
4.542669228
  0
LINE
  5
BC9
330
A02
100
AcDbEntity
  8
Part
100
AcDbLine
 10
20.412459962
 20
0.000000000
 30
5.545942626
 11
20.412459962
 21
6.000000000
 31
5.545942626
  0
LINE
  5
BCA
330
A02
100
AcDbEntity
  8
Part
100
AcDbLine
 10
19.631793050
 20
0.000000000
 30
4.542669228
 11
20.412459962
 21
0.000000000
 31
5.545942626
  0
LINE
  5
BCB
330
A02
100
AcDbEntity
  8
Part
100
AcDbLine
 10
19.631793050
 20
6.000000000
 30
4.542669228
 11
20.412459962
 21
6.000000000
 31
5.545942626
  0
LINE
  5
BCC
330
A02
100
AcDbEntity
  8
Part
100
AcDbLine
 10
24.836777703
 20
0.000000000
 30
-3.137614690
 11
24.836777703
 21
6.000000000
 31
-3.137614690
  0
LINE
  5
BCD
330
A02
100
AcDbEntity
  8
Part
100
AcDbLine
 10
22.299700640
 20
0.000000000
 30
-2.411272008
 11
22.299700640
 21
6.000000000
 31
-2.411272008
  0
LINE
  5
BCE
330
A02
100
AcDbEntity
  8
Part
100
AcDbLine
 10
24.836777703
 20
0.000000000
 30
-3.137614690
 11
22.299700640
 21
0.000000000
 31
-2.411272008
  0
LINE
  5
BCF
330
A02
100
AcDbEntity
  8
Part
100
AcDbLine
 10
24.836777703
 20
6.000000000
 30
-3.137614690
 11
22.299700640
 21
6.000000000
 31
-2.411272008
  0
LINE
  5
BD0
330
A02
100
AcDbEntity
  8
Part
100
AcDbLine
 10
20.412459962
 20
0.000000000
 30
5.545942626
 11
20.412459962
 21
6.000000000
 31
5.545942626
  0
LINE
  5
BD1
330
A02
100
AcDbEntity
  8
Part
100
AcDbLine
 10
21.273445779
 20
0.000000000
 30
6.655045464
 11
21.273445779
 21
6.000000000
 31
6.655045464
  0
LINE
  5
BD2
330
A02
100
AcDbEntity
  8
Part
100
AcDbLine
 10
20.412459962
 20
0.000000000
 30
5.545942626
 11
21.273445779
 21
0.000000000
 31
6.655045464
  0
LINE
  5
BD3
330
A02
100
AcDbEntity
  8
Part
100
AcDbLine
 10
20.412459962
 20
6.000000000
 30
5.545942626
 11
21.273445779
 21
6.000000000
 31
6.655045464
  0
LINE
  5
BD4
330
A02
100
AcDbEntity
  8
Part
100
AcDbLine
 10
28.206592036
 20
0.000000000
 30
-4.078990772
 11
28.206592036
 21
6.000000000
 31
-4.078990772
  0
LINE
  5
BD5
330
A02
100
AcDbEntity
  8
Part
100
AcDbLine
 10
24.836777703
 20
0.000000000
 30
-3.137614690
 11
24.836777703
 21
6.000000000
 31
-3.137614690
  0
LINE
  5
BD6
330
A02
100
AcDbEntity
  8
Part
100
AcDbLine
 10
28.206592036
 20
0.000000000
 30
-4.078990772
 11
24.836777703
 21
0.000000000
 31
-3.137614690
  0
LINE
  5
BD7
330
A02
100
AcDbEntity
  8
Part
100
AcDbLine
 10
28.206592036
 20
6.000000000
 30
-4.078990772
 11
24.836777703
 21
6.000000000
 31
-3.137614690
  0
LINE
  5
BD8
330
A02
100
AcDbEntity
  8
Part
100
AcDbLine
 10
21.273445779
 20
0.000000000
 30
6.655045464
 11
21.273445779
 21
6.000000000
 31
6.655045464
  0
LINE
  5
BD9
330
A02
100
AcDbEntity
  8
Part
100
AcDbLine
 10
22.146201201
 20
0.000000000
 30
7.861028709
 11
22.146201201
 21
6.000000000
 31
7.861028709
  0
LINE
  5
BDA
330
A02
100
AcDbEntity
  8
Part
100
AcDbLine
 10
21.273445779
 20
0.000000000
 30
6.655045464
 11
22.146201201
 21
0.000000000
 31
7.861028709
  0
LINE
  5
BDB
330
A02
100
AcDbEntity
  8
Part
100
AcDbLine
 10
21.273445779
 20
6.000000000
 30
6.655045464
 11
22.146201201
 21
6.000000000
 31
7.861028709
  0
LINE
  5
BDC
330
A02
100
AcDbEntity
  8
Part
100
AcDbLine
 10
29.075119343
 20
0.000000000
 30
-5.276356241
 11
29.075119343
 21
6.000000000
 31
-5.276356241
  0
LINE
  5
BDD
330
A02
100
AcDbEntity
  8
Part
100
AcDbLine
 10
28.206592036
 20
0.000000000
 30
-4.078990772
 11
28.206592036
 21
6.000000000
 31
-4.078990772
  0
LINE
  5
BDE
330
A02
100
AcDbEntity
  8
Part
100
AcDbLine
 10
29.075119343
 20
0.000000000
 30
-5.276356241
 11
28.206592036
 21
0.000000000
 31
-4.078990772
  0
LINE
  5
BDF
330
A02
100
AcDbEntity
  8
Part
100
AcDbLine
 10
29.075119343
 20
6.000000000
 30
-5.276356241
 11
28.206592036
 21
6.000000000
 31
-4.078990772
  0
LINE
  5
BE0
330
A02
100
AcDbEntity
  8
Part
100
AcDbLine
 10
22.146201201
 20
0.000000000
 30
7.861028709
 11
22.146201201
 21
6.000000000
 31
7.861028709
  0
LINE
  5
BE1
330
A02
100
AcDbEntity
  8
Part
100
AcDbLine
 10
22.956482386
 20
0.000000000
 30
9.142124778
 11
22.956482386
 21
6.000000000
 31
9.142124778
  0
LINE
  5
BE2
330
A02
100
AcDbEntity
  8
Part
100
AcDbLine
 10
22.146201201
 20
0.000000000
 30
7.861028709
 11
22.956482386
 21
0.000000000
 31
9.142124778
  0
LINE
  5
BE3
330
A02
100
AcDbEntity
  8
Part
100
AcDbLine
 10
22.146201201
 20
6.000000000
 30
7.861028709
 11
22.956482386
 21
6.000000000
 31
9.142124778
  0
LINE
  5
BE4
330
A02
100
AcDbEntity
  8
Part
100
AcDbLine
 10
28.329692688
 20
0.000000000
 30
-6.199073495
 11
28.329692688
 21
6.000000000
 31
-6.199073495
  0
LINE
  5
BE5
330
A02
100
AcDbEntity
  8
Part
100
AcDbLine
 10
29.075119343
 20
0.000000000
 30
-5.276356241
 11
29.075119343
 21
6.000000000
 31
-5.276356241
  0
LINE
  5
BE6
330
A02
100
AcDbEntity
  8
Part
100
AcDbLine
 10
28.329692688
 20
0.000000000
 30
-6.199073495
 11
29.075119343
 21
0.000000000
 31
-5.276356241
  0
LINE
  5
BE7
330
A02
100
AcDbEntity
  8
Part
100
AcDbLine
 10
28.329692688
 20
6.000000000
 30
-6.199073495
 11
29.075119343
 21
6.000000000
 31
-5.276356241
  0
LINE
  5
BE8
330
A02
100
AcDbEntity
  8
Part
100
AcDbLine
 10
22.956482386
 20
0.000000000
 30
9.142124778
 11
22.956482386
 21
6.000000000
 31
9.142124778
  0
LINE
  5
BE9
330
A02
100
AcDbEntity
  8
Part
100
AcDbLine
 10
23.633838097
 20
0.000000000
 30
10.466026395
 11
23.633838097
 21
6.000000000
 31
10.466026395
  0
LINE
  5
BEA
330
A02
100
AcDbEntity
  8
Part
100
AcDbLine
 10
22.956482386
 20
0.000000000
 30
9.142124778
 11
23.633838097
 21
0.000000000
 31
10.466026395
  0
LINE
  5
BEB
330
A02
100
AcDbEntity
  8
Part
100
AcDbLine
 10
22.956482386
 20
6.000000000
 30
9.142124778
 11
23.633838097
 21
6.000000000
 31
10.466026395
  0
LINE
  5
BEC
330
A02
100
AcDbEntity
  8
Part
100
AcDbLine
 10
28.062529006
 20
0.000000000
 30
-7.264928826
 11
28.062529006
 21
6.000000000
 31
-7.264928826
  0
LINE
  5
BED
330
A02
100
AcDbEntity
  8
Part
100
AcDbLine
 10
28.329692688
 20
0.000000000
 30
-6.199073495
 11
28.329692688
 21
6.000000000
 31
-6.199073495
  0
LINE
  5
BEE
330
A02
100
AcDbEntity
  8
Part
100
AcDbLine
 10
28.062529006
 20
0.000000000
 30
-7.264928826
 11
28.329692688
 21
0.000000000
 31
-6.199073495
  0
LINE
  5
BEF
330
A02
100
AcDbEntity
  8
Part
100
AcDbLine
 10
28.062529006
 20
6.000000000
 30
-7.264928826
 11
28.329692688
 21
6.000000000
 31
-6.199073495
  0
LINE
  5
BF0
330
A02
100
AcDbEntity
  8
Part
100
AcDbLine
 10
23.633838097
 20
0.000000000
 30
10.466026395
 11
23.633838097
 21
6.000000000
 31
10.466026395
  0
LINE
  5
BF1
330
A02
100
AcDbEntity
  8
Part
100
AcDbLine
 10
24.120409151
 20
0.000000000
 30
11.794102649
 11
24.120409151
 21
6.000000000
 31
11.794102649
  0
LINE
  5
BF2
330
A02
100
AcDbEntity
  8
Part
100
AcDbLine
 10
23.633838097
 20
0.000000000
 30
10.466026395
 11
24.120409151
 21
0.000000000
 31
11.794102649
  0
LINE
  5
BF3
330
A02
100
AcDbEntity
  8
Part
100
AcDbLine
 10
23.633838097
 20
6.000000000
 30
10.466026395
 11
24.120409151
 21
6.000000000
 31
11.794102649
  0
LINE
  5
BF4
330
A02
100
AcDbEntity
  8
Part
100
AcDbLine
 10
27.686117835
 20
0.000000000
 30
-8.298709589
 11
27.686117835
 21
6.000000000
 31
-8.298709589
  0
LINE
  5
BF5
330
A02
100
AcDbEntity
  8
Part
100
AcDbLine
 10
28.062529006
 20
0.000000000
 30
-7.264928826
 11
28.062529006
 21
6.000000000
 31
-7.264928826
  0
LINE
  5
BF6
330
A02
100
AcDbEntity
  8
Part
100
AcDbLine
 10
27.686117835
 20
0.000000000
 30
-8.298709589
 11
28.062529006
 21
0.000000000
 31
-7.264928826
  0
LINE
  5
BF7
330
A02
100
AcDbEntity
  8
Part
100
AcDbLine
 10
27.686117835
 20
6.000000000
 30
-8.298709589
 11
28.062529006
 21
6.000000000
 31
-7.264928826
  0
LINE
  5
BF8
330
A02
100
AcDbEntity
  8
Part
100
AcDbLine
 10
24.120409151
 20
0.000000000
 30
11.794102649
 11
24.120409151
 21
6.000000000
 31
11.794102649
  0
LINE
  5
BF9
330
A02
100
AcDbEntity
  8
Part
100
AcDbLine
 10
24.377867133
 20
0.000000000
 30
13.086953290
 11
24.377867133
 21
6.000000000
 31
13.086953290
  0
LINE
  5
BFA
330
A02
100
AcDbEntity
  8
Part
100
AcDbLine
 10
24.120409151
 20
0.000000000
 30
11.794102649
 11
24.377867133
 21
0.000000000
 31
13.086953290
  0
LINE
  5
BFB
330
A02
100
AcDbEntity
  8
Part
100
AcDbLine
 10
24.120409151
 20
6.000000000
 30
11.794102649
 11
24.377867133
 21
6.000000000
 31
13.086953290
  0
LINE
  5
BFC
330
A02
100
AcDbEntity
  8
Part
100
AcDbLine
 10
27.143339079
 20
0.000000000
 30
-9.270564792
 11
27.143339079
 21
6.000000000
 31
-9.270564792
  0
LINE
  5
BFD
330
A02
100
AcDbEntity
  8
Part
100
AcDbLine
 10
27.686117835
 20
0.000000000
 30
-8.298709589
 11
27.686117835
 21
6.000000000
 31
-8.298709589
  0
LINE
  5
BFE
330
A02
100
AcDbEntity
  8
Part
100
AcDbLine
 10
27.143339079
 20
0.000000000
 30
-9.270564792
 11
27.686117835
 21
0.000000000
 31
-8.298709589
  0
LINE
  5
BFF
330
A02
100
AcDbEntity
  8
Part
100
AcDbLine
 10
27.143339079
 20
6.000000000
 30
-9.270564792
 11
27.686117835
 21
6.000000000
 31
-8.298709589
  0
LINE
  5
C00
330
A02
100
AcDbEntity
  8
Part
100
AcDbLine
 10
24.377867133
 20
0.000000000
 30
13.086953290
 11
24.377867133
 21
6.000000000
 31
13.086953290
  0
LINE
  5
C01
330
A02
100
AcDbEntity
  8
Part
100
AcDbLine
 10
24.391595722
 20
0.000000000
 30
14.310464213
 11
24.391595722
 21
6.000000000
 31
14.310464213
  0
LINE
  5
C02
330
A02
100
AcDbEntity
  8
Part
100
AcDbLine
 10
24.377867133
 20
0.000000000
 30
13.086953290
 11
24.391595722
 21
0.000000000
 31
14.310464213
  0
LINE
  5
C03
330
A02
100
AcDbEntity
  8
Part
100
AcDbLine
 10
24.377867133
 20
6.000000000
 30
13.086953290
 11
24.391595722
 21
6.000000000
 31
14.310464213
  0
LINE
  5
C04
330
A02
100
AcDbEntity
  8
Part
100
AcDbLine
 10
26.396282634
 20
0.000000000
 30
-10.147688947
 11
26.396282634
 21
6.000000000
 31
-10.147688947
  0
LINE
  5
C05
330
A02
100
AcDbEntity
  8
Part
100
AcDbLine
 10
27.143339079
 20
0.000000000
 30
-9.270564792
 11
27.143339079
 21
6.000000000
 31
-9.270564792
  0
LINE
  5
C06
330
A02
100
AcDbEntity
  8
Part
100
AcDbLine
 10
26.396282634
 20
0.000000000
 30
-10.147688947
 11
27.143339079
 21
0.000000000
 31
-9.270564792
  0
LINE
  5
C07
330
A02
100
AcDbEntity
  8
Part
100
AcDbLine
 10
26.396282634
 20
6.000000000
 30
-10.147688947
 11
27.143339079
 21
6.000000000
 31
-9.270564792
  0
LINE
  5
C08
330
A02
100
AcDbEntity
  8
Part
100
AcDbLine
 10
24.391595722
 20
0.000000000
 30
14.310464213
 11
24.391595722
 21
6.000000000
 31
14.310464213
  0
LINE
  5
C09
330
A02
100
AcDbEntity
  8
Part
100
AcDbLine
 10
24.171614519
 20
0.000000000
 30
15.441414426
 11
24.171614519
 21
6.000000000
 31
15.441414426
  0
LINE
  5
C0A
330
A02
100
AcDbEntity
  8
Part
100
AcDbLine
 10
24.391595722
 20
0.000000000
 30
14.310464213
 11
24.171614519
 21
0.000000000
 31
15.441414426
  0
LINE
  5
C0B
330
A02
100
AcDbEntity
  8
Part
100
AcDbLine
 10
24.391595722
 20
6.000000000
 30
14.310464213
 11
24.171614519
 21
6.000000000
 31
15.441414426
  0
LINE
  5
C0C
330
A02
100
AcDbEntity
  8
Part
100
AcDbLine
 10
25.431143640
 20
0.000000000
 30
-10.899802086
 11
25.431143640
 21
6.000000000
 31
-10.899802086
  0
LINE
  5
C0D
330
A02
100
AcDbEntity
  8
Part
100
AcDbLine
 10
26.396282634
 20
0.000000000
 30
-10.147688947
 11
26.396282634
 21
6.000000000
 31
-10.147688947
  0
LINE
  5
C0E
330
A02
100
AcDbEntity
  8
Part
100
AcDbLine
 10
25.431143640
 20
0.000000000
 30
-10.899802086
 11
26.396282634
 21
0.000000000
 31
-10.147688947
  0
LINE
  5
C0F
330
A02
100
AcDbEntity
  8
Part
100
AcDbLine
 10
25.431143640
 20
6.000000000
 30
-10.899802086
 11
26.396282634
 21
6.000000000
 31
-10.147688947
  0
LINE
  5
C10
330
A02
100
AcDbEntity
  8
Part
100
AcDbLine
 10
24.171614519
 20
0.000000000
 30
15.441414426
 11
24.171614519
 21
6.000000000
 31
15.441414426
  0
LINE
  5
C11
330
A02
100
AcDbEntity
  8
Part
100
AcDbLine
 10
23.750204544
 20
0.000000000
 30
16.471717754
 11
23.750204544
 21
6.000000000
 31
16.471717754
  0
LINE
  5
C12
330
A02
100
AcDbEntity
  8
Part
100
AcDbLine
 10
24.171614519
 20
0.000000000
 30
15.441414426
 11
23.750204544
 21
0.000000000
 31
16.471717754
  0
LINE
  5
C13
330
A02
100
AcDbEntity
  8
Part
100
AcDbLine
 10
24.171614519
 20
6.000000000
 30
15.441414426
 11
23.750204544
 21
6.000000000
 31
16.471717754
  0
LINE
  5
C14
330
A02
100
AcDbEntity
  8
Part
100
AcDbLine
 10
24.259829881
 20
0.000000000
 30
-11.504592520
 11
24.259829881
 21
6.000000000
 31
-11.504592520
  0
LINE
  5
C15
330
A02
100
AcDbEntity
  8
Part
100
AcDbLine
 10
25.431143640
 20
0.000000000
 30
-10.899802086
 11
25.431143640
 21
6.000000000
 31
-10.899802086
  0
LINE
  5
C16
330
A02
100
AcDbEntity
  8
Part
100
AcDbLine
 10
24.259829881
 20
0.000000000
 30
-11.504592520
 11
25.431143640
 21
0.000000000
 31
-10.899802086
  0
LINE
  5
C17
330
A02
100
AcDbEntity
  8
Part
100
AcDbLine
 10
24.259829881
 20
6.000000000
 30
-11.504592520
 11
25.431143640
 21
6.000000000
 31
-10.899802086
  0
LINE
  5
C18
330
A02
100
AcDbEntity
  8
Part
100
AcDbLine
 10
23.750204544
 20
0.000000000
 30
16.471717754
 11
23.750204544
 21
6.000000000
 31
16.471717754
  0
LINE
  5
C19
330
A02
100
AcDbEntity
  8
Part
100
AcDbLine
 10
23.176650723
 20
0.000000000
 30
17.410559620
 11
23.176650723
 21
6.000000000
 31
17.410559620
  0
LINE
  5
C1A
330
A02
100
AcDbEntity
  8
Part
100
AcDbLine
 10
23.750204544
 20
0.000000000
 30
16.471717754
 11
23.176650723
 21
0.000000000
 31
17.410559620
  0
LINE
  5
C1B
330
A02
100
AcDbEntity
  8
Part
100
AcDbLine
 10
23.750204544
 20
6.000000000
 30
16.471717754
 11
23.176650723
 21
6.000000000
 31
17.410559620
  0
LINE
  5
C1C
330
A02
100
AcDbEntity
  8
Part
100
AcDbLine
 10
22.918125964
 20
0.000000000
 30
-11.952217953
 11
22.918125964
 21
6.000000000
 31
-11.952217953
  0
LINE
  5
C1D
330
A02
100
AcDbEntity
  8
Part
100
AcDbLine
 10
24.259829881
 20
0.000000000
 30
-11.504592520
 11
24.259829881
 21
6.000000000
 31
-11.504592520
  0
LINE
  5
C1E
330
A02
100
AcDbEntity
  8
Part
100
AcDbLine
 10
22.918125964
 20
0.000000000
 30
-11.952217953
 11
24.259829881
 21
0.000000000
 31
-11.504592520
  0
LINE
  5
C1F
330
A02
100
AcDbEntity
  8
Part
100
AcDbLine
 10
22.918125964
 20
6.000000000
 30
-11.952217953
 11
24.259829881
 21
6.000000000
 31
-11.504592520
  0
LINE
  5
C20
330
A02
100
AcDbEntity
  8
Part
100
AcDbLine
 10
23.176650723
 20
0.000000000
 30
17.410559620
 11
23.176650723
 21
6.000000000
 31
17.410559620
  0
LINE
  5
C21
330
A02
100
AcDbEntity
  8
Part
100
AcDbLine
 10
22.509905301
 20
0.000000000
 30
18.283986527
 11
22.509905301
 21
6.000000000
 31
18.283986527
  0
LINE
  5
C22
330
A02
100
AcDbEntity
  8
Part
100
AcDbLine
 10
23.176650723
 20
0.000000000
 30
17.410559620
 11
22.509905301
 21
0.000000000
 31
18.283986527
  0
LINE
  5
C23
330
A02
100
AcDbEntity
  8
Part
100
AcDbLine
 10
23.176650723
 20
6.000000000
 30
17.410559620
 11
22.509905301
 21
6.000000000
 31
18.283986527
  0
LINE
  5
C24
330
A02
100
AcDbEntity
  8
Part
100
AcDbLine
 10
21.460733623
 20
0.000000000
 30
-12.248079089
 11
21.460733623
 21
6.000000000
 31
-12.248079089
  0
LINE
  5
C25
330
A02
100
AcDbEntity
  8
Part
100
AcDbLine
 10
22.918125964
 20
0.000000000
 30
-11.952217953
 11
22.918125964
 21
6.000000000
 31
-11.952217953
  0
LINE
  5
C26
330
A02
100
AcDbEntity
  8
Part
100
AcDbLine
 10
21.460733623
 20
0.000000000
 30
-12.248079089
 11
22.918125964
 21
0.000000000
 31
-11.952217953
  0
LINE
  5
C27
330
A02
100
AcDbEntity
  8
Part
100
AcDbLine
 10
21.460733623
 20
6.000000000
 30
-12.248079089
 11
22.918125964
 21
6.000000000
 31
-11.952217953
  0
LINE
  5
C28
330
A02
100
AcDbEntity
  8
Part
100
AcDbLine
 10
22.509905301
 20
0.000000000
 30
18.283986527
 11
22.509905301
 21
6.000000000
 31
18.283986527
  0
LINE
  5
C29
330
A02
100
AcDbEntity
  8
Part
100
AcDbLine
 10
22.253261820
 20
0.000000000
 30
19.442089352
 11
22.253261820
 21
6.000000000
 31
19.442089352
  0
LINE
  5
C2A
330
A02
100
AcDbEntity
  8
Part
100
AcDbLine
 10
22.509905301
 20
0.000000000
 30
18.283986527
 11
22.253261820
 21
0.000000000
 31
19.442089352
  0
LINE
  5
C2B
330
A02
100
AcDbEntity
  8
Part
100
AcDbLine
 10
22.509905301
 20
6.000000000
 30
18.283986527
 11
22.253261820
 21
6.000000000
 31
19.442089352
  0
LINE
  5
C2C
330
A02
100
AcDbEntity
  8
Part
100
AcDbLine
 10
19.953930328
 20
0.000000000
 30
-12.413326084
 11
19.953930328
 21
6.000000000
 31
-12.413326084
  0
LINE
  5
C2D
330
A02
100
AcDbEntity
  8
Part
100
AcDbLine
 10
21.460733623
 20
0.000000000
 30
-12.248079089
 11
21.460733623
 21
6.000000000
 31
-12.248079089
  0
LINE
  5
C2E
330
A02
100
AcDbEntity
  8
Part
100
AcDbLine
 10
19.953930328
 20
0.000000000
 30
-12.413326084
 11
21.460733623
 21
0.000000000
 31
-12.248079089
  0
LINE
  5
C2F
330
A02
100
AcDbEntity
  8
Part
100
AcDbLine
 10
19.953930328
 20
6.000000000
 30
-12.413326084
 11
21.460733623
 21
6.000000000
 31
-12.248079089
  0
LINE
  5
C30
330
A02
100
AcDbEntity
  8
Part
100
AcDbLine
 10
22.253261820
 20
0.000000000
 30
19.442089352
 11
22.253261820
 21
6.000000000
 31
19.442089352
  0
LINE
  5
C31
330
A02
100
AcDbEntity
  8
Part
100
AcDbLine
 10
20.775605882
 20
0.000000000
 30
19.509592519
 11
20.775605882
 21
6.000000000
 31
19.509592519
  0
LINE
  5
C32
330
A02
100
AcDbEntity
  8
Part
100
AcDbLine
 10
22.253261820
 20
0.000000000
 30
19.442089352
 11
20.775605882
 21
0.000000000
 31
19.509592519
  0
LINE
  5
C33
330
A02
100
AcDbEntity
  8
Part
100
AcDbLine
 10
22.253261820
 20
6.000000000
 30
19.442089352
 11
20.775605882
 21
6.000000000
 31
19.509592519
  0
LINE
  5
C34
330
A02
100
AcDbEntity
  8
Part
100
AcDbLine
 10
18.466900554
 20
0.000000000
 30
-12.482896673
 11
18.466900554
 21
6.000000000
 31
-12.482896673
  0
LINE
  5
C35
330
A02
100
AcDbEntity
  8
Part
100
AcDbLine
 10
19.953930328
 20
0.000000000
 30
-12.413326084
 11
19.953930328
 21
6.000000000
 31
-12.413326084
  0
LINE
  5
C36
330
A02
100
AcDbEntity
  8
Part
100
AcDbLine
 10
18.466900554
 20
0.000000000
 30
-12.482896673
 11
19.953930328
 21
0.000000000
 31
-12.413326084
  0
LINE
  5
C37
330
A02
100
AcDbEntity
  8
Part
100
AcDbLine
 10
18.466900554
 20
6.000000000
 30
-12.482896673
 11
19.953930328
 21
6.000000000
 31
-12.413326084
  0
LINE
  5
C38
330
A02
100
AcDbEntity
  8
Part
100
AcDbLine
 10
20.775605882
 20
0.000000000
 30
19.509592519
 11
20.775605882
 21
6.000000000
 31
19.509592519
  0
LINE
  5
C39
330
A02
100
AcDbEntity
  8
Part
100
AcDbLine
 10
17.938563553
 20
0.000000000
 30
17.461903970
 11
17.938563553
 21
6.000000000
 31
17.461903970
  0
LINE
  5
C3A
330
A02
100
AcDbEntity
  8
Part
100
AcDbLine
 10
20.775605882
 20
0.000000000
 30
19.509592519
 11
17.938563553
 21
0.000000000
 31
17.461903970
  0
LINE
  5
C3B
330
A02
100
AcDbEntity
  8
Part
100
AcDbLine
 10
20.775605882
 20
6.000000000
 30
19.509592519
 11
17.938563553
 21
6.000000000
 31
17.461903970
  0
LINE
  5
C3C
330
A02
100
AcDbEntity
  8
Part
100
AcDbLine
 10
17.062953162
 20
0.000000000
 30
-12.501265164
 11
17.062953162
 21
6.000000000
 31
-12.501265164
  0
LINE
  5
C3D
330
A02
100
AcDbEntity
  8
Part
100
AcDbLine
 10
18.466900554
 20
0.000000000
 30
-12.482896673
 11
18.466900554
 21
6.000000000
 31
-12.482896673
  0
LINE
  5
C3E
330
A02
100
AcDbEntity
  8
Part
100
AcDbLine
 10
17.062953162
 20
0.000000000
 30
-12.501265164
 11
18.466900554
 21
0.000000000
 31
-12.482896673
  0
LINE
  5
C3F
330
A02
100
AcDbEntity
  8
Part
100
AcDbLine
 10
17.062953162
 20
6.000000000
 30
-12.501265164
 11
18.466900554
 21
6.000000000
 31
-12.482896673
  0
LINE
  5
C40
330
A02
100
AcDbEntity
  8
Part
100
AcDbLine
 10
17.938563553
 20
0.000000000
 30
17.461903970
 11
17.938563553
 21
6.000000000
 31
17.461903970
  0
LINE
  5
C41
330
A02
100
AcDbEntity
  8
Part
100
AcDbLine
 10
15.788844302
 20
0.000000000
 30
15.931204504
 11
15.788844302
 21
6.000000000
 31
15.931204504
  0
LINE
  5
C42
330
A02
100
AcDbEntity
  8
Part
100
AcDbLine
 10
17.938563553
 20
0.000000000
 30
17.461903970
 11
15.788844302
 21
0.000000000
 31
15.931204504
  0
LINE
  5
C43
330
A02
100
AcDbEntity
  8
Part
100
AcDbLine
 10
17.938563553
 20
6.000000000
 30
17.461903970
 11
15.788844302
 21
6.000000000
 31
15.931204504
  0
LINE
  5
C44
330
A02
100
AcDbEntity
  8
Part
100
AcDbLine
 10
15.791824576
 20
0.000000000
 30
-12.516445927
 11
15.791824576
 21
6.000000000
 31
-12.516445927
  0
LINE
  5
C45
330
A02
100
AcDbEntity
  8
Part
100
AcDbLine
 10
17.062953162
 20
0.000000000
 30
-12.501265164
 11
17.062953162
 21
6.000000000
 31
-12.501265164
  0
LINE
  5
C46
330
A02
100
AcDbEntity
  8
Part
100
AcDbLine
 10
15.791824576
 20
0.000000000
 30
-12.516445927
 11
17.062953162
 21
0.000000000
 31
-12.501265164
  0
LINE
  5
C47
330
A02
100
AcDbEntity
  8
Part
100
AcDbLine
 10
15.791824576
 20
6.000000000
 30
-12.516445927
 11
17.062953162
 21
6.000000000
 31
-12.501265164
  0
LINE
  5
C48
330
A02
100
AcDbEntity
  8
Part
100
AcDbLine
 10
15.788844302
 20
0.000000000
 30
15.931204504
 11
15.788844302
 21
6.000000000
 31
15.931204504
  0
LINE
  5
C49
330
A02
100
AcDbEntity
  8
Part
100
AcDbLine
 10
14.210650586
 20
0.000000000
 30
14.863175242
 11
14.210650586
 21
6.000000000
 31
14.863175242
  0
LINE
  5
C4A
330
A02
100
AcDbEntity
  8
Part
100
AcDbLine
 10
15.788844302
 20
0.000000000
 30
15.931204504
 11
14.210650586
 21
0.000000000
 31
14.863175242
  0
LINE
  5
C4B
330
A02
100
AcDbEntity
  8
Part
100
AcDbLine
 10
15.788844302
 20
6.000000000
 30
15.931204504
 11
14.210650586
 21
6.000000000
 31
14.863175242
  0
LINE
  5
C4C
330
A02
100
AcDbEntity
  8
Part
100
AcDbLine
 10
14.684085625
 20
0.000000000
 30
-12.573087262
 11
14.684085625
 21
6.000000000
 31
-12.573087262
  0
LINE
  5
C4D
330
A02
100
AcDbEntity
  8
Part
100
AcDbLine
 10
15.791824576
 20
0.000000000
 30
-12.516445927
 11
15.791824576
 21
6.000000000
 31
-12.516445927
  0
LINE
  5
C4E
330
A02
100
AcDbEntity
  8
Part
100
AcDbLine
 10
14.684085625
 20
0.000000000
 30
-12.573087262
 11
15.791824576
 21
0.000000000
 31
-12.516445927
  0
LINE
  5
C4F
330
A02
100
AcDbEntity
  8
Part
100
AcDbLine
 10
14.684085625
 20
6.000000000
 30
-12.573087262
 11
15.791824576
 21
6.000000000
 31
-12.516445927
  0
LINE
  5
C50
330
A02
100
AcDbEntity
  8
Part
100
AcDbLine
 10
14.210650586
 20
0.000000000
 30
14.863175242
 11
14.210650586
 21
6.000000000
 31
14.863175242
  0
LINE
  5
C51
330
A02
100
AcDbEntity
  8
Part
100
AcDbLine
 10
13.093419428
 20
0.000000000
 30
14.196303178
 11
13.093419428
 21
6.000000000
 31
14.196303178
  0
LINE
  5
C52
330
A02
100
AcDbEntity
  8
Part
100
AcDbLine
 10
14.210650586
 20
0.000000000
 30
14.863175242
 11
13.093419428
 21
0.000000000
 31
14.196303178
  0
LINE
  5
C53
330
A02
100
AcDbEntity
  8
Part
100
AcDbLine
 10
14.210650586
 20
6.000000000
 30
14.863175242
 11
13.093419428
 21
6.000000000
 31
14.196303178
  0
LINE
  5
C54
330
A02
100
AcDbEntity
  8
Part
100
AcDbLine
 10
13.748349069
 20
0.000000000
 30
-12.705664992
 11
13.748349069
 21
6.000000000
 31
-12.705664992
  0
LINE
  5
C55
330
A02
100
AcDbEntity
  8
Part
100
AcDbLine
 10
14.684085625
 20
0.000000000
 30
-12.573087262
 11
14.684085625
 21
6.000000000
 31
-12.573087262
  0
LINE
  5
C56
330
A02
100
AcDbEntity
  8
Part
100
AcDbLine
 10
13.748349069
 20
0.000000000
 30
-12.705664992
 11
14.684085625
 21
0.000000000
 31
-12.573087262
  0
LINE
  5
C57
330
A02
100
AcDbEntity
  8
Part
100
AcDbLine
 10
13.748349069
 20
6.000000000
 30
-12.705664992
 11
14.684085625
 21
6.000000000
 31
-12.573087262
  0
LINE
  5
C58
330
A02
100
AcDbEntity
  8
Part
100
AcDbLine
 10
13.093419428
 20
0.000000000
 30
14.196303178
 11
13.093419428
 21
6.000000000
 31
14.196303178
  0
LINE
  5
C59
330
A02
100
AcDbEntity
  8
Part
100
AcDbLine
 10
12.332126304
 20
0.000000000
 30
13.862137295
 11
12.332126304
 21
6.000000000
 31
13.862137295
  0
LINE
  5
C5A
330
A02
100
AcDbEntity
  8
Part
100
AcDbLine
 10
13.093419428
 20
0.000000000
 30
14.196303178
 11
12.332126304
 21
0.000000000
 31
13.862137295
  0
LINE
  5
C5B
330
A02
100
AcDbEntity
  8
Part
100
AcDbLine
 10
13.093419428
 20
6.000000000
 30
14.196303178
 11
12.332126304
 21
6.000000000
 31
13.862137295
  0
LINE
  5
C5C
330
A02
100
AcDbEntity
  8
Part
100
AcDbLine
 10
12.971563339
 20
0.000000000
 30
-12.932810458
 11
12.971563339
 21
6.000000000
 31
-12.932810458
  0
LINE
  5
C5D
330
A02
100
AcDbEntity
  8
Part
100
AcDbLine
 10
13.748349069
 20
0.000000000
 30
-12.705664992
 11
13.748349069
 21
6.000000000
 31
-12.705664992
  0
LINE
  5
C5E
330
A02
100
AcDbEntity
  8
Part
100
AcDbLine
 10
12.971563339
 20
0.000000000
 30
-12.932810458
 11
13.748349069
 21
0.000000000
 31
-12.705664992
  0
LINE
  5
C5F
330
A02
100
AcDbEntity
  8
Part
100
AcDbLine
 10
12.971563339
 20
6.000000000
 30
-12.932810458
 11
13.748349069
 21
6.000000000
 31
-12.705664992
  0
LINE
  5
C60
330
A02
100
AcDbEntity
  8
Part
100
AcDbLine
 10
12.332126304
 20
0.000000000
 30
13.862137295
 11
12.332126304
 21
6.000000000
 31
13.862137295
  0
LINE
  5
C61
330
A02
100
AcDbEntity
  8
Part
100
AcDbLine
 10
11.827579407
 20
0.000000000
 30
13.785555189
 11
11.827579407
 21
6.000000000
 31
13.785555189
  0
LINE
  5
C62
330
A02
100
AcDbEntity
  8
Part
100
AcDbLine
 10
12.332126304
 20
0.000000000
 30
13.862137295
 11
11.827579407
 21
0.000000000
 31
13.785555189
  0
LINE
  5
C63
330
A02
100
AcDbEntity
  8
Part
100
AcDbLine
 10
12.332126304
 20
6.000000000
 30
13.862137295
 11
11.827579407
 21
6.000000000
 31
13.785555189
  0
LINE
  5
C64
330
A02
100
AcDbEntity
  8
Part
100
AcDbLine
 10
12.322236423
 20
0.000000000
 30
-13.253677171
 11
12.322236423
 21
6.000000000
 31
-13.253677171
  0
LINE
  5
C65
330
A02
100
AcDbEntity
  8
Part
100
AcDbLine
 10
12.971563339
 20
0.000000000
 30
-12.932810458
 11
12.971563339
 21
6.000000000
 31
-12.932810458
  0
LINE
  5
C66
330
A02
100
AcDbEntity
  8
Part
100
AcDbLine
 10
12.322236423
 20
0.000000000
 30
-13.253677171
 11
12.971563339
 21
0.000000000
 31
-12.932810458
  0
LINE
  5
C67
330
A02
100
AcDbEntity
  8
Part
100
AcDbLine
 10
12.322236423
 20
6.000000000
 30
-13.253677171
 11
12.971563339
 21
6.000000000
 31
-12.932810458
  0
LINE
  5
C68
330
A02
100
AcDbEntity
  8
Part
100
AcDbLine
 10
11.827579407
 20
0.000000000
 30
13.785555189
 11
11.827579407
 21
6.000000000
 31
13.785555189
  0
LINE
  5
C69
330
A02
100
AcDbEntity
  8
Part
100
AcDbLine
 10
11.486703987
 20
0.000000000
 30
13.885039911
 11
11.486703987
 21
6.000000000
 31
13.885039911
  0
LINE
  5
C6A
330
A02
100
AcDbEntity
  8
Part
100
AcDbLine
 10
11.827579407
 20
0.000000000
 30
13.785555189
 11
11.486703987
 21
0.000000000
 31
13.885039911
  0
LINE
  5
C6B
330
A02
100
AcDbEntity
  8
Part
100
AcDbLine
 10
11.827579407
 20
6.000000000
 30
13.785555189
 11
11.486703987
 21
6.000000000
 31
13.885039911
  0
LINE
  5
C6C
330
A02
100
AcDbEntity
  8
Part
100
AcDbLine
 10
11.756026075
 20
0.000000000
 30
-13.646979932
 11
11.756026075
 21
6.000000000
 31
-13.646979932
  0
LINE
  5
C6D
330
A02
100
AcDbEntity
  8
Part
100
AcDbLine
 10
12.322236423
 20
0.000000000
 30
-13.253677171
 11
12.322236423
 21
6.000000000
 31
-13.253677171
  0
LINE
  5
C6E
330
A02
100
AcDbEntity
  8
Part
100
AcDbLine
 10
11.756026075
 20
0.000000000
 30
-13.646979932
 11
12.322236423
 21
0.000000000
 31
-13.253677171
  0
LINE
  5
C6F
330
A02
100
AcDbEntity
  8
Part
100
AcDbLine
 10
11.756026075
 20
6.000000000
 30
-13.646979932
 11
12.322236423
 21
6.000000000
 31
-13.253677171
  0
LINE
  5
C70
330
A02
100
AcDbEntity
  8
Part
100
AcDbLine
 10
11.486703987
 20
0.000000000
 30
13.885039911
 11
11.486703987
 21
6.000000000
 31
13.885039911
  0
LINE
  5
C71
330
A02
100
AcDbEntity
  8
Part
100
AcDbLine
 10
11.222816433
 20
0.000000000
 30
14.072966684
 11
11.222816433
 21
6.000000000
 31
14.072966684
  0
LINE
  5
C72
330
A02
100
AcDbEntity
  8
Part
100
AcDbLine
 10
11.486703987
 20
0.000000000
 30
13.885039911
 11
11.222816433
 21
0.000000000
 31
14.072966684
  0
LINE
  5
C73
330
A02
100
AcDbEntity
  8
Part
100
AcDbLine
 10
11.486703987
 20
6.000000000
 30
13.885039911
 11
11.222816433
 21
6.000000000
 31
14.072966684
  0
LINE
  5
C74
330
A02
100
AcDbEntity
  8
Part
100
AcDbLine
 10
11.222816433
 20
0.000000000
 30
-14.072966684
 11
11.222816433
 21
6.000000000
 31
-14.072966684
  0
LINE
  5
C75
330
A02
100
AcDbEntity
  8
Part
100
AcDbLine
 10
11.756026075
 20
0.000000000
 30
-13.646979932
 11
11.756026075
 21
6.000000000
 31
-13.646979932
  0
LINE
  5
C76
330
A02
100
AcDbEntity
  8
Part
100
AcDbLine
 10
11.222816433
 20
0.000000000
 30
-14.072966684
 11
11.756026075
 21
0.000000000
 31
-13.646979932
  0
LINE
  5
C77
330
A02
100
AcDbEntity
  8
Part
100
AcDbLine
 10
11.222816433
 20
6.000000000
 30
-14.072966684
 11
11.756026075
 21
6.000000000
 31
-13.646979932
  0
LINE
  5
C78
330
A02
100
AcDbEntity
  8
Part
100
AcDbLine
 10
11.222816433
 20
0.000000000
 30
14.072966684
 11
11.222816433
 21
6.000000000
 31
14.072966684
  0
LINE
  5
C79
330
A02
100
AcDbEntity
  8
Part
100
AcDbLine
 10
10.688859751
 20
0.000000000
 30
14.498016677
 11
10.688859751
 21
6.000000000
 31
14.498016677
  0
LINE
  5
C7A
330
A02
100
AcDbEntity
  8
Part
100
AcDbLine
 10
11.222816433
 20
0.000000000
 30
14.072966684
 11
10.688859751
 21
0.000000000
 31
14.498016677
  0
LINE
  5
C7B
330
A02
100
AcDbEntity
  8
Part
100
AcDbLine
 10
11.222816433
 20
6.000000000
 30
14.072966684
 11
10.688859751
 21
6.000000000
 31
14.498016677
  0
LINE
  5
C7C
330
A02
100
AcDbEntity
  8
Part
100
AcDbLine
 10
10.980880872
 20
0.000000000
 30
-14.288420385
 11
10.980880872
 21
6.000000000
 31
-14.288420385
  0
LINE
  5
C7D
330
A02
100
AcDbEntity
  8
Part
100
AcDbLine
 10
11.222816433
 20
0.000000000
 30
-14.072966684
 11
11.222816433
 21
6.000000000
 31
-14.072966684
  0
LINE
  5
C7E
330
A02
100
AcDbEntity
  8
Part
100
AcDbLine
 10
10.980880872
 20
0.000000000
 30
-14.288420385
 11
11.222816433
 21
0.000000000
 31
-14.072966684
  0
LINE
  5
C7F
330
A02
100
AcDbEntity
  8
Part
100
AcDbLine
 10
10.980880872
 20
6.000000000
 30
-14.288420385
 11
11.222816433
 21
6.000000000
 31
-14.072966684
  0
LINE
  5
C80
330
A02
100
AcDbEntity
  8
Part
100
AcDbLine
 10
10.688859751
 20
0.000000000
 30
14.498016677
 11
10.688859751
 21
6.000000000
 31
14.498016677
  0
LINE
  5
C81
330
A02
100
AcDbEntity
  8
Part
100
AcDbLine
 10
10.179424256
 20
0.000000000
 30
14.962512851
 11
10.179424256
 21
6.000000000
 31
14.962512851
  0
LINE
  5
C82
330
A02
100
AcDbEntity
  8
Part
100
AcDbLine
 10
10.688859751
 20
0.000000000
 30
14.498016677
 11
10.179424256
 21
0.000000000
 31
14.962512851
  0
LINE
  5
C83
330
A02
100
AcDbEntity
  8
Part
100
AcDbLine
 10
10.688859751
 20
6.000000000
 30
14.498016677
 11
10.179424256
 21
6.000000000
 31
14.962512851
  0
LINE
  5
C84
330
A02
100
AcDbEntity
  8
Part
100
AcDbLine
 10
10.808038523
 20
0.000000000
 30
-14.598611913
 11
10.808038523
 21
6.000000000
 31
-14.598611913
  0
LINE
  5
C85
330
A02
100
AcDbEntity
  8
Part
100
AcDbLine
 10
10.980880872
 20
0.000000000
 30
-14.288420385
 11
10.980880872
 21
6.000000000
 31
-14.288420385
  0
LINE
  5
C86
330
A02
100
AcDbEntity
  8
Part
100
AcDbLine
 10
10.808038523
 20
0.000000000
 30
-14.598611913
 11
10.980880872
 21
0.000000000
 31
-14.288420385
  0
LINE
  5
C87
330
A02
100
AcDbEntity
  8
Part
100
AcDbLine
 10
10.808038523
 20
6.000000000
 30
-14.598611913
 11
10.980880872
 21
6.000000000
 31
-14.288420385
  0
LINE
  5
C88
330
A02
100
AcDbEntity
  8
Part
100
AcDbLine
 10
10.179424256
 20
0.000000000
 30
14.962512851
 11
10.179424256
 21
6.000000000
 31
14.962512851
  0
LINE
  5
C89
330
A02
100
AcDbEntity
  8
Part
100
AcDbLine
 10
9.722113509
 20
0.000000000
 30
15.524160226
 11
9.722113509
 21
6.000000000
 31
15.524160226
  0
LINE
  5
C8A
330
A02
100
AcDbEntity
  8
Part
100
AcDbLine
 10
10.179424256
 20
0.000000000
 30
14.962512851
 11
9.722113509
 21
0.000000000
 31
15.524160226
  0
LINE
  5
C8B
330
A02
100
AcDbEntity
  8
Part
100
AcDbLine
 10
10.179424256
 20
6.000000000
 30
14.962512851
 11
9.722113509
 21
6.000000000
 31
15.524160226
  0
LINE
  5
C8C
330
A02
100
AcDbEntity
  8
Part
100
AcDbLine
 10
10.770428309
 20
0.000000000
 30
-15.107549887
 11
10.770428309
 21
6.000000000
 31
-15.107549887
  0
LINE
  5
C8D
330
A02
100
AcDbEntity
  8
Part
100
AcDbLine
 10
10.808038523
 20
0.000000000
 30
-14.598611913
 11
10.808038523
 21
6.000000000
 31
-14.598611913
  0
LINE
  5
C8E
330
A02
100
AcDbEntity
  8
Part
100
AcDbLine
 10
10.770428309
 20
0.000000000
 30
-15.107549887
 11
10.808038523
 21
0.000000000
 31
-14.598611913
  0
LINE
  5
C8F
330
A02
100
AcDbEntity
  8
Part
100
AcDbLine
 10
10.770428309
 20
6.000000000
 30
-15.107549887
 11
10.808038523
 21
6.000000000
 31
-14.598611913
  0
LINE
  5
C90
330
A02
100
AcDbEntity
  8
Part
100
AcDbLine
 10
9.722113509
 20
0.000000000
 30
15.524160226
 11
9.722113509
 21
6.000000000
 31
15.524160226
  0
LINE
  5
C91
330
A02
100
AcDbEntity
  8
Part
100
AcDbLine
 10
9.327811969
 20
0.000000000
 30
16.230925694
 11
9.327811969
 21
6.000000000
 31
16.230925694
  0
LINE
  5
C92
330
A02
100
AcDbEntity
  8
Part
100
AcDbLine
 10
9.722113509
 20
0.000000000
 30
15.524160226
 11
9.327811969
 21
0.000000000
 31
16.230925694
  0
LINE
  5
C93
330
A02
100
AcDbEntity
  8
Part
100
AcDbLine
 10
9.722113509
 20
6.000000000
 30
15.524160226
 11
9.327811969
 21
6.000000000
 31
16.230925694
  0
LINE
  5
C94
330
A02
100
AcDbEntity
  8
Part
100
AcDbLine
 10
10.926812299
 20
0.000000000
 30
-15.924114708
 11
10.926812299
 21
6.000000000
 31
-15.924114708
  0
LINE
  5
C95
330
A02
100
AcDbEntity
  8
Part
100
AcDbLine
 10
10.770428309
 20
0.000000000
 30
-15.107549887
 11
10.770428309
 21
6.000000000
 31
-15.107549887
  0
LINE
  5
C96
330
A02
100
AcDbEntity
  8
Part
100
AcDbLine
 10
10.926812299
 20
0.000000000
 30
-15.924114708
 11
10.770428309
 21
0.000000000
 31
-15.107549887
  0
LINE
  5
C97
330
A02
100
AcDbEntity
  8
Part
100
AcDbLine
 10
10.926812299
 20
6.000000000
 30
-15.924114708
 11
10.770428309
 21
6.000000000
 31
-15.107549887
  0
LINE
  5
C98
330
A02
100
AcDbEntity
  8
Part
100
AcDbLine
 10
9.327811969
 20
0.000000000
 30
16.230925694
 11
9.327811969
 21
6.000000000
 31
16.230925694
  0
LINE
  5
C99
330
A02
100
AcDbEntity
  8
Part
100
AcDbLine
 10
8.990337267
 20
0.000000000
 30
17.113700061
 11
8.990337267
 21
6.000000000
 31
17.113700061
  0
LINE
  5
C9A
330
A02
100
AcDbEntity
  8
Part
100
AcDbLine
 10
9.327811969
 20
0.000000000
 30
16.230925694
 11
8.990337267
 21
0.000000000
 31
17.113700061
  0
LINE
  5
C9B
330
A02
100
AcDbEntity
  8
Part
100
AcDbLine
 10
9.327811969
 20
6.000000000
 30
16.230925694
 11
8.990337267
 21
6.000000000
 31
17.113700061
  0
LINE
  5
C9C
330
A02
100
AcDbEntity
  8
Part
100
AcDbLine
 10
11.328357166
 20
0.000000000
 30
-17.161727543
 11
11.328357166
 21
6.000000000
 31
-17.161727543
  0
LINE
  5
C9D
330
A02
100
AcDbEntity
  8
Part
100
AcDbLine
 10
10.926812299
 20
0.000000000
 30
-15.924114708
 11
10.926812299
 21
6.000000000
 31
-15.924114708
  0
LINE
  5
C9E
330
A02
100
AcDbEntity
  8
Part
100
AcDbLine
 10
11.328357166
 20
0.000000000
 30
-17.161727543
 11
10.926812299
 21
0.000000000
 31
-15.924114708
  0
LINE
  5
C9F
330
A02
100
AcDbEntity
  8
Part
100
AcDbLine
 10
11.328357166
 20
6.000000000
 30
-17.161727543
 11
10.926812299
 21
6.000000000
 31
-15.924114708
  0
LINE
  5
CA0
330
A02
100
AcDbEntity
  8
Part
100
AcDbLine
 10
8.990337267
 20
0.000000000
 30
17.113700061
 11
8.990337267
 21
6.000000000
 31
17.113700061
  0
LINE
  5
CA1
330
A02
100
AcDbEntity
  8
Part
100
AcDbLine
 10
8.688620942
 20
0.000000000
 30
18.181061801
 11
8.688620942
 21
6.000000000
 31
18.181061801
  0
LINE
  5
CA2
330
A02
100
AcDbEntity
  8
Part
100
AcDbLine
 10
8.990337267
 20
0.000000000
 30
17.113700061
 11
8.688620942
 21
0.000000000
 31
18.181061801
  0
LINE
  5
CA3
330
A02
100
AcDbEntity
  8
Part
100
AcDbLine
 10
8.990337267
 20
6.000000000
 30
17.113700061
 11
8.688620942
 21
6.000000000
 31
18.181061801
  0
LINE
  5
CA4
330
A02
100
AcDbEntity
  8
Part
100
AcDbLine
 10
12.018427566
 20
0.000000000
 30
-18.938011517
 11
12.018427566
 21
6.000000000
 31
-18.938011517
  0
LINE
  5
CA5
330
A02
100
AcDbEntity
  8
Part
100
AcDbLine
 10
11.328357166
 20
0.000000000
 30
-17.161727543
 11
11.328357166
 21
6.000000000
 31
-17.161727543
  0
LINE
  5
CA6
330
A02
100
AcDbEntity
  8
Part
100
AcDbLine
 10
12.018427566
 20
0.000000000
 30
-18.938011517
 11
11.328357166
 21
0.000000000
 31
-17.161727543
  0
LINE
  5
CA7
330
A02
100
AcDbEntity
  8
Part
100
AcDbLine
 10
12.018427566
 20
6.000000000
 30
-18.938011517
 11
11.328357166
 21
6.000000000
 31
-17.161727543
  0
LINE
  5
CA8
330
A02
100
AcDbEntity
  8
Part
100
AcDbLine
 10
8.688620942
 20
0.000000000
 30
18.181061801
 11
8.688620942
 21
6.000000000
 31
18.181061801
  0
LINE
  5
CA9
330
A02
100
AcDbEntity
  8
Part
100
AcDbLine
 10
8.390968072
 20
0.000000000
 30
19.416942502
 11
8.390968072
 21
6.000000000
 31
19.416942502
  0
LINE
  5
CAA
330
A02
100
AcDbEntity
  8
Part
100
AcDbLine
 10
8.688620942
 20
0.000000000
 30
18.181061801
 11
8.390968072
 21
0.000000000
 31
19.416942502
  0
LINE
  5
CAB
330
A02
100
AcDbEntity
  8
Part
100
AcDbLine
 10
8.688620942
 20
6.000000000
 30
18.181061801
 11
8.390968072
 21
6.000000000
 31
19.416942502
  0
LINE
  5
CAC
330
A02
100
AcDbEntity
  8
Part
100
AcDbLine
 10
13.032391665
 20
0.000000000
 30
-21.374445493
 11
13.032391665
 21
6.000000000
 31
-21.374445493
  0
LINE
  5
CAD
330
A02
100
AcDbEntity
  8
Part
100
AcDbLine
 10
12.018427566
 20
0.000000000
 30
-18.938011517
 11
12.018427566
 21
6.000000000
 31
-18.938011517
  0
LINE
  5
CAE
330
A02
100
AcDbEntity
  8
Part
100
AcDbLine
 10
13.032391665
 20
0.000000000
 30
-21.374445493
 11
12.018427566
 21
0.000000000
 31
-18.938011517
  0
LINE
  5
CAF
330
A02
100
AcDbEntity
  8
Part
100
AcDbLine
 10
13.032391665
 20
6.000000000
 30
-21.374445493
 11
12.018427566
 21
6.000000000
 31
-18.938011517
  0
LINE
  5
CB0
330
A02
100
AcDbEntity
  8
Part
100
AcDbLine
 10
8.390968072
 20
0.000000000
 30
19.416942502
 11
8.390968072
 21
6.000000000
 31
19.416942502
  0
LINE
  5
CB1
330
A02
100
AcDbEntity
  8
Part
100
AcDbLine
 10
8.060652432
 20
0.000000000
 30
20.781602628
 11
8.060652432
 21
6.000000000
 31
20.781602628
  0
LINE
  5
CB2
330
A02
100
AcDbEntity
  8
Part
100
AcDbLine
 10
8.390968072
 20
0.000000000
 30
19.416942502
 11
8.060652432
 21
0.000000000
 31
20.781602628
  0
LINE
  5
CB3
330
A02
100
AcDbEntity
  8
Part
100
AcDbLine
 10
8.390968072
 20
6.000000000
 30
19.416942502
 11
8.060652432
 21
6.000000000
 31
20.781602628
  0
LINE
  5
CB4
330
A02
100
AcDbEntity
  8
Part
100
AcDbLine
 10
14.397439078
 20
0.000000000
 30
-24.596010815
 11
14.397439078
 21
6.000000000
 31
-24.596010815
  0
LINE
  5
CB5
330
A02
100
AcDbEntity
  8
Part
100
AcDbLine
 10
13.032391665
 20
0.000000000
 30
-21.374445493
 11
13.032391665
 21
6.000000000
 31
-21.374445493
  0
LINE
  5
CB6
330
A02
100
AcDbEntity
  8
Part
100
AcDbLine
 10
14.397439078
 20
0.000000000
 30
-24.596010815
 11
13.032391665
 21
0.000000000
 31
-21.374445493
  0
LINE
  5
CB7
330
A02
100
AcDbEntity
  8
Part
100
AcDbLine
 10
14.397439078
 20
6.000000000
 30
-24.596010815
 11
13.032391665
 21
6.000000000
 31
-21.374445493
  0
LINE
  5
CB8
330
A02
100
AcDbEntity
  8
Part
100
AcDbLine
 10
8.060652432
 20
0.000000000
 30
20.781602628
 11
8.060652432
 21
6.000000000
 31
20.781602628
  0
LINE
  5
CB9
330
A02
100
AcDbEntity
  8
Part
100
AcDbLine
 10
7.661930869
 20
0.000000000
 30
22.215868548
 11
7.661930869
 21
6.000000000
 31
22.215868548
  0
LINE
  5
CBA
330
A02
100
AcDbEntity
  8
Part
100
AcDbLine
 10
8.060652432
 20
0.000000000
 30
20.781602628
 11
7.661930869
 21
0.000000000
 31
22.215868548
  0
LINE
  5
CBB
330
A02
100
AcDbEntity
  8
Part
100
AcDbLine
 10
8.060652432
 20
6.000000000
 30
20.781602628
 11
7.661930869
 21
6.000000000
 31
22.215868548
  0
LINE
  5
CBC
330
A02
100
AcDbEntity
  8
Part
100
AcDbLine
 10
14.002818976
 20
0.000000000
 30
-26.021597966
 11
14.002818976
 21
6.000000000
 31
-26.021597966
  0
LINE
  5
CBD
330
A02
100
AcDbEntity
  8
Part
100
AcDbLine
 10
14.397439078
 20
0.000000000
 30
-24.596010815
 11
14.397439078
 21
6.000000000
 31
-24.596010815
  0
LINE
  5
CBE
330
A02
100
AcDbEntity
  8
Part
100
AcDbLine
 10
14.002818976
 20
0.000000000
 30
-26.021597966
 11
14.397439078
 21
0.000000000
 31
-24.596010815
  0
LINE
  5
CBF
330
A02
100
AcDbEntity
  8
Part
100
AcDbLine
 10
14.002818976
 20
6.000000000
 30
-26.021597966
 11
14.397439078
 21
6.000000000
 31
-24.596010815
  0
LINE
  5
CC0
330
A02
100
AcDbEntity
  8
Part
100
AcDbLine
 10
7.661930869
 20
0.000000000
 30
22.215868548
 11
7.661930869
 21
6.000000000
 31
22.215868548
  0
LINE
  5
CC1
330
A02
100
AcDbEntity
  8
Part
100
AcDbLine
 10
7.165531686
 20
0.000000000
 30
23.648122223
 11
7.165531686
 21
6.000000000
 31
23.648122223
  0
LINE
  5
CC2
330
A02
100
AcDbEntity
  8
Part
100
AcDbLine
 10
7.661930869
 20
0.000000000
 30
22.215868548
 11
7.165531686
 21
0.000000000
 31
23.648122223
  0
LINE
  5
CC3
330
A02
100
AcDbEntity
  8
Part
100
AcDbLine
 10
7.661930869
 20
6.000000000
 30
22.215868548
 11
7.165531686
 21
6.000000000
 31
23.648122223
  0
LINE
  5
CC4
330
A02
100
AcDbEntity
  8
Part
100
AcDbLine
 10
12.816643661
 20
0.000000000
 30
-26.014104737
 11
12.816643661
 21
6.000000000
 31
-26.014104737
  0
LINE
  5
CC5
330
A02
100
AcDbEntity
  8
Part
100
AcDbLine
 10
14.002818976
 20
0.000000000
 30
-26.021597966
 11
14.002818976
 21
6.000000000
 31
-26.021597966
  0
LINE
  5
CC6
330
A02
100
AcDbEntity
  8
Part
100
AcDbLine
 10
12.816643661
 20
0.000000000
 30
-26.014104737
 11
14.002818976
 21
0.000000000
 31
-26.021597966
  0
LINE
  5
CC7
330
A02
100
AcDbEntity
  8
Part
100
AcDbLine
 10
12.816643661
 20
6.000000000
 30
-26.014104737
 11
14.002818976
 21
6.000000000
 31
-26.021597966
  0
LINE
  5
CC8
330
A02
100
AcDbEntity
  8
Part
100
AcDbLine
 10
7.165531686
 20
0.000000000
 30
23.648122223
 11
7.165531686
 21
6.000000000
 31
23.648122223
  0
LINE
  5
CC9
330
A02
100
AcDbEntity
  8
Part
100
AcDbLine
 10
6.552788101
 20
0.000000000
 30
25.003139399
 11
6.552788101
 21
6.000000000
 31
25.003139399
  0
LINE
  5
CCA
330
A02
100
AcDbEntity
  8
Part
100
AcDbLine
 10
7.165531686
 20
0.000000000
 30
23.648122223
 11
6.552788101
 21
0.000000000
 31
25.003139399
  0
LINE
  5
CCB
330
A02
100
AcDbEntity
  8
Part
100
AcDbLine
 10
7.165531686
 20
6.000000000
 30
23.648122223
 11
6.552788101
 21
6.000000000
 31
25.003139399
  0
LINE
  5
CCC
330
A02
100
AcDbEntity
  8
Part
100
AcDbLine
 10
11.816750575
 20
0.000000000
 30
-26.469777689
 11
11.816750575
 21
6.000000000
 31
-26.469777689
  0
LINE
  5
CCD
330
A02
100
AcDbEntity
  8
Part
100
AcDbLine
 10
12.816643661
 20
0.000000000
 30
-26.014104737
 11
12.816643661
 21
6.000000000
 31
-26.014104737
  0
LINE
  5
CCE
330
A02
100
AcDbEntity
  8
Part
100
AcDbLine
 10
11.816750575
 20
0.000000000
 30
-26.469777689
 11
12.816643661
 21
0.000000000
 31
-26.014104737
  0
LINE
  5
CCF
330
A02
100
AcDbEntity
  8
Part
100
AcDbLine
 10
11.816750575
 20
6.000000000
 30
-26.469777689
 11
12.816643661
 21
6.000000000
 31
-26.014104737
  0
LINE
  5
CD0
330
A02
100
AcDbEntity
  8
Part
100
AcDbLine
 10
6.552788101
 20
0.000000000
 30
25.003139399
 11
6.552788101
 21
6.000000000
 31
25.003139399
  0
LINE
  5
CD1
330
A02
100
AcDbEntity
  8
Part
100
AcDbLine
 10
5.817828364
 20
0.000000000
 30
26.211597968
 11
5.817828364
 21
6.000000000
 31
26.211597968
  0
LINE
  5
CD2
330
A02
100
AcDbEntity
  8
Part
100
AcDbLine
 10
6.552788101
 20
0.000000000
 30
25.003139399
 11
5.817828364
 21
0.000000000
 31
26.211597968
  0
LINE
  5
CD3
330
A02
100
AcDbEntity
  8
Part
100
AcDbLine
 10
6.552788101
 20
6.000000000
 30
25.003139399
 11
5.817828364
 21
6.000000000
 31
26.211597968
  0
LINE
  5
CD4
330
A02
100
AcDbEntity
  8
Part
100
AcDbLine
 10
10.773819703
 20
0.000000000
 30
-26.820039348
 11
10.773819703
 21
6.000000000
 31
-26.820039348
  0
LINE
  5
CD5
330
A02
100
AcDbEntity
  8
Part
100
AcDbLine
 10
11.816750575
 20
0.000000000
 30
-26.469777689
 11
11.816750575
 21
6.000000000
 31
-26.469777689
  0
LINE
  5
CD6
330
A02
100
AcDbEntity
  8
Part
100
AcDbLine
 10
10.773819703
 20
0.000000000
 30
-26.820039348
 11
11.816750575
 21
0.000000000
 31
-26.469777689
  0
LINE
  5
CD7
330
A02
100
AcDbEntity
  8
Part
100
AcDbLine
 10
10.773819703
 20
6.000000000
 30
-26.820039348
 11
11.816750575
 21
6.000000000
 31
-26.469777689
  0
LINE
  5
CD8
330
A02
100
AcDbEntity
  8
Part
100
AcDbLine
 10
5.817828364
 20
0.000000000
 30
26.211597968
 11
5.817828364
 21
6.000000000
 31
26.211597968
  0
LINE
  5
CD9
330
A02
100
AcDbEntity
  8
Part
100
AcDbLine
 10
4.967559457
 20
0.000000000
 30
27.218965913
 11
4.967559457
 21
6.000000000
 31
27.218965913
  0
LINE
  5
CDA
330
A02
100
AcDbEntity
  8
Part
100
AcDbLine
 10
5.817828364
 20
0.000000000
 30
26.211597968
 11
4.967559457
 21
0.000000000
 31
27.218965913
  0
LINE
  5
CDB
330
A02
100
AcDbEntity
  8
Part
100
AcDbLine
 10
5.817828364
 20
6.000000000
 30
26.211597968
 11
4.967559457
 21
6.000000000
 31
27.218965913
  0
LINE
  5
CDC
330
A02
100
AcDbEntity
  8
Part
100
AcDbLine
 10
9.675575690
 20
0.000000000
 30
-27.001619637
 11
9.675575690
 21
6.000000000
 31
-27.001619637
  0
LINE
  5
CDD
330
A02
100
AcDbEntity
  8
Part
100
AcDbLine
 10
10.773819703
 20
0.000000000
 30
-26.820039348
 11
10.773819703
 21
6.000000000
 31
-26.820039348
  0
LINE
  5
CDE
330
A02
100
AcDbEntity
  8
Part
100
AcDbLine
 10
9.675575690
 20
0.000000000
 30
-27.001619637
 11
10.773819703
 21
0.000000000
 31
-26.820039348
  0
LINE
  5
CDF
330
A02
100
AcDbEntity
  8
Part
100
AcDbLine
 10
9.675575690
 20
6.000000000
 30
-27.001619637
 11
10.773819703
 21
6.000000000
 31
-26.820039348
  0
LINE
  5
CE0
330
A02
100
AcDbEntity
  8
Part
100
AcDbLine
 10
4.967559457
 20
0.000000000
 30
27.218965913
 11
4.967559457
 21
6.000000000
 31
27.218965913
  0
LINE
  5
CE1
330
A02
100
AcDbEntity
  8
Part
100
AcDbLine
 10
4.019539734
 20
0.000000000
 30
27.992545940
 11
4.019539734
 21
6.000000000
 31
27.992545940
  0
LINE
  5
CE2
330
A02
100
AcDbEntity
  8
Part
100
AcDbLine
 10
4.967559457
 20
0.000000000
 30
27.218965913
 11
4.019539734
 21
0.000000000
 31
27.992545940
  0
LINE
  5
CE3
330
A02
100
AcDbEntity
  8
Part
100
AcDbLine
 10
4.967559457
 20
6.000000000
 30
27.218965913
 11
4.019539734
 21
6.000000000
 31
27.992545940
  0
LINE
  5
CE4
330
A02
100
AcDbEntity
  8
Part
100
AcDbLine
 10
8.524030337
 20
0.000000000
 30
-26.964425354
 11
8.524030337
 21
6.000000000
 31
-26.964425354
  0
LINE
  5
CE5
330
A02
100
AcDbEntity
  8
Part
100
AcDbLine
 10
9.675575690
 20
0.000000000
 30
-27.001619637
 11
9.675575690
 21
6.000000000
 31
-27.001619637
  0
LINE
  5
CE6
330
A02
100
AcDbEntity
  8
Part
100
AcDbLine
 10
8.524030337
 20
0.000000000
 30
-26.964425354
 11
9.675575690
 21
0.000000000
 31
-27.001619637
  0
LINE
  5
CE7
330
A02
100
AcDbEntity
  8
Part
100
AcDbLine
 10
8.524030337
 20
6.000000000
 30
-26.964425354
 11
9.675575690
 21
6.000000000
 31
-27.001619637
  0
LINE
  5
CE8
330
A02
100
AcDbEntity
  8
Part
100
AcDbLine
 10
4.019539734
 20
0.000000000
 30
27.992545940
 11
4.019539734
 21
6.000000000
 31
27.992545940
  0
LINE
  5
CE9
330
A02
100
AcDbEntity
  8
Part
100
AcDbLine
 10
2.998171215
 20
0.000000000
 30
28.525693634
 11
2.998171215
 21
6.000000000
 31
28.525693634
  0
LINE
  5
CEA
330
A02
100
AcDbEntity
  8
Part
100
AcDbLine
 10
4.019539734
 20
0.000000000
 30
27.992545940
 11
2.998171215
 21
0.000000000
 31
28.525693634
  0
LINE
  5
CEB
330
A02
100
AcDbEntity
  8
Part
100
AcDbLine
 10
4.019539734
 20
6.000000000
 30
27.992545940
 11
2.998171215
 21
6.000000000
 31
28.525693634
  0
LINE
  5
CEC
330
A02
100
AcDbEntity
  8
Part
100
AcDbLine
 10
7.334250285
 20
0.000000000
 30
-26.678784176
 11
7.334250285
 21
6.000000000
 31
-26.678784176
  0
LINE
  5
CED
330
A02
100
AcDbEntity
  8
Part
100
AcDbLine
 10
8.524030337
 20
0.000000000
 30
-26.964425354
 11
8.524030337
 21
6.000000000
 31
-26.964425354
  0
LINE
  5
CEE
330
A02
100
AcDbEntity
  8
Part
100
AcDbLine
 10
7.334250285
 20
0.000000000
 30
-26.678784176
 11
8.524030337
 21
0.000000000
 31
-26.964425354
  0
LINE
  5
CEF
330
A02
100
AcDbEntity
  8
Part
100
AcDbLine
 10
7.334250285
 20
6.000000000
 30
-26.678784176
 11
8.524030337
 21
6.000000000
 31
-26.964425354
  0
LINE
  5
CF0
330
A02
100
AcDbEntity
  8
Part
100
AcDbLine
 10
2.998171215
 20
0.000000000
 30
28.525693634
 11
2.998171215
 21
6.000000000
 31
28.525693634
  0
LINE
  5
CF1
330
A02
100
AcDbEntity
  8
Part
100
AcDbLine
 10
1.929902815
 20
0.000000000
 30
28.838605666
 11
1.929902815
 21
6.000000000
 31
28.838605666
  0
LINE
  5
CF2
330
A02
100
AcDbEntity
  8
Part
100
AcDbLine
 10
2.998171215
 20
0.000000000
 30
28.525693634
 11
1.929902815
 21
0.000000000
 31
28.838605666
  0
LINE
  5
CF3
330
A02
100
AcDbEntity
  8
Part
100
AcDbLine
 10
2.998171215
 20
6.000000000
 30
28.525693634
 11
1.929902815
 21
6.000000000
 31
28.838605666
  0
LINE
  5
CF4
330
A02
100
AcDbEntity
  8
Part
100
AcDbLine
 10
6.131103900
 20
0.000000000
 30
-26.140094871
 11
6.131103900
 21
6.000000000
 31
-26.140094871
  0
LINE
  5
CF5
330
A02
100
AcDbEntity
  8
Part
100
AcDbLine
 10
7.334250285
 20
0.000000000
 30
-26.678784176
 11
7.334250285
 21
6.000000000
 31
-26.678784176
  0
LINE
  5
CF6
330
A02
100
AcDbEntity
  8
Part
100
AcDbLine
 10
6.131103900
 20
0.000000000
 30
-26.140094871
 11
7.334250285
 21
0.000000000
 31
-26.678784176
  0
LINE
  5
CF7
330
A02
100
AcDbEntity
  8
Part
100
AcDbLine
 10
6.131103900
 20
6.000000000
 30
-26.140094871
 11
7.334250285
 21
6.000000000
 31
-26.678784176
  0
LINE
  5
CF8
330
A02
100
AcDbEntity
  8
Part
100
AcDbLine
 10
1.929902815
 20
0.000000000
 30
28.838605666
 11
1.929902815
 21
6.000000000
 31
28.838605666
  0
LINE
  5
CF9
330
A02
100
AcDbEntity
  8
Part
100
AcDbLine
 10
0.838281729
 20
0.000000000
 30
28.975541562
 11
0.838281729
 21
6.000000000
 31
28.975541562
  0
LINE
  5
CFA
330
A02
100
AcDbEntity
  8
Part
100
AcDbLine
 10
1.929902815
 20
0.000000000
 30
28.838605666
 11
0.838281729
 21
0.000000000
 31
28.975541562
  0
LINE
  5
CFB
330
A02
100
AcDbEntity
  8
Part
100
AcDbLine
 10
1.929902815
 20
6.000000000
 30
28.838605666
 11
0.838281729
 21
6.000000000
 31
28.975541562
  0
LINE
  5
CFC
330
A02
100
AcDbEntity
  8
Part
100
AcDbLine
 10
4.944597535
 20
0.000000000
 30
-25.370198401
 11
4.944597535
 21
6.000000000
 31
-25.370198401
  0
LINE
  5
CFD
330
A02
100
AcDbEntity
  8
Part
100
AcDbLine
 10
6.131103900
 20
0.000000000
 30
-26.140094871
 11
6.131103900
 21
6.000000000
 31
-26.140094871
  0
LINE
  5
CFE
330
A02
100
AcDbEntity
  8
Part
100
AcDbLine
 10
4.944597535
 20
0.000000000
 30
-25.370198401
 11
6.131103900
 21
0.000000000
 31
-26.140094871
  0
LINE
  5
CFF
330
A02
100
AcDbEntity
  8
Part
100
AcDbLine
 10
4.944597535
 20
6.000000000
 30
-25.370198401
 11
6.131103900
 21
6.000000000
 31
-26.140094871
  0
LINE
  5
D00
330
A02
100
AcDbEntity
  8
Part
100
AcDbLine
 10
0.838281729
 20
0.000000000
 30
28.975541562
 11
0.838281729
 21
6.000000000
 31
28.975541562
  0
LINE
  5
D01
330
A02
100
AcDbEntity
  8
Part
100
AcDbLine
 10
-0.260299896
 20
0.000000000
 30
28.998831769
 11
-0.260299896
 21
6.000000000
 31
28.998831769
  0
LINE
  5
D02
330
A02
100
AcDbEntity
  8
Part
100
AcDbLine
 10
0.838281729
 20
0.000000000
 30
28.975541562
 11
-0.260299896
 21
0.000000000
 31
28.998831769
  0
LINE
  5
D03
330
A02
100
AcDbEntity
  8
Part
100
AcDbLine
 10
0.838281729
 20
6.000000000
 30
28.975541562
 11
-0.260299896
 21
6.000000000
 31
28.998831769
  0
LINE
  5
D04
330
A02
100
AcDbEntity
  8
Part
100
AcDbLine
 10
3.804614722
 20
0.000000000
 30
-24.415229588
 11
3.804614722
 21
6.000000000
 31
-24.415229588
  0
LINE
  5
D05
330
A02
100
AcDbEntity
  8
Part
100
AcDbLine
 10
4.944597535
 20
0.000000000
 30
-25.370198401
 11
4.944597535
 21
6.000000000
 31
-25.370198401
  0
LINE
  5
D06
330
A02
100
AcDbEntity
  8
Part
100
AcDbLine
 10
3.804614722
 20
0.000000000
 30
-24.415229588
 11
4.944597535
 21
0.000000000
 31
-25.370198401
  0
LINE
  5
D07
330
A02
100
AcDbEntity
  8
Part
100
AcDbLine
 10
3.804614722
 20
6.000000000
 30
-24.415229588
 11
4.944597535
 21
6.000000000
 31
-25.370198401
  0
LINE
  5
D08
330
A02
100
AcDbEntity
  8
Part
100
AcDbLine
 10
-0.260299896
 20
0.000000000
 30
28.998831769
 11
-0.260299896
 21
6.000000000
 31
28.998831769
  0
LINE
  5
D09
330
A02
100
AcDbEntity
  8
Part
100
AcDbLine
 10
-1.325755737
 20
0.000000000
 30
29.520245116
 11
-1.325755737
 21
6.000000000
 31
29.520245116
  0
LINE
  5
D0A
330
A02
100
AcDbEntity
  8
Part
100
AcDbLine
 10
-0.260299896
 20
0.000000000
 30
28.998831769
 11
-1.325755737
 21
0.000000000
 31
29.520245116
  0
LINE
  5
D0B
330
A02
100
AcDbEntity
  8
Part
100
AcDbLine
 10
-0.260299896
 20
6.000000000
 30
28.998831769
 11
-1.325755737
 21
6.000000000
 31
29.520245116
  0
LINE
  5
D0C
330
A02
100
AcDbEntity
  8
Part
100
AcDbLine
 10
2.735942932
 20
0.000000000
 30
-23.340193150
 11
2.735942932
 21
6.000000000
 31
-23.340193150
  0
LINE
  5
D0D
330
A02
100
AcDbEntity
  8
Part
100
AcDbLine
 10
3.804614722
 20
0.000000000
 30
-24.415229588
 11
3.804614722
 21
6.000000000
 31
-24.415229588
  0
LINE
  5
D0E
330
A02
100
AcDbEntity
  8
Part
100
AcDbLine
 10
2.735942932
 20
0.000000000
 30
-23.340193150
 11
3.804614722
 21
0.000000000
 31
-24.415229588
  0
LINE
  5
D0F
330
A02
100
AcDbEntity
  8
Part
100
AcDbLine
 10
2.735942932
 20
6.000000000
 30
-23.340193150
 11
3.804614722
 21
6.000000000
 31
-24.415229588
  0
LINE
  5
D10
330
A02
100
AcDbEntity
  8
Part
100
AcDbLine
 10
-1.325755737
 20
0.000000000
 30
29.520245116
 11
-1.325755737
 21
6.000000000
 31
29.520245116
  0
LINE
  5
D11
330
A02
100
AcDbEntity
  8
Part
100
AcDbLine
 10
-2.299835247
 20
0.000000000
 30
28.407054720
 11
-2.299835247
 21
6.000000000
 31
28.407054720
  0
LINE
  5
D12
330
A02
100
AcDbEntity
  8
Part
100
AcDbLine
 10
-1.325755737
 20
0.000000000
 30
29.520245116
 11
-2.299835247
 21
0.000000000
 31
28.407054720
  0
LINE
  5
D13
330
A02
100
AcDbEntity
  8
Part
100
AcDbLine
 10
-1.325755737
 20
6.000000000
 30
29.520245116
 11
-2.299835247
 21
6.000000000
 31
28.407054720
  0
LINE
  5
D14
330
A02
100
AcDbEntity
  8
Part
100
AcDbLine
 10
1.754402557
 20
0.000000000
 30
-22.220963010
 11
1.754402557
 21
6.000000000
 31
-22.220963010
  0
LINE
  5
D15
330
A02
100
AcDbEntity
  8
Part
100
AcDbLine
 10
2.735942932
 20
0.000000000
 30
-23.340193150
 11
2.735942932
 21
6.000000000
 31
-23.340193150
  0
LINE
  5
D16
330
A02
100
AcDbEntity
  8
Part
100
AcDbLine
 10
1.754402557
 20
0.000000000
 30
-22.220963010
 11
2.735942932
 21
0.000000000
 31
-23.340193150
  0
LINE
  5
D17
330
A02
100
AcDbEntity
  8
Part
100
AcDbLine
 10
1.754402557
 20
6.000000000
 30
-22.220963010
 11
2.735942932
 21
6.000000000
 31
-23.340193150
  0
LINE
  5
D18
330
A02
100
AcDbEntity
  8
Part
100
AcDbLine
 10
-2.299835247
 20
0.000000000
 30
28.407054720
 11
-2.299835247
 21
6.000000000
 31
28.407054720
  0
LINE
  5
D19
330
A02
100
AcDbEntity
  8
Part
100
AcDbLine
 10
-2.467754832
 20
0.000000000
 30
24.912252783
 11
-2.467754832
 21
6.000000000
 31
24.912252783
  0
LINE
  5
D1A
330
A02
100
AcDbEntity
  8
Part
100
AcDbLine
 10
-2.299835247
 20
0.000000000
 30
28.407054720
 11
-2.467754832
 21
0.000000000
 31
24.912252783
  0
LINE
  5
D1B
330
A02
100
AcDbEntity
  8
Part
100
AcDbLine
 10
-2.299835247
 20
6.000000000
 30
28.407054720
 11
-2.467754832
 21
6.000000000
 31
24.912252783
  0
LINE
  5
D1C
330
A02
100
AcDbEntity
  8
Part
100
AcDbLine
 10
0.864694610
 20
0.000000000
 30
-21.134765306
 11
0.864694610
 21
6.000000000
 31
-21.134765306
  0
LINE
  5
D1D
330
A02
100
AcDbEntity
  8
Part
100
AcDbLine
 10
1.754402557
 20
0.000000000
 30
-22.220963010
 11
1.754402557
 21
6.000000000
 31
-22.220963010
  0
LINE
  5
D1E
330
A02
100
AcDbEntity
  8
Part
100
AcDbLine
 10
0.864694610
 20
0.000000000
 30
-21.134765306
 11
1.754402557
 21
0.000000000
 31
-22.220963010
  0
LINE
  5
D1F
330
A02
100
AcDbEntity
  8
Part
100
AcDbLine
 10
0.864694610
 20
6.000000000
 30
-21.134765306
 11
1.754402557
 21
6.000000000
 31
-22.220963010
  0
LINE
  5
D20
330
A02
100
AcDbEntity
  8
Part
100
AcDbLine
 10
-2.467754832
 20
0.000000000
 30
24.912252783
 11
-2.467754832
 21
6.000000000
 31
24.912252783
  0
LINE
  5
D21
330
A02
100
AcDbEntity
  8
Part
100
AcDbLine
 10
-2.611333829
 20
0.000000000
 30
22.277159087
 11
-2.611333829
 21
6.000000000
 31
22.277159087
  0
LINE
  5
D22
330
A02
100
AcDbEntity
  8
Part
100
AcDbLine
 10
-2.467754832
 20
0.000000000
 30
24.912252783
 11
-2.611333829
 21
0.000000000
 31
22.277159087
  0
LINE
  5
D23
330
A02
100
AcDbEntity
  8
Part
100
AcDbLine
 10
-2.467754832
 20
6.000000000
 30
24.912252783
 11
-2.611333829
 21
6.000000000
 31
22.277159087
  0
LINE
  5
D24
330
A02
100
AcDbEntity
  8
Part
100
AcDbLine
 10
0.060290102
 20
0.000000000
 30
-20.150422010
 11
0.060290102
 21
6.000000000
 31
-20.150422010
  0
LINE
  5
D25
330
A02
100
AcDbEntity
  8
Part
100
AcDbLine
 10
0.864694610
 20
0.000000000
 30
-21.134765306
 11
0.864694610
 21
6.000000000
 31
-21.134765306
  0
LINE
  5
D26
330
A02
100
AcDbEntity
  8
Part
100
AcDbLine
 10
0.060290102
 20
0.000000000
 30
-20.150422010
 11
0.864694610
 21
0.000000000
 31
-21.134765306
  0
LINE
  5
D27
330
A02
100
AcDbEntity
  8
Part
100
AcDbLine
 10
0.060290102
 20
6.000000000
 30
-20.150422010
 11
0.864694610
 21
6.000000000
 31
-21.134765306
  0
LINE
  5
D28
330
A02
100
AcDbEntity
  8
Part
100
AcDbLine
 10
-2.611333829
 20
0.000000000
 30
22.277159087
 11
-2.611333829
 21
6.000000000
 31
22.277159087
  0
LINE
  5
D29
330
A02
100
AcDbEntity
  8
Part
100
AcDbLine
 10
-2.760302616
 20
0.000000000
 30
20.377372201
 11
-2.760302616
 21
6.000000000
 31
20.377372201
  0
LINE
  5
D2A
330
A02
100
AcDbEntity
  8
Part
100
AcDbLine
 10
-2.611333829
 20
0.000000000
 30
22.277159087
 11
-2.760302616
 21
0.000000000
 31
20.377372201
  0
LINE
  5
D2B
330
A02
100
AcDbEntity
  8
Part
100
AcDbLine
 10
-2.611333829
 20
6.000000000
 30
22.277159087
 11
-2.760302616
 21
6.000000000
 31
20.377372201
  0
LINE
  5
D2C
330
A02
100
AcDbEntity
  8
Part
100
AcDbLine
 10
-0.674657817
 20
0.000000000
 30
-19.319672119
 11
-0.674657817
 21
6.000000000
 31
-19.319672119
  0
LINE
  5
D2D
330
A02
100
AcDbEntity
  8
Part
100
AcDbLine
 10
0.060290102
 20
0.000000000
 30
-20.150422010
 11
0.060290102
 21
6.000000000
 31
-20.150422010
  0
LINE
  5
D2E
330
A02
100
AcDbEntity
  8
Part
100
AcDbLine
 10
-0.674657817
 20
0.000000000
 30
-19.319672119
 11
0.060290102
 21
0.000000000
 31
-20.150422010
  0
LINE
  5
D2F
330
A02
100
AcDbEntity
  8
Part
100
AcDbLine
 10
-0.674657817
 20
6.000000000
 30
-19.319672119
 11
0.060290102
 21
6.000000000
 31
-20.150422010
  0
LINE
  5
D30
330
A02
100
AcDbEntity
  8
Part
100
AcDbLine
 10
-2.760302616
 20
0.000000000
 30
20.377372201
 11
-2.760302616
 21
6.000000000
 31
20.377372201
  0
LINE
  5
D31
330
A02
100
AcDbEntity
  8
Part
100
AcDbLine
 10
-2.935503275
 20
0.000000000
 30
19.088097778
 11
-2.935503275
 21
6.000000000
 31
19.088097778
  0
LINE
  5
D32
330
A02
100
AcDbEntity
  8
Part
100
AcDbLine
 10
-2.760302616
 20
0.000000000
 30
20.377372201
 11
-2.935503275
 21
0.000000000
 31
19.088097778
  0
LINE
  5
D33
330
A02
100
AcDbEntity
  8
Part
100
AcDbLine
 10
-2.760302616
 20
6.000000000
 30
20.377372201
 11
-2.935503275
 21
6.000000000
 31
19.088097778
  0
LINE
  5
D34
330
A02
100
AcDbEntity
  8
Part
100
AcDbLine
 10
-1.361733460
 20
0.000000000
 30
-18.670744683
 11
-1.361733460
 21
6.000000000
 31
-18.670744683
  0
LINE
  5
D35
330
A02
100
AcDbEntity
  8
Part
100
AcDbLine
 10
-0.674657817
 20
0.000000000
 30
-19.319672119
 11
-0.674657817
 21
6.000000000
 31
-19.319672119
  0
LINE
  5
D36
330
A02
100
AcDbEntity
  8
Part
100
AcDbLine
 10
-1.361733460
 20
0.000000000
 30
-18.670744683
 11
-0.674657817
 21
0.000000000
 31
-19.319672119
  0
LINE
  5
D37
330
A02
100
AcDbEntity
  8
Part
100
AcDbLine
 10
-1.361733460
 20
6.000000000
 30
-18.670744683
 11
-0.674657817
 21
6.000000000
 31
-19.319672119
  0
LINE
  5
D38
330
A02
100
AcDbEntity
  8
Part
100
AcDbLine
 10
-2.935503275
 20
0.000000000
 30
19.088097778
 11
-2.935503275
 21
6.000000000
 31
19.088097778
  0
LINE
  5
D39
330
A02
100
AcDbEntity
  8
Part
100
AcDbLine
 10
-3.148900366
 20
0.000000000
 30
18.284545825
 11
-3.148900366
 21
6.000000000
 31
18.284545825
  0
LINE
  5
D3A
330
A02
100
AcDbEntity
  8
Part
100
AcDbLine
 10
-2.935503275
 20
0.000000000
 30
19.088097778
 11
-3.148900366
 21
0.000000000
 31
18.284545825
  0
LINE
  5
D3B
330
A02
100
AcDbEntity
  8
Part
100
AcDbLine
 10
-2.935503275
 20
6.000000000
 30
19.088097778
 11
-3.148900366
 21
6.000000000
 31
18.284545825
  0
LINE
  5
D3C
330
A02
100
AcDbEntity
  8
Part
100
AcDbLine
 10
-2.023640916
 20
0.000000000
 30
-18.205052025
 11
-2.023640916
 21
6.000000000
 31
-18.205052025
  0
LINE
  5
D3D
330
A02
100
AcDbEntity
  8
Part
100
AcDbLine
 10
-1.361733460
 20
0.000000000
 30
-18.670744683
 11
-1.361733460
 21
6.000000000
 31
-18.670744683
  0
LINE
  5
D3E
330
A02
100
AcDbEntity
  8
Part
100
AcDbLine
 10
-2.023640916
 20
0.000000000
 30
-18.205052025
 11
-1.361733460
 21
0.000000000
 31
-18.670744683
  0
LINE
  5
D3F
330
A02
100
AcDbEntity
  8
Part
100
AcDbLine
 10
-2.023640916
 20
6.000000000
 30
-18.205052025
 11
-1.361733460
 21
6.000000000
 31
-18.670744683
  0
LINE
  5
D40
330
A02
100
AcDbEntity
  8
Part
100
AcDbLine
 10
-3.148900366
 20
0.000000000
 30
18.284545825
 11
-3.148900366
 21
6.000000000
 31
18.284545825
  0
LINE
  5
D41
330
A02
100
AcDbEntity
  8
Part
100
AcDbLine
 10
-3.403605909
 20
0.000000000
 30
17.842327015
 11
-3.403605909
 21
6.000000000
 31
17.842327015
  0
LINE
  5
D42
330
A02
100
AcDbEntity
  8
Part
100
AcDbLine
 10
-3.148900366
 20
0.000000000
 30
18.284545825
 11
-3.403605909
 21
0.000000000
 31
17.842327015
  0
LINE
  5
D43
330
A02
100
AcDbEntity
  8
Part
100
AcDbLine
 10
-3.148900366
 20
6.000000000
 30
18.284545825
 11
-3.403605909
 21
6.000000000
 31
17.842327015
  0
LINE
  5
D44
330
A02
100
AcDbEntity
  8
Part
100
AcDbLine
 10
-2.679353325
 20
0.000000000
 30
-17.897444923
 11
-2.679353325
 21
6.000000000
 31
-17.897444923
  0
LINE
  5
D45
330
A02
100
AcDbEntity
  8
Part
100
AcDbLine
 10
-2.023640916
 20
0.000000000
 30
-18.205052025
 11
-2.023640916
 21
6.000000000
 31
-18.205052025
  0
LINE
  5
D46
330
A02
100
AcDbEntity
  8
Part
100
AcDbLine
 10
-2.679353325
 20
0.000000000
 30
-17.897444923
 11
-2.023640916
 21
0.000000000
 31
-18.205052025
  0
LINE
  5
D47
330
A02
100
AcDbEntity
  8
Part
100
AcDbLine
 10
-2.679353325
 20
6.000000000
 30
-17.897444923
 11
-2.023640916
 21
6.000000000
 31
-18.205052025
  0
LINE
  5
D48
330
A02
100
AcDbEntity
  8
Part
100
AcDbLine
 10
-3.403605909
 20
0.000000000
 30
17.842327015
 11
-3.403605909
 21
6.000000000
 31
17.842327015
  0
LINE
  5
D49
330
A02
100
AcDbEntity
  8
Part
100
AcDbLine
 10
-3.693918545
 20
0.000000000
 30
17.637847590
 11
-3.693918545
 21
6.000000000
 31
17.637847590
  0
LINE
  5
D4A
330
A02
100
AcDbEntity
  8
Part
100
AcDbLine
 10
-3.403605909
 20
0.000000000
 30
17.842327015
 11
-3.693918545
 21
0.000000000
 31
17.637847590
  0
LINE
  5
D4B
330
A02
100
AcDbEntity
  8
Part
100
AcDbLine
 10
-3.403605909
 20
6.000000000
 30
17.842327015
 11
-3.693918545
 21
6.000000000
 31
17.637847590
  0
LINE
  5
D4C
330
A02
100
AcDbEntity
  8
Part
100
AcDbLine
 10
-3.339876184
 20
0.000000000
 30
-17.699984108
 11
-3.339876184
 21
6.000000000
 31
-17.699984108
  0
LINE
  5
D4D
330
A02
100
AcDbEntity
  8
Part
100
AcDbLine
 10
-2.679353325
 20
0.000000000
 30
-17.897444923
 11
-2.679353325
 21
6.000000000
 31
-17.897444923
  0
LINE
  5
D4E
330
A02
100
AcDbEntity
  8
Part
100
AcDbLine
 10
-3.339876184
 20
0.000000000
 30
-17.699984108
 11
-2.679353325
 21
0.000000000
 31
-17.897444923
  0
LINE
  5
D4F
330
A02
100
AcDbEntity
  8
Part
100
AcDbLine
 10
-3.339876184
 20
6.000000000
 30
-17.699984108
 11
-2.679353325
 21
6.000000000
 31
-17.897444923
  0
LINE
  5
D50
330
A02
100
AcDbEntity
  8
Part
100
AcDbLine
 10
-3.693918545
 20
0.000000000
 30
17.637847590
 11
-3.693918545
 21
6.000000000
 31
17.637847590
  0
LINE
  5
D51
330
A02
100
AcDbEntity
  8
Part
100
AcDbLine
 10
-4.005376811
 20
0.000000000
 30
17.548702419
 11
-4.005376811
 21
6.000000000
 31
17.548702419
  0
LINE
  5
D52
330
A02
100
AcDbEntity
  8
Part
100
AcDbLine
 10
-3.693918545
 20
0.000000000
 30
17.637847590
 11
-4.005376811
 21
0.000000000
 31
17.548702419
  0
LINE
  5
D53
330
A02
100
AcDbEntity
  8
Part
100
AcDbLine
 10
-3.693918545
 20
6.000000000
 30
17.637847590
 11
-4.005376811
 21
6.000000000
 31
17.548702419
  0
LINE
  5
D54
330
A02
100
AcDbEntity
  8
Part
100
AcDbLine
 10
-4.005376811
 20
0.000000000
 30
-17.548702419
 11
-4.005376811
 21
6.000000000
 31
-17.548702419
  0
LINE
  5
D55
330
A02
100
AcDbEntity
  8
Part
100
AcDbLine
 10
-3.339876184
 20
0.000000000
 30
-17.699984108
 11
-3.339876184
 21
6.000000000
 31
-17.699984108
  0
LINE
  5
D56
330
A02
100
AcDbEntity
  8
Part
100
AcDbLine
 10
-4.005376811
 20
0.000000000
 30
-17.548702419
 11
-3.339876184
 21
0.000000000
 31
-17.699984108
  0
LINE
  5
D57
330
A02
100
AcDbEntity
  8
Part
100
AcDbLine
 10
-4.005376811
 20
6.000000000
 30
-17.548702419
 11
-3.339876184
 21
6.000000000
 31
-17.699984108
  0
LINE
  5
D58
330
A02
100
AcDbEntity
  8
Part
100
AcDbLine
 10
-4.005376811
 20
0.000000000
 30
17.548702419
 11
-4.005376811
 21
6.000000000
 31
17.548702419
  0
LINE
  5
D59
330
A02
100
AcDbEntity
  8
Part
100
AcDbLine
 10
-4.670610823
 20
0.000000000
 30
17.396252611
 11
-4.670610823
 21
6.000000000
 31
17.396252611
  0
LINE
  5
D5A
330
A02
100
AcDbEntity
  8
Part
100
AcDbLine
 10
-4.005376811
 20
0.000000000
 30
17.548702419
 11
-4.670610823
 21
0.000000000
 31
17.396252611
  0
LINE
  5
D5B
330
A02
100
AcDbEntity
  8
Part
100
AcDbLine
 10
-4.005376811
 20
6.000000000
 30
17.548702419
 11
-4.670610823
 21
6.000000000
 31
17.396252611
  0
LINE
  5
D5C
330
A02
100
AcDbEntity
  8
Part
100
AcDbLine
 10
-4.324669653
 20
0.000000000
 30
-17.493882766
 11
-4.324669653
 21
6.000000000
 31
-17.493882766
  0
LINE
  5
D5D
330
A02
100
AcDbEntity
  8
Part
100
AcDbLine
 10
-4.005376811
 20
0.000000000
 30
-17.548702419
 11
-4.005376811
 21
6.000000000
 31
-17.548702419
  0
LINE
  5
D5E
330
A02
100
AcDbEntity
  8
Part
100
AcDbLine
 10
-4.324669653
 20
0.000000000
 30
-17.493882766
 11
-4.005376811
 21
0.000000000
 31
-17.548702419
  0
LINE
  5
D5F
330
A02
100
AcDbEntity
  8
Part
100
AcDbLine
 10
-4.324669653
 20
6.000000000
 30
-17.493882766
 11
-4.005376811
 21
6.000000000
 31
-17.548702419
  0
LINE
  5
D60
330
A02
100
AcDbEntity
  8
Part
100
AcDbLine
 10
-4.670610823
 20
0.000000000
 30
17.396252611
 11
-4.670610823
 21
6.000000000
 31
17.396252611
  0
LINE
  5
D61
330
A02
100
AcDbEntity
  8
Part
100
AcDbLine
 10
-5.351396392
 20
0.000000000
 30
17.287568530
 11
-5.351396392
 21
6.000000000
 31
17.287568530
  0
LINE
  5
D62
330
A02
100
AcDbEntity
  8
Part
100
AcDbLine
 10
-4.670610823
 20
0.000000000
 30
17.396252611
 11
-5.351396392
 21
0.000000000
 31
17.287568530
  0
LINE
  5
D63
330
A02
100
AcDbEntity
  8
Part
100
AcDbLine
 10
-4.670610823
 20
6.000000000
 30
17.396252611
 11
-5.351396392
 21
6.000000000
 31
17.287568530
  0
LINE
  5
D64
330
A02
100
AcDbEntity
  8
Part
100
AcDbLine
 10
-4.674952597
 20
0.000000000
 30
-17.552150430
 11
-4.674952597
 21
6.000000000
 31
-17.552150430
  0
LINE
  5
D65
330
A02
100
AcDbEntity
  8
Part
100
AcDbLine
 10
-4.324669653
 20
0.000000000
 30
-17.493882766
 11
-4.324669653
 21
6.000000000
 31
-17.493882766
  0
LINE
  5
D66
330
A02
100
AcDbEntity
  8
Part
100
AcDbLine
 10
-4.674952597
 20
0.000000000
 30
-17.552150430
 11
-4.324669653
 21
0.000000000
 31
-17.493882766
  0
LINE
  5
D67
330
A02
100
AcDbEntity
  8
Part
100
AcDbLine
 10
-4.674952597
 20
6.000000000
 30
-17.552150430
 11
-4.324669653
 21
6.000000000
 31
-17.493882766
  0
LINE
  5
D68
330
A02
100
AcDbEntity
  8
Part
100
AcDbLine
 10
-5.351396392
 20
0.000000000
 30
17.287568530
 11
-5.351396392
 21
6.000000000
 31
17.287568530
  0
LINE
  5
D69
330
A02
100
AcDbEntity
  8
Part
100
AcDbLine
 10
-6.075638578
 20
0.000000000
 30
17.280210000
 11
-6.075638578
 21
6.000000000
 31
17.280210000
  0
LINE
  5
D6A
330
A02
100
AcDbEntity
  8
Part
100
AcDbLine
 10
-5.351396392
 20
0.000000000
 30
17.287568530
 11
-6.075638578
 21
0.000000000
 31
17.280210000
  0
LINE
  5
D6B
330
A02
100
AcDbEntity
  8
Part
100
AcDbLine
 10
-5.351396392
 20
6.000000000
 30
17.287568530
 11
-6.075638578
 21
6.000000000
 31
17.280210000
  0
LINE
  5
D6C
330
A02
100
AcDbEntity
  8
Part
100
AcDbLine
 10
-5.096305913
 20
0.000000000
 30
-17.840063217
 11
-5.096305913
 21
6.000000000
 31
-17.840063217
  0
LINE
  5
D6D
330
A02
100
AcDbEntity
  8
Part
100
AcDbLine
 10
-4.674952597
 20
0.000000000
 30
-17.552150430
 11
-4.674952597
 21
6.000000000
 31
-17.552150430
  0
LINE
  5
D6E
330
A02
100
AcDbEntity
  8
Part
100
AcDbLine
 10
-5.096305913
 20
0.000000000
 30
-17.840063217
 11
-4.674952597
 21
0.000000000
 31
-17.552150430
  0
LINE
  5
D6F
330
A02
100
AcDbEntity
  8
Part
100
AcDbLine
 10
-5.096305913
 20
6.000000000
 30
-17.840063217
 11
-4.674952597
 21
6.000000000
 31
-17.552150430
  0
LINE
  5
D70
330
A02
100
AcDbEntity
  8
Part
100
AcDbLine
 10
-6.075638578
 20
0.000000000
 30
17.280210000
 11
-6.075638578
 21
6.000000000
 31
17.280210000
  0
LINE
  5
D71
330
A02
100
AcDbEntity
  8
Part
100
AcDbLine
 10
-6.874053061
 20
0.000000000
 30
17.412593705
 11
-6.874053061
 21
6.000000000
 31
17.412593705
  0
LINE
  5
D72
330
A02
100
AcDbEntity
  8
Part
100
AcDbLine
 10
-6.075638578
 20
0.000000000
 30
17.280210000
 11
-6.874053061
 21
0.000000000
 31
17.412593705
  0
LINE
  5
D73
330
A02
100
AcDbEntity
  8
Part
100
AcDbLine
 10
-6.075638578
 20
6.000000000
 30
17.280210000
 11
-6.874053061
 21
6.000000000
 31
17.412593705
  0
LINE
  5
D74
330
A02
100
AcDbEntity
  8
Part
100
AcDbLine
 10
-5.637218174
 20
0.000000000
 30
-18.471448982
 11
-5.637218174
 21
6.000000000
 31
-18.471448982
  0
LINE
  5
D75
330
A02
100
AcDbEntity
  8
Part
100
AcDbLine
 10
-5.096305913
 20
0.000000000
 30
-17.840063217
 11
-5.096305913
 21
6.000000000
 31
-17.840063217
  0
LINE
  5
D76
330
A02
100
AcDbEntity
  8
Part
100
AcDbLine
 10
-5.637218174
 20
0.000000000
 30
-18.471448982
 11
-5.096305913
 21
0.000000000
 31
-17.840063217
  0
LINE
  5
D77
330
A02
100
AcDbEntity
  8
Part
100
AcDbLine
 10
-5.637218174
 20
6.000000000
 30
-18.471448982
 11
-5.096305913
 21
6.000000000
 31
-17.840063217
  0
LINE
  5
D78
330
A02
100
AcDbEntity
  8
Part
100
AcDbLine
 10
-6.874053061
 20
0.000000000
 30
17.412593705
 11
-6.874053061
 21
6.000000000
 31
17.412593705
  0
LINE
  5
D79
330
A02
100
AcDbEntity
  8
Part
100
AcDbLine
 10
-7.774645888
 20
0.000000000
 30
17.699146173
 11
-7.774645888
 21
6.000000000
 31
17.699146173
  0
LINE
  5
D7A
330
A02
100
AcDbEntity
  8
Part
100
AcDbLine
 10
-6.874053061
 20
0.000000000
 30
17.412593705
 11
-7.774645888
 21
0.000000000
 31
17.699146173
  0
LINE
  5
D7B
330
A02
100
AcDbEntity
  8
Part
100
AcDbLine
 10
-6.874053061
 20
6.000000000
 30
17.412593705
 11
-7.774645888
 21
6.000000000
 31
17.699146173
  0
LINE
  5
D7C
330
A02
100
AcDbEntity
  8
Part
100
AcDbLine
 10
-6.354463721
 20
0.000000000
 30
-19.557028382
 11
-6.354463721
 21
6.000000000
 31
-19.557028382
  0
LINE
  5
D7D
330
A02
100
AcDbEntity
  8
Part
100
AcDbLine
 10
-5.637218174
 20
0.000000000
 30
-18.471448982
 11
-5.637218174
 21
6.000000000
 31
-18.471448982
  0
LINE
  5
D7E
330
A02
100
AcDbEntity
  8
Part
100
AcDbLine
 10
-6.354463721
 20
0.000000000
 30
-19.557028382
 11
-5.637218174
 21
0.000000000
 31
-18.471448982
  0
LINE
  5
D7F
330
A02
100
AcDbEntity
  8
Part
100
AcDbLine
 10
-6.354463721
 20
6.000000000
 30
-19.557028382
 11
-5.637218174
 21
6.000000000
 31
-18.471448982
  0
LINE
  5
D80
330
A02
100
AcDbEntity
  8
Part
100
AcDbLine
 10
-7.774645888
 20
0.000000000
 30
17.699146173
 11
-7.774645888
 21
6.000000000
 31
17.699146173
  0
LINE
  5
D81
330
A02
100
AcDbEntity
  8
Part
100
AcDbLine
 10
-8.797259951
 20
0.000000000
 30
18.128744012
 11
-8.797259951
 21
6.000000000
 31
18.128744012
  0
LINE
  5
D82
330
A02
100
AcDbEntity
  8
Part
100
AcDbLine
 10
-7.774645888
 20
0.000000000
 30
17.699146173
 11
-8.797259951
 21
0.000000000
 31
18.128744012
  0
LINE
  5
D83
330
A02
100
AcDbEntity
  8
Part
100
AcDbLine
 10
-7.774645888
 20
6.000000000
 30
17.699146173
 11
-8.797259951
 21
6.000000000
 31
18.128744012
  0
LINE
  5
D84
330
A02
100
AcDbEntity
  8
Part
100
AcDbLine
 10
-7.312966597
 20
0.000000000
 30
-21.204042089
 11
-7.312966597
 21
6.000000000
 31
-21.204042089
  0
LINE
  5
D85
330
A02
100
AcDbEntity
  8
Part
100
AcDbLine
 10
-6.354463721
 20
0.000000000
 30
-19.557028382
 11
-6.354463721
 21
6.000000000
 31
-19.557028382
  0
LINE
  5
D86
330
A02
100
AcDbEntity
  8
Part
100
AcDbLine
 10
-7.312966597
 20
0.000000000
 30
-21.204042089
 11
-6.354463721
 21
0.000000000
 31
-19.557028382
  0
LINE
  5
D87
330
A02
100
AcDbEntity
  8
Part
100
AcDbLine
 10
-7.312966597
 20
6.000000000
 30
-21.204042089
 11
-6.354463721
 21
6.000000000
 31
-19.557028382
  0
LINE
  5
D88
330
A02
100
AcDbEntity
  8
Part
100
AcDbLine
 10
-8.797259951
 20
0.000000000
 30
18.128744012
 11
-8.797259951
 21
6.000000000
 31
18.128744012
  0
LINE
  5
D89
330
A02
100
AcDbEntity
  8
Part
100
AcDbLine
 10
-9.949093921
 20
0.000000000
 30
18.666588640
 11
-9.949093921
 21
6.000000000
 31
18.666588640
  0
LINE
  5
D8A
330
A02
100
AcDbEntity
  8
Part
100
AcDbLine
 10
-8.797259951
 20
0.000000000
 30
18.128744012
 11
-9.949093921
 21
0.000000000
 31
18.666588640
  0
LINE
  5
D8B
330
A02
100
AcDbEntity
  8
Part
100
AcDbLine
 10
-8.797259951
 20
6.000000000
 30
18.128744012
 11
-9.949093921
 21
6.000000000
 31
18.666588640
  0
LINE
  5
D8C
330
A02
100
AcDbEntity
  8
Part
100
AcDbLine
 10
-8.585651110
 20
0.000000000
 30
-23.515882880
 11
-8.585651110
 21
6.000000000
 31
-23.515882880
  0
LINE
  5
D8D
330
A02
100
AcDbEntity
  8
Part
100
AcDbLine
 10
-7.312966597
 20
0.000000000
 30
-21.204042089
 11
-7.312966597
 21
6.000000000
 31
-21.204042089
  0
LINE
  5
D8E
330
A02
100
AcDbEntity
  8
Part
100
AcDbLine
 10
-8.585651110
 20
0.000000000
 30
-23.515882880
 11
-7.312966597
 21
0.000000000
 31
-21.204042089
  0
LINE
  5
D8F
330
A02
100
AcDbEntity
  8
Part
100
AcDbLine
 10
-8.585651110
 20
6.000000000
 30
-23.515882880
 11
-7.312966597
 21
6.000000000
 31
-21.204042089
  0
LINE
  5
D90
330
A02
100
AcDbEntity
  8
Part
100
AcDbLine
 10
-9.949093921
 20
0.000000000
 30
18.666588640
 11
-9.949093921
 21
6.000000000
 31
18.666588640
  0
LINE
  5
D91
330
A02
100
AcDbEntity
  8
Part
100
AcDbLine
 10
-11.221976603
 20
0.000000000
 30
19.259189146
 11
-11.221976603
 21
6.000000000
 31
19.259189146
  0
LINE
  5
D92
330
A02
100
AcDbEntity
  8
Part
100
AcDbLine
 10
-9.949093921
 20
0.000000000
 30
18.666588640
 11
-11.221976603
 21
0.000000000
 31
19.259189146
  0
LINE
  5
D93
330
A02
100
AcDbEntity
  8
Part
100
AcDbLine
 10
-9.949093921
 20
6.000000000
 30
18.666588640
 11
-11.221976603
 21
6.000000000
 31
19.259189146
  0
LINE
  5
D94
330
A02
100
AcDbEntity
  8
Part
100
AcDbLine
 10
-10.253279160
 20
0.000000000
 30
-26.591733047
 11
-10.253279160
 21
6.000000000
 31
-26.591733047
  0
LINE
  5
D95
330
A02
100
AcDbEntity
  8
Part
100
AcDbLine
 10
-8.585651110
 20
0.000000000
 30
-23.515882880
 11
-8.585651110
 21
6.000000000
 31
-23.515882880
  0
LINE
  5
D96
330
A02
100
AcDbEntity
  8
Part
100
AcDbLine
 10
-10.253279160
 20
0.000000000
 30
-26.591733047
 11
-8.585651110
 21
0.000000000
 31
-23.515882880
  0
LINE
  5
D97
330
A02
100
AcDbEntity
  8
Part
100
AcDbLine
 10
-10.253279160
 20
6.000000000
 30
-26.591733047
 11
-8.585651110
 21
6.000000000
 31
-23.515882880
  0
LINE
  5
D98
330
A02
100
AcDbEntity
  8
Part
100
AcDbLine
 10
-11.221976603
 20
0.000000000
 30
19.259189146
 11
-11.221976603
 21
6.000000000
 31
19.259189146
  0
LINE
  5
D99
330
A02
100
AcDbEntity
  8
Part
100
AcDbLine
 10
-12.591929682
 20
0.000000000
 30
19.841706249
 11
-12.591929682
 21
6.000000000
 31
19.841706249
  0
LINE
  5
D9A
330
A02
100
AcDbEntity
  8
Part
100
AcDbLine
 10
-11.221976603
 20
0.000000000
 30
19.259189146
 11
-12.591929682
 21
0.000000000
 31
19.841706249
  0
LINE
  5
D9B
330
A02
100
AcDbEntity
  8
Part
100
AcDbLine
 10
-11.221976603
 20
6.000000000
 30
19.259189146
 11
-12.591929682
 21
6.000000000
 31
19.841706249
  0
LINE
  5
D9C
330
A02
100
AcDbEntity
  8
Part
100
AcDbLine
 10
-11.613889685
 20
0.000000000
 30
-27.172045679
 11
-11.613889685
 21
6.000000000
 31
-27.172045679
  0
LINE
  5
D9D
330
A02
100
AcDbEntity
  8
Part
100
AcDbLine
 10
-10.253279160
 20
0.000000000
 30
-26.591733047
 11
-10.253279160
 21
6.000000000
 31
-26.591733047
  0
LINE
  5
D9E
330
A02
100
AcDbEntity
  8
Part
100
AcDbLine
 10
-11.613889685
 20
0.000000000
 30
-27.172045679
 11
-10.253279160
 21
0.000000000
 31
-26.591733047
  0
LINE
  5
D9F
330
A02
100
AcDbEntity
  8
Part
100
AcDbLine
 10
-11.613889685
 20
6.000000000
 30
-27.172045679
 11
-10.253279160
 21
6.000000000
 31
-26.591733047
  0
LINE
  5
DA0
330
A02
100
AcDbEntity
  8
Part
100
AcDbLine
 10
-12.591929682
 20
0.000000000
 30
19.841706249
 11
-12.591929682
 21
6.000000000
 31
19.841706249
  0
LINE
  5
DA1
330
A02
100
AcDbEntity
  8
Part
100
AcDbLine
 10
-14.021210524
 20
0.000000000
 30
20.346601299
 11
-14.021210524
 21
6.000000000
 31
20.346601299
  0
LINE
  5
DA2
330
A02
100
AcDbEntity
  8
Part
100
AcDbLine
 10
-12.591929682
 20
0.000000000
 30
19.841706249
 11
-14.021210524
 21
0.000000000
 31
20.346601299
  0
LINE
  5
DA3
330
A02
100
AcDbEntity
  8
Part
100
AcDbLine
 10
-12.591929682
 20
6.000000000
 30
19.841706249
 11
-14.021210524
 21
6.000000000
 31
20.346601299
  0
LINE
  5
DA4
330
A02
100
AcDbEntity
  8
Part
100
AcDbLine
 10
-12.347599455
 20
0.000000000
 30
-26.239984522
 11
-12.347599455
 21
6.000000000
 31
-26.239984522
  0
LINE
  5
DA5
330
A02
100
AcDbEntity
  8
Part
100
AcDbLine
 10
-11.613889685
 20
0.000000000
 30
-27.172045679
 11
-11.613889685
 21
6.000000000
 31
-27.172045679
  0
LINE
  5
DA6
330
A02
100
AcDbEntity
  8
Part
100
AcDbLine
 10
-12.347599455
 20
0.000000000
 30
-26.239984522
 11
-11.613889685
 21
0.000000000
 31
-27.172045679
  0
LINE
  5
DA7
330
A02
100
AcDbEntity
  8
Part
100
AcDbLine
 10
-12.347599455
 20
6.000000000
 30
-26.239984522
 11
-11.613889685
 21
6.000000000
 31
-27.172045679
  0
LINE
  5
DA8
330
A02
100
AcDbEntity
  8
Part
100
AcDbLine
 10
-14.021210524
 20
0.000000000
 30
20.346601299
 11
-14.021210524
 21
6.000000000
 31
20.346601299
  0
LINE
  5
DA9
330
A02
100
AcDbEntity
  8
Part
100
AcDbLine
 10
-15.462644988
 20
0.000000000
 30
20.712378465
 11
-15.462644988
 21
6.000000000
 31
20.712378465
  0
LINE
  5
DAA
330
A02
100
AcDbEntity
  8
Part
100
AcDbLine
 10
-14.021210524
 20
0.000000000
 30
20.346601299
 11
-15.462644988
 21
0.000000000
 31
20.712378465
  0
LINE
  5
DAB
330
A02
100
AcDbEntity
  8
Part
100
AcDbLine
 10
-14.021210524
 20
6.000000000
 30
20.346601299
 11
-15.462644988
 21
6.000000000
 31
20.712378465
  0
LINE
  5
DAC
330
A02
100
AcDbEntity
  8
Part
100
AcDbLine
 10
-13.327282056
 20
0.000000000
 30
-25.742344067
 11
-13.327282056
 21
6.000000000
 31
-25.742344067
  0
LINE
  5
DAD
330
A02
100
AcDbEntity
  8
Part
100
AcDbLine
 10
-12.347599455
 20
0.000000000
 30
-26.239984522
 11
-12.347599455
 21
6.000000000
 31
-26.239984522
  0
LINE
  5
DAE
330
A02
100
AcDbEntity
  8
Part
100
AcDbLine
 10
-13.327282056
 20
0.000000000
 30
-25.742344067
 11
-12.347599455
 21
0.000000000
 31
-26.239984522
  0
LINE
  5
DAF
330
A02
100
AcDbEntity
  8
Part
100
AcDbLine
 10
-13.327282056
 20
6.000000000
 30
-25.742344067
 11
-12.347599455
 21
6.000000000
 31
-26.239984522
  0
LINE
  5
DB0
330
A02
100
AcDbEntity
  8
Part
100
AcDbLine
 10
-15.462644988
 20
0.000000000
 30
20.712378465
 11
-15.462644988
 21
6.000000000
 31
20.712378465
  0
LINE
  5
DB1
330
A02
100
AcDbEntity
  8
Part
100
AcDbLine
 10
-16.865695843
 20
0.000000000
 30
20.891225398
 11
-16.865695843
 21
6.000000000
 31
20.891225398
  0
LINE
  5
DB2
330
A02
100
AcDbEntity
  8
Part
100
AcDbLine
 10
-15.462644988
 20
0.000000000
 30
20.712378465
 11
-16.865695843
 21
0.000000000
 31
20.891225398
  0
LINE
  5
DB3
330
A02
100
AcDbEntity
  8
Part
100
AcDbLine
 10
-15.462644988
 20
6.000000000
 30
20.712378465
 11
-16.865695843
 21
6.000000000
 31
20.891225398
  0
LINE
  5
DB4
330
A02
100
AcDbEntity
  8
Part
100
AcDbLine
 10
-14.251384411
 20
0.000000000
 30
-25.145332449
 11
-14.251384411
 21
6.000000000
 31
-25.145332449
  0
LINE
  5
DB5
330
A02
100
AcDbEntity
  8
Part
100
AcDbLine
 10
-13.327282056
 20
0.000000000
 30
-25.742344067
 11
-13.327282056
 21
6.000000000
 31
-25.742344067
  0
LINE
  5
DB6
330
A02
100
AcDbEntity
  8
Part
100
AcDbLine
 10
-14.251384411
 20
0.000000000
 30
-25.145332449
 11
-13.327282056
 21
0.000000000
 31
-25.742344067
  0
LINE
  5
DB7
330
A02
100
AcDbEntity
  8
Part
100
AcDbLine
 10
-14.251384411
 20
6.000000000
 30
-25.145332449
 11
-13.327282056
 21
6.000000000
 31
-25.742344067
  0
LINE
  5
DB8
330
A02
100
AcDbEntity
  8
Part
100
AcDbLine
 10
-16.865695843
 20
0.000000000
 30
20.891225398
 11
-16.865695843
 21
6.000000000
 31
20.891225398
  0
LINE
  5
DB9
330
A02
100
AcDbEntity
  8
Part
100
AcDbLine
 10
-18.183421810
 20
0.000000000
 30
20.854542039
 11
-18.183421810
 21
6.000000000
 31
20.854542039
  0
LINE
  5
DBA
330
A02
100
AcDbEntity
  8
Part
100
AcDbLine
 10
-16.865695843
 20
0.000000000
 30
20.891225398
 11
-18.183421810
 21
0.000000000
 31
20.854542039
  0
LINE
  5
DBB
330
A02
100
AcDbEntity
  8
Part
100
AcDbLine
 10
-16.865695843
 20
6.000000000
 30
20.891225398
 11
-18.183421810
 21
6.000000000
 31
20.854542039
  0
LINE
  5
DBC
330
A02
100
AcDbEntity
  8
Part
100
AcDbLine
 10
-15.078093540
 20
0.000000000
 30
-24.399904162
 11
-15.078093540
 21
6.000000000
 31
-24.399904162
  0
LINE
  5
DBD
330
A02
100
AcDbEntity
  8
Part
100
AcDbLine
 10
-14.251384411
 20
0.000000000
 30
-25.145332449
 11
-14.251384411
 21
6.000000000
 31
-25.145332449
  0
LINE
  5
DBE
330
A02
100
AcDbEntity
  8
Part
100
AcDbLine
 10
-15.078093540
 20
0.000000000
 30
-24.399904162
 11
-14.251384411
 21
0.000000000
 31
-25.145332449
  0
LINE
  5
DBF
330
A02
100
AcDbEntity
  8
Part
100
AcDbLine
 10
-15.078093540
 20
6.000000000
 30
-24.399904162
 11
-14.251384411
 21
6.000000000
 31
-25.145332449
  0
LINE
  5
DC0
330
A02
100
AcDbEntity
  8
Part
100
AcDbLine
 10
-18.183421810
 20
0.000000000
 30
20.854542039
 11
-18.183421810
 21
6.000000000
 31
20.854542039
  0
LINE
  5
DC1
330
A02
100
AcDbEntity
  8
Part
100
AcDbLine
 10
-19.379311658
 20
0.000000000
 30
20.595669630
 11
-19.379311658
 21
6.000000000
 31
20.595669630
  0
LINE
  5
DC2
330
A02
100
AcDbEntity
  8
Part
100
AcDbLine
 10
-18.183421810
 20
0.000000000
 30
20.854542039
 11
-19.379311658
 21
0.000000000
 31
20.595669630
  0
LINE
  5
DC3
330
A02
100
AcDbEntity
  8
Part
100
AcDbLine
 10
-18.183421810
 20
6.000000000
 30
20.854542039
 11
-19.379311658
 21
6.000000000
 31
20.595669630
  0
LINE
  5
DC4
330
A02
100
AcDbEntity
  8
Part
100
AcDbLine
 10
-15.766990663
 20
0.000000000
 30
-23.476399496
 11
-15.766990663
 21
6.000000000
 31
-23.476399496
  0
LINE
  5
DC5
330
A02
100
AcDbEntity
  8
Part
100
AcDbLine
 10
-15.078093540
 20
0.000000000
 30
-24.399904162
 11
-15.078093540
 21
6.000000000
 31
-24.399904162
  0
LINE
  5
DC6
330
A02
100
AcDbEntity
  8
Part
100
AcDbLine
 10
-15.766990663
 20
0.000000000
 30
-23.476399496
 11
-15.078093540
 21
0.000000000
 31
-24.399904162
  0
LINE
  5
DC7
330
A02
100
AcDbEntity
  8
Part
100
AcDbLine
 10
-15.766990663
 20
6.000000000
 30
-23.476399496
 11
-15.078093540
 21
6.000000000
 31
-24.399904162
  0
LINE
  5
DC8
330
A02
100
AcDbEntity
  8
Part
100
AcDbLine
 10
-19.379311658
 20
0.000000000
 30
20.595669630
 11
-19.379311658
 21
6.000000000
 31
20.595669630
  0
LINE
  5
DC9
330
A02
100
AcDbEntity
  8
Part
100
AcDbLine
 10
-20.432956165
 20
0.000000000
 30
20.129543717
 11
-20.432956165
 21
6.000000000
 31
20.129543717
  0
LINE
  5
DCA
330
A02
100
AcDbEntity
  8
Part
100
AcDbLine
 10
-19.379311658
 20
0.000000000
 30
20.595669630
 11
-20.432956165
 21
0.000000000
 31
20.129543717
  0
LINE
  5
DCB
330
A02
100
AcDbEntity
  8
Part
100
AcDbLine
 10
-19.379311658
 20
6.000000000
 30
20.595669630
 11
-20.432956165
 21
6.000000000
 31
20.129543717
  0
LINE
  5
DCC
330
A02
100
AcDbEntity
  8
Part
100
AcDbLine
 10
-16.285483126
 20
0.000000000
 30
-22.368097633
 11
-16.285483126
 21
6.000000000
 31
-22.368097633
  0
LINE
  5
DCD
330
A02
100
AcDbEntity
  8
Part
100
AcDbLine
 10
-15.766990663
 20
0.000000000
 30
-23.476399496
 11
-15.766990663
 21
6.000000000
 31
-23.476399496
  0
LINE
  5
DCE
330
A02
100
AcDbEntity
  8
Part
100
AcDbLine
 10
-16.285483126
 20
0.000000000
 30
-22.368097633
 11
-15.766990663
 21
0.000000000
 31
-23.476399496
  0
LINE
  5
DCF
330
A02
100
AcDbEntity
  8
Part
100
AcDbLine
 10
-16.285483126
 20
6.000000000
 30
-22.368097633
 11
-15.766990663
 21
6.000000000
 31
-23.476399496
  0
LINE
  5
DD0
330
A02
100
AcDbEntity
  8
Part
100
AcDbLine
 10
-20.432956165
 20
0.000000000
 30
20.129543717
 11
-20.432956165
 21
6.000000000
 31
20.129543717
  0
LINE
  5
DD1
330
A02
100
AcDbEntity
  8
Part
100
AcDbLine
 10
-21.343655097
 20
0.000000000
 30
19.489435311
 11
-21.343655097
 21
6.000000000
 31
19.489435311
  0
LINE
  5
DD2
330
A02
100
AcDbEntity
  8
Part
100
AcDbLine
 10
-20.432956165
 20
0.000000000
 30
20.129543717
 11
-21.343655097
 21
0.000000000
 31
19.489435311
  0
LINE
  5
DD3
330
A02
100
AcDbEntity
  8
Part
100
AcDbLine
 10
-20.432956165
 20
6.000000000
 30
20.129543717
 11
-21.343655097
 21
6.000000000
 31
19.489435311
  0
LINE
  5
DD4
330
A02
100
AcDbEntity
  8
Part
100
AcDbLine
 10
-16.614468369
 20
0.000000000
 30
-21.091572623
 11
-16.614468369
 21
6.000000000
 31
-21.091572623
  0
LINE
  5
DD5
330
A02
100
AcDbEntity
  8
Part
100
AcDbLine
 10
-16.285483126
 20
0.000000000
 30
-22.368097633
 11
-16.285483126
 21
6.000000000
 31
-22.368097633
  0
LINE
  5
DD6
330
A02
100
AcDbEntity
  8
Part
100
AcDbLine
 10
-16.614468369
 20
0.000000000
 30
-21.091572623
 11
-16.285483126
 21
0.000000000
 31
-22.368097633
  0
LINE
  5
DD7
330
A02
100
AcDbEntity
  8
Part
100
AcDbLine
 10
-16.614468369
 20
6.000000000
 30
-21.091572623
 11
-16.285483126
 21
6.000000000
 31
-22.368097633
  0
LINE
  5
DD8
330
A02
100
AcDbEntity
  8
Part
100
AcDbLine
 10
-21.343655097
 20
0.000000000
 30
19.489435311
 11
-21.343655097
 21
6.000000000
 31
19.489435311
  0
LINE
  5
DD9
330
A02
100
AcDbEntity
  8
Part
100
AcDbLine
 10
-22.131330505
 20
0.000000000
 30
18.721349714
 11
-22.131330505
 21
6.000000000
 31
18.721349714
  0
LINE
  5
DDA
330
A02
100
AcDbEntity
  8
Part
100
AcDbLine
 10
-21.343655097
 20
0.000000000
 30
19.489435311
 11
-22.131330505
 21
0.000000000
 31
18.721349714
  0
LINE
  5
DDB
330
A02
100
AcDbEntity
  8
Part
100
AcDbLine
 10
-21.343655097
 20
6.000000000
 30
19.489435311
 11
-22.131330505
 21
6.000000000
 31
18.721349714
  0
LINE
  5
DDC
330
A02
100
AcDbEntity
  8
Part
100
AcDbLine
 10
-16.752313689
 20
0.000000000
 30
-19.683901996
 11
-16.752313689
 21
6.000000000
 31
-19.683901996
  0
LINE
  5
DDD
330
A02
100
AcDbEntity
  8
Part
100
AcDbLine
 10
-16.614468369
 20
0.000000000
 30
-21.091572623
 11
-16.614468369
 21
6.000000000
 31
-21.091572623
  0
LINE
  5
DDE
330
A02
100
AcDbEntity
  8
Part
100
AcDbLine
 10
-16.752313689
 20
0.000000000
 30
-19.683901996
 11
-16.614468369
 21
0.000000000
 31
-21.091572623
  0
LINE
  5
DDF
330
A02
100
AcDbEntity
  8
Part
100
AcDbLine
 10
-16.752313689
 20
6.000000000
 30
-19.683901996
 11
-16.614468369
 21
6.000000000
 31
-21.091572623
  0
LINE
  5
DE0
330
A02
100
AcDbEntity
  8
Part
100
AcDbLine
 10
-22.131330505
 20
0.000000000
 30
18.721349714
 11
-22.131330505
 21
6.000000000
 31
18.721349714
  0
LINE
  5
DE1
330
A02
100
AcDbEntity
  8
Part
100
AcDbLine
 10
-22.834493962
 20
0.000000000
 30
17.876965220
 11
-22.834493962
 21
6.000000000
 31
17.876965220
  0
LINE
  5
DE2
330
A02
100
AcDbEntity
  8
Part
100
AcDbLine
 10
-22.131330505
 20
0.000000000
 30
18.721349714
 11
-22.834493962
 21
0.000000000
 31
17.876965220
  0
LINE
  5
DE3
330
A02
100
AcDbEntity
  8
Part
100
AcDbLine
 10
-22.131330505
 20
6.000000000
 30
18.721349714
 11
-22.834493962
 21
6.000000000
 31
17.876965220
  0
LINE
  5
DE4
330
A02
100
AcDbEntity
  8
Part
100
AcDbLine
 10
-16.716456664
 20
0.000000000
 30
-18.197214226
 11
-16.716456664
 21
6.000000000
 31
-18.197214226
  0
LINE
  5
DE5
330
A02
100
AcDbEntity
  8
Part
100
AcDbLine
 10
-16.752313689
 20
0.000000000
 30
-19.683901996
 11
-16.752313689
 21
6.000000000
 31
-19.683901996
  0
LINE
  5
DE6
330
A02
100
AcDbEntity
  8
Part
100
AcDbLine
 10
-16.716456664
 20
0.000000000
 30
-18.197214226
 11
-16.752313689
 21
0.000000000
 31
-19.683901996
  0
LINE
  5
DE7
330
A02
100
AcDbEntity
  8
Part
100
AcDbLine
 10
-16.716456664
 20
6.000000000
 30
-18.197214226
 11
-16.752313689
 21
6.000000000
 31
-19.683901996
  0
LINE
  5
DE8
330
A02
100
AcDbEntity
  8
Part
100
AcDbLine
 10
-22.834493962
 20
0.000000000
 30
17.876965220
 11
-22.834493962
 21
6.000000000
 31
17.876965220
  0
LINE
  5
DE9
330
A02
100
AcDbEntity
  8
Part
100
AcDbLine
 10
-23.906452184
 20
0.000000000
 30
17.369054205
 11
-23.906452184
 21
6.000000000
 31
17.369054205
  0
LINE
  5
DEA
330
A02
100
AcDbEntity
  8
Part
100
AcDbLine
 10
-22.834493962
 20
0.000000000
 30
17.876965220
 11
-23.906452184
 21
0.000000000
 31
17.369054205
  0
LINE
  5
DEB
330
A02
100
AcDbEntity
  8
Part
100
AcDbLine
 10
-22.834493962
 20
6.000000000
 30
17.876965220
 11
-23.906452184
 21
6.000000000
 31
17.369054205
  0
LINE
  5
DEC
330
A02
100
AcDbEntity
  8
Part
100
AcDbLine
 10
-16.542265295
 20
0.000000000
 30
-16.691418721
 11
-16.542265295
 21
6.000000000
 31
-16.691418721
  0
LINE
  5
DED
330
A02
100
AcDbEntity
  8
Part
100
AcDbLine
 10
-16.716456664
 20
0.000000000
 30
-18.197214226
 11
-16.716456664
 21
6.000000000
 31
-18.197214226
  0
LINE
  5
DEE
330
A02
100
AcDbEntity
  8
Part
100
AcDbLine
 10
-16.542265295
 20
0.000000000
 30
-16.691418721
 11
-16.716456664
 21
0.000000000
 31
-18.197214226
  0
LINE
  5
DEF
330
A02
100
AcDbEntity
  8
Part
100
AcDbLine
 10
-16.542265295
 20
6.000000000
 30
-16.691418721
 11
-16.716456664
 21
6.000000000
 31
-18.197214226
  0
LINE
  5
DF0
330
A02
100
AcDbEntity
  8
Part
100
AcDbLine
 10
-23.906452184
 20
0.000000000
 30
17.369054205
 11
-23.906452184
 21
6.000000000
 31
17.369054205
  0
LINE
  5
DF1
330
A02
100
AcDbEntity
  8
Part
100
AcDbLine
 10
-23.643453526
 20
0.000000000
 30
15.913425318
 11
-23.643453526
 21
6.000000000
 31
15.913425318
  0
LINE
  5
DF2
330
A02
100
AcDbEntity
  8
Part
100
AcDbLine
 10
-23.906452184
 20
0.000000000
 30
17.369054205
 11
-23.643453526
 21
0.000000000
 31
15.913425318
  0
LINE
  5
DF3
330
A02
100
AcDbEntity
  8
Part
100
AcDbLine
 10
-23.906452184
 20
6.000000000
 30
17.369054205
 11
-23.643453526
 21
6.000000000
 31
15.913425318
  0
LINE
  5
DF4
330
A02
100
AcDbEntity
  8
Part
100
AcDbLine
 10
-16.279196350
 20
0.000000000
 30
-15.226190976
 11
-16.279196350
 21
6.000000000
 31
-15.226190976
  0
LINE
  5
DF5
330
A02
100
AcDbEntity
  8
Part
100
AcDbLine
 10
-16.542265295
 20
0.000000000
 30
-16.691418721
 11
-16.542265295
 21
6.000000000
 31
-16.691418721
  0
LINE
  5
DF6
330
A02
100
AcDbEntity
  8
Part
100
AcDbLine
 10
-16.279196350
 20
0.000000000
 30
-15.226190976
 11
-16.542265295
 21
0.000000000
 31
-16.691418721
  0
LINE
  5
DF7
330
A02
100
AcDbEntity
  8
Part
100
AcDbLine
 10
-16.279196350
 20
6.000000000
 30
-15.226190976
 11
-16.542265295
 21
6.000000000
 31
-16.691418721
  0
LINE
  5
DF8
330
A02
100
AcDbEntity
  8
Part
100
AcDbLine
 10
-23.643453526
 20
0.000000000
 30
15.913425318
 11
-23.643453526
 21
6.000000000
 31
15.913425318
  0
LINE
  5
DF9
330
A02
100
AcDbEntity
  8
Part
100
AcDbLine
 10
-21.015803496
 20
0.000000000
 30
13.603167133
 11
-21.015803496
 21
6.000000000
 31
13.603167133
  0
LINE
  5
DFA
330
A02
100
AcDbEntity
  8
Part
100
AcDbLine
 10
-23.643453526
 20
0.000000000
 30
15.913425318
 11
-21.015803496
 21
0.000000000
 31
13.603167133
  0
LINE
  5
DFB
330
A02
100
AcDbEntity
  8
Part
100
AcDbLine
 10
-23.643453526
 20
6.000000000
 30
15.913425318
 11
-21.015803496
 21
6.000000000
 31
13.603167133
  0
LINE
  5
DFC
330
A02
100
AcDbEntity
  8
Part
100
AcDbLine
 10
-15.984696620
 20
0.000000000
 30
-13.853356102
 11
-15.984696620
 21
6.000000000
 31
-13.853356102
  0
LINE
  5
DFD
330
A02
100
AcDbEntity
  8
Part
100
AcDbLine
 10
-16.279196350
 20
0.000000000
 30
-15.226190976
 11
-16.279196350
 21
6.000000000
 31
-15.226190976
  0
LINE
  5
DFE
330
A02
100
AcDbEntity
  8
Part
100
AcDbLine
 10
-15.984696620
 20
0.000000000
 30
-13.853356102
 11
-16.279196350
 21
0.000000000
 31
-15.226190976
  0
LINE
  5
DFF
330
A02
100
AcDbEntity
  8
Part
100
AcDbLine
 10
-15.984696620
 20
6.000000000
 30
-13.853356102
 11
-16.279196350
 21
6.000000000
 31
-15.226190976
  0
LINE
  5
E00
330
A02
100
AcDbEntity
  8
Part
100
AcDbLine
 10
-21.015803496
 20
0.000000000
 30
13.603167133
 11
-21.015803496
 21
6.000000000
 31
13.603167133
  0
LINE
  5
E01
330
A02
100
AcDbEntity
  8
Part
100
AcDbLine
 10
-19.045124326
 20
0.000000000
 30
11.847958506
 11
-19.045124326
 21
6.000000000
 31
11.847958506
  0
LINE
  5
E02
330
A02
100
AcDbEntity
  8
Part
100
AcDbLine
 10
-21.015803496
 20
0.000000000
 30
13.603167133
 11
-19.045124326
 21
0.000000000
 31
11.847958506
  0
LINE
  5
E03
330
A02
100
AcDbEntity
  8
Part
100
AcDbLine
 10
-21.015803496
 20
6.000000000
 30
13.603167133
 11
-19.045124326
 21
6.000000000
 31
11.847958506
  0
LINE
  5
E04
330
A02
100
AcDbEntity
  8
Part
100
AcDbLine
 10
-15.716644049
 20
0.000000000
 30
-12.610719326
 11
-15.716644049
 21
6.000000000
 31
-12.610719326
  0
LINE
  5
E05
330
A02
100
AcDbEntity
  8
Part
100
AcDbLine
 10
-15.984696620
 20
0.000000000
 30
-13.853356102
 11
-15.984696620
 21
6.000000000
 31
-13.853356102
  0
LINE
  5
E06
330
A02
100
AcDbEntity
  8
Part
100
AcDbLine
 10
-15.716644049
 20
0.000000000
 30
-12.610719326
 11
-15.984696620
 21
0.000000000
 31
-13.853356102
  0
LINE
  5
E07
330
A02
100
AcDbEntity
  8
Part
100
AcDbLine
 10
-15.716644049
 20
6.000000000
 30
-12.610719326
 11
-15.984696620
 21
6.000000000
 31
-13.853356102
  0
LINE
  5
E08
330
A02
100
AcDbEntity
  8
Part
100
AcDbLine
 10
-19.045124326
 20
0.000000000
 30
11.847958506
 11
-19.045124326
 21
6.000000000
 31
11.847958506
  0
LINE
  5
E09
330
A02
100
AcDbEntity
  8
Part
100
AcDbLine
 10
-17.652691647
 20
0.000000000
 30
10.546992270
 11
-17.652691647
 21
6.000000000
 31
10.546992270
  0
LINE
  5
E0A
330
A02
100
AcDbEntity
  8
Part
100
AcDbLine
 10
-19.045124326
 20
0.000000000
 30
11.847958506
 11
-17.652691647
 21
0.000000000
 31
10.546992270
  0
LINE
  5
E0B
330
A02
100
AcDbEntity
  8
Part
100
AcDbLine
 10
-19.045124326
 20
6.000000000
 30
11.847958506
 11
-17.652691647
 21
6.000000000
 31
10.546992270
  0
LINE
  5
E0C
330
A02
100
AcDbEntity
  8
Part
100
AcDbLine
 10
-15.525370162
 20
0.000000000
 30
-11.518149820
 11
-15.525370162
 21
6.000000000
 31
-11.518149820
  0
LINE
  5
E0D
330
A02
100
AcDbEntity
  8
Part
100
AcDbLine
 10
-15.716644049
 20
0.000000000
 30
-12.610719326
 11
-15.716644049
 21
6.000000000
 31
-12.610719326
  0
LINE
  5
E0E
330
A02
100
AcDbEntity
  8
Part
100
AcDbLine
 10
-15.525370162
 20
0.000000000
 30
-11.518149820
 11
-15.716644049
 21
0.000000000
 31
-12.610719326
  0
LINE
  5
E0F
330
A02
100
AcDbEntity
  8
Part
100
AcDbLine
 10
-15.525370162
 20
6.000000000
 30
-11.518149820
 11
-15.716644049
 21
6.000000000
 31
-12.610719326
  0
LINE
  5
E10
330
A02
100
AcDbEntity
  8
Part
100
AcDbLine
 10
-17.652691647
 20
0.000000000
 30
10.546992270
 11
-17.652691647
 21
6.000000000
 31
10.546992270
  0
LINE
  5
E11
330
A02
100
AcDbEntity
  8
Part
100
AcDbLine
 10
-16.753932138
 20
0.000000000
 30
9.606165424
 11
-16.753932138
 21
6.000000000
 31
9.606165424
  0
LINE
  5
E12
330
A02
100
AcDbEntity
  8
Part
100
AcDbLine
 10
-17.652691647
 20
0.000000000
 30
10.546992270
 11
-16.753932138
 21
0.000000000
 31
9.606165424
  0
LINE
  5
E13
330
A02
100
AcDbEntity
  8
Part
100
AcDbLine
 10
-17.652691647
 20
6.000000000
 30
10.546992270
 11
-16.753932138
 21
6.000000000
 31
9.606165424
  0
LINE
  5
E14
330
A02
100
AcDbEntity
  8
Part
100
AcDbLine
 10
-15.446402919
 20
0.000000000
 30
-10.576372813
 11
-15.446402919
 21
6.000000000
 31
-10.576372813
  0
LINE
  5
E15
330
A02
100
AcDbEntity
  8
Part
100
AcDbLine
 10
-15.525370162
 20
0.000000000
 30
-11.518149820
 11
-15.525370162
 21
6.000000000
 31
-11.518149820
  0
LINE
  5
E16
330
A02
100
AcDbEntity
  8
Part
100
AcDbLine
 10
-15.446402919
 20
0.000000000
 30
-10.576372813
 11
-15.525370162
 21
0.000000000
 31
-11.518149820
  0
LINE
  5
E17
330
A02
100
AcDbEntity
  8
Part
100
AcDbLine
 10
-15.446402919
 20
6.000000000
 30
-10.576372813
 11
-15.525370162
 21
6.000000000
 31
-11.518149820
  0
LINE
  5
E18
330
A02
100
AcDbEntity
  8
Part
100
AcDbLine
 10
-16.753932138
 20
0.000000000
 30
9.606165424
 11
-16.753932138
 21
6.000000000
 31
9.606165424
  0
LINE
  5
E19
330
A02
100
AcDbEntity
  8
Part
100
AcDbLine
 10
-16.258740834
 20
0.000000000
 30
8.938318412
 11
-16.258740834
 21
6.000000000
 31
8.938318412
  0
LINE
  5
E1A
330
A02
100
AcDbEntity
  8
Part
100
AcDbLine
 10
-16.753932138
 20
0.000000000
 30
9.606165424
 11
-16.258740834
 21
0.000000000
 31
8.938318412
  0
LINE
  5
E1B
330
A02
100
AcDbEntity
  8
Part
100
AcDbLine
 10
-16.753932138
 20
6.000000000
 30
9.606165424
 11
-16.258740834
 21
6.000000000
 31
8.938318412
  0
LINE
  5
E1C
330
A02
100
AcDbEntity
  8
Part
100
AcDbLine
 10
-15.495002287
 20
0.000000000
 30
-9.768518102
 11
-15.495002287
 21
6.000000000
 31
-9.768518102
  0
LINE
  5
E1D
330
A02
100
AcDbEntity
  8
Part
100
AcDbLine
 10
-15.446402919
 20
0.000000000
 30
-10.576372813
 11
-15.446402919
 21
6.000000000
 31
-10.576372813
  0
LINE
  5
E1E
330
A02
100
AcDbEntity
  8
Part
100
AcDbLine
 10
-15.495002287
 20
0.000000000
 30
-9.768518102
 11
-15.446402919
 21
0.000000000
 31
-10.576372813
  0
LINE
  5
E1F
330
A02
100
AcDbEntity
  8
Part
100
AcDbLine
 10
-15.495002287
 20
6.000000000
 30
-9.768518102
 11
-15.446402919
 21
6.000000000
 31
-10.576372813
  0
LINE
  5
E20
330
A02
100
AcDbEntity
  8
Part
100
AcDbLine
 10
-16.258740834
 20
0.000000000
 30
8.938318412
 11
-16.258740834
 21
6.000000000
 31
8.938318412
  0
LINE
  5
E21
330
A02
100
AcDbEntity
  8
Part
100
AcDbLine
 10
-16.071806555
 20
0.000000000
 30
8.463462681
 11
-16.071806555
 21
6.000000000
 31
8.463462681
  0
LINE
  5
E22
330
A02
100
AcDbEntity
  8
Part
100
AcDbLine
 10
-16.258740834
 20
0.000000000
 30
8.938318412
 11
-16.071806555
 21
0.000000000
 31
8.463462681
  0
LINE
  5
E23
330
A02
100
AcDbEntity
  8
Part
100
AcDbLine
 10
-16.258740834
 20
6.000000000
 30
8.938318412
 11
-16.071806555
 21
6.000000000
 31
8.463462681
  0
LINE
  5
E24
330
A02
100
AcDbEntity
  8
Part
100
AcDbLine
 10
-15.663335371
 20
0.000000000
 30
-9.064071606
 11
-15.663335371
 21
6.000000000
 31
-9.064071606
  0
LINE
  5
E25
330
A02
100
AcDbEntity
  8
Part
100
AcDbLine
 10
-15.495002287
 20
0.000000000
 30
-9.768518102
 11
-15.495002287
 21
6.000000000
 31
-9.768518102
  0
LINE
  5
E26
330
A02
100
AcDbEntity
  8
Part
100
AcDbLine
 10
-15.663335371
 20
0.000000000
 30
-9.064071606
 11
-15.495002287
 21
0.000000000
 31
-9.768518102
  0
LINE
  5
E27
330
A02
100
AcDbEntity
  8
Part
100
AcDbLine
 10
-15.663335371
 20
6.000000000
 30
-9.064071606
 11
-15.495002287
 21
6.000000000
 31
-9.768518102
  0
LINE
  5
E28
330
A02
100
AcDbEntity
  8
Part
100
AcDbLine
 10
-16.071806555
 20
0.000000000
 30
8.463462681
 11
-16.071806555
 21
6.000000000
 31
8.463462681
  0
LINE
  5
E29
330
A02
100
AcDbEntity
  8
Part
100
AcDbLine
 10
-16.092945070
 20
0.000000000
 30
8.108996287
 11
-16.092945070
 21
6.000000000
 31
8.108996287
  0
LINE
  5
E2A
330
A02
100
AcDbEntity
  8
Part
100
AcDbLine
 10
-16.071806555
 20
0.000000000
 30
8.463462681
 11
-16.092945070
 21
0.000000000
 31
8.108996287
  0
LINE
  5
E2B
330
A02
100
AcDbEntity
  8
Part
100
AcDbLine
 10
-16.071806555
 20
6.000000000
 30
8.463462681
 11
-16.092945070
 21
6.000000000
 31
8.108996287
  0
LINE
  5
E2C
330
A02
100
AcDbEntity
  8
Part
100
AcDbLine
 10
-15.920783555
 20
0.000000000
 30
-8.424539237
 11
-15.920783555
 21
6.000000000
 31
-8.424539237
  0
LINE
  5
E2D
330
A02
100
AcDbEntity
  8
Part
100
AcDbLine
 10
-15.663335371
 20
0.000000000
 30
-9.064071606
 11
-15.663335371
 21
6.000000000
 31
-9.064071606
  0
LINE
  5
E2E
330
A02
100
AcDbEntity
  8
Part
100
AcDbLine
 10
-15.920783555
 20
0.000000000
 30
-8.424539237
 11
-15.663335371
 21
0.000000000
 31
-9.064071606
  0
LINE
  5
E2F
330
A02
100
AcDbEntity
  8
Part
100
AcDbLine
 10
-15.920783555
 20
6.000000000
 30
-8.424539237
 11
-15.663335371
 21
6.000000000
 31
-9.064071606
  0
LINE
  5
E30
330
A02
100
AcDbEntity
  8
Part
100
AcDbLine
 10
-16.092945070
 20
0.000000000
 30
8.108996287
 11
-16.092945070
 21
6.000000000
 31
8.108996287
  0
LINE
  5
E31
330
A02
100
AcDbEntity
  8
Part
100
AcDbLine
 10
-16.217439622
 20
0.000000000
 30
7.809907304
 11
-16.217439622
 21
6.000000000
 31
7.809907304
  0
LINE
  5
E32
330
A02
100
AcDbEntity
  8
Part
100
AcDbLine
 10
-16.092945070
 20
0.000000000
 30
8.108996287
 11
-16.217439622
 21
0.000000000
 31
7.809907304
  0
LINE
  5
E33
330
A02
100
AcDbEntity
  8
Part
100
AcDbLine
 10
-16.092945070
 20
6.000000000
 30
8.108996287
 11
-16.217439622
 21
6.000000000
 31
7.809907304
  0
LINE
  5
E34
330
A02
100
AcDbEntity
  8
Part
100
AcDbLine
 10
-16.217439622
 20
0.000000000
 30
-7.809907304
 11
-16.217439622
 21
6.000000000
 31
-7.809907304
  0
LINE
  5
E35
330
A02
100
AcDbEntity
  8
Part
100
AcDbLine
 10
-15.920783555
 20
0.000000000
 30
-8.424539237
 11
-15.920783555
 21
6.000000000
 31
-8.424539237
  0
LINE
  5
E36
330
A02
100
AcDbEntity
  8
Part
100
AcDbLine
 10
-16.217439622
 20
0.000000000
 30
-7.809907304
 11
-15.920783555
 21
0.000000000
 31
-8.424539237
  0
LINE
  5
E37
330
A02
100
AcDbEntity
  8
Part
100
AcDbLine
 10
-16.217439622
 20
6.000000000
 30
-7.809907304
 11
-15.920783555
 21
6.000000000
 31
-8.424539237
  0
LINE
  5
E38
330
A02
100
AcDbEntity
  8
Part
100
AcDbLine
 10
-16.217439622
 20
0.000000000
 30
7.809907304
 11
-16.217439622
 21
6.000000000
 31
7.809907304
  0
LINE
  5
E39
330
A02
100
AcDbEntity
  8
Part
100
AcDbLine
 10
-16.513016185
 20
0.000000000
 30
7.194755509
 11
-16.513016185
 21
6.000000000
 31
7.194755509
  0
LINE
  5
E3A
330
A02
100
AcDbEntity
  8
Part
100
AcDbLine
 10
-16.217439622
 20
0.000000000
 30
7.809907304
 11
-16.513016185
 21
0.000000000
 31
7.194755509
  0
LINE
  5
E3B
330
A02
100
AcDbEntity
  8
Part
100
AcDbLine
 10
-16.217439622
 20
6.000000000
 30
7.809907304
 11
-16.513016185
 21
6.000000000
 31
7.194755509
  0
LINE
  5
E3C
330
A02
100
AcDbEntity
  8
Part
100
AcDbLine
 10
-16.373655722
 20
0.000000000
 30
-7.526094613
 11
-16.373655722
 21
6.000000000
 31
-7.526094613
  0
LINE
  5
E3D
330
A02
100
AcDbEntity
  8
Part
100
AcDbLine
 10
-16.217439622
 20
0.000000000
 30
-7.809907304
 11
-16.217439622
 21
6.000000000
 31
-7.809907304
  0
LINE
  5
E3E
330
A02
100
AcDbEntity
  8
Part
100
AcDbLine
 10
-16.373655722
 20
0.000000000
 30
-7.526094613
 11
-16.217439622
 21
0.000000000
 31
-7.809907304
  0
LINE
  5
E3F
330
A02
100
AcDbEntity
  8
Part
100
AcDbLine
 10
-16.373655722
 20
6.000000000
 30
-7.526094613
 11
-16.217439622
 21
6.000000000
 31
-7.809907304
  0
LINE
  5
E40
330
A02
100
AcDbEntity
  8
Part
100
AcDbLine
 10
-16.513016185
 20
0.000000000
 30
7.194755509
 11
-16.513016185
 21
6.000000000
 31
7.194755509
  0
LINE
  5
E41
330
A02
100
AcDbEntity
  8
Part
100
AcDbLine
 10
-16.852506408
 20
0.000000000
 30
6.594732503
 11
-16.852506408
 21
6.000000000
 31
6.594732503
  0
LINE
  5
E42
330
A02
100
AcDbEntity
  8
Part
100
AcDbLine
 10
-16.513016185
 20
0.000000000
 30
7.194755509
 11
-16.852506408
 21
0.000000000
 31
6.594732503
  0
LINE
  5
E43
330
A02
100
AcDbEntity
  8
Part
100
AcDbLine
 10
-16.513016185
 20
6.000000000
 30
7.194755509
 11
-16.852506408
 21
6.000000000
 31
6.594732503
  0
LINE
  5
E44
330
A02
100
AcDbEntity
  8
Part
100
AcDbLine
 10
-16.637609060
 20
0.000000000
 30
-7.288561675
 11
-16.637609060
 21
6.000000000
 31
-7.288561675
  0
LINE
  5
E45
330
A02
100
AcDbEntity
  8
Part
100
AcDbLine
 10
-16.373655722
 20
0.000000000
 30
-7.526094613
 11
-16.373655722
 21
6.000000000
 31
-7.526094613
  0
LINE
  5
E46
330
A02
100
AcDbEntity
  8
Part
100
AcDbLine
 10
-16.637609060
 20
0.000000000
 30
-7.288561675
 11
-16.373655722
 21
0.000000000
 31
-7.526094613
  0
LINE
  5
E47
330
A02
100
AcDbEntity
  8
Part
100
AcDbLine
 10
-16.637609060
 20
6.000000000
 30
-7.288561675
 11
-16.373655722
 21
6.000000000
 31
-7.526094613
  0
LINE
  5
E48
330
A02
100
AcDbEntity
  8
Part
100
AcDbLine
 10
-16.852506408
 20
0.000000000
 30
6.594732503
 11
-16.852506408
 21
6.000000000
 31
6.594732503
  0
LINE
  5
E49
330
A02
100
AcDbEntity
  8
Part
100
AcDbLine
 10
-17.298310895
 20
0.000000000
 30
6.023909193
 11
-17.298310895
 21
6.000000000
 31
6.023909193
  0
LINE
  5
E4A
330
A02
100
AcDbEntity
  8
Part
100
AcDbLine
 10
-16.852506408
 20
0.000000000
 30
6.594732503
 11
-17.298310895
 21
0.000000000
 31
6.023909193
  0
LINE
  5
E4B
330
A02
100
AcDbEntity
  8
Part
100
AcDbLine
 10
-16.852506408
 20
6.000000000
 30
6.594732503
 11
-17.298310895
 21
6.000000000
 31
6.023909193
  0
LINE
  5
E4C
330
A02
100
AcDbEntity
  8
Part
100
AcDbLine
 10
-17.125417836
 20
0.000000000
 30
-7.138645074
 11
-17.125417836
 21
6.000000000
 31
-7.138645074
  0
LINE
  5
E4D
330
A02
100
AcDbEntity
  8
Part
100
AcDbLine
 10
-16.637609060
 20
0.000000000
 30
-7.288561675
 11
-16.637609060
 21
6.000000000
 31
-7.288561675
  0
LINE
  5
E4E
330
A02
100
AcDbEntity
  8
Part
100
AcDbLine
 10
-17.125417836
 20
0.000000000
 30
-7.138645074
 11
-16.637609060
 21
0.000000000
 31
-7.288561675
  0
LINE
  5
E4F
330
A02
100
AcDbEntity
  8
Part
100
AcDbLine
 10
-17.125417836
 20
6.000000000
 30
-7.138645074
 11
-16.637609060
 21
6.000000000
 31
-7.288561675
  0
LINE
  5
E50
330
A02
100
AcDbEntity
  8
Part
100
AcDbLine
 10
-17.298310895
 20
0.000000000
 30
6.023909193
 11
-17.298310895
 21
6.000000000
 31
6.023909193
  0
LINE
  5
E51
330
A02
100
AcDbEntity
  8
Part
100
AcDbLine
 10
-17.899615931
 20
0.000000000
 30
5.482223503
 11
-17.899615931
 21
6.000000000
 31
5.482223503
  0
LINE
  5
E52
330
A02
100
AcDbEntity
  8
Part
100
AcDbLine
 10
-17.298310895
 20
0.000000000
 30
6.023909193
 11
-17.899615931
 21
0.000000000
 31
5.482223503
  0
LINE
  5
E53
330
A02
100
AcDbEntity
  8
Part
100
AcDbLine
 10
-17.298310895
 20
6.000000000
 30
6.023909193
 11
-17.899615931
 21
6.000000000
 31
5.482223503
  0
LINE
  5
E54
330
A02
100
AcDbEntity
  8
Part
100
AcDbLine
 10
-17.956308384
 20
0.000000000
 30
-7.109405424
 11
-17.956308384
 21
6.000000000
 31
-7.109405424
  0
LINE
  5
E55
330
A02
100
AcDbEntity
  8
Part
100
AcDbLine
 10
-17.125417836
 20
0.000000000
 30
-7.138645074
 11
-17.125417836
 21
6.000000000
 31
-7.138645074
  0
LINE
  5
E56
330
A02
100
AcDbEntity
  8
Part
100
AcDbLine
 10
-17.956308384
 20
0.000000000
 30
-7.109405424
 11
-17.125417836
 21
0.000000000
 31
-7.138645074
  0
LINE
  5
E57
330
A02
100
AcDbEntity
  8
Part
100
AcDbLine
 10
-17.956308384
 20
6.000000000
 30
-7.109405424
 11
-17.125417836
 21
6.000000000
 31
-7.138645074
  0
LINE
  5
E58
330
A02
100
AcDbEntity
  8
Part
100
AcDbLine
 10
-17.899615931
 20
0.000000000
 30
5.482223503
 11
-17.899615931
 21
6.000000000
 31
5.482223503
  0
LINE
  5
E59
330
A02
100
AcDbEntity
  8
Part
100
AcDbLine
 10
-18.685162115
 20
0.000000000
 30
4.956774220
 11
-18.685162115
 21
6.000000000
 31
4.956774220
  0
LINE
  5
E5A
330
A02
100
AcDbEntity
  8
Part
100
AcDbLine
 10
-17.899615931
 20
0.000000000
 30
5.482223503
 11
-18.685162115
 21
0.000000000
 31
4.956774220
  0
LINE
  5
E5B
330
A02
100
AcDbEntity
  8
Part
100
AcDbLine
 10
-17.899615931
 20
6.000000000
 30
5.482223503
 11
-18.685162115
 21
6.000000000
 31
4.956774220
  0
LINE
  5
E5C
330
A02
100
AcDbEntity
  8
Part
100
AcDbLine
 10
-19.252243819
 20
0.000000000
 30
-7.225487960
 11
-19.252243819
 21
6.000000000
 31
-7.225487960
  0
LINE
  5
E5D
330
A02
100
AcDbEntity
  8
Part
100
AcDbLine
 10
-17.956308384
 20
0.000000000
 30
-7.109405424
 11
-17.956308384
 21
6.000000000
 31
-7.109405424
  0
LINE
  5
E5E
330
A02
100
AcDbEntity
  8
Part
100
AcDbLine
 10
-19.252243819
 20
0.000000000
 30
-7.225487960
 11
-17.956308384
 21
0.000000000
 31
-7.109405424
  0
LINE
  5
E5F
330
A02
100
AcDbEntity
  8
Part
100
AcDbLine
 10
-19.252243819
 20
6.000000000
 30
-7.225487960
 11
-17.956308384
 21
6.000000000
 31
-7.109405424
  0
LINE
  5
E60
330
A02
100
AcDbEntity
  8
Part
100
AcDbLine
 10
-18.685162115
 20
0.000000000
 30
4.956774220
 11
-18.685162115
 21
6.000000000
 31
4.956774220
  0
LINE
  5
E61
330
A02
100
AcDbEntity
  8
Part
100
AcDbLine
 10
-19.658624670
 20
0.000000000
 30
4.425112223
 11
-19.658624670
 21
6.000000000
 31
4.425112223
  0
LINE
  5
E62
330
A02
100
AcDbEntity
  8
Part
100
AcDbLine
 10
-18.685162115
 20
0.000000000
 30
4.956774220
 11
-19.658624670
 21
0.000000000
 31
4.425112223
  0
LINE
  5
E63
330
A02
100
AcDbEntity
  8
Part
100
AcDbLine
 10
-18.685162115
 20
6.000000000
 30
4.956774220
 11
-19.658624670
 21
6.000000000
 31
4.425112223
  0
LINE
  5
E64
330
A02
100
AcDbEntity
  8
Part
100
AcDbLine
 10
-21.137547755
 20
0.000000000
 30
-7.502996484
 11
-21.137547755
 21
6.000000000
 31
-7.502996484
  0
LINE
  5
E65
330
A02
100
AcDbEntity
  8
Part
100
AcDbLine
 10
-19.252243819
 20
0.000000000
 30
-7.225487960
 11
-19.252243819
 21
6.000000000
 31
-7.225487960
  0
LINE
  5
E66
330
A02
100
AcDbEntity
  8
Part
100
AcDbLine
 10
-21.137547755
 20
0.000000000
 30
-7.502996484
 11
-19.252243819
 21
0.000000000
 31
-7.225487960
  0
LINE
  5
E67
330
A02
100
AcDbEntity
  8
Part
100
AcDbLine
 10
-21.137547755
 20
6.000000000
 30
-7.502996484
 11
-19.252243819
 21
6.000000000
 31
-7.225487960
  0
LINE
  5
E68
330
A02
100
AcDbEntity
  8
Part
100
AcDbLine
 10
-19.658624670
 20
0.000000000
 30
4.425112223
 11
-19.658624670
 21
6.000000000
 31
4.425112223
  0
LINE
  5
E69
330
A02
100
AcDbEntity
  8
Part
100
AcDbLine
 10
-20.797285267
 20
0.000000000
 30
3.859912804
 11
-20.797285267
 21
6.000000000
 31
3.859912804
  0
LINE
  5
E6A
330
A02
100
AcDbEntity
  8
Part
100
AcDbLine
 10
-19.658624670
 20
0.000000000
 30
4.425112223
 11
-20.797285267
 21
0.000000000
 31
3.859912804
  0
LINE
  5
E6B
330
A02
100
AcDbEntity
  8
Part
100
AcDbLine
 10
-19.658624670
 20
6.000000000
 30
4.425112223
 11
-20.797285267
 21
6.000000000
 31
3.859912804
  0
LINE
  5
E6C
330
A02
100
AcDbEntity
  8
Part
100
AcDbLine
 10
-23.738523483
 20
0.000000000
 30
-7.949380823
 11
-23.738523483
 21
6.000000000
 31
-7.949380823
  0
LINE
  5
E6D
330
A02
100
AcDbEntity
  8
Part
100
AcDbLine
 10
-21.137547755
 20
0.000000000
 30
-7.502996484
 11
-21.137547755
 21
6.000000000
 31
-7.502996484
  0
LINE
  5
E6E
330
A02
100
AcDbEntity
  8
Part
100
AcDbLine
 10
-23.738523483
 20
0.000000000
 30
-7.949380823
 11
-21.137547755
 21
0.000000000
 31
-7.502996484
  0
LINE
  5
E6F
330
A02
100
AcDbEntity
  8
Part
100
AcDbLine
 10
-23.738523483
 20
6.000000000
 30
-7.949380823
 11
-21.137547755
 21
6.000000000
 31
-7.502996484
  0
LINE
  5
E70
330
A02
100
AcDbEntity
  8
Part
100
AcDbLine
 10
-20.797285267
 20
0.000000000
 30
3.859912804
 11
-20.797285267
 21
6.000000000
 31
3.859912804
  0
LINE
  5
E71
330
A02
100
AcDbEntity
  8
Part
100
AcDbLine
 10
-22.054228370
 20
0.000000000
 30
3.234213421
 11
-22.054228370
 21
6.000000000
 31
3.234213421
  0
LINE
  5
E72
330
A02
100
AcDbEntity
  8
Part
100
AcDbLine
 10
-20.797285267
 20
0.000000000
 30
3.859912804
 11
-22.054228370
 21
0.000000000
 31
3.234213421
  0
LINE
  5
E73
330
A02
100
AcDbEntity
  8
Part
100
AcDbLine
 10
-20.797285267
 20
6.000000000
 30
3.859912804
 11
-22.054228370
 21
6.000000000
 31
3.234213421
  0
LINE
  5
E74
330
A02
100
AcDbEntity
  8
Part
100
AcDbLine
 10
-27.183069062
 20
0.000000000
 30
-8.563337923
 11
-27.183069062
 21
6.000000000
 31
-8.563337923
  0
LINE
  5
E75
330
A02
100
AcDbEntity
  8
Part
100
AcDbLine
 10
-23.738523483
 20
0.000000000
 30
-7.949380823
 11
-23.738523483
 21
6.000000000
 31
-7.949380823
  0
LINE
  5
E76
330
A02
100
AcDbEntity
  8
Part
100
AcDbLine
 10
-27.183069062
 20
0.000000000
 30
-8.563337923
 11
-23.738523483
 21
0.000000000
 31
-7.949380823
  0
LINE
  5
E77
330
A02
100
AcDbEntity
  8
Part
100
AcDbLine
 10
-27.183069062
 20
6.000000000
 30
-8.563337923
 11
-23.738523483
 21
6.000000000
 31
-7.949380823
  0
LINE
  5
E78
330
A02
100
AcDbEntity
  8
Part
100
AcDbLine
 10
-22.054228370
 20
0.000000000
 30
3.234213421
 11
-22.054228370
 21
6.000000000
 31
3.234213421
  0
LINE
  5
E79
330
A02
100
AcDbEntity
  8
Part
100
AcDbLine
 10
-23.363810354
 20
0.000000000
 30
2.526334447
 11
-23.363810354
 21
6.000000000
 31
2.526334447
  0
LINE
  5
E7A
330
A02
100
AcDbEntity
  8
Part
100
AcDbLine
 10
-22.054228370
 20
0.000000000
 30
3.234213421
 11
-23.363810354
 21
0.000000000
 31
2.526334447
  0
LINE
  5
E7B
330
A02
100
AcDbEntity
  8
Part
100
AcDbLine
 10
-22.054228370
 20
6.000000000
 30
3.234213421
 11
-23.363810354
 21
6.000000000
 31
2.526334447
  0
LINE
  5
E7C
330
A02
100
AcDbEntity
  8
Part
100
AcDbLine
 10
-28.485102534
 20
0.000000000
 30
-7.861388786
 11
-28.485102534
 21
6.000000000
 31
-7.861388786
  0
LINE
  5
E7D
330
A02
100
AcDbEntity
  8
Part
100
AcDbLine
 10
-27.183069062
 20
0.000000000
 30
-8.563337923
 11
-27.183069062
 21
6.000000000
 31
-8.563337923
  0
LINE
  5
E7E
330
A02
100
AcDbEntity
  8
Part
100
AcDbLine
 10
-28.485102534
 20
0.000000000
 30
-7.861388786
 11
-27.183069062
 21
0.000000000
 31
-8.563337923
  0
LINE
  5
E7F
330
A02
100
AcDbEntity
  8
Part
100
AcDbLine
 10
-28.485102534
 20
6.000000000
 30
-7.861388786
 11
-27.183069062
 21
6.000000000
 31
-8.563337923
  0
LINE
  5
E80
330
A02
100
AcDbEntity
  8
Part
100
AcDbLine
 10
-23.363810354
 20
0.000000000
 30
2.526334447
 11
-23.363810354
 21
6.000000000
 31
2.526334447
  0
LINE
  5
E81
330
A02
100
AcDbEntity
  8
Part
100
AcDbLine
 10
-24.649695229
 20
0.000000000
 30
1.723674603
 11
-24.649695229
 21
6.000000000
 31
1.723674603
  0
LINE
  5
E82
330
A02
100
AcDbEntity
  8
Part
100
AcDbLine
 10
-23.363810354
 20
0.000000000
 30
2.526334447
 11
-24.649695229
 21
0.000000000
 31
1.723674603
  0
LINE
  5
E83
330
A02
100
AcDbEntity
  8
Part
100
AcDbLine
 10
-23.363810354
 20
6.000000000
 30
2.526334447
 11
-24.649695229
 21
6.000000000
 31
1.723674603
  0
LINE
  5
E84
330
A02
100
AcDbEntity
  8
Part
100
AcDbLine
 10
-28.213848336
 20
0.000000000
 30
-6.706620763
 11
-28.213848336
 21
6.000000000
 31
-6.706620763
  0
LINE
  5
E85
330
A02
100
AcDbEntity
  8
Part
100
AcDbLine
 10
-28.485102534
 20
0.000000000
 30
-7.861388786
 11
-28.485102534
 21
6.000000000
 31
-7.861388786
  0
LINE
  5
E86
330
A02
100
AcDbEntity
  8
Part
100
AcDbLine
 10
-28.213848336
 20
0.000000000
 30
-6.706620763
 11
-28.485102534
 21
0.000000000
 31
-7.861388786
  0
LINE
  5
E87
330
A02
100
AcDbEntity
  8
Part
100
AcDbLine
 10
-28.213848336
 20
6.000000000
 30
-6.706620763
 11
-28.485102534
 21
6.000000000
 31
-7.861388786
  0
LINE
  5
E88
330
A02
100
AcDbEntity
  8
Part
100
AcDbLine
 10
-24.649695229
 20
0.000000000
 30
1.723674603
 11
-24.649695229
 21
6.000000000
 31
1.723674603
  0
LINE
  5
E89
330
A02
100
AcDbEntity
  8
Part
100
AcDbLine
 10
-25.834391021
 20
0.000000000
 30
0.824774091
 11
-25.834391021
 21
6.000000000
 31
0.824774091
  0
LINE
  5
E8A
330
A02
100
AcDbEntity
  8
Part
100
AcDbLine
 10
-24.649695229
 20
0.000000000
 30
1.723674603
 11
-25.834391021
 21
0.000000000
 31
0.824774091
  0
LINE
  5
E8B
330
A02
100
AcDbEntity
  8
Part
100
AcDbLine
 10
-24.649695229
 20
6.000000000
 30
1.723674603
 11
-25.834391021
 21
6.000000000
 31
0.824774091
  0
LINE
  5
E8C
330
A02
100
AcDbEntity
  8
Part
100
AcDbLine
 10
-28.435599472
 20
0.000000000
 30
-5.630400314
 11
-28.435599472
 21
6.000000000
 31
-5.630400314
  0
LINE
  5
E8D
330
A02
100
AcDbEntity
  8
Part
100
AcDbLine
 10
-28.213848336
 20
0.000000000
 30
-6.706620763
 11
-28.213848336
 21
6.000000000
 31
-6.706620763
  0
LINE
  5
E8E
330
A02
100
AcDbEntity
  8
Part
100
AcDbLine
 10
-28.435599472
 20
0.000000000
 30
-5.630400314
 11
-28.213848336
 21
0.000000000
 31
-6.706620763
  0
LINE
  5
E8F
330
A02
100
AcDbEntity
  8
Part
100
AcDbLine
 10
-28.435599472
 20
6.000000000
 30
-5.630400314
 11
-28.213848336
 21
6.000000000
 31
-6.706620763
  0
LINE
  5
E90
330
A02
100
AcDbEntity
  8
Part
100
AcDbLine
 10
-25.834391021
 20
0.000000000
 30
0.824774091
 11
-25.834391021
 21
6.000000000
 31
0.824774091
  0
LINE
  5
E91
330
A02
100
AcDbEntity
  8
Part
100
AcDbLine
 10
-26.849007083
 20
0.000000000
 30
-0.160666000
 11
-26.849007083
 21
6.000000000
 31
-0.160666000
  0
LINE
  5
E92
330
A02
100
AcDbEntity
  8
Part
100
AcDbLine
 10
-25.834391021
 20
0.000000000
 30
0.824774091
 11
-26.849007083
 21
0.000000000
 31
-0.160666000
  0
LINE
  5
E93
330
A02
100
AcDbEntity
  8
Part
100
AcDbLine
 10
-25.834391021
 20
6.000000000
 30
0.824774091
 11
-26.849007083
 21
6.000000000
 31
-0.160666000
  0
LINE
  5
E94
330
A02
100
AcDbEntity
  8
Part
100
AcDbLine
 10
-28.545005389
 20
0.000000000
 30
-4.535677345
 11
-28.545005389
 21
6.000000000
 31
-4.535677345
  0
LINE
  5
E95
330
A02
100
AcDbEntity
  8
Part
100
AcDbLine
 10
-28.435599472
 20
0.000000000
 30
-5.630400314
 11
-28.435599472
 21
6.000000000
 31
-5.630400314
  0
LINE
  5
E96
330
A02
100
AcDbEntity
  8
Part
100
AcDbLine
 10
-28.545005389
 20
0.000000000
 30
-4.535677345
 11
-28.435599472
 21
0.000000000
 31
-5.630400314
  0
LINE
  5
E97
330
A02
100
AcDbEntity
  8
Part
100
AcDbLine
 10
-28.545005389
 20
6.000000000
 30
-4.535677345
 11
-28.435599472
 21
6.000000000
 31
-5.630400314
  0
LINE
  5
E98
330
A02
100
AcDbEntity
  8
Part
100
AcDbLine
 10
-26.849007083
 20
0.000000000
 30
-0.160666000
 11
-26.849007083
 21
6.000000000
 31
-0.160666000
  0
LINE
  5
E99
330
A02
100
AcDbEntity
  8
Part
100
AcDbLine
 10
-27.641915580
 20
0.000000000
 30
-1.213777346
 11
-27.641915580
 21
6.000000000
 31
-1.213777346
  0
LINE
  5
E9A
330
A02
100
AcDbEntity
  8
Part
100
AcDbLine
 10
-26.849007083
 20
0.000000000
 30
-0.160666000
 11
-27.641915580
 21
0.000000000
 31
-1.213777346
  0
LINE
  5
E9B
330
A02
100
AcDbEntity
  8
Part
100
AcDbLine
 10
-26.849007083
 20
6.000000000
 30
-0.160666000
 11
-27.641915580
 21
6.000000000
 31
-1.213777346
  0
LINE
  5
E9C
330
A02
100
AcDbEntity
  8
Part
100
AcDbLine
 10
-28.477650797
 20
0.000000000
 30
-3.424563186
 11
-28.477650797
 21
6.000000000
 31
-3.424563186
  0
LINE
  5
E9D
330
A02
100
AcDbEntity
  8
Part
100
AcDbLine
 10
-28.545005389
 20
0.000000000
 30
-4.535677345
 11
-28.545005389
 21
6.000000000
 31
-4.535677345
  0
LINE
  5
E9E
330
A02
100
AcDbEntity
  8
Part
100
AcDbLine
 10
-28.477650797
 20
0.000000000
 30
-3.424563186
 11
-28.545005389
 21
0.000000000
 31
-4.535677345
  0
LINE
  5
E9F
330
A02
100
AcDbEntity
  8
Part
100
AcDbLine
 10
-28.477650797
 20
6.000000000
 30
-3.424563186
 11
-28.545005389
 21
6.000000000
 31
-4.535677345
  0
LINE
  5
EA0
330
A02
100
AcDbEntity
  8
Part
100
AcDbLine
 10
-27.641915580
 20
0.000000000
 30
-1.213777346
 11
-27.641915580
 21
6.000000000
 31
-1.213777346
  0
LINE
  5
EA1
330
A02
100
AcDbEntity
  8
Part
100
AcDbLine
 10
-28.185146106
 20
0.000000000
 30
-2.310165986
 11
-28.185146106
 21
6.000000000
 31
-2.310165986
  0
LINE
  5
EA2
330
A02
100
AcDbEntity
  8
Part
100
AcDbLine
 10
-27.641915580
 20
0.000000000
 30
-1.213777346
 11
-28.185146106
 21
0.000000000
 31
-2.310165986
  0
LINE
  5
EA3
330
A02
100
AcDbEntity
  8
Part
100
AcDbLine
 10
-27.641915580
 20
6.000000000
 30
-1.213777346
 11
-28.185146106
 21
6.000000000
 31
-2.310165986
  0
LINE
  5
EA4
330
A02
100
AcDbEntity
  8
Part
100
AcDbLine
 10
-28.185146106
 20
0.000000000
 30
-2.310165986
 11
-28.185146106
 21
6.000000000
 31
-2.310165986
  0
LINE
  5
EA5
330
A02
100
AcDbEntity
  8
Part
100
AcDbLine
 10
-28.477650797
 20
0.000000000
 30
-3.424563186
 11
-28.477650797
 21
6.000000000
 31
-3.424563186
  0
LINE
  5
EA6
330
A02
100
AcDbEntity
  8
Part
100
AcDbLine
 10
-28.185146106
 20
0.000000000
 30
-2.310165986
 11
-28.477650797
 21
0.000000000
 31
-3.424563186
  0
LINE
  5
EA7
330
A02
100
AcDbEntity
  8
Part
100
AcDbLine
 10
-28.185146106
 20
6.000000000
 30
-2.310165986
 11
-28.477650797
 21
6.000000000
 31
-3.424563186
  0
ARC
  5
EA8
330
A02
100
AcDbEntity
  8
Part
100
AcDbCircle
 10
0.000000000
 20
6.000000000
 30
0.000000000
 40
3.100000000
100
AcDbArc
 50
180.000000000
 51
0.000000000
  0
LINE
  5
EA9
330
A02
100
AcDbEntity
  8
Part
100
AcDbLine
 10
-3.100000000
 20
0.000000000
 30
9.612491873
 11
-3.100000000
 21
6.000000000
 31
9.612491873
  0
ARC
  5
EAA
330
A02
100
AcDbEntity
  8
Part
100
AcDbCircle
 10
0.000000000
 20
0.000000000
 30
0.000000000
 40
3.100000000
100
AcDbArc
 50
180.000000000
 51
0.000000000
  0
LINE
  5
EAB
330
A02
100
AcDbEntity
  8
Part
100
AcDbLine
 10
3.100000000
 20
0.000000000
 30
9.612491873
 11
3.100000000
 21
6.000000000
 31
9.612491873
  0
LINE
  5
EAC
330
A02
100
AcDbEntity
  8
Part
100
AcDbLine
 10
3.100000000
 20
0.000000000
 30
9.612491873
 11
3.100000000
 21
0.000000000
 31
13.000000000
  0
LINE
  5
EAD
330
A02
100
AcDbEntity
  8
Part
100
AcDbLine
 10
3.100000000
 20
0.000000000
 30
13.000000000
 11
3.100000000
 21
6.000000000
 31
13.000000000
  0
LINE
  5
EAE
330
A02
100
AcDbEntity
  8
Part
100
AcDbLine
 10
3.100000000
 20
6.000000000
 30
9.612491873
 11
3.100000000
 21
6.000000000
 31
13.000000000
  0
LINE
  5
EAF
330
A02
100
AcDbEntity
  8
Part
100
AcDbLine
 10
3.100000000
 20
0.000000000
 30
9.612491873
 11
3.100000000
 21
6.000000000
 31
9.612491873
  0
LINE
  5
EB0
330
A02
100
AcDbEntity
  8
Part
100
AcDbLine
 10
-3.100000000
 20
0.000000000
 30
13.000000000
 11
-3.100000000
 21
6.000000000
 31
13.000000000
  0
LINE
  5
EB1
330
A02
100
AcDbEntity
  8
Part
100
AcDbLine
 10
-3.100000000
 20
6.000000000
 30
13.000000000
 11
3.100000000
 21
6.000000000
 31
13.000000000
  0
LINE
  5
EB2
330
A02
100
AcDbEntity
  8
Part
100
AcDbLine
 10
3.100000000
 20
0.000000000
 30
13.000000000
 11
3.100000000
 21
6.000000000
 31
13.000000000
  0
LINE
  5
EB3
330
A02
100
AcDbEntity
  8
Part
100
AcDbLine
 10
-3.100000000
 20
0.000000000
 30
13.000000000
 11
3.100000000
 21
0.000000000
 31
13.000000000
  0
LINE
  5
EB4
330
A02
100
AcDbEntity
  8
Part
100
AcDbLine
 10
-3.100000000
 20
0.000000000
 30
9.612491873
 11
-3.100000000
 21
0.000000000
 31
13.000000000
  0
LINE
  5
EB5
330
A02
100
AcDbEntity
  8
Part
100
AcDbLine
 10
-3.100000000
 20
0.000000000
 30
13.000000000
 11
-3.100000000
 21
6.000000000
 31
13.000000000
  0
LINE
  5
EB6
330
A02
100
AcDbEntity
  8
Part
100
AcDbLine
 10
-3.100000000
 20
6.000000000
 30
9.612491873
 11
-3.100000000
 21
6.000000000
 31
13.000000000
  0
LINE
  5
EB7
330
A02
100
AcDbEntity
  8
Part
100
AcDbLine
 10
-3.100000000
 20
0.000000000
 30
9.612491873
 11
-3.100000000
 21
6.000000000
 31
9.612491873
  0
ENDSEC
  0
SECTION
  2
OBJECTS
  0
DICTIONARY
  5
F000
330
0
100
AcDbDictionary
  3
ACAD_GROUP
350
F001
  0
DICTIONARY
  5
F001
330
F000
100
AcDbDictionary
  0
ENDSEC
  0
EOF
