ISO-10303-21;
HEADER;
FILE_DESCRIPTION(('Open CASCADE Model'),'2;1');
FILE_NAME('Open CASCADE Shape Model','2026-09-27T19:42:13',('Author'),(
    'Open CASCADE'),'Open CASCADE STEP processor 7.9','Open CASCADE 7.9'
  ,'Unknown');
FILE_SCHEMA(('AUTOMOTIVE_DESIGN { 1 0 10303 214 1 1 1 1 }'));
ENDSEC;
DATA;
#1 = APPLICATION_PROTOCOL_DEFINITION('international standard',
  'automotive_design',2000,#2);
#2 = APPLICATION_CONTEXT(
  'core data for automotive mechanical design processes');
#3 = SHAPE_DEFINITION_REPRESENTATION(#4,#10);
#4 = PRODUCT_DEFINITION_SHAPE('','',#5);
#5 = PRODUCT_DEFINITION('design','',#6,#9);
#6 = PRODUCT_DEFINITION_FORMATION('','',#7);
#7 = PRODUCT('Open CASCADE STEP translator 7.9 14',
  'Open CASCADE STEP translator 7.9 14','',(#8));
#8 = PRODUCT_CONTEXT('',#2,'mechanical');
#9 = PRODUCT_DEFINITION_CONTEXT('part definition',#2,'design');
#10 = ADVANCED_BREP_SHAPE_REPRESENTATION('',(#11,#15),#1534);
#11 = AXIS2_PLACEMENT_3D('',#12,#13,#14);
#12 = CARTESIAN_POINT('',(0.,0.,0.));
#13 = DIRECTION('',(0.,0.,1.));
#14 = DIRECTION('',(1.,0.,-0.));
#15 = MANIFOLD_SOLID_BREP('',#16);
#16 = CLOSED_SHELL('',(#17,#888,#914,#920,#997,#1073,#1145,#1173,#1200,
    #1280,#1284,#1310,#1318,#1394,#1465,#1492,#1519,#1526,#1530));
#17 = ADVANCED_FACE('',(#18,#105,#219,#791),#31,.T.);
#18 = FACE_BOUND('',#19,.T.);
#19 = EDGE_LOOP('',(#20,#54,#77,#104));
#20 = ORIENTED_EDGE('',*,*,#21,.F.);
#21 = EDGE_CURVE('',#22,#22,#24,.T.);
#22 = VERTEX_POINT('',#23);
#23 = CARTESIAN_POINT('',(809.,285.,131.));
#24 = SURFACE_CURVE('',#25,(#30,#42),.PCURVE_S1.);
#25 = CIRCLE('',#26,2.);
#26 = AXIS2_PLACEMENT_3D('',#27,#28,#29);
#27 = CARTESIAN_POINT('',(809.,285.,129.));
#28 = DIRECTION('',(0.,1.,0.));
#29 = DIRECTION('',(0.,-0.,1.));
#30 = PCURVE('',#31,#36);
#31 = CYLINDRICAL_SURFACE('',#32,2.);
#32 = AXIS2_PLACEMENT_3D('',#33,#34,#35);
#33 = CARTESIAN_POINT('',(809.,265.,129.));
#34 = DIRECTION('',(0.,1.,0.));
#35 = DIRECTION('',(0.,-0.,1.));
#36 = DEFINITIONAL_REPRESENTATION('',(#37),#41);
#37 = LINE('',#38,#39);
#38 = CARTESIAN_POINT('',(0.,20.));
#39 = VECTOR('',#40,1.);
#40 = DIRECTION('',(1.,0.));
#41 = ( GEOMETRIC_REPRESENTATION_CONTEXT(2) 
PARAMETRIC_REPRESENTATION_CONTEXT() REPRESENTATION_CONTEXT('2D SPACE',''
  ) );
#42 = PCURVE('',#43,#48);
#43 = PLANE('',#44);
#44 = AXIS2_PLACEMENT_3D('',#45,#46,#47);
#45 = CARTESIAN_POINT('',(809.,285.,129.));
#46 = DIRECTION('',(0.,1.,0.));
#47 = DIRECTION('',(0.,-0.,1.));
#48 = DEFINITIONAL_REPRESENTATION('',(#49),#53);
#49 = CIRCLE('',#50,2.);
#50 = AXIS2_PLACEMENT_2D('',#51,#52);
#51 = CARTESIAN_POINT('',(0.,0.));
#52 = DIRECTION('',(1.,0.));
#53 = ( GEOMETRIC_REPRESENTATION_CONTEXT(2) 
PARAMETRIC_REPRESENTATION_CONTEXT() REPRESENTATION_CONTEXT('2D SPACE',''
  ) );
#54 = ORIENTED_EDGE('',*,*,#55,.F.);
#55 = EDGE_CURVE('',#56,#22,#58,.T.);
#56 = VERTEX_POINT('',#57);
#57 = CARTESIAN_POINT('',(809.,265.,131.));
#58 = SEAM_CURVE('',#59,(#63,#70),.PCURVE_S1.);
#59 = LINE('',#60,#61);
#60 = CARTESIAN_POINT('',(809.,265.,131.));
#61 = VECTOR('',#62,1.);
#62 = DIRECTION('',(0.,1.,0.));
#63 = PCURVE('',#31,#64);
#64 = DEFINITIONAL_REPRESENTATION('',(#65),#69);
#65 = LINE('',#66,#67);
#66 = CARTESIAN_POINT('',(0.,-0.));
#67 = VECTOR('',#68,1.);
#68 = DIRECTION('',(0.,1.));
#69 = ( GEOMETRIC_REPRESENTATION_CONTEXT(2) 
PARAMETRIC_REPRESENTATION_CONTEXT() REPRESENTATION_CONTEXT('2D SPACE',''
  ) );
#70 = PCURVE('',#31,#71);
#71 = DEFINITIONAL_REPRESENTATION('',(#72),#76);
#72 = LINE('',#73,#74);
#73 = CARTESIAN_POINT('',(6.28318530718,-0.));
#74 = VECTOR('',#75,1.);
#75 = DIRECTION('',(0.,1.));
#76 = ( GEOMETRIC_REPRESENTATION_CONTEXT(2) 
PARAMETRIC_REPRESENTATION_CONTEXT() REPRESENTATION_CONTEXT('2D SPACE',''
  ) );
#77 = ORIENTED_EDGE('',*,*,#78,.T.);
#78 = EDGE_CURVE('',#56,#56,#79,.T.);
#79 = SURFACE_CURVE('',#80,(#85,#92),.PCURVE_S1.);
#80 = CIRCLE('',#81,2.);
#81 = AXIS2_PLACEMENT_3D('',#82,#83,#84);
#82 = CARTESIAN_POINT('',(809.,265.,129.));
#83 = DIRECTION('',(0.,1.,0.));
#84 = DIRECTION('',(0.,-0.,1.));
#85 = PCURVE('',#31,#86);
#86 = DEFINITIONAL_REPRESENTATION('',(#87),#91);
#87 = LINE('',#88,#89);
#88 = CARTESIAN_POINT('',(0.,0.));
#89 = VECTOR('',#90,1.);
#90 = DIRECTION('',(1.,0.));
#91 = ( GEOMETRIC_REPRESENTATION_CONTEXT(2) 
PARAMETRIC_REPRESENTATION_CONTEXT() REPRESENTATION_CONTEXT('2D SPACE',''
  ) );
#92 = PCURVE('',#93,#98);
#93 = PLANE('',#94);
#94 = AXIS2_PLACEMENT_3D('',#95,#96,#97);
#95 = CARTESIAN_POINT('',(809.,265.,129.));
#96 = DIRECTION('',(0.,1.,0.));
#97 = DIRECTION('',(0.,-0.,1.));
#98 = DEFINITIONAL_REPRESENTATION('',(#99),#103);
#99 = CIRCLE('',#100,2.);
#100 = AXIS2_PLACEMENT_2D('',#101,#102);
#101 = CARTESIAN_POINT('',(0.,0.));
#102 = DIRECTION('',(1.,0.));
#103 = ( GEOMETRIC_REPRESENTATION_CONTEXT(2) 
PARAMETRIC_REPRESENTATION_CONTEXT() REPRESENTATION_CONTEXT('2D SPACE',''
  ) );
#104 = ORIENTED_EDGE('',*,*,#55,.T.);
#105 = FACE_BOUND('',#106,.T.);
#106 = EDGE_LOOP('',(#107,#137,#166,#192));
#107 = ORIENTED_EDGE('',*,*,#108,.T.);
#108 = EDGE_CURVE('',#109,#111,#113,.T.);
#109 = VERTEX_POINT('',#110);
#110 = CARTESIAN_POINT('',(809.,269.,127.));
#111 = VERTEX_POINT('',#112);
#112 = CARTESIAN_POINT('',(809.,273.,127.));
#113 = SURFACE_CURVE('',#114,(#118,#125),.PCURVE_S1.);
#114 = LINE('',#115,#116);
#115 = CARTESIAN_POINT('',(809.,269.,127.));
#116 = VECTOR('',#117,1.);
#117 = DIRECTION('',(-0.,1.,0.));
#118 = PCURVE('',#31,#119);
#119 = DEFINITIONAL_REPRESENTATION('',(#120),#124);
#120 = LINE('',#121,#122);
#121 = CARTESIAN_POINT('',(3.14159265359,4.));
#122 = VECTOR('',#123,1.);
#123 = DIRECTION('',(0.,1.));
#124 = ( GEOMETRIC_REPRESENTATION_CONTEXT(2) 
PARAMETRIC_REPRESENTATION_CONTEXT() REPRESENTATION_CONTEXT('2D SPACE',''
  ) );
#125 = PCURVE('',#126,#131);
#126 = PLANE('',#127);
#127 = AXIS2_PLACEMENT_3D('',#128,#129,#130);
#128 = CARTESIAN_POINT('',(805.,269.,127.));
#129 = DIRECTION('',(0.,0.,1.));
#130 = DIRECTION('',(1.,0.,-0.));
#131 = DEFINITIONAL_REPRESENTATION('',(#132),#136);
#132 = LINE('',#133,#134);
#133 = CARTESIAN_POINT('',(4.,0.));
#134 = VECTOR('',#135,1.);
#135 = DIRECTION('',(0.,1.));
#136 = ( GEOMETRIC_REPRESENTATION_CONTEXT(2) 
PARAMETRIC_REPRESENTATION_CONTEXT() REPRESENTATION_CONTEXT('2D SPACE',''
  ) );
#137 = ORIENTED_EDGE('',*,*,#138,.T.);
#138 = EDGE_CURVE('',#111,#139,#141,.T.);
#139 = VERTEX_POINT('',#140);
#140 = CARTESIAN_POINT('',(807.00250156445,273.,128.9));
#141 = SURFACE_CURVE('',#142,(#147,#154),.PCURVE_S1.);
#142 = CIRCLE('',#143,2.);
#143 = AXIS2_PLACEMENT_3D('',#144,#145,#146);
#144 = CARTESIAN_POINT('',(809.,273.,129.));
#145 = DIRECTION('',(0.,1.,0.));
#146 = DIRECTION('',(0.,-0.,1.));
#147 = PCURVE('',#31,#148);
#148 = DEFINITIONAL_REPRESENTATION('',(#149),#153);
#149 = LINE('',#150,#151);
#150 = CARTESIAN_POINT('',(0.,8.));
#151 = VECTOR('',#152,1.);
#152 = DIRECTION('',(1.,0.));
#153 = ( GEOMETRIC_REPRESENTATION_CONTEXT(2) 
PARAMETRIC_REPRESENTATION_CONTEXT() REPRESENTATION_CONTEXT('2D SPACE',''
  ) );
#154 = PCURVE('',#155,#160);
#155 = PLANE('',#156);
#156 = AXIS2_PLACEMENT_3D('',#157,#158,#159);
#157 = CARTESIAN_POINT('',(805.,273.,127.));
#158 = DIRECTION('',(-0.,1.,0.));
#159 = DIRECTION('',(0.,0.,1.));
#160 = DEFINITIONAL_REPRESENTATION('',(#161),#165);
#161 = CIRCLE('',#162,2.);
#162 = AXIS2_PLACEMENT_2D('',#163,#164);
#163 = CARTESIAN_POINT('',(2.,4.));
#164 = DIRECTION('',(1.,0.));
#165 = ( GEOMETRIC_REPRESENTATION_CONTEXT(2) 
PARAMETRIC_REPRESENTATION_CONTEXT() REPRESENTATION_CONTEXT('2D SPACE',''
  ) );
#166 = ORIENTED_EDGE('',*,*,#167,.F.);
#167 = EDGE_CURVE('',#168,#139,#170,.T.);
#168 = VERTEX_POINT('',#169);
#169 = CARTESIAN_POINT('',(807.00250156445,269.,128.9));
#170 = SURFACE_CURVE('',#171,(#175,#181),.PCURVE_S1.);
#171 = LINE('',#172,#173);
#172 = CARTESIAN_POINT('',(807.00250156445,265.,128.9));
#173 = VECTOR('',#174,1.);
#174 = DIRECTION('',(0.,1.,0.));
#175 = PCURVE('',#31,#176);
#176 = DEFINITIONAL_REPRESENTATION('',(#177),#180);
#177 = B_SPLINE_CURVE_WITH_KNOTS('',1,(#178,#179),.UNSPECIFIED.,.F.,.F.,
  (2,2),(3.6,8.4),.PIECEWISE_BEZIER_KNOTS.);
#178 = CARTESIAN_POINT('',(4.662368123579,3.6));
#179 = CARTESIAN_POINT('',(4.662368123579,8.4));
#180 = ( GEOMETRIC_REPRESENTATION_CONTEXT(2) 
PARAMETRIC_REPRESENTATION_CONTEXT() REPRESENTATION_CONTEXT('2D SPACE',''
  ) );
#181 = PCURVE('',#182,#187);
#182 = PLANE('',#183);
#183 = AXIS2_PLACEMENT_3D('',#184,#185,#186);
#184 = CARTESIAN_POINT('',(805.,269.,128.9));
#185 = DIRECTION('',(0.,0.,1.));
#186 = DIRECTION('',(1.,0.,-0.));
#187 = DEFINITIONAL_REPRESENTATION('',(#188),#191);
#188 = B_SPLINE_CURVE_WITH_KNOTS('',1,(#189,#190),.UNSPECIFIED.,.F.,.F.,
  (2,2),(3.6,8.4),.PIECEWISE_BEZIER_KNOTS.);
#189 = CARTESIAN_POINT('',(2.002501564456,-0.4));
#190 = CARTESIAN_POINT('',(2.002501564456,4.4));
#191 = ( GEOMETRIC_REPRESENTATION_CONTEXT(2) 
PARAMETRIC_REPRESENTATION_CONTEXT() REPRESENTATION_CONTEXT('2D SPACE',''
  ) );
#192 = ORIENTED_EDGE('',*,*,#193,.F.);
#193 = EDGE_CURVE('',#109,#168,#194,.T.);
#194 = SURFACE_CURVE('',#195,(#200,#207),.PCURVE_S1.);
#195 = CIRCLE('',#196,2.);
#196 = AXIS2_PLACEMENT_3D('',#197,#198,#199);
#197 = CARTESIAN_POINT('',(809.,269.,129.));
#198 = DIRECTION('',(0.,1.,0.));
#199 = DIRECTION('',(0.,-0.,1.));
#200 = PCURVE('',#31,#201);
#201 = DEFINITIONAL_REPRESENTATION('',(#202),#206);
#202 = LINE('',#203,#204);
#203 = CARTESIAN_POINT('',(0.,4.));
#204 = VECTOR('',#205,1.);
#205 = DIRECTION('',(1.,0.));
#206 = ( GEOMETRIC_REPRESENTATION_CONTEXT(2) 
PARAMETRIC_REPRESENTATION_CONTEXT() REPRESENTATION_CONTEXT('2D SPACE',''
  ) );
#207 = PCURVE('',#208,#213);
#208 = PLANE('',#209);
#209 = AXIS2_PLACEMENT_3D('',#210,#211,#212);
#210 = CARTESIAN_POINT('',(805.,269.,127.));
#211 = DIRECTION('',(-0.,1.,0.));
#212 = DIRECTION('',(0.,0.,1.));
#213 = DEFINITIONAL_REPRESENTATION('',(#214),#218);
#214 = CIRCLE('',#215,2.);
#215 = AXIS2_PLACEMENT_2D('',#216,#217);
#216 = CARTESIAN_POINT('',(2.,4.));
#217 = DIRECTION('',(1.,0.));
#218 = ( GEOMETRIC_REPRESENTATION_CONTEXT(2) 
PARAMETRIC_REPRESENTATION_CONTEXT() REPRESENTATION_CONTEXT('2D SPACE',''
  ) );
#219 = FACE_BOUND('',#220,.T.);
#220 = EDGE_LOOP('',(#221,#256,#284,#489,#689,#717,#746,#772));
#221 = ORIENTED_EDGE('',*,*,#222,.T.);
#222 = EDGE_CURVE('',#223,#225,#227,.T.);
#223 = VERTEX_POINT('',#224);
#224 = CARTESIAN_POINT('',(807.,273.5,129.));
#225 = VERTEX_POINT('',#226);
#226 = CARTESIAN_POINT('',(809.,273.5,127.));
#227 = SURFACE_CURVE('',#228,(#233,#240),.PCURVE_S1.);
#228 = CIRCLE('',#229,2.);
#229 = AXIS2_PLACEMENT_3D('',#230,#231,#232);
#230 = CARTESIAN_POINT('',(809.,273.5,129.));
#231 = DIRECTION('',(-0.,-1.,0.));
#232 = DIRECTION('',(-1.,0.,0.));
#233 = PCURVE('',#31,#234);
#234 = DEFINITIONAL_REPRESENTATION('',(#235),#239);
#235 = LINE('',#236,#237);
#236 = CARTESIAN_POINT('',(4.712388980385,8.5));
#237 = VECTOR('',#238,1.);
#238 = DIRECTION('',(-1.,-0.));
#239 = ( GEOMETRIC_REPRESENTATION_CONTEXT(2) 
PARAMETRIC_REPRESENTATION_CONTEXT() REPRESENTATION_CONTEXT('2D SPACE',''
  ) );
#240 = PCURVE('',#241,#246);
#241 = PLANE('',#242);
#242 = AXIS2_PLACEMENT_3D('',#243,#244,#245);
#243 = CARTESIAN_POINT('',(805.,273.5,127.));
#244 = DIRECTION('',(-0.,1.,0.));
#245 = DIRECTION('',(0.,0.,1.));
#246 = DEFINITIONAL_REPRESENTATION('',(#247),#255);
#247 = ( BOUNDED_CURVE() B_SPLINE_CURVE(2,(#248,#249,#250,#251,#252,#253
,#254),.UNSPECIFIED.,.T.,.F.) B_SPLINE_CURVE_WITH_KNOTS((1,2,2,2,2,1),(
    -2.094395102393,0.,2.094395102393,4.188790204786,6.28318530718,
8.377580409573),.UNSPECIFIED.) CURVE() GEOMETRIC_REPRESENTATION_ITEM() 
RATIONAL_B_SPLINE_CURVE((1.,0.5,1.,0.5,1.,0.5,1.)) REPRESENTATION_ITEM(
  '') );
#248 = CARTESIAN_POINT('',(2.,2.));
#249 = CARTESIAN_POINT('',(-1.464101615138,2.));
#250 = CARTESIAN_POINT('',(0.267949192431,5.));
#251 = CARTESIAN_POINT('',(2.,8.));
#252 = CARTESIAN_POINT('',(3.732050807569,5.));
#253 = CARTESIAN_POINT('',(5.464101615138,2.));
#254 = CARTESIAN_POINT('',(2.,2.));
#255 = ( GEOMETRIC_REPRESENTATION_CONTEXT(2) 
PARAMETRIC_REPRESENTATION_CONTEXT() REPRESENTATION_CONTEXT('2D SPACE',''
  ) );
#256 = ORIENTED_EDGE('',*,*,#257,.T.);
#257 = EDGE_CURVE('',#225,#258,#260,.T.);
#258 = VERTEX_POINT('',#259);
#259 = CARTESIAN_POINT('',(809.,273.58578643762,127.));
#260 = SURFACE_CURVE('',#261,(#265,#272),.PCURVE_S1.);
#261 = LINE('',#262,#263);
#262 = CARTESIAN_POINT('',(809.,273.5,127.));
#263 = VECTOR('',#264,1.);
#264 = DIRECTION('',(-0.,1.,0.));
#265 = PCURVE('',#31,#266);
#266 = DEFINITIONAL_REPRESENTATION('',(#267),#271);
#267 = LINE('',#268,#269);
#268 = CARTESIAN_POINT('',(3.14159265359,8.5));
#269 = VECTOR('',#270,1.);
#270 = DIRECTION('',(0.,1.));
#271 = ( GEOMETRIC_REPRESENTATION_CONTEXT(2) 
PARAMETRIC_REPRESENTATION_CONTEXT() REPRESENTATION_CONTEXT('2D SPACE',''
  ) );
#272 = PCURVE('',#273,#278);
#273 = PLANE('',#274);
#274 = AXIS2_PLACEMENT_3D('',#275,#276,#277);
#275 = CARTESIAN_POINT('',(805.,273.5,127.));
#276 = DIRECTION('',(0.,0.,1.));
#277 = DIRECTION('',(1.,0.,-0.));
#278 = DEFINITIONAL_REPRESENTATION('',(#279),#283);
#279 = LINE('',#280,#281);
#280 = CARTESIAN_POINT('',(4.,0.));
#281 = VECTOR('',#282,1.);
#282 = DIRECTION('',(0.,1.));
#283 = ( GEOMETRIC_REPRESENTATION_CONTEXT(2) 
PARAMETRIC_REPRESENTATION_CONTEXT() REPRESENTATION_CONTEXT('2D SPACE',''
  ) );
#284 = ORIENTED_EDGE('',*,*,#285,.T.);
#285 = EDGE_CURVE('',#258,#286,#288,.T.);
#286 = VERTEX_POINT('',#287);
#287 = CARTESIAN_POINT('',(810.,275.,127.26794919243));
#288 = SURFACE_CURVE('',#289,(#352,#418),.PCURVE_S1.);
#289 = B_SPLINE_CURVE_WITH_KNOTS('',7,(#290,#291,#292,#293,#294,#295,
    #296,#297,#298,#299,#300,#301,#302,#303,#304,#305,#306,#307,#308,
    #309,#310,#311,#312,#313,#314,#315,#316,#317,#318,#319,#320,#321,
    #322,#323,#324,#325,#326,#327,#328,#329,#330,#331,#332,#333,#334,
    #335,#336,#337,#338,#339,#340,#341,#342,#343,#344,#345,#346,#347,
    #348,#349,#350,#351),.UNSPECIFIED.,.F.,.F.,(8,6,6,6,6,6,6,6,6,6,8),(
    0.,0.351432279039,0.438307933297,0.507952365809,0.602885634983,
    0.668092874733,0.705733628157,0.748050150451,0.776588583336,
    0.850150544108,1.),.UNSPECIFIED.);
#290 = CARTESIAN_POINT('',(807.,275.,129.));
#291 = CARTESIAN_POINT('',(806.99999998663,274.82818780282,
    128.8016081716));
#292 = CARTESIAN_POINT('',(807.02295960101,274.65801083713,
    128.60510598645));
#293 = CARTESIAN_POINT('',(807.06809206792,274.48930747434,
    128.40950301342));
#294 = CARTESIAN_POINT('',(807.13696414758,274.32247878193,
    128.21455049348));
#295 = CARTESIAN_POINT('',(807.23233410246,274.15976658884,
    128.02171375546));
#296 = CARTESIAN_POINT('',(807.3576257596,274.00561813904,
    127.83460540669));
#297 = CARTESIAN_POINT('',(807.55459881151,273.83428387604,
    127.61645046419));
#298 = CARTESIAN_POINT('',(807.59573431783,273.80126266954,
    127.57384552719));
#299 = CARTESIAN_POINT('',(807.63905033011,273.76929036585,
    127.53195015088));
#300 = CARTESIAN_POINT('',(807.68463093216,273.73850539841,
    127.49086436615));
#301 = CARTESIAN_POINT('',(807.73255540807,273.70907575271,
    127.45071268689));
#302 = CARTESIAN_POINT('',(807.78289577516,273.68120056201,
    127.41164324603));
#303 = CARTESIAN_POINT('',(807.87805664414,273.63419739974,
    127.34351123751));
#304 = CARTESIAN_POINT('',(807.92201715618,273.61441851255,
    127.31398260401));
#305 = CARTESIAN_POINT('',(807.96759739765,273.59591423034,
    127.28535520288));
#306 = CARTESIAN_POINT('',(808.01479113181,273.57883081071,
    127.25774683372));
#307 = CARTESIAN_POINT('',(808.06358347924,273.56332236945,
    127.2312781962));
#308 = CARTESIAN_POINT('',(808.11395005656,273.54955167012,
    127.20607216231));
#309 = CARTESIAN_POINT('',(808.23660996631,273.52152335576,
    127.1497848922));
#310 = CARTESIAN_POINT('',(808.31046965907,273.5088486441,
    127.11978087966));
#311 = CARTESIAN_POINT('',(808.38689226971,273.50025994127,
    127.09281403466));
#312 = CARTESIAN_POINT('',(808.46528542704,273.49622513245,
    127.06931237972));
#313 = CARTESIAN_POINT('',(808.54502059422,273.49708469573,
    127.04956073948));
#314 = CARTESIAN_POINT('',(808.62544635061,273.5030495724,
    127.03370254382));
#315 = CARTESIAN_POINT('',(808.76116438171,273.52185732017,
    127.01352598527));
#316 = CARTESIAN_POINT('',(808.81625662062,273.53193610326,
    127.00717642873));
#317 = CARTESIAN_POINT('',(808.87093310348,273.54442692602,
    127.00267731144));
#318 = CARTESIAN_POINT('',(808.924949211,273.55928271987,126.99997565725
    ));
#319 = CARTESIAN_POINT('',(808.97806459625,273.57641607885,
    126.99898411377));
#320 = CARTESIAN_POINT('',(809.03004678928,273.59569753041,
    126.9995839024));
#321 = CARTESIAN_POINT('',(809.10989972457,273.62922395027,
    127.00280758598));
#322 = CARTESIAN_POINT('',(809.13868711886,273.642157828,127.00446924116
    ));
#323 = CARTESIAN_POINT('',(809.16701509732,273.65573224862,
    127.00658603001));
#324 = CARTESIAN_POINT('',(809.19486278981,273.6699225393,
    127.00913044747));
#325 = CARTESIAN_POINT('',(809.22221034351,273.68470254507,
    127.0120741873));
#326 = CARTESIAN_POINT('',(809.24903892293,273.70004462885,
    127.01538814209));
#327 = CARTESIAN_POINT('',(809.30488848672,273.73376672627,
    127.02315060004));
#328 = CARTESIAN_POINT('',(809.33376977822,273.75228847902,
    127.02768927978));
#329 = CARTESIAN_POINT('',(809.36196446098,273.77145282254,
    127.03261831825));
#330 = CARTESIAN_POINT('',(809.38946353948,273.79122801934,
    127.03789823254));
#331 = CARTESIAN_POINT('',(809.41625914609,273.81158270156,
    127.04349018105));
#332 = CARTESIAN_POINT('',(809.44234454105,273.83248587094,
    127.04935596346));
#333 = CARTESIAN_POINT('',(809.48482345353,273.86835332626,
    127.05957327276));
#334 = CARTESIAN_POINT('',(809.50160921418,273.88303699639,
    127.06379649321));
#335 = CARTESIAN_POINT('',(809.51807096312,273.89794974338,
    127.06811655997));
#336 = CARTESIAN_POINT('',(809.53420853968,273.91308383915,
    127.07252262663));
#337 = CARTESIAN_POINT('',(809.5500220538,273.92843199346,
    127.07700412252));
#338 = CARTESIAN_POINT('',(809.56551188608,273.94398735386,
    127.08155075265));
#339 = CARTESIAN_POINT('',(809.61977332451,274.00035727839,
    127.09801416514));
#340 = CARTESIAN_POINT('',(809.656719714,274.04230326302,127.11024142964
    ));
#341 = CARTESIAN_POINT('',(809.69153128295,274.08547518135,
    127.12266385066));
#342 = CARTESIAN_POINT('',(809.72422051257,274.1297780167,
    127.13512021714));
#343 = CARTESIAN_POINT('',(809.75479811323,274.17512767698,
    127.14745812815));
#344 = CARTESIAN_POINT('',(809.78327219912,274.22145065776,
    127.15953357336));
#345 = CARTESIAN_POINT('',(809.86337521695,274.36489982586,
    127.19499703466));
#346 = CARTESIAN_POINT('',(809.90860356878,274.46526832447,
    127.21722282861));
#347 = CARTESIAN_POINT('',(809.94499408945,274.56885730736,
    127.23660586297));
#348 = CARTESIAN_POINT('',(809.9724021304,274.6748139958,127.2520148528)
  );
#349 = CARTESIAN_POINT('',(809.99076082485,274.78240872828,
    127.2626152605));
#350 = CARTESIAN_POINT('',(810.,274.89101135147,127.26794919243));
#351 = CARTESIAN_POINT('',(810.,275.,127.26794919243));
#352 = PCURVE('',#31,#353);
#353 = DEFINITIONAL_REPRESENTATION('',(#354),#417);
#354 = B_SPLINE_CURVE_WITH_KNOTS('',7,(#355,#356,#357,#358,#359,#360,
    #361,#362,#363,#364,#365,#366,#367,#368,#369,#370,#371,#372,#373,
    #374,#375,#376,#377,#378,#379,#380,#381,#382,#383,#384,#385,#386,
    #387,#388,#389,#390,#391,#392,#393,#394,#395,#396,#397,#398,#399,
    #400,#401,#402,#403,#404,#405,#406,#407,#408,#409,#410,#411,#412,
    #413,#414,#415,#416),.UNSPECIFIED.,.F.,.F.,(8,6,6,6,6,6,6,6,6,6,8),(
    0.,0.351432279039,0.438307933297,0.507952365809,0.602885634983,
    0.668092874733,0.705733628157,0.748050150451,0.776588583336,
    0.850150544108,1.),.UNSPECIFIED.);
#355 = CARTESIAN_POINT('',(4.712388980385,10.));
#356 = CARTESIAN_POINT('',(4.613193181729,9.82818780282));
#357 = CARTESIAN_POINT('',(4.514941256922,9.658010837136));
#358 = CARTESIAN_POINT('',(4.415548713792,9.489307474341));
#359 = CARTESIAN_POINT('',(4.313417262812,9.32247878193));
#360 = CARTESIAN_POINT('',(4.207223843674,9.159766588848));
#361 = CARTESIAN_POINT('',(4.095803761013,9.005618139041));
#362 = CARTESIAN_POINT('',(3.948842914088,8.834283876042));
#363 = CARTESIAN_POINT('',(3.919248191685,8.801262669549));
#364 = CARTESIAN_POINT('',(3.889145782227,8.769290365856));
#365 = CARTESIAN_POINT('',(3.858498453351,8.738505398413));
#366 = CARTESIAN_POINT('',(3.827272115175,8.709075752714));
#367 = CARTESIAN_POINT('',(3.79543457741,8.68120056201));
#368 = CARTESIAN_POINT('',(3.736916286317,8.634197399748));
#369 = CARTESIAN_POINT('',(3.710449488347,8.614418512553));
#370 = CARTESIAN_POINT('',(3.683557707806,8.595914230346));
#371 = CARTESIAN_POINT('',(3.656244632714,8.578830810713));
#372 = CARTESIAN_POINT('',(3.628513893267,8.563322369453));
#373 = CARTESIAN_POINT('',(3.600369111233,8.549551670129));
#374 = CARTESIAN_POINT('',(3.532890021442,8.521523355763));
#375 = CARTESIAN_POINT('',(3.493068574333,8.508848644106));
#376 = CARTESIAN_POINT('',(3.452619436092,8.500259941272));
#377 = CARTESIAN_POINT('',(3.411784702477,8.496225132455));
#378 = CARTESIAN_POINT('',(3.370788503144,8.497084695732));
#379 = CARTESIAN_POINT('',(3.32984676786,8.5030495724));
#380 = CARTESIAN_POINT('',(3.261241962121,8.521857320174));
#381 = CARTESIAN_POINT('',(3.233528504426,8.531936103262));
#382 = CARTESIAN_POINT('',(3.206120948853,8.544426926029));
#383 = CARTESIAN_POINT('',(3.179103557879,8.559282719875));
#384 = CARTESIAN_POINT('',(3.152561018168,8.576416078856));
#385 = CARTESIAN_POINT('',(3.126578931508,8.595697530415));
#386 = CARTESIAN_POINT('',(3.086619941876,8.629223950273));
#387 = CARTESIAN_POINT('',(3.072204447948,8.642157828006));
#388 = CARTESIAN_POINT('',(3.058004183071,8.655732248623));
#389 = CARTESIAN_POINT('',(3.044025681166,8.6699225393));
#390 = CARTESIAN_POINT('',(3.030275650963,8.684702545076));
#391 = CARTESIAN_POINT('',(3.016760976005,8.700044628855));
#392 = CARTESIAN_POINT('',(2.988567760824,8.733766726279));
#393 = CARTESIAN_POINT('',(2.973952161544,8.752288479026));
#394 = CARTESIAN_POINT('',(2.959644354705,8.771452822542));
#395 = CARTESIAN_POINT('',(2.945647063422,8.791228019344));
#396 = CARTESIAN_POINT('',(2.931963296027,8.811582701562));
#397 = CARTESIAN_POINT('',(2.918596346073,8.832485870945));
#398 = CARTESIAN_POINT('',(2.896751143996,8.868353326262));
#399 = CARTESIAN_POINT('',(2.888097168997,8.883036996397));
#400 = CARTESIAN_POINT('',(2.879588279289,8.897949743383));
#401 = CARTESIAN_POINT('',(2.871224869767,8.913083839155));
#402 = CARTESIAN_POINT('',(2.863007318267,8.928431993461));
#403 = CARTESIAN_POINT('',(2.854935985561,8.94398735386));
#404 = CARTESIAN_POINT('',(2.82658396777,9.000357278393));
#405 = CARTESIAN_POINT('',(2.807131489409,9.042303263024));
#406 = CARTESIAN_POINT('',(2.788658224748,9.085475181359));
#407 = CARTESIAN_POINT('',(2.771173591365,9.129778016705));
#408 = CARTESIAN_POINT('',(2.754691329972,9.17512767698));
#409 = CARTESIAN_POINT('',(2.739228854457,9.221450657767));
#410 = CARTESIAN_POINT('',(2.695427739879,9.364899825863));
#411 = CARTESIAN_POINT('',(2.670251036087,9.465268324477));
#412 = CARTESIAN_POINT('',(2.649647391289,9.568857307369));
#413 = CARTESIAN_POINT('',(2.633928398937,9.674813995804));
#414 = CARTESIAN_POINT('',(2.623327748391,9.78240872828));
#415 = CARTESIAN_POINT('',(2.617993877991,9.891011351471));
#416 = CARTESIAN_POINT('',(2.617993877991,10.));
#417 = ( GEOMETRIC_REPRESENTATION_CONTEXT(2) 
PARAMETRIC_REPRESENTATION_CONTEXT() REPRESENTATION_CONTEXT('2D SPACE',''
  ) );
#418 = PCURVE('',#419,#424);
#419 = CYLINDRICAL_SURFACE('',#420,1.5);
#420 = AXIS2_PLACEMENT_3D('',#421,#422,#423);
#421 = CARTESIAN_POINT('',(808.5,275.,125.5));
#422 = DIRECTION('',(0.,0.,1.));
#423 = DIRECTION('',(1.,0.,-0.));
#424 = DEFINITIONAL_REPRESENTATION('',(#425),#488);
#425 = B_SPLINE_CURVE_WITH_KNOTS('',7,(#426,#427,#428,#429,#430,#431,
    #432,#433,#434,#435,#436,#437,#438,#439,#440,#441,#442,#443,#444,
    #445,#446,#447,#448,#449,#450,#451,#452,#453,#454,#455,#456,#457,
    #458,#459,#460,#461,#462,#463,#464,#465,#466,#467,#468,#469,#470,
    #471,#472,#473,#474,#475,#476,#477,#478,#479,#480,#481,#482,#483,
    #484,#485,#486,#487),.UNSPECIFIED.,.F.,.F.,(8,6,6,6,6,6,6,6,6,6,8),(
    0.,0.351432279039,0.438307933297,0.507952365809,0.602885634983,
    0.668092874733,0.705733628157,0.748050150451,0.776588583336,
    0.850150544108,1.),.UNSPECIFIED.);
#426 = CARTESIAN_POINT('',(3.14159265359,3.5));
#427 = CARTESIAN_POINT('',(3.256134213625,3.301608171606));
#428 = CARTESIAN_POINT('',(3.36958498349,3.105105986458));
#429 = CARTESIAN_POINT('',(3.484509590739,2.909503013421));
#430 = CARTESIAN_POINT('',(3.602882444328,2.71455049348));
#431 = CARTESIAN_POINT('',(3.726478086263,2.521713755461));
#432 = CARTESIAN_POINT('',(3.856945590047,2.334605406693));
#433 = CARTESIAN_POINT('',(4.030987491587,2.116450464192));
#434 = CARTESIAN_POINT('',(4.066126450332,2.073845527196));
#435 = CARTESIAN_POINT('',(4.101970572809,2.03195015088));
#436 = CARTESIAN_POINT('',(4.138579528072,1.990864366153));
#437 = CARTESIAN_POINT('',(4.176012843934,1.950712686896));
#438 = CARTESIAN_POINT('',(4.214332606465,1.911643246032));
#439 = CARTESIAN_POINT('',(4.285090058366,1.843511237518));
#440 = CARTESIAN_POINT('',(4.317205932454,1.813982604012));
#441 = CARTESIAN_POINT('',(4.349964738943,1.78535520288));
#442 = CARTESIAN_POINT('',(4.383379579028,1.75774683372));
#443 = CARTESIAN_POINT('',(4.417466562414,1.731278196201));
#444 = CARTESIAN_POINT('',(4.452245671815,1.706072162314));
#445 = CARTESIAN_POINT('',(4.536126645332,1.649784892201));
#446 = CARTESIAN_POINT('',(4.586011633425,1.619780879668));
#447 = CARTESIAN_POINT('',(4.637140062983,1.592814034663));
#448 = CARTESIAN_POINT('',(4.689294882314,1.569312379728));
#449 = CARTESIAN_POINT('',(4.742286717657,1.549560739489));
#450 = CARTESIAN_POINT('',(4.79594207406,1.533702543822));
#451 = CARTESIAN_POINT('',(4.887285419845,1.513525985276));
#452 = CARTESIAN_POINT('',(4.924588291911,1.507176428738));
#453 = CARTESIAN_POINT('',(4.961921242944,1.502677311449));
#454 = CARTESIAN_POINT('',(4.999204903637,1.49997565725));
#455 = CARTESIAN_POINT('',(5.036356190612,1.49898411377));
#456 = CARTESIAN_POINT('',(5.073285052134,1.499583902409));
#457 = CARTESIAN_POINT('',(5.131022050102,1.502807585981));
#458 = CARTESIAN_POINT('',(5.152055188817,1.504469241167));
#459 = CARTESIAN_POINT('',(5.172986718092,1.506586030014));
#460 = CARTESIAN_POINT('',(5.193812186835,1.509130447471));
#461 = CARTESIAN_POINT('',(5.214526604762,1.512074187303));
#462 = CARTESIAN_POINT('',(5.235124442389,1.515388142092));
#463 = CARTESIAN_POINT('',(5.278618266372,1.523150600042));
#464 = CARTESIAN_POINT('',(5.301483348096,1.527689279784));
#465 = CARTESIAN_POINT('',(5.324197898172,1.532618318255));
#466 = CARTESIAN_POINT('',(5.346764591337,1.537898232549));
#467 = CARTESIAN_POINT('',(5.369185755102,1.543490181056));
#468 = CARTESIAN_POINT('',(5.39146336975,1.549355963467));
#469 = CARTESIAN_POINT('',(5.42852747252,1.559573272769));
#470 = CARTESIAN_POINT('',(5.443393098837,1.563796493215));
#471 = CARTESIAN_POINT('',(5.458197628588,1.568116559975));
#472 = CARTESIAN_POINT('',(5.472942888615,1.572522626639));
#473 = CARTESIAN_POINT('',(5.487630851299,1.57700412252));
#474 = CARTESIAN_POINT('',(5.502263634563,1.581550752658));
#475 = CARTESIAN_POINT('',(5.554425230025,1.598014165143));
#476 = CARTESIAN_POINT('',(5.591653618715,1.610241429647));
#477 = CARTESIAN_POINT('',(5.628570482766,1.622663850664));
#478 = CARTESIAN_POINT('',(5.66521540161,1.635120217145));
#479 = CARTESIAN_POINT('',(5.701627136707,1.647458128156));
#480 = CARTESIAN_POINT('',(5.737845048961,1.659533573368));
#481 = CARTESIAN_POINT('',(5.847377707294,1.69499703466));
#482 = CARTESIAN_POINT('',(5.920499019673,1.717222828615));
#483 = CARTESIAN_POINT('',(5.99327122772,1.73660586297));
#484 = CARTESIAN_POINT('',(6.065767613173,1.752014852806));
#485 = CARTESIAN_POINT('',(6.138124648525,1.762615260509));
#486 = CARTESIAN_POINT('',(6.21052620816,1.767949192431));
#487 = CARTESIAN_POINT('',(6.28318530718,1.767949192431));
#488 = ( GEOMETRIC_REPRESENTATION_CONTEXT(2) 
PARAMETRIC_REPRESENTATION_CONTEXT() REPRESENTATION_CONTEXT('2D SPACE',''
  ) );
#489 = ORIENTED_EDGE('',*,*,#490,.T.);
#490 = EDGE_CURVE('',#286,#491,#493,.T.);
#491 = VERTEX_POINT('',#492);
#492 = CARTESIAN_POINT('',(809.,276.41421356237,127.));
#493 = SURFACE_CURVE('',#494,(#557,#623),.PCURVE_S1.);
#494 = B_SPLINE_CURVE_WITH_KNOTS('',7,(#495,#496,#497,#498,#499,#500,
    #501,#502,#503,#504,#505,#506,#507,#508,#509,#510,#511,#512,#513,
    #514,#515,#516,#517,#518,#519,#520,#521,#522,#523,#524,#525,#526,
    #527,#528,#529,#530,#531,#532,#533,#534,#535,#536,#537,#538,#539,
    #540,#541,#542,#543,#544,#545,#546,#547,#548,#549,#550,#551,#552,
    #553,#554,#555,#556),.UNSPECIFIED.,.F.,.F.,(8,6,6,6,6,6,6,6,6,6,8),(
    0.,0.148899270984,0.22353934503,0.252681706604,0.29480541481,
    0.332086749137,0.397938206233,0.485689613507,0.54474188176,
    0.633160657351,1.),.UNSPECIFIED.);
#495 = CARTESIAN_POINT('',(810.,275.,127.26794919243));
#496 = CARTESIAN_POINT('',(810.,275.10821163759,127.26794919243));
#497 = CARTESIAN_POINT('',(809.9908929152,275.21604158796,
    127.26269144576));
#498 = CARTESIAN_POINT('',(809.97279168474,275.32289570225,
    127.25223989808));
#499 = CARTESIAN_POINT('',(809.9457690008,275.42813850101,
    127.23704155325));
#500 = CARTESIAN_POINT('',(809.90989021461,275.53105414122,
    127.21790840194));
#501 = CARTESIAN_POINT('',(809.86529325165,275.63082354302,
    127.19594105201));
#502 = CARTESIAN_POINT('',(809.78575892113,275.77448713308,
    127.16059044883));
#503 = CARTESIAN_POINT('',(809.75704491761,275.8215260242,
    127.14836699922));
#504 = CARTESIAN_POINT('',(809.72616890946,275.867568878,127.13586503411
    ));
#505 = CARTESIAN_POINT('',(809.69312261386,275.91253945881,
    127.12323429506));
#506 = CARTESIAN_POINT('',(809.65789496314,275.95635040226,
    127.11063337755));
#507 = CARTESIAN_POINT('',(809.62047298674,275.99890285076,
    127.09823016554));
#508 = CARTESIAN_POINT('',(809.56536949908,276.05616561259,
    127.08150611074));
#509 = CARTESIAN_POINT('',(809.54955996645,276.07203611804,
    127.07686726199));
#510 = CARTESIAN_POINT('',(809.5334133972,276.08769079411,
    127.07229636293));
#511 = CARTESIAN_POINT('',(809.51692938958,276.10312235413,
    127.06780435563));
#512 = CARTESIAN_POINT('',(809.50010783798,276.11832303615,
    127.0634024813));
#513 = CARTESIAN_POINT('',(809.48294893302,276.13328460291,
    127.05910228026));
#514 = CARTESIAN_POINT('',(809.44016396958,276.16926625611,
    127.04886396031));
#515 = CARTESIAN_POINT('',(809.4141667815,276.19001995881,
    127.04304843658));
#516 = CARTESIAN_POINT('',(809.3874672158,276.21022924064,
    127.03750603442));
#517 = CARTESIAN_POINT('',(809.36007199422,276.22986354001,
    127.03227439061));
#518 = CARTESIAN_POINT('',(809.33198894169,276.24889194306,
    127.02739176506));
#519 = CARTESIAN_POINT('',(809.30322698631,276.26728318366,
    127.02289704076));
#520 = CARTESIAN_POINT('',(809.24774858323,276.30069079977,
    127.0152299695));
#521 = CARTESIAN_POINT('',(809.22117564114,276.31585290735,
    127.01196472294));
#522 = CARTESIAN_POINT('',(809.19409475455,276.33046368504,
    127.00906298915));
#523 = CARTESIAN_POINT('',(809.16652432367,276.34449629339,
    127.00655299202));
#524 = CARTESIAN_POINT('',(809.13848372744,276.35792533466,
    127.00446217426));
#525 = CARTESIAN_POINT('',(809.10999332356,276.37072685281,
    127.00281719749));
#526 = CARTESIAN_POINT('',(809.02999392537,276.404341962,126.99957157614
    ));
#527 = CARTESIAN_POINT('',(808.97753440057,276.42379504283,
    126.99896895705));
#528 = CARTESIAN_POINT('',(808.92392269667,276.4410596476,
    126.99998739053));
#529 = CARTESIAN_POINT('',(808.86939749178,276.45600319509,
    127.00274869334));
#530 = CARTESIAN_POINT('',(808.81420557556,276.46853663878,
    127.00734212384));
#531 = CARTESIAN_POINT('',(808.75859810529,276.4786126543,
    127.01382131237));
#532 = CARTESIAN_POINT('',(808.62850800392,276.49636621642,
    127.03336793333));
#533 = CARTESIAN_POINT('',(808.55419499738,276.50209122841,
    127.04786531574));
#534 = CARTESIAN_POINT('',(808.480425588,276.50345382539,127.06569105146
    ));
#535 = CARTESIAN_POINT('',(808.40773156497,276.50061128665,
    127.08673659666));
#536 = CARTESIAN_POINT('',(808.33662905594,276.49382144409,
    127.11078551594));
#537 = CARTESIAN_POINT('',(808.26760882202,276.48344091796,
    127.13751184713));
#538 = CARTESIAN_POINT('',(808.156387341,276.46082671337,127.18597153866
    ));
#539 = CARTESIAN_POINT('',(808.1127172797,276.45029314708,
    127.20651417963));
#540 = CARTESIAN_POINT('',(808.0701493116,276.43842861248,
    127.22802929812));
#541 = CARTESIAN_POINT('',(808.02871071805,276.42533592882,
    127.25043869575));
#542 = CARTESIAN_POINT('',(807.98842342115,276.41111511744,
    127.27366340875));
#543 = CARTESIAN_POINT('',(807.94930428585,276.3958637434,
    127.29762404994));
#544 = CARTESIAN_POINT('',(807.85455968071,276.35544128201,
    127.35910025868));
#545 = CARTESIAN_POINT('',(807.80037223928,276.32909719102,
    127.39744903117));
#546 = CARTESIAN_POINT('',(807.74875152445,276.30091950525,
    127.43708620005));
#547 = CARTESIAN_POINT('',(807.69963209684,276.27114585379,
    127.47783450552));
#548 = CARTESIAN_POINT('',(807.65293763379,276.2399789743,
    127.51954186313));
#549 = CARTESIAN_POINT('',(807.60858391185,276.20758871354,
    127.56208253073));
#550 = CARTESIAN_POINT('',(807.39180492027,276.03523140285,
    127.78490436848));
#551 = CARTESIAN_POINT('',(807.25380301241,275.87602445911,
    127.9792456246));
#552 = CARTESIAN_POINT('',(807.14940386106,275.70686424471,
    128.18023927411));
#553 = CARTESIAN_POINT('',(807.07432013343,275.53314532503,
    128.38345638355));
#554 = CARTESIAN_POINT('',(807.02516782769,275.35741810932,
    128.58729147112));
#555 = CARTESIAN_POINT('',(807.00000002187,275.17988598546,
    128.79228506942));
#556 = CARTESIAN_POINT('',(807.,275.,129.));
#557 = PCURVE('',#31,#558);
#558 = DEFINITIONAL_REPRESENTATION('',(#559),#622);
#559 = B_SPLINE_CURVE_WITH_KNOTS('',7,(#560,#561,#562,#563,#564,#565,
    #566,#567,#568,#569,#570,#571,#572,#573,#574,#575,#576,#577,#578,
    #579,#580,#581,#582,#583,#584,#585,#586,#587,#588,#589,#590,#591,
    #592,#593,#594,#595,#596,#597,#598,#599,#600,#601,#602,#603,#604,
    #605,#606,#607,#608,#609,#610,#611,#612,#613,#614,#615,#616,#617,
    #618,#619,#620,#621),.UNSPECIFIED.,.F.,.F.,(8,6,6,6,6,6,6,6,6,6,8),(
    0.,0.148899270984,0.22353934503,0.252681706604,0.29480541481,
    0.332086749137,0.397938206233,0.485689613507,0.54474188176,
    0.633160657351,1.),.UNSPECIFIED.);
#560 = CARTESIAN_POINT('',(2.617993877991,10.));
#561 = CARTESIAN_POINT('',(2.617993877991,10.108211637596));
#562 = CARTESIAN_POINT('',(2.623251517158,10.216041587963));
#563 = CARTESIAN_POINT('',(2.633703425033,10.322895702258));
#564 = CARTESIAN_POINT('',(2.649202951223,10.428138501018));
#565 = CARTESIAN_POINT('',(2.669522512471,10.531054141227));
#566 = CARTESIAN_POINT('',(2.694359707755,10.630823543028));
#567 = CARTESIAN_POINT('',(2.737878022506,10.774487133088));
#568 = CARTESIAN_POINT('',(2.753479801767,10.821526024202));
#569 = CARTESIAN_POINT('',(2.770131017302,10.867568878004));
#570 = CARTESIAN_POINT('',(2.787813320789,10.912539458819));
#571 = CARTESIAN_POINT('',(2.806512234657,10.956350402261));
#572 = CARTESIAN_POINT('',(2.826217849282,10.998902850762));
#573 = CARTESIAN_POINT('',(2.855010592991,11.056165612591));
#574 = CARTESIAN_POINT('',(2.863248271575,11.072036118045));
#575 = CARTESIAN_POINT('',(2.871638192489,11.087690794113));
#576 = CARTESIAN_POINT('',(2.88017997274,11.103122354135));
#577 = CARTESIAN_POINT('',(2.8888732098,11.118323036154));
#578 = CARTESIAN_POINT('',(2.897717481598,11.133284602918));
#579 = CARTESIAN_POINT('',(2.919713937512,11.169266256116));
#580 = CARTESIAN_POINT('',(2.933032365283,11.190019958816));
#581 = CARTESIAN_POINT('',(2.946664099469,11.210229240647));
#582 = CARTESIAN_POINT('',(2.960605890585,11.229863540014));
#583 = CARTESIAN_POINT('',(2.974854770026,11.24889194306));
#584 = CARTESIAN_POINT('',(2.989408050071,11.267283183666));
#585 = CARTESIAN_POINT('',(3.017410894525,11.300690799774));
#586 = CARTESIAN_POINT('',(3.030795775204,11.315852907355));
#587 = CARTESIAN_POINT('',(3.044411070122,11.330463685042));
#588 = CARTESIAN_POINT('',(3.058250050415,11.344496293392));
#589 = CARTESIAN_POINT('',(3.072306154151,11.357925334661));
#590 = CARTESIAN_POINT('',(3.086572986328,11.370726852813));
#591 = CARTESIAN_POINT('',(3.126605591067,11.404341962008));
#592 = CARTESIAN_POINT('',(3.152826055824,11.423795042833));
#593 = CARTESIAN_POINT('',(3.179616406326,11.441059647602));
#594 = CARTESIAN_POINT('',(3.206888821549,11.456003195098));
#595 = CARTESIAN_POINT('',(3.234556439745,11.46853663878));
#596 = CARTESIAN_POINT('',(3.262532831928,11.478612654306));
#597 = CARTESIAN_POINT('',(3.328308026466,11.496366216421));
#598 = CARTESIAN_POINT('',(3.366129161395,11.50209122841));
#599 = CARTESIAN_POINT('',(3.404015339209,11.503453825395));
#600 = CARTESIAN_POINT('',(3.441787531149,11.500611286655));
#601 = CARTESIAN_POINT('',(3.479260430647,11.493821444093));
#602 = CARTESIAN_POINT('',(3.516235663339,11.483440917965));
#603 = CARTESIAN_POINT('',(3.576895698666,11.46082671337));
#604 = CARTESIAN_POINT('',(3.601015937795,11.450293147082));
#605 = CARTESIAN_POINT('',(3.62484895818,11.438428612488));
#606 = CARTESIAN_POINT('',(3.648387896856,11.425335928827));
#607 = CARTESIAN_POINT('',(3.671625675774,11.411115117444));
#608 = CARTESIAN_POINT('',(3.6945548934,11.395863743402));
#609 = CARTESIAN_POINT('',(3.75102582496,11.355441282011));
#610 = CARTESIAN_POINT('',(3.784191141076,11.329097191023));
#611 = CARTESIAN_POINT('',(3.816693907525,11.300919505251));
#612 = CARTESIAN_POINT('',(3.848565073411,11.271145853798));
#613 = CARTESIAN_POINT('',(3.879837585069,11.239978974309));
#614 = CARTESIAN_POINT('',(3.910547677071,11.207588713542));
#615 = CARTESIAN_POINT('',(4.065984724269,11.035231402855));
#616 = CARTESIAN_POINT('',(4.183748023689,10.876024459114));
#617 = CARTESIAN_POINT('',(4.295391554476,10.706864244716));
#618 = CARTESIAN_POINT('',(4.402293236319,10.533145325038));
#619 = CARTESIAN_POINT('',(4.506032784751,10.357418109322));
#620 = CARTESIAN_POINT('',(4.608531869107,10.179885985464));
#621 = CARTESIAN_POINT('',(4.712388980385,10.));
#622 = ( GEOMETRIC_REPRESENTATION_CONTEXT(2) 
PARAMETRIC_REPRESENTATION_CONTEXT() REPRESENTATION_CONTEXT('2D SPACE',''
  ) );
#623 = PCURVE('',#419,#624);
#624 = DEFINITIONAL_REPRESENTATION('',(#625),#688);
#625 = B_SPLINE_CURVE_WITH_KNOTS('',7,(#626,#627,#628,#629,#630,#631,
    #632,#633,#634,#635,#636,#637,#638,#639,#640,#641,#642,#643,#644,
    #645,#646,#647,#648,#649,#650,#651,#652,#653,#654,#655,#656,#657,
    #658,#659,#660,#661,#662,#663,#664,#665,#666,#667,#668,#669,#670,
    #671,#672,#673,#674,#675,#676,#677,#678,#679,#680,#681,#682,#683,
    #684,#685,#686,#687),.UNSPECIFIED.,.F.,.F.,(8,6,6,6,6,6,6,6,6,6,8),(
    0.,0.148899270984,0.22353934503,0.252681706604,0.29480541481,
    0.332086749137,0.397938206233,0.485689613507,0.54474188176,
    0.633160657351,1.),.UNSPECIFIED.);
#626 = CARTESIAN_POINT('',(0.,1.767949192431));
#627 = CARTESIAN_POINT('',(7.214109173035E-02,1.767949192431));
#628 = CARTESIAN_POINT('',(0.14402745738,1.762691445762));
#629 = CARTESIAN_POINT('',(0.215877614241,1.752239898086));
#630 = CARTESIAN_POINT('',(0.287858848466,1.737041553253));
#631 = CARTESIAN_POINT('',(0.360103739601,1.717908401944));
#632 = CARTESIAN_POINT('',(0.432694405841,1.695941052018));
#633 = CARTESIAN_POINT('',(0.542167765033,1.660590448839));
#634 = CARTESIAN_POINT('',(0.578874903568,1.648366999227));
#635 = CARTESIAN_POINT('',(0.61577901498,1.63586503411));
#636 = CARTESIAN_POINT('',(0.652921073755,1.623234295067));
#637 = CARTESIAN_POINT('',(0.690341412721,1.610633377551));
#638 = CARTESIAN_POINT('',(0.728081236309,1.598230165543));
#639 = CARTESIAN_POINT('',(0.781060973503,1.581506110745));
#640 = CARTESIAN_POINT('',(0.795992890766,1.576867261997));
#641 = CARTESIAN_POINT('',(0.810982293322,1.572296362931));
#642 = CARTESIAN_POINT('',(0.826031429902,1.567804355633));
#643 = CARTESIAN_POINT('',(0.841142390243,1.563402481305));
#644 = CARTESIAN_POINT('',(0.856317105091,1.559102280264));
#645 = CARTESIAN_POINT('',(0.89358629083,1.548863960317));
#646 = CARTESIAN_POINT('',(0.915755847085,1.543048436585));
#647 = CARTESIAN_POINT('',(0.938067598893,1.537506034424));
#648 = CARTESIAN_POINT('',(0.960523474848,1.532274390617));
#649 = CARTESIAN_POINT('',(0.983125748216,1.527391765062));
#650 = CARTESIAN_POINT('',(1.005877036931,1.522897040767));
#651 = CARTESIAN_POINT('',(1.049050701858,1.515229969503));
#652 = CARTESIAN_POINT('',(1.069441217533,1.511964722941));
#653 = CARTESIAN_POINT('',(1.089945888479,1.509062989158));
#654 = CARTESIAN_POINT('',(1.110559273485,1.50655299202));
#655 = CARTESIAN_POINT('',(1.131276452268,1.504462174262));
#656 = CARTESIAN_POINT('',(1.152093025473,1.502817197492));
#657 = CARTESIAN_POINT('',(1.209942943467,1.499571576141));
#658 = CARTESIAN_POINT('',(1.247209048767,1.498968957051));
#659 = CARTESIAN_POINT('',(1.284700556886,1.499987390531));
#660 = CARTESIAN_POINT('',(1.322325205221,1.502748693347));
#661 = CARTESIAN_POINT('',(1.35999793311,1.507342123842));
#662 = CARTESIAN_POINT('',(1.397637472703,1.51382131237));
#663 = CARTESIAN_POINT('',(1.485168098309,1.533367933337));
#664 = CARTESIAN_POINT('',(1.534771085603,1.547865315747));
#665 = CARTESIAN_POINT('',(1.583826270062,1.565691051468));
#666 = CARTESIAN_POINT('',(1.63218550713,1.586736596667));
#667 = CARTESIAN_POINT('',(1.679689538894,1.610785515947));
#668 = CARTESIAN_POINT('',(1.726159393633,1.637511847136));
#669 = CARTESIAN_POINT('',(1.801824210321,1.685971538665));
#670 = CARTESIAN_POINT('',(1.831753046837,1.706514179636));
#671 = CARTESIAN_POINT('',(1.861184688717,1.72802929812));
#672 = CARTESIAN_POINT('',(1.890126878629,1.750438695756));
#673 = CARTESIAN_POINT('',(1.918585013618,1.773663408752));
#674 = CARTESIAN_POINT('',(1.946562450616,1.797624049947));
#675 = CARTESIAN_POINT('',(2.015234021926,1.859100258689));
#676 = CARTESIAN_POINT('',(2.055353353997,1.897449031177));
#677 = CARTESIAN_POINT('',(2.094492128422,1.937086200058));
#678 = CARTESIAN_POINT('',(2.132716731246,1.977834505522));
#679 = CARTESIAN_POINT('',(2.170089785598,2.019541863131));
#680 = CARTESIAN_POINT('',(2.206673322984,2.062082530733));
#681 = CARTESIAN_POINT('',(2.391305297747,2.284904368482));
#682 = CARTESIAN_POINT('',(2.529374069149,2.479245624604));
#683 = CARTESIAN_POINT('',(2.659408070496,2.680239274116));
#684 = CARTESIAN_POINT('',(2.783345049525,2.883456383551));
#685 = CARTESIAN_POINT('',(2.903314575281,3.087291471125));
#686 = CARTESIAN_POINT('',(3.021668482095,3.292285069425));
#687 = CARTESIAN_POINT('',(3.14159265359,3.5));
#688 = ( GEOMETRIC_REPRESENTATION_CONTEXT(2) 
PARAMETRIC_REPRESENTATION_CONTEXT() REPRESENTATION_CONTEXT('2D SPACE',''
  ) );
#689 = ORIENTED_EDGE('',*,*,#690,.T.);
#690 = EDGE_CURVE('',#491,#691,#693,.T.);
#691 = VERTEX_POINT('',#692);
#692 = CARTESIAN_POINT('',(809.,276.5,127.));
#693 = SURFACE_CURVE('',#694,(#698,#705),.PCURVE_S1.);
#694 = LINE('',#695,#696);
#695 = CARTESIAN_POINT('',(809.,273.5,127.));
#696 = VECTOR('',#697,1.);
#697 = DIRECTION('',(-0.,1.,0.));
#698 = PCURVE('',#31,#699);
#699 = DEFINITIONAL_REPRESENTATION('',(#700),#704);
#700 = LINE('',#701,#702);
#701 = CARTESIAN_POINT('',(3.14159265359,8.5));
#702 = VECTOR('',#703,1.);
#703 = DIRECTION('',(0.,1.));
#704 = ( GEOMETRIC_REPRESENTATION_CONTEXT(2) 
PARAMETRIC_REPRESENTATION_CONTEXT() REPRESENTATION_CONTEXT('2D SPACE',''
  ) );
#705 = PCURVE('',#706,#711);
#706 = PLANE('',#707);
#707 = AXIS2_PLACEMENT_3D('',#708,#709,#710);
#708 = CARTESIAN_POINT('',(805.,273.5,127.));
#709 = DIRECTION('',(0.,0.,1.));
#710 = DIRECTION('',(1.,0.,-0.));
#711 = DEFINITIONAL_REPRESENTATION('',(#712),#716);
#712 = LINE('',#713,#714);
#713 = CARTESIAN_POINT('',(4.,0.));
#714 = VECTOR('',#715,1.);
#715 = DIRECTION('',(0.,1.));
#716 = ( GEOMETRIC_REPRESENTATION_CONTEXT(2) 
PARAMETRIC_REPRESENTATION_CONTEXT() REPRESENTATION_CONTEXT('2D SPACE',''
  ) );
#717 = ORIENTED_EDGE('',*,*,#718,.T.);
#718 = EDGE_CURVE('',#691,#719,#721,.T.);
#719 = VERTEX_POINT('',#720);
#720 = CARTESIAN_POINT('',(807.,276.5,129.));
#721 = SURFACE_CURVE('',#722,(#727,#734),.PCURVE_S1.);
#722 = CIRCLE('',#723,2.);
#723 = AXIS2_PLACEMENT_3D('',#724,#725,#726);
#724 = CARTESIAN_POINT('',(809.,276.5,129.));
#725 = DIRECTION('',(0.,1.,0.));
#726 = DIRECTION('',(0.,0.,-1.));
#727 = PCURVE('',#31,#728);
#728 = DEFINITIONAL_REPRESENTATION('',(#729),#733);
#729 = LINE('',#730,#731);
#730 = CARTESIAN_POINT('',(3.14159265359,11.5));
#731 = VECTOR('',#732,1.);
#732 = DIRECTION('',(1.,0.));
#733 = ( GEOMETRIC_REPRESENTATION_CONTEXT(2) 
PARAMETRIC_REPRESENTATION_CONTEXT() REPRESENTATION_CONTEXT('2D SPACE',''
  ) );
#734 = PCURVE('',#735,#740);
#735 = PLANE('',#736);
#736 = AXIS2_PLACEMENT_3D('',#737,#738,#739);
#737 = CARTESIAN_POINT('',(805.,276.5,127.));
#738 = DIRECTION('',(-0.,1.,0.));
#739 = DIRECTION('',(0.,0.,1.));
#740 = DEFINITIONAL_REPRESENTATION('',(#741),#745);
#741 = CIRCLE('',#742,2.);
#742 = AXIS2_PLACEMENT_2D('',#743,#744);
#743 = CARTESIAN_POINT('',(2.,4.));
#744 = DIRECTION('',(-1.,0.));
#745 = ( GEOMETRIC_REPRESENTATION_CONTEXT(2) 
PARAMETRIC_REPRESENTATION_CONTEXT() REPRESENTATION_CONTEXT('2D SPACE',''
  ) );
#746 = ORIENTED_EDGE('',*,*,#747,.F.);
#747 = EDGE_CURVE('',#748,#719,#750,.T.);
#748 = VERTEX_POINT('',#749);
#749 = CARTESIAN_POINT('',(807.,275.,129.));
#750 = SURFACE_CURVE('',#751,(#755,#761),.PCURVE_S1.);
#751 = LINE('',#752,#753);
#752 = CARTESIAN_POINT('',(807.,265.,129.));
#753 = VECTOR('',#754,1.);
#754 = DIRECTION('',(0.,1.,0.));
#755 = PCURVE('',#31,#756);
#756 = DEFINITIONAL_REPRESENTATION('',(#757),#760);
#757 = B_SPLINE_CURVE_WITH_KNOTS('',1,(#758,#759),.UNSPECIFIED.,.F.,.F.,
  (2,2),(8.2,11.8),.PIECEWISE_BEZIER_KNOTS.);
#758 = CARTESIAN_POINT('',(4.712388980385,8.2));
#759 = CARTESIAN_POINT('',(4.712388980385,11.8));
#760 = ( GEOMETRIC_REPRESENTATION_CONTEXT(2) 
PARAMETRIC_REPRESENTATION_CONTEXT() REPRESENTATION_CONTEXT('2D SPACE',''
  ) );
#761 = PCURVE('',#762,#767);
#762 = PLANE('',#763);
#763 = AXIS2_PLACEMENT_3D('',#764,#765,#766);
#764 = CARTESIAN_POINT('',(805.,273.5,129.));
#765 = DIRECTION('',(0.,0.,1.));
#766 = DIRECTION('',(1.,0.,-0.));
#767 = DEFINITIONAL_REPRESENTATION('',(#768),#771);
#768 = B_SPLINE_CURVE_WITH_KNOTS('',1,(#769,#770),.UNSPECIFIED.,.F.,.F.,
  (2,2),(8.2,11.8),.PIECEWISE_BEZIER_KNOTS.);
#769 = CARTESIAN_POINT('',(2.,-0.3));
#770 = CARTESIAN_POINT('',(2.,3.3));
#771 = ( GEOMETRIC_REPRESENTATION_CONTEXT(2) 
PARAMETRIC_REPRESENTATION_CONTEXT() REPRESENTATION_CONTEXT('2D SPACE',''
  ) );
#772 = ORIENTED_EDGE('',*,*,#773,.F.);
#773 = EDGE_CURVE('',#223,#748,#774,.T.);
#774 = SURFACE_CURVE('',#775,(#779,#785),.PCURVE_S1.);
#775 = LINE('',#776,#777);
#776 = CARTESIAN_POINT('',(807.,265.,129.));
#777 = VECTOR('',#778,1.);
#778 = DIRECTION('',(0.,1.,0.));
#779 = PCURVE('',#31,#780);
#780 = DEFINITIONAL_REPRESENTATION('',(#781),#784);
#781 = B_SPLINE_CURVE_WITH_KNOTS('',1,(#782,#783),.UNSPECIFIED.,.F.,.F.,
  (2,2),(8.2,11.8),.PIECEWISE_BEZIER_KNOTS.);
#782 = CARTESIAN_POINT('',(4.712388980385,8.2));
#783 = CARTESIAN_POINT('',(4.712388980385,11.8));
#784 = ( GEOMETRIC_REPRESENTATION_CONTEXT(2) 
PARAMETRIC_REPRESENTATION_CONTEXT() REPRESENTATION_CONTEXT('2D SPACE',''
  ) );
#785 = PCURVE('',#762,#786);
#786 = DEFINITIONAL_REPRESENTATION('',(#787),#790);
#787 = B_SPLINE_CURVE_WITH_KNOTS('',1,(#788,#789),.UNSPECIFIED.,.F.,.F.,
  (2,2),(8.2,11.8),.PIECEWISE_BEZIER_KNOTS.);
#788 = CARTESIAN_POINT('',(2.,-0.3));
#789 = CARTESIAN_POINT('',(2.,3.3));
#790 = ( GEOMETRIC_REPRESENTATION_CONTEXT(2) 
PARAMETRIC_REPRESENTATION_CONTEXT() REPRESENTATION_CONTEXT('2D SPACE',''
  ) );
#791 = FACE_BOUND('',#792,.T.);
#792 = EDGE_LOOP('',(#793,#832,#864));
#793 = ORIENTED_EDGE('',*,*,#794,.F.);
#794 = EDGE_CURVE('',#795,#797,#799,.T.);
#795 = VERTEX_POINT('',#796);
#796 = CARTESIAN_POINT('',(807.,275.,129.));
#797 = VERTEX_POINT('',#798);
#798 = CARTESIAN_POINT('',(807.06350832689,274.56815318328,129.5));
#799 = SURFACE_CURVE('',#800,(#807,#817),.PCURVE_S1.);
#800 = B_SPLINE_CURVE_WITH_KNOTS('',5,(#801,#802,#803,#804,#805,#806),
  .UNSPECIFIED.,.F.,.F.,(6,6),(0.,1.),.PIECEWISE_BEZIER_KNOTS.);
#801 = CARTESIAN_POINT('',(807.,275.,129.));
#802 = CARTESIAN_POINT('',(807.00000018359,274.91310609633,
    129.10033645117));
#803 = CARTESIAN_POINT('',(807.006291397,274.82623483648,129.20064668115
    ));
#804 = CARTESIAN_POINT('',(807.01887148674,274.73959672896,
    129.30081939087));
#805 = CARTESIAN_POINT('',(807.03786453948,274.65345435428,
    129.40068216554));
#806 = CARTESIAN_POINT('',(807.06350848181,274.56815266796,129.5000006)
  );
#807 = PCURVE('',#31,#808);
#808 = DEFINITIONAL_REPRESENTATION('',(#809),#816);
#809 = B_SPLINE_CURVE_WITH_KNOTS('',5,(#810,#811,#812,#813,#814,#815),
  .UNSPECIFIED.,.F.,.F.,(6,6),(0.,1.),.PIECEWISE_BEZIER_KNOTS.);
#810 = CARTESIAN_POINT('',(4.712388980385,10.));
#811 = CARTESIAN_POINT('',(4.762557216296,9.913106096334));
#812 = CARTESIAN_POINT('',(4.812712292379,9.826234836483));
#813 = CARTESIAN_POINT('',(4.863061734157,9.739596728964));
#814 = CARTESIAN_POINT('',(4.913781722247,9.65345435428));
#815 = CARTESIAN_POINT('',(4.965069545365,9.568152667966));
#816 = ( GEOMETRIC_REPRESENTATION_CONTEXT(2) 
PARAMETRIC_REPRESENTATION_CONTEXT() REPRESENTATION_CONTEXT('2D SPACE',''
  ) );
#817 = PCURVE('',#818,#823);
#818 = CYLINDRICAL_SURFACE('',#819,1.5);
#819 = AXIS2_PLACEMENT_3D('',#820,#821,#822);
#820 = CARTESIAN_POINT('',(808.5,275.,125.5));
#821 = DIRECTION('',(0.,0.,1.));
#822 = DIRECTION('',(1.,0.,-0.));
#823 = DEFINITIONAL_REPRESENTATION('',(#824),#831);
#824 = B_SPLINE_CURVE_WITH_KNOTS('',5,(#825,#826,#827,#828,#829,#830),
  .UNSPECIFIED.,.F.,.F.,(6,6),(0.,1.),.PIECEWISE_BEZIER_KNOTS.);
#825 = CARTESIAN_POINT('',(3.14159265359,3.5));
#826 = CARTESIAN_POINT('',(3.19952194803,3.600336451178));
#827 = CARTESIAN_POINT('',(3.257436016648,3.700646681159));
#828 = CARTESIAN_POINT('',(3.315599909222,3.800819390878));
#829 = CARTESIAN_POINT('',(3.374242101968,3.900682165545));
#830 = CARTESIAN_POINT('',(3.433624065059,4.0000006));
#831 = ( GEOMETRIC_REPRESENTATION_CONTEXT(2) 
PARAMETRIC_REPRESENTATION_CONTEXT() REPRESENTATION_CONTEXT('2D SPACE',''
  ) );
#832 = ORIENTED_EDGE('',*,*,#833,.F.);
#833 = EDGE_CURVE('',#834,#795,#836,.T.);
#834 = VERTEX_POINT('',#835);
#835 = CARTESIAN_POINT('',(807.06350832689,275.43184681671,129.5));
#836 = SURFACE_CURVE('',#837,(#844,#854),.PCURVE_S1.);
#837 = B_SPLINE_CURVE_WITH_KNOTS('',5,(#838,#839,#840,#841,#842,#843),
  .UNSPECIFIED.,.F.,.F.,(6,6),(0.,1.),.PIECEWISE_BEZIER_KNOTS.);
#838 = CARTESIAN_POINT('',(807.06350848181,275.43184733203,129.5000006)
  );
#839 = CARTESIAN_POINT('',(807.03786454044,275.3465456489,
    129.40068216925));
#840 = CARTESIAN_POINT('',(807.01887148635,275.2604032738,
    129.30081939399));
#841 = CARTESIAN_POINT('',(807.00629139693,275.17376516137,
    129.2006466788));
#842 = CARTESIAN_POINT('',(807.00000018218,275.08689388615,
    129.10033643086));
#843 = CARTESIAN_POINT('',(807.,275.,129.));
#844 = PCURVE('',#31,#845);
#845 = DEFINITIONAL_REPRESENTATION('',(#846),#853);
#846 = B_SPLINE_CURVE_WITH_KNOTS('',5,(#847,#848,#849,#850,#851,#852),
  .UNSPECIFIED.,.F.,.F.,(6,6),(0.,1.),.PIECEWISE_BEZIER_KNOTS.);
#847 = CARTESIAN_POINT('',(4.965069545365,10.431847332034));
#848 = CARTESIAN_POINT('',(4.913781724162,10.346545648905));
#849 = CARTESIAN_POINT('',(4.863061735638,10.260403273803));
#850 = CARTESIAN_POINT('',(4.812712291273,10.173765161374));
#851 = CARTESIAN_POINT('',(4.762557206071,10.086893886154));
#852 = CARTESIAN_POINT('',(4.712388980385,10.));
#853 = ( GEOMETRIC_REPRESENTATION_CONTEXT(2) 
PARAMETRIC_REPRESENTATION_CONTEXT() REPRESENTATION_CONTEXT('2D SPACE',''
  ) );
#854 = PCURVE('',#818,#855);
#855 = DEFINITIONAL_REPRESENTATION('',(#856),#863);
#856 = B_SPLINE_CURVE_WITH_KNOTS('',5,(#857,#858,#859,#860,#861,#862),
  .UNSPECIFIED.,.F.,.F.,(6,6),(0.,1.),.PIECEWISE_BEZIER_KNOTS.);
#857 = CARTESIAN_POINT('',(2.84956124212,4.0000006));
#858 = CARTESIAN_POINT('',(2.908943202994,3.900682169253));
#859 = CARTESIAN_POINT('',(2.967585396278,3.80081939399));
#860 = CARTESIAN_POINT('',(3.025749291757,3.700646678809));
#861 = CARTESIAN_POINT('',(3.083663370994,3.600336430862));
#862 = CARTESIAN_POINT('',(3.14159265359,3.5));
#863 = ( GEOMETRIC_REPRESENTATION_CONTEXT(2) 
PARAMETRIC_REPRESENTATION_CONTEXT() REPRESENTATION_CONTEXT('2D SPACE',''
  ) );
#864 = ORIENTED_EDGE('',*,*,#865,.F.);
#865 = EDGE_CURVE('',#797,#834,#866,.T.);
#866 = SURFACE_CURVE('',#867,(#871,#877),.PCURVE_S1.);
#867 = LINE('',#868,#869);
#868 = CARTESIAN_POINT('',(807.06350832689,265.,129.5));
#869 = VECTOR('',#870,1.);
#870 = DIRECTION('',(0.,1.,0.));
#871 = PCURVE('',#31,#872);
#872 = DEFINITIONAL_REPRESENTATION('',(#873),#876);
#873 = B_SPLINE_CURVE_WITH_KNOTS('',1,(#874,#875),.UNSPECIFIED.,.F.,.F.,
  (2,2),(8.2,11.8),.PIECEWISE_BEZIER_KNOTS.);
#874 = CARTESIAN_POINT('',(4.965069235527,8.2));
#875 = CARTESIAN_POINT('',(4.965069235527,11.8));
#876 = ( GEOMETRIC_REPRESENTATION_CONTEXT(2) 
PARAMETRIC_REPRESENTATION_CONTEXT() REPRESENTATION_CONTEXT('2D SPACE',''
  ) );
#877 = PCURVE('',#878,#883);
#878 = PLANE('',#879);
#879 = AXIS2_PLACEMENT_3D('',#880,#881,#882);
#880 = CARTESIAN_POINT('',(808.5,275.,129.5));
#881 = DIRECTION('',(0.,0.,1.));
#882 = DIRECTION('',(1.,0.,-0.));
#883 = DEFINITIONAL_REPRESENTATION('',(#884),#887);
#884 = B_SPLINE_CURVE_WITH_KNOTS('',1,(#885,#886),.UNSPECIFIED.,.F.,.F.,
  (2,2),(8.2,11.8),.PIECEWISE_BEZIER_KNOTS.);
#885 = CARTESIAN_POINT('',(-1.436491673104,-1.8));
#886 = CARTESIAN_POINT('',(-1.436491673104,1.8));
#887 = ( GEOMETRIC_REPRESENTATION_CONTEXT(2) 
PARAMETRIC_REPRESENTATION_CONTEXT() REPRESENTATION_CONTEXT('2D SPACE',''
  ) );
#888 = ADVANCED_FACE('',(#889),#878,.T.);
#889 = FACE_BOUND('',#890,.T.);
#890 = EDGE_LOOP('',(#891,#892));
#891 = ORIENTED_EDGE('',*,*,#865,.T.);
#892 = ORIENTED_EDGE('',*,*,#893,.T.);
#893 = EDGE_CURVE('',#834,#797,#894,.T.);
#894 = SURFACE_CURVE('',#895,(#900,#907),.PCURVE_S1.);
#895 = CIRCLE('',#896,1.5);
#896 = AXIS2_PLACEMENT_3D('',#897,#898,#899);
#897 = CARTESIAN_POINT('',(808.5,275.,129.5));
#898 = DIRECTION('',(0.,0.,1.));
#899 = DIRECTION('',(1.,0.,-0.));
#900 = PCURVE('',#878,#901);
#901 = DEFINITIONAL_REPRESENTATION('',(#902),#906);
#902 = CIRCLE('',#903,1.5);
#903 = AXIS2_PLACEMENT_2D('',#904,#905);
#904 = CARTESIAN_POINT('',(0.,0.));
#905 = DIRECTION('',(1.,0.));
#906 = ( GEOMETRIC_REPRESENTATION_CONTEXT(2) 
PARAMETRIC_REPRESENTATION_CONTEXT() REPRESENTATION_CONTEXT('2D SPACE',''
  ) );
#907 = PCURVE('',#818,#908);
#908 = DEFINITIONAL_REPRESENTATION('',(#909),#913);
#909 = LINE('',#910,#911);
#910 = CARTESIAN_POINT('',(0.,4.));
#911 = VECTOR('',#912,1.);
#912 = DIRECTION('',(1.,0.));
#913 = ( GEOMETRIC_REPRESENTATION_CONTEXT(2) 
PARAMETRIC_REPRESENTATION_CONTEXT() REPRESENTATION_CONTEXT('2D SPACE',''
  ) );
#914 = ADVANCED_FACE('',(#915),#818,.T.);
#915 = FACE_BOUND('',#916,.T.);
#916 = EDGE_LOOP('',(#917,#918,#919));
#917 = ORIENTED_EDGE('',*,*,#893,.F.);
#918 = ORIENTED_EDGE('',*,*,#833,.T.);
#919 = ORIENTED_EDGE('',*,*,#794,.T.);
#920 = ADVANCED_FACE('',(#921),#762,.T.);
#921 = FACE_BOUND('',#922,.T.);
#922 = EDGE_LOOP('',(#923,#946,#974,#995,#996));
#923 = ORIENTED_EDGE('',*,*,#924,.F.);
#924 = EDGE_CURVE('',#925,#719,#927,.T.);
#925 = VERTEX_POINT('',#926);
#926 = CARTESIAN_POINT('',(805.,276.5,129.));
#927 = SURFACE_CURVE('',#928,(#932,#939),.PCURVE_S1.);
#928 = LINE('',#929,#930);
#929 = CARTESIAN_POINT('',(805.,276.5,129.));
#930 = VECTOR('',#931,1.);
#931 = DIRECTION('',(1.,0.,-0.));
#932 = PCURVE('',#762,#933);
#933 = DEFINITIONAL_REPRESENTATION('',(#934),#938);
#934 = LINE('',#935,#936);
#935 = CARTESIAN_POINT('',(0.,3.));
#936 = VECTOR('',#937,1.);
#937 = DIRECTION('',(1.,0.));
#938 = ( GEOMETRIC_REPRESENTATION_CONTEXT(2) 
PARAMETRIC_REPRESENTATION_CONTEXT() REPRESENTATION_CONTEXT('2D SPACE',''
  ) );
#939 = PCURVE('',#735,#940);
#940 = DEFINITIONAL_REPRESENTATION('',(#941),#945);
#941 = LINE('',#942,#943);
#942 = CARTESIAN_POINT('',(2.,0.));
#943 = VECTOR('',#944,1.);
#944 = DIRECTION('',(0.,1.));
#945 = ( GEOMETRIC_REPRESENTATION_CONTEXT(2) 
PARAMETRIC_REPRESENTATION_CONTEXT() REPRESENTATION_CONTEXT('2D SPACE',''
  ) );
#946 = ORIENTED_EDGE('',*,*,#947,.F.);
#947 = EDGE_CURVE('',#948,#925,#950,.T.);
#948 = VERTEX_POINT('',#949);
#949 = CARTESIAN_POINT('',(805.,273.5,129.));
#950 = SURFACE_CURVE('',#951,(#955,#962),.PCURVE_S1.);
#951 = LINE('',#952,#953);
#952 = CARTESIAN_POINT('',(805.,273.5,129.));
#953 = VECTOR('',#954,1.);
#954 = DIRECTION('',(-0.,1.,0.));
#955 = PCURVE('',#762,#956);
#956 = DEFINITIONAL_REPRESENTATION('',(#957),#961);
#957 = LINE('',#958,#959);
#958 = CARTESIAN_POINT('',(0.,0.));
#959 = VECTOR('',#960,1.);
#960 = DIRECTION('',(0.,1.));
#961 = ( GEOMETRIC_REPRESENTATION_CONTEXT(2) 
PARAMETRIC_REPRESENTATION_CONTEXT() REPRESENTATION_CONTEXT('2D SPACE',''
  ) );
#962 = PCURVE('',#963,#968);
#963 = PLANE('',#964);
#964 = AXIS2_PLACEMENT_3D('',#965,#966,#967);
#965 = CARTESIAN_POINT('',(805.,273.5,127.));
#966 = DIRECTION('',(1.,0.,-0.));
#967 = DIRECTION('',(0.,0.,1.));
#968 = DEFINITIONAL_REPRESENTATION('',(#969),#973);
#969 = LINE('',#970,#971);
#970 = CARTESIAN_POINT('',(2.,0.));
#971 = VECTOR('',#972,1.);
#972 = DIRECTION('',(0.,-1.));
#973 = ( GEOMETRIC_REPRESENTATION_CONTEXT(2) 
PARAMETRIC_REPRESENTATION_CONTEXT() REPRESENTATION_CONTEXT('2D SPACE',''
  ) );
#974 = ORIENTED_EDGE('',*,*,#975,.T.);
#975 = EDGE_CURVE('',#948,#223,#976,.T.);
#976 = SURFACE_CURVE('',#977,(#981,#988),.PCURVE_S1.);
#977 = LINE('',#978,#979);
#978 = CARTESIAN_POINT('',(805.,273.5,129.));
#979 = VECTOR('',#980,1.);
#980 = DIRECTION('',(1.,0.,-0.));
#981 = PCURVE('',#762,#982);
#982 = DEFINITIONAL_REPRESENTATION('',(#983),#987);
#983 = LINE('',#984,#985);
#984 = CARTESIAN_POINT('',(0.,0.));
#985 = VECTOR('',#986,1.);
#986 = DIRECTION('',(1.,0.));
#987 = ( GEOMETRIC_REPRESENTATION_CONTEXT(2) 
PARAMETRIC_REPRESENTATION_CONTEXT() REPRESENTATION_CONTEXT('2D SPACE',''
  ) );
#988 = PCURVE('',#241,#989);
#989 = DEFINITIONAL_REPRESENTATION('',(#990),#994);
#990 = LINE('',#991,#992);
#991 = CARTESIAN_POINT('',(2.,0.));
#992 = VECTOR('',#993,1.);
#993 = DIRECTION('',(0.,1.));
#994 = ( GEOMETRIC_REPRESENTATION_CONTEXT(2) 
PARAMETRIC_REPRESENTATION_CONTEXT() REPRESENTATION_CONTEXT('2D SPACE',''
  ) );
#995 = ORIENTED_EDGE('',*,*,#773,.T.);
#996 = ORIENTED_EDGE('',*,*,#747,.T.);
#997 = ADVANCED_FACE('',(#998),#963,.F.);
#998 = FACE_BOUND('',#999,.F.);
#999 = EDGE_LOOP('',(#1000,#1023,#1051,#1072));
#1000 = ORIENTED_EDGE('',*,*,#1001,.F.);
#1001 = EDGE_CURVE('',#1002,#948,#1004,.T.);
#1002 = VERTEX_POINT('',#1003);
#1003 = CARTESIAN_POINT('',(805.,273.5,127.));
#1004 = SURFACE_CURVE('',#1005,(#1009,#1016),.PCURVE_S1.);
#1005 = LINE('',#1006,#1007);
#1006 = CARTESIAN_POINT('',(805.,273.5,127.));
#1007 = VECTOR('',#1008,1.);
#1008 = DIRECTION('',(0.,0.,1.));
#1009 = PCURVE('',#963,#1010);
#1010 = DEFINITIONAL_REPRESENTATION('',(#1011),#1015);
#1011 = LINE('',#1012,#1013);
#1012 = CARTESIAN_POINT('',(0.,0.));
#1013 = VECTOR('',#1014,1.);
#1014 = DIRECTION('',(1.,0.));
#1015 = ( GEOMETRIC_REPRESENTATION_CONTEXT(2) 
PARAMETRIC_REPRESENTATION_CONTEXT() REPRESENTATION_CONTEXT('2D SPACE',''
  ) );
#1016 = PCURVE('',#241,#1017);
#1017 = DEFINITIONAL_REPRESENTATION('',(#1018),#1022);
#1018 = LINE('',#1019,#1020);
#1019 = CARTESIAN_POINT('',(0.,0.));
#1020 = VECTOR('',#1021,1.);
#1021 = DIRECTION('',(1.,0.));
#1022 = ( GEOMETRIC_REPRESENTATION_CONTEXT(2) 
PARAMETRIC_REPRESENTATION_CONTEXT() REPRESENTATION_CONTEXT('2D SPACE',''
  ) );
#1023 = ORIENTED_EDGE('',*,*,#1024,.T.);
#1024 = EDGE_CURVE('',#1002,#1025,#1027,.T.);
#1025 = VERTEX_POINT('',#1026);
#1026 = CARTESIAN_POINT('',(805.,276.5,127.));
#1027 = SURFACE_CURVE('',#1028,(#1032,#1039),.PCURVE_S1.);
#1028 = LINE('',#1029,#1030);
#1029 = CARTESIAN_POINT('',(805.,273.5,127.));
#1030 = VECTOR('',#1031,1.);
#1031 = DIRECTION('',(-0.,1.,0.));
#1032 = PCURVE('',#963,#1033);
#1033 = DEFINITIONAL_REPRESENTATION('',(#1034),#1038);
#1034 = LINE('',#1035,#1036);
#1035 = CARTESIAN_POINT('',(0.,0.));
#1036 = VECTOR('',#1037,1.);
#1037 = DIRECTION('',(0.,-1.));
#1038 = ( GEOMETRIC_REPRESENTATION_CONTEXT(2) 
PARAMETRIC_REPRESENTATION_CONTEXT() REPRESENTATION_CONTEXT('2D SPACE',''
  ) );
#1039 = PCURVE('',#1040,#1045);
#1040 = PLANE('',#1041);
#1041 = AXIS2_PLACEMENT_3D('',#1042,#1043,#1044);
#1042 = CARTESIAN_POINT('',(805.,273.5,127.));
#1043 = DIRECTION('',(0.,0.,1.));
#1044 = DIRECTION('',(1.,0.,-0.));
#1045 = DEFINITIONAL_REPRESENTATION('',(#1046),#1050);
#1046 = LINE('',#1047,#1048);
#1047 = CARTESIAN_POINT('',(0.,0.));
#1048 = VECTOR('',#1049,1.);
#1049 = DIRECTION('',(0.,1.));
#1050 = ( GEOMETRIC_REPRESENTATION_CONTEXT(2) 
PARAMETRIC_REPRESENTATION_CONTEXT() REPRESENTATION_CONTEXT('2D SPACE',''
  ) );
#1051 = ORIENTED_EDGE('',*,*,#1052,.T.);
#1052 = EDGE_CURVE('',#1025,#925,#1053,.T.);
#1053 = SURFACE_CURVE('',#1054,(#1058,#1065),.PCURVE_S1.);
#1054 = LINE('',#1055,#1056);
#1055 = CARTESIAN_POINT('',(805.,276.5,127.));
#1056 = VECTOR('',#1057,1.);
#1057 = DIRECTION('',(0.,0.,1.));
#1058 = PCURVE('',#963,#1059);
#1059 = DEFINITIONAL_REPRESENTATION('',(#1060),#1064);
#1060 = LINE('',#1061,#1062);
#1061 = CARTESIAN_POINT('',(0.,-3.));
#1062 = VECTOR('',#1063,1.);
#1063 = DIRECTION('',(1.,0.));
#1064 = ( GEOMETRIC_REPRESENTATION_CONTEXT(2) 
PARAMETRIC_REPRESENTATION_CONTEXT() REPRESENTATION_CONTEXT('2D SPACE',''
  ) );
#1065 = PCURVE('',#735,#1066);
#1066 = DEFINITIONAL_REPRESENTATION('',(#1067),#1071);
#1067 = LINE('',#1068,#1069);
#1068 = CARTESIAN_POINT('',(0.,0.));
#1069 = VECTOR('',#1070,1.);
#1070 = DIRECTION('',(1.,0.));
#1071 = ( GEOMETRIC_REPRESENTATION_CONTEXT(2) 
PARAMETRIC_REPRESENTATION_CONTEXT() REPRESENTATION_CONTEXT('2D SPACE',''
  ) );
#1072 = ORIENTED_EDGE('',*,*,#947,.F.);
#1073 = ADVANCED_FACE('',(#1074),#1040,.F.);
#1074 = FACE_BOUND('',#1075,.F.);
#1075 = EDGE_LOOP('',(#1076,#1099,#1100,#1123));
#1076 = ORIENTED_EDGE('',*,*,#1077,.F.);
#1077 = EDGE_CURVE('',#1025,#1078,#1080,.T.);
#1078 = VERTEX_POINT('',#1079);
#1079 = CARTESIAN_POINT('',(808.5,276.5,127.));
#1080 = SURFACE_CURVE('',#1081,(#1085,#1092),.PCURVE_S1.);
#1081 = LINE('',#1082,#1083);
#1082 = CARTESIAN_POINT('',(805.,276.5,127.));
#1083 = VECTOR('',#1084,1.);
#1084 = DIRECTION('',(1.,0.,-0.));
#1085 = PCURVE('',#1040,#1086);
#1086 = DEFINITIONAL_REPRESENTATION('',(#1087),#1091);
#1087 = LINE('',#1088,#1089);
#1088 = CARTESIAN_POINT('',(0.,3.));
#1089 = VECTOR('',#1090,1.);
#1090 = DIRECTION('',(1.,0.));
#1091 = ( GEOMETRIC_REPRESENTATION_CONTEXT(2) 
PARAMETRIC_REPRESENTATION_CONTEXT() REPRESENTATION_CONTEXT('2D SPACE',''
  ) );
#1092 = PCURVE('',#735,#1093);
#1093 = DEFINITIONAL_REPRESENTATION('',(#1094),#1098);
#1094 = LINE('',#1095,#1096);
#1095 = CARTESIAN_POINT('',(0.,0.));
#1096 = VECTOR('',#1097,1.);
#1097 = DIRECTION('',(0.,1.));
#1098 = ( GEOMETRIC_REPRESENTATION_CONTEXT(2) 
PARAMETRIC_REPRESENTATION_CONTEXT() REPRESENTATION_CONTEXT('2D SPACE',''
  ) );
#1099 = ORIENTED_EDGE('',*,*,#1024,.F.);
#1100 = ORIENTED_EDGE('',*,*,#1101,.T.);
#1101 = EDGE_CURVE('',#1002,#1102,#1104,.T.);
#1102 = VERTEX_POINT('',#1103);
#1103 = CARTESIAN_POINT('',(808.5,273.5,127.));
#1104 = SURFACE_CURVE('',#1105,(#1109,#1116),.PCURVE_S1.);
#1105 = LINE('',#1106,#1107);
#1106 = CARTESIAN_POINT('',(805.,273.5,127.));
#1107 = VECTOR('',#1108,1.);
#1108 = DIRECTION('',(1.,0.,-0.));
#1109 = PCURVE('',#1040,#1110);
#1110 = DEFINITIONAL_REPRESENTATION('',(#1111),#1115);
#1111 = LINE('',#1112,#1113);
#1112 = CARTESIAN_POINT('',(0.,0.));
#1113 = VECTOR('',#1114,1.);
#1114 = DIRECTION('',(1.,0.));
#1115 = ( GEOMETRIC_REPRESENTATION_CONTEXT(2) 
PARAMETRIC_REPRESENTATION_CONTEXT() REPRESENTATION_CONTEXT('2D SPACE',''
  ) );
#1116 = PCURVE('',#241,#1117);
#1117 = DEFINITIONAL_REPRESENTATION('',(#1118),#1122);
#1118 = LINE('',#1119,#1120);
#1119 = CARTESIAN_POINT('',(0.,0.));
#1120 = VECTOR('',#1121,1.);
#1121 = DIRECTION('',(0.,1.));
#1122 = ( GEOMETRIC_REPRESENTATION_CONTEXT(2) 
PARAMETRIC_REPRESENTATION_CONTEXT() REPRESENTATION_CONTEXT('2D SPACE',''
  ) );
#1123 = ORIENTED_EDGE('',*,*,#1124,.F.);
#1124 = EDGE_CURVE('',#1078,#1102,#1125,.T.);
#1125 = SURFACE_CURVE('',#1126,(#1131,#1138),.PCURVE_S1.);
#1126 = CIRCLE('',#1127,1.5);
#1127 = AXIS2_PLACEMENT_3D('',#1128,#1129,#1130);
#1128 = CARTESIAN_POINT('',(808.5,275.,127.));
#1129 = DIRECTION('',(0.,0.,1.));
#1130 = DIRECTION('',(1.,0.,-0.));
#1131 = PCURVE('',#1040,#1132);
#1132 = DEFINITIONAL_REPRESENTATION('',(#1133),#1137);
#1133 = CIRCLE('',#1134,1.5);
#1134 = AXIS2_PLACEMENT_2D('',#1135,#1136);
#1135 = CARTESIAN_POINT('',(3.5,1.5));
#1136 = DIRECTION('',(1.,0.));
#1137 = ( GEOMETRIC_REPRESENTATION_CONTEXT(2) 
PARAMETRIC_REPRESENTATION_CONTEXT() REPRESENTATION_CONTEXT('2D SPACE',''
  ) );
#1138 = PCURVE('',#419,#1139);
#1139 = DEFINITIONAL_REPRESENTATION('',(#1140),#1144);
#1140 = LINE('',#1141,#1142);
#1141 = CARTESIAN_POINT('',(0.,1.5));
#1142 = VECTOR('',#1143,1.);
#1143 = DIRECTION('',(1.,0.));
#1144 = ( GEOMETRIC_REPRESENTATION_CONTEXT(2) 
PARAMETRIC_REPRESENTATION_CONTEXT() REPRESENTATION_CONTEXT('2D SPACE',''
  ) );
#1145 = ADVANCED_FACE('',(#1146),#735,.T.);
#1146 = FACE_BOUND('',#1147,.T.);
#1147 = EDGE_LOOP('',(#1148,#1149,#1170,#1171,#1172));
#1148 = ORIENTED_EDGE('',*,*,#718,.F.);
#1149 = ORIENTED_EDGE('',*,*,#1150,.F.);
#1150 = EDGE_CURVE('',#1078,#691,#1151,.T.);
#1151 = SURFACE_CURVE('',#1152,(#1156,#1163),.PCURVE_S1.);
#1152 = LINE('',#1153,#1154);
#1153 = CARTESIAN_POINT('',(805.,276.5,127.));
#1154 = VECTOR('',#1155,1.);
#1155 = DIRECTION('',(1.,0.,-0.));
#1156 = PCURVE('',#735,#1157);
#1157 = DEFINITIONAL_REPRESENTATION('',(#1158),#1162);
#1158 = LINE('',#1159,#1160);
#1159 = CARTESIAN_POINT('',(0.,0.));
#1160 = VECTOR('',#1161,1.);
#1161 = DIRECTION('',(0.,1.));
#1162 = ( GEOMETRIC_REPRESENTATION_CONTEXT(2) 
PARAMETRIC_REPRESENTATION_CONTEXT() REPRESENTATION_CONTEXT('2D SPACE',''
  ) );
#1163 = PCURVE('',#706,#1164);
#1164 = DEFINITIONAL_REPRESENTATION('',(#1165),#1169);
#1165 = LINE('',#1166,#1167);
#1166 = CARTESIAN_POINT('',(0.,3.));
#1167 = VECTOR('',#1168,1.);
#1168 = DIRECTION('',(1.,0.));
#1169 = ( GEOMETRIC_REPRESENTATION_CONTEXT(2) 
PARAMETRIC_REPRESENTATION_CONTEXT() REPRESENTATION_CONTEXT('2D SPACE',''
  ) );
#1170 = ORIENTED_EDGE('',*,*,#1077,.F.);
#1171 = ORIENTED_EDGE('',*,*,#1052,.T.);
#1172 = ORIENTED_EDGE('',*,*,#924,.T.);
#1173 = ADVANCED_FACE('',(#1174),#706,.F.);
#1174 = FACE_BOUND('',#1175,.F.);
#1175 = EDGE_LOOP('',(#1176,#1177,#1199));
#1176 = ORIENTED_EDGE('',*,*,#1150,.F.);
#1177 = ORIENTED_EDGE('',*,*,#1178,.F.);
#1178 = EDGE_CURVE('',#491,#1078,#1179,.T.);
#1179 = SURFACE_CURVE('',#1180,(#1185,#1192),.PCURVE_S1.);
#1180 = CIRCLE('',#1181,1.5);
#1181 = AXIS2_PLACEMENT_3D('',#1182,#1183,#1184);
#1182 = CARTESIAN_POINT('',(808.5,275.,127.));
#1183 = DIRECTION('',(0.,0.,1.));
#1184 = DIRECTION('',(1.,0.,-0.));
#1185 = PCURVE('',#706,#1186);
#1186 = DEFINITIONAL_REPRESENTATION('',(#1187),#1191);
#1187 = CIRCLE('',#1188,1.5);
#1188 = AXIS2_PLACEMENT_2D('',#1189,#1190);
#1189 = CARTESIAN_POINT('',(3.5,1.5));
#1190 = DIRECTION('',(1.,0.));
#1191 = ( GEOMETRIC_REPRESENTATION_CONTEXT(2) 
PARAMETRIC_REPRESENTATION_CONTEXT() REPRESENTATION_CONTEXT('2D SPACE',''
  ) );
#1192 = PCURVE('',#419,#1193);
#1193 = DEFINITIONAL_REPRESENTATION('',(#1194),#1198);
#1194 = LINE('',#1195,#1196);
#1195 = CARTESIAN_POINT('',(0.,1.5));
#1196 = VECTOR('',#1197,1.);
#1197 = DIRECTION('',(1.,0.));
#1198 = ( GEOMETRIC_REPRESENTATION_CONTEXT(2) 
PARAMETRIC_REPRESENTATION_CONTEXT() REPRESENTATION_CONTEXT('2D SPACE',''
  ) );
#1199 = ORIENTED_EDGE('',*,*,#690,.T.);
#1200 = ADVANCED_FACE('',(#1201),#419,.T.);
#1201 = FACE_BOUND('',#1202,.T.);
#1202 = EDGE_LOOP('',(#1203,#1204,#1227,#1254,#1255,#1256,#1278,#1279));
#1203 = ORIENTED_EDGE('',*,*,#490,.F.);
#1204 = ORIENTED_EDGE('',*,*,#1205,.F.);
#1205 = EDGE_CURVE('',#1206,#286,#1208,.T.);
#1206 = VERTEX_POINT('',#1207);
#1207 = CARTESIAN_POINT('',(810.,275.,125.5));
#1208 = SEAM_CURVE('',#1209,(#1213,#1220),.PCURVE_S1.);
#1209 = LINE('',#1210,#1211);
#1210 = CARTESIAN_POINT('',(810.,275.,125.5));
#1211 = VECTOR('',#1212,1.);
#1212 = DIRECTION('',(0.,0.,1.));
#1213 = PCURVE('',#419,#1214);
#1214 = DEFINITIONAL_REPRESENTATION('',(#1215),#1219);
#1215 = LINE('',#1216,#1217);
#1216 = CARTESIAN_POINT('',(6.28318530718,-0.));
#1217 = VECTOR('',#1218,1.);
#1218 = DIRECTION('',(0.,1.));
#1219 = ( GEOMETRIC_REPRESENTATION_CONTEXT(2) 
PARAMETRIC_REPRESENTATION_CONTEXT() REPRESENTATION_CONTEXT('2D SPACE',''
  ) );
#1220 = PCURVE('',#419,#1221);
#1221 = DEFINITIONAL_REPRESENTATION('',(#1222),#1226);
#1222 = LINE('',#1223,#1224);
#1223 = CARTESIAN_POINT('',(0.,-0.));
#1224 = VECTOR('',#1225,1.);
#1225 = DIRECTION('',(0.,1.));
#1226 = ( GEOMETRIC_REPRESENTATION_CONTEXT(2) 
PARAMETRIC_REPRESENTATION_CONTEXT() REPRESENTATION_CONTEXT('2D SPACE',''
  ) );
#1227 = ORIENTED_EDGE('',*,*,#1228,.T.);
#1228 = EDGE_CURVE('',#1206,#1206,#1229,.T.);
#1229 = SURFACE_CURVE('',#1230,(#1235,#1242),.PCURVE_S1.);
#1230 = CIRCLE('',#1231,1.5);
#1231 = AXIS2_PLACEMENT_3D('',#1232,#1233,#1234);
#1232 = CARTESIAN_POINT('',(808.5,275.,125.5));
#1233 = DIRECTION('',(0.,0.,1.));
#1234 = DIRECTION('',(1.,0.,-0.));
#1235 = PCURVE('',#419,#1236);
#1236 = DEFINITIONAL_REPRESENTATION('',(#1237),#1241);
#1237 = LINE('',#1238,#1239);
#1238 = CARTESIAN_POINT('',(0.,0.));
#1239 = VECTOR('',#1240,1.);
#1240 = DIRECTION('',(1.,0.));
#1241 = ( GEOMETRIC_REPRESENTATION_CONTEXT(2) 
PARAMETRIC_REPRESENTATION_CONTEXT() REPRESENTATION_CONTEXT('2D SPACE',''
  ) );
#1242 = PCURVE('',#1243,#1248);
#1243 = PLANE('',#1244);
#1244 = AXIS2_PLACEMENT_3D('',#1245,#1246,#1247);
#1245 = CARTESIAN_POINT('',(808.5,275.,125.5));
#1246 = DIRECTION('',(0.,0.,1.));
#1247 = DIRECTION('',(1.,0.,-0.));
#1248 = DEFINITIONAL_REPRESENTATION('',(#1249),#1253);
#1249 = CIRCLE('',#1250,1.5);
#1250 = AXIS2_PLACEMENT_2D('',#1251,#1252);
#1251 = CARTESIAN_POINT('',(0.,0.));
#1252 = DIRECTION('',(1.,0.));
#1253 = ( GEOMETRIC_REPRESENTATION_CONTEXT(2) 
PARAMETRIC_REPRESENTATION_CONTEXT() REPRESENTATION_CONTEXT('2D SPACE',''
  ) );
#1254 = ORIENTED_EDGE('',*,*,#1205,.T.);
#1255 = ORIENTED_EDGE('',*,*,#285,.F.);
#1256 = ORIENTED_EDGE('',*,*,#1257,.F.);
#1257 = EDGE_CURVE('',#1102,#258,#1258,.T.);
#1258 = SURFACE_CURVE('',#1259,(#1264,#1271),.PCURVE_S1.);
#1259 = CIRCLE('',#1260,1.5);
#1260 = AXIS2_PLACEMENT_3D('',#1261,#1262,#1263);
#1261 = CARTESIAN_POINT('',(808.5,275.,127.));
#1262 = DIRECTION('',(0.,0.,1.));
#1263 = DIRECTION('',(1.,0.,-0.));
#1264 = PCURVE('',#419,#1265);
#1265 = DEFINITIONAL_REPRESENTATION('',(#1266),#1270);
#1266 = LINE('',#1267,#1268);
#1267 = CARTESIAN_POINT('',(0.,1.5));
#1268 = VECTOR('',#1269,1.);
#1269 = DIRECTION('',(1.,0.));
#1270 = ( GEOMETRIC_REPRESENTATION_CONTEXT(2) 
PARAMETRIC_REPRESENTATION_CONTEXT() REPRESENTATION_CONTEXT('2D SPACE',''
  ) );
#1271 = PCURVE('',#273,#1272);
#1272 = DEFINITIONAL_REPRESENTATION('',(#1273),#1277);
#1273 = CIRCLE('',#1274,1.5);
#1274 = AXIS2_PLACEMENT_2D('',#1275,#1276);
#1275 = CARTESIAN_POINT('',(3.5,1.5));
#1276 = DIRECTION('',(1.,0.));
#1277 = ( GEOMETRIC_REPRESENTATION_CONTEXT(2) 
PARAMETRIC_REPRESENTATION_CONTEXT() REPRESENTATION_CONTEXT('2D SPACE',''
  ) );
#1278 = ORIENTED_EDGE('',*,*,#1124,.F.);
#1279 = ORIENTED_EDGE('',*,*,#1178,.F.);
#1280 = ADVANCED_FACE('',(#1281),#1243,.F.);
#1281 = FACE_BOUND('',#1282,.F.);
#1282 = EDGE_LOOP('',(#1283));
#1283 = ORIENTED_EDGE('',*,*,#1228,.T.);
#1284 = ADVANCED_FACE('',(#1285),#273,.F.);
#1285 = FACE_BOUND('',#1286,.F.);
#1286 = EDGE_LOOP('',(#1287,#1288,#1309));
#1287 = ORIENTED_EDGE('',*,*,#1257,.F.);
#1288 = ORIENTED_EDGE('',*,*,#1289,.T.);
#1289 = EDGE_CURVE('',#1102,#225,#1290,.T.);
#1290 = SURFACE_CURVE('',#1291,(#1295,#1302),.PCURVE_S1.);
#1291 = LINE('',#1292,#1293);
#1292 = CARTESIAN_POINT('',(805.,273.5,127.));
#1293 = VECTOR('',#1294,1.);
#1294 = DIRECTION('',(1.,0.,-0.));
#1295 = PCURVE('',#273,#1296);
#1296 = DEFINITIONAL_REPRESENTATION('',(#1297),#1301);
#1297 = LINE('',#1298,#1299);
#1298 = CARTESIAN_POINT('',(0.,0.));
#1299 = VECTOR('',#1300,1.);
#1300 = DIRECTION('',(1.,0.));
#1301 = ( GEOMETRIC_REPRESENTATION_CONTEXT(2) 
PARAMETRIC_REPRESENTATION_CONTEXT() REPRESENTATION_CONTEXT('2D SPACE',''
  ) );
#1302 = PCURVE('',#241,#1303);
#1303 = DEFINITIONAL_REPRESENTATION('',(#1304),#1308);
#1304 = LINE('',#1305,#1306);
#1305 = CARTESIAN_POINT('',(0.,0.));
#1306 = VECTOR('',#1307,1.);
#1307 = DIRECTION('',(0.,1.));
#1308 = ( GEOMETRIC_REPRESENTATION_CONTEXT(2) 
PARAMETRIC_REPRESENTATION_CONTEXT() REPRESENTATION_CONTEXT('2D SPACE',''
  ) );
#1309 = ORIENTED_EDGE('',*,*,#257,.T.);
#1310 = ADVANCED_FACE('',(#1311),#241,.F.);
#1311 = FACE_BOUND('',#1312,.F.);
#1312 = EDGE_LOOP('',(#1313,#1314,#1315,#1316,#1317));
#1313 = ORIENTED_EDGE('',*,*,#1289,.F.);
#1314 = ORIENTED_EDGE('',*,*,#1101,.F.);
#1315 = ORIENTED_EDGE('',*,*,#1001,.T.);
#1316 = ORIENTED_EDGE('',*,*,#975,.T.);
#1317 = ORIENTED_EDGE('',*,*,#222,.T.);
#1318 = ADVANCED_FACE('',(#1319),#208,.F.);
#1319 = FACE_BOUND('',#1320,.F.);
#1320 = EDGE_LOOP('',(#1321,#1322,#1345,#1373));
#1321 = ORIENTED_EDGE('',*,*,#193,.F.);
#1322 = ORIENTED_EDGE('',*,*,#1323,.F.);
#1323 = EDGE_CURVE('',#1324,#109,#1326,.T.);
#1324 = VERTEX_POINT('',#1325);
#1325 = CARTESIAN_POINT('',(805.,269.,127.));
#1326 = SURFACE_CURVE('',#1327,(#1331,#1338),.PCURVE_S1.);
#1327 = LINE('',#1328,#1329);
#1328 = CARTESIAN_POINT('',(805.,269.,127.));
#1329 = VECTOR('',#1330,1.);
#1330 = DIRECTION('',(1.,0.,-0.));
#1331 = PCURVE('',#208,#1332);
#1332 = DEFINITIONAL_REPRESENTATION('',(#1333),#1337);
#1333 = LINE('',#1334,#1335);
#1334 = CARTESIAN_POINT('',(0.,0.));
#1335 = VECTOR('',#1336,1.);
#1336 = DIRECTION('',(0.,1.));
#1337 = ( GEOMETRIC_REPRESENTATION_CONTEXT(2) 
PARAMETRIC_REPRESENTATION_CONTEXT() REPRESENTATION_CONTEXT('2D SPACE',''
  ) );
#1338 = PCURVE('',#126,#1339);
#1339 = DEFINITIONAL_REPRESENTATION('',(#1340),#1344);
#1340 = LINE('',#1341,#1342);
#1341 = CARTESIAN_POINT('',(0.,0.));
#1342 = VECTOR('',#1343,1.);
#1343 = DIRECTION('',(1.,0.));
#1344 = ( GEOMETRIC_REPRESENTATION_CONTEXT(2) 
PARAMETRIC_REPRESENTATION_CONTEXT() REPRESENTATION_CONTEXT('2D SPACE',''
  ) );
#1345 = ORIENTED_EDGE('',*,*,#1346,.T.);
#1346 = EDGE_CURVE('',#1324,#1347,#1349,.T.);
#1347 = VERTEX_POINT('',#1348);
#1348 = CARTESIAN_POINT('',(805.,269.,128.9));
#1349 = SURFACE_CURVE('',#1350,(#1354,#1361),.PCURVE_S1.);
#1350 = LINE('',#1351,#1352);
#1351 = CARTESIAN_POINT('',(805.,269.,127.));
#1352 = VECTOR('',#1353,1.);
#1353 = DIRECTION('',(0.,0.,1.));
#1354 = PCURVE('',#208,#1355);
#1355 = DEFINITIONAL_REPRESENTATION('',(#1356),#1360);
#1356 = LINE('',#1357,#1358);
#1357 = CARTESIAN_POINT('',(0.,0.));
#1358 = VECTOR('',#1359,1.);
#1359 = DIRECTION('',(1.,0.));
#1360 = ( GEOMETRIC_REPRESENTATION_CONTEXT(2) 
PARAMETRIC_REPRESENTATION_CONTEXT() REPRESENTATION_CONTEXT('2D SPACE',''
  ) );
#1361 = PCURVE('',#1362,#1367);
#1362 = PLANE('',#1363);
#1363 = AXIS2_PLACEMENT_3D('',#1364,#1365,#1366);
#1364 = CARTESIAN_POINT('',(805.,269.,127.));
#1365 = DIRECTION('',(1.,0.,-0.));
#1366 = DIRECTION('',(0.,0.,1.));
#1367 = DEFINITIONAL_REPRESENTATION('',(#1368),#1372);
#1368 = LINE('',#1369,#1370);
#1369 = CARTESIAN_POINT('',(0.,0.));
#1370 = VECTOR('',#1371,1.);
#1371 = DIRECTION('',(1.,0.));
#1372 = ( GEOMETRIC_REPRESENTATION_CONTEXT(2) 
PARAMETRIC_REPRESENTATION_CONTEXT() REPRESENTATION_CONTEXT('2D SPACE',''
  ) );
#1373 = ORIENTED_EDGE('',*,*,#1374,.T.);
#1374 = EDGE_CURVE('',#1347,#168,#1375,.T.);
#1375 = SURFACE_CURVE('',#1376,(#1380,#1387),.PCURVE_S1.);
#1376 = LINE('',#1377,#1378);
#1377 = CARTESIAN_POINT('',(805.,269.,128.9));
#1378 = VECTOR('',#1379,1.);
#1379 = DIRECTION('',(1.,0.,-0.));
#1380 = PCURVE('',#208,#1381);
#1381 = DEFINITIONAL_REPRESENTATION('',(#1382),#1386);
#1382 = LINE('',#1383,#1384);
#1383 = CARTESIAN_POINT('',(1.9,0.));
#1384 = VECTOR('',#1385,1.);
#1385 = DIRECTION('',(0.,1.));
#1386 = ( GEOMETRIC_REPRESENTATION_CONTEXT(2) 
PARAMETRIC_REPRESENTATION_CONTEXT() REPRESENTATION_CONTEXT('2D SPACE',''
  ) );
#1387 = PCURVE('',#182,#1388);
#1388 = DEFINITIONAL_REPRESENTATION('',(#1389),#1393);
#1389 = LINE('',#1390,#1391);
#1390 = CARTESIAN_POINT('',(0.,0.));
#1391 = VECTOR('',#1392,1.);
#1392 = DIRECTION('',(1.,0.));
#1393 = ( GEOMETRIC_REPRESENTATION_CONTEXT(2) 
PARAMETRIC_REPRESENTATION_CONTEXT() REPRESENTATION_CONTEXT('2D SPACE',''
  ) );
#1394 = ADVANCED_FACE('',(#1395),#1362,.F.);
#1395 = FACE_BOUND('',#1396,.F.);
#1396 = EDGE_LOOP('',(#1397,#1398,#1421,#1444));
#1397 = ORIENTED_EDGE('',*,*,#1346,.F.);
#1398 = ORIENTED_EDGE('',*,*,#1399,.T.);
#1399 = EDGE_CURVE('',#1324,#1400,#1402,.T.);
#1400 = VERTEX_POINT('',#1401);
#1401 = CARTESIAN_POINT('',(805.,273.,127.));
#1402 = SURFACE_CURVE('',#1403,(#1407,#1414),.PCURVE_S1.);
#1403 = LINE('',#1404,#1405);
#1404 = CARTESIAN_POINT('',(805.,269.,127.));
#1405 = VECTOR('',#1406,1.);
#1406 = DIRECTION('',(-0.,1.,0.));
#1407 = PCURVE('',#1362,#1408);
#1408 = DEFINITIONAL_REPRESENTATION('',(#1409),#1413);
#1409 = LINE('',#1410,#1411);
#1410 = CARTESIAN_POINT('',(0.,0.));
#1411 = VECTOR('',#1412,1.);
#1412 = DIRECTION('',(0.,-1.));
#1413 = ( GEOMETRIC_REPRESENTATION_CONTEXT(2) 
PARAMETRIC_REPRESENTATION_CONTEXT() REPRESENTATION_CONTEXT('2D SPACE',''
  ) );
#1414 = PCURVE('',#126,#1415);
#1415 = DEFINITIONAL_REPRESENTATION('',(#1416),#1420);
#1416 = LINE('',#1417,#1418);
#1417 = CARTESIAN_POINT('',(0.,0.));
#1418 = VECTOR('',#1419,1.);
#1419 = DIRECTION('',(0.,1.));
#1420 = ( GEOMETRIC_REPRESENTATION_CONTEXT(2) 
PARAMETRIC_REPRESENTATION_CONTEXT() REPRESENTATION_CONTEXT('2D SPACE',''
  ) );
#1421 = ORIENTED_EDGE('',*,*,#1422,.T.);
#1422 = EDGE_CURVE('',#1400,#1423,#1425,.T.);
#1423 = VERTEX_POINT('',#1424);
#1424 = CARTESIAN_POINT('',(805.,273.,128.9));
#1425 = SURFACE_CURVE('',#1426,(#1430,#1437),.PCURVE_S1.);
#1426 = LINE('',#1427,#1428);
#1427 = CARTESIAN_POINT('',(805.,273.,127.));
#1428 = VECTOR('',#1429,1.);
#1429 = DIRECTION('',(0.,0.,1.));
#1430 = PCURVE('',#1362,#1431);
#1431 = DEFINITIONAL_REPRESENTATION('',(#1432),#1436);
#1432 = LINE('',#1433,#1434);
#1433 = CARTESIAN_POINT('',(0.,-4.));
#1434 = VECTOR('',#1435,1.);
#1435 = DIRECTION('',(1.,0.));
#1436 = ( GEOMETRIC_REPRESENTATION_CONTEXT(2) 
PARAMETRIC_REPRESENTATION_CONTEXT() REPRESENTATION_CONTEXT('2D SPACE',''
  ) );
#1437 = PCURVE('',#155,#1438);
#1438 = DEFINITIONAL_REPRESENTATION('',(#1439),#1443);
#1439 = LINE('',#1440,#1441);
#1440 = CARTESIAN_POINT('',(0.,0.));
#1441 = VECTOR('',#1442,1.);
#1442 = DIRECTION('',(1.,0.));
#1443 = ( GEOMETRIC_REPRESENTATION_CONTEXT(2) 
PARAMETRIC_REPRESENTATION_CONTEXT() REPRESENTATION_CONTEXT('2D SPACE',''
  ) );
#1444 = ORIENTED_EDGE('',*,*,#1445,.F.);
#1445 = EDGE_CURVE('',#1347,#1423,#1446,.T.);
#1446 = SURFACE_CURVE('',#1447,(#1451,#1458),.PCURVE_S1.);
#1447 = LINE('',#1448,#1449);
#1448 = CARTESIAN_POINT('',(805.,269.,128.9));
#1449 = VECTOR('',#1450,1.);
#1450 = DIRECTION('',(-0.,1.,0.));
#1451 = PCURVE('',#1362,#1452);
#1452 = DEFINITIONAL_REPRESENTATION('',(#1453),#1457);
#1453 = LINE('',#1454,#1455);
#1454 = CARTESIAN_POINT('',(1.9,0.));
#1455 = VECTOR('',#1456,1.);
#1456 = DIRECTION('',(0.,-1.));
#1457 = ( GEOMETRIC_REPRESENTATION_CONTEXT(2) 
PARAMETRIC_REPRESENTATION_CONTEXT() REPRESENTATION_CONTEXT('2D SPACE',''
  ) );
#1458 = PCURVE('',#182,#1459);
#1459 = DEFINITIONAL_REPRESENTATION('',(#1460),#1464);
#1460 = LINE('',#1461,#1462);
#1461 = CARTESIAN_POINT('',(0.,0.));
#1462 = VECTOR('',#1463,1.);
#1463 = DIRECTION('',(0.,1.));
#1464 = ( GEOMETRIC_REPRESENTATION_CONTEXT(2) 
PARAMETRIC_REPRESENTATION_CONTEXT() REPRESENTATION_CONTEXT('2D SPACE',''
  ) );
#1465 = ADVANCED_FACE('',(#1466),#182,.T.);
#1466 = FACE_BOUND('',#1467,.T.);
#1467 = EDGE_LOOP('',(#1468,#1489,#1490,#1491));
#1468 = ORIENTED_EDGE('',*,*,#1469,.F.);
#1469 = EDGE_CURVE('',#1423,#139,#1470,.T.);
#1470 = SURFACE_CURVE('',#1471,(#1475,#1482),.PCURVE_S1.);
#1471 = LINE('',#1472,#1473);
#1472 = CARTESIAN_POINT('',(805.,273.,128.9));
#1473 = VECTOR('',#1474,1.);
#1474 = DIRECTION('',(1.,0.,-0.));
#1475 = PCURVE('',#182,#1476);
#1476 = DEFINITIONAL_REPRESENTATION('',(#1477),#1481);
#1477 = LINE('',#1478,#1479);
#1478 = CARTESIAN_POINT('',(0.,4.));
#1479 = VECTOR('',#1480,1.);
#1480 = DIRECTION('',(1.,0.));
#1481 = ( GEOMETRIC_REPRESENTATION_CONTEXT(2) 
PARAMETRIC_REPRESENTATION_CONTEXT() REPRESENTATION_CONTEXT('2D SPACE',''
  ) );
#1482 = PCURVE('',#155,#1483);
#1483 = DEFINITIONAL_REPRESENTATION('',(#1484),#1488);
#1484 = LINE('',#1485,#1486);
#1485 = CARTESIAN_POINT('',(1.9,0.));
#1486 = VECTOR('',#1487,1.);
#1487 = DIRECTION('',(0.,1.));
#1488 = ( GEOMETRIC_REPRESENTATION_CONTEXT(2) 
PARAMETRIC_REPRESENTATION_CONTEXT() REPRESENTATION_CONTEXT('2D SPACE',''
  ) );
#1489 = ORIENTED_EDGE('',*,*,#1445,.F.);
#1490 = ORIENTED_EDGE('',*,*,#1374,.T.);
#1491 = ORIENTED_EDGE('',*,*,#167,.T.);
#1492 = ADVANCED_FACE('',(#1493),#155,.T.);
#1493 = FACE_BOUND('',#1494,.T.);
#1494 = EDGE_LOOP('',(#1495,#1496,#1517,#1518));
#1495 = ORIENTED_EDGE('',*,*,#138,.F.);
#1496 = ORIENTED_EDGE('',*,*,#1497,.F.);
#1497 = EDGE_CURVE('',#1400,#111,#1498,.T.);
#1498 = SURFACE_CURVE('',#1499,(#1503,#1510),.PCURVE_S1.);
#1499 = LINE('',#1500,#1501);
#1500 = CARTESIAN_POINT('',(805.,273.,127.));
#1501 = VECTOR('',#1502,1.);
#1502 = DIRECTION('',(1.,0.,-0.));
#1503 = PCURVE('',#155,#1504);
#1504 = DEFINITIONAL_REPRESENTATION('',(#1505),#1509);
#1505 = LINE('',#1506,#1507);
#1506 = CARTESIAN_POINT('',(0.,0.));
#1507 = VECTOR('',#1508,1.);
#1508 = DIRECTION('',(0.,1.));
#1509 = ( GEOMETRIC_REPRESENTATION_CONTEXT(2) 
PARAMETRIC_REPRESENTATION_CONTEXT() REPRESENTATION_CONTEXT('2D SPACE',''
  ) );
#1510 = PCURVE('',#126,#1511);
#1511 = DEFINITIONAL_REPRESENTATION('',(#1512),#1516);
#1512 = LINE('',#1513,#1514);
#1513 = CARTESIAN_POINT('',(0.,4.));
#1514 = VECTOR('',#1515,1.);
#1515 = DIRECTION('',(1.,0.));
#1516 = ( GEOMETRIC_REPRESENTATION_CONTEXT(2) 
PARAMETRIC_REPRESENTATION_CONTEXT() REPRESENTATION_CONTEXT('2D SPACE',''
  ) );
#1517 = ORIENTED_EDGE('',*,*,#1422,.T.);
#1518 = ORIENTED_EDGE('',*,*,#1469,.T.);
#1519 = ADVANCED_FACE('',(#1520),#126,.F.);
#1520 = FACE_BOUND('',#1521,.F.);
#1521 = EDGE_LOOP('',(#1522,#1523,#1524,#1525));
#1522 = ORIENTED_EDGE('',*,*,#1399,.F.);
#1523 = ORIENTED_EDGE('',*,*,#1323,.T.);
#1524 = ORIENTED_EDGE('',*,*,#108,.T.);
#1525 = ORIENTED_EDGE('',*,*,#1497,.F.);
#1526 = ADVANCED_FACE('',(#1527),#93,.F.);
#1527 = FACE_BOUND('',#1528,.T.);
#1528 = EDGE_LOOP('',(#1529));
#1529 = ORIENTED_EDGE('',*,*,#78,.F.);
#1530 = ADVANCED_FACE('',(#1531),#43,.T.);
#1531 = FACE_BOUND('',#1532,.T.);
#1532 = EDGE_LOOP('',(#1533));
#1533 = ORIENTED_EDGE('',*,*,#21,.T.);
#1534 = ( GEOMETRIC_REPRESENTATION_CONTEXT(3) 
GLOBAL_UNCERTAINTY_ASSIGNED_CONTEXT((#1538)) 
GLOBAL_UNIT_ASSIGNED_CONTEXT((#1535,#1536,#1537)) REPRESENTATION_CONTEXT
('Context #1','3D Context with UNIT and UNCERTAINTY') );
#1535 = ( LENGTH_UNIT() NAMED_UNIT(*) SI_UNIT(.MILLI.,.METRE.) );
#1536 = ( NAMED_UNIT(*) PLANE_ANGLE_UNIT() SI_UNIT($,.RADIAN.) );
#1537 = ( NAMED_UNIT(*) SI_UNIT($,.STERADIAN.) SOLID_ANGLE_UNIT() );
#1538 = UNCERTAINTY_MEASURE_WITH_UNIT(LENGTH_MEASURE(1.E-07),#1535,
  'distance_accuracy_value','confusion accuracy');
#1539 = PRODUCT_RELATED_PRODUCT_CATEGORY('part',$,(#7));
ENDSEC;
END-ISO-10303-21;
