<svg xmlns="http://www.w3.org/2000/svg" width="1123" height="794" viewBox="0 0 1123 794"><rect width="1123" height="794" fill="white"/><rect x="15" y="15" width="1093" height="764" fill="none" stroke="#19364b"/><g font-family="Noto Sans CJK KR,sans-serif" fill="#132c40"><text x="35" y="52" font-size="26">HS-R1 / shouldered pin and stack</text><text x="35" y="76" font-size="14">HS-R1-S2 | mm | orthographic NTS | PRESSURELESS PROTOTYPE / physical NOT_RUN</text><polyline points="50.000,362.500 50.000,257.500 80.000,257.500 80.000,280.000 491.000,280.000 491.000,287.500 611.000,287.500 611.000,332.500 491.000,332.500 491.000,340.000 80.000,340.000 80.000,362.500 50.000,362.500" fill="none" stroke="#19364b" stroke-width="1.1"/><line x1="35" x2="640" y1="310" y2="310" stroke="#666" stroke-dasharray="6 4"/><text x="685" y="110" font-size="14">Shoulder diameter4 h6</text><text x="685" y="134" font-size="14">Shoulder length27.40 +/-0.02</text><text x="685" y="158" font-size="14">Head7 x2; threaded end M3 x8</text><text x="685" y="182" font-size="14">6 pins, two locknuts per pin</text><text x="685" y="206" font-size="14">Carrier thickness7.00 +/-0.03</text><text x="685" y="230" font-size="14">Six3mm sheets with five0.25 shims</text><text x="685" y="254" font-size="14">Outer0.25 shims: 2 per pin</text><text x="685" y="278" font-size="14">Additional0.35 nominal match shim</text><text x="685" y="302" font-size="14">Cold measured endplay0.25-0.35</text><text x="685" y="326" font-size="14">Hot measured endplay &gt;=0.10</text><text x="685" y="350" font-size="14">Nut/washer seats on shoulder</text><text x="685" y="374" font-size="14">Do not compress the sheet stack</text><text x="35" y="555" font-size="14">Actual STEP edge projection. Free-state spring preload overlaps the mandrel intentionally.</text><text x="35" y="581" font-size="14">STEP and dimensional register jointly control geometry; material/process certificate is a hold point.</text><text x="35" y="749" font-size="14">No pressure, powered rotation, automatic heating or machine installation approval.</text></g></svg>