#usda 1.0
(
    metersPerUnit = 0.001
)

def Xform "World"
{
    def Xform "F0" (
        customData = {
            dictionary ppr = {
                string frame = "F0 identity (+Y axial/material-width, +X shear-blade, +Z up)"
            }
        }
    )
    {
        def Mesh "Hopper" (
            customData = {
                dictionary ppr = {
                    string collision_approximation = "concaveMesh"
                    string doc = "hopper shell collision (concave mesh)"
                    string role = "static"
                    string units = "mm (stage metersPerUnit=0.001)"
                }
            }
        )
        {
            float3[] extent = [(0.74171567, 162.4, 444.50275), (237, 324.6, 500)]
            int[] faceVertexCounts = [3, 3, 3, 3, 3, 3, 3, 3, 3, 3, 3, 3, 3, 3, 3, 3, 3, 3, 3, 3, 3, 3, 3, 3, 3, 3, 3, 3, 3, 3, 3, 3]
            int[] faceVertexIndices = [10, 4, 14, 10, 0, 4, 5, 6, 4, 7, 6, 5, 12, 4, 6, 14, 4, 12, 13, 7, 5, 15, 12, 13, 15, 13, 5, 15, 14, 12, 11, 14, 15, 11, 10, 14, 0, 3, 1, 2, 3, 0, 11, 3, 9, 11, 1, 3, 10, 8, 2, 10, 9, 8, 10, 11, 9, 10, 2, 0, 4, 1, 5, 0, 1, 4, 1, 15, 5, 1, 11, 15, 8, 6, 2, 8, 12, 6, 2, 7, 3, 2, 6, 7, 3, 13, 9, 3, 7, 13, 9, 12, 8, 9, 13, 12]
            point3f[] points = [(0.74171567, 175, 500), (0.74171567, 315, 500), (5.172363, 177.78085, 500), (5.172363, 312.18784, 500), (83, 162.4, 444.50275), (83, 324.6, 444.50275), (84.56935, 165.61914, 444.50275), (84.56935, 322.61215, 444.50275), (178.72017, 177.78085, 500), (178.72017, 312.18784, 500), (180.74171, 175, 500), (180.74171, 315, 500), (233.02155, 165.61914, 444.50275), (233.02155, 322.61215, 444.50275), (237, 162.4, 444.50275), (237, 324.6, 444.50275)]
        }

        def "S1"
        {
            def Mesh "ShaftA" (
                customData = {
                    dictionary ppr = {
                        string collision_approximation = "concaveMesh"
                        string doc = "S1-A shaft A axis"
                        string role = "kinematic-shaft"
                        string units = "mm (stage metersPerUnit=0.001)"
                    }
                }
            )
            {
                float3[] extent = [(-12.5, 0, -12.5), (12.5, 282, 12.5)]
                int[] faceVertexCounts = [3, 3, 3, 3, 3, 3, 3, 3, 3, 3, 3, 3, 3, 3, 3, 3, 3, 3, 3, 3, 3, 3, 3, 3, 3, 3, 3, 3, 3, 3, 3, 3, 3, 3, 3, 3, 3, 3, 3, 3, 3, 3, 3, 3, 3, 3, 3, 3, 3, 3, 3, 3, 3, 3, 3, 3, 3, 3, 3, 3, 3, 3, 3, 3, 3, 3, 3, 3, 3, 3, 3, 3, 3, 3, 3, 3, 3, 3, 3, 3, 3, 3, 3, 3, 3, 3, 3, 3, 3, 3, 3, 3, 3, 3, 3, 3, 3, 3, 3, 3, 3, 3, 3, 3, 3, 3, 3, 3, 3, 3, 3, 3, 3, 3, 3, 3, 3, 3, 3, 3, 3, 3, 3, 3, 3, 3, 3, 3, 3, 3, 3, 3, 3, 3, 3, 3, 3, 3, 3, 3, 3, 3, 3, 3, 3, 3, 3, 3, 3, 3, 3, 3, 3, 3, 3, 3, 3, 3, 3, 3, 3, 3, 3, 3, 3, 3, 3, 3, 3, 3, 3, 3, 3, 3, 3, 3, 3, 3, 3, 3, 3, 3, 3, 3, 3, 3, 3, 3, 3, 3, 3, 3, 3, 3, 3, 3, 3, 3, 3, 3, 3, 3, 3, 3, 3, 3, 3, 3, 3, 3, 3, 3, 3, 3, 3, 3, 3, 3, 3, 3, 3, 3, 3, 3, 3, 3, 3, 3, 3, 3, 3, 3, 3, 3, 3, 3, 3, 3, 3, 3, 3, 3, 3, 3, 3, 3, 3, 3, 3, 3, 3, 3, 3, 3, 3, 3, 3, 3, 3, 3, 3, 3, 3, 3, 3, 3, 3, 3, 3, 3, 3, 3, 3, 3, 3, 3, 3, 3, 3, 3, 3, 3, 3, 3, 3, 3, 3, 3, 3, 3, 3, 3, 3, 3, 3, 3, 3, 3, 3, 3, 3, 3, 3, 3, 3, 3, 3, 3, 3, 3, 3, 3, 3, 3, 3, 3, 3, 3, 3, 3, 3, 3, 3, 3, 3, 3, 3, 3, 3, 3, 3, 3, 3, 3, 3, 3, 3, 3, 3, 3, 3, 3, 3, 3, 3, 3, 3, 3, 3, 3, 3, 3, 3, 3, 3, 3, 3, 3, 3, 3, 3, 3, 3, 3, 3, 3, 3, 3, 3, 3, 3, 3, 3, 3, 3, 3, 3, 3, 3, 3, 3, 3, 3, 3, 3, 3, 3, 3, 3, 3, 3, 3, 3, 3, 3, 3, 3, 3, 3, 3, 3, 3, 3, 3, 3, 3, 3, 3, 3, 3, 3, 3, 3, 3, 3, 3, 3, 3, 3, 3, 3, 3, 3, 3, 3, 3, 3, 3, 3, 3, 3, 3, 3, 3, 3, 3, 3, 3, 3, 3, 3, 3, 3, 3, 3, 3, 3, 3, 3, 3, 3, 3, 3, 3, 3, 3, 3, 3, 3, 3, 3, 3, 3, 3, 3, 3, 3, 3, 3, 3, 3, 3, 3, 3, 3, 3, 3, 3, 3, 3, 3, 3, 3, 3, 3, 3, 3, 3]
                int[] faceVertexIndices = [128, 118, 124, 135, 128, 124, 130, 120, 119, 130, 119, 129, 145, 138, 135, 139, 130, 129, 140, 130, 139, 132, 122, 121, 132, 121, 131, 133, 125, 123, 155, 148, 145, 137, 125, 133, 165, 158, 155, 147, 137, 143, 181, 169, 165, 181, 173, 171, 181, 171, 169, 157, 147, 153, 167, 157, 163, 183, 179, 177, 183, 173, 181, 183, 175, 173, 183, 181, 185, 183, 177, 175, 183, 167, 179, 187, 183, 185, 191, 185, 189, 191, 187, 185, 195, 189, 193, 195, 193, 197, 195, 191, 189, 199, 195, 197, 203, 197, 201, 203, 201, 205, 203, 199, 197, 207, 203, 205, 211, 205, 209, 211, 207, 205, 215, 209, 213, 215, 213, 217, 215, 211, 209, 219, 215, 217, 223, 217, 221, 223, 219, 217, 227, 221, 225, 227, 225, 229, 227, 223, 221, 231, 227, 229, 235, 231, 229, 235, 229, 233, 239, 235, 233, 239, 233, 237, 239, 237, 241, 243, 239, 241, 245, 243, 241, 245, 241, 244, 242, 245, 244, 242, 244, 240, 238, 242, 240, 238, 240, 236, 234, 238, 236, 234, 236, 232, 230, 234, 232, 230, 232, 228, 226, 230, 228, 226, 228, 224, 222, 226, 224, 222, 224, 220, 218, 222, 220, 218, 220, 216, 214, 218, 216, 214, 216, 212, 210, 214, 212, 210, 212, 208, 206, 210, 208, 206, 208, 204, 206, 204, 200, 202, 206, 200, 202, 200, 196, 198, 202, 196, 194, 198, 196, 194, 196, 192, 194, 192, 188, 190, 194, 188, 186, 190, 188, 186, 188, 184, 182, 184, 180, 182, 186, 184, 166, 180, 164, 166, 164, 154, 166, 182, 180, 156, 154, 144, 156, 166, 154, 146, 156, 144, 136, 144, 134, 136, 134, 126, 136, 146, 144, 127, 136, 126, 110, 126, 108, 110, 127, 126, 100, 110, 108, 100, 108, 98, 90, 100, 98, 90, 98, 88, 90, 88, 78, 80, 90, 78, 64, 80, 78, 64, 78, 62, 64, 62, 58, 60, 64, 58, 60, 58, 54, 56, 60, 54, 52, 56, 54, 52, 54, 50, 52, 50, 46, 48, 52, 46, 48, 46, 42, 44, 48, 42, 40, 44, 42, 40, 42, 38, 36, 40, 38, 36, 38, 34, 32, 36, 34, 32, 34, 30, 28, 32, 30, 28, 30, 26, 28, 26, 22, 24, 28, 22, 24, 22, 18, 20, 24, 18, 20, 18, 14, 16, 20, 14, 12, 16, 14, 12, 14, 10, 8, 6, 2, 8, 12, 10, 8, 10, 6, 4, 2, 0, 4, 8, 2, 1, 0, 3, 1, 4, 0, 5, 3, 7, 5, 1, 3, 9, 5, 7, 13, 7, 11, 13, 9, 7, 17, 11, 15, 17, 15, 19, 17, 13, 11, 21, 17, 19, 25, 21, 19, 25, 19, 23, 29, 25, 23, 29, 23, 27, 29, 27, 31, 33, 29, 31, 33, 31, 35, 37, 35, 39, 37, 33, 35, 41, 37, 39, 45, 39, 43, 45, 41, 39, 49, 43, 47, 49, 47, 51, 49, 45, 43, 53, 51, 55, 53, 49, 51, 57, 53, 55, 69, 63, 67, 79, 67, 63, 61, 55, 59, 61, 57, 55, 71, 63, 69, 89, 82, 79, 65, 59, 63, 65, 61, 59, 65, 63, 71, 73, 65, 71, 75, 65, 73, 77, 65, 75, 99, 92, 89, 81, 65, 77, 109, 102, 99, 91, 81, 87, 113, 104, 103, 114, 104, 113, 124, 112, 109, 101, 91, 97, 118, 112, 124, 119, 114, 113, 120, 114, 119, 111, 101, 107, 122, 115, 121, 122, 116, 115, 125, 117, 123, 125, 111, 117, 86, 75, 73, 86, 73, 85, 96, 86, 85, 96, 85, 95, 106, 96, 95, 106, 95, 105, 116, 106, 105, 116, 105, 115, 77, 87, 81, 87, 97, 91, 97, 107, 101, 107, 117, 111, 133, 143, 137, 143, 153, 147, 153, 163, 157, 163, 179, 167, 142, 132, 131, 142, 131, 152, 152, 131, 141, 152, 141, 162, 162, 141, 151, 162, 151, 161, 162, 161, 175, 162, 175, 177, 139, 149, 150, 139, 150, 140, 149, 159, 160, 149, 160, 150, 159, 171, 173, 159, 173, 160, 138, 128, 135, 148, 138, 145, 158, 148, 155, 169, 158, 165, 82, 67, 79, 92, 82, 89, 102, 92, 99, 112, 102, 109, 69, 83, 84, 84, 83, 93, 84, 93, 103, 84, 103, 94, 94, 103, 104, 69, 84, 71, 71, 70, 72, 71, 72, 73, 84, 70, 71, 94, 70, 84, 104, 70, 94, 114, 70, 104, 120, 70, 114, 172, 70, 120, 130, 172, 120, 140, 172, 130, 150, 172, 140, 160, 172, 150, 173, 172, 160, 83, 69, 68, 93, 83, 68, 103, 93, 68, 113, 103, 68, 119, 113, 68, 170, 119, 68, 129, 119, 170, 139, 129, 170, 149, 139, 170, 159, 149, 170, 171, 159, 170, 67, 66, 68, 67, 68, 69, 82, 66, 67, 92, 66, 82, 102, 66, 92, 112, 66, 102, 118, 66, 112, 168, 66, 118, 128, 168, 118, 138, 168, 128, 148, 168, 138, 158, 168, 148, 169, 168, 158, 46, 38, 42, 50, 34, 38, 50, 38, 46, 26, 30, 34, 26, 34, 50, 14, 18, 22, 10, 14, 22, 10, 22, 26, 88, 62, 78, 0, 10, 26, 0, 6, 10, 0, 2, 6, 134, 108, 126, 134, 98, 108, 134, 88, 98, 134, 62, 88, 11, 0, 26, 11, 3, 0, 11, 7, 3, 154, 26, 50, 154, 62, 134, 154, 134, 144, 154, 58, 62, 154, 54, 58, 154, 50, 54, 180, 154, 164, 19, 15, 11, 27, 23, 19, 192, 26, 154, 192, 11, 26, 192, 184, 188, 192, 180, 184, 192, 154, 180, 35, 19, 11, 35, 27, 19, 35, 31, 27, 200, 192, 196, 39, 35, 11, 43, 39, 11, 208, 200, 204, 59, 43, 11, 59, 47, 43, 59, 51, 47, 59, 55, 51, 228, 220, 224, 228, 216, 220, 228, 212, 216, 79, 63, 59, 232, 208, 212, 232, 212, 228, 99, 59, 11, 99, 89, 79, 99, 79, 59, 240, 232, 236, 244, 232, 240, 244, 200, 208, 244, 208, 232, 124, 109, 99, 135, 124, 99, 237, 244, 241, 233, 244, 237, 233, 200, 244, 165, 145, 135, 165, 155, 145, 225, 233, 229, 185, 181, 165, 185, 165, 135, 189, 185, 135, 189, 135, 99, 217, 225, 221, 217, 233, 225, 209, 217, 213, 205, 200, 233, 205, 217, 209, 205, 233, 217, 201, 193, 189, 201, 197, 193, 201, 200, 205, 201, 189, 99, 201, 11, 192, 201, 192, 200, 201, 99, 11, 169, 170, 168, 169, 171, 170, 173, 174, 172, 173, 175, 174, 85, 73, 72, 95, 85, 72, 105, 95, 72, 115, 105, 72, 121, 115, 72, 174, 121, 72, 131, 121, 174, 141, 131, 174, 151, 141, 174, 161, 151, 174, 175, 161, 174, 86, 74, 75, 96, 74, 86, 106, 74, 96, 116, 74, 106, 122, 74, 116, 176, 74, 122, 132, 176, 122, 142, 176, 132, 152, 176, 142, 162, 176, 152, 177, 176, 162, 177, 178, 176, 177, 179, 178, 87, 77, 76, 97, 87, 76, 107, 97, 76, 117, 107, 76, 123, 117, 76, 178, 123, 76, 133, 123, 178, 143, 133, 178, 153, 143, 178, 163, 153, 178, 179, 163, 178, 48, 44, 40, 52, 40, 36, 52, 48, 40, 28, 36, 32, 28, 52, 36, 16, 24, 20, 12, 24, 16, 12, 28, 24, 90, 80, 64, 1, 28, 12, 1, 12, 8, 1, 8, 4, 136, 127, 110, 136, 110, 100, 136, 100, 90, 136, 90, 64, 13, 28, 1, 13, 1, 5, 13, 5, 9, 156, 52, 28, 156, 136, 64, 156, 146, 136, 156, 64, 60, 156, 60, 56, 156, 56, 52, 182, 166, 156, 21, 13, 17, 29, 21, 25, 194, 156, 28, 194, 28, 13, 194, 190, 186, 194, 186, 182, 194, 182, 156, 37, 13, 21, 37, 21, 29, 37, 29, 33, 202, 198, 194, 41, 13, 37, 45, 13, 41, 210, 206, 202, 61, 13, 45, 61, 45, 49, 61, 49, 53, 61, 53, 57, 230, 226, 222, 230, 222, 218, 230, 218, 214, 81, 61, 65, 234, 214, 210, 234, 230, 214, 101, 13, 61, 101, 81, 91, 101, 61, 81, 242, 238, 234, 245, 242, 234, 245, 210, 202, 245, 234, 210, 125, 101, 111, 137, 101, 125, 239, 243, 245, 235, 239, 245, 235, 245, 202, 167, 137, 147, 167, 147, 157, 227, 231, 235, 187, 167, 183, 187, 137, 167, 191, 137, 187, 191, 101, 137, 219, 223, 227, 219, 227, 235, 211, 215, 219, 207, 235, 202, 207, 211, 219, 207, 219, 235, 203, 191, 195, 203, 195, 199, 203, 207, 202, 203, 101, 191, 203, 194, 13, 203, 202, 194, 203, 13, 101, 75, 74, 76, 75, 76, 77, 174, 72, 70, 174, 70, 172, 170, 68, 66, 170, 66, 168, 178, 76, 74, 178, 74, 176]
                point3f[] points = [(-12.5, 0, -2.2962127e-15), (-12.5, 282, -2.2962127e-15), (-12.465048, 0, -0.9341262), (-12.465048, 0, 0.9341262), (-12.465048, 282, -0.9341262), (-12.465048, 282, 0.9341262), (-12.360385, 0, -1.8630283), (-12.360385, 0, 1.8630283), (-12.360385, 282, -1.8630283), (-12.360385, 282, 1.8630283), (-12.186599, 0, -2.7815118), (-12.186599, 0, 2.7815118), (-12.186599, 282, -2.7815118), (-12.186599, 282, 2.7815118), (-11.94466, 0, -3.6844397), (-11.94466, 0, 3.6844397), (-11.94466, 282, -3.6844397), (-11.94466, 282, 3.6844397), (-11.6359215, 0, -4.566763), (-11.6359215, 0, 4.566763), (-11.6359215, 282, -4.566763), (-11.6359215, 282, 4.566763), (-11.262111, 0, -5.423547), (-11.262111, 0, 5.423547), (-11.262111, 282, -5.423547), (-11.262111, 282, 5.423547), (-10.825317, 0, -6.25), (-10.825317, 0, 6.25), (-10.825317, 282, -6.25), (-10.825317, 282, 6.25), (-10.327985, 0, -7.0415006), (-10.327985, 0, 7.0415006), (-10.327985, 282, -7.0415006), (-10.327985, 282, 7.0415006), (-9.772894, 0, -7.7936225), (-9.772894, 0, 7.7936225), (-9.772894, 282, -7.7936225), (-9.772894, 282, 7.7936225), (-9.163148, 0, -8.502159), (-9.163148, 0, 8.502159), (-9.163148, 282, -8.502159), (-9.163148, 282, 8.502159), (-8.502159, 0, -9.163148), (-8.502159, 0, 9.163148), (-8.502159, 282, -9.163148), (-8.502159, 282, 9.163148), (-7.7936225, 0, -9.772894), (-7.7936225, 0, 9.772894), (-7.7936225, 282, -9.772894), (-7.7936225, 282, 9.772894), (-7.0415006, 0, -10.327985), (-7.0415006, 0, 10.327985), (-7.0415006, 282, -10.327985), (-7.0415006, 282, 10.327985), (-6.25, 0, -10.825317), (-6.25, 0, 10.825317), (-6.25, 282, -10.825317), (-6.25, 282, 10.825317), (-5.423547, 0, -11.262111), (-5.423547, 0, 11.262111), (-5.423547, 282, -11.262111), (-5.423547, 282, 11.262111), (-4.566763, 0, -11.6359215), (-4.566763, 0, 11.6359215), (-4.566763, 282, -11.6359215), (-4.566763, 282, 11.6359215), (-4, 8, 8.5), (-4, 8, 11.842719), (-4, 38, 8.5), (-4, 38, 11.842719), (-4, 63, 8.5), (-4, 63, 11.842719), (-4, 226, 8.5), (-4, 226, 11.842719), (-4, 254, 8.5), (-4, 254, 11.842719), (-4, 272, 8.5), (-4, 272, 11.842719), (-3.6844397, 0, -11.94466), (-3.6844397, 0, 11.94466), (-3.6844397, 282, -11.94466), (-3.6844397, 282, 11.94466), (-3.220556, 8, 12.077997), (-3.220556, 38, 12.077997), (-3.220556, 63, 12.077997), (-3.220556, 226, 12.077997), (-3.220556, 254, 12.077997), (-3.220556, 272, 12.077997), (-2.7815118, 0, -12.186599), (-2.7815118, 0, 12.186599), (-2.7815118, 282, -12.186599), (-2.7815118, 282, 12.186599), (-2.427449, 8, 12.262034), (-2.427449, 38, 12.262034), (-2.427449, 63, 12.262034), (-2.427449, 226, 12.262034), (-2.427449, 254, 12.262034), (-2.427449, 272, 12.262034), (-1.8630283, 0, -12.360385), (-1.8630283, 0, 12.360385), (-1.8630283, 282, -12.360385), (-1.8630283, 282, 12.360385), (-1.6240433, 8, 12.394051), (-1.6240433, 38, 12.394051), (-1.6240433, 63, 12.394051), (-1.6240433, 226, 12.394051), (-1.6240433, 254, 12.394051), (-1.6240433, 272, 12.394051), (-0.9341262, 0, -12.465048), (-0.9341262, 0, 12.465048), (-0.9341262, 282, -12.465048), (-0.9341262, 282, 12.465048), (-0.8137478, 8, 12.473484), (-0.8137478, 38, 12.473484), (-0.8137478, 63, 12.473484), (-0.8137478, 226, 12.473484), (-0.8137478, 254, 12.473484), (-0.8137478, 272, 12.473484), (-3.0851208e-15, 8, 12.5), (-3.0851208e-15, 38, 12.5), (-3.0851208e-15, 63, 12.5), (-3.0851208e-15, 226, 12.5), (-3.0851208e-15, 254, 12.5), (-3.0851208e-15, 272, 12.5), (-3.0616169e-15, 0, 12.5), (-3.0616169e-15, 282, 12.5), (1.8184154e-14, 0, -12.5), (1.8184154e-14, 282, -12.5), (0.8137478, 8, 12.473484), (0.8137478, 38, 12.473484), (0.8137478, 63, 12.473484), (0.8137478, 226, 12.473484), (0.8137478, 254, 12.473484), (0.8137478, 272, 12.473484), (0.9341262, 0, -12.465048), (0.9341262, 0, 12.465048), (0.9341262, 282, -12.465048), (0.9341262, 282, 12.465048), (1.6240433, 8, 12.394051), (1.6240433, 38, 12.394051), (1.6240433, 63, 12.394051), (1.6240433, 226, 12.394051), (1.6240433, 254, 12.394051), (1.6240433, 272, 12.394051), (1.8630283, 0, -12.360385), (1.8630283, 0, 12.360385), (1.8630283, 282, -12.360385), (1.8630283, 282, 12.360385), (2.427449, 8, 12.262034), (2.427449, 38, 12.262034), (2.427449, 63, 12.262034), (2.427449, 226, 12.262034), (2.427449, 254, 12.262034), (2.427449, 272, 12.262034), (2.7815118, 0, -12.186599), (2.7815118, 0, 12.186599), (2.7815118, 282, -12.186599), (2.7815118, 282, 12.186599), (3.220556, 8, 12.077997), (3.220556, 38, 12.077997), (3.220556, 63, 12.077997), (3.220556, 226, 12.077997), (3.220556, 254, 12.077997), (3.220556, 272, 12.077997), (3.6844397, 0, -11.94466), (3.6844397, 0, 11.94466), (3.6844397, 282, -11.94466), (3.6844397, 282, 11.94466), (4, 8, 8.5), (4, 8, 11.842719), (4, 38, 8.5), (4, 38, 11.842719), (4, 63, 8.5), (4, 63, 11.842719), (4, 226, 8.5), (4, 226, 11.842719), (4, 254, 8.5), (4, 254, 11.842719), (4, 272, 8.5), (4, 272, 11.842719), (4.566763, 0, -11.6359215), (4.566763, 0, 11.6359215), (4.566763, 282, -11.6359215), (4.566763, 282, 11.6359215), (5.423547, 0, -11.262111), (5.423547, 0, 11.262111), (5.423547, 282, -11.262111), (5.423547, 282, 11.262111), (6.25, 0, -10.825317), (6.25, 0, 10.825317), (6.25, 282, -10.825317), (6.25, 282, 10.825317), (7.0415006, 0, -10.327985), (7.0415006, 0, 10.327985), (7.0415006, 282, -10.327985), (7.0415006, 282, 10.327985), (7.7936225, 0, -9.772894), (7.7936225, 0, 9.772894), (7.7936225, 282, -9.772894), (7.7936225, 282, 9.772894), (8.502159, 0, -9.163148), (8.502159, 0, 9.163148), (8.502159, 282, -9.163148), (8.502159, 282, 9.163148), (9.163148, 0, -8.502159), (9.163148, 0, 8.502159), (9.163148, 282, -8.502159), (9.163148, 282, 8.502159), (9.772894, 0, -7.7936225), (9.772894, 0, 7.7936225), (9.772894, 282, -7.7936225), (9.772894, 282, 7.7936225), (10.327985, 0, -7.0415006), (10.327985, 0, 7.0415006), (10.327985, 282, -7.0415006), (10.327985, 282, 7.0415006), (10.825317, 0, -6.25), (10.825317, 0, 6.25), (10.825317, 282, -6.25), (10.825317, 282, 6.25), (11.262111, 0, -5.423547), (11.262111, 0, 5.423547), (11.262111, 282, -5.423547), (11.262111, 282, 5.423547), (11.6359215, 0, -4.566763), (11.6359215, 0, 4.566763), (11.6359215, 282, -4.566763), (11.6359215, 282, 4.566763), (11.94466, 0, -3.6844397), (11.94466, 0, 3.6844397), (11.94466, 282, -3.6844397), (11.94466, 282, 3.6844397), (12.186599, 0, -2.7815118), (12.186599, 0, 2.7815118), (12.186599, 282, -2.7815118), (12.186599, 282, 2.7815118), (12.360385, 0, -1.8630283), (12.360385, 0, 1.8630283), (12.360385, 282, -1.8630283), (12.360385, 282, 1.8630283), (12.465048, 0, -0.9341262), (12.465048, 0, 0.9341262), (12.465048, 282, -0.9341262), (12.465048, 282, 0.9341262), (12.5, 0, -4.7857107e-15), (12.5, 282, -4.7857107e-15)]
            }

            def Mesh "CutterA00" (
                customData = {
                    dictionary ppr = {
                        string collision_approximation = "convexHull"
                        string doc = "hook cutter convex-hull collision"
                        string role = "kinematic-cutter"
                        string units = "mm (stage metersPerUnit=0.001)"
                    }
                }
            )
            {
                float3[] extent = [(-39.340816, 0, -37.199368), (38.99687, 6, 39.999744)]
                int[] faceVertexCounts = [3, 3, 3, 3, 3, 3, 3, 3, 3, 3, 3, 3, 3, 3, 3, 3, 3, 3, 3, 3, 3, 3, 3, 3, 3, 3, 3, 3, 3, 3, 3, 3, 3, 3, 3, 3, 3, 3, 3, 3, 3, 3, 3, 3, 3, 3, 3, 3, 3, 3, 3, 3, 3, 3, 3, 3, 3, 3, 3, 3, 3, 3, 3, 3, 3, 3, 3, 3, 3, 3, 3, 3, 3, 3, 3, 3, 3, 3, 3, 3]
                int[] faceVertexIndices = [2, 3, 1, 2, 1, 0, 7, 2, 6, 7, 2, 3, 19, 10, 18, 19, 10, 11, 35, 34, 40, 35, 41, 40, 25, 16, 24, 25, 16, 17, 33, 32, 30, 33, 30, 31, 33, 32, 34, 33, 35, 34, 37, 36, 28, 37, 28, 29, 27, 26, 28, 27, 28, 29, 27, 26, 24, 27, 25, 24, 15, 16, 14, 15, 16, 17, 15, 12, 14, 15, 12, 13, 5, 4, 0, 5, 1, 0, 5, 12, 4, 5, 12, 13, 9, 10, 11, 9, 8, 10, 9, 7, 6, 9, 8, 6, 20, 19, 18, 20, 21, 19, 23, 22, 30, 23, 30, 31, 23, 20, 22, 23, 20, 21, 38, 2, 0, 38, 4, 0, 38, 12, 14, 38, 26, 24, 38, 20, 18, 38, 34, 40, 38, 8, 6, 38, 2, 6, 38, 10, 18, 38, 22, 30, 38, 32, 30, 38, 16, 24, 38, 32, 34, 38, 26, 28, 38, 36, 28, 38, 16, 14, 38, 8, 10, 38, 12, 4, 38, 20, 22, 39, 15, 17, 39, 3, 1, 39, 7, 3, 39, 37, 29, 39, 33, 31, 39, 9, 11, 39, 5, 1, 39, 19, 11, 39, 35, 41, 39, 25, 17, 39, 27, 29, 39, 21, 19, 39, 33, 35, 39, 23, 31, 39, 27, 25, 39, 15, 13, 39, 5, 13, 39, 9, 7, 39, 23, 21, 39, 41, 40, 39, 38, 40, 39, 37, 36, 39, 38, 36]
                point3f[] points = [(-39.340816, 0, -6.6842732), (-39.340816, 6, -6.6842732), (-39.163174, 0, -4.4126296), (-39.163174, 6, -4.4126296), (-38.99687, 0, -8.900781), (-38.99687, 6, -8.900781), (-31.27306, 0, 24.939434), (-31.27306, 6, 24.939434), (-29.754572, 0, 26.590311), (-29.754572, 6, 26.590311), (-27.867771, 0, 27.867771), (-27.867771, 6, 27.867771), (-20.967905, 0, -33.37023), (-20.967905, 6, -33.37023), (-19.302622, 0, -34.925465), (-19.302622, 6, -34.925465), (-17.35524, 0, -36.038525), (-17.35524, 6, -36.038525), (2.449278e-15, 0, 39.999744), (2.449278e-15, 6, 39.999744), (2.2374704, 0, 39.84185), (2.2374704, 6, 39.84185), (4.4126296, 0, 39.163174), (4.4126296, 6, 39.163174), (13.016622, 0, -37.199368), (13.016622, 6, -37.199368), (15.27084, 0, -36.86707), (15.27084, 6, -36.86707), (17.35524, 0, -36.038525), (17.35524, 6, -36.038525), (31.27306, 0, 24.939434), (31.27306, 6, 24.939434), (32.54465, 0, 23.091661), (32.54465, 6, 23.091661), (33.37023, 0, 20.967905), (33.37023, 6, 20.967905), (37.199368, 0, -13.016622), (37.199368, 6, -13.016622), (38.345047, 0, -11.047018), (38.345047, 6, -11.047018), (38.99687, 0, -8.900781), (38.99687, 6, -8.900781)]
            }
        }

        def "S2"
        {
            def Mesh "Rotor" (
                customData = {
                    dictionary ppr = {
                        string collision_approximation = "convexHull"
                        string doc = "S2-A hook rotor convex-hull collision"
                        string role = "kinematic-rotor"
                        string units = "mm (stage metersPerUnit=0.001)"
                    }
                }
            )
            {
                float3[] extent = [(-53.943012, 240, -53.943012), (53.943012, 310, 53.943012)]
                int[] faceVertexCounts = [3, 3, 3, 3, 3, 3, 3, 3, 3, 3, 3, 3, 3, 3, 3, 3, 3, 3, 3, 3, 3, 3, 3, 3, 3, 3, 3, 3, 3, 3, 3, 3, 3, 3, 3, 3, 3, 3, 3, 3, 3, 3, 3, 3, 3, 3, 3, 3, 3, 3, 3, 3, 3, 3, 3, 3, 3, 3, 3, 3, 3, 3, 3, 3, 3, 3, 3, 3, 3, 3, 3, 3, 3, 3, 3, 3, 3, 3, 3, 3, 3, 3, 3, 3, 3, 3, 3, 3, 3, 3, 3, 3, 3, 3, 3, 3, 3, 3, 3, 3, 3, 3, 3, 3, 3, 3, 3, 3, 3, 3, 3, 3, 3, 3, 3, 3, 3, 3, 3, 3, 3, 3, 3, 3, 3, 3, 3, 3, 3, 3, 3, 3, 3, 3, 3, 3, 3, 3, 3, 3, 3, 3, 3, 3, 3, 3, 3, 3, 3, 3, 3, 3, 3, 3, 3, 3, 3, 3, 3, 3, 3, 3, 3, 3, 3, 3, 3, 3, 3, 3, 3, 3, 3, 3, 3, 3, 3, 3, 3, 3, 3, 3, 3, 3, 3, 3, 3, 3, 3, 3, 3, 3, 3, 3, 3, 3, 3, 3, 3, 3, 3, 3, 3, 3, 3, 3, 3, 3, 3, 3, 3, 3, 3, 3, 3, 3, 3, 3, 3, 3, 3, 3, 3, 3, 3, 3, 3, 3, 3, 3, 3, 3, 3, 3, 3, 3, 3, 3, 3, 3, 3, 3, 3, 3, 3, 3, 3, 3, 3, 3, 3, 3, 3, 3, 3, 3, 3, 3, 3, 3, 3, 3, 3, 3, 3, 3, 3, 3, 3, 3, 3, 3, 3, 3, 3, 3, 3, 3, 3, 3, 3, 3, 3, 3, 3, 3, 3, 3, 3, 3, 3, 3, 3, 3, 3, 3, 3, 3, 3, 3, 3, 3, 3, 3, 3, 3, 3, 3, 3, 3, 3, 3, 3, 3, 3, 3, 3, 3, 3, 3, 3, 3, 3, 3, 3, 3, 3, 3, 3, 3, 3, 3, 3, 3, 3, 3, 3, 3, 3, 3, 3, 3, 3, 3, 3, 3, 3, 3, 3, 3, 3, 3, 3, 3, 3, 3, 3, 3, 3, 3, 3, 3, 3, 3, 3, 3, 3, 3, 3, 3, 3, 3, 3, 3, 3, 3, 3, 3, 3, 3, 3, 3, 3, 3, 3, 3, 3, 3, 3, 3, 3, 3, 3, 3, 3, 3, 3, 3, 3, 3, 3, 3, 3, 3, 3, 3, 3, 3, 3, 3, 3, 3, 3, 3, 3, 3, 3, 3, 3, 3, 3, 3, 3, 3, 3, 3, 3, 3, 3, 3, 3, 3, 3, 3, 3, 3, 3, 3, 3, 3, 3, 3, 3, 3, 3, 3, 3, 3, 3, 3, 3, 3, 3, 3, 3, 3, 3, 3, 3, 3, 3, 3, 3, 3, 3, 3, 3, 3, 3, 3, 3, 3, 3, 3, 3, 3, 3, 3, 3, 3, 3, 3, 3, 3, 3, 3, 3, 3, 3, 3, 3, 3]
                int[] faceVertexIndices = [18, 46, 16, 53, 9, 63, 32, 11, 13, 78, 18, 92, 78, 94, 84, 78, 94, 92, 7, 53, 9, 43, 4, 6, 117, 83, 139, 117, 121, 139, 229, 155, 169, 153, 155, 169, 25, 1, 21, 3, 33, 1, 57, 53, 63, 28, 11, 1, 28, 32, 11, 17, 48, 19, 40, 15, 13, 130, 126, 108, 130, 164, 108, 26, 10, 0, 26, 30, 10, 106, 102, 100, 106, 102, 110, 106, 110, 108, 222, 226, 246, 222, 218, 246, 214, 218, 246, 223, 226, 246, 49, 7, 53, 51, 6, 8, 51, 62, 8, 35, 4, 2, 29, 33, 1, 29, 25, 1, 37, 3, 33, 37, 3, 5, 37, 41, 5, 61, 67, 63, 61, 57, 63, 194, 238, 184, 194, 190, 184, 194, 238, 240, 74, 66, 19, 74, 80, 19, 52, 48, 19, 52, 56, 19, 60, 66, 19, 60, 56, 19, 24, 1, 21, 24, 28, 1, 44, 40, 15, 44, 17, 48, 44, 17, 15, 36, 32, 13, 36, 40, 13, 124, 126, 108, 124, 118, 108, 114, 110, 108, 114, 118, 108, 96, 102, 100, 22, 20, 0, 22, 26, 0, 12, 30, 10, 42, 46, 16, 162, 179, 185, 196, 185, 239, 196, 241, 239, 171, 150, 177, 219, 223, 246, 219, 236, 246, 219, 236, 215, 234, 236, 215, 82, 76, 111, 54, 58, 18, 72, 78, 18, 45, 49, 7, 45, 7, 5, 45, 41, 5, 47, 43, 6, 47, 51, 6, 39, 43, 4, 39, 35, 4, 31, 2, 0, 31, 35, 2, 123, 121, 139, 123, 129, 139, 133, 137, 139, 133, 129, 139, 113, 117, 83, 87, 69, 63, 159, 147, 153, 245, 216, 247, 220, 224, 247, 220, 216, 247, 227, 224, 247, 227, 225, 247, 221, 237, 247, 221, 225, 247, 172, 184, 166, 172, 180, 184, 186, 190, 184, 186, 180, 184, 202, 242, 240, 93, 80, 19, 93, 95, 80, 86, 95, 90, 86, 95, 80, 88, 94, 84, 88, 94, 100, 88, 96, 100, 148, 176, 170, 34, 12, 30, 34, 12, 38, 14, 42, 16, 14, 42, 38, 14, 12, 38, 174, 182, 185, 158, 179, 177, 158, 162, 179, 158, 150, 177, 192, 196, 185, 200, 196, 241, 136, 171, 165, 136, 132, 165, 140, 146, 143, 140, 135, 143, 140, 135, 138, 50, 18, 46, 50, 54, 18, 64, 58, 18, 64, 72, 18, 65, 62, 73, 65, 59, 62, 55, 51, 62, 55, 59, 62, 23, 20, 0, 89, 70, 68, 77, 113, 105, 77, 113, 83, 75, 67, 63, 91, 69, 71, 91, 87, 69, 175, 229, 169, 175, 183, 229, 189, 193, 229, 189, 183, 229, 209, 235, 233, 209, 235, 213, 231, 201, 229, 197, 193, 229, 197, 201, 229, 163, 153, 169, 163, 159, 153, 151, 147, 145, 151, 159, 147, 244, 242, 210, 244, 214, 210, 244, 214, 246, 212, 245, 216, 212, 245, 243, 212, 243, 208, 198, 194, 240, 198, 202, 240, 206, 242, 210, 206, 202, 242, 109, 128, 132, 109, 132, 165, 156, 176, 178, 156, 148, 176, 134, 170, 164, 134, 130, 164, 168, 162, 185, 168, 174, 185, 188, 182, 185, 188, 192, 185, 204, 200, 241, 204, 241, 243, 204, 243, 208, 144, 171, 150, 144, 136, 171, 217, 235, 213, 217, 235, 237, 217, 221, 237, 131, 127, 138, 131, 135, 138, 115, 119, 138, 115, 82, 138, 115, 82, 111, 122, 127, 138, 122, 119, 138, 141, 147, 145, 141, 145, 137, 141, 137, 139, 27, 31, 0, 27, 23, 0, 97, 70, 76, 97, 89, 70, 85, 68, 62, 85, 89, 68, 81, 87, 63, 81, 75, 63, 99, 91, 71, 99, 77, 71, 99, 77, 105, 205, 209, 233, 205, 231, 233, 205, 231, 201, 101, 98, 90, 101, 95, 90, 116, 109, 120, 116, 109, 112, 125, 109, 120, 125, 109, 128, 160, 156, 178, 160, 184, 178, 160, 184, 166, 142, 148, 170, 142, 134, 170, 157, 152, 146, 157, 161, 152, 167, 152, 154, 167, 161, 152, 167, 228, 154, 103, 76, 111, 103, 97, 76, 79, 62, 73, 79, 85, 62, 104, 101, 98, 211, 234, 215, 211, 207, 234, 232, 207, 234, 191, 228, 187, 149, 146, 143, 149, 157, 146, 173, 167, 228, 107, 104, 112, 107, 109, 112, 107, 104, 101, 203, 232, 207, 230, 228, 199, 230, 203, 199, 230, 203, 232, 195, 228, 199, 195, 191, 228, 181, 228, 187, 181, 173, 228, 62, 9, 8, 62, 9, 63, 11, 1, 0, 11, 10, 0, 7, 4, 6, 7, 4, 5, 7, 9, 8, 7, 6, 8, 3, 4, 5, 3, 4, 2, 3, 1, 0, 3, 2, 0, 238, 185, 184, 238, 185, 239, 17, 18, 16, 17, 18, 19, 179, 185, 184, 179, 184, 178, 236, 237, 247, 236, 247, 246, 68, 62, 63, 68, 69, 63, 241, 238, 239, 241, 238, 240, 241, 242, 243, 241, 242, 240, 176, 179, 178, 176, 179, 177, 12, 11, 10, 12, 11, 13, 171, 176, 177, 171, 176, 170, 171, 170, 164, 171, 165, 164, 82, 138, 139, 82, 83, 139, 70, 68, 69, 70, 69, 71, 93, 18, 19, 93, 18, 92, 93, 94, 92, 93, 95, 94, 14, 17, 16, 14, 17, 15, 14, 12, 13, 14, 15, 13, 235, 236, 237, 235, 234, 236, 152, 153, 155, 152, 155, 154, 152, 147, 153, 152, 147, 146, 77, 82, 83, 77, 82, 76, 77, 70, 71, 77, 70, 76, 244, 247, 246, 244, 245, 247, 244, 242, 243, 244, 245, 243, 109, 165, 164, 109, 164, 108, 141, 138, 139, 141, 140, 138, 141, 147, 146, 141, 140, 146, 101, 95, 94, 101, 94, 100, 228, 155, 154, 228, 229, 155, 104, 37, 41, 104, 116, 120, 104, 74, 66, 104, 61, 67, 104, 45, 41, 104, 25, 21, 104, 24, 21, 104, 113, 117, 104, 29, 33, 104, 86, 90, 104, 144, 150, 104, 60, 66, 104, 174, 182, 104, 188, 182, 104, 117, 121, 104, 189, 193, 104, 57, 53, 104, 151, 145, 104, 227, 224, 104, 52, 48, 104, 28, 32, 104, 44, 48, 104, 36, 32, 104, 168, 162, 104, 49, 53, 104, 123, 121, 104, 133, 137, 104, 81, 87, 104, 145, 137, 104, 29, 25, 104, 37, 33, 104, 61, 57, 104, 197, 193, 104, 220, 224, 104, 74, 80, 104, 52, 56, 104, 60, 56, 104, 24, 28, 104, 44, 40, 104, 36, 40, 104, 212, 208, 104, 158, 150, 104, 204, 208, 104, 45, 49, 104, 123, 129, 104, 133, 129, 104, 113, 105, 104, 75, 67, 104, 175, 169, 104, 209, 213, 104, 163, 169, 104, 220, 216, 104, 227, 225, 104, 221, 225, 104, 86, 80, 104, 205, 201, 104, 98, 90, 104, 158, 162, 104, 192, 196, 104, 200, 196, 104, 136, 132, 104, 128, 132, 104, 217, 213, 104, 91, 87, 104, 175, 183, 104, 189, 183, 104, 99, 105, 104, 197, 201, 104, 163, 159, 104, 151, 159, 104, 212, 216, 104, 125, 120, 104, 168, 174, 104, 188, 192, 104, 204, 200, 104, 144, 136, 104, 217, 221, 104, 81, 75, 104, 99, 91, 104, 205, 209, 104, 116, 112, 104, 125, 128, 232, 235, 234, 232, 235, 233, 107, 109, 108, 107, 106, 108, 107, 101, 100, 107, 106, 100, 230, 228, 229, 230, 231, 229, 230, 232, 233, 230, 231, 233, 181, 114, 110, 181, 186, 190, 181, 78, 84, 181, 22, 20, 181, 34, 30, 181, 47, 43, 181, 219, 215, 181, 88, 84, 181, 39, 43, 181, 198, 194, 181, 222, 226, 181, 214, 210, 181, 23, 20, 181, 223, 226, 181, 122, 127, 181, 55, 51, 181, 124, 126, 181, 102, 110, 181, 130, 126, 181, 26, 30, 181, 206, 210, 181, 222, 218, 181, 214, 218, 181, 42, 46, 181, 131, 127, 181, 72, 78, 181, 64, 58, 181, 172, 166, 181, 194, 190, 181, 124, 118, 181, 114, 118, 181, 96, 102, 181, 22, 26, 181, 42, 38, 181, 219, 223, 181, 135, 143, 181, 54, 58, 181, 50, 46, 181, 47, 51, 181, 65, 73, 181, 39, 35, 181, 31, 35, 181, 172, 180, 181, 186, 180, 181, 149, 143, 181, 88, 96, 181, 103, 111, 181, 34, 38, 181, 134, 130, 181, 142, 148, 181, 115, 111, 181, 50, 54, 181, 64, 72, 181, 65, 59, 181, 55, 59, 181, 79, 73, 181, 27, 31, 181, 198, 202, 181, 206, 202, 181, 156, 148, 181, 160, 166, 181, 211, 215, 181, 131, 135, 181, 115, 119, 181, 122, 119, 181, 191, 187, 181, 27, 23, 181, 97, 89, 181, 85, 89, 181, 160, 156, 181, 142, 134, 181, 195, 199, 181, 157, 161, 181, 167, 161, 181, 103, 97, 181, 79, 85, 181, 211, 207, 181, 203, 199, 181, 149, 157, 181, 173, 167, 181, 203, 207, 181, 195, 191]
                point3f[] points = [(-53.943012, 255, 10.729933), (-53.943012, 295, 10.729933), (-53.539295, 255, 12.483612), (-53.539295, 295, 12.483612), (-52.98881, 255, 14.198309), (-52.98881, 295, 14.198309), (-52.233845, 255, 15.844963), (-52.233845, 295, 15.844963), (-51.237247, 255, 17.392702), (-51.237247, 295, 17.392702), (-48.5287, 255, -23.931707), (-48.5287, 295, -23.931707), (-48.138985, 255, -25.730824), (-48.138985, 295, -25.730824), (-47.50847, 255, -27.429028), (-47.50847, 295, -27.429028), (-46.685246, 255, -29.03075), (-46.685246, 295, -29.03075), (-45.73068, 255, -30.556263), (-45.73068, 295, -30.556263), (-43, 240, -7.898972e-15), (-43, 310, -7.898972e-15), (-42.879765, 240, -3.213394), (-42.879765, 240, 3.213394), (-42.879765, 310, -3.213394), (-42.879765, 310, 3.213394), (-42.519726, 240, -6.4088173), (-42.519726, 240, 6.4088173), (-42.519726, 310, -6.4088173), (-42.519726, 310, 6.4088173), (-41.9219, 240, -9.5684), (-41.9219, 240, 9.5684), (-41.9219, 310, -9.5684), (-41.9219, 310, 9.5684), (-41.08963, 240, -12.674473), (-41.08963, 240, 12.674473), (-41.08963, 310, -12.674473), (-41.08963, 310, 12.674473), (-40.027573, 240, -15.709664), (-40.027573, 240, 15.709664), (-40.027573, 310, -15.709664), (-40.027573, 310, 15.709664), (-38.74166, 240, -18.657001), (-38.74166, 240, 18.657001), (-38.74166, 310, -18.657001), (-38.74166, 310, 18.657001), (-37.239094, 240, -21.5), (-37.239094, 240, 21.5), (-37.239094, 310, -21.5), (-37.239094, 310, 21.5), (-35.528267, 240, -24.222763), (-35.528267, 240, 24.222763), (-35.528267, 310, -24.222763), (-35.528267, 310, 24.222763), (-33.618755, 240, -26.810062), (-33.618755, 240, 26.810062), (-33.618755, 310, -26.810062), (-33.618755, 310, 26.810062), (-31.52123, 240, -29.247427), (-31.52123, 240, 29.247427), (-31.52123, 310, -29.247427), (-31.52123, 310, 29.247427), (-30.556263, 255, 45.73068), (-30.556263, 295, 45.73068), (-29.247427, 240, -31.52123), (-29.247427, 240, 31.52123), (-29.247427, 310, -31.52123), (-29.247427, 310, 31.52123), (-29.03075, 255, 46.685246), (-29.03075, 295, 46.685246), (-27.429028, 255, 47.50847), (-27.429028, 295, 47.50847), (-26.810062, 240, -33.618755), (-26.810062, 240, 33.618755), (-26.810062, 310, -33.618755), (-26.810062, 310, 33.618755), (-25.730824, 255, 48.138985), (-25.730824, 295, 48.138985), (-24.222763, 240, -35.528267), (-24.222763, 240, 35.528267), (-24.222763, 310, -35.528267), (-24.222763, 310, 35.528267), (-23.931707, 255, 48.5287), (-23.931707, 295, 48.5287), (-21.5, 240, -37.239094), (-21.5, 240, 37.239094), (-21.5, 310, -37.239094), (-21.5, 310, 37.239094), (-18.657001, 240, -38.74166), (-18.657001, 240, 38.74166), (-18.657001, 310, -38.74166), (-18.657001, 310, 38.74166), (-17.392702, 255, -51.237247), (-17.392702, 295, -51.237247), (-15.844963, 255, -52.233845), (-15.844963, 295, -52.233845), (-15.709664, 240, -40.027573), (-15.709664, 240, 40.027573), (-15.709664, 310, -40.027573), (-15.709664, 310, 40.027573), (-14.198309, 255, -52.98881), (-14.198309, 295, -52.98881), (-12.674473, 240, -41.08963), (-12.674473, 240, 41.08963), (-12.674473, 310, -41.08963), (-12.674473, 310, 41.08963), (-12.483612, 255, -53.539295), (-12.483612, 295, -53.539295), (-10.729933, 255, -53.943012), (-10.729933, 295, -53.943012), (-9.5684, 240, -41.9219), (-9.5684, 240, 41.9219), (-9.5684, 310, -41.9219), (-9.5684, 310, 41.9219), (-6.4088173, 240, -42.519726), (-6.4088173, 240, 42.519726), (-6.4088173, 310, -42.519726), (-6.4088173, 310, 42.519726), (-3.213394, 240, -42.879765), (-3.213394, 240, 42.879765), (-3.213394, 310, -42.879765), (-3.213394, 310, 42.879765), (-1.0531963e-14, 240, 43), (-1.0531963e-14, 310, 43), (6.255349e-14, 240, -43), (6.255349e-14, 310, -43), (3.213394, 240, -42.879765), (3.213394, 240, 42.879765), (3.213394, 310, -42.879765), (3.213394, 310, 42.879765), (6.4088173, 240, -42.519726), (6.4088173, 240, 42.519726), (6.4088173, 310, -42.519726), (6.4088173, 310, 42.519726), (9.5684, 240, -41.9219), (9.5684, 240, 41.9219), (9.5684, 310, -41.9219), (9.5684, 310, 41.9219), (10.729933, 255, 53.943012), (10.729933, 295, 53.943012), (12.483612, 255, 53.539295), (12.483612, 295, 53.539295), (12.674473, 240, -41.08963), (12.674473, 240, 41.08963), (12.674473, 310, -41.08963), (12.674473, 310, 41.08963), (14.198309, 255, 52.98881), (14.198309, 295, 52.98881), (15.709664, 240, -40.027573), (15.709664, 240, 40.027573), (15.709664, 310, -40.027573), (15.709664, 310, 40.027573), (15.844963, 255, 52.233845), (15.844963, 295, 52.233845), (17.392702, 255, 51.237247), (17.392702, 295, 51.237247), (18.657001, 240, -38.74166), (18.657001, 240, 38.74166), (18.657001, 310, -38.74166), (18.657001, 310, 38.74166), (21.5, 240, -37.239094), (21.5, 240, 37.239094), (21.5, 310, -37.239094), (21.5, 310, 37.239094), (23.931707, 255, -48.5287), (23.931707, 295, -48.5287), (24.222763, 240, -35.528267), (24.222763, 240, 35.528267), (24.222763, 310, -35.528267), (24.222763, 310, 35.528267), (25.730824, 255, -48.138985), (25.730824, 295, -48.138985), (26.810062, 240, -33.618755), (26.810062, 240, 33.618755), (26.810062, 310, -33.618755), (26.810062, 310, 33.618755), (27.429028, 255, -47.50847), (27.429028, 295, -47.50847), (29.03075, 255, -46.685246), (29.03075, 295, -46.685246), (29.247427, 240, -31.52123), (29.247427, 240, 31.52123), (29.247427, 310, -31.52123), (29.247427, 310, 31.52123), (30.556263, 255, -45.73068), (30.556263, 295, -45.73068), (31.52123, 240, -29.247427), (31.52123, 240, 29.247427), (31.52123, 310, -29.247427), (31.52123, 310, 29.247427), (33.618755, 240, -26.810062), (33.618755, 240, 26.810062), (33.618755, 310, -26.810062), (33.618755, 310, 26.810062), (35.528267, 240, -24.222763), (35.528267, 240, 24.222763), (35.528267, 310, -24.222763), (35.528267, 310, 24.222763), (37.239094, 240, -21.5), (37.239094, 240, 21.5), (37.239094, 310, -21.5), (37.239094, 310, 21.5), (38.74166, 240, -18.657001), (38.74166, 240, 18.657001), (38.74166, 310, -18.657001), (38.74166, 310, 18.657001), (40.027573, 240, -15.709664), (40.027573, 240, 15.709664), (40.027573, 310, -15.709664), (40.027573, 310, 15.709664), (41.08963, 240, -12.674473), (41.08963, 240, 12.674473), (41.08963, 310, -12.674473), (41.08963, 310, 12.674473), (41.9219, 240, -9.5684), (41.9219, 240, 9.5684), (41.9219, 310, -9.5684), (41.9219, 310, 9.5684), (42.519726, 240, -6.4088173), (42.519726, 240, 6.4088173), (42.519726, 310, -6.4088173), (42.519726, 310, 6.4088173), (42.879765, 240, -3.213394), (42.879765, 240, 3.213394), (42.879765, 310, -3.213394), (42.879765, 310, 3.213394), (43, 240, -1.6462846e-14), (43, 310, -1.6462846e-14), (45.73068, 255, 30.556263), (45.73068, 295, 30.556263), (46.685246, 255, 29.03075), (46.685246, 295, 29.03075), (47.50847, 255, 27.429028), (47.50847, 295, 27.429028), (48.138985, 255, 25.730824), (48.138985, 295, 25.730824), (48.5287, 255, 23.931707), (48.5287, 295, 23.931707), (51.237247, 255, -17.392702), (51.237247, 295, -17.392702), (52.233845, 255, -15.844963), (52.233845, 295, -15.844963), (52.98881, 255, -14.198309), (52.98881, 295, -14.198309), (53.539295, 255, -12.483612), (53.539295, 295, -12.483612), (53.943012, 255, -10.729933), (53.943012, 295, -10.729933)]
            }
        }

        def "Transfer"
        {
            def Mesh "S1_DISCHARGE" (
                customData = {
                    dictionary ppr = {
                        string collision_approximation = "concaveMesh"
                        string doc = "DERIVED S1_DISCHARGE: outlet under S1 chamber datum Y162.4..324.6; NOT C2.1 CAD"
                        string role = "static-derived"
                        string units = "mm (stage metersPerUnit=0.001)"
                    }
                }
            )
            {
                float3[] extent = [(60, 193.5, 413), (180, 293.5, 443)]
                int[] faceVertexCounts = [3, 3, 3, 3, 3, 3, 3, 3, 3, 3, 3, 3]
                int[] faceVertexIndices = [0, 1, 2, 0, 2, 3, 4, 6, 5, 4, 7, 6, 0, 4, 5, 0, 5, 1, 2, 6, 7, 2, 7, 3, 0, 3, 7, 0, 7, 4, 1, 5, 6, 1, 6, 2]
                point3f[] points = [(60, 193.5, 413), (180, 193.5, 413), (180, 293.5, 413), (60, 293.5, 413), (60, 193.5, 443), (180, 193.5, 443), (180, 293.5, 443), (60, 293.5, 443)]
            }

            def Mesh "CHUTE" (
                customData = {
                    dictionary ppr = {
                        string collision_approximation = "concaveMesh"
                        string doc = "DERIVED CHUTE: 45deg-class gravity slide S1 outlet -> S2 entry; NOT C2.1 CAD"
                        string role = "static-derived"
                        string units = "mm (stage metersPerUnit=0.001)"
                    }
                }
            )
            {
                float3[] extent = [(145, 198.5, 290), (255, 288.5, 410)]
                int[] faceVertexCounts = [3, 3, 3, 3, 3, 3, 3, 3, 3, 3, 3, 3]
                int[] faceVertexIndices = [0, 1, 2, 0, 2, 3, 4, 6, 5, 4, 7, 6, 0, 4, 5, 0, 5, 1, 2, 6, 7, 2, 7, 3, 0, 3, 7, 0, 7, 4, 1, 5, 6, 1, 6, 2]
                point3f[] points = [(145, 198.5, 290), (255, 198.5, 290), (255, 288.5, 290), (145, 288.5, 290), (145, 198.5, 410), (255, 198.5, 410), (255, 288.5, 410), (145, 288.5, 410)]
            }

            def Mesh "S2_ENTRY" (
                customData = {
                    dictionary ppr = {
                        string collision_approximation = "concaveMesh"
                        string doc = "DERIVED S2_ENTRY: throat above S2 bay; NOT C2.1 CAD"
                        string role = "static-derived"
                        string units = "mm (stage metersPerUnit=0.001)"
                    }
                }
            )
            {
                float3[] extent = [(263.6, 252.5, 317.5), (353.6, 297.5, 342.5)]
                int[] faceVertexCounts = [3, 3, 3, 3, 3, 3, 3, 3, 3, 3, 3, 3]
                int[] faceVertexIndices = [0, 1, 2, 0, 2, 3, 4, 6, 5, 4, 7, 6, 0, 4, 5, 0, 5, 1, 2, 6, 7, 2, 7, 3, 0, 3, 7, 0, 7, 4, 1, 5, 6, 1, 6, 2]
                point3f[] points = [(263.6, 252.5, 317.5), (353.6, 252.5, 317.5), (353.6, 297.5, 317.5), (263.6, 297.5, 317.5), (263.6, 252.5, 342.5), (353.6, 252.5, 342.5), (353.6, 297.5, 342.5), (263.6, 297.5, 342.5)]
            }

            def Mesh "S2_EXIT" (
                customData = {
                    dictionary ppr = {
                        string collision_approximation = "concaveMesh"
                        string doc = "DERIVED S2_EXIT: duct below screen arc; NOT C2.1 CAD"
                        string role = "static-derived"
                        string units = "mm (stage metersPerUnit=0.001)"
                    }
                }
            )
            {
                float3[] extent = [(263.6, 252.5, 180), (353.6, 297.5, 220)]
                int[] faceVertexCounts = [3, 3, 3, 3, 3, 3, 3, 3, 3, 3, 3, 3]
                int[] faceVertexIndices = [0, 1, 2, 0, 2, 3, 4, 6, 5, 4, 7, 6, 0, 4, 5, 0, 5, 1, 2, 6, 7, 2, 7, 3, 0, 3, 7, 0, 7, 4, 1, 5, 6, 1, 6, 2]
                point3f[] points = [(263.6, 252.5, 180), (353.6, 252.5, 180), (353.6, 297.5, 180), (263.6, 297.5, 180), (263.6, 252.5, 220), (353.6, 252.5, 220), (353.6, 297.5, 220), (263.6, 297.5, 220)]
            }
        }
    }
}

