ISO-10303-21;
HEADER;
FILE_DESCRIPTION(('FreeCAD Model'),'2;1');
FILE_NAME('Open CASCADE Shape Model','2000-01-01T00:00:00',('FreeCAD'),(
    'FreeCAD'),'Open CASCADE STEP processor 7.9','FreeCAD','Unknown');
FILE_SCHEMA(('AUTOMOTIVE_DESIGN { 1 0 10303 214 1 1 1 1 }'));
ENDSEC;
DATA;
#1 = APPLICATION_PROTOCOL_DEFINITION('international standard',
  'automotive_design',2000,#2);
#2 = APPLICATION_CONTEXT(
  'core data for automotive mechanical design processes');
#3 = SHAPE_DEFINITION_REPRESENTATION(#4,#10);
#4 = PRODUCT_DEFINITION_SHAPE('','',#5);
#5 = PRODUCT_DEFINITION('design','',#6,#9);
#6 = PRODUCT_DEFINITION_FORMATION('','',#7);
#7 = PRODUCT('Open CASCADE STEP translator 7.9 0',
  'Open CASCADE STEP translator 7.9 0','',(#8));
#8 = PRODUCT_CONTEXT('',#2,'mechanical');
#9 = PRODUCT_DEFINITION_CONTEXT('part definition',#2,'design');
#10 = ADVANCED_BREP_SHAPE_REPRESENTATION('',(#11,#15),#448);
#11 = AXIS2_PLACEMENT_3D('',#12,#13,#14);
#12 = CARTESIAN_POINT('',(0.,0.,0.));
#13 = DIRECTION('',(0.,0.,1.));
#14 = DIRECTION('',(1.,0.,-0.));
#15 = MANIFOLD_SOLID_BREP('',#16);
#16 = CLOSED_SHELL('',(#17,#115,#168,#199,#224,#255,#282,#306,#331,#356,
    #394,#417,#434));
#17 = ADVANCED_FACE('',(#18,#45),#110,.T.);
#18 = FACE_BOUND('',#19,.T.);
#19 = EDGE_LOOP('',(#20,#30,#37,#38));
#20 = ORIENTED_EDGE('',*,*,#21,.T.);
#21 = EDGE_CURVE('',#22,#24,#26,.T.);
#22 = VERTEX_POINT('',#23);
#23 = CARTESIAN_POINT('',(139.,188.,676.167));
#24 = VERTEX_POINT('',#25);
#25 = CARTESIAN_POINT('',(139.,210.,676.167));
#26 = LINE('',#27,#28);
#27 = CARTESIAN_POINT('',(139.,188.,676.167));
#28 = VECTOR('',#29,1.);
#29 = DIRECTION('',(0.,1.,-2.22044604925E-16));
#30 = ORIENTED_EDGE('',*,*,#31,.F.);
#31 = EDGE_CURVE('',#24,#24,#32,.T.);
#32 = CIRCLE('',#33,14.);
#33 = AXIS2_PLACEMENT_3D('',#34,#35,#36);
#34 = CARTESIAN_POINT('',(153.,210.,676.167));
#35 = DIRECTION('',(0.,1.,-2.22044604925E-16));
#36 = DIRECTION('',(-1.,0.,0.));
#37 = ORIENTED_EDGE('',*,*,#21,.F.);
#38 = ORIENTED_EDGE('',*,*,#39,.T.);
#39 = EDGE_CURVE('',#22,#22,#40,.T.);
#40 = CIRCLE('',#41,14.);
#41 = AXIS2_PLACEMENT_3D('',#42,#43,#44);
#42 = CARTESIAN_POINT('',(153.,188.,676.167));
#43 = DIRECTION('',(0.,1.,-2.22044604925E-16));
#44 = DIRECTION('',(-1.,0.,0.));
#45 = FACE_BOUND('',#46,.T.);
#46 = EDGE_LOOP('',(#47));
#47 = ORIENTED_EDGE('',*,*,#48,.F.);
#48 = EDGE_CURVE('',#49,#49,#51,.T.);
#49 = VERTEX_POINT('',#50);
#50 = CARTESIAN_POINT('',(153.,201.65,690.167));
#51 = B_SPLINE_CURVE_WITH_KNOTS('',8,(#52,#53,#54,#55,#56,#57,#58,#59,
    #60,#61,#62,#63,#64,#65,#66,#67,#68,#69,#70,#71,#72,#73,#74,#75,#76,
    #77,#78,#79,#80,#81,#82,#83,#84,#85,#86,#87,#88,#89,#90,#91,#92,#93,
    #94,#95,#96,#97,#98,#99,#100,#101,#102,#103,#104,#105,#106,#107,#108
    ,#109),.UNSPECIFIED.,.T.,.F.,(9,7,7,7,7,7,7,7,9),(0.,0.142543386593,
    0.276791476684,0.444639238229,0.591240051464,0.686339625146,
    0.790949681293,0.892367508952,1.),.UNSPECIFIED.);
#52 = CARTESIAN_POINT('',(153.,201.65,690.167));
#53 = CARTESIAN_POINT('',(152.80186434313,201.65,690.167));
#54 = CARTESIAN_POINT('',(152.60816918905,201.62280874419,
    690.16379521705));
#55 = CARTESIAN_POINT('',(152.42309945397,201.5705576282,690.15763746861
    ));
#56 = CARTESIAN_POINT('',(152.25027820038,201.49602335576,
    690.14914394461));
#57 = CARTESIAN_POINT('',(152.09269217174,201.40260685997,
    690.13918712747));
#58 = CARTESIAN_POINT('',(151.95256086174,201.29430380022,
    690.12870358606));
#59 = CARTESIAN_POINT('',(151.83116535173,201.17566554906,
    690.11850248891));
#60 = CARTESIAN_POINT('',(151.63210663329,200.93504489293,
    690.10035087027));
#61 = CARTESIAN_POINT('',(151.55031369442,200.81124601981,
    690.09212195817));
#62 = CARTESIAN_POINT('',(151.48289923756,200.68216619176,
    690.08484392651));
#63 = CARTESIAN_POINT('',(151.42946917329,200.54924345433,
    690.07878808555));
#64 = CARTESIAN_POINT('',(151.38966910645,200.41364469563,
    690.07413596579));
#65 = CARTESIAN_POINT('',(151.36322862883,200.27634582173,
    690.07099786966));
#66 = CARTESIAN_POINT('',(151.35,200.13819926405,690.06942784552));
#67 = CARTESIAN_POINT('',(151.35,199.82721216291,690.06942784552));
#68 = CARTESIAN_POINT('',(151.37067840712,199.65448494907,
    690.07188193488));
#69 = CARTESIAN_POINT('',(151.41201470353,199.4833758998,690.07678835597
    ));
#70 = CARTESIAN_POINT('',(151.474378477,199.31559547843,690.08401457258)
  );
#71 = CARTESIAN_POINT('',(151.55841001507,199.15319314035,
    690.09329037214));
#72 = CARTESIAN_POINT('',(151.66491158994,198.99875703038,
    690.10414998151));
#73 = CARTESIAN_POINT('',(151.79468493545,198.85569356409,
    690.11586847743));
#74 = CARTESIAN_POINT('',(152.08237686733,198.61769409977,690.1375425735
    ));
#75 = CARTESIAN_POINT('',(152.23873265455,198.51558410324,
    690.14784104057));
#76 = CARTESIAN_POINT('',(152.4149951892,198.43054096106,690.15730300884
    ));
#77 = CARTESIAN_POINT('',(152.60692845138,198.36870203326,
    690.16470537215));
#78 = CARTESIAN_POINT('',(152.80884786528,198.33411826117,
    690.16894790225));
#79 = CARTESIAN_POINT('',(153.01433875573,198.32870333957,
    690.16953639943));
#80 = CARTESIAN_POINT('',(153.21683680417,198.35215504079,
    690.16665916828));
#81 = CARTESIAN_POINT('',(153.53586224966,198.43406685304,
    690.15730455191));
#82 = CARTESIAN_POINT('',(153.65849055365,198.47756305056,
    690.15242096099));
#83 = CARTESIAN_POINT('',(153.77703779851,198.53201929917,
    690.14647158145));
#84 = CARTESIAN_POINT('',(153.89037102928,198.59698577162,
    690.13965699677));
#85 = CARTESIAN_POINT('',(153.99741721129,198.67187358636,
    690.13222883528));
#86 = CARTESIAN_POINT('',(154.097177411,198.75596144439,690.12447273336)
  );
#87 = CARTESIAN_POINT('',(154.18874770977,198.84840520735,
    690.11668667144));
#88 = CARTESIAN_POINT('',(154.36220636154,199.05808069873,
    690.10086945268));
#89 = CARTESIAN_POINT('',(154.44223716489,199.17690050743,
    690.09288949616));
#90 = CARTESIAN_POINT('',(154.51037894884,199.30343654508,
    690.08559371508));
#91 = CARTESIAN_POINT('',(154.56577519116,199.43629212927,
    690.07934310574));
#92 = CARTESIAN_POINT('',(154.60777236547,199.57396825573,
    690.07443984464));
#93 = CARTESIAN_POINT('',(154.63592405876,199.7148904705,690.07109828242
    ));
#94 = CARTESIAN_POINT('',(154.65,199.85744155155,690.06942784552));
#95 = CARTESIAN_POINT('',(154.65,200.13820820567,690.06942784552));
#96 = CARTESIAN_POINT('',(154.63676967381,200.27635693501,
    690.07099807006));
#97 = CARTESIAN_POINT('',(154.61032800456,200.41365181904,
    690.07413631085));
#98 = CARTESIAN_POINT('',(154.57052917923,200.54924251495,
    690.07878826136));
#99 = CARTESIAN_POINT('',(154.51710325987,200.68215672265,
    690.08484359775));
#100 = CARTESIAN_POINT('',(154.44969399733,200.81123190437,
    690.09212110838));
#101 = CARTESIAN_POINT('',(154.3679026726,200.93503364403,
    690.10035002169));
#102 = CARTESIAN_POINT('',(154.16887429827,201.17561762043,
    690.11849887333));
#103 = CARTESIAN_POINT('',(154.04748334397,201.29427213461,
    690.12870022575));
#104 = CARTESIAN_POINT('',(153.90732230003,201.40261242543,
    690.13918699907));
#105 = CARTESIAN_POINT('',(153.74968525211,201.49605813685,
    690.14914750588));
#106 = CARTESIAN_POINT('',(153.57681290783,201.57059885146,
    690.15764233387));
#107 = CARTESIAN_POINT('',(153.39171736002,201.62283334064,
    690.16379811486));
#108 = CARTESIAN_POINT('',(153.19804602301,201.65,690.167));
#109 = CARTESIAN_POINT('',(153.,201.65,690.167));
#110 = CYLINDRICAL_SURFACE('',#111,14.);
#111 = AXIS2_PLACEMENT_3D('',#112,#113,#114);
#112 = CARTESIAN_POINT('',(153.,188.,676.167));
#113 = DIRECTION('',(0.,1.,-2.22044604925E-16));
#114 = DIRECTION('',(-1.,0.,0.));
#115 = ADVANCED_FACE('',(#116,#119),#163,.F.);
#116 = FACE_BOUND('',#117,.F.);
#117 = EDGE_LOOP('',(#118));
#118 = ORIENTED_EDGE('',*,*,#39,.T.);
#119 = FACE_BOUND('',#120,.F.);
#120 = EDGE_LOOP('',(#121,#132,#140,#148,#156));
#121 = ORIENTED_EDGE('',*,*,#122,.F.);
#122 = EDGE_CURVE('',#123,#125,#127,.T.);
#123 = VERTEX_POINT('',#124);
#124 = CARTESIAN_POINT('',(155.05,188.,681.83252071746));
#125 = VERTEX_POINT('',#126);
#126 = CARTESIAN_POINT('',(146.975,188.,676.167));
#127 = CIRCLE('',#128,6.025);
#128 = AXIS2_PLACEMENT_3D('',#129,#130,#131);
#129 = CARTESIAN_POINT('',(153.,188.,676.167));
#130 = DIRECTION('',(0.,1.,-2.22044604925E-16));
#131 = DIRECTION('',(-1.,0.,0.));
#132 = ORIENTED_EDGE('',*,*,#133,.T.);
#133 = EDGE_CURVE('',#123,#134,#136,.T.);
#134 = VERTEX_POINT('',#135);
#135 = CARTESIAN_POINT('',(155.05,188.,684.192));
#136 = LINE('',#137,#138);
#137 = CARTESIAN_POINT('',(155.05,188.,679.592));
#138 = VECTOR('',#139,1.);
#139 = DIRECTION('',(0.,2.22044604925E-16,1.));
#140 = ORIENTED_EDGE('',*,*,#141,.T.);
#141 = EDGE_CURVE('',#134,#142,#144,.T.);
#142 = VERTEX_POINT('',#143);
#143 = CARTESIAN_POINT('',(150.95,188.,684.192));
#144 = LINE('',#145,#146);
#145 = CARTESIAN_POINT('',(155.05,188.,684.192));
#146 = VECTOR('',#147,1.);
#147 = DIRECTION('',(-1.,0.,0.));
#148 = ORIENTED_EDGE('',*,*,#149,.F.);
#149 = EDGE_CURVE('',#150,#142,#152,.T.);
#150 = VERTEX_POINT('',#151);
#151 = CARTESIAN_POINT('',(150.95,188.,681.83252071746));
#152 = LINE('',#153,#154);
#153 = CARTESIAN_POINT('',(150.95,188.,679.592));
#154 = VECTOR('',#155,1.);
#155 = DIRECTION('',(0.,2.22044604925E-16,1.));
#156 = ORIENTED_EDGE('',*,*,#157,.F.);
#157 = EDGE_CURVE('',#125,#150,#158,.T.);
#158 = CIRCLE('',#159,6.025);
#159 = AXIS2_PLACEMENT_3D('',#160,#161,#162);
#160 = CARTESIAN_POINT('',(153.,188.,676.167));
#161 = DIRECTION('',(0.,1.,-2.22044604925E-16));
#162 = DIRECTION('',(-1.,0.,0.));
#163 = PLANE('',#164);
#164 = AXIS2_PLACEMENT_3D('',#165,#166,#167);
#165 = CARTESIAN_POINT('',(153.,188.,676.167));
#166 = DIRECTION('',(0.,1.,-2.22044604925E-16));
#167 = DIRECTION('',(-1.,0.,0.));
#168 = ADVANCED_FACE('',(#169,#180,#183),#194,.F.);
#169 = FACE_BOUND('',#170,.F.);
#170 = EDGE_LOOP('',(#171));
#171 = ORIENTED_EDGE('',*,*,#172,.T.);
#172 = EDGE_CURVE('',#173,#173,#175,.T.);
#173 = VERTEX_POINT('',#174);
#174 = CARTESIAN_POINT('',(130.,210.,676.167));
#175 = CIRCLE('',#176,23.);
#176 = AXIS2_PLACEMENT_3D('',#177,#178,#179);
#177 = CARTESIAN_POINT('',(153.,210.,676.167));
#178 = DIRECTION('',(0.,1.,-2.22044604925E-16));
#179 = DIRECTION('',(-1.,0.,0.));
#180 = FACE_BOUND('',#181,.F.);
#181 = EDGE_LOOP('',(#182));
#182 = ORIENTED_EDGE('',*,*,#31,.F.);
#183 = FACE_BOUND('',#184,.F.);
#184 = EDGE_LOOP('',(#185));
#185 = ORIENTED_EDGE('',*,*,#186,.F.);
#186 = EDGE_CURVE('',#187,#187,#189,.T.);
#187 = VERTEX_POINT('',#188);
#188 = CARTESIAN_POINT('',(135.45,210.,676.167));
#189 = CIRCLE('',#190,1.55);
#190 = AXIS2_PLACEMENT_3D('',#191,#192,#193);
#191 = CARTESIAN_POINT('',(137.,210.,676.167));
#192 = DIRECTION('',(0.,1.,-2.22044604925E-16));
#193 = DIRECTION('',(-1.,0.,0.));
#194 = PLANE('',#195);
#195 = AXIS2_PLACEMENT_3D('',#196,#197,#198);
#196 = CARTESIAN_POINT('',(153.,210.,676.167));
#197 = DIRECTION('',(0.,1.,-2.22044604925E-16));
#198 = DIRECTION('',(-1.,0.,0.));
#199 = ADVANCED_FACE('',(#200),#219,.F.);
#200 = FACE_BOUND('',#201,.F.);
#201 = EDGE_LOOP('',(#202,#203,#211,#218));
#202 = ORIENTED_EDGE('',*,*,#48,.F.);
#203 = ORIENTED_EDGE('',*,*,#204,.F.);
#204 = EDGE_CURVE('',#205,#49,#207,.T.);
#205 = VERTEX_POINT('',#206);
#206 = CARTESIAN_POINT('',(153.,201.65,684.192));
#207 = LINE('',#208,#209);
#208 = CARTESIAN_POINT('',(153.,201.65,676.167));
#209 = VECTOR('',#210,1.);
#210 = DIRECTION('',(0.,2.22044604925E-16,1.));
#211 = ORIENTED_EDGE('',*,*,#212,.T.);
#212 = EDGE_CURVE('',#205,#205,#213,.T.);
#213 = CIRCLE('',#214,1.65);
#214 = AXIS2_PLACEMENT_3D('',#215,#216,#217);
#215 = CARTESIAN_POINT('',(153.,200.,684.192));
#216 = DIRECTION('',(0.,2.22044604925E-16,1.));
#217 = DIRECTION('',(0.,1.,-2.22044604925E-16));
#218 = ORIENTED_EDGE('',*,*,#204,.T.);
#219 = CYLINDRICAL_SURFACE('',#220,1.65);
#220 = AXIS2_PLACEMENT_3D('',#221,#222,#223);
#221 = CARTESIAN_POINT('',(153.,200.,676.167));
#222 = DIRECTION('',(0.,2.22044604925E-16,1.));
#223 = DIRECTION('',(0.,1.,-2.22044604925E-16));
#224 = ADVANCED_FACE('',(#225),#250,.F.);
#225 = FACE_BOUND('',#226,.F.);
#226 = EDGE_LOOP('',(#227,#235,#236,#244));
#227 = ORIENTED_EDGE('',*,*,#228,.F.);
#228 = EDGE_CURVE('',#150,#229,#231,.T.);
#229 = VERTEX_POINT('',#230);
#230 = CARTESIAN_POINT('',(150.95,218.,681.83252071746));
#231 = LINE('',#232,#233);
#232 = CARTESIAN_POINT('',(150.95,188.,681.83252071746));
#233 = VECTOR('',#234,1.);
#234 = DIRECTION('',(0.,1.,-2.22044604925E-16));
#235 = ORIENTED_EDGE('',*,*,#149,.T.);
#236 = ORIENTED_EDGE('',*,*,#237,.T.);
#237 = EDGE_CURVE('',#142,#238,#240,.T.);
#238 = VERTEX_POINT('',#239);
#239 = CARTESIAN_POINT('',(150.95,218.,684.192));
#240 = LINE('',#241,#242);
#241 = CARTESIAN_POINT('',(150.95,188.,684.192));
#242 = VECTOR('',#243,1.);
#243 = DIRECTION('',(0.,1.,-2.22044604925E-16));
#244 = ORIENTED_EDGE('',*,*,#245,.F.);
#245 = EDGE_CURVE('',#229,#238,#246,.T.);
#246 = LINE('',#247,#248);
#247 = CARTESIAN_POINT('',(150.95,218.,679.592));
#248 = VECTOR('',#249,1.);
#249 = DIRECTION('',(0.,2.22044604925E-16,1.));
#250 = PLANE('',#251);
#251 = AXIS2_PLACEMENT_3D('',#252,#253,#254);
#252 = CARTESIAN_POINT('',(150.95,188.,679.592));
#253 = DIRECTION('',(-1.,0.,0.));
#254 = DIRECTION('',(0.,1.,-2.22044604925E-16));
#255 = ADVANCED_FACE('',(#256,#274),#277,.F.);
#256 = FACE_BOUND('',#257,.F.);
#257 = EDGE_LOOP('',(#258,#259,#267,#273));
#258 = ORIENTED_EDGE('',*,*,#141,.F.);
#259 = ORIENTED_EDGE('',*,*,#260,.T.);
#260 = EDGE_CURVE('',#134,#261,#263,.T.);
#261 = VERTEX_POINT('',#262);
#262 = CARTESIAN_POINT('',(155.05,218.,684.192));
#263 = LINE('',#264,#265);
#264 = CARTESIAN_POINT('',(155.05,188.,684.192));
#265 = VECTOR('',#266,1.);
#266 = DIRECTION('',(0.,1.,-2.22044604925E-16));
#267 = ORIENTED_EDGE('',*,*,#268,.T.);
#268 = EDGE_CURVE('',#261,#238,#269,.T.);
#269 = LINE('',#270,#271);
#270 = CARTESIAN_POINT('',(155.05,218.,684.192));
#271 = VECTOR('',#272,1.);
#272 = DIRECTION('',(-1.,0.,0.));
#273 = ORIENTED_EDGE('',*,*,#237,.F.);
#274 = FACE_BOUND('',#275,.F.);
#275 = EDGE_LOOP('',(#276));
#276 = ORIENTED_EDGE('',*,*,#212,.F.);
#277 = PLANE('',#278);
#278 = AXIS2_PLACEMENT_3D('',#279,#280,#281);
#279 = CARTESIAN_POINT('',(155.05,188.,684.192));
#280 = DIRECTION('',(0.,2.22044604925E-16,1.));
#281 = DIRECTION('',(0.,1.,-2.22044604925E-16));
#282 = ADVANCED_FACE('',(#283),#301,.T.);
#283 = FACE_BOUND('',#284,.T.);
#284 = EDGE_LOOP('',(#285,#293,#294,#295));
#285 = ORIENTED_EDGE('',*,*,#286,.F.);
#286 = EDGE_CURVE('',#123,#287,#289,.T.);
#287 = VERTEX_POINT('',#288);
#288 = CARTESIAN_POINT('',(155.05,218.,681.83252071746));
#289 = LINE('',#290,#291);
#290 = CARTESIAN_POINT('',(155.05,188.,681.83252071746));
#291 = VECTOR('',#292,1.);
#292 = DIRECTION('',(0.,1.,-2.22044604925E-16));
#293 = ORIENTED_EDGE('',*,*,#133,.T.);
#294 = ORIENTED_EDGE('',*,*,#260,.T.);
#295 = ORIENTED_EDGE('',*,*,#296,.F.);
#296 = EDGE_CURVE('',#287,#261,#297,.T.);
#297 = LINE('',#298,#299);
#298 = CARTESIAN_POINT('',(155.05,218.,679.592));
#299 = VECTOR('',#300,1.);
#300 = DIRECTION('',(0.,2.22044604925E-16,1.));
#301 = PLANE('',#302);
#302 = AXIS2_PLACEMENT_3D('',#303,#304,#305);
#303 = CARTESIAN_POINT('',(155.05,188.,679.592));
#304 = DIRECTION('',(-1.,0.,0.));
#305 = DIRECTION('',(0.,1.,-2.22044604925E-16));
#306 = ADVANCED_FACE('',(#307),#326,.T.);
#307 = FACE_BOUND('',#308,.T.);
#308 = EDGE_LOOP('',(#309,#318,#324,#325));
#309 = ORIENTED_EDGE('',*,*,#310,.F.);
#310 = EDGE_CURVE('',#311,#311,#313,.T.);
#311 = VERTEX_POINT('',#312);
#312 = CARTESIAN_POINT('',(130.,214.,676.167));
#313 = CIRCLE('',#314,23.);
#314 = AXIS2_PLACEMENT_3D('',#315,#316,#317);
#315 = CARTESIAN_POINT('',(153.,214.,676.167));
#316 = DIRECTION('',(0.,1.,-2.22044604925E-16));
#317 = DIRECTION('',(-1.,0.,0.));
#318 = ORIENTED_EDGE('',*,*,#319,.F.);
#319 = EDGE_CURVE('',#173,#311,#320,.T.);
#320 = LINE('',#321,#322);
#321 = CARTESIAN_POINT('',(130.,210.,676.167));
#322 = VECTOR('',#323,1.);
#323 = DIRECTION('',(0.,1.,-2.22044604925E-16));
#324 = ORIENTED_EDGE('',*,*,#172,.T.);
#325 = ORIENTED_EDGE('',*,*,#319,.T.);
#326 = CYLINDRICAL_SURFACE('',#327,23.);
#327 = AXIS2_PLACEMENT_3D('',#328,#329,#330);
#328 = CARTESIAN_POINT('',(153.,210.,676.167));
#329 = DIRECTION('',(0.,1.,-2.22044604925E-16));
#330 = DIRECTION('',(-1.,0.,0.));
#331 = ADVANCED_FACE('',(#332),#351,.F.);
#332 = FACE_BOUND('',#333,.F.);
#333 = EDGE_LOOP('',(#334,#343,#349,#350));
#334 = ORIENTED_EDGE('',*,*,#335,.F.);
#335 = EDGE_CURVE('',#336,#336,#338,.T.);
#336 = VERTEX_POINT('',#337);
#337 = CARTESIAN_POINT('',(135.45,214.,676.167));
#338 = CIRCLE('',#339,1.55);
#339 = AXIS2_PLACEMENT_3D('',#340,#341,#342);
#340 = CARTESIAN_POINT('',(137.,214.,676.167));
#341 = DIRECTION('',(0.,1.,-2.22044604925E-16));
#342 = DIRECTION('',(-1.,0.,0.));
#343 = ORIENTED_EDGE('',*,*,#344,.F.);
#344 = EDGE_CURVE('',#187,#336,#345,.T.);
#345 = LINE('',#346,#347);
#346 = CARTESIAN_POINT('',(135.45,210.,676.167));
#347 = VECTOR('',#348,1.);
#348 = DIRECTION('',(0.,1.,-2.22044604925E-16));
#349 = ORIENTED_EDGE('',*,*,#186,.T.);
#350 = ORIENTED_EDGE('',*,*,#344,.T.);
#351 = CYLINDRICAL_SURFACE('',#352,1.55);
#352 = AXIS2_PLACEMENT_3D('',#353,#354,#355);
#353 = CARTESIAN_POINT('',(137.,210.,676.167));
#354 = DIRECTION('',(0.,1.,-2.22044604925E-16));
#355 = DIRECTION('',(-1.,0.,0.));
#356 = ADVANCED_FACE('',(#357,#368),#389,.T.);
#357 = FACE_BOUND('',#358,.T.);
#358 = EDGE_LOOP('',(#359));
#359 = ORIENTED_EDGE('',*,*,#360,.T.);
#360 = EDGE_CURVE('',#361,#361,#363,.T.);
#361 = VERTEX_POINT('',#362);
#362 = CARTESIAN_POINT('',(143.,218.,676.167));
#363 = CIRCLE('',#364,10.);
#364 = AXIS2_PLACEMENT_3D('',#365,#366,#367);
#365 = CARTESIAN_POINT('',(153.,218.,676.167));
#366 = DIRECTION('',(0.,1.,-2.22044604925E-16));
#367 = DIRECTION('',(-1.,0.,0.));
#368 = FACE_BOUND('',#369,.T.);
#369 = EDGE_LOOP('',(#370,#379,#380,#381,#382));
#370 = ORIENTED_EDGE('',*,*,#371,.F.);
#371 = EDGE_CURVE('',#287,#372,#374,.T.);
#372 = VERTEX_POINT('',#373);
#373 = CARTESIAN_POINT('',(146.975,218.,676.167));
#374 = CIRCLE('',#375,6.025);
#375 = AXIS2_PLACEMENT_3D('',#376,#377,#378);
#376 = CARTESIAN_POINT('',(153.,218.,676.167));
#377 = DIRECTION('',(0.,1.,-2.22044604925E-16));
#378 = DIRECTION('',(-1.,0.,0.));
#379 = ORIENTED_EDGE('',*,*,#296,.T.);
#380 = ORIENTED_EDGE('',*,*,#268,.T.);
#381 = ORIENTED_EDGE('',*,*,#245,.F.);
#382 = ORIENTED_EDGE('',*,*,#383,.F.);
#383 = EDGE_CURVE('',#372,#229,#384,.T.);
#384 = CIRCLE('',#385,6.025);
#385 = AXIS2_PLACEMENT_3D('',#386,#387,#388);
#386 = CARTESIAN_POINT('',(153.,218.,676.167));
#387 = DIRECTION('',(0.,1.,-2.22044604925E-16));
#388 = DIRECTION('',(-1.,0.,0.));
#389 = PLANE('',#390);
#390 = AXIS2_PLACEMENT_3D('',#391,#392,#393);
#391 = CARTESIAN_POINT('',(153.,218.,676.167));
#392 = DIRECTION('',(0.,1.,-2.22044604925E-16));
#393 = DIRECTION('',(-1.,0.,0.));
#394 = ADVANCED_FACE('',(#395,#398,#409),#412,.T.);
#395 = FACE_BOUND('',#396,.T.);
#396 = EDGE_LOOP('',(#397));
#397 = ORIENTED_EDGE('',*,*,#310,.T.);
#398 = FACE_BOUND('',#399,.T.);
#399 = EDGE_LOOP('',(#400));
#400 = ORIENTED_EDGE('',*,*,#401,.F.);
#401 = EDGE_CURVE('',#402,#402,#404,.T.);
#402 = VERTEX_POINT('',#403);
#403 = CARTESIAN_POINT('',(143.,214.,676.167));
#404 = CIRCLE('',#405,10.);
#405 = AXIS2_PLACEMENT_3D('',#406,#407,#408);
#406 = CARTESIAN_POINT('',(153.,214.,676.167));
#407 = DIRECTION('',(0.,1.,-2.22044604925E-16));
#408 = DIRECTION('',(-1.,0.,0.));
#409 = FACE_BOUND('',#410,.T.);
#410 = EDGE_LOOP('',(#411));
#411 = ORIENTED_EDGE('',*,*,#335,.F.);
#412 = PLANE('',#413);
#413 = AXIS2_PLACEMENT_3D('',#414,#415,#416);
#414 = CARTESIAN_POINT('',(153.,214.,676.167));
#415 = DIRECTION('',(0.,1.,-2.22044604925E-16));
#416 = DIRECTION('',(-1.,0.,0.));
#417 = ADVANCED_FACE('',(#418),#429,.T.);
#418 = FACE_BOUND('',#419,.T.);
#419 = EDGE_LOOP('',(#420,#421,#427,#428));
#420 = ORIENTED_EDGE('',*,*,#360,.F.);
#421 = ORIENTED_EDGE('',*,*,#422,.F.);
#422 = EDGE_CURVE('',#402,#361,#423,.T.);
#423 = LINE('',#424,#425);
#424 = CARTESIAN_POINT('',(143.,214.,676.167));
#425 = VECTOR('',#426,1.);
#426 = DIRECTION('',(0.,1.,-2.22044604925E-16));
#427 = ORIENTED_EDGE('',*,*,#401,.T.);
#428 = ORIENTED_EDGE('',*,*,#422,.T.);
#429 = CYLINDRICAL_SURFACE('',#430,10.);
#430 = AXIS2_PLACEMENT_3D('',#431,#432,#433);
#431 = CARTESIAN_POINT('',(153.,214.,676.167));
#432 = DIRECTION('',(0.,1.,-2.22044604925E-16));
#433 = DIRECTION('',(-1.,0.,0.));
#434 = ADVANCED_FACE('',(#435),#443,.F.);
#435 = FACE_BOUND('',#436,.F.);
#436 = EDGE_LOOP('',(#437,#438,#439,#440,#441,#442));
#437 = ORIENTED_EDGE('',*,*,#228,.T.);
#438 = ORIENTED_EDGE('',*,*,#383,.F.);
#439 = ORIENTED_EDGE('',*,*,#371,.F.);
#440 = ORIENTED_EDGE('',*,*,#286,.F.);
#441 = ORIENTED_EDGE('',*,*,#122,.T.);
#442 = ORIENTED_EDGE('',*,*,#157,.T.);
#443 = CYLINDRICAL_SURFACE('',#444,6.025);
#444 = AXIS2_PLACEMENT_3D('',#445,#446,#447);
#445 = CARTESIAN_POINT('',(153.,188.,676.167));
#446 = DIRECTION('',(0.,1.,-2.22044604925E-16));
#447 = DIRECTION('',(-1.,0.,0.));
#448 = ( GEOMETRIC_REPRESENTATION_CONTEXT(3) 
GLOBAL_UNCERTAINTY_ASSIGNED_CONTEXT((#452)) GLOBAL_UNIT_ASSIGNED_CONTEXT
((#449,#450,#451)) REPRESENTATION_CONTEXT('Context #1',
  '3D Context with UNIT and UNCERTAINTY') );
#449 = ( LENGTH_UNIT() NAMED_UNIT(*) SI_UNIT(.MILLI.,.METRE.) );
#450 = ( NAMED_UNIT(*) PLANE_ANGLE_UNIT() SI_UNIT($,.RADIAN.) );
#451 = ( NAMED_UNIT(*) SI_UNIT($,.STERADIAN.) SOLID_ANGLE_UNIT() );
#452 = UNCERTAINTY_MEASURE_WITH_UNIT(LENGTH_MEASURE(1.E-07),#449,
  'distance_accuracy_value','confusion accuracy');
#453 = PRODUCT_RELATED_PRODUCT_CATEGORY('part',$,(#7));
ENDSEC;
END-ISO-10303-21;
