ISO-10303-21;
HEADER;
FILE_DESCRIPTION(('FreeCAD Model'),'2;1');
FILE_NAME('Open CASCADE Shape Model','2000-01-01T00:00:00',('FreeCAD'),(
    'FreeCAD'),'Open CASCADE STEP processor 7.9','FreeCAD','Unknown');
FILE_SCHEMA(('AUTOMOTIVE_DESIGN { 1 0 10303 214 1 1 1 1 }'));
ENDSEC;
DATA;
#1 = APPLICATION_PROTOCOL_DEFINITION('international standard',
  'automotive_design',2000,#2);
#2 = APPLICATION_CONTEXT(
  'core data for automotive mechanical design processes');
#3 = SHAPE_DEFINITION_REPRESENTATION(#4,#10);
#4 = PRODUCT_DEFINITION_SHAPE('','',#5);
#5 = PRODUCT_DEFINITION('design','',#6,#9);
#6 = PRODUCT_DEFINITION_FORMATION('','',#7);
#7 = PRODUCT('Open CASCADE STEP translator 7.9 0',
  'Open CASCADE STEP translator 7.9 0','',(#8));
#8 = PRODUCT_CONTEXT('',#2,'mechanical');
#9 = PRODUCT_DEFINITION_CONTEXT('part definition',#2,'design');
#10 = ADVANCED_BREP_SHAPE_REPRESENTATION('',(#11,#15),#448);
#11 = AXIS2_PLACEMENT_3D('',#12,#13,#14);
#12 = CARTESIAN_POINT('',(0.,0.,0.));
#13 = DIRECTION('',(0.,0.,1.));
#14 = DIRECTION('',(1.,0.,-0.));
#15 = MANIFOLD_SOLID_BREP('',#16);
#16 = CLOSED_SHELL('',(#17,#115,#168,#199,#224,#255,#282,#306,#331,#356,
    #394,#417,#434));
#17 = ADVANCED_FACE('',(#18,#45),#110,.T.);
#18 = FACE_BOUND('',#19,.T.);
#19 = EDGE_LOOP('',(#20,#30,#37,#38));
#20 = ORIENTED_EDGE('',*,*,#21,.T.);
#21 = EDGE_CURVE('',#22,#24,#26,.T.);
#22 = VERTEX_POINT('',#23);
#23 = CARTESIAN_POINT('',(320.,469.,396.));
#24 = VERTEX_POINT('',#25);
#25 = CARTESIAN_POINT('',(320.,447.,396.));
#26 = LINE('',#27,#28);
#27 = CARTESIAN_POINT('',(320.,469.,396.));
#28 = VECTOR('',#29,1.);
#29 = DIRECTION('',(0.,-1.,0.));
#30 = ORIENTED_EDGE('',*,*,#31,.F.);
#31 = EDGE_CURVE('',#24,#24,#32,.T.);
#32 = CIRCLE('',#33,14.);
#33 = AXIS2_PLACEMENT_3D('',#34,#35,#36);
#34 = CARTESIAN_POINT('',(320.,447.,382.));
#35 = DIRECTION('',(0.,-1.,0.));
#36 = DIRECTION('',(0.,0.,1.));
#37 = ORIENTED_EDGE('',*,*,#21,.F.);
#38 = ORIENTED_EDGE('',*,*,#39,.T.);
#39 = EDGE_CURVE('',#22,#22,#40,.T.);
#40 = CIRCLE('',#41,14.);
#41 = AXIS2_PLACEMENT_3D('',#42,#43,#44);
#42 = CARTESIAN_POINT('',(320.,469.,382.));
#43 = DIRECTION('',(0.,-1.,0.));
#44 = DIRECTION('',(0.,0.,1.));
#45 = FACE_BOUND('',#46,.T.);
#46 = EDGE_LOOP('',(#47));
#47 = ORIENTED_EDGE('',*,*,#48,.F.);
#48 = EDGE_CURVE('',#49,#49,#51,.T.);
#49 = VERTEX_POINT('',#50);
#50 = CARTESIAN_POINT('',(306.,455.35,382.));
#51 = B_SPLINE_CURVE_WITH_KNOTS('',8,(#52,#53,#54,#55,#56,#57,#58,#59,
    #60,#61,#62,#63,#64,#65,#66,#67,#68,#69,#70,#71,#72,#73,#74,#75,#76,
    #77,#78,#79,#80,#81,#82,#83,#84,#85,#86,#87,#88,#89,#90,#91,#92,#93,
    #94,#95,#96,#97,#98,#99,#100,#101,#102,#103,#104,#105,#106,#107,#108
    ,#109),.UNSPECIFIED.,.T.,.F.,(9,7,7,7,7,7,7,7,9),(0.,0.142543386593,
    0.276791476684,0.444639238229,0.591240051464,0.686339625146,
    0.790949681293,0.892367508952,1.),.UNSPECIFIED.);
#52 = CARTESIAN_POINT('',(306.,455.35,382.));
#53 = CARTESIAN_POINT('',(306.,455.35,382.19813565686));
#54 = CARTESIAN_POINT('',(306.00320478294,455.3771912558,382.39183081094
    ));
#55 = CARTESIAN_POINT('',(306.00936253138,455.42944237179,
    382.57690054603));
#56 = CARTESIAN_POINT('',(306.01785605539,455.50397664423,
    382.74972179961));
#57 = CARTESIAN_POINT('',(306.02781287252,455.59739314002,
    382.90730782825));
#58 = CARTESIAN_POINT('',(306.03829641393,455.70569619977,
    383.04743913825));
#59 = CARTESIAN_POINT('',(306.04849751108,455.82433445093,
    383.16883464826));
#60 = CARTESIAN_POINT('',(306.06664912972,456.06495510706,383.3678933667
    ));
#61 = CARTESIAN_POINT('',(306.07487804182,456.18875398018,
    383.44968630557));
#62 = CARTESIAN_POINT('',(306.08215607348,456.31783380823,
    383.51710076243));
#63 = CARTESIAN_POINT('',(306.08821191444,456.45075654566,383.5705308267
    ));
#64 = CARTESIAN_POINT('',(306.0928640342,456.58635530436,383.61033089354
    ));
#65 = CARTESIAN_POINT('',(306.09600213033,456.72365417826,
    383.63677137116));
#66 = CARTESIAN_POINT('',(306.09757215447,456.86180073594,383.65));
#67 = CARTESIAN_POINT('',(306.09757215447,457.17278783708,383.65));
#68 = CARTESIAN_POINT('',(306.09511806511,457.34551505092,
    383.62932159287));
#69 = CARTESIAN_POINT('',(306.09021164402,457.5166241002,383.58798529646
    ));
#70 = CARTESIAN_POINT('',(306.08298542741,457.68440452156,
    383.52562152299));
#71 = CARTESIAN_POINT('',(306.07370962785,457.84680685965,
    383.44158998492));
#72 = CARTESIAN_POINT('',(306.06285001848,458.00124296961,
    383.33508841005));
#73 = CARTESIAN_POINT('',(306.05113152256,458.1443064359,383.20531506454
    ));
#74 = CARTESIAN_POINT('',(306.02945742649,458.38230590022,
    382.91762313266));
#75 = CARTESIAN_POINT('',(306.01915895942,458.48441589675,
    382.76126734544));
#76 = CARTESIAN_POINT('',(306.00969699116,458.56945903893,
    382.58500481079));
#77 = CARTESIAN_POINT('',(306.00229462784,458.63129796674,
    382.39307154861));
#78 = CARTESIAN_POINT('',(305.99805209774,458.66588173882,
    382.19115213471));
#79 = CARTESIAN_POINT('',(305.99746360056,458.67129666042,
    381.98566124427));
#80 = CARTESIAN_POINT('',(306.00034083171,458.6478449592,381.78316319582
    ));
#81 = CARTESIAN_POINT('',(306.00969544808,458.56593314695,
    381.46413775033));
#82 = CARTESIAN_POINT('',(306.014579039,458.52243694943,381.34150944634)
  );
#83 = CARTESIAN_POINT('',(306.02052841855,458.46798070082,
    381.22296220149));
#84 = CARTESIAN_POINT('',(306.02734300322,458.40301422838,
    381.10962897071));
#85 = CARTESIAN_POINT('',(306.03477116471,458.32812641363,381.0025827887
    ));
#86 = CARTESIAN_POINT('',(306.04252726663,458.2440385556,380.90282258899
    ));
#87 = CARTESIAN_POINT('',(306.05031332855,458.15159479264,
    380.81125229023));
#88 = CARTESIAN_POINT('',(306.06613054732,457.94191930126,
    380.63779363845));
#89 = CARTESIAN_POINT('',(306.07411050383,457.82309949256,380.5577628351
    ));
#90 = CARTESIAN_POINT('',(306.08140628491,457.69656345491,
    380.48962105115));
#91 = CARTESIAN_POINT('',(306.08765689425,457.56370787072,
    380.43422480883));
#92 = CARTESIAN_POINT('',(306.09256015536,457.42603174426,
    380.39222763452));
#93 = CARTESIAN_POINT('',(306.09590171758,457.28510952949,
    380.36407594123));
#94 = CARTESIAN_POINT('',(306.09757215447,457.14255844844,380.35));
#95 = CARTESIAN_POINT('',(306.09757215447,456.86179179432,380.35));
#96 = CARTESIAN_POINT('',(306.09600192993,456.72364306498,
    380.36323032618));
#97 = CARTESIAN_POINT('',(306.09286368914,456.58634818095,
    380.38967199543));
#98 = CARTESIAN_POINT('',(306.08821173863,456.45075748504,
    380.42947082076));
#99 = CARTESIAN_POINT('',(306.08215640224,456.31784327734,
    380.48289674012));
#100 = CARTESIAN_POINT('',(306.07487889161,456.18876809562,
    380.55030600266));
#101 = CARTESIAN_POINT('',(306.0666499783,456.06496635596,
    380.63209732739));
#102 = CARTESIAN_POINT('',(306.04850112666,455.82438237956,
    380.83112570172));
#103 = CARTESIAN_POINT('',(306.03829977424,455.70572786538,
    380.95251665602));
#104 = CARTESIAN_POINT('',(306.02781300092,455.59738757456,
    381.09267769996));
#105 = CARTESIAN_POINT('',(306.01785249411,455.50394186315,
    381.25031474788));
#106 = CARTESIAN_POINT('',(306.00935766613,455.42940114853,
    381.42318709217));
#107 = CARTESIAN_POINT('',(306.00320188514,455.37716665935,
    381.60828263997));
#108 = CARTESIAN_POINT('',(306.,455.35,381.80195397699));
#109 = CARTESIAN_POINT('',(306.,455.35,382.));
#110 = CYLINDRICAL_SURFACE('',#111,14.);
#111 = AXIS2_PLACEMENT_3D('',#112,#113,#114);
#112 = CARTESIAN_POINT('',(320.,469.,382.));
#113 = DIRECTION('',(0.,-1.,0.));
#114 = DIRECTION('',(0.,0.,1.));
#115 = ADVANCED_FACE('',(#116,#119),#163,.F.);
#116 = FACE_BOUND('',#117,.F.);
#117 = EDGE_LOOP('',(#118));
#118 = ORIENTED_EDGE('',*,*,#39,.T.);
#119 = FACE_BOUND('',#120,.F.);
#120 = EDGE_LOOP('',(#121,#132,#140,#148,#156));
#121 = ORIENTED_EDGE('',*,*,#122,.F.);
#122 = EDGE_CURVE('',#123,#125,#127,.T.);
#123 = VERTEX_POINT('',#124);
#124 = CARTESIAN_POINT('',(314.33447928253,469.,379.95));
#125 = VERTEX_POINT('',#126);
#126 = CARTESIAN_POINT('',(320.,469.,388.025));
#127 = CIRCLE('',#128,6.025);
#128 = AXIS2_PLACEMENT_3D('',#129,#130,#131);
#129 = CARTESIAN_POINT('',(320.,469.,382.));
#130 = DIRECTION('',(0.,-1.,0.));
#131 = DIRECTION('',(0.,0.,1.));
#132 = ORIENTED_EDGE('',*,*,#133,.T.);
#133 = EDGE_CURVE('',#123,#134,#136,.T.);
#134 = VERTEX_POINT('',#135);
#135 = CARTESIAN_POINT('',(311.975,469.,379.95));
#136 = LINE('',#137,#138);
#137 = CARTESIAN_POINT('',(316.575,469.,379.95));
#138 = VECTOR('',#139,1.);
#139 = DIRECTION('',(-1.,0.,0.));
#140 = ORIENTED_EDGE('',*,*,#141,.T.);
#141 = EDGE_CURVE('',#134,#142,#144,.T.);
#142 = VERTEX_POINT('',#143);
#143 = CARTESIAN_POINT('',(311.975,469.,384.05));
#144 = LINE('',#145,#146);
#145 = CARTESIAN_POINT('',(311.975,469.,379.95));
#146 = VECTOR('',#147,1.);
#147 = DIRECTION('',(0.,0.,1.));
#148 = ORIENTED_EDGE('',*,*,#149,.F.);
#149 = EDGE_CURVE('',#150,#142,#152,.T.);
#150 = VERTEX_POINT('',#151);
#151 = CARTESIAN_POINT('',(314.33447928253,469.,384.05));
#152 = LINE('',#153,#154);
#153 = CARTESIAN_POINT('',(316.575,469.,384.05));
#154 = VECTOR('',#155,1.);
#155 = DIRECTION('',(-1.,0.,0.));
#156 = ORIENTED_EDGE('',*,*,#157,.F.);
#157 = EDGE_CURVE('',#125,#150,#158,.T.);
#158 = CIRCLE('',#159,6.025);
#159 = AXIS2_PLACEMENT_3D('',#160,#161,#162);
#160 = CARTESIAN_POINT('',(320.,469.,382.));
#161 = DIRECTION('',(0.,-1.,0.));
#162 = DIRECTION('',(0.,0.,1.));
#163 = PLANE('',#164);
#164 = AXIS2_PLACEMENT_3D('',#165,#166,#167);
#165 = CARTESIAN_POINT('',(320.,469.,382.));
#166 = DIRECTION('',(0.,-1.,0.));
#167 = DIRECTION('',(0.,0.,1.));
#168 = ADVANCED_FACE('',(#169,#180,#183),#194,.F.);
#169 = FACE_BOUND('',#170,.F.);
#170 = EDGE_LOOP('',(#171));
#171 = ORIENTED_EDGE('',*,*,#172,.T.);
#172 = EDGE_CURVE('',#173,#173,#175,.T.);
#173 = VERTEX_POINT('',#174);
#174 = CARTESIAN_POINT('',(320.,447.,405.));
#175 = CIRCLE('',#176,23.);
#176 = AXIS2_PLACEMENT_3D('',#177,#178,#179);
#177 = CARTESIAN_POINT('',(320.,447.,382.));
#178 = DIRECTION('',(0.,-1.,0.));
#179 = DIRECTION('',(0.,0.,1.));
#180 = FACE_BOUND('',#181,.F.);
#181 = EDGE_LOOP('',(#182));
#182 = ORIENTED_EDGE('',*,*,#31,.F.);
#183 = FACE_BOUND('',#184,.F.);
#184 = EDGE_LOOP('',(#185));
#185 = ORIENTED_EDGE('',*,*,#186,.F.);
#186 = EDGE_CURVE('',#187,#187,#189,.T.);
#187 = VERTEX_POINT('',#188);
#188 = CARTESIAN_POINT('',(320.,447.,399.55));
#189 = CIRCLE('',#190,1.55);
#190 = AXIS2_PLACEMENT_3D('',#191,#192,#193);
#191 = CARTESIAN_POINT('',(320.,447.,398.));
#192 = DIRECTION('',(0.,-1.,0.));
#193 = DIRECTION('',(0.,0.,1.));
#194 = PLANE('',#195);
#195 = AXIS2_PLACEMENT_3D('',#196,#197,#198);
#196 = CARTESIAN_POINT('',(320.,447.,382.));
#197 = DIRECTION('',(0.,-1.,0.));
#198 = DIRECTION('',(0.,0.,1.));
#199 = ADVANCED_FACE('',(#200),#219,.F.);
#200 = FACE_BOUND('',#201,.F.);
#201 = EDGE_LOOP('',(#202,#203,#211,#218));
#202 = ORIENTED_EDGE('',*,*,#48,.F.);
#203 = ORIENTED_EDGE('',*,*,#204,.F.);
#204 = EDGE_CURVE('',#205,#49,#207,.T.);
#205 = VERTEX_POINT('',#206);
#206 = CARTESIAN_POINT('',(311.975,455.35,382.));
#207 = LINE('',#208,#209);
#208 = CARTESIAN_POINT('',(320.,455.35,382.));
#209 = VECTOR('',#210,1.);
#210 = DIRECTION('',(-1.,0.,0.));
#211 = ORIENTED_EDGE('',*,*,#212,.T.);
#212 = EDGE_CURVE('',#205,#205,#213,.T.);
#213 = CIRCLE('',#214,1.65);
#214 = AXIS2_PLACEMENT_3D('',#215,#216,#217);
#215 = CARTESIAN_POINT('',(311.975,457.,382.));
#216 = DIRECTION('',(-1.,0.,0.));
#217 = DIRECTION('',(0.,-1.,0.));
#218 = ORIENTED_EDGE('',*,*,#204,.T.);
#219 = CYLINDRICAL_SURFACE('',#220,1.65);
#220 = AXIS2_PLACEMENT_3D('',#221,#222,#223);
#221 = CARTESIAN_POINT('',(320.,457.,382.));
#222 = DIRECTION('',(-1.,0.,0.));
#223 = DIRECTION('',(0.,-1.,0.));
#224 = ADVANCED_FACE('',(#225),#250,.F.);
#225 = FACE_BOUND('',#226,.F.);
#226 = EDGE_LOOP('',(#227,#235,#236,#244));
#227 = ORIENTED_EDGE('',*,*,#228,.F.);
#228 = EDGE_CURVE('',#150,#229,#231,.T.);
#229 = VERTEX_POINT('',#230);
#230 = CARTESIAN_POINT('',(314.33447928253,439.,384.05));
#231 = LINE('',#232,#233);
#232 = CARTESIAN_POINT('',(314.33447928253,469.,384.05));
#233 = VECTOR('',#234,1.);
#234 = DIRECTION('',(0.,-1.,0.));
#235 = ORIENTED_EDGE('',*,*,#149,.T.);
#236 = ORIENTED_EDGE('',*,*,#237,.T.);
#237 = EDGE_CURVE('',#142,#238,#240,.T.);
#238 = VERTEX_POINT('',#239);
#239 = CARTESIAN_POINT('',(311.975,439.,384.05));
#240 = LINE('',#241,#242);
#241 = CARTESIAN_POINT('',(311.975,469.,384.05));
#242 = VECTOR('',#243,1.);
#243 = DIRECTION('',(0.,-1.,0.));
#244 = ORIENTED_EDGE('',*,*,#245,.F.);
#245 = EDGE_CURVE('',#229,#238,#246,.T.);
#246 = LINE('',#247,#248);
#247 = CARTESIAN_POINT('',(316.575,439.,384.05));
#248 = VECTOR('',#249,1.);
#249 = DIRECTION('',(-1.,0.,0.));
#250 = PLANE('',#251);
#251 = AXIS2_PLACEMENT_3D('',#252,#253,#254);
#252 = CARTESIAN_POINT('',(316.575,469.,384.05));
#253 = DIRECTION('',(0.,0.,1.));
#254 = DIRECTION('',(0.,-1.,0.));
#255 = ADVANCED_FACE('',(#256,#274),#277,.F.);
#256 = FACE_BOUND('',#257,.F.);
#257 = EDGE_LOOP('',(#258,#259,#267,#273));
#258 = ORIENTED_EDGE('',*,*,#141,.F.);
#259 = ORIENTED_EDGE('',*,*,#260,.T.);
#260 = EDGE_CURVE('',#134,#261,#263,.T.);
#261 = VERTEX_POINT('',#262);
#262 = CARTESIAN_POINT('',(311.975,439.,379.95));
#263 = LINE('',#264,#265);
#264 = CARTESIAN_POINT('',(311.975,469.,379.95));
#265 = VECTOR('',#266,1.);
#266 = DIRECTION('',(0.,-1.,0.));
#267 = ORIENTED_EDGE('',*,*,#268,.T.);
#268 = EDGE_CURVE('',#261,#238,#269,.T.);
#269 = LINE('',#270,#271);
#270 = CARTESIAN_POINT('',(311.975,439.,379.95));
#271 = VECTOR('',#272,1.);
#272 = DIRECTION('',(0.,0.,1.));
#273 = ORIENTED_EDGE('',*,*,#237,.F.);
#274 = FACE_BOUND('',#275,.F.);
#275 = EDGE_LOOP('',(#276));
#276 = ORIENTED_EDGE('',*,*,#212,.F.);
#277 = PLANE('',#278);
#278 = AXIS2_PLACEMENT_3D('',#279,#280,#281);
#279 = CARTESIAN_POINT('',(311.975,469.,379.95));
#280 = DIRECTION('',(-1.,0.,0.));
#281 = DIRECTION('',(0.,-1.,0.));
#282 = ADVANCED_FACE('',(#283),#301,.T.);
#283 = FACE_BOUND('',#284,.T.);
#284 = EDGE_LOOP('',(#285,#293,#294,#295));
#285 = ORIENTED_EDGE('',*,*,#286,.F.);
#286 = EDGE_CURVE('',#123,#287,#289,.T.);
#287 = VERTEX_POINT('',#288);
#288 = CARTESIAN_POINT('',(314.33447928253,439.,379.95));
#289 = LINE('',#290,#291);
#290 = CARTESIAN_POINT('',(314.33447928253,469.,379.95));
#291 = VECTOR('',#292,1.);
#292 = DIRECTION('',(0.,-1.,0.));
#293 = ORIENTED_EDGE('',*,*,#133,.T.);
#294 = ORIENTED_EDGE('',*,*,#260,.T.);
#295 = ORIENTED_EDGE('',*,*,#296,.F.);
#296 = EDGE_CURVE('',#287,#261,#297,.T.);
#297 = LINE('',#298,#299);
#298 = CARTESIAN_POINT('',(316.575,439.,379.95));
#299 = VECTOR('',#300,1.);
#300 = DIRECTION('',(-1.,0.,0.));
#301 = PLANE('',#302);
#302 = AXIS2_PLACEMENT_3D('',#303,#304,#305);
#303 = CARTESIAN_POINT('',(316.575,469.,379.95));
#304 = DIRECTION('',(0.,0.,1.));
#305 = DIRECTION('',(0.,-1.,0.));
#306 = ADVANCED_FACE('',(#307),#326,.T.);
#307 = FACE_BOUND('',#308,.T.);
#308 = EDGE_LOOP('',(#309,#318,#324,#325));
#309 = ORIENTED_EDGE('',*,*,#310,.F.);
#310 = EDGE_CURVE('',#311,#311,#313,.T.);
#311 = VERTEX_POINT('',#312);
#312 = CARTESIAN_POINT('',(320.,443.,405.));
#313 = CIRCLE('',#314,23.);
#314 = AXIS2_PLACEMENT_3D('',#315,#316,#317);
#315 = CARTESIAN_POINT('',(320.,443.,382.));
#316 = DIRECTION('',(0.,-1.,0.));
#317 = DIRECTION('',(0.,0.,1.));
#318 = ORIENTED_EDGE('',*,*,#319,.F.);
#319 = EDGE_CURVE('',#173,#311,#320,.T.);
#320 = LINE('',#321,#322);
#321 = CARTESIAN_POINT('',(320.,447.,405.));
#322 = VECTOR('',#323,1.);
#323 = DIRECTION('',(0.,-1.,0.));
#324 = ORIENTED_EDGE('',*,*,#172,.T.);
#325 = ORIENTED_EDGE('',*,*,#319,.T.);
#326 = CYLINDRICAL_SURFACE('',#327,23.);
#327 = AXIS2_PLACEMENT_3D('',#328,#329,#330);
#328 = CARTESIAN_POINT('',(320.,447.,382.));
#329 = DIRECTION('',(0.,-1.,0.));
#330 = DIRECTION('',(0.,0.,1.));
#331 = ADVANCED_FACE('',(#332),#351,.F.);
#332 = FACE_BOUND('',#333,.F.);
#333 = EDGE_LOOP('',(#334,#343,#349,#350));
#334 = ORIENTED_EDGE('',*,*,#335,.F.);
#335 = EDGE_CURVE('',#336,#336,#338,.T.);
#336 = VERTEX_POINT('',#337);
#337 = CARTESIAN_POINT('',(320.,443.,399.55));
#338 = CIRCLE('',#339,1.55);
#339 = AXIS2_PLACEMENT_3D('',#340,#341,#342);
#340 = CARTESIAN_POINT('',(320.,443.,398.));
#341 = DIRECTION('',(0.,-1.,0.));
#342 = DIRECTION('',(0.,0.,1.));
#343 = ORIENTED_EDGE('',*,*,#344,.F.);
#344 = EDGE_CURVE('',#187,#336,#345,.T.);
#345 = LINE('',#346,#347);
#346 = CARTESIAN_POINT('',(320.,447.,399.55));
#347 = VECTOR('',#348,1.);
#348 = DIRECTION('',(0.,-1.,0.));
#349 = ORIENTED_EDGE('',*,*,#186,.T.);
#350 = ORIENTED_EDGE('',*,*,#344,.T.);
#351 = CYLINDRICAL_SURFACE('',#352,1.55);
#352 = AXIS2_PLACEMENT_3D('',#353,#354,#355);
#353 = CARTESIAN_POINT('',(320.,447.,398.));
#354 = DIRECTION('',(0.,-1.,0.));
#355 = DIRECTION('',(0.,0.,1.));
#356 = ADVANCED_FACE('',(#357,#368),#389,.T.);
#357 = FACE_BOUND('',#358,.T.);
#358 = EDGE_LOOP('',(#359));
#359 = ORIENTED_EDGE('',*,*,#360,.T.);
#360 = EDGE_CURVE('',#361,#361,#363,.T.);
#361 = VERTEX_POINT('',#362);
#362 = CARTESIAN_POINT('',(320.,439.,392.));
#363 = CIRCLE('',#364,10.);
#364 = AXIS2_PLACEMENT_3D('',#365,#366,#367);
#365 = CARTESIAN_POINT('',(320.,439.,382.));
#366 = DIRECTION('',(0.,-1.,0.));
#367 = DIRECTION('',(0.,0.,1.));
#368 = FACE_BOUND('',#369,.T.);
#369 = EDGE_LOOP('',(#370,#379,#380,#381,#382));
#370 = ORIENTED_EDGE('',*,*,#371,.F.);
#371 = EDGE_CURVE('',#287,#372,#374,.T.);
#372 = VERTEX_POINT('',#373);
#373 = CARTESIAN_POINT('',(320.,439.,388.025));
#374 = CIRCLE('',#375,6.025);
#375 = AXIS2_PLACEMENT_3D('',#376,#377,#378);
#376 = CARTESIAN_POINT('',(320.,439.,382.));
#377 = DIRECTION('',(0.,-1.,0.));
#378 = DIRECTION('',(0.,0.,1.));
#379 = ORIENTED_EDGE('',*,*,#296,.T.);
#380 = ORIENTED_EDGE('',*,*,#268,.T.);
#381 = ORIENTED_EDGE('',*,*,#245,.F.);
#382 = ORIENTED_EDGE('',*,*,#383,.F.);
#383 = EDGE_CURVE('',#372,#229,#384,.T.);
#384 = CIRCLE('',#385,6.025);
#385 = AXIS2_PLACEMENT_3D('',#386,#387,#388);
#386 = CARTESIAN_POINT('',(320.,439.,382.));
#387 = DIRECTION('',(0.,-1.,0.));
#388 = DIRECTION('',(0.,0.,1.));
#389 = PLANE('',#390);
#390 = AXIS2_PLACEMENT_3D('',#391,#392,#393);
#391 = CARTESIAN_POINT('',(320.,439.,382.));
#392 = DIRECTION('',(0.,-1.,0.));
#393 = DIRECTION('',(0.,0.,1.));
#394 = ADVANCED_FACE('',(#395,#398,#409),#412,.T.);
#395 = FACE_BOUND('',#396,.T.);
#396 = EDGE_LOOP('',(#397));
#397 = ORIENTED_EDGE('',*,*,#310,.T.);
#398 = FACE_BOUND('',#399,.T.);
#399 = EDGE_LOOP('',(#400));
#400 = ORIENTED_EDGE('',*,*,#401,.F.);
#401 = EDGE_CURVE('',#402,#402,#404,.T.);
#402 = VERTEX_POINT('',#403);
#403 = CARTESIAN_POINT('',(320.,443.,392.));
#404 = CIRCLE('',#405,10.);
#405 = AXIS2_PLACEMENT_3D('',#406,#407,#408);
#406 = CARTESIAN_POINT('',(320.,443.,382.));
#407 = DIRECTION('',(0.,-1.,0.));
#408 = DIRECTION('',(0.,0.,1.));
#409 = FACE_BOUND('',#410,.T.);
#410 = EDGE_LOOP('',(#411));
#411 = ORIENTED_EDGE('',*,*,#335,.F.);
#412 = PLANE('',#413);
#413 = AXIS2_PLACEMENT_3D('',#414,#415,#416);
#414 = CARTESIAN_POINT('',(320.,443.,382.));
#415 = DIRECTION('',(0.,-1.,0.));
#416 = DIRECTION('',(0.,0.,1.));
#417 = ADVANCED_FACE('',(#418),#429,.T.);
#418 = FACE_BOUND('',#419,.T.);
#419 = EDGE_LOOP('',(#420,#421,#427,#428));
#420 = ORIENTED_EDGE('',*,*,#360,.F.);
#421 = ORIENTED_EDGE('',*,*,#422,.F.);
#422 = EDGE_CURVE('',#402,#361,#423,.T.);
#423 = LINE('',#424,#425);
#424 = CARTESIAN_POINT('',(320.,443.,392.));
#425 = VECTOR('',#426,1.);
#426 = DIRECTION('',(0.,-1.,0.));
#427 = ORIENTED_EDGE('',*,*,#401,.T.);
#428 = ORIENTED_EDGE('',*,*,#422,.T.);
#429 = CYLINDRICAL_SURFACE('',#430,10.);
#430 = AXIS2_PLACEMENT_3D('',#431,#432,#433);
#431 = CARTESIAN_POINT('',(320.,443.,382.));
#432 = DIRECTION('',(0.,-1.,0.));
#433 = DIRECTION('',(0.,0.,1.));
#434 = ADVANCED_FACE('',(#435),#443,.F.);
#435 = FACE_BOUND('',#436,.F.);
#436 = EDGE_LOOP('',(#437,#438,#439,#440,#441,#442));
#437 = ORIENTED_EDGE('',*,*,#228,.T.);
#438 = ORIENTED_EDGE('',*,*,#383,.F.);
#439 = ORIENTED_EDGE('',*,*,#371,.F.);
#440 = ORIENTED_EDGE('',*,*,#286,.F.);
#441 = ORIENTED_EDGE('',*,*,#122,.T.);
#442 = ORIENTED_EDGE('',*,*,#157,.T.);
#443 = CYLINDRICAL_SURFACE('',#444,6.025);
#444 = AXIS2_PLACEMENT_3D('',#445,#446,#447);
#445 = CARTESIAN_POINT('',(320.,469.,382.));
#446 = DIRECTION('',(0.,-1.,0.));
#447 = DIRECTION('',(0.,0.,1.));
#448 = ( GEOMETRIC_REPRESENTATION_CONTEXT(3) 
GLOBAL_UNCERTAINTY_ASSIGNED_CONTEXT((#452)) GLOBAL_UNIT_ASSIGNED_CONTEXT
((#449,#450,#451)) REPRESENTATION_CONTEXT('Context #1',
  '3D Context with UNIT and UNCERTAINTY') );
#449 = ( LENGTH_UNIT() NAMED_UNIT(*) SI_UNIT(.MILLI.,.METRE.) );
#450 = ( NAMED_UNIT(*) PLANE_ANGLE_UNIT() SI_UNIT($,.RADIAN.) );
#451 = ( NAMED_UNIT(*) SI_UNIT($,.STERADIAN.) SOLID_ANGLE_UNIT() );
#452 = UNCERTAINTY_MEASURE_WITH_UNIT(LENGTH_MEASURE(1.E-07),#449,
  'distance_accuracy_value','confusion accuracy');
#453 = PRODUCT_RELATED_PRODUCT_CATEGORY('part',$,(#7));
ENDSEC;
END-ISO-10303-21;
