ISO-10303-21;
HEADER;
FILE_DESCRIPTION(('FreeCAD Model'),'2;1');
FILE_NAME('Open CASCADE Shape Model','2000-01-01T00:00:00',('FreeCAD'),(
    'FreeCAD'),'Open CASCADE STEP processor 7.9','FreeCAD','Unknown');
FILE_SCHEMA(('AUTOMOTIVE_DESIGN { 1 0 10303 214 1 1 1 1 }'));
ENDSEC;
DATA;
#1 = APPLICATION_PROTOCOL_DEFINITION('international standard',
  'automotive_design',2000,#2);
#2 = APPLICATION_CONTEXT(
  'core data for automotive mechanical design processes');
#3 = SHAPE_DEFINITION_REPRESENTATION(#4,#10);
#4 = PRODUCT_DEFINITION_SHAPE('','',#5);
#5 = PRODUCT_DEFINITION('design','',#6,#9);
#6 = PRODUCT_DEFINITION_FORMATION('','',#7);
#7 = PRODUCT('Open CASCADE STEP translator 7.9 0',
  'Open CASCADE STEP translator 7.9 0','',(#8));
#8 = PRODUCT_CONTEXT('',#2,'mechanical');
#9 = PRODUCT_DEFINITION_CONTEXT('part definition',#2,'design');
#10 = ADVANCED_BREP_SHAPE_REPRESENTATION('',(#11,#15),#516);
#11 = AXIS2_PLACEMENT_3D('',#12,#13,#14);
#12 = CARTESIAN_POINT('',(0.,0.,0.));
#13 = DIRECTION('',(0.,0.,1.));
#14 = DIRECTION('',(1.,0.,-0.));
#15 = MANIFOLD_SOLID_BREP('',#16);
#16 = CLOSED_SHELL('',(#17,#57,#187,#211,#334,#351,#363,#380,#397,#414,
    #431,#448,#465,#482,#499));
#17 = ADVANCED_FACE('',(#18),#52,.F.);
#18 = FACE_BOUND('',#19,.F.);
#19 = EDGE_LOOP('',(#20,#30,#38,#46));
#20 = ORIENTED_EDGE('',*,*,#21,.F.);
#21 = EDGE_CURVE('',#22,#24,#26,.T.);
#22 = VERTEX_POINT('',#23);
#23 = CARTESIAN_POINT('',(223.,186.,536.));
#24 = VERTEX_POINT('',#25);
#25 = CARTESIAN_POINT('',(223.,186.,726.167));
#26 = LINE('',#27,#28);
#27 = CARTESIAN_POINT('',(223.,186.,530.));
#28 = VECTOR('',#29,1.);
#29 = DIRECTION('',(-1.224646799147E-16,-1.110223024625E-16,1.));
#30 = ORIENTED_EDGE('',*,*,#31,.F.);
#31 = EDGE_CURVE('',#32,#22,#34,.T.);
#32 = VERTEX_POINT('',#33);
#33 = CARTESIAN_POINT('',(223.,180.,536.));
#34 = LINE('',#35,#36);
#35 = CARTESIAN_POINT('',(223.,175.,536.));
#36 = VECTOR('',#37,1.);
#37 = DIRECTION('',(1.359631073447E-32,1.,0.));
#38 = ORIENTED_EDGE('',*,*,#39,.T.);
#39 = EDGE_CURVE('',#32,#40,#42,.T.);
#40 = VERTEX_POINT('',#41);
#41 = CARTESIAN_POINT('',(223.,180.,726.167));
#42 = LINE('',#43,#44);
#43 = CARTESIAN_POINT('',(223.,180.,530.));
#44 = VECTOR('',#45,1.);
#45 = DIRECTION('',(-1.224646799147E-16,-1.110223024625E-16,1.));
#46 = ORIENTED_EDGE('',*,*,#47,.T.);
#47 = EDGE_CURVE('',#40,#24,#48,.T.);
#48 = LINE('',#49,#50);
#49 = CARTESIAN_POINT('',(223.,180.,726.167));
#50 = VECTOR('',#51,1.);
#51 = DIRECTION('',(0.,1.,1.110223024625E-16));
#52 = PLANE('',#53);
#53 = AXIS2_PLACEMENT_3D('',#54,#55,#56);
#54 = CARTESIAN_POINT('',(223.,180.,530.));
#55 = DIRECTION('',(-1.,1.359631073447E-32,-1.224646799147E-16));
#56 = DIRECTION('',(0.,1.,1.110223024625E-16));
#57 = ADVANCED_FACE('',(#58,#83,#94,#105,#116,#127,#138,#149,#160,#171),
  #182,.T.);
#58 = FACE_BOUND('',#59,.T.);
#59 = EDGE_LOOP('',(#60,#61,#69,#77));
#60 = ORIENTED_EDGE('',*,*,#21,.F.);
#61 = ORIENTED_EDGE('',*,*,#62,.F.);
#62 = EDGE_CURVE('',#63,#22,#65,.T.);
#63 = VERTEX_POINT('',#64);
#64 = CARTESIAN_POINT('',(83.,186.,536.));
#65 = LINE('',#66,#67);
#66 = CARTESIAN_POINT('',(136.5,186.,536.));
#67 = VECTOR('',#68,1.);
#68 = DIRECTION('',(1.,0.,0.));
#69 = ORIENTED_EDGE('',*,*,#70,.T.);
#70 = EDGE_CURVE('',#63,#71,#73,.T.);
#71 = VERTEX_POINT('',#72);
#72 = CARTESIAN_POINT('',(83.,186.,726.167));
#73 = LINE('',#74,#75);
#74 = CARTESIAN_POINT('',(83.,186.,530.));
#75 = VECTOR('',#76,1.);
#76 = DIRECTION('',(-1.224646799147E-16,-1.110223024625E-16,1.));
#77 = ORIENTED_EDGE('',*,*,#78,.F.);
#78 = EDGE_CURVE('',#24,#71,#79,.T.);
#79 = LINE('',#80,#81);
#80 = CARTESIAN_POINT('',(223.,186.,726.167));
#81 = VECTOR('',#82,1.);
#82 = DIRECTION('',(-1.,1.359631073447E-32,-1.224646799147E-16));
#83 = FACE_BOUND('',#84,.T.);
#84 = EDGE_LOOP('',(#85));
#85 = ORIENTED_EDGE('',*,*,#86,.F.);
#86 = EDGE_CURVE('',#87,#87,#89,.T.);
#87 = VERTEX_POINT('',#88);
#88 = CARTESIAN_POINT('',(186.4695526217,186.,621.3974473783));
#89 = CIRCLE('',#90,3.3);
#90 = AXIS2_PLACEMENT_3D('',#91,#92,#93);
#91 = CARTESIAN_POINT('',(189.7695526217,186.,621.3974473783));
#92 = DIRECTION('',(0.,1.,1.110223024625E-16));
#93 = DIRECTION('',(-1.,1.359631073447E-32,-1.224646799147E-16));
#94 = FACE_BOUND('',#95,.T.);
#95 = EDGE_LOOP('',(#96));
#96 = ORIENTED_EDGE('',*,*,#97,.F.);
#97 = EDGE_CURVE('',#98,#98,#100,.T.);
#98 = VERTEX_POINT('',#99);
#99 = CARTESIAN_POINT('',(112.9304473783,186.,621.3974473783));
#100 = CIRCLE('',#101,3.3);
#101 = AXIS2_PLACEMENT_3D('',#102,#103,#104);
#102 = CARTESIAN_POINT('',(116.2304473783,186.,621.3974473783));
#103 = DIRECTION('',(0.,1.,1.110223024625E-16));
#104 = DIRECTION('',(-1.,1.359631073447E-32,-1.224646799147E-16));
#105 = FACE_BOUND('',#106,.T.);
#106 = EDGE_LOOP('',(#107));
#107 = ORIENTED_EDGE('',*,*,#108,.F.);
#108 = EDGE_CURVE('',#109,#109,#111,.T.);
#109 = VERTEX_POINT('',#110);
#110 = CARTESIAN_POINT('',(182.,186.,659.417));
#111 = CIRCLE('',#112,1.25);
#112 = AXIS2_PLACEMENT_3D('',#113,#114,#115);
#113 = CARTESIAN_POINT('',(182.,186.,658.167));
#114 = DIRECTION('',(0.,1.,0.));
#115 = DIRECTION('',(0.,0.,1.));
#116 = FACE_BOUND('',#117,.T.);
#117 = EDGE_LOOP('',(#118));
#118 = ORIENTED_EDGE('',*,*,#119,.F.);
#119 = EDGE_CURVE('',#120,#120,#122,.T.);
#120 = VERTEX_POINT('',#121);
#121 = CARTESIAN_POINT('',(186.4695526217,186.,694.9365526217));
#122 = CIRCLE('',#123,3.3);
#123 = AXIS2_PLACEMENT_3D('',#124,#125,#126);
#124 = CARTESIAN_POINT('',(189.7695526217,186.,694.9365526217));
#125 = DIRECTION('',(0.,1.,1.110223024625E-16));
#126 = DIRECTION('',(-1.,1.359631073447E-32,-1.224646799147E-16));
#127 = FACE_BOUND('',#128,.T.);
#128 = EDGE_LOOP('',(#129));
#129 = ORIENTED_EDGE('',*,*,#130,.F.);
#130 = EDGE_CURVE('',#131,#131,#133,.T.);
#131 = VERTEX_POINT('',#132);
#132 = CARTESIAN_POINT('',(182.,186.,695.417));
#133 = CIRCLE('',#134,1.25);
#134 = AXIS2_PLACEMENT_3D('',#135,#136,#137);
#135 = CARTESIAN_POINT('',(182.,186.,694.167));
#136 = DIRECTION('',(0.,1.,0.));
#137 = DIRECTION('',(0.,0.,1.));
#138 = FACE_BOUND('',#139,.T.);
#139 = EDGE_LOOP('',(#140));
#140 = ORIENTED_EDGE('',*,*,#141,.F.);
#141 = EDGE_CURVE('',#142,#142,#144,.T.);
#142 = VERTEX_POINT('',#143);
#143 = CARTESIAN_POINT('',(134.75,186.,676.167));
#144 = CIRCLE('',#145,18.25);
#145 = AXIS2_PLACEMENT_3D('',#146,#147,#148);
#146 = CARTESIAN_POINT('',(153.,186.,676.167));
#147 = DIRECTION('',(0.,1.,1.110223024625E-16));
#148 = DIRECTION('',(-1.,1.359631073447E-32,-1.224646799147E-16));
#149 = FACE_BOUND('',#150,.T.);
#150 = EDGE_LOOP('',(#151));
#151 = ORIENTED_EDGE('',*,*,#152,.F.);
#152 = EDGE_CURVE('',#153,#153,#155,.T.);
#153 = VERTEX_POINT('',#154);
#154 = CARTESIAN_POINT('',(124.,186.,659.417));
#155 = CIRCLE('',#156,1.25);
#156 = AXIS2_PLACEMENT_3D('',#157,#158,#159);
#157 = CARTESIAN_POINT('',(124.,186.,658.167));
#158 = DIRECTION('',(0.,1.,0.));
#159 = DIRECTION('',(0.,0.,1.));
#160 = FACE_BOUND('',#161,.T.);
#161 = EDGE_LOOP('',(#162));
#162 = ORIENTED_EDGE('',*,*,#163,.F.);
#163 = EDGE_CURVE('',#164,#164,#166,.T.);
#164 = VERTEX_POINT('',#165);
#165 = CARTESIAN_POINT('',(124.,186.,695.417));
#166 = CIRCLE('',#167,1.25);
#167 = AXIS2_PLACEMENT_3D('',#168,#169,#170);
#168 = CARTESIAN_POINT('',(124.,186.,694.167));
#169 = DIRECTION('',(0.,1.,0.));
#170 = DIRECTION('',(0.,0.,1.));
#171 = FACE_BOUND('',#172,.T.);
#172 = EDGE_LOOP('',(#173));
#173 = ORIENTED_EDGE('',*,*,#174,.F.);
#174 = EDGE_CURVE('',#175,#175,#177,.T.);
#175 = VERTEX_POINT('',#176);
#176 = CARTESIAN_POINT('',(112.9304473783,186.,694.9365526217));
#177 = CIRCLE('',#178,3.3);
#178 = AXIS2_PLACEMENT_3D('',#179,#180,#181);
#179 = CARTESIAN_POINT('',(116.2304473783,186.,694.9365526217));
#180 = DIRECTION('',(0.,1.,1.110223024625E-16));
#181 = DIRECTION('',(-1.,1.359631073447E-32,-1.224646799147E-16));
#182 = PLANE('',#183);
#183 = AXIS2_PLACEMENT_3D('',#184,#185,#186);
#184 = CARTESIAN_POINT('',(223.,186.,530.));
#185 = DIRECTION('',(0.,1.,1.110223024625E-16));
#186 = DIRECTION('',(-1.,1.359631073447E-32,-1.224646799147E-16));
#187 = ADVANCED_FACE('',(#188),#206,.T.);
#188 = FACE_BOUND('',#189,.T.);
#189 = EDGE_LOOP('',(#190,#198,#199,#200));
#190 = ORIENTED_EDGE('',*,*,#191,.F.);
#191 = EDGE_CURVE('',#40,#192,#194,.T.);
#192 = VERTEX_POINT('',#193);
#193 = CARTESIAN_POINT('',(83.,180.,726.167));
#194 = LINE('',#195,#196);
#195 = CARTESIAN_POINT('',(223.,180.,726.167));
#196 = VECTOR('',#197,1.);
#197 = DIRECTION('',(-1.,1.359631073447E-32,-1.224646799147E-16));
#198 = ORIENTED_EDGE('',*,*,#47,.T.);
#199 = ORIENTED_EDGE('',*,*,#78,.T.);
#200 = ORIENTED_EDGE('',*,*,#201,.F.);
#201 = EDGE_CURVE('',#192,#71,#202,.T.);
#202 = LINE('',#203,#204);
#203 = CARTESIAN_POINT('',(83.,180.,726.167));
#204 = VECTOR('',#205,1.);
#205 = DIRECTION('',(0.,1.,1.110223024625E-16));
#206 = PLANE('',#207);
#207 = AXIS2_PLACEMENT_3D('',#208,#209,#210);
#208 = CARTESIAN_POINT('',(223.,180.,726.167));
#209 = DIRECTION('',(-1.224646799147E-16,-1.110223024625E-16,1.));
#210 = DIRECTION('',(0.,1.,1.110223024625E-16));
#211 = ADVANCED_FACE('',(#212,#230,#241,#252,#263,#274,#285,#296,#307,
    #318),#329,.F.);
#212 = FACE_BOUND('',#213,.F.);
#213 = EDGE_LOOP('',(#214,#215,#223,#229));
#214 = ORIENTED_EDGE('',*,*,#39,.F.);
#215 = ORIENTED_EDGE('',*,*,#216,.F.);
#216 = EDGE_CURVE('',#217,#32,#219,.T.);
#217 = VERTEX_POINT('',#218);
#218 = CARTESIAN_POINT('',(83.,180.,536.));
#219 = LINE('',#220,#221);
#220 = CARTESIAN_POINT('',(136.5,180.,536.));
#221 = VECTOR('',#222,1.);
#222 = DIRECTION('',(1.,0.,0.));
#223 = ORIENTED_EDGE('',*,*,#224,.T.);
#224 = EDGE_CURVE('',#217,#192,#225,.T.);
#225 = LINE('',#226,#227);
#226 = CARTESIAN_POINT('',(83.,180.,530.));
#227 = VECTOR('',#228,1.);
#228 = DIRECTION('',(-1.224646799147E-16,-1.110223024625E-16,1.));
#229 = ORIENTED_EDGE('',*,*,#191,.F.);
#230 = FACE_BOUND('',#231,.F.);
#231 = EDGE_LOOP('',(#232));
#232 = ORIENTED_EDGE('',*,*,#233,.F.);
#233 = EDGE_CURVE('',#234,#234,#236,.T.);
#234 = VERTEX_POINT('',#235);
#235 = CARTESIAN_POINT('',(186.4695526217,180.,621.3974473783));
#236 = CIRCLE('',#237,3.3);
#237 = AXIS2_PLACEMENT_3D('',#238,#239,#240);
#238 = CARTESIAN_POINT('',(189.7695526217,180.,621.3974473783));
#239 = DIRECTION('',(0.,1.,1.110223024625E-16));
#240 = DIRECTION('',(-1.,1.359631073447E-32,-1.224646799147E-16));
#241 = FACE_BOUND('',#242,.F.);
#242 = EDGE_LOOP('',(#243));
#243 = ORIENTED_EDGE('',*,*,#244,.F.);
#244 = EDGE_CURVE('',#245,#245,#247,.T.);
#245 = VERTEX_POINT('',#246);
#246 = CARTESIAN_POINT('',(112.9304473783,180.,621.3974473783));
#247 = CIRCLE('',#248,3.3);
#248 = AXIS2_PLACEMENT_3D('',#249,#250,#251);
#249 = CARTESIAN_POINT('',(116.2304473783,180.,621.3974473783));
#250 = DIRECTION('',(0.,1.,1.110223024625E-16));
#251 = DIRECTION('',(-1.,1.359631073447E-32,-1.224646799147E-16));
#252 = FACE_BOUND('',#253,.F.);
#253 = EDGE_LOOP('',(#254));
#254 = ORIENTED_EDGE('',*,*,#255,.F.);
#255 = EDGE_CURVE('',#256,#256,#258,.T.);
#256 = VERTEX_POINT('',#257);
#257 = CARTESIAN_POINT('',(182.,180.,659.417));
#258 = CIRCLE('',#259,1.25);
#259 = AXIS2_PLACEMENT_3D('',#260,#261,#262);
#260 = CARTESIAN_POINT('',(182.,180.,658.167));
#261 = DIRECTION('',(0.,1.,0.));
#262 = DIRECTION('',(0.,0.,1.));
#263 = FACE_BOUND('',#264,.F.);
#264 = EDGE_LOOP('',(#265));
#265 = ORIENTED_EDGE('',*,*,#266,.F.);
#266 = EDGE_CURVE('',#267,#267,#269,.T.);
#267 = VERTEX_POINT('',#268);
#268 = CARTESIAN_POINT('',(186.4695526217,180.,694.9365526217));
#269 = CIRCLE('',#270,3.3);
#270 = AXIS2_PLACEMENT_3D('',#271,#272,#273);
#271 = CARTESIAN_POINT('',(189.7695526217,180.,694.9365526217));
#272 = DIRECTION('',(0.,1.,1.110223024625E-16));
#273 = DIRECTION('',(-1.,1.359631073447E-32,-1.224646799147E-16));
#274 = FACE_BOUND('',#275,.F.);
#275 = EDGE_LOOP('',(#276));
#276 = ORIENTED_EDGE('',*,*,#277,.F.);
#277 = EDGE_CURVE('',#278,#278,#280,.T.);
#278 = VERTEX_POINT('',#279);
#279 = CARTESIAN_POINT('',(182.,180.,695.417));
#280 = CIRCLE('',#281,1.25);
#281 = AXIS2_PLACEMENT_3D('',#282,#283,#284);
#282 = CARTESIAN_POINT('',(182.,180.,694.167));
#283 = DIRECTION('',(0.,1.,0.));
#284 = DIRECTION('',(0.,0.,1.));
#285 = FACE_BOUND('',#286,.F.);
#286 = EDGE_LOOP('',(#287));
#287 = ORIENTED_EDGE('',*,*,#288,.F.);
#288 = EDGE_CURVE('',#289,#289,#291,.T.);
#289 = VERTEX_POINT('',#290);
#290 = CARTESIAN_POINT('',(134.75,180.,676.167));
#291 = CIRCLE('',#292,18.25);
#292 = AXIS2_PLACEMENT_3D('',#293,#294,#295);
#293 = CARTESIAN_POINT('',(153.,180.,676.167));
#294 = DIRECTION('',(0.,1.,1.110223024625E-16));
#295 = DIRECTION('',(-1.,1.359631073447E-32,-1.224646799147E-16));
#296 = FACE_BOUND('',#297,.F.);
#297 = EDGE_LOOP('',(#298));
#298 = ORIENTED_EDGE('',*,*,#299,.F.);
#299 = EDGE_CURVE('',#300,#300,#302,.T.);
#300 = VERTEX_POINT('',#301);
#301 = CARTESIAN_POINT('',(124.,180.,659.417));
#302 = CIRCLE('',#303,1.25);
#303 = AXIS2_PLACEMENT_3D('',#304,#305,#306);
#304 = CARTESIAN_POINT('',(124.,180.,658.167));
#305 = DIRECTION('',(0.,1.,0.));
#306 = DIRECTION('',(0.,0.,1.));
#307 = FACE_BOUND('',#308,.F.);
#308 = EDGE_LOOP('',(#309));
#309 = ORIENTED_EDGE('',*,*,#310,.F.);
#310 = EDGE_CURVE('',#311,#311,#313,.T.);
#311 = VERTEX_POINT('',#312);
#312 = CARTESIAN_POINT('',(124.,180.,695.417));
#313 = CIRCLE('',#314,1.25);
#314 = AXIS2_PLACEMENT_3D('',#315,#316,#317);
#315 = CARTESIAN_POINT('',(124.,180.,694.167));
#316 = DIRECTION('',(0.,1.,0.));
#317 = DIRECTION('',(0.,0.,1.));
#318 = FACE_BOUND('',#319,.F.);
#319 = EDGE_LOOP('',(#320));
#320 = ORIENTED_EDGE('',*,*,#321,.F.);
#321 = EDGE_CURVE('',#322,#322,#324,.T.);
#322 = VERTEX_POINT('',#323);
#323 = CARTESIAN_POINT('',(112.9304473783,180.,694.9365526217));
#324 = CIRCLE('',#325,3.3);
#325 = AXIS2_PLACEMENT_3D('',#326,#327,#328);
#326 = CARTESIAN_POINT('',(116.2304473783,180.,694.9365526217));
#327 = DIRECTION('',(0.,1.,1.110223024625E-16));
#328 = DIRECTION('',(-1.,1.359631073447E-32,-1.224646799147E-16));
#329 = PLANE('',#330);
#330 = AXIS2_PLACEMENT_3D('',#331,#332,#333);
#331 = CARTESIAN_POINT('',(223.,180.,530.));
#332 = DIRECTION('',(0.,1.,1.110223024625E-16));
#333 = DIRECTION('',(-1.,1.359631073447E-32,-1.224646799147E-16));
#334 = ADVANCED_FACE('',(#335),#346,.F.);
#335 = FACE_BOUND('',#336,.F.);
#336 = EDGE_LOOP('',(#337,#338,#339,#340));
#337 = ORIENTED_EDGE('',*,*,#216,.T.);
#338 = ORIENTED_EDGE('',*,*,#31,.T.);
#339 = ORIENTED_EDGE('',*,*,#62,.F.);
#340 = ORIENTED_EDGE('',*,*,#341,.F.);
#341 = EDGE_CURVE('',#217,#63,#342,.T.);
#342 = LINE('',#343,#344);
#343 = CARTESIAN_POINT('',(83.,175.,536.));
#344 = VECTOR('',#345,1.);
#345 = DIRECTION('',(1.359631073447E-32,1.,0.));
#346 = PLANE('',#347);
#347 = AXIS2_PLACEMENT_3D('',#348,#349,#350);
#348 = CARTESIAN_POINT('',(50.,170.,536.));
#349 = DIRECTION('',(0.,0.,1.));
#350 = DIRECTION('',(1.,0.,0.));
#351 = ADVANCED_FACE('',(#352),#358,.T.);
#352 = FACE_BOUND('',#353,.T.);
#353 = EDGE_LOOP('',(#354,#355,#356,#357));
#354 = ORIENTED_EDGE('',*,*,#70,.F.);
#355 = ORIENTED_EDGE('',*,*,#341,.F.);
#356 = ORIENTED_EDGE('',*,*,#224,.T.);
#357 = ORIENTED_EDGE('',*,*,#201,.T.);
#358 = PLANE('',#359);
#359 = AXIS2_PLACEMENT_3D('',#360,#361,#362);
#360 = CARTESIAN_POINT('',(83.,180.,530.));
#361 = DIRECTION('',(-1.,1.359631073447E-32,-1.224646799147E-16));
#362 = DIRECTION('',(0.,1.,1.110223024625E-16));
#363 = ADVANCED_FACE('',(#364),#375,.F.);
#364 = FACE_BOUND('',#365,.F.);
#365 = EDGE_LOOP('',(#366,#367,#373,#374));
#366 = ORIENTED_EDGE('',*,*,#86,.F.);
#367 = ORIENTED_EDGE('',*,*,#368,.F.);
#368 = EDGE_CURVE('',#234,#87,#369,.T.);
#369 = LINE('',#370,#371);
#370 = CARTESIAN_POINT('',(186.4695526217,180.,621.3974473783));
#371 = VECTOR('',#372,1.);
#372 = DIRECTION('',(0.,1.,1.110223024625E-16));
#373 = ORIENTED_EDGE('',*,*,#233,.T.);
#374 = ORIENTED_EDGE('',*,*,#368,.T.);
#375 = CYLINDRICAL_SURFACE('',#376,3.3);
#376 = AXIS2_PLACEMENT_3D('',#377,#378,#379);
#377 = CARTESIAN_POINT('',(189.7695526217,180.,621.3974473783));
#378 = DIRECTION('',(0.,1.,1.110223024625E-16));
#379 = DIRECTION('',(-1.,1.359631073447E-32,-1.224646799147E-16));
#380 = ADVANCED_FACE('',(#381),#392,.F.);
#381 = FACE_BOUND('',#382,.F.);
#382 = EDGE_LOOP('',(#383,#384,#390,#391));
#383 = ORIENTED_EDGE('',*,*,#97,.F.);
#384 = ORIENTED_EDGE('',*,*,#385,.F.);
#385 = EDGE_CURVE('',#245,#98,#386,.T.);
#386 = LINE('',#387,#388);
#387 = CARTESIAN_POINT('',(112.9304473783,180.,621.3974473783));
#388 = VECTOR('',#389,1.);
#389 = DIRECTION('',(0.,1.,1.110223024625E-16));
#390 = ORIENTED_EDGE('',*,*,#244,.T.);
#391 = ORIENTED_EDGE('',*,*,#385,.T.);
#392 = CYLINDRICAL_SURFACE('',#393,3.3);
#393 = AXIS2_PLACEMENT_3D('',#394,#395,#396);
#394 = CARTESIAN_POINT('',(116.2304473783,180.,621.3974473783));
#395 = DIRECTION('',(0.,1.,1.110223024625E-16));
#396 = DIRECTION('',(-1.,1.359631073447E-32,-1.224646799147E-16));
#397 = ADVANCED_FACE('',(#398),#409,.F.);
#398 = FACE_BOUND('',#399,.F.);
#399 = EDGE_LOOP('',(#400,#401,#407,#408));
#400 = ORIENTED_EDGE('',*,*,#108,.F.);
#401 = ORIENTED_EDGE('',*,*,#402,.F.);
#402 = EDGE_CURVE('',#256,#109,#403,.T.);
#403 = LINE('',#404,#405);
#404 = CARTESIAN_POINT('',(182.,180.,659.417));
#405 = VECTOR('',#406,1.);
#406 = DIRECTION('',(0.,1.,0.));
#407 = ORIENTED_EDGE('',*,*,#255,.T.);
#408 = ORIENTED_EDGE('',*,*,#402,.T.);
#409 = CYLINDRICAL_SURFACE('',#410,1.25);
#410 = AXIS2_PLACEMENT_3D('',#411,#412,#413);
#411 = CARTESIAN_POINT('',(182.,180.,658.167));
#412 = DIRECTION('',(0.,1.,0.));
#413 = DIRECTION('',(0.,0.,1.));
#414 = ADVANCED_FACE('',(#415),#426,.F.);
#415 = FACE_BOUND('',#416,.F.);
#416 = EDGE_LOOP('',(#417,#418,#424,#425));
#417 = ORIENTED_EDGE('',*,*,#119,.F.);
#418 = ORIENTED_EDGE('',*,*,#419,.F.);
#419 = EDGE_CURVE('',#267,#120,#420,.T.);
#420 = LINE('',#421,#422);
#421 = CARTESIAN_POINT('',(186.4695526217,180.,694.9365526217));
#422 = VECTOR('',#423,1.);
#423 = DIRECTION('',(0.,1.,1.110223024625E-16));
#424 = ORIENTED_EDGE('',*,*,#266,.T.);
#425 = ORIENTED_EDGE('',*,*,#419,.T.);
#426 = CYLINDRICAL_SURFACE('',#427,3.3);
#427 = AXIS2_PLACEMENT_3D('',#428,#429,#430);
#428 = CARTESIAN_POINT('',(189.7695526217,180.,694.9365526217));
#429 = DIRECTION('',(0.,1.,1.110223024625E-16));
#430 = DIRECTION('',(-1.,1.359631073447E-32,-1.224646799147E-16));
#431 = ADVANCED_FACE('',(#432),#443,.F.);
#432 = FACE_BOUND('',#433,.F.);
#433 = EDGE_LOOP('',(#434,#435,#441,#442));
#434 = ORIENTED_EDGE('',*,*,#130,.F.);
#435 = ORIENTED_EDGE('',*,*,#436,.F.);
#436 = EDGE_CURVE('',#278,#131,#437,.T.);
#437 = LINE('',#438,#439);
#438 = CARTESIAN_POINT('',(182.,180.,695.417));
#439 = VECTOR('',#440,1.);
#440 = DIRECTION('',(0.,1.,0.));
#441 = ORIENTED_EDGE('',*,*,#277,.T.);
#442 = ORIENTED_EDGE('',*,*,#436,.T.);
#443 = CYLINDRICAL_SURFACE('',#444,1.25);
#444 = AXIS2_PLACEMENT_3D('',#445,#446,#447);
#445 = CARTESIAN_POINT('',(182.,180.,694.167));
#446 = DIRECTION('',(0.,1.,0.));
#447 = DIRECTION('',(0.,0.,1.));
#448 = ADVANCED_FACE('',(#449),#460,.F.);
#449 = FACE_BOUND('',#450,.F.);
#450 = EDGE_LOOP('',(#451,#452,#458,#459));
#451 = ORIENTED_EDGE('',*,*,#141,.F.);
#452 = ORIENTED_EDGE('',*,*,#453,.F.);
#453 = EDGE_CURVE('',#289,#142,#454,.T.);
#454 = LINE('',#455,#456);
#455 = CARTESIAN_POINT('',(134.75,180.,676.167));
#456 = VECTOR('',#457,1.);
#457 = DIRECTION('',(0.,1.,1.110223024625E-16));
#458 = ORIENTED_EDGE('',*,*,#288,.T.);
#459 = ORIENTED_EDGE('',*,*,#453,.T.);
#460 = CYLINDRICAL_SURFACE('',#461,18.25);
#461 = AXIS2_PLACEMENT_3D('',#462,#463,#464);
#462 = CARTESIAN_POINT('',(153.,180.,676.167));
#463 = DIRECTION('',(0.,1.,1.110223024625E-16));
#464 = DIRECTION('',(-1.,1.359631073447E-32,-1.224646799147E-16));
#465 = ADVANCED_FACE('',(#466),#477,.F.);
#466 = FACE_BOUND('',#467,.F.);
#467 = EDGE_LOOP('',(#468,#469,#475,#476));
#468 = ORIENTED_EDGE('',*,*,#152,.F.);
#469 = ORIENTED_EDGE('',*,*,#470,.F.);
#470 = EDGE_CURVE('',#300,#153,#471,.T.);
#471 = LINE('',#472,#473);
#472 = CARTESIAN_POINT('',(124.,180.,659.417));
#473 = VECTOR('',#474,1.);
#474 = DIRECTION('',(0.,1.,0.));
#475 = ORIENTED_EDGE('',*,*,#299,.T.);
#476 = ORIENTED_EDGE('',*,*,#470,.T.);
#477 = CYLINDRICAL_SURFACE('',#478,1.25);
#478 = AXIS2_PLACEMENT_3D('',#479,#480,#481);
#479 = CARTESIAN_POINT('',(124.,180.,658.167));
#480 = DIRECTION('',(0.,1.,0.));
#481 = DIRECTION('',(0.,0.,1.));
#482 = ADVANCED_FACE('',(#483),#494,.F.);
#483 = FACE_BOUND('',#484,.F.);
#484 = EDGE_LOOP('',(#485,#486,#492,#493));
#485 = ORIENTED_EDGE('',*,*,#163,.F.);
#486 = ORIENTED_EDGE('',*,*,#487,.F.);
#487 = EDGE_CURVE('',#311,#164,#488,.T.);
#488 = LINE('',#489,#490);
#489 = CARTESIAN_POINT('',(124.,180.,695.417));
#490 = VECTOR('',#491,1.);
#491 = DIRECTION('',(0.,1.,0.));
#492 = ORIENTED_EDGE('',*,*,#310,.T.);
#493 = ORIENTED_EDGE('',*,*,#487,.T.);
#494 = CYLINDRICAL_SURFACE('',#495,1.25);
#495 = AXIS2_PLACEMENT_3D('',#496,#497,#498);
#496 = CARTESIAN_POINT('',(124.,180.,694.167));
#497 = DIRECTION('',(0.,1.,0.));
#498 = DIRECTION('',(0.,0.,1.));
#499 = ADVANCED_FACE('',(#500),#511,.F.);
#500 = FACE_BOUND('',#501,.F.);
#501 = EDGE_LOOP('',(#502,#503,#509,#510));
#502 = ORIENTED_EDGE('',*,*,#174,.F.);
#503 = ORIENTED_EDGE('',*,*,#504,.F.);
#504 = EDGE_CURVE('',#322,#175,#505,.T.);
#505 = LINE('',#506,#507);
#506 = CARTESIAN_POINT('',(112.9304473783,180.,694.9365526217));
#507 = VECTOR('',#508,1.);
#508 = DIRECTION('',(0.,1.,1.110223024625E-16));
#509 = ORIENTED_EDGE('',*,*,#321,.T.);
#510 = ORIENTED_EDGE('',*,*,#504,.T.);
#511 = CYLINDRICAL_SURFACE('',#512,3.3);
#512 = AXIS2_PLACEMENT_3D('',#513,#514,#515);
#513 = CARTESIAN_POINT('',(116.2304473783,180.,694.9365526217));
#514 = DIRECTION('',(0.,1.,1.110223024625E-16));
#515 = DIRECTION('',(-1.,1.359631073447E-32,-1.224646799147E-16));
#516 = ( GEOMETRIC_REPRESENTATION_CONTEXT(3) 
GLOBAL_UNCERTAINTY_ASSIGNED_CONTEXT((#520)) GLOBAL_UNIT_ASSIGNED_CONTEXT
((#517,#518,#519)) REPRESENTATION_CONTEXT('Context #1',
  '3D Context with UNIT and UNCERTAINTY') );
#517 = ( LENGTH_UNIT() NAMED_UNIT(*) SI_UNIT(.MILLI.,.METRE.) );
#518 = ( NAMED_UNIT(*) PLANE_ANGLE_UNIT() SI_UNIT($,.RADIAN.) );
#519 = ( NAMED_UNIT(*) SI_UNIT($,.STERADIAN.) SOLID_ANGLE_UNIT() );
#520 = UNCERTAINTY_MEASURE_WITH_UNIT(LENGTH_MEASURE(1.E-07),#517,
  'distance_accuracy_value','confusion accuracy');
#521 = PRODUCT_RELATED_PRODUCT_CATEGORY('part',$,(#7));
ENDSEC;
END-ISO-10303-21;
