ISO-10303-21;
HEADER;
FILE_DESCRIPTION(('FreeCAD Model'),'2;1');
FILE_NAME('Open CASCADE Shape Model','2000-01-01T00:00:00',('FreeCAD'),(
    'FreeCAD'),'Open CASCADE STEP processor 7.9','FreeCAD','Unknown');
FILE_SCHEMA(('AUTOMOTIVE_DESIGN { 1 0 10303 214 1 1 1 1 }'));
ENDSEC;
DATA;
#1 = APPLICATION_PROTOCOL_DEFINITION('international standard',
  'automotive_design',2000,#2);
#2 = APPLICATION_CONTEXT(
  'core data for automotive mechanical design processes');
#3 = SHAPE_DEFINITION_REPRESENTATION(#4,#10);
#4 = PRODUCT_DEFINITION_SHAPE('','',#5);
#5 = PRODUCT_DEFINITION('design','',#6,#9);
#6 = PRODUCT_DEFINITION_FORMATION('','',#7);
#7 = PRODUCT('Open CASCADE STEP translator 7.9 0',
  'Open CASCADE STEP translator 7.9 0','',(#8));
#8 = PRODUCT_CONTEXT('',#2,'mechanical');
#9 = PRODUCT_DEFINITION_CONTEXT('part definition',#2,'design');
#10 = ADVANCED_BREP_SHAPE_REPRESENTATION('',(#11,#15),#448);
#11 = AXIS2_PLACEMENT_3D('',#12,#13,#14);
#12 = CARTESIAN_POINT('',(0.,0.,0.));
#13 = DIRECTION('',(0.,0.,1.));
#14 = DIRECTION('',(1.,0.,-0.));
#15 = MANIFOLD_SOLID_BREP('',#16);
#16 = CLOSED_SHELL('',(#17,#50,#81,#112,#202,#219,#244,#297,#322,#375,
    #397,#417,#434));
#17 = ADVANCED_FACE('',(#18),#45,.T.);
#18 = FACE_BOUND('',#19,.T.);
#19 = EDGE_LOOP('',(#20,#29,#37,#44));
#20 = ORIENTED_EDGE('',*,*,#21,.F.);
#21 = EDGE_CURVE('',#22,#22,#24,.T.);
#22 = VERTEX_POINT('',#23);
#23 = CARTESIAN_POINT('',(130.,218.4,676.167));
#24 = CIRCLE('',#25,23.);
#25 = AXIS2_PLACEMENT_3D('',#26,#27,#28);
#26 = CARTESIAN_POINT('',(153.,218.4,676.167));
#27 = DIRECTION('',(0.,1.,-2.22044604925E-16));
#28 = DIRECTION('',(-1.,0.,0.));
#29 = ORIENTED_EDGE('',*,*,#30,.F.);
#30 = EDGE_CURVE('',#31,#22,#33,.T.);
#31 = VERTEX_POINT('',#32);
#32 = CARTESIAN_POINT('',(130.,214.4,676.167));
#33 = LINE('',#34,#35);
#34 = CARTESIAN_POINT('',(130.,214.4,676.167));
#35 = VECTOR('',#36,1.);
#36 = DIRECTION('',(0.,1.,-2.22044604925E-16));
#37 = ORIENTED_EDGE('',*,*,#38,.T.);
#38 = EDGE_CURVE('',#31,#31,#39,.T.);
#39 = CIRCLE('',#40,23.);
#40 = AXIS2_PLACEMENT_3D('',#41,#42,#43);
#41 = CARTESIAN_POINT('',(153.,214.4,676.167));
#42 = DIRECTION('',(0.,1.,-2.22044604925E-16));
#43 = DIRECTION('',(-1.,0.,0.));
#44 = ORIENTED_EDGE('',*,*,#30,.T.);
#45 = CYLINDRICAL_SURFACE('',#46,23.);
#46 = AXIS2_PLACEMENT_3D('',#47,#48,#49);
#47 = CARTESIAN_POINT('',(153.,214.4,676.167));
#48 = DIRECTION('',(0.,1.,-2.22044604925E-16));
#49 = DIRECTION('',(-1.,0.,0.));
#50 = ADVANCED_FACE('',(#51,#54,#65),#76,.T.);
#51 = FACE_BOUND('',#52,.T.);
#52 = EDGE_LOOP('',(#53));
#53 = ORIENTED_EDGE('',*,*,#21,.T.);
#54 = FACE_BOUND('',#55,.T.);
#55 = EDGE_LOOP('',(#56));
#56 = ORIENTED_EDGE('',*,*,#57,.F.);
#57 = EDGE_CURVE('',#58,#58,#60,.T.);
#58 = VERTEX_POINT('',#59);
#59 = CARTESIAN_POINT('',(139.,218.4,676.167));
#60 = CIRCLE('',#61,14.);
#61 = AXIS2_PLACEMENT_3D('',#62,#63,#64);
#62 = CARTESIAN_POINT('',(153.,218.4,676.167));
#63 = DIRECTION('',(0.,1.,-2.22044604925E-16));
#64 = DIRECTION('',(-1.,0.,0.));
#65 = FACE_BOUND('',#66,.T.);
#66 = EDGE_LOOP('',(#67));
#67 = ORIENTED_EDGE('',*,*,#68,.F.);
#68 = EDGE_CURVE('',#69,#69,#71,.T.);
#69 = VERTEX_POINT('',#70);
#70 = CARTESIAN_POINT('',(135.45,218.4,676.167));
#71 = CIRCLE('',#72,1.55);
#72 = AXIS2_PLACEMENT_3D('',#73,#74,#75);
#73 = CARTESIAN_POINT('',(137.,218.4,676.167));
#74 = DIRECTION('',(0.,1.,-2.22044604925E-16));
#75 = DIRECTION('',(-1.,0.,0.));
#76 = PLANE('',#77);
#77 = AXIS2_PLACEMENT_3D('',#78,#79,#80);
#78 = CARTESIAN_POINT('',(153.,218.4,676.167));
#79 = DIRECTION('',(0.,1.,-2.22044604925E-16));
#80 = DIRECTION('',(-1.,0.,0.));
#81 = ADVANCED_FACE('',(#82,#85,#96),#107,.F.);
#82 = FACE_BOUND('',#83,.F.);
#83 = EDGE_LOOP('',(#84));
#84 = ORIENTED_EDGE('',*,*,#38,.T.);
#85 = FACE_BOUND('',#86,.F.);
#86 = EDGE_LOOP('',(#87));
#87 = ORIENTED_EDGE('',*,*,#88,.F.);
#88 = EDGE_CURVE('',#89,#89,#91,.T.);
#89 = VERTEX_POINT('',#90);
#90 = CARTESIAN_POINT('',(142.95,214.4,676.167));
#91 = CIRCLE('',#92,10.05);
#92 = AXIS2_PLACEMENT_3D('',#93,#94,#95);
#93 = CARTESIAN_POINT('',(153.,214.4,676.167));
#94 = DIRECTION('',(0.,1.,-2.22044604925E-16));
#95 = DIRECTION('',(-1.,0.,0.));
#96 = FACE_BOUND('',#97,.F.);
#97 = EDGE_LOOP('',(#98));
#98 = ORIENTED_EDGE('',*,*,#99,.F.);
#99 = EDGE_CURVE('',#100,#100,#102,.T.);
#100 = VERTEX_POINT('',#101);
#101 = CARTESIAN_POINT('',(135.45,214.4,676.167));
#102 = CIRCLE('',#103,1.55);
#103 = AXIS2_PLACEMENT_3D('',#104,#105,#106);
#104 = CARTESIAN_POINT('',(137.,214.4,676.167));
#105 = DIRECTION('',(0.,1.,-2.22044604925E-16));
#106 = DIRECTION('',(-1.,0.,0.));
#107 = PLANE('',#108);
#108 = AXIS2_PLACEMENT_3D('',#109,#110,#111);
#109 = CARTESIAN_POINT('',(153.,214.4,676.167));
#110 = DIRECTION('',(0.,1.,-2.22044604925E-16));
#111 = DIRECTION('',(-1.,0.,0.));
#112 = ADVANCED_FACE('',(#113,#132),#197,.T.);
#113 = FACE_BOUND('',#114,.T.);
#114 = EDGE_LOOP('',(#115,#123,#130,#131));
#115 = ORIENTED_EDGE('',*,*,#116,.T.);
#116 = EDGE_CURVE('',#58,#117,#119,.T.);
#117 = VERTEX_POINT('',#118);
#118 = CARTESIAN_POINT('',(139.,240.4,676.167));
#119 = LINE('',#120,#121);
#120 = CARTESIAN_POINT('',(139.,218.4,676.167));
#121 = VECTOR('',#122,1.);
#122 = DIRECTION('',(0.,1.,-2.22044604925E-16));
#123 = ORIENTED_EDGE('',*,*,#124,.F.);
#124 = EDGE_CURVE('',#117,#117,#125,.T.);
#125 = CIRCLE('',#126,14.);
#126 = AXIS2_PLACEMENT_3D('',#127,#128,#129);
#127 = CARTESIAN_POINT('',(153.,240.4,676.167));
#128 = DIRECTION('',(0.,1.,-2.22044604925E-16));
#129 = DIRECTION('',(-1.,0.,0.));
#130 = ORIENTED_EDGE('',*,*,#116,.F.);
#131 = ORIENTED_EDGE('',*,*,#57,.T.);
#132 = FACE_BOUND('',#133,.T.);
#133 = EDGE_LOOP('',(#134));
#134 = ORIENTED_EDGE('',*,*,#135,.F.);
#135 = EDGE_CURVE('',#136,#136,#138,.T.);
#136 = VERTEX_POINT('',#137);
#137 = CARTESIAN_POINT('',(153.,230.05,690.167));
#138 = B_SPLINE_CURVE_WITH_KNOTS('',8,(#139,#140,#141,#142,#143,#144,
    #145,#146,#147,#148,#149,#150,#151,#152,#153,#154,#155,#156,#157,
    #158,#159,#160,#161,#162,#163,#164,#165,#166,#167,#168,#169,#170,
    #171,#172,#173,#174,#175,#176,#177,#178,#179,#180,#181,#182,#183,
    #184,#185,#186,#187,#188,#189,#190,#191,#192,#193,#194,#195,#196),
  .UNSPECIFIED.,.T.,.F.,(9,7,7,7,7,7,7,7,9),(0.,0.142543386592,
    0.276791476681,0.444639238224,0.591240051458,0.686339625139,
    0.790949681286,0.892367508944,1.),.UNSPECIFIED.);
#139 = CARTESIAN_POINT('',(153.,230.05,690.167));
#140 = CARTESIAN_POINT('',(152.80186434313,230.05,690.167));
#141 = CARTESIAN_POINT('',(152.60816918905,230.02280874419,
    690.16379521705));
#142 = CARTESIAN_POINT('',(152.42309945396,229.9705576282,
    690.15763746861));
#143 = CARTESIAN_POINT('',(152.25027820038,229.89602335576,
    690.14914394461));
#144 = CARTESIAN_POINT('',(152.09269217174,229.80260685997,
    690.13918712747));
#145 = CARTESIAN_POINT('',(151.95256086174,229.69430380022,
    690.12870358606));
#146 = CARTESIAN_POINT('',(151.83116535173,229.57566554906,
    690.11850248891));
#147 = CARTESIAN_POINT('',(151.63210663329,229.33504489293,
    690.10035087027));
#148 = CARTESIAN_POINT('',(151.55031369442,229.21124601981,
    690.09212195817));
#149 = CARTESIAN_POINT('',(151.48289923756,229.08216619176,
    690.08484392651));
#150 = CARTESIAN_POINT('',(151.42946917329,228.94924345433,
    690.07878808555));
#151 = CARTESIAN_POINT('',(151.38966910645,228.81364469563,
    690.07413596579));
#152 = CARTESIAN_POINT('',(151.36322862883,228.67634582173,
    690.07099786966));
#153 = CARTESIAN_POINT('',(151.35,228.53819926405,690.06942784552));
#154 = CARTESIAN_POINT('',(151.35,228.22721216291,690.06942784552));
#155 = CARTESIAN_POINT('',(151.37067840712,228.05448494907,
    690.07188193488));
#156 = CARTESIAN_POINT('',(151.41201470353,227.8833758998,
    690.07678835597));
#157 = CARTESIAN_POINT('',(151.474378477,227.71559547843,690.08401457258
    ));
#158 = CARTESIAN_POINT('',(151.55841001507,227.55319314034,
    690.09329037214));
#159 = CARTESIAN_POINT('',(151.66491158994,227.39875703038,
    690.10414998151));
#160 = CARTESIAN_POINT('',(151.79468493545,227.25569356409,
    690.11586847743));
#161 = CARTESIAN_POINT('',(152.08237686733,227.01769409977,
    690.1375425735));
#162 = CARTESIAN_POINT('',(152.23873265455,226.91558410324,
    690.14784104057));
#163 = CARTESIAN_POINT('',(152.4149951892,226.83054096106,
    690.15730300884));
#164 = CARTESIAN_POINT('',(152.60692845138,226.76870203326,
    690.16470537215));
#165 = CARTESIAN_POINT('',(152.80884786528,226.73411826117,
    690.16894790225));
#166 = CARTESIAN_POINT('',(153.01433875572,226.72870333957,
    690.16953639943));
#167 = CARTESIAN_POINT('',(153.21683680417,226.75215504079,
    690.16665916828));
#168 = CARTESIAN_POINT('',(153.53586224966,226.83406685304,
    690.15730455191));
#169 = CARTESIAN_POINT('',(153.65849055365,226.87756305056,
    690.15242096099));
#170 = CARTESIAN_POINT('',(153.77703779851,226.93201929917,
    690.14647158145));
#171 = CARTESIAN_POINT('',(153.89037102928,226.99698577162,
    690.13965699677));
#172 = CARTESIAN_POINT('',(153.99741721129,227.07187358636,
    690.13222883528));
#173 = CARTESIAN_POINT('',(154.097177411,227.15596144439,690.12447273336
    ));
#174 = CARTESIAN_POINT('',(154.18874770977,227.24840520735,
    690.11668667144));
#175 = CARTESIAN_POINT('',(154.36220636154,227.45808069873,
    690.10086945268));
#176 = CARTESIAN_POINT('',(154.44223716489,227.57690050743,
    690.09288949616));
#177 = CARTESIAN_POINT('',(154.51037894884,227.70343654508,
    690.08559371508));
#178 = CARTESIAN_POINT('',(154.56577519116,227.83629212927,
    690.07934310574));
#179 = CARTESIAN_POINT('',(154.60777236547,227.97396825573,
    690.07443984464));
#180 = CARTESIAN_POINT('',(154.63592405876,228.1148904705,
    690.07109828242));
#181 = CARTESIAN_POINT('',(154.65,228.25744155155,690.06942784552));
#182 = CARTESIAN_POINT('',(154.65,228.53820820567,690.06942784552));
#183 = CARTESIAN_POINT('',(154.63676967381,228.67635693501,
    690.07099807006));
#184 = CARTESIAN_POINT('',(154.61032800456,228.81365181904,
    690.07413631085));
#185 = CARTESIAN_POINT('',(154.57052917923,228.94924251495,
    690.07878826136));
#186 = CARTESIAN_POINT('',(154.51710325987,229.08215672265,
    690.08484359775));
#187 = CARTESIAN_POINT('',(154.44969399733,229.21123190437,
    690.09212110838));
#188 = CARTESIAN_POINT('',(154.3679026726,229.33503364403,
    690.10035002169));
#189 = CARTESIAN_POINT('',(154.16887429826,229.57561762044,
    690.11849887333));
#190 = CARTESIAN_POINT('',(154.04748334397,229.69427213461,
    690.12870022575));
#191 = CARTESIAN_POINT('',(153.90732230003,229.80261242543,
    690.13918699907));
#192 = CARTESIAN_POINT('',(153.74968525212,229.89605813684,
    690.14914750588));
#193 = CARTESIAN_POINT('',(153.57681290783,229.97059885146,
    690.15764233387));
#194 = CARTESIAN_POINT('',(153.39171736002,230.02283334064,
    690.16379811486));
#195 = CARTESIAN_POINT('',(153.19804602299,230.05,690.167));
#196 = CARTESIAN_POINT('',(153.,230.05,690.167));
#197 = CYLINDRICAL_SURFACE('',#198,14.);
#198 = AXIS2_PLACEMENT_3D('',#199,#200,#201);
#199 = CARTESIAN_POINT('',(153.,218.4,676.167));
#200 = DIRECTION('',(0.,1.,-2.22044604925E-16));
#201 = DIRECTION('',(-1.,0.,0.));
#202 = ADVANCED_FACE('',(#203),#214,.F.);
#203 = FACE_BOUND('',#204,.F.);
#204 = EDGE_LOOP('',(#205,#211,#212,#213));
#205 = ORIENTED_EDGE('',*,*,#206,.T.);
#206 = EDGE_CURVE('',#100,#69,#207,.T.);
#207 = LINE('',#208,#209);
#208 = CARTESIAN_POINT('',(135.45,210.,676.167));
#209 = VECTOR('',#210,1.);
#210 = DIRECTION('',(0.,1.,-2.22044604925E-16));
#211 = ORIENTED_EDGE('',*,*,#68,.F.);
#212 = ORIENTED_EDGE('',*,*,#206,.F.);
#213 = ORIENTED_EDGE('',*,*,#99,.T.);
#214 = CYLINDRICAL_SURFACE('',#215,1.55);
#215 = AXIS2_PLACEMENT_3D('',#216,#217,#218);
#216 = CARTESIAN_POINT('',(137.,210.,676.167));
#217 = DIRECTION('',(0.,1.,-2.22044604925E-16));
#218 = DIRECTION('',(-1.,0.,0.));
#219 = ADVANCED_FACE('',(#220),#239,.F.);
#220 = FACE_BOUND('',#221,.F.);
#221 = EDGE_LOOP('',(#222,#231,#237,#238));
#222 = ORIENTED_EDGE('',*,*,#223,.F.);
#223 = EDGE_CURVE('',#224,#224,#226,.T.);
#224 = VERTEX_POINT('',#225);
#225 = CARTESIAN_POINT('',(142.95,218.6,676.167));
#226 = CIRCLE('',#227,10.05);
#227 = AXIS2_PLACEMENT_3D('',#228,#229,#230);
#228 = CARTESIAN_POINT('',(153.,218.6,676.167));
#229 = DIRECTION('',(0.,1.,-2.22044604925E-16));
#230 = DIRECTION('',(-1.,0.,0.));
#231 = ORIENTED_EDGE('',*,*,#232,.F.);
#232 = EDGE_CURVE('',#89,#224,#233,.T.);
#233 = LINE('',#234,#235);
#234 = CARTESIAN_POINT('',(142.95,214.4,676.167));
#235 = VECTOR('',#236,1.);
#236 = DIRECTION('',(0.,1.,-2.22044604925E-16));
#237 = ORIENTED_EDGE('',*,*,#88,.T.);
#238 = ORIENTED_EDGE('',*,*,#232,.T.);
#239 = CYLINDRICAL_SURFACE('',#240,10.05);
#240 = AXIS2_PLACEMENT_3D('',#241,#242,#243);
#241 = CARTESIAN_POINT('',(153.,214.4,676.167));
#242 = DIRECTION('',(0.,1.,-2.22044604925E-16));
#243 = DIRECTION('',(-1.,0.,0.));
#244 = ADVANCED_FACE('',(#245,#248),#292,.T.);
#245 = FACE_BOUND('',#246,.T.);
#246 = EDGE_LOOP('',(#247));
#247 = ORIENTED_EDGE('',*,*,#124,.T.);
#248 = FACE_BOUND('',#249,.T.);
#249 = EDGE_LOOP('',(#250,#261,#269,#277,#285));
#250 = ORIENTED_EDGE('',*,*,#251,.F.);
#251 = EDGE_CURVE('',#252,#254,#256,.T.);
#252 = VERTEX_POINT('',#253);
#253 = CARTESIAN_POINT('',(155.05,240.4,681.83252071746));
#254 = VERTEX_POINT('',#255);
#255 = CARTESIAN_POINT('',(146.975,240.4,676.167));
#256 = CIRCLE('',#257,6.025);
#257 = AXIS2_PLACEMENT_3D('',#258,#259,#260);
#258 = CARTESIAN_POINT('',(153.,240.4,676.167));
#259 = DIRECTION('',(0.,1.,-2.22044604925E-16));
#260 = DIRECTION('',(-1.,0.,0.));
#261 = ORIENTED_EDGE('',*,*,#262,.T.);
#262 = EDGE_CURVE('',#252,#263,#265,.T.);
#263 = VERTEX_POINT('',#264);
#264 = CARTESIAN_POINT('',(155.05,240.4,684.192));
#265 = LINE('',#266,#267);
#266 = CARTESIAN_POINT('',(155.05,240.4,679.592));
#267 = VECTOR('',#268,1.);
#268 = DIRECTION('',(0.,2.22044604925E-16,1.));
#269 = ORIENTED_EDGE('',*,*,#270,.T.);
#270 = EDGE_CURVE('',#263,#271,#273,.T.);
#271 = VERTEX_POINT('',#272);
#272 = CARTESIAN_POINT('',(150.95,240.4,684.192));
#273 = LINE('',#274,#275);
#274 = CARTESIAN_POINT('',(155.05,240.4,684.192));
#275 = VECTOR('',#276,1.);
#276 = DIRECTION('',(-1.,0.,0.));
#277 = ORIENTED_EDGE('',*,*,#278,.F.);
#278 = EDGE_CURVE('',#279,#271,#281,.T.);
#279 = VERTEX_POINT('',#280);
#280 = CARTESIAN_POINT('',(150.95,240.4,681.83252071746));
#281 = LINE('',#282,#283);
#282 = CARTESIAN_POINT('',(150.95,240.4,679.592));
#283 = VECTOR('',#284,1.);
#284 = DIRECTION('',(0.,2.22044604925E-16,1.));
#285 = ORIENTED_EDGE('',*,*,#286,.F.);
#286 = EDGE_CURVE('',#254,#279,#287,.T.);
#287 = CIRCLE('',#288,6.025);
#288 = AXIS2_PLACEMENT_3D('',#289,#290,#291);
#289 = CARTESIAN_POINT('',(153.,240.4,676.167));
#290 = DIRECTION('',(0.,1.,-2.22044604925E-16));
#291 = DIRECTION('',(-1.,0.,0.));
#292 = PLANE('',#293);
#293 = AXIS2_PLACEMENT_3D('',#294,#295,#296);
#294 = CARTESIAN_POINT('',(153.,240.4,676.167));
#295 = DIRECTION('',(0.,1.,-2.22044604925E-16));
#296 = DIRECTION('',(-1.,0.,0.));
#297 = ADVANCED_FACE('',(#298),#317,.F.);
#298 = FACE_BOUND('',#299,.F.);
#299 = EDGE_LOOP('',(#300,#301,#309,#316));
#300 = ORIENTED_EDGE('',*,*,#135,.F.);
#301 = ORIENTED_EDGE('',*,*,#302,.F.);
#302 = EDGE_CURVE('',#303,#136,#305,.T.);
#303 = VERTEX_POINT('',#304);
#304 = CARTESIAN_POINT('',(153.,230.05,684.192));
#305 = LINE('',#306,#307);
#306 = CARTESIAN_POINT('',(153.,230.05,676.167));
#307 = VECTOR('',#308,1.);
#308 = DIRECTION('',(0.,2.22044604925E-16,1.));
#309 = ORIENTED_EDGE('',*,*,#310,.T.);
#310 = EDGE_CURVE('',#303,#303,#311,.T.);
#311 = CIRCLE('',#312,1.65);
#312 = AXIS2_PLACEMENT_3D('',#313,#314,#315);
#313 = CARTESIAN_POINT('',(153.,228.4,684.192));
#314 = DIRECTION('',(0.,2.22044604925E-16,1.));
#315 = DIRECTION('',(0.,1.,-2.22044604925E-16));
#316 = ORIENTED_EDGE('',*,*,#302,.T.);
#317 = CYLINDRICAL_SURFACE('',#318,1.65);
#318 = AXIS2_PLACEMENT_3D('',#319,#320,#321);
#319 = CARTESIAN_POINT('',(153.,228.4,676.167));
#320 = DIRECTION('',(0.,2.22044604925E-16,1.));
#321 = DIRECTION('',(0.,1.,-2.22044604925E-16));
#322 = ADVANCED_FACE('',(#323,#326),#370,.F.);
#323 = FACE_BOUND('',#324,.F.);
#324 = EDGE_LOOP('',(#325));
#325 = ORIENTED_EDGE('',*,*,#223,.T.);
#326 = FACE_BOUND('',#327,.F.);
#327 = EDGE_LOOP('',(#328,#339,#347,#355,#363));
#328 = ORIENTED_EDGE('',*,*,#329,.F.);
#329 = EDGE_CURVE('',#330,#332,#334,.T.);
#330 = VERTEX_POINT('',#331);
#331 = CARTESIAN_POINT('',(155.05,218.6,681.83252071746));
#332 = VERTEX_POINT('',#333);
#333 = CARTESIAN_POINT('',(146.975,218.6,676.167));
#334 = CIRCLE('',#335,6.025);
#335 = AXIS2_PLACEMENT_3D('',#336,#337,#338);
#336 = CARTESIAN_POINT('',(153.,218.6,676.167));
#337 = DIRECTION('',(0.,1.,-2.22044604925E-16));
#338 = DIRECTION('',(-1.,0.,0.));
#339 = ORIENTED_EDGE('',*,*,#340,.F.);
#340 = EDGE_CURVE('',#341,#330,#343,.T.);
#341 = VERTEX_POINT('',#342);
#342 = CARTESIAN_POINT('',(155.05,218.6,684.192));
#343 = LINE('',#344,#345);
#344 = CARTESIAN_POINT('',(155.05,218.6,677.8795));
#345 = VECTOR('',#346,1.);
#346 = DIRECTION('',(0.,-2.22044604925E-16,-1.));
#347 = ORIENTED_EDGE('',*,*,#348,.T.);
#348 = EDGE_CURVE('',#341,#349,#351,.T.);
#349 = VERTEX_POINT('',#350);
#350 = CARTESIAN_POINT('',(150.95,218.6,684.192));
#351 = LINE('',#352,#353);
#352 = CARTESIAN_POINT('',(154.025,218.6,684.192));
#353 = VECTOR('',#354,1.);
#354 = DIRECTION('',(-1.,0.,0.));
#355 = ORIENTED_EDGE('',*,*,#356,.T.);
#356 = EDGE_CURVE('',#349,#357,#359,.T.);
#357 = VERTEX_POINT('',#358);
#358 = CARTESIAN_POINT('',(150.95,218.6,681.83252071746));
#359 = LINE('',#360,#361);
#360 = CARTESIAN_POINT('',(150.95,218.6,677.8795));
#361 = VECTOR('',#362,1.);
#362 = DIRECTION('',(0.,-2.22044604925E-16,-1.));
#363 = ORIENTED_EDGE('',*,*,#364,.F.);
#364 = EDGE_CURVE('',#332,#357,#365,.T.);
#365 = CIRCLE('',#366,6.025);
#366 = AXIS2_PLACEMENT_3D('',#367,#368,#369);
#367 = CARTESIAN_POINT('',(153.,218.6,676.167));
#368 = DIRECTION('',(0.,1.,-2.22044604925E-16));
#369 = DIRECTION('',(-1.,0.,0.));
#370 = PLANE('',#371);
#371 = AXIS2_PLACEMENT_3D('',#372,#373,#374);
#372 = CARTESIAN_POINT('',(153.,218.6,676.167));
#373 = DIRECTION('',(0.,1.,-2.22044604925E-16));
#374 = DIRECTION('',(-1.,0.,0.));
#375 = ADVANCED_FACE('',(#376),#392,.F.);
#376 = FACE_BOUND('',#377,.F.);
#377 = EDGE_LOOP('',(#378,#384,#385,#391));
#378 = ORIENTED_EDGE('',*,*,#379,.F.);
#379 = EDGE_CURVE('',#357,#279,#380,.T.);
#380 = LINE('',#381,#382);
#381 = CARTESIAN_POINT('',(150.95,214.4,681.83252071746));
#382 = VECTOR('',#383,1.);
#383 = DIRECTION('',(0.,1.,-2.22044604925E-16));
#384 = ORIENTED_EDGE('',*,*,#356,.F.);
#385 = ORIENTED_EDGE('',*,*,#386,.T.);
#386 = EDGE_CURVE('',#349,#271,#387,.T.);
#387 = LINE('',#388,#389);
#388 = CARTESIAN_POINT('',(150.95,214.4,684.192));
#389 = VECTOR('',#390,1.);
#390 = DIRECTION('',(0.,1.,-2.22044604925E-16));
#391 = ORIENTED_EDGE('',*,*,#278,.F.);
#392 = PLANE('',#393);
#393 = AXIS2_PLACEMENT_3D('',#394,#395,#396);
#394 = CARTESIAN_POINT('',(150.95,214.4,679.592));
#395 = DIRECTION('',(-1.,0.,0.));
#396 = DIRECTION('',(0.,1.,-2.22044604925E-16));
#397 = ADVANCED_FACE('',(#398,#409),#412,.F.);
#398 = FACE_BOUND('',#399,.F.);
#399 = EDGE_LOOP('',(#400,#401,#407,#408));
#400 = ORIENTED_EDGE('',*,*,#348,.F.);
#401 = ORIENTED_EDGE('',*,*,#402,.T.);
#402 = EDGE_CURVE('',#341,#263,#403,.T.);
#403 = LINE('',#404,#405);
#404 = CARTESIAN_POINT('',(155.05,214.4,684.192));
#405 = VECTOR('',#406,1.);
#406 = DIRECTION('',(0.,1.,-2.22044604925E-16));
#407 = ORIENTED_EDGE('',*,*,#270,.T.);
#408 = ORIENTED_EDGE('',*,*,#386,.F.);
#409 = FACE_BOUND('',#410,.F.);
#410 = EDGE_LOOP('',(#411));
#411 = ORIENTED_EDGE('',*,*,#310,.F.);
#412 = PLANE('',#413);
#413 = AXIS2_PLACEMENT_3D('',#414,#415,#416);
#414 = CARTESIAN_POINT('',(155.05,214.4,684.192));
#415 = DIRECTION('',(0.,2.22044604925E-16,1.));
#416 = DIRECTION('',(0.,1.,-2.22044604925E-16));
#417 = ADVANCED_FACE('',(#418),#429,.T.);
#418 = FACE_BOUND('',#419,.T.);
#419 = EDGE_LOOP('',(#420,#426,#427,#428));
#420 = ORIENTED_EDGE('',*,*,#421,.F.);
#421 = EDGE_CURVE('',#330,#252,#422,.T.);
#422 = LINE('',#423,#424);
#423 = CARTESIAN_POINT('',(155.05,214.4,681.83252071746));
#424 = VECTOR('',#425,1.);
#425 = DIRECTION('',(0.,1.,-2.22044604925E-16));
#426 = ORIENTED_EDGE('',*,*,#340,.F.);
#427 = ORIENTED_EDGE('',*,*,#402,.T.);
#428 = ORIENTED_EDGE('',*,*,#262,.F.);
#429 = PLANE('',#430);
#430 = AXIS2_PLACEMENT_3D('',#431,#432,#433);
#431 = CARTESIAN_POINT('',(155.05,214.4,679.592));
#432 = DIRECTION('',(-1.,0.,0.));
#433 = DIRECTION('',(0.,1.,-2.22044604925E-16));
#434 = ADVANCED_FACE('',(#435),#443,.F.);
#435 = FACE_BOUND('',#436,.F.);
#436 = EDGE_LOOP('',(#437,#438,#439,#440,#441,#442));
#437 = ORIENTED_EDGE('',*,*,#379,.T.);
#438 = ORIENTED_EDGE('',*,*,#286,.F.);
#439 = ORIENTED_EDGE('',*,*,#251,.F.);
#440 = ORIENTED_EDGE('',*,*,#421,.F.);
#441 = ORIENTED_EDGE('',*,*,#329,.T.);
#442 = ORIENTED_EDGE('',*,*,#364,.T.);
#443 = CYLINDRICAL_SURFACE('',#444,6.025);
#444 = AXIS2_PLACEMENT_3D('',#445,#446,#447);
#445 = CARTESIAN_POINT('',(153.,214.4,676.167));
#446 = DIRECTION('',(0.,1.,-2.22044604925E-16));
#447 = DIRECTION('',(-1.,0.,0.));
#448 = ( GEOMETRIC_REPRESENTATION_CONTEXT(3) 
GLOBAL_UNCERTAINTY_ASSIGNED_CONTEXT((#452)) GLOBAL_UNIT_ASSIGNED_CONTEXT
((#449,#450,#451)) REPRESENTATION_CONTEXT('Context #1',
  '3D Context with UNIT and UNCERTAINTY') );
#449 = ( LENGTH_UNIT() NAMED_UNIT(*) SI_UNIT(.MILLI.,.METRE.) );
#450 = ( NAMED_UNIT(*) PLANE_ANGLE_UNIT() SI_UNIT($,.RADIAN.) );
#451 = ( NAMED_UNIT(*) SI_UNIT($,.STERADIAN.) SOLID_ANGLE_UNIT() );
#452 = UNCERTAINTY_MEASURE_WITH_UNIT(LENGTH_MEASURE(1.E-07),#449,
  'distance_accuracy_value','confusion accuracy');
#453 = PRODUCT_RELATED_PRODUCT_CATEGORY('part',$,(#7));
ENDSEC;
END-ISO-10303-21;
