ISO-10303-21;
HEADER;
FILE_DESCRIPTION(('Open CASCADE Model'),'2;1');
FILE_NAME('Open CASCADE Shape Model','2026-09-21T01:57:14',('Author'),(
    'Open CASCADE'),'Open CASCADE STEP processor 7.9','Open CASCADE 7.9'
  ,'Unknown');
FILE_SCHEMA(('AUTOMOTIVE_DESIGN { 1 0 10303 214 1 1 1 1 }'));
ENDSEC;
DATA;
#1 = APPLICATION_PROTOCOL_DEFINITION('international standard',
  'automotive_design',2000,#2);
#2 = APPLICATION_CONTEXT(
  'core data for automotive mechanical design processes');
#3 = SHAPE_DEFINITION_REPRESENTATION(#4,#10);
#4 = PRODUCT_DEFINITION_SHAPE('','',#5);
#5 = PRODUCT_DEFINITION('design','',#6,#9);
#6 = PRODUCT_DEFINITION_FORMATION('','',#7);
#7 = PRODUCT('Open CASCADE STEP translator 7.9 87',
  'Open CASCADE STEP translator 7.9 87','',(#8));
#8 = PRODUCT_CONTEXT('',#2,'mechanical');
#9 = PRODUCT_DEFINITION_CONTEXT('part definition',#2,'design');
#10 = ADVANCED_BREP_SHAPE_REPRESENTATION('',(#11,#15),#664);
#11 = AXIS2_PLACEMENT_3D('',#12,#13,#14);
#12 = CARTESIAN_POINT('',(0.,0.,0.));
#13 = DIRECTION('',(0.,0.,1.));
#14 = DIRECTION('',(1.,0.,-0.));
#15 = MANIFOLD_SOLID_BREP('',#16);
#16 = CLOSED_SHELL('',(#17,#490,#525,#560,#587,#637));
#17 = ADVANCED_FACE('',(#18,#105,#300),#32,.T.);
#18 = FACE_BOUND('',#19,.T.);
#19 = EDGE_LOOP('',(#20,#50,#77,#78));
#20 = ORIENTED_EDGE('',*,*,#21,.T.);
#21 = EDGE_CURVE('',#22,#24,#26,.T.);
#22 = VERTEX_POINT('',#23);
#23 = CARTESIAN_POINT('',(0.,4.40872847693E-15,18.));
#24 = VERTEX_POINT('',#25);
#25 = CARTESIAN_POINT('',(20.,4.40872847693E-15,18.));
#26 = SEAM_CURVE('',#27,(#31,#43),.PCURVE_S1.);
#27 = LINE('',#28,#29);
#28 = CARTESIAN_POINT('',(0.,4.40872847693E-15,18.));
#29 = VECTOR('',#30,1.);
#30 = DIRECTION('',(1.,0.,0.));
#31 = PCURVE('',#32,#37);
#32 = CYLINDRICAL_SURFACE('',#33,18.);
#33 = AXIS2_PLACEMENT_3D('',#34,#35,#36);
#34 = CARTESIAN_POINT('',(0.,0.,0.));
#35 = DIRECTION('',(1.,0.,0.));
#36 = DIRECTION('',(-0.,0.,1.));
#37 = DEFINITIONAL_REPRESENTATION('',(#38),#42);
#38 = LINE('',#39,#40);
#39 = CARTESIAN_POINT('',(6.28318530718,-0.));
#40 = VECTOR('',#41,1.);
#41 = DIRECTION('',(0.,1.));
#42 = ( GEOMETRIC_REPRESENTATION_CONTEXT(2) 
PARAMETRIC_REPRESENTATION_CONTEXT() REPRESENTATION_CONTEXT('2D SPACE',''
  ) );
#43 = PCURVE('',#32,#44);
#44 = DEFINITIONAL_REPRESENTATION('',(#45),#49);
#45 = LINE('',#46,#47);
#46 = CARTESIAN_POINT('',(0.,-0.));
#47 = VECTOR('',#48,1.);
#48 = DIRECTION('',(0.,1.));
#49 = ( GEOMETRIC_REPRESENTATION_CONTEXT(2) 
PARAMETRIC_REPRESENTATION_CONTEXT() REPRESENTATION_CONTEXT('2D SPACE',''
  ) );
#50 = ORIENTED_EDGE('',*,*,#51,.F.);
#51 = EDGE_CURVE('',#24,#24,#52,.T.);
#52 = SURFACE_CURVE('',#53,(#58,#65),.PCURVE_S1.);
#53 = CIRCLE('',#54,18.);
#54 = AXIS2_PLACEMENT_3D('',#55,#56,#57);
#55 = CARTESIAN_POINT('',(20.,0.,0.));
#56 = DIRECTION('',(1.,0.,0.));
#57 = DIRECTION('',(-0.,0.,1.));
#58 = PCURVE('',#32,#59);
#59 = DEFINITIONAL_REPRESENTATION('',(#60),#64);
#60 = LINE('',#61,#62);
#61 = CARTESIAN_POINT('',(0.,20.));
#62 = VECTOR('',#63,1.);
#63 = DIRECTION('',(1.,0.));
#64 = ( GEOMETRIC_REPRESENTATION_CONTEXT(2) 
PARAMETRIC_REPRESENTATION_CONTEXT() REPRESENTATION_CONTEXT('2D SPACE',''
  ) );
#65 = PCURVE('',#66,#71);
#66 = PLANE('',#67);
#67 = AXIS2_PLACEMENT_3D('',#68,#69,#70);
#68 = CARTESIAN_POINT('',(20.,0.,0.));
#69 = DIRECTION('',(1.,0.,0.));
#70 = DIRECTION('',(-0.,0.,1.));
#71 = DEFINITIONAL_REPRESENTATION('',(#72),#76);
#72 = CIRCLE('',#73,18.);
#73 = AXIS2_PLACEMENT_2D('',#74,#75);
#74 = CARTESIAN_POINT('',(0.,0.));
#75 = DIRECTION('',(1.,0.));
#76 = ( GEOMETRIC_REPRESENTATION_CONTEXT(2) 
PARAMETRIC_REPRESENTATION_CONTEXT() REPRESENTATION_CONTEXT('2D SPACE',''
  ) );
#77 = ORIENTED_EDGE('',*,*,#21,.F.);
#78 = ORIENTED_EDGE('',*,*,#79,.T.);
#79 = EDGE_CURVE('',#22,#22,#80,.T.);
#80 = SURFACE_CURVE('',#81,(#86,#93),.PCURVE_S1.);
#81 = CIRCLE('',#82,18.);
#82 = AXIS2_PLACEMENT_3D('',#83,#84,#85);
#83 = CARTESIAN_POINT('',(0.,0.,0.));
#84 = DIRECTION('',(1.,0.,0.));
#85 = DIRECTION('',(-0.,0.,1.));
#86 = PCURVE('',#32,#87);
#87 = DEFINITIONAL_REPRESENTATION('',(#88),#92);
#88 = LINE('',#89,#90);
#89 = CARTESIAN_POINT('',(0.,0.));
#90 = VECTOR('',#91,1.);
#91 = DIRECTION('',(1.,0.));
#92 = ( GEOMETRIC_REPRESENTATION_CONTEXT(2) 
PARAMETRIC_REPRESENTATION_CONTEXT() REPRESENTATION_CONTEXT('2D SPACE',''
  ) );
#93 = PCURVE('',#94,#99);
#94 = PLANE('',#95);
#95 = AXIS2_PLACEMENT_3D('',#96,#97,#98);
#96 = CARTESIAN_POINT('',(0.,0.,0.));
#97 = DIRECTION('',(1.,0.,0.));
#98 = DIRECTION('',(-0.,0.,1.));
#99 = DEFINITIONAL_REPRESENTATION('',(#100),#104);
#100 = CIRCLE('',#101,18.);
#101 = AXIS2_PLACEMENT_2D('',#102,#103);
#102 = CARTESIAN_POINT('',(0.,0.));
#103 = DIRECTION('',(1.,0.));
#104 = ( GEOMETRIC_REPRESENTATION_CONTEXT(2) 
PARAMETRIC_REPRESENTATION_CONTEXT() REPRESENTATION_CONTEXT('2D SPACE',''
  ) );
#105 = FACE_BOUND('',#106,.T.);
#106 = EDGE_LOOP('',(#107));
#107 = ORIENTED_EDGE('',*,*,#108,.T.);
#108 = EDGE_CURVE('',#109,#109,#111,.T.);
#109 = VERTEX_POINT('',#110);
#110 = CARTESIAN_POINT('',(12.,-14.24780684877,11.));
#111 = SURFACE_CURVE('',#112,(#171,#233),.PCURVE_S1.);
#112 = B_SPLINE_CURVE_WITH_KNOTS('',8,(#113,#114,#115,#116,#117,#118,
    #119,#120,#121,#122,#123,#124,#125,#126,#127,#128,#129,#130,#131,
    #132,#133,#134,#135,#136,#137,#138,#139,#140,#141,#142,#143,#144,
    #145,#146,#147,#148,#149,#150,#151,#152,#153,#154,#155,#156,#157,
    #158,#159,#160,#161,#162,#163,#164,#165,#166,#167,#168,#169,#170),
  .UNSPECIFIED.,.T.,.F.,(9,7,7,7,7,7,7,7,9),(0.,0.121005511457,
    0.235616330435,0.327305259017,0.433162009414,0.547791729666,
    0.662259399064,0.820336498331,1.),.UNSPECIFIED.);
#113 = CARTESIAN_POINT('',(12.,-14.24780684877,11.));
#114 = CARTESIAN_POINT('',(12.276288578403,-14.24780684877,11.));
#115 = CARTESIAN_POINT('',(12.551256823868,-14.27025837533,
    10.970919711795));
#116 = CARTESIAN_POINT('',(12.821916397157,-14.31478441327,
    10.913246417151));
#117 = CARTESIAN_POINT('',(13.085338950851,-14.38034446103,
    10.827643626355));
#118 = CARTESIAN_POINT('',(13.338570166767,-14.46523163761,
    10.715000731691));
#119 = CARTESIAN_POINT('',(13.578612729505,-14.56714717019,
    10.576537164728));
#120 = CARTESIAN_POINT('',(13.802488708263,-14.6833353414,
    10.413930066098));
#121 = CARTESIAN_POINT('',(14.201466560456,-14.93145458443,
    10.054688794398));
#122 = CARTESIAN_POINT('',(14.379960026769,-15.06312384665,
    9.859011434413));
#123 = CARTESIAN_POINT('',(14.540587114074,-15.20378966535,
    9.643321375702));
#124 = CARTESIAN_POINT('',(14.680900314053,-15.3513115988,9.4087124099)
  );
#125 = CARTESIAN_POINT('',(14.79827940294,-15.50345493944,9.156523030877
    ));
#126 = CARTESIAN_POINT('',(14.889914665347,-15.65795080763,
    8.888420507166));
#127 = CARTESIAN_POINT('',(14.952776678958,-15.8125532385,8.606523224978
    ));
#128 = CARTESIAN_POINT('',(15.008196965268,-16.08713100586,
    8.079234422873));
#129 = CARTESIAN_POINT('',(15.011787653424,-16.20530470025,
    7.842701290383));
#130 = CARTESIAN_POINT('',(14.994117773275,-16.3184649518,7.606178443635
    ));
#131 = CARTESIAN_POINT('',(14.955236097499,-16.42570913118,
    7.371872437343));
#132 = CARTESIAN_POINT('',(14.89546076926,-16.52637573359,7.141982727195
    ));
#133 = CARTESIAN_POINT('',(14.815382362787,-16.62002431116,
    6.918671389063));
#134 = CARTESIAN_POINT('',(14.715869384025,-16.70640395565,
    6.704023759853));
#135 = CARTESIAN_POINT('',(14.46208157524,-16.8766248146,6.264450380694)
  );
#136 = CARTESIAN_POINT('',(14.30448366641,-16.95615845404,6.047846662291
    ));
#137 = CARTESIAN_POINT('',(14.128422723436,-17.02479609787,
    5.851564752979));
#138 = CARTESIAN_POINT('',(13.936918550516,-17.08338535495,
    5.676637883207));
#139 = CARTESIAN_POINT('',(13.732931355404,-17.13275570463,
    5.523766046943));
#140 = CARTESIAN_POINT('',(13.5193885332,-17.17366880599,5.393310383017)
  );
#141 = CARTESIAN_POINT('',(13.299177396036,-17.20680000649,
    5.285272496558));
#142 = CARTESIAN_POINT('',(12.832460011962,-17.26085280906,
    5.106116478286));
#143 = CARTESIAN_POINT('',(12.583910432919,-17.28069441653,5.0382716175)
  );
#144 = CARTESIAN_POINT('',(12.331556553787,-17.29303050897,
    4.995214338778));
#145 = CARTESIAN_POINT('',(12.077198838059,-17.29830897742,
    4.976604270535));
#146 = CARTESIAN_POINT('',(11.822475208716,-17.29670799939,
    4.982296731307));
#147 = CARTESIAN_POINT('',(11.5689991955,-17.28814949989,5.012354746271)
  );
#148 = CARTESIAN_POINT('',(11.318497791192,-17.27228904173,
    5.067046817953));
#149 = CARTESIAN_POINT('',(10.827747372328,-17.22470890389,
    5.226501294977));
#150 = CARTESIAN_POINT('',(10.585998504543,-17.19286755803,5.33167554672
    ));
#151 = CARTESIAN_POINT('',(10.351008254839,-17.15226691172,
    5.462942249142));
#152 = CARTESIAN_POINT('',(10.126229037066,-17.10209803484,
    5.620424634077));
#153 = CARTESIAN_POINT('',(9.915211504583,-17.04141359556,5.803812325023
    ));
#154 = CARTESIAN_POINT('',(9.721597115801,-16.9691451034,6.012378631314)
  );
#155 = CARTESIAN_POINT('',(9.549162157944,-16.8841662246,6.244975663553)
  );
#156 = CARTESIAN_POINT('',(9.198591140732,-16.64903081775,6.852182477025
    ));
#157 = CARTESIAN_POINT('',(9.049053824078,-16.49022852636,7.237191694054
    ));
#158 = CARTESIAN_POINT('',(8.961272369514,-16.31021828569,7.642886991094
    ));
#159 = CARTESIAN_POINT('',(8.938461238499,-16.11218479645,8.055085601026
    ));
#160 = CARTESIAN_POINT('',(8.979242651523,-15.90187061014,8.459279524709
    ));
#161 = CARTESIAN_POINT('',(9.077804229974,-15.68794493698,8.841893818172
    ));
#162 = CARTESIAN_POINT('',(9.223779845216,-15.48061017728,9.191445638918
    ));
#163 = CARTESIAN_POINT('',(9.604394385755,-15.07097825037,9.850689361231
    ));
#164 = CARTESIAN_POINT('',(9.857525697281,-14.86343694256,
    10.164191392633));
#165 = CARTESIAN_POINT('',(10.153290612266,-14.67428848473,
    10.434020980265));
#166 = CARTESIAN_POINT('',(10.483586832368,-14.51160769268,
    10.655476923165));
#167 = CARTESIAN_POINT('',(10.840609995101,-14.38272064644,
    10.825246607875));
#168 = CARTESIAN_POINT('',(11.217052588234,-14.29347598426,
    10.940848436087));
#169 = CARTESIAN_POINT('',(11.605950618775,-14.24780684877,11.));
#170 = CARTESIAN_POINT('',(12.,-14.24780684877,11.));
#171 = PCURVE('',#32,#172);
#172 = DEFINITIONAL_REPRESENTATION('',(#173),#232);
#173 = B_SPLINE_CURVE_WITH_KNOTS('',8,(#174,#175,#176,#177,#178,#179,
    #180,#181,#182,#183,#184,#185,#186,#187,#188,#189,#190,#191,#192,
    #193,#194,#195,#196,#197,#198,#199,#200,#201,#202,#203,#204,#205,
    #206,#207,#208,#209,#210,#211,#212,#213,#214,#215,#216,#217,#218,
    #219,#220,#221,#222,#223,#224,#225,#226,#227,#228,#229,#230,#231),
  .UNSPECIFIED.,.T.,.F.,(9,7,7,7,7,7,7,7,9),(0.,0.121005511457,
    0.235616330435,0.327305259017,0.433162009414,0.547791729666,
    0.662259399064,0.820336498331,1.),.UNSPECIFIED.);
#174 = CARTESIAN_POINT('',(0.913332770413,12.));
#175 = CARTESIAN_POINT('',(0.913332770413,12.276288578403));
#176 = CARTESIAN_POINT('',(0.915373812788,12.551256823868));
#177 = CARTESIAN_POINT('',(0.9194216572,12.821916397157));
#178 = CARTESIAN_POINT('',(0.925411838102,13.085338950851));
#179 = CARTESIAN_POINT('',(0.933247221838,13.338570166767));
#180 = CARTESIAN_POINT('',(0.942797360596,13.578612729505));
#181 = CARTESIAN_POINT('',(0.953898823276,13.802488708263));
#182 = CARTESIAN_POINT('',(0.978154244591,14.201466560456));
#183 = CARTESIAN_POINT('',(0.991256197986,14.379960026769));
#184 = CARTESIAN_POINT('',(1.005559521343,14.540587114074));
#185 = CARTESIAN_POINT('',(1.020951461543,14.680900314053));
#186 = CARTESIAN_POINT('',(1.037308093449,14.79827940294));
#187 = CARTESIAN_POINT('',(1.054492497362,14.889914665347));
#188 = CARTESIAN_POINT('',(1.072349959726,14.952776678958));
#189 = CARTESIAN_POINT('',(1.10537755907,15.008196965268));
#190 = CARTESIAN_POINT('',(1.120064977031,15.011787653424));
#191 = CARTESIAN_POINT('',(1.134628042536,14.994117773275));
#192 = CARTESIAN_POINT('',(1.148939765949,14.955236097499));
#193 = CARTESIAN_POINT('',(1.162878702261,14.89546076926));
#194 = CARTESIAN_POINT('',(1.176329227424,14.815382362787));
#195 = CARTESIAN_POINT('',(1.189182369827,14.715869384025));
#196 = CARTESIAN_POINT('',(1.215370194281,14.46208157524));
#197 = CARTESIAN_POINT('',(1.228187314341,14.30448366641));
#198 = CARTESIAN_POINT('',(1.239737291072,14.128422723436));
#199 = CARTESIAN_POINT('',(1.249984640653,13.936918550516));
#200 = CARTESIAN_POINT('',(1.25890872964,13.732931355404));
#201 = CARTESIAN_POINT('',(1.266504093805,13.5193885332));
#202 = CARTESIAN_POINT('',(1.272782007636,13.299177396036));
#203 = CARTESIAN_POINT('',(1.283178259387,12.832460011962));
#204 = CARTESIAN_POINT('',(1.287105160289,12.583910432919));
#205 = CARTESIAN_POINT('',(1.289593461474,12.331556553787));
#206 = CARTESIAN_POINT('',(1.290668167953,12.077198838059));
#207 = CARTESIAN_POINT('',(1.2903396323,11.822475208716));
#208 = CARTESIAN_POINT('',(1.28860335973,11.5689991955));
#209 = CARTESIAN_POINT('',(1.285439821457,11.318497791192));
#210 = CARTESIAN_POINT('',(1.276195270215,10.827747372328));
#211 = CARTESIAN_POINT('',(1.270090397436,10.585998504543));
#212 = CARTESIAN_POINT('',(1.262457180437,10.351008254839));
#213 = CARTESIAN_POINT('',(1.253275623395,10.126229037066));
#214 = CARTESIAN_POINT('',(1.242545685134,9.915211504583));
#215 = CARTESIAN_POINT('',(1.230285345867,9.721597115801));
#216 = CARTESIAN_POINT('',(1.216530411205,9.549162157944));
#217 = CARTESIAN_POINT('',(1.180355733227,9.198591140732));
#218 = CARTESIAN_POINT('',(1.157223801836,9.049053824078));
#219 = CARTESIAN_POINT('',(1.132580503536,8.961272369514));
#220 = CARTESIAN_POINT('',(1.107198931173,8.938461238499));
#221 = CARTESIAN_POINT('',(1.081909580464,8.979242651523));
#222 = CARTESIAN_POINT('',(1.057569649294,9.077804229974));
#223 = CARTESIAN_POINT('',(1.034995787523,9.223779845216));
#224 = CARTESIAN_POINT('',(0.991876637323,9.604394385755));
#225 = CARTESIAN_POINT('',(0.970997803046,9.857525697281));
#226 = CARTESIAN_POINT('',(0.952700752796,10.153290612266));
#227 = CARTESIAN_POINT('',(0.937439298792,10.483586832368));
#228 = CARTESIAN_POINT('',(0.925597912343,10.840609995101));
#229 = CARTESIAN_POINT('',(0.917484434438,11.217052588234));
#230 = CARTESIAN_POINT('',(0.913332770413,11.605950618775));
#231 = CARTESIAN_POINT('',(0.913332770413,12.));
#232 = ( GEOMETRIC_REPRESENTATION_CONTEXT(2) 
PARAMETRIC_REPRESENTATION_CONTEXT() REPRESENTATION_CONTEXT('2D SPACE',''
  ) );
#233 = PCURVE('',#234,#239);
#234 = CYLINDRICAL_SURFACE('',#235,3.);
#235 = AXIS2_PLACEMENT_3D('',#236,#237,#238);
#236 = CARTESIAN_POINT('',(12.,-19.,8.));
#237 = DIRECTION('',(0.,1.,0.));
#238 = DIRECTION('',(0.,-0.,1.));
#239 = DEFINITIONAL_REPRESENTATION('',(#240),#299);
#240 = B_SPLINE_CURVE_WITH_KNOTS('',8,(#241,#242,#243,#244,#245,#246,
    #247,#248,#249,#250,#251,#252,#253,#254,#255,#256,#257,#258,#259,
    #260,#261,#262,#263,#264,#265,#266,#267,#268,#269,#270,#271,#272,
    #273,#274,#275,#276,#277,#278,#279,#280,#281,#282,#283,#284,#285,
    #286,#287,#288,#289,#290,#291,#292,#293,#294,#295,#296,#297,#298),
  .UNSPECIFIED.,.F.,.F.,(9,7,7,7,7,7,7,7,9),(0.,0.121005511457,
    0.235616330435,0.327305259017,0.433162009414,0.547791729666,
    0.662259399064,0.820336498331,1.),.UNSPECIFIED.);
#241 = CARTESIAN_POINT('',(0.,4.752193151225));
#242 = CARTESIAN_POINT('',(9.209619280116E-02,4.752193151225));
#243 = CARTESIAN_POINT('',(0.183752303638,4.729741624667));
#244 = CARTESIAN_POINT('',(0.275162354521,4.685215586729));
#245 = CARTESIAN_POINT('',(0.366493105302,4.619655538969));
#246 = CARTESIAN_POINT('',(0.457875674656,4.534768362383));
#247 = CARTESIAN_POINT('',(0.549404300645,4.432852829807));
#248 = CARTESIAN_POINT('',(0.641130175068,4.316664658597));
#249 = CARTESIAN_POINT('',(0.820089393834,4.068545415564));
#250 = CARTESIAN_POINT('',(0.907949369542,3.936876153341));
#251 = CARTESIAN_POINT('',(0.996852925352,3.796210334642));
#252 = CARTESIAN_POINT('',(1.08703220184,3.648688401196));
#253 = CARTESIAN_POINT('',(1.178738732368,3.496545060555));
#254 = CARTESIAN_POINT('',(1.272251384755,3.342049192361));
#255 = CARTESIAN_POINT('',(1.367892765453,3.187446761493));
#256 = CARTESIAN_POINT('',(1.544623850866,2.912868994133));
#257 = CARTESIAN_POINT('',(1.623161328586,2.794695299745));
#258 = CARTESIAN_POINT('',(1.701693412892,2.6815350482));
#259 = CARTESIAN_POINT('',(1.780227223056,2.574290868818));
#260 = CARTESIAN_POINT('',(1.858768436056,2.473624266402));
#261 = CARTESIAN_POINT('',(1.937317515161,2.379975688838));
#262 = CARTESIAN_POINT('',(2.015866320612,2.29359604435));
#263 = CARTESIAN_POINT('',(2.185058193136,2.123375185397));
#264 = CARTESIAN_POINT('',(2.273853052286,2.04384154596));
#265 = CARTESIAN_POINT('',(2.360992614515,1.975203902121));
#266 = CARTESIAN_POINT('',(2.446618314203,1.916614645044));
#267 = CARTESIAN_POINT('',(2.530817676241,1.867244295363));
#268 = CARTESIAN_POINT('',(2.613634041149,1.826331194006));
#269 = CARTESIAN_POINT('',(2.695068424503,1.793199993506));
#270 = CARTESIAN_POINT('',(2.861709087634,1.739147190932));
#271 = CARTESIAN_POINT('',(2.947161147697,1.719305583461));
#272 = CARTESIAN_POINT('',(3.031824819476,1.706969491025));
#273 = CARTESIAN_POINT('',(3.116062355913,1.701691022575));
#274 = CARTESIAN_POINT('',(3.200219709688,1.703292000605));
#275 = CARTESIAN_POINT('',(3.284642327823,1.711850500103));
#276 = CARTESIAN_POINT('',(3.369690165481,1.727710958268));
#277 = CARTESIAN_POINT('',(3.541692007803,1.775291096104));
#278 = CARTESIAN_POINT('',(3.629164390172,1.807132441961));
#279 = CARTESIAN_POINT('',(3.718149547527,1.847733088277));
#280 = CARTESIAN_POINT('',(3.808676279903,1.897901965151));
#281 = CARTESIAN_POINT('',(3.900829312941,1.958586404431));
#282 = CARTESIAN_POINT('',(3.994747069368,2.0308548966));
#283 = CARTESIAN_POINT('',(4.090631291921,2.115833775391));
#284 = CARTESIAN_POINT('',(4.324345303396,2.350969182248));
#285 = CARTESIAN_POINT('',(4.460410957239,2.50977147364));
#286 = CARTESIAN_POINT('',(4.595950046053,2.689781714308));
#287 = CARTESIAN_POINT('',(4.7302518897,2.88781520355));
#288 = CARTESIAN_POINT('',(4.86255871588,3.098129389851));
#289 = CARTESIAN_POINT('',(4.991988888226,3.312055063014));
#290 = CARTESIAN_POINT('',(5.117225127029,3.519389822713));
#291 = CARTESIAN_POINT('',(5.370968154055,3.929021749621));
#292 = CARTESIAN_POINT('',(5.503656747305,4.136563057431));
#293 = CARTESIAN_POINT('',(5.63459213629,4.325711515261));
#294 = CARTESIAN_POINT('',(5.764278125791,4.488392307319));
#295 = CARTESIAN_POINT('',(5.893269892424,4.617279353558));
#296 = CARTESIAN_POINT('',(6.022202576959,4.706524015731));
#297 = CARTESIAN_POINT('',(6.151835513438,4.752193151225));
#298 = CARTESIAN_POINT('',(6.28318530718,4.752193151225));
#299 = ( GEOMETRIC_REPRESENTATION_CONTEXT(2) 
PARAMETRIC_REPRESENTATION_CONTEXT() REPRESENTATION_CONTEXT('2D SPACE',''
  ) );
#300 = FACE_BOUND('',#301,.T.);
#301 = EDGE_LOOP('',(#302));
#302 = ORIENTED_EDGE('',*,*,#303,.F.);
#303 = EDGE_CURVE('',#304,#304,#306,.T.);
#304 = VERTEX_POINT('',#305);
#305 = CARTESIAN_POINT('',(12.,14.247806848775,11.));
#306 = SURFACE_CURVE('',#307,(#366,#428),.PCURVE_S1.);
#307 = B_SPLINE_CURVE_WITH_KNOTS('',8,(#308,#309,#310,#311,#312,#313,
    #314,#315,#316,#317,#318,#319,#320,#321,#322,#323,#324,#325,#326,
    #327,#328,#329,#330,#331,#332,#333,#334,#335,#336,#337,#338,#339,
    #340,#341,#342,#343,#344,#345,#346,#347,#348,#349,#350,#351,#352,
    #353,#354,#355,#356,#357,#358,#359,#360,#361,#362,#363,#364,#365),
  .UNSPECIFIED.,.T.,.F.,(9,7,7,7,7,7,7,7,9),(0.,0.121005510924,
    0.235616327327,0.32730525221,0.433162001236,0.547791723054,
    0.662259394084,0.820336495682,1.),.UNSPECIFIED.);
#308 = CARTESIAN_POINT('',(12.,14.247806848775,11.));
#309 = CARTESIAN_POINT('',(12.276288578404,14.247806848775,11.));
#310 = CARTESIAN_POINT('',(12.551256823866,14.270258375334,
    10.970919711795));
#311 = CARTESIAN_POINT('',(12.821916397157,14.314784413271,
    10.913246417151));
#312 = CARTESIAN_POINT('',(13.085338950852,14.380344461032,
    10.827643626354));
#313 = CARTESIAN_POINT('',(13.338570166767,14.465231637617,
    10.71500073169));
#314 = CARTESIAN_POINT('',(13.578612729504,14.567147170193,
    10.576537164728));
#315 = CARTESIAN_POINT('',(13.802488708263,14.683335341403,
    10.413930066098));
#316 = CARTESIAN_POINT('',(14.201466556952,14.931454582256,
    10.054688797554));
#317 = CARTESIAN_POINT('',(14.379960033695,15.063123850291,
    9.859011429572));
#318 = CARTESIAN_POINT('',(14.540587111026,15.203789665825,
    9.643321373733));
#319 = CARTESIAN_POINT('',(14.680900310765,15.351311594864,9.40871241657
    ));
#320 = CARTESIAN_POINT('',(14.798279405969,15.50345493897,9.156523032832
    ));
#321 = CARTESIAN_POINT('',(14.889914665443,15.65795081244,8.8884204977)
  );
#322 = CARTESIAN_POINT('',(14.952776678408,15.812553235781,
    8.606523230213));
#323 = CARTESIAN_POINT('',(15.008196965268,16.087131005867,
    8.079234422873));
#324 = CARTESIAN_POINT('',(15.011787653424,16.205304700255,
    7.842701290383));
#325 = CARTESIAN_POINT('',(14.994117773275,16.3184649518,7.606178443635)
  );
#326 = CARTESIAN_POINT('',(14.955236097499,16.425709131182,
    7.371872437343));
#327 = CARTESIAN_POINT('',(14.89546076926,16.526375733598,7.141982727195
    ));
#328 = CARTESIAN_POINT('',(14.815382362787,16.620024311162,
    6.918671389063));
#329 = CARTESIAN_POINT('',(14.715869384025,16.70640395565,6.704023759853
    ));
#330 = CARTESIAN_POINT('',(14.462081571516,16.876624817101,
    6.264450374245));
#331 = CARTESIAN_POINT('',(14.304483674454,16.956158450854,6.04784667096
    ));
#332 = CARTESIAN_POINT('',(14.128422722377,17.024796097061,
    5.851564754841));
#333 = CARTESIAN_POINT('',(13.936918542466,17.083385357526,
    5.676637876022));
#334 = CARTESIAN_POINT('',(13.73293135635,17.13275570546,5.523766045013)
  );
#335 = CARTESIAN_POINT('',(13.519388542287,17.173668803677,
    5.393310389677));
#336 = CARTESIAN_POINT('',(13.29917739007,17.206800007184,5.285272494268
    ));
#337 = CARTESIAN_POINT('',(12.832460011962,17.260852809068,
    5.106116478286));
#338 = CARTESIAN_POINT('',(12.583910432919,17.280694416539,
    5.038271617499));
#339 = CARTESIAN_POINT('',(12.331556553787,17.293030508975,
    4.995214338778));
#340 = CARTESIAN_POINT('',(12.077198838059,17.298308977425,
    4.976604270535));
#341 = CARTESIAN_POINT('',(11.822475208716,17.296707999395,
    4.982296731307));
#342 = CARTESIAN_POINT('',(11.5689991955,17.288149499897,5.012354746271)
  );
#343 = CARTESIAN_POINT('',(11.318497791192,17.272289041732,
    5.067046817953));
#344 = CARTESIAN_POINT('',(10.827747372184,17.224708903882,
    5.226501295023));
#345 = CARTESIAN_POINT('',(10.585998504511,17.192867558027,
    5.331675546762));
#346 = CARTESIAN_POINT('',(10.351008254927,17.15226691173,5.462942249114
    ));
#347 = CARTESIAN_POINT('',(10.126229037172,17.102098034876,5.62042463399
    ));
#348 = CARTESIAN_POINT('',(9.915211504613,17.041413595593,5.803812324957
    ));
#349 = CARTESIAN_POINT('',(9.721597115742,16.969145103391,6.012378631351
    ));
#350 = CARTESIAN_POINT('',(9.549162157872,16.88416622456,6.244975663678)
  );
#351 = CARTESIAN_POINT('',(9.198591140732,16.649030817752,6.852182477026
    ));
#352 = CARTESIAN_POINT('',(9.049053824078,16.490228526361,7.237191694053
    ));
#353 = CARTESIAN_POINT('',(8.961272369513,16.310218285692,7.642886991097
    ));
#354 = CARTESIAN_POINT('',(8.938461238499,16.11218479645,8.055085601024)
  );
#355 = CARTESIAN_POINT('',(8.979242651524,15.901870610149,8.459279524711
    ));
#356 = CARTESIAN_POINT('',(9.077804229973,15.687944936986,8.84189381817)
  );
#357 = CARTESIAN_POINT('',(9.223779845217,15.480610177287,9.191445638919
    ));
#358 = CARTESIAN_POINT('',(9.604394385755,15.070978250379,9.850689361231
    ));
#359 = CARTESIAN_POINT('',(9.857525697281,14.863436942569,
    10.164191392634));
#360 = CARTESIAN_POINT('',(10.153290612266,14.674288484739,
    10.434020980264));
#361 = CARTESIAN_POINT('',(10.483586832367,14.511607692681,
    10.655476923164));
#362 = CARTESIAN_POINT('',(10.840609995101,14.382720646442,
    10.825246607875));
#363 = CARTESIAN_POINT('',(11.217052588234,14.293475984269,
    10.940848436087));
#364 = CARTESIAN_POINT('',(11.605950618775,14.247806848775,11.));
#365 = CARTESIAN_POINT('',(12.,14.247806848775,11.));
#366 = PCURVE('',#32,#367);
#367 = DEFINITIONAL_REPRESENTATION('',(#368),#427);
#368 = B_SPLINE_CURVE_WITH_KNOTS('',8,(#369,#370,#371,#372,#373,#374,
    #375,#376,#377,#378,#379,#380,#381,#382,#383,#384,#385,#386,#387,
    #388,#389,#390,#391,#392,#393,#394,#395,#396,#397,#398,#399,#400,
    #401,#402,#403,#404,#405,#406,#407,#408,#409,#410,#411,#412,#413,
    #414,#415,#416,#417,#418,#419,#420,#421,#422,#423,#424,#425,#426),
  .UNSPECIFIED.,.T.,.F.,(9,7,7,7,7,7,7,7,9),(0.,0.121005510924,
    0.235616327327,0.32730525221,0.433162001236,0.547791723054,
    0.662259394084,0.820336495682,1.),.UNSPECIFIED.);
#369 = CARTESIAN_POINT('',(5.369852536766,12.));
#370 = CARTESIAN_POINT('',(5.369852536766,12.276288578404));
#371 = CARTESIAN_POINT('',(5.367811494392,12.551256823866));
#372 = CARTESIAN_POINT('',(5.363763649979,12.821916397157));
#373 = CARTESIAN_POINT('',(5.357773469077,13.085338950852));
#374 = CARTESIAN_POINT('',(5.349938085341,13.338570166767));
#375 = CARTESIAN_POINT('',(5.340387946584,13.578612729504));
#376 = CARTESIAN_POINT('',(5.329286483903,13.802488708263));
#377 = CARTESIAN_POINT('',(5.305031062802,14.201466556952));
#378 = CARTESIAN_POINT('',(5.291929108858,14.379960033695));
#379 = CARTESIAN_POINT('',(5.277625785729,14.540587111026));
#380 = CARTESIAN_POINT('',(5.262233846067,14.680900310765));
#381 = CARTESIAN_POINT('',(5.245877213838,14.798279405969));
#382 = CARTESIAN_POINT('',(5.228692809228,14.889914665443));
#383 = CARTESIAN_POINT('',(5.210835347781,14.952776678408));
#384 = CARTESIAN_POINT('',(5.17780774811,15.008196965268));
#385 = CARTESIAN_POINT('',(5.163120330149,15.011787653424));
#386 = CARTESIAN_POINT('',(5.148557264644,14.994117773275));
#387 = CARTESIAN_POINT('',(5.134245541231,14.955236097499));
#388 = CARTESIAN_POINT('',(5.120306604919,14.89546076926));
#389 = CARTESIAN_POINT('',(5.106856079755,14.815382362787));
#390 = CARTESIAN_POINT('',(5.094002937353,14.715869384025));
#391 = CARTESIAN_POINT('',(5.067815112514,14.462081571516));
#392 = CARTESIAN_POINT('',(5.054997993351,14.304483674454));
#393 = CARTESIAN_POINT('',(5.04344801622,14.128422722377));
#394 = CARTESIAN_POINT('',(5.033200666102,13.936918542466));
#395 = CARTESIAN_POINT('',(5.024276577424,13.73293135635));
#396 = CARTESIAN_POINT('',(5.016681213767,13.519388542287));
#397 = CARTESIAN_POINT('',(5.01040329941,13.29917739007));
#398 = CARTESIAN_POINT('',(5.000007047793,12.832460011962));
#399 = CARTESIAN_POINT('',(4.99608014689,12.583910432919));
#400 = CARTESIAN_POINT('',(4.993591845706,12.331556553787));
#401 = CARTESIAN_POINT('',(4.992517139227,12.077198838059));
#402 = CARTESIAN_POINT('',(4.99284567488,11.822475208716));
#403 = CARTESIAN_POINT('',(4.994581947449,11.5689991955));
#404 = CARTESIAN_POINT('',(4.997745485723,11.318497791192));
#405 = CARTESIAN_POINT('',(5.006990036967,10.827747372184));
#406 = CARTESIAN_POINT('',(5.013094909746,10.585998504511));
#407 = CARTESIAN_POINT('',(5.020728126741,10.351008254927));
#408 = CARTESIAN_POINT('',(5.029909683779,10.126229037172));
#409 = CARTESIAN_POINT('',(5.040639622042,9.915211504613));
#410 = CARTESIAN_POINT('',(5.052899961315,9.721597115742));
#411 = CARTESIAN_POINT('',(5.066654895982,9.549162157872));
#412 = CARTESIAN_POINT('',(5.102829573953,9.198591140732));
#413 = CARTESIAN_POINT('',(5.125961505344,9.049053824078));
#414 = CARTESIAN_POINT('',(5.150604803643,8.961272369513));
#415 = CARTESIAN_POINT('',(5.175986376006,8.938461238499));
#416 = CARTESIAN_POINT('',(5.201275726716,8.979242651524));
#417 = CARTESIAN_POINT('',(5.225615657886,9.077804229973));
#418 = CARTESIAN_POINT('',(5.248189519656,9.223779845217));
#419 = CARTESIAN_POINT('',(5.291308669857,9.604394385755));
#420 = CARTESIAN_POINT('',(5.312187504134,9.857525697281));
#421 = CARTESIAN_POINT('',(5.330484554383,10.153290612266));
#422 = CARTESIAN_POINT('',(5.345746008387,10.483586832367));
#423 = CARTESIAN_POINT('',(5.357587394837,10.840609995101));
#424 = CARTESIAN_POINT('',(5.365700872742,11.217052588234));
#425 = CARTESIAN_POINT('',(5.369852536766,11.605950618775));
#426 = CARTESIAN_POINT('',(5.369852536766,12.));
#427 = ( GEOMETRIC_REPRESENTATION_CONTEXT(2) 
PARAMETRIC_REPRESENTATION_CONTEXT() REPRESENTATION_CONTEXT('2D SPACE',''
  ) );
#428 = PCURVE('',#234,#429);
#429 = DEFINITIONAL_REPRESENTATION('',(#430),#489);
#430 = B_SPLINE_CURVE_WITH_KNOTS('',8,(#431,#432,#433,#434,#435,#436,
    #437,#438,#439,#440,#441,#442,#443,#444,#445,#446,#447,#448,#449,
    #450,#451,#452,#453,#454,#455,#456,#457,#458,#459,#460,#461,#462,
    #463,#464,#465,#466,#467,#468,#469,#470,#471,#472,#473,#474,#475,
    #476,#477,#478,#479,#480,#481,#482,#483,#484,#485,#486,#487,#488),
  .UNSPECIFIED.,.F.,.F.,(9,7,7,7,7,7,7,7,9),(0.,0.121005510924,
    0.235616327327,0.32730525221,0.433162001236,0.547791723054,
    0.662259394084,0.820336495682,1.),.UNSPECIFIED.);
#431 = CARTESIAN_POINT('',(0.,33.247806848775));
#432 = CARTESIAN_POINT('',(9.209619280144E-02,33.247806848775));
#433 = CARTESIAN_POINT('',(0.183752303637,33.270258375334));
#434 = CARTESIAN_POINT('',(0.275162354521,33.314784413271));
#435 = CARTESIAN_POINT('',(0.366493105302,33.380344461031));
#436 = CARTESIAN_POINT('',(0.457875674656,33.465231637617));
#437 = CARTESIAN_POINT('',(0.549404300645,33.567147170193));
#438 = CARTESIAN_POINT('',(0.641130175068,33.683335341403));
#439 = CARTESIAN_POINT('',(0.820089392262,33.931454582256));
#440 = CARTESIAN_POINT('',(0.907949372167,34.063123850291));
#441 = CARTESIAN_POINT('',(0.9968529255,34.203789665825));
#442 = CARTESIAN_POINT('',(1.087032199224,34.351311594864));
#443 = CARTESIAN_POINT('',(1.178738732237,34.50345493897));
#444 = CARTESIAN_POINT('',(1.272251387752,34.65795081244));
#445 = CARTESIAN_POINT('',(1.367892763699,34.812553235781));
#446 = CARTESIAN_POINT('',(1.544623850866,35.087131005867));
#447 = CARTESIAN_POINT('',(1.623161328586,35.205304700255));
#448 = CARTESIAN_POINT('',(1.701693412892,35.3184649518));
#449 = CARTESIAN_POINT('',(1.780227223056,35.425709131182));
#450 = CARTESIAN_POINT('',(1.858768436056,35.526375733598));
#451 = CARTESIAN_POINT('',(1.937317515161,35.620024311162));
#452 = CARTESIAN_POINT('',(2.015866320612,35.70640395565));
#453 = CARTESIAN_POINT('',(2.185058195618,35.876624817101));
#454 = CARTESIAN_POINT('',(2.273853048181,35.956158450854));
#455 = CARTESIAN_POINT('',(2.360992614363,36.024796097061));
#456 = CARTESIAN_POINT('',(2.446618317962,36.083385357526));
#457 = CARTESIAN_POINT('',(2.530817676418,36.13275570546));
#458 = CARTESIAN_POINT('',(2.613634037223,36.173668803677));
#459 = CARTESIAN_POINT('',(2.695068426633,36.206800007184));
#460 = CARTESIAN_POINT('',(2.861709087634,36.260852809068));
#461 = CARTESIAN_POINT('',(2.947161147697,36.280694416539));
#462 = CARTESIAN_POINT('',(3.031824819476,36.293030508975));
#463 = CARTESIAN_POINT('',(3.116062355913,36.298308977425));
#464 = CARTESIAN_POINT('',(3.200219709688,36.296707999395));
#465 = CARTESIAN_POINT('',(3.284642327823,36.288149499897));
#466 = CARTESIAN_POINT('',(3.369690165481,36.272289041732));
#467 = CARTESIAN_POINT('',(3.541692007853,36.224708903882));
#468 = CARTESIAN_POINT('',(3.629164390186,36.192867558027));
#469 = CARTESIAN_POINT('',(3.718149547498,36.15226691173));
#470 = CARTESIAN_POINT('',(3.808676279859,36.102098034876));
#471 = CARTESIAN_POINT('',(3.90082931292,36.041413595593));
#472 = CARTESIAN_POINT('',(3.994747069389,35.969145103391));
#473 = CARTESIAN_POINT('',(4.090631291969,35.88416622456));
#474 = CARTESIAN_POINT('',(4.324345303396,35.649030817752));
#475 = CARTESIAN_POINT('',(4.460410957238,35.490228526361));
#476 = CARTESIAN_POINT('',(4.595950046054,35.310218285691));
#477 = CARTESIAN_POINT('',(4.730251889699,35.112184796451));
#478 = CARTESIAN_POINT('',(4.862558715882,34.901870610148));
#479 = CARTESIAN_POINT('',(4.991988888225,34.687944936987));
#480 = CARTESIAN_POINT('',(5.11722512703,34.480610177287));
#481 = CARTESIAN_POINT('',(5.370968154055,34.070978250379));
#482 = CARTESIAN_POINT('',(5.503656747306,33.863436942569));
#483 = CARTESIAN_POINT('',(5.63459213629,33.674288484739));
#484 = CARTESIAN_POINT('',(5.764278125791,33.511607692681));
#485 = CARTESIAN_POINT('',(5.893269892424,33.382720646442));
#486 = CARTESIAN_POINT('',(6.022202576959,33.293475984269));
#487 = CARTESIAN_POINT('',(6.151835513438,33.247806848775));
#488 = CARTESIAN_POINT('',(6.28318530718,33.247806848775));
#489 = ( GEOMETRIC_REPRESENTATION_CONTEXT(2) 
PARAMETRIC_REPRESENTATION_CONTEXT() REPRESENTATION_CONTEXT('2D SPACE',''
  ) );
#490 = ADVANCED_FACE('',(#491,#494),#94,.F.);
#491 = FACE_BOUND('',#492,.F.);
#492 = EDGE_LOOP('',(#493));
#493 = ORIENTED_EDGE('',*,*,#79,.T.);
#494 = FACE_BOUND('',#495,.F.);
#495 = EDGE_LOOP('',(#496));
#496 = ORIENTED_EDGE('',*,*,#497,.F.);
#497 = EDGE_CURVE('',#498,#498,#500,.T.);
#498 = VERTEX_POINT('',#499);
#499 = CARTESIAN_POINT('',(0.,1.886721474936E-15,7.703125));
#500 = SURFACE_CURVE('',#501,(#506,#513),.PCURVE_S1.);
#501 = CIRCLE('',#502,7.703125);
#502 = AXIS2_PLACEMENT_3D('',#503,#504,#505);
#503 = CARTESIAN_POINT('',(0.,0.,0.));
#504 = DIRECTION('',(1.,0.,0.));
#505 = DIRECTION('',(-0.,0.,1.));
#506 = PCURVE('',#94,#507);
#507 = DEFINITIONAL_REPRESENTATION('',(#508),#512);
#508 = CIRCLE('',#509,7.703125);
#509 = AXIS2_PLACEMENT_2D('',#510,#511);
#510 = CARTESIAN_POINT('',(0.,0.));
#511 = DIRECTION('',(1.,0.));
#512 = ( GEOMETRIC_REPRESENTATION_CONTEXT(2) 
PARAMETRIC_REPRESENTATION_CONTEXT() REPRESENTATION_CONTEXT('2D SPACE',''
  ) );
#513 = PCURVE('',#514,#519);
#514 = CONICAL_SURFACE('',#515,8.15,0.420252136765);
#515 = AXIS2_PLACEMENT_3D('',#516,#517,#518);
#516 = CARTESIAN_POINT('',(-1.,0.,0.));
#517 = DIRECTION('',(-1.,-0.,-0.));
#518 = DIRECTION('',(-0.,0.,1.));
#519 = DEFINITIONAL_REPRESENTATION('',(#520),#524);
#520 = LINE('',#521,#522);
#521 = CARTESIAN_POINT('',(-0.,-1.));
#522 = VECTOR('',#523,1.);
#523 = DIRECTION('',(-1.,-0.));
#524 = ( GEOMETRIC_REPRESENTATION_CONTEXT(2) 
PARAMETRIC_REPRESENTATION_CONTEXT() REPRESENTATION_CONTEXT('2D SPACE',''
  ) );
#525 = ADVANCED_FACE('',(#526,#529),#66,.T.);
#526 = FACE_BOUND('',#527,.T.);
#527 = EDGE_LOOP('',(#528));
#528 = ORIENTED_EDGE('',*,*,#51,.T.);
#529 = FACE_BOUND('',#530,.T.);
#530 = EDGE_LOOP('',(#531));
#531 = ORIENTED_EDGE('',*,*,#532,.F.);
#532 = EDGE_CURVE('',#533,#533,#535,.T.);
#533 = VERTEX_POINT('',#534);
#534 = CARTESIAN_POINT('',(20.,2.449293598295E-16,1.));
#535 = SURFACE_CURVE('',#536,(#541,#548),.PCURVE_S1.);
#536 = CIRCLE('',#537,1.);
#537 = AXIS2_PLACEMENT_3D('',#538,#539,#540);
#538 = CARTESIAN_POINT('',(20.,0.,0.));
#539 = DIRECTION('',(1.,0.,0.));
#540 = DIRECTION('',(-0.,0.,1.));
#541 = PCURVE('',#66,#542);
#542 = DEFINITIONAL_REPRESENTATION('',(#543),#547);
#543 = CIRCLE('',#544,1.);
#544 = AXIS2_PLACEMENT_2D('',#545,#546);
#545 = CARTESIAN_POINT('',(0.,0.));
#546 = DIRECTION('',(1.,0.));
#547 = ( GEOMETRIC_REPRESENTATION_CONTEXT(2) 
PARAMETRIC_REPRESENTATION_CONTEXT() REPRESENTATION_CONTEXT('2D SPACE',''
  ) );
#548 = PCURVE('',#549,#554);
#549 = CYLINDRICAL_SURFACE('',#550,1.);
#550 = AXIS2_PLACEMENT_3D('',#551,#552,#553);
#551 = CARTESIAN_POINT('',(-1.,0.,0.));
#552 = DIRECTION('',(1.,0.,0.));
#553 = DIRECTION('',(-0.,0.,1.));
#554 = DEFINITIONAL_REPRESENTATION('',(#555),#559);
#555 = LINE('',#556,#557);
#556 = CARTESIAN_POINT('',(0.,21.));
#557 = VECTOR('',#558,1.);
#558 = DIRECTION('',(1.,0.));
#559 = ( GEOMETRIC_REPRESENTATION_CONTEXT(2) 
PARAMETRIC_REPRESENTATION_CONTEXT() REPRESENTATION_CONTEXT('2D SPACE',''
  ) );
#560 = ADVANCED_FACE('',(#561),#234,.F.);
#561 = FACE_BOUND('',#562,.F.);
#562 = EDGE_LOOP('',(#563,#564,#585,#586));
#563 = ORIENTED_EDGE('',*,*,#303,.F.);
#564 = ORIENTED_EDGE('',*,*,#565,.F.);
#565 = EDGE_CURVE('',#109,#304,#566,.T.);
#566 = SEAM_CURVE('',#567,(#571,#578),.PCURVE_S1.);
#567 = LINE('',#568,#569);
#568 = CARTESIAN_POINT('',(12.,-19.,11.));
#569 = VECTOR('',#570,1.);
#570 = DIRECTION('',(0.,1.,0.));
#571 = PCURVE('',#234,#572);
#572 = DEFINITIONAL_REPRESENTATION('',(#573),#577);
#573 = LINE('',#574,#575);
#574 = CARTESIAN_POINT('',(6.28318530718,-0.));
#575 = VECTOR('',#576,1.);
#576 = DIRECTION('',(0.,1.));
#577 = ( GEOMETRIC_REPRESENTATION_CONTEXT(2) 
PARAMETRIC_REPRESENTATION_CONTEXT() REPRESENTATION_CONTEXT('2D SPACE',''
  ) );
#578 = PCURVE('',#234,#579);
#579 = DEFINITIONAL_REPRESENTATION('',(#580),#584);
#580 = LINE('',#581,#582);
#581 = CARTESIAN_POINT('',(0.,-0.));
#582 = VECTOR('',#583,1.);
#583 = DIRECTION('',(0.,1.));
#584 = ( GEOMETRIC_REPRESENTATION_CONTEXT(2) 
PARAMETRIC_REPRESENTATION_CONTEXT() REPRESENTATION_CONTEXT('2D SPACE',''
  ) );
#585 = ORIENTED_EDGE('',*,*,#108,.T.);
#586 = ORIENTED_EDGE('',*,*,#565,.T.);
#587 = ADVANCED_FACE('',(#588),#514,.F.);
#588 = FACE_BOUND('',#589,.F.);
#589 = EDGE_LOOP('',(#590,#613,#635,#636));
#590 = ORIENTED_EDGE('',*,*,#591,.T.);
#591 = EDGE_CURVE('',#498,#592,#594,.T.);
#592 = VERTEX_POINT('',#593);
#593 = CARTESIAN_POINT('',(15.,2.449293598295E-16,1.));
#594 = SEAM_CURVE('',#595,(#599,#606),.PCURVE_S1.);
#595 = LINE('',#596,#597);
#596 = CARTESIAN_POINT('',(-1.,1.99617428261E-15,8.15));
#597 = VECTOR('',#598,1.);
#598 = DIRECTION('',(0.912986099888,-9.992889199989E-17,-0.407990663387)
  );
#599 = PCURVE('',#514,#600);
#600 = DEFINITIONAL_REPRESENTATION('',(#601),#605);
#601 = LINE('',#602,#603);
#602 = CARTESIAN_POINT('',(-6.28318530718,0.));
#603 = VECTOR('',#604,1.);
#604 = DIRECTION('',(-0.,-1.));
#605 = ( GEOMETRIC_REPRESENTATION_CONTEXT(2) 
PARAMETRIC_REPRESENTATION_CONTEXT() REPRESENTATION_CONTEXT('2D SPACE',''
  ) );
#606 = PCURVE('',#514,#607);
#607 = DEFINITIONAL_REPRESENTATION('',(#608),#612);
#608 = LINE('',#609,#610);
#609 = CARTESIAN_POINT('',(0.,-0.));
#610 = VECTOR('',#611,1.);
#611 = DIRECTION('',(-0.,-1.));
#612 = ( GEOMETRIC_REPRESENTATION_CONTEXT(2) 
PARAMETRIC_REPRESENTATION_CONTEXT() REPRESENTATION_CONTEXT('2D SPACE',''
  ) );
#613 = ORIENTED_EDGE('',*,*,#614,.F.);
#614 = EDGE_CURVE('',#592,#592,#615,.T.);
#615 = SURFACE_CURVE('',#616,(#621,#628),.PCURVE_S1.);
#616 = CIRCLE('',#617,1.);
#617 = AXIS2_PLACEMENT_3D('',#618,#619,#620);
#618 = CARTESIAN_POINT('',(15.,0.,0.));
#619 = DIRECTION('',(1.,0.,0.));
#620 = DIRECTION('',(-0.,0.,1.));
#621 = PCURVE('',#514,#622);
#622 = DEFINITIONAL_REPRESENTATION('',(#623),#627);
#623 = LINE('',#624,#625);
#624 = CARTESIAN_POINT('',(-0.,-16.));
#625 = VECTOR('',#626,1.);
#626 = DIRECTION('',(-1.,-0.));
#627 = ( GEOMETRIC_REPRESENTATION_CONTEXT(2) 
PARAMETRIC_REPRESENTATION_CONTEXT() REPRESENTATION_CONTEXT('2D SPACE',''
  ) );
#628 = PCURVE('',#549,#629);
#629 = DEFINITIONAL_REPRESENTATION('',(#630),#634);
#630 = LINE('',#631,#632);
#631 = CARTESIAN_POINT('',(0.,16.));
#632 = VECTOR('',#633,1.);
#633 = DIRECTION('',(1.,0.));
#634 = ( GEOMETRIC_REPRESENTATION_CONTEXT(2) 
PARAMETRIC_REPRESENTATION_CONTEXT() REPRESENTATION_CONTEXT('2D SPACE',''
  ) );
#635 = ORIENTED_EDGE('',*,*,#591,.F.);
#636 = ORIENTED_EDGE('',*,*,#497,.T.);
#637 = ADVANCED_FACE('',(#638),#549,.F.);
#638 = FACE_BOUND('',#639,.F.);
#639 = EDGE_LOOP('',(#640,#641,#662,#663));
#640 = ORIENTED_EDGE('',*,*,#532,.F.);
#641 = ORIENTED_EDGE('',*,*,#642,.F.);
#642 = EDGE_CURVE('',#592,#533,#643,.T.);
#643 = SEAM_CURVE('',#644,(#648,#655),.PCURVE_S1.);
#644 = LINE('',#645,#646);
#645 = CARTESIAN_POINT('',(-1.,2.449293598295E-16,1.));
#646 = VECTOR('',#647,1.);
#647 = DIRECTION('',(1.,0.,0.));
#648 = PCURVE('',#549,#649);
#649 = DEFINITIONAL_REPRESENTATION('',(#650),#654);
#650 = LINE('',#651,#652);
#651 = CARTESIAN_POINT('',(6.28318530718,-0.));
#652 = VECTOR('',#653,1.);
#653 = DIRECTION('',(0.,1.));
#654 = ( GEOMETRIC_REPRESENTATION_CONTEXT(2) 
PARAMETRIC_REPRESENTATION_CONTEXT() REPRESENTATION_CONTEXT('2D SPACE',''
  ) );
#655 = PCURVE('',#549,#656);
#656 = DEFINITIONAL_REPRESENTATION('',(#657),#661);
#657 = LINE('',#658,#659);
#658 = CARTESIAN_POINT('',(0.,-0.));
#659 = VECTOR('',#660,1.);
#660 = DIRECTION('',(0.,1.));
#661 = ( GEOMETRIC_REPRESENTATION_CONTEXT(2) 
PARAMETRIC_REPRESENTATION_CONTEXT() REPRESENTATION_CONTEXT('2D SPACE',''
  ) );
#662 = ORIENTED_EDGE('',*,*,#614,.T.);
#663 = ORIENTED_EDGE('',*,*,#642,.T.);
#664 = ( GEOMETRIC_REPRESENTATION_CONTEXT(3) 
GLOBAL_UNCERTAINTY_ASSIGNED_CONTEXT((#668)) GLOBAL_UNIT_ASSIGNED_CONTEXT
((#665,#666,#667)) REPRESENTATION_CONTEXT('Context #1',
  '3D Context with UNIT and UNCERTAINTY') );
#665 = ( LENGTH_UNIT() NAMED_UNIT(*) SI_UNIT(.MILLI.,.METRE.) );
#666 = ( NAMED_UNIT(*) PLANE_ANGLE_UNIT() SI_UNIT($,.RADIAN.) );
#667 = ( NAMED_UNIT(*) SI_UNIT($,.STERADIAN.) SOLID_ANGLE_UNIT() );
#668 = UNCERTAINTY_MEASURE_WITH_UNIT(LENGTH_MEASURE(1.E-07),#665,
  'distance_accuracy_value','confusion accuracy');
#669 = PRODUCT_RELATED_PRODUCT_CATEGORY('part',$,(#7));
ENDSEC;
END-ISO-10303-21;
