ISO-10303-21;
HEADER;
FILE_DESCRIPTION(('Open CASCADE Model'),'2;1');
FILE_NAME('Open CASCADE Shape Model','2026-09-25T00:44:20',('Author'),(
    'Open CASCADE'),'Open CASCADE STEP processor 7.9','Open CASCADE 7.9'
  ,'Unknown');
FILE_SCHEMA(('AUTOMOTIVE_DESIGN { 1 0 10303 214 1 1 1 1 }'));
ENDSEC;
DATA;
#1 = APPLICATION_PROTOCOL_DEFINITION('international standard',
  'automotive_design',2000,#2);
#2 = APPLICATION_CONTEXT(
  'core data for automotive mechanical design processes');
#3 = SHAPE_DEFINITION_REPRESENTATION(#4,#10);
#4 = PRODUCT_DEFINITION_SHAPE('','',#5);
#5 = PRODUCT_DEFINITION('design','',#6,#9);
#6 = PRODUCT_DEFINITION_FORMATION('','',#7);
#7 = PRODUCT('Open CASCADE STEP translator 7.9 83',
  'Open CASCADE STEP translator 7.9 83','',(#8));
#8 = PRODUCT_CONTEXT('',#2,'mechanical');
#9 = PRODUCT_DEFINITION_CONTEXT('part definition',#2,'design');
#10 = ADVANCED_BREP_SHAPE_REPRESENTATION('',(#11,#15),#1725);
#11 = AXIS2_PLACEMENT_3D('',#12,#13,#14);
#12 = CARTESIAN_POINT('',(0.,0.,0.));
#13 = DIRECTION('',(0.,0.,1.));
#14 = DIRECTION('',(1.,0.,-0.));
#15 = MANIFOLD_SOLID_BREP('',#16);
#16 = CLOSED_SHELL('',(#17,#251,#324,#488,#577,#791,#1005,#1032,#1099,
    #1460,#1556,#1652,#1685,#1712));
#17 = ADVANCED_FACE('',(#18),#32,.F.);
#18 = FACE_BOUND('',#19,.F.);
#19 = EDGE_LOOP('',(#20,#55,#83,#111,#140,#168,#196,#224));
#20 = ORIENTED_EDGE('',*,*,#21,.F.);
#21 = EDGE_CURVE('',#22,#24,#26,.T.);
#22 = VERTEX_POINT('',#23);
#23 = CARTESIAN_POINT('',(-26.56946468906,-24.,-20.2));
#24 = VERTEX_POINT('',#25);
#25 = CARTESIAN_POINT('',(-26.56946468906,-15.09867543859,-20.2));
#26 = SURFACE_CURVE('',#27,(#31,#43),.PCURVE_S1.);
#27 = LINE('',#28,#29);
#28 = CARTESIAN_POINT('',(-26.56946468906,-24.,-20.2));
#29 = VECTOR('',#30,1.);
#30 = DIRECTION('',(0.,1.,0.));
#31 = PCURVE('',#32,#37);
#32 = PLANE('',#33);
#33 = AXIS2_PLACEMENT_3D('',#34,#35,#36);
#34 = CARTESIAN_POINT('',(-26.56946468906,0.,-20.));
#35 = DIRECTION('',(1.,0.,0.));
#36 = DIRECTION('',(-0.,0.,1.));
#37 = DEFINITIONAL_REPRESENTATION('',(#38),#42);
#38 = LINE('',#39,#40);
#39 = CARTESIAN_POINT('',(-0.2,24.));
#40 = VECTOR('',#41,1.);
#41 = DIRECTION('',(0.,-1.));
#42 = ( GEOMETRIC_REPRESENTATION_CONTEXT(2) 
PARAMETRIC_REPRESENTATION_CONTEXT() REPRESENTATION_CONTEXT('2D SPACE',''
  ) );
#43 = PCURVE('',#44,#49);
#44 = PLANE('',#45);
#45 = AXIS2_PLACEMENT_3D('',#46,#47,#48);
#46 = CARTESIAN_POINT('',(-27.56946468906,-24.,-20.2));
#47 = DIRECTION('',(0.,0.,1.));
#48 = DIRECTION('',(1.,0.,-0.));
#49 = DEFINITIONAL_REPRESENTATION('',(#50),#54);
#50 = LINE('',#51,#52);
#51 = CARTESIAN_POINT('',(1.,0.));
#52 = VECTOR('',#53,1.);
#53 = DIRECTION('',(0.,1.));
#54 = ( GEOMETRIC_REPRESENTATION_CONTEXT(2) 
PARAMETRIC_REPRESENTATION_CONTEXT() REPRESENTATION_CONTEXT('2D SPACE',''
  ) );
#55 = ORIENTED_EDGE('',*,*,#56,.F.);
#56 = EDGE_CURVE('',#57,#22,#59,.T.);
#57 = VERTEX_POINT('',#58);
#58 = CARTESIAN_POINT('',(-26.56946468906,-24.,-24.));
#59 = SURFACE_CURVE('',#60,(#64,#71),.PCURVE_S1.);
#60 = LINE('',#61,#62);
#61 = CARTESIAN_POINT('',(-26.56946468906,-24.,-24.));
#62 = VECTOR('',#63,1.);
#63 = DIRECTION('',(0.,0.,1.));
#64 = PCURVE('',#32,#65);
#65 = DEFINITIONAL_REPRESENTATION('',(#66),#70);
#66 = LINE('',#67,#68);
#67 = CARTESIAN_POINT('',(-4.,24.));
#68 = VECTOR('',#69,1.);
#69 = DIRECTION('',(1.,0.));
#70 = ( GEOMETRIC_REPRESENTATION_CONTEXT(2) 
PARAMETRIC_REPRESENTATION_CONTEXT() REPRESENTATION_CONTEXT('2D SPACE',''
  ) );
#71 = PCURVE('',#72,#77);
#72 = PLANE('',#73);
#73 = AXIS2_PLACEMENT_3D('',#74,#75,#76);
#74 = CARTESIAN_POINT('',(-26.56946468906,-24.,-24.));
#75 = DIRECTION('',(-0.,1.,0.));
#76 = DIRECTION('',(0.,0.,1.));
#77 = DEFINITIONAL_REPRESENTATION('',(#78),#82);
#78 = LINE('',#79,#80);
#79 = CARTESIAN_POINT('',(0.,0.));
#80 = VECTOR('',#81,1.);
#81 = DIRECTION('',(1.,0.));
#82 = ( GEOMETRIC_REPRESENTATION_CONTEXT(2) 
PARAMETRIC_REPRESENTATION_CONTEXT() REPRESENTATION_CONTEXT('2D SPACE',''
  ) );
#83 = ORIENTED_EDGE('',*,*,#84,.T.);
#84 = EDGE_CURVE('',#57,#85,#87,.T.);
#85 = VERTEX_POINT('',#86);
#86 = CARTESIAN_POINT('',(-26.56946468906,-17.54992877478,-24.));
#87 = SURFACE_CURVE('',#88,(#92,#99),.PCURVE_S1.);
#88 = LINE('',#89,#90);
#89 = CARTESIAN_POINT('',(-26.56946468906,-24.,-24.));
#90 = VECTOR('',#91,1.);
#91 = DIRECTION('',(-0.,1.,0.));
#92 = PCURVE('',#32,#93);
#93 = DEFINITIONAL_REPRESENTATION('',(#94),#98);
#94 = LINE('',#95,#96);
#95 = CARTESIAN_POINT('',(-4.,24.));
#96 = VECTOR('',#97,1.);
#97 = DIRECTION('',(0.,-1.));
#98 = ( GEOMETRIC_REPRESENTATION_CONTEXT(2) 
PARAMETRIC_REPRESENTATION_CONTEXT() REPRESENTATION_CONTEXT('2D SPACE',''
  ) );
#99 = PCURVE('',#100,#105);
#100 = PLANE('',#101);
#101 = AXIS2_PLACEMENT_3D('',#102,#103,#104);
#102 = CARTESIAN_POINT('',(-26.56946468906,-24.,-24.));
#103 = DIRECTION('',(0.,0.,1.));
#104 = DIRECTION('',(1.,0.,-0.));
#105 = DEFINITIONAL_REPRESENTATION('',(#106),#110);
#106 = LINE('',#107,#108);
#107 = CARTESIAN_POINT('',(0.,0.));
#108 = VECTOR('',#109,1.);
#109 = DIRECTION('',(0.,1.));
#110 = ( GEOMETRIC_REPRESENTATION_CONTEXT(2) 
PARAMETRIC_REPRESENTATION_CONTEXT() REPRESENTATION_CONTEXT('2D SPACE',''
  ) );
#111 = ORIENTED_EDGE('',*,*,#112,.T.);
#112 = EDGE_CURVE('',#85,#113,#115,.T.);
#113 = VERTEX_POINT('',#114);
#114 = CARTESIAN_POINT('',(-26.56946468906,17.549928774784,-24.));
#115 = SURFACE_CURVE('',#116,(#121,#128),.PCURVE_S1.);
#116 = CIRCLE('',#117,18.);
#117 = AXIS2_PLACEMENT_3D('',#118,#119,#120);
#118 = CARTESIAN_POINT('',(-26.56946468906,0.,-20.));
#119 = DIRECTION('',(1.,0.,0.));
#120 = DIRECTION('',(-0.,0.,1.));
#121 = PCURVE('',#32,#122);
#122 = DEFINITIONAL_REPRESENTATION('',(#123),#127);
#123 = CIRCLE('',#124,18.);
#124 = AXIS2_PLACEMENT_2D('',#125,#126);
#125 = CARTESIAN_POINT('',(0.,0.));
#126 = DIRECTION('',(1.,0.));
#127 = ( GEOMETRIC_REPRESENTATION_CONTEXT(2) 
PARAMETRIC_REPRESENTATION_CONTEXT() REPRESENTATION_CONTEXT('2D SPACE',''
  ) );
#128 = PCURVE('',#129,#134);
#129 = CYLINDRICAL_SURFACE('',#130,18.);
#130 = AXIS2_PLACEMENT_3D('',#131,#132,#133);
#131 = CARTESIAN_POINT('',(-26.56946468906,0.,-20.));
#132 = DIRECTION('',(1.,0.,0.));
#133 = DIRECTION('',(-0.,0.,1.));
#134 = DEFINITIONAL_REPRESENTATION('',(#135),#139);
#135 = LINE('',#136,#137);
#136 = CARTESIAN_POINT('',(0.,0.));
#137 = VECTOR('',#138,1.);
#138 = DIRECTION('',(1.,0.));
#139 = ( GEOMETRIC_REPRESENTATION_CONTEXT(2) 
PARAMETRIC_REPRESENTATION_CONTEXT() REPRESENTATION_CONTEXT('2D SPACE',''
  ) );
#140 = ORIENTED_EDGE('',*,*,#141,.T.);
#141 = EDGE_CURVE('',#113,#142,#144,.T.);
#142 = VERTEX_POINT('',#143);
#143 = CARTESIAN_POINT('',(-26.56946468906,24.,-24.));
#144 = SURFACE_CURVE('',#145,(#149,#156),.PCURVE_S1.);
#145 = LINE('',#146,#147);
#146 = CARTESIAN_POINT('',(-26.56946468906,16.,-24.));
#147 = VECTOR('',#148,1.);
#148 = DIRECTION('',(-0.,1.,0.));
#149 = PCURVE('',#32,#150);
#150 = DEFINITIONAL_REPRESENTATION('',(#151),#155);
#151 = LINE('',#152,#153);
#152 = CARTESIAN_POINT('',(-4.,-16.));
#153 = VECTOR('',#154,1.);
#154 = DIRECTION('',(0.,-1.));
#155 = ( GEOMETRIC_REPRESENTATION_CONTEXT(2) 
PARAMETRIC_REPRESENTATION_CONTEXT() REPRESENTATION_CONTEXT('2D SPACE',''
  ) );
#156 = PCURVE('',#157,#162);
#157 = PLANE('',#158);
#158 = AXIS2_PLACEMENT_3D('',#159,#160,#161);
#159 = CARTESIAN_POINT('',(-26.56946468906,16.,-24.));
#160 = DIRECTION('',(0.,0.,1.));
#161 = DIRECTION('',(1.,0.,-0.));
#162 = DEFINITIONAL_REPRESENTATION('',(#163),#167);
#163 = LINE('',#164,#165);
#164 = CARTESIAN_POINT('',(0.,0.));
#165 = VECTOR('',#166,1.);
#166 = DIRECTION('',(0.,1.));
#167 = ( GEOMETRIC_REPRESENTATION_CONTEXT(2) 
PARAMETRIC_REPRESENTATION_CONTEXT() REPRESENTATION_CONTEXT('2D SPACE',''
  ) );
#168 = ORIENTED_EDGE('',*,*,#169,.T.);
#169 = EDGE_CURVE('',#142,#170,#172,.T.);
#170 = VERTEX_POINT('',#171);
#171 = CARTESIAN_POINT('',(-26.56946468906,24.,-20.2));
#172 = SURFACE_CURVE('',#173,(#177,#184),.PCURVE_S1.);
#173 = LINE('',#174,#175);
#174 = CARTESIAN_POINT('',(-26.56946468906,24.,-24.));
#175 = VECTOR('',#176,1.);
#176 = DIRECTION('',(0.,0.,1.));
#177 = PCURVE('',#32,#178);
#178 = DEFINITIONAL_REPRESENTATION('',(#179),#183);
#179 = LINE('',#180,#181);
#180 = CARTESIAN_POINT('',(-4.,-24.));
#181 = VECTOR('',#182,1.);
#182 = DIRECTION('',(1.,0.));
#183 = ( GEOMETRIC_REPRESENTATION_CONTEXT(2) 
PARAMETRIC_REPRESENTATION_CONTEXT() REPRESENTATION_CONTEXT('2D SPACE',''
  ) );
#184 = PCURVE('',#185,#190);
#185 = PLANE('',#186);
#186 = AXIS2_PLACEMENT_3D('',#187,#188,#189);
#187 = CARTESIAN_POINT('',(-26.56946468906,24.,-24.));
#188 = DIRECTION('',(-0.,1.,0.));
#189 = DIRECTION('',(0.,0.,1.));
#190 = DEFINITIONAL_REPRESENTATION('',(#191),#195);
#191 = LINE('',#192,#193);
#192 = CARTESIAN_POINT('',(0.,0.));
#193 = VECTOR('',#194,1.);
#194 = DIRECTION('',(1.,0.));
#195 = ( GEOMETRIC_REPRESENTATION_CONTEXT(2) 
PARAMETRIC_REPRESENTATION_CONTEXT() REPRESENTATION_CONTEXT('2D SPACE',''
  ) );
#196 = ORIENTED_EDGE('',*,*,#197,.F.);
#197 = EDGE_CURVE('',#198,#170,#200,.T.);
#198 = VERTEX_POINT('',#199);
#199 = CARTESIAN_POINT('',(-26.56946468906,15.098675438594,-20.2));
#200 = SURFACE_CURVE('',#201,(#205,#212),.PCURVE_S1.);
#201 = LINE('',#202,#203);
#202 = CARTESIAN_POINT('',(-26.56946468906,15.098675438594,-20.2));
#203 = VECTOR('',#204,1.);
#204 = DIRECTION('',(0.,1.,7.982438241167E-16));
#205 = PCURVE('',#32,#206);
#206 = DEFINITIONAL_REPRESENTATION('',(#207),#211);
#207 = LINE('',#208,#209);
#208 = CARTESIAN_POINT('',(-0.2,-15.09867543859));
#209 = VECTOR('',#210,1.);
#210 = DIRECTION('',(7.982438241167E-16,-1.));
#211 = ( GEOMETRIC_REPRESENTATION_CONTEXT(2) 
PARAMETRIC_REPRESENTATION_CONTEXT() REPRESENTATION_CONTEXT('2D SPACE',''
  ) );
#212 = PCURVE('',#213,#218);
#213 = PLANE('',#214);
#214 = AXIS2_PLACEMENT_3D('',#215,#216,#217);
#215 = CARTESIAN_POINT('',(-27.56946468906,-24.,-20.2));
#216 = DIRECTION('',(0.,0.,1.));
#217 = DIRECTION('',(1.,0.,-0.));
#218 = DEFINITIONAL_REPRESENTATION('',(#219),#223);
#219 = LINE('',#220,#221);
#220 = CARTESIAN_POINT('',(1.,39.098675438594));
#221 = VECTOR('',#222,1.);
#222 = DIRECTION('',(0.,1.));
#223 = ( GEOMETRIC_REPRESENTATION_CONTEXT(2) 
PARAMETRIC_REPRESENTATION_CONTEXT() REPRESENTATION_CONTEXT('2D SPACE',''
  ) );
#224 = ORIENTED_EDGE('',*,*,#225,.F.);
#225 = EDGE_CURVE('',#24,#198,#226,.T.);
#226 = SURFACE_CURVE('',#227,(#232,#239),.PCURVE_S1.);
#227 = CIRCLE('',#228,15.1);
#228 = AXIS2_PLACEMENT_3D('',#229,#230,#231);
#229 = CARTESIAN_POINT('',(-26.56946468906,0.,-20.));
#230 = DIRECTION('',(1.,0.,0.));
#231 = DIRECTION('',(-0.,0.,1.));
#232 = PCURVE('',#32,#233);
#233 = DEFINITIONAL_REPRESENTATION('',(#234),#238);
#234 = CIRCLE('',#235,15.1);
#235 = AXIS2_PLACEMENT_2D('',#236,#237);
#236 = CARTESIAN_POINT('',(0.,0.));
#237 = DIRECTION('',(1.,0.));
#238 = ( GEOMETRIC_REPRESENTATION_CONTEXT(2) 
PARAMETRIC_REPRESENTATION_CONTEXT() REPRESENTATION_CONTEXT('2D SPACE',''
  ) );
#239 = PCURVE('',#240,#245);
#240 = CYLINDRICAL_SURFACE('',#241,15.1);
#241 = AXIS2_PLACEMENT_3D('',#242,#243,#244);
#242 = CARTESIAN_POINT('',(-27.56946468906,0.,-20.));
#243 = DIRECTION('',(1.,0.,0.));
#244 = DIRECTION('',(-0.,0.,1.));
#245 = DEFINITIONAL_REPRESENTATION('',(#246),#250);
#246 = LINE('',#247,#248);
#247 = CARTESIAN_POINT('',(0.,1.));
#248 = VECTOR('',#249,1.);
#249 = DIRECTION('',(1.,0.));
#250 = ( GEOMETRIC_REPRESENTATION_CONTEXT(2) 
PARAMETRIC_REPRESENTATION_CONTEXT() REPRESENTATION_CONTEXT('2D SPACE',''
  ) );
#251 = ADVANCED_FACE('',(#252),#240,.F.);
#252 = FACE_BOUND('',#253,.F.);
#253 = EDGE_LOOP('',(#254,#285,#304,#305));
#254 = ORIENTED_EDGE('',*,*,#255,.F.);
#255 = EDGE_CURVE('',#256,#258,#260,.T.);
#256 = VERTEX_POINT('',#257);
#257 = CARTESIAN_POINT('',(7.430535310938,-15.09867543859,-20.2));
#258 = VERTEX_POINT('',#259);
#259 = CARTESIAN_POINT('',(7.430535310938,15.098675438594,-20.2));
#260 = SURFACE_CURVE('',#261,(#266,#273),.PCURVE_S1.);
#261 = CIRCLE('',#262,15.1);
#262 = AXIS2_PLACEMENT_3D('',#263,#264,#265);
#263 = CARTESIAN_POINT('',(7.430535310938,0.,-20.));
#264 = DIRECTION('',(1.,0.,0.));
#265 = DIRECTION('',(-0.,0.,1.));
#266 = PCURVE('',#240,#267);
#267 = DEFINITIONAL_REPRESENTATION('',(#268),#272);
#268 = LINE('',#269,#270);
#269 = CARTESIAN_POINT('',(0.,35.));
#270 = VECTOR('',#271,1.);
#271 = DIRECTION('',(1.,0.));
#272 = ( GEOMETRIC_REPRESENTATION_CONTEXT(2) 
PARAMETRIC_REPRESENTATION_CONTEXT() REPRESENTATION_CONTEXT('2D SPACE',''
  ) );
#273 = PCURVE('',#274,#279);
#274 = PLANE('',#275);
#275 = AXIS2_PLACEMENT_3D('',#276,#277,#278);
#276 = CARTESIAN_POINT('',(7.430535310938,-24.,-24.));
#277 = DIRECTION('',(1.,0.,-0.));
#278 = DIRECTION('',(0.,0.,1.));
#279 = DEFINITIONAL_REPRESENTATION('',(#280),#284);
#280 = CIRCLE('',#281,15.1);
#281 = AXIS2_PLACEMENT_2D('',#282,#283);
#282 = CARTESIAN_POINT('',(4.,-24.));
#283 = DIRECTION('',(1.,0.));
#284 = ( GEOMETRIC_REPRESENTATION_CONTEXT(2) 
PARAMETRIC_REPRESENTATION_CONTEXT() REPRESENTATION_CONTEXT('2D SPACE',''
  ) );
#285 = ORIENTED_EDGE('',*,*,#286,.F.);
#286 = EDGE_CURVE('',#24,#256,#287,.T.);
#287 = SURFACE_CURVE('',#288,(#292,#298),.PCURVE_S1.);
#288 = LINE('',#289,#290);
#289 = CARTESIAN_POINT('',(-27.56946468906,-15.09867543859,-20.2));
#290 = VECTOR('',#291,1.);
#291 = DIRECTION('',(1.,0.,0.));
#292 = PCURVE('',#240,#293);
#293 = DEFINITIONAL_REPRESENTATION('',(#294),#297);
#294 = B_SPLINE_CURVE_WITH_KNOTS('',1,(#295,#296),.UNSPECIFIED.,.F.,.F.,
  (2,2),(0.9999994,35.0000006),.PIECEWISE_BEZIER_KNOTS.);
#295 = CARTESIAN_POINT('',(1.584041747203,0.9999994));
#296 = CARTESIAN_POINT('',(1.584041747203,35.0000006));
#297 = ( GEOMETRIC_REPRESENTATION_CONTEXT(2) 
PARAMETRIC_REPRESENTATION_CONTEXT() REPRESENTATION_CONTEXT('2D SPACE',''
  ) );
#298 = PCURVE('',#44,#299);
#299 = DEFINITIONAL_REPRESENTATION('',(#300),#303);
#300 = B_SPLINE_CURVE_WITH_KNOTS('',1,(#301,#302),.UNSPECIFIED.,.F.,.F.,
  (2,2),(0.9999994,35.0000006),.PIECEWISE_BEZIER_KNOTS.);
#301 = CARTESIAN_POINT('',(0.9999994,8.901324561406));
#302 = CARTESIAN_POINT('',(35.0000006,8.901324561406));
#303 = ( GEOMETRIC_REPRESENTATION_CONTEXT(2) 
PARAMETRIC_REPRESENTATION_CONTEXT() REPRESENTATION_CONTEXT('2D SPACE',''
  ) );
#304 = ORIENTED_EDGE('',*,*,#225,.T.);
#305 = ORIENTED_EDGE('',*,*,#306,.T.);
#306 = EDGE_CURVE('',#198,#258,#307,.T.);
#307 = SURFACE_CURVE('',#308,(#312,#318),.PCURVE_S1.);
#308 = LINE('',#309,#310);
#309 = CARTESIAN_POINT('',(-27.56946468906,15.098675438594,-20.2));
#310 = VECTOR('',#311,1.);
#311 = DIRECTION('',(1.,0.,0.));
#312 = PCURVE('',#240,#313);
#313 = DEFINITIONAL_REPRESENTATION('',(#314),#317);
#314 = B_SPLINE_CURVE_WITH_KNOTS('',1,(#315,#316),.UNSPECIFIED.,.F.,.F.,
  (2,2),(0.9999994,35.0000006),.PIECEWISE_BEZIER_KNOTS.);
#315 = CARTESIAN_POINT('',(4.699143559977,0.9999994));
#316 = CARTESIAN_POINT('',(4.699143559977,35.0000006));
#317 = ( GEOMETRIC_REPRESENTATION_CONTEXT(2) 
PARAMETRIC_REPRESENTATION_CONTEXT() REPRESENTATION_CONTEXT('2D SPACE',''
  ) );
#318 = PCURVE('',#213,#319);
#319 = DEFINITIONAL_REPRESENTATION('',(#320),#323);
#320 = B_SPLINE_CURVE_WITH_KNOTS('',1,(#321,#322),.UNSPECIFIED.,.F.,.F.,
  (2,2),(0.9999994,35.0000006),.PIECEWISE_BEZIER_KNOTS.);
#321 = CARTESIAN_POINT('',(0.9999994,39.098675438594));
#322 = CARTESIAN_POINT('',(35.0000006,39.098675438594));
#323 = ( GEOMETRIC_REPRESENTATION_CONTEXT(2) 
PARAMETRIC_REPRESENTATION_CONTEXT() REPRESENTATION_CONTEXT('2D SPACE',''
  ) );
#324 = ADVANCED_FACE('',(#325),#274,.T.);
#325 = FACE_BOUND('',#326,.T.);
#326 = EDGE_LOOP('',(#327,#350,#373,#396,#420,#443,#466,#487));
#327 = ORIENTED_EDGE('',*,*,#328,.F.);
#328 = EDGE_CURVE('',#329,#256,#331,.T.);
#329 = VERTEX_POINT('',#330);
#330 = CARTESIAN_POINT('',(7.430535310938,-24.,-20.2));
#331 = SURFACE_CURVE('',#332,(#336,#343),.PCURVE_S1.);
#332 = LINE('',#333,#334);
#333 = CARTESIAN_POINT('',(7.430535310938,-24.,-20.2));
#334 = VECTOR('',#335,1.);
#335 = DIRECTION('',(0.,1.,0.));
#336 = PCURVE('',#274,#337);
#337 = DEFINITIONAL_REPRESENTATION('',(#338),#342);
#338 = LINE('',#339,#340);
#339 = CARTESIAN_POINT('',(3.8,0.));
#340 = VECTOR('',#341,1.);
#341 = DIRECTION('',(0.,-1.));
#342 = ( GEOMETRIC_REPRESENTATION_CONTEXT(2) 
PARAMETRIC_REPRESENTATION_CONTEXT() REPRESENTATION_CONTEXT('2D SPACE',''
  ) );
#343 = PCURVE('',#44,#344);
#344 = DEFINITIONAL_REPRESENTATION('',(#345),#349);
#345 = LINE('',#346,#347);
#346 = CARTESIAN_POINT('',(35.,0.));
#347 = VECTOR('',#348,1.);
#348 = DIRECTION('',(0.,1.));
#349 = ( GEOMETRIC_REPRESENTATION_CONTEXT(2) 
PARAMETRIC_REPRESENTATION_CONTEXT() REPRESENTATION_CONTEXT('2D SPACE',''
  ) );
#350 = ORIENTED_EDGE('',*,*,#351,.F.);
#351 = EDGE_CURVE('',#352,#329,#354,.T.);
#352 = VERTEX_POINT('',#353);
#353 = CARTESIAN_POINT('',(7.430535310938,-24.,-24.));
#354 = SURFACE_CURVE('',#355,(#359,#366),.PCURVE_S1.);
#355 = LINE('',#356,#357);
#356 = CARTESIAN_POINT('',(7.430535310938,-24.,-24.));
#357 = VECTOR('',#358,1.);
#358 = DIRECTION('',(0.,0.,1.));
#359 = PCURVE('',#274,#360);
#360 = DEFINITIONAL_REPRESENTATION('',(#361),#365);
#361 = LINE('',#362,#363);
#362 = CARTESIAN_POINT('',(0.,0.));
#363 = VECTOR('',#364,1.);
#364 = DIRECTION('',(1.,0.));
#365 = ( GEOMETRIC_REPRESENTATION_CONTEXT(2) 
PARAMETRIC_REPRESENTATION_CONTEXT() REPRESENTATION_CONTEXT('2D SPACE',''
  ) );
#366 = PCURVE('',#72,#367);
#367 = DEFINITIONAL_REPRESENTATION('',(#368),#372);
#368 = LINE('',#369,#370);
#369 = CARTESIAN_POINT('',(0.,34.));
#370 = VECTOR('',#371,1.);
#371 = DIRECTION('',(1.,0.));
#372 = ( GEOMETRIC_REPRESENTATION_CONTEXT(2) 
PARAMETRIC_REPRESENTATION_CONTEXT() REPRESENTATION_CONTEXT('2D SPACE',''
  ) );
#373 = ORIENTED_EDGE('',*,*,#374,.T.);
#374 = EDGE_CURVE('',#352,#375,#377,.T.);
#375 = VERTEX_POINT('',#376);
#376 = CARTESIAN_POINT('',(7.430535310938,-17.54992877478,-24.));
#377 = SURFACE_CURVE('',#378,(#382,#389),.PCURVE_S1.);
#378 = LINE('',#379,#380);
#379 = CARTESIAN_POINT('',(7.430535310938,-24.,-24.));
#380 = VECTOR('',#381,1.);
#381 = DIRECTION('',(-0.,1.,0.));
#382 = PCURVE('',#274,#383);
#383 = DEFINITIONAL_REPRESENTATION('',(#384),#388);
#384 = LINE('',#385,#386);
#385 = CARTESIAN_POINT('',(0.,0.));
#386 = VECTOR('',#387,1.);
#387 = DIRECTION('',(0.,-1.));
#388 = ( GEOMETRIC_REPRESENTATION_CONTEXT(2) 
PARAMETRIC_REPRESENTATION_CONTEXT() REPRESENTATION_CONTEXT('2D SPACE',''
  ) );
#389 = PCURVE('',#100,#390);
#390 = DEFINITIONAL_REPRESENTATION('',(#391),#395);
#391 = LINE('',#392,#393);
#392 = CARTESIAN_POINT('',(34.,0.));
#393 = VECTOR('',#394,1.);
#394 = DIRECTION('',(0.,1.));
#395 = ( GEOMETRIC_REPRESENTATION_CONTEXT(2) 
PARAMETRIC_REPRESENTATION_CONTEXT() REPRESENTATION_CONTEXT('2D SPACE',''
  ) );
#396 = ORIENTED_EDGE('',*,*,#397,.T.);
#397 = EDGE_CURVE('',#375,#398,#400,.T.);
#398 = VERTEX_POINT('',#399);
#399 = CARTESIAN_POINT('',(7.430535310938,17.549928774784,-24.));
#400 = SURFACE_CURVE('',#401,(#406,#413),.PCURVE_S1.);
#401 = CIRCLE('',#402,18.);
#402 = AXIS2_PLACEMENT_3D('',#403,#404,#405);
#403 = CARTESIAN_POINT('',(7.430535310938,0.,-20.));
#404 = DIRECTION('',(1.,0.,0.));
#405 = DIRECTION('',(-0.,0.,1.));
#406 = PCURVE('',#274,#407);
#407 = DEFINITIONAL_REPRESENTATION('',(#408),#412);
#408 = CIRCLE('',#409,18.);
#409 = AXIS2_PLACEMENT_2D('',#410,#411);
#410 = CARTESIAN_POINT('',(4.,-24.));
#411 = DIRECTION('',(1.,0.));
#412 = ( GEOMETRIC_REPRESENTATION_CONTEXT(2) 
PARAMETRIC_REPRESENTATION_CONTEXT() REPRESENTATION_CONTEXT('2D SPACE',''
  ) );
#413 = PCURVE('',#129,#414);
#414 = DEFINITIONAL_REPRESENTATION('',(#415),#419);
#415 = LINE('',#416,#417);
#416 = CARTESIAN_POINT('',(0.,34.));
#417 = VECTOR('',#418,1.);
#418 = DIRECTION('',(1.,0.));
#419 = ( GEOMETRIC_REPRESENTATION_CONTEXT(2) 
PARAMETRIC_REPRESENTATION_CONTEXT() REPRESENTATION_CONTEXT('2D SPACE',''
  ) );
#420 = ORIENTED_EDGE('',*,*,#421,.T.);
#421 = EDGE_CURVE('',#398,#422,#424,.T.);
#422 = VERTEX_POINT('',#423);
#423 = CARTESIAN_POINT('',(7.430535310938,24.,-24.));
#424 = SURFACE_CURVE('',#425,(#429,#436),.PCURVE_S1.);
#425 = LINE('',#426,#427);
#426 = CARTESIAN_POINT('',(7.430535310938,16.,-24.));
#427 = VECTOR('',#428,1.);
#428 = DIRECTION('',(-0.,1.,0.));
#429 = PCURVE('',#274,#430);
#430 = DEFINITIONAL_REPRESENTATION('',(#431),#435);
#431 = LINE('',#432,#433);
#432 = CARTESIAN_POINT('',(0.,-40.));
#433 = VECTOR('',#434,1.);
#434 = DIRECTION('',(0.,-1.));
#435 = ( GEOMETRIC_REPRESENTATION_CONTEXT(2) 
PARAMETRIC_REPRESENTATION_CONTEXT() REPRESENTATION_CONTEXT('2D SPACE',''
  ) );
#436 = PCURVE('',#157,#437);
#437 = DEFINITIONAL_REPRESENTATION('',(#438),#442);
#438 = LINE('',#439,#440);
#439 = CARTESIAN_POINT('',(34.,0.));
#440 = VECTOR('',#441,1.);
#441 = DIRECTION('',(0.,1.));
#442 = ( GEOMETRIC_REPRESENTATION_CONTEXT(2) 
PARAMETRIC_REPRESENTATION_CONTEXT() REPRESENTATION_CONTEXT('2D SPACE',''
  ) );
#443 = ORIENTED_EDGE('',*,*,#444,.T.);
#444 = EDGE_CURVE('',#422,#445,#447,.T.);
#445 = VERTEX_POINT('',#446);
#446 = CARTESIAN_POINT('',(7.430535310938,24.,-20.2));
#447 = SURFACE_CURVE('',#448,(#452,#459),.PCURVE_S1.);
#448 = LINE('',#449,#450);
#449 = CARTESIAN_POINT('',(7.430535310938,24.,-24.));
#450 = VECTOR('',#451,1.);
#451 = DIRECTION('',(0.,0.,1.));
#452 = PCURVE('',#274,#453);
#453 = DEFINITIONAL_REPRESENTATION('',(#454),#458);
#454 = LINE('',#455,#456);
#455 = CARTESIAN_POINT('',(0.,-48.));
#456 = VECTOR('',#457,1.);
#457 = DIRECTION('',(1.,0.));
#458 = ( GEOMETRIC_REPRESENTATION_CONTEXT(2) 
PARAMETRIC_REPRESENTATION_CONTEXT() REPRESENTATION_CONTEXT('2D SPACE',''
  ) );
#459 = PCURVE('',#185,#460);
#460 = DEFINITIONAL_REPRESENTATION('',(#461),#465);
#461 = LINE('',#462,#463);
#462 = CARTESIAN_POINT('',(0.,34.));
#463 = VECTOR('',#464,1.);
#464 = DIRECTION('',(1.,0.));
#465 = ( GEOMETRIC_REPRESENTATION_CONTEXT(2) 
PARAMETRIC_REPRESENTATION_CONTEXT() REPRESENTATION_CONTEXT('2D SPACE',''
  ) );
#466 = ORIENTED_EDGE('',*,*,#467,.F.);
#467 = EDGE_CURVE('',#258,#445,#468,.T.);
#468 = SURFACE_CURVE('',#469,(#473,#480),.PCURVE_S1.);
#469 = LINE('',#470,#471);
#470 = CARTESIAN_POINT('',(7.430535310938,15.098675438594,-20.2));
#471 = VECTOR('',#472,1.);
#472 = DIRECTION('',(0.,1.,7.982438241167E-16));
#473 = PCURVE('',#274,#474);
#474 = DEFINITIONAL_REPRESENTATION('',(#475),#479);
#475 = LINE('',#476,#477);
#476 = CARTESIAN_POINT('',(3.8,-39.09867543859));
#477 = VECTOR('',#478,1.);
#478 = DIRECTION('',(7.982438241167E-16,-1.));
#479 = ( GEOMETRIC_REPRESENTATION_CONTEXT(2) 
PARAMETRIC_REPRESENTATION_CONTEXT() REPRESENTATION_CONTEXT('2D SPACE',''
  ) );
#480 = PCURVE('',#213,#481);
#481 = DEFINITIONAL_REPRESENTATION('',(#482),#486);
#482 = LINE('',#483,#484);
#483 = CARTESIAN_POINT('',(35.,39.098675438594));
#484 = VECTOR('',#485,1.);
#485 = DIRECTION('',(0.,1.));
#486 = ( GEOMETRIC_REPRESENTATION_CONTEXT(2) 
PARAMETRIC_REPRESENTATION_CONTEXT() REPRESENTATION_CONTEXT('2D SPACE',''
  ) );
#487 = ORIENTED_EDGE('',*,*,#255,.F.);
#488 = ADVANCED_FACE('',(#489,#515,#546),#213,.T.);
#489 = FACE_BOUND('',#490,.T.);
#490 = EDGE_LOOP('',(#491,#512,#513,#514));
#491 = ORIENTED_EDGE('',*,*,#492,.F.);
#492 = EDGE_CURVE('',#170,#445,#493,.T.);
#493 = SURFACE_CURVE('',#494,(#498,#505),.PCURVE_S1.);
#494 = LINE('',#495,#496);
#495 = CARTESIAN_POINT('',(-27.56946468906,24.,-20.2));
#496 = VECTOR('',#497,1.);
#497 = DIRECTION('',(1.,0.,-0.));
#498 = PCURVE('',#213,#499);
#499 = DEFINITIONAL_REPRESENTATION('',(#500),#504);
#500 = LINE('',#501,#502);
#501 = CARTESIAN_POINT('',(0.,48.));
#502 = VECTOR('',#503,1.);
#503 = DIRECTION('',(1.,0.));
#504 = ( GEOMETRIC_REPRESENTATION_CONTEXT(2) 
PARAMETRIC_REPRESENTATION_CONTEXT() REPRESENTATION_CONTEXT('2D SPACE',''
  ) );
#505 = PCURVE('',#185,#506);
#506 = DEFINITIONAL_REPRESENTATION('',(#507),#511);
#507 = LINE('',#508,#509);
#508 = CARTESIAN_POINT('',(3.8,-1.));
#509 = VECTOR('',#510,1.);
#510 = DIRECTION('',(0.,1.));
#511 = ( GEOMETRIC_REPRESENTATION_CONTEXT(2) 
PARAMETRIC_REPRESENTATION_CONTEXT() REPRESENTATION_CONTEXT('2D SPACE',''
  ) );
#512 = ORIENTED_EDGE('',*,*,#197,.F.);
#513 = ORIENTED_EDGE('',*,*,#306,.T.);
#514 = ORIENTED_EDGE('',*,*,#467,.T.);
#515 = FACE_BOUND('',#516,.T.);
#516 = EDGE_LOOP('',(#517));
#517 = ORIENTED_EDGE('',*,*,#518,.F.);
#518 = EDGE_CURVE('',#519,#519,#521,.T.);
#519 = VERTEX_POINT('',#520);
#520 = CARTESIAN_POINT('',(-18.96946468906,20.,-20.2));
#521 = SURFACE_CURVE('',#522,(#527,#534),.PCURVE_S1.);
#522 = CIRCLE('',#523,2.6);
#523 = AXIS2_PLACEMENT_3D('',#524,#525,#526);
#524 = CARTESIAN_POINT('',(-21.56946468906,20.,-20.2));
#525 = DIRECTION('',(0.,0.,1.));
#526 = DIRECTION('',(1.,0.,-0.));
#527 = PCURVE('',#213,#528);
#528 = DEFINITIONAL_REPRESENTATION('',(#529),#533);
#529 = CIRCLE('',#530,2.6);
#530 = AXIS2_PLACEMENT_2D('',#531,#532);
#531 = CARTESIAN_POINT('',(6.,44.));
#532 = DIRECTION('',(1.,0.));
#533 = ( GEOMETRIC_REPRESENTATION_CONTEXT(2) 
PARAMETRIC_REPRESENTATION_CONTEXT() REPRESENTATION_CONTEXT('2D SPACE',''
  ) );
#534 = PCURVE('',#535,#540);
#535 = CYLINDRICAL_SURFACE('',#536,2.6);
#536 = AXIS2_PLACEMENT_3D('',#537,#538,#539);
#537 = CARTESIAN_POINT('',(-21.56946468906,20.,-25.));
#538 = DIRECTION('',(0.,0.,1.));
#539 = DIRECTION('',(1.,0.,-0.));
#540 = DEFINITIONAL_REPRESENTATION('',(#541),#545);
#541 = LINE('',#542,#543);
#542 = CARTESIAN_POINT('',(0.,4.8));
#543 = VECTOR('',#544,1.);
#544 = DIRECTION('',(1.,0.));
#545 = ( GEOMETRIC_REPRESENTATION_CONTEXT(2) 
PARAMETRIC_REPRESENTATION_CONTEXT() REPRESENTATION_CONTEXT('2D SPACE',''
  ) );
#546 = FACE_BOUND('',#547,.T.);
#547 = EDGE_LOOP('',(#548));
#548 = ORIENTED_EDGE('',*,*,#549,.F.);
#549 = EDGE_CURVE('',#550,#550,#552,.T.);
#550 = VERTEX_POINT('',#551);
#551 = CARTESIAN_POINT('',(5.030535310938,20.,-20.2));
#552 = SURFACE_CURVE('',#553,(#558,#565),.PCURVE_S1.);
#553 = CIRCLE('',#554,2.6);
#554 = AXIS2_PLACEMENT_3D('',#555,#556,#557);
#555 = CARTESIAN_POINT('',(2.430535310938,20.,-20.2));
#556 = DIRECTION('',(0.,0.,1.));
#557 = DIRECTION('',(1.,0.,-0.));
#558 = PCURVE('',#213,#559);
#559 = DEFINITIONAL_REPRESENTATION('',(#560),#564);
#560 = CIRCLE('',#561,2.6);
#561 = AXIS2_PLACEMENT_2D('',#562,#563);
#562 = CARTESIAN_POINT('',(30.,44.));
#563 = DIRECTION('',(1.,0.));
#564 = ( GEOMETRIC_REPRESENTATION_CONTEXT(2) 
PARAMETRIC_REPRESENTATION_CONTEXT() REPRESENTATION_CONTEXT('2D SPACE',''
  ) );
#565 = PCURVE('',#566,#571);
#566 = CYLINDRICAL_SURFACE('',#567,2.6);
#567 = AXIS2_PLACEMENT_3D('',#568,#569,#570);
#568 = CARTESIAN_POINT('',(2.430535310938,20.,-25.));
#569 = DIRECTION('',(0.,0.,1.));
#570 = DIRECTION('',(1.,0.,-0.));
#571 = DEFINITIONAL_REPRESENTATION('',(#572),#576);
#572 = LINE('',#573,#574);
#573 = CARTESIAN_POINT('',(0.,4.8));
#574 = VECTOR('',#575,1.);
#575 = DIRECTION('',(1.,0.));
#576 = ( GEOMETRIC_REPRESENTATION_CONTEXT(2) 
PARAMETRIC_REPRESENTATION_CONTEXT() REPRESENTATION_CONTEXT('2D SPACE',''
  ) );
#577 = ADVANCED_FACE('',(#578),#566,.F.);
#578 = FACE_BOUND('',#579,.F.);
#579 = EDGE_LOOP('',(#580,#581,#604,#628,#768,#790));
#580 = ORIENTED_EDGE('',*,*,#549,.F.);
#581 = ORIENTED_EDGE('',*,*,#582,.F.);
#582 = EDGE_CURVE('',#583,#550,#585,.T.);
#583 = VERTEX_POINT('',#584);
#584 = CARTESIAN_POINT('',(5.030535310938,20.,-24.));
#585 = SEAM_CURVE('',#586,(#590,#597),.PCURVE_S1.);
#586 = LINE('',#587,#588);
#587 = CARTESIAN_POINT('',(5.030535310938,20.,-25.));
#588 = VECTOR('',#589,1.);
#589 = DIRECTION('',(0.,0.,1.));
#590 = PCURVE('',#566,#591);
#591 = DEFINITIONAL_REPRESENTATION('',(#592),#596);
#592 = LINE('',#593,#594);
#593 = CARTESIAN_POINT('',(6.28318530718,-0.));
#594 = VECTOR('',#595,1.);
#595 = DIRECTION('',(0.,1.));
#596 = ( GEOMETRIC_REPRESENTATION_CONTEXT(2) 
PARAMETRIC_REPRESENTATION_CONTEXT() REPRESENTATION_CONTEXT('2D SPACE',''
  ) );
#597 = PCURVE('',#566,#598);
#598 = DEFINITIONAL_REPRESENTATION('',(#599),#603);
#599 = LINE('',#600,#601);
#600 = CARTESIAN_POINT('',(0.,-0.));
#601 = VECTOR('',#602,1.);
#602 = DIRECTION('',(0.,1.));
#603 = ( GEOMETRIC_REPRESENTATION_CONTEXT(2) 
PARAMETRIC_REPRESENTATION_CONTEXT() REPRESENTATION_CONTEXT('2D SPACE',''
  ) );
#604 = ORIENTED_EDGE('',*,*,#605,.T.);
#605 = EDGE_CURVE('',#583,#606,#608,.T.);
#606 = VERTEX_POINT('',#607);
#607 = CARTESIAN_POINT('',(1.560391074981,17.549928774784,-24.));
#608 = SURFACE_CURVE('',#609,(#614,#621),.PCURVE_S1.);
#609 = CIRCLE('',#610,2.6);
#610 = AXIS2_PLACEMENT_3D('',#611,#612,#613);
#611 = CARTESIAN_POINT('',(2.430535310938,20.,-24.));
#612 = DIRECTION('',(0.,0.,1.));
#613 = DIRECTION('',(1.,0.,-0.));
#614 = PCURVE('',#566,#615);
#615 = DEFINITIONAL_REPRESENTATION('',(#616),#620);
#616 = LINE('',#617,#618);
#617 = CARTESIAN_POINT('',(0.,1.));
#618 = VECTOR('',#619,1.);
#619 = DIRECTION('',(1.,0.));
#620 = ( GEOMETRIC_REPRESENTATION_CONTEXT(2) 
PARAMETRIC_REPRESENTATION_CONTEXT() REPRESENTATION_CONTEXT('2D SPACE',''
  ) );
#621 = PCURVE('',#157,#622);
#622 = DEFINITIONAL_REPRESENTATION('',(#623),#627);
#623 = CIRCLE('',#624,2.6);
#624 = AXIS2_PLACEMENT_2D('',#625,#626);
#625 = CARTESIAN_POINT('',(29.,4.));
#626 = DIRECTION('',(1.,0.));
#627 = ( GEOMETRIC_REPRESENTATION_CONTEXT(2) 
PARAMETRIC_REPRESENTATION_CONTEXT() REPRESENTATION_CONTEXT('2D SPACE',''
  ) );
#628 = ORIENTED_EDGE('',*,*,#629,.T.);
#629 = EDGE_CURVE('',#606,#630,#632,.T.);
#630 = VERTEX_POINT('',#631);
#631 = CARTESIAN_POINT('',(3.300679546896,17.549928774784,-24.));
#632 = SURFACE_CURVE('',#633,(#676,#722),.PCURVE_S1.);
#633 = B_SPLINE_CURVE_WITH_KNOTS('',6,(#634,#635,#636,#637,#638,#639,
    #640,#641,#642,#643,#644,#645,#646,#647,#648,#649,#650,#651,#652,
    #653,#654,#655,#656,#657,#658,#659,#660,#661,#662,#663,#664,#665,
    #666,#667,#668,#669,#670,#671,#672,#673,#674,#675),.UNSPECIFIED.,.F.
  ,.F.,(7,5,5,5,5,5,5,5,7),(0.,0.277794243573,0.362477813992,
    0.408004139426,0.499999324534,0.592731840319,0.638248796987,
    0.72288518056,1.),.UNSPECIFIED.);
#634 = CARTESIAN_POINT('',(1.560391074981,17.549928774784,-24.));
#635 = CARTESIAN_POINT('',(1.616199940288,17.530108223462,
    -24.08696231599));
#636 = CARTESIAN_POINT('',(1.676377424245,17.510454002747,
    -24.17080760365));
#637 = CARTESIAN_POINT('',(1.74159057143,17.491171322682,-24.25094858145
    ));
#638 = CARTESIAN_POINT('',(1.81251337715,17.472628039847,-24.32615753256
    ));
#639 = CARTESIAN_POINT('',(1.889744579368,17.455433167148,
    -24.39448771598));
#640 = CARTESIAN_POINT('',(1.999307837986,17.435878527783,-24.4710715665
    ));
#641 = CARTESIAN_POINT('',(2.02552824605,17.431515651001,-24.48806620302
    ));
#642 = CARTESIAN_POINT('',(2.052358104317,17.427387510203,
    -24.50406731449));
#643 = CARTESIAN_POINT('',(2.079781261898,17.423522979223,
    -24.51898041695));
#644 = CARTESIAN_POINT('',(2.107779751944,17.419950628925,
    -24.53271286726));
#645 = CARTESIAN_POINT('',(2.151684591063,17.414950488016,
    -24.55187295892));
#646 = CARTESIAN_POINT('',(2.16719146233,17.413295325878,-24.55820272));
#647 = CARTESIAN_POINT('',(2.182848085819,17.41173794446,-24.56414778225
    ));
#648 = CARTESIAN_POINT('',(2.198646553662,17.410282843309,
    -24.56969343778));
#649 = CARTESIAN_POINT('',(2.214577369749,17.408934317853,
    -24.57482563484));
#650 = CARTESIAN_POINT('',(2.26306593684,17.405195115012,-24.58903907905
    ));
#651 = CARTESIAN_POINT('',(2.296021974281,17.403143522735,
    -24.59681177646));
#652 = CARTESIAN_POINT('',(2.329372846807,17.40157897247,-24.60272617888
    ));
#653 = CARTESIAN_POINT('',(2.362993038407,17.400526722604,
    -24.60669917804));
#654 = CARTESIAN_POINT('',(2.396756232301,17.4,-24.60868744872));
#655 = CARTESIAN_POINT('',(2.46458512495,17.4,-24.60868744872));
#656 = CARTESIAN_POINT('',(2.498618438528,17.400535203238,
    -24.60666717646));
#657 = CARTESIAN_POINT('',(2.532505260134,17.401604356206,-24.602630348)
  );
#658 = CARTESIAN_POINT('',(2.566116447724,17.403193814105,
    -24.59662165637));
#659 = CARTESIAN_POINT('',(2.599323708743,17.405277540844,
    -24.58872677151));
#660 = CARTESIAN_POINT('',(2.648038279981,17.409063634218,
    -24.57433354596));
#661 = CARTESIAN_POINT('',(2.663955030641,17.410420517728,
    -24.56916893683));
#662 = CARTESIAN_POINT('',(2.679738856021,17.411883653866,
    -24.56359195511));
#663 = CARTESIAN_POINT('',(2.695380345219,17.413448737959,-24.5576166822
    ));
#664 = CARTESIAN_POINT('',(2.710871672517,17.415111266365,-24.5512578387
    ));
#665 = CARTESIAN_POINT('',(2.754721082494,17.420130368801,
    -24.53202218129));
#666 = CARTESIAN_POINT('',(2.782679380099,17.423713268182,
    -24.51824688946));
#667 = CARTESIAN_POINT('',(2.8100620819,17.427587003984,-24.50329559017)
  );
#668 = CARTESIAN_POINT('',(2.836851591226,17.431723073996,
    -24.48726069922));
#669 = CARTESIAN_POINT('',(2.863032123032,17.43609270443,-24.47023636691
    ));
#670 = CARTESIAN_POINT('',(2.972269843695,17.455643429128,
    -24.39365207093));
#671 = CARTESIAN_POINT('',(3.049250855868,17.472809471143,-24.3254216321
    ));
#672 = CARTESIAN_POINT('',(3.119958346064,17.491312790866,
    -24.25036055633));
#673 = CARTESIAN_POINT('',(3.184987282041,17.510550072396,
    -24.17039774829));
#674 = CARTESIAN_POINT('',(3.245006896763,17.530156600361,
    -24.08675006321));
#675 = CARTESIAN_POINT('',(3.300679546896,17.549928774784,-24.));
#676 = PCURVE('',#566,#677);
#677 = DEFINITIONAL_REPRESENTATION('',(#678),#721);
#678 = B_SPLINE_CURVE_WITH_KNOTS('',6,(#679,#680,#681,#682,#683,#684,
    #685,#686,#687,#688,#689,#690,#691,#692,#693,#694,#695,#696,#697,
    #698,#699,#700,#701,#702,#703,#704,#705,#706,#707,#708,#709,#710,
    #711,#712,#713,#714,#715,#716,#717,#718,#719,#720),.UNSPECIFIED.,.F.
  ,.F.,(7,5,5,5,5,5,5,5,7),(0.,0.277794243573,0.362477813992,
    0.408004139426,0.499999324534,0.592731840319,0.638248796987,
    0.72288518056,1.),.UNSPECIFIED.);
#679 = CARTESIAN_POINT('',(4.371133053248,1.));
#680 = CARTESIAN_POINT('',(4.39391151974,0.913037684005));
#681 = CARTESIAN_POINT('',(4.418251922012,0.829192396341));
#682 = CARTESIAN_POINT('',(4.444390887592,0.749051418545));
#683 = CARTESIAN_POINT('',(4.472561201634,0.673842467431));
#684 = CARTESIAN_POINT('',(4.502965400901,0.605512284011));
#685 = CARTESIAN_POINT('',(4.545771022456,0.528928433493));
#686 = CARTESIAN_POINT('',(4.555993745122,0.511933796972));
#687 = CARTESIAN_POINT('',(4.566433157991,0.495932685507));
#688 = CARTESIAN_POINT('',(4.577083401859,0.481019583047));
#689 = CARTESIAN_POINT('',(4.587938363917,0.467287132731));
#690 = CARTESIAN_POINT('',(4.604933996436,0.448127041077));
#691 = CARTESIAN_POINT('',(4.610931905267,0.441797279996));
#692 = CARTESIAN_POINT('',(4.616983165476,0.435852217741));
#693 = CARTESIAN_POINT('',(4.623084970817,0.430306562219));
#694 = CARTESIAN_POINT('',(4.629233947562,0.425174365154));
#695 = CARTESIAN_POINT('',(4.647938766011,0.410960920946));
#696 = CARTESIAN_POINT('',(4.66063722601,0.403188223532));
#697 = CARTESIAN_POINT('',(4.673476390585,0.39727382112));
#698 = CARTESIAN_POINT('',(4.686411269674,0.39330082196));
#699 = CARTESIAN_POINT('',(4.699397027063,0.391312551279));
#700 = CARTESIAN_POINT('',(4.725485062697,0.391312551279));
#701 = CARTESIAN_POINT('',(4.738574709016,0.393332823539));
#702 = CARTESIAN_POINT('',(4.751612237174,0.397369651993));
#703 = CARTESIAN_POINT('',(4.764551811948,0.403378343627));
#704 = CARTESIAN_POINT('',(4.777347445066,0.411273228481));
#705 = CARTESIAN_POINT('',(4.796140320911,0.425666454033));
#706 = CARTESIAN_POINT('',(4.802284179807,0.430831063169));
#707 = CARTESIAN_POINT('',(4.808380662287,0.436408044885));
#708 = CARTESIAN_POINT('',(4.814426425114,0.442383317795));
#709 = CARTESIAN_POINT('',(4.820418691412,0.448742161299));
#710 = CARTESIAN_POINT('',(4.837393969923,0.467977818707));
#711 = CARTESIAN_POINT('',(4.848234116883,0.48175311054));
#712 = CARTESIAN_POINT('',(4.858869454052,0.496704409822));
#713 = CARTESIAN_POINT('',(4.869293998779,0.512739300771));
#714 = CARTESIAN_POINT('',(4.87950202326,0.529763633088));
#715 = CARTESIAN_POINT('',(4.92218412608,0.60634792907));
#716 = CARTESIAN_POINT('',(4.952492267294,0.674578367897));
#717 = CARTESIAN_POINT('',(4.980578790436,0.749639443663));
#718 = CARTESIAN_POINT('',(5.006644991644,0.829602251704));
#719 = CARTESIAN_POINT('',(5.030922037443,0.913249936789));
#720 = CARTESIAN_POINT('',(5.053644907521,1.));
#721 = ( GEOMETRIC_REPRESENTATION_CONTEXT(2) 
PARAMETRIC_REPRESENTATION_CONTEXT() REPRESENTATION_CONTEXT('2D SPACE',''
  ) );
#722 = PCURVE('',#129,#723);
#723 = DEFINITIONAL_REPRESENTATION('',(#724),#767);
#724 = B_SPLINE_CURVE_WITH_KNOTS('',6,(#725,#726,#727,#728,#729,#730,
    #731,#732,#733,#734,#735,#736,#737,#738,#739,#740,#741,#742,#743,
    #744,#745,#746,#747,#748,#749,#750,#751,#752,#753,#754,#755,#756,
    #757,#758,#759,#760,#761,#762,#763,#764,#765,#766),.UNSPECIFIED.,.F.
  ,.F.,(7,5,5,5,5,5,5,5,7),(0.,0.277794243573,0.362477813992,
    0.408004139426,0.499999324534,0.592731840319,0.638248796987,
    0.72288518056,1.),.UNSPECIFIED.);
#725 = CARTESIAN_POINT('',(4.488295888083,28.129855764042));
#726 = CARTESIAN_POINT('',(4.483340750253,28.18566462935));
#727 = CARTESIAN_POINT('',(4.478556503566,28.245842113307));
#728 = CARTESIAN_POINT('',(4.47397727786,28.311055260492));
#729 = CARTESIAN_POINT('',(4.469673957848,28.381978066212));
#730 = CARTESIAN_POINT('',(4.465759510439,28.459209268429));
#731 = CARTESIAN_POINT('',(4.461368347146,28.568772527048));
#732 = CARTESIAN_POINT('',(4.4603935856,28.594992935112));
#733 = CARTESIAN_POINT('',(4.459475528461,28.621822793379));
#734 = CARTESIAN_POINT('',(4.458619657533,28.64924595096));
#735 = CARTESIAN_POINT('',(4.457831352254,28.677244441005));
#736 = CARTESIAN_POINT('',(4.456731253323,28.721149280125));
#737 = CARTESIAN_POINT('',(4.45636777634,28.736656151392));
#738 = CARTESIAN_POINT('',(4.456026350538,28.75231277488));
#739 = CARTESIAN_POINT('',(4.455707829614,28.768111242724));
#740 = CARTESIAN_POINT('',(4.455413029171,28.784042058811));
#741 = CARTESIAN_POINT('',(4.454596525721,28.832530625902));
#742 = CARTESIAN_POINT('',(4.454149920428,28.865486663343));
#743 = CARTESIAN_POINT('',(4.453810040512,28.898837535868));
#744 = CARTESIAN_POINT('',(4.453581708221,28.932457727468));
#745 = CARTESIAN_POINT('',(4.453467438378,28.966220921363));
#746 = CARTESIAN_POINT('',(4.453467438378,29.034049814012));
#747 = CARTESIAN_POINT('',(4.453583547459,29.068083127589));
#748 = CARTESIAN_POINT('',(4.453815548052,29.101969949196));
#749 = CARTESIAN_POINT('',(4.454160845939,29.135581136785));
#750 = CARTESIAN_POINT('',(4.454614470247,29.168788397805));
#751 = CARTESIAN_POINT('',(4.455441295659,29.217502969043));
#752 = CARTESIAN_POINT('',(4.455737955659,29.233419719703));
#753 = CARTESIAN_POINT('',(4.456058273235,29.249203545083));
#754 = CARTESIAN_POINT('',(4.456401431064,29.264845034281));
#755 = CARTESIAN_POINT('',(4.456766574709,29.280336361579));
#756 = CARTESIAN_POINT('',(4.457871001695,29.324185771555));
#757 = CARTESIAN_POINT('',(4.458661757939,29.352144069161));
#758 = CARTESIAN_POINT('',(4.459519811337,29.379526770962));
#759 = CARTESIAN_POINT('',(4.460439795656,29.406316280287));
#760 = CARTESIAN_POINT('',(4.461416248445,29.432496812094));
#761 = CARTESIAN_POINT('',(4.465807381918,29.541734532757));
#762 = CARTESIAN_POINT('',(4.469716064627,29.61871554493));
#763 = CARTESIAN_POINT('',(4.474010877166,29.689423035126));
#764 = CARTESIAN_POINT('',(4.478579890032,29.754451971102));
#765 = CARTESIAN_POINT('',(4.483352844478,29.814471585824));
#766 = CARTESIAN_POINT('',(4.488295888083,29.870144235958));
#767 = ( GEOMETRIC_REPRESENTATION_CONTEXT(2) 
PARAMETRIC_REPRESENTATION_CONTEXT() REPRESENTATION_CONTEXT('2D SPACE',''
  ) );
#768 = ORIENTED_EDGE('',*,*,#769,.T.);
#769 = EDGE_CURVE('',#630,#583,#770,.T.);
#770 = SURFACE_CURVE('',#771,(#776,#783),.PCURVE_S1.);
#771 = CIRCLE('',#772,2.6);
#772 = AXIS2_PLACEMENT_3D('',#773,#774,#775);
#773 = CARTESIAN_POINT('',(2.430535310938,20.,-24.));
#774 = DIRECTION('',(0.,0.,1.));
#775 = DIRECTION('',(1.,0.,-0.));
#776 = PCURVE('',#566,#777);
#777 = DEFINITIONAL_REPRESENTATION('',(#778),#782);
#778 = LINE('',#779,#780);
#779 = CARTESIAN_POINT('',(0.,1.));
#780 = VECTOR('',#781,1.);
#781 = DIRECTION('',(1.,0.));
#782 = ( GEOMETRIC_REPRESENTATION_CONTEXT(2) 
PARAMETRIC_REPRESENTATION_CONTEXT() REPRESENTATION_CONTEXT('2D SPACE',''
  ) );
#783 = PCURVE('',#157,#784);
#784 = DEFINITIONAL_REPRESENTATION('',(#785),#789);
#785 = CIRCLE('',#786,2.6);
#786 = AXIS2_PLACEMENT_2D('',#787,#788);
#787 = CARTESIAN_POINT('',(29.,4.));
#788 = DIRECTION('',(1.,0.));
#789 = ( GEOMETRIC_REPRESENTATION_CONTEXT(2) 
PARAMETRIC_REPRESENTATION_CONTEXT() REPRESENTATION_CONTEXT('2D SPACE',''
  ) );
#790 = ORIENTED_EDGE('',*,*,#582,.T.);
#791 = ADVANCED_FACE('',(#792),#535,.F.);
#792 = FACE_BOUND('',#793,.F.);
#793 = EDGE_LOOP('',(#794,#795,#818,#842,#982,#1004));
#794 = ORIENTED_EDGE('',*,*,#518,.F.);
#795 = ORIENTED_EDGE('',*,*,#796,.F.);
#796 = EDGE_CURVE('',#797,#519,#799,.T.);
#797 = VERTEX_POINT('',#798);
#798 = CARTESIAN_POINT('',(-18.96946468906,20.,-24.));
#799 = SEAM_CURVE('',#800,(#804,#811),.PCURVE_S1.);
#800 = LINE('',#801,#802);
#801 = CARTESIAN_POINT('',(-18.96946468906,20.,-25.));
#802 = VECTOR('',#803,1.);
#803 = DIRECTION('',(0.,0.,1.));
#804 = PCURVE('',#535,#805);
#805 = DEFINITIONAL_REPRESENTATION('',(#806),#810);
#806 = LINE('',#807,#808);
#807 = CARTESIAN_POINT('',(6.28318530718,-0.));
#808 = VECTOR('',#809,1.);
#809 = DIRECTION('',(0.,1.));
#810 = ( GEOMETRIC_REPRESENTATION_CONTEXT(2) 
PARAMETRIC_REPRESENTATION_CONTEXT() REPRESENTATION_CONTEXT('2D SPACE',''
  ) );
#811 = PCURVE('',#535,#812);
#812 = DEFINITIONAL_REPRESENTATION('',(#813),#817);
#813 = LINE('',#814,#815);
#814 = CARTESIAN_POINT('',(0.,-0.));
#815 = VECTOR('',#816,1.);
#816 = DIRECTION('',(0.,1.));
#817 = ( GEOMETRIC_REPRESENTATION_CONTEXT(2) 
PARAMETRIC_REPRESENTATION_CONTEXT() REPRESENTATION_CONTEXT('2D SPACE',''
  ) );
#818 = ORIENTED_EDGE('',*,*,#819,.T.);
#819 = EDGE_CURVE('',#797,#820,#822,.T.);
#820 = VERTEX_POINT('',#821);
#821 = CARTESIAN_POINT('',(-22.43960892501,17.549928774784,-24.));
#822 = SURFACE_CURVE('',#823,(#828,#835),.PCURVE_S1.);
#823 = CIRCLE('',#824,2.6);
#824 = AXIS2_PLACEMENT_3D('',#825,#826,#827);
#825 = CARTESIAN_POINT('',(-21.56946468906,20.,-24.));
#826 = DIRECTION('',(0.,0.,1.));
#827 = DIRECTION('',(1.,0.,-0.));
#828 = PCURVE('',#535,#829);
#829 = DEFINITIONAL_REPRESENTATION('',(#830),#834);
#830 = LINE('',#831,#832);
#831 = CARTESIAN_POINT('',(0.,1.));
#832 = VECTOR('',#833,1.);
#833 = DIRECTION('',(1.,0.));
#834 = ( GEOMETRIC_REPRESENTATION_CONTEXT(2) 
PARAMETRIC_REPRESENTATION_CONTEXT() REPRESENTATION_CONTEXT('2D SPACE',''
  ) );
#835 = PCURVE('',#157,#836);
#836 = DEFINITIONAL_REPRESENTATION('',(#837),#841);
#837 = CIRCLE('',#838,2.6);
#838 = AXIS2_PLACEMENT_2D('',#839,#840);
#839 = CARTESIAN_POINT('',(5.,4.));
#840 = DIRECTION('',(1.,0.));
#841 = ( GEOMETRIC_REPRESENTATION_CONTEXT(2) 
PARAMETRIC_REPRESENTATION_CONTEXT() REPRESENTATION_CONTEXT('2D SPACE',''
  ) );
#842 = ORIENTED_EDGE('',*,*,#843,.T.);
#843 = EDGE_CURVE('',#820,#844,#846,.T.);
#844 = VERTEX_POINT('',#845);
#845 = CARTESIAN_POINT('',(-20.6993204531,17.549928774784,-24.));
#846 = SURFACE_CURVE('',#847,(#890,#936),.PCURVE_S1.);
#847 = B_SPLINE_CURVE_WITH_KNOTS('',6,(#848,#849,#850,#851,#852,#853,
    #854,#855,#856,#857,#858,#859,#860,#861,#862,#863,#864,#865,#866,
    #867,#868,#869,#870,#871,#872,#873,#874,#875,#876,#877,#878,#879,
    #880,#881,#882,#883,#884,#885,#886,#887,#888,#889),.UNSPECIFIED.,.F.
  ,.F.,(7,5,5,5,5,5,5,5,7),(0.,0.277794354912,0.362477959343,
    0.4080043031,0.499999525235,0.592732037214,0.638248971856,
    0.722885314498,1.),.UNSPECIFIED.);
#848 = CARTESIAN_POINT('',(-22.43960892501,17.549928774784,-24.));
#849 = CARTESIAN_POINT('',(-22.38380005971,17.530108223462,
    -24.08696231599));
#850 = CARTESIAN_POINT('',(-22.32362257575,17.510454002747,
    -24.17080760365));
#851 = CARTESIAN_POINT('',(-22.25840942857,17.491171322682,
    -24.25094858145));
#852 = CARTESIAN_POINT('',(-22.18748662285,17.472628039847,
    -24.32615753256));
#853 = CARTESIAN_POINT('',(-22.11025542063,17.455433167148,
    -24.39448771598));
#854 = CARTESIAN_POINT('',(-22.00069216199,17.435878527779,
    -24.47107156652));
#855 = CARTESIAN_POINT('',(-21.97447175395,17.431515651002,
    -24.48806620302));
#856 = CARTESIAN_POINT('',(-21.9476418957,17.427387510206,
    -24.50406731448));
#857 = CARTESIAN_POINT('',(-21.9202187381,17.423522979224,
    -24.51898041694));
#858 = CARTESIAN_POINT('',(-21.89222024803,17.419950628922,
    -24.53271286728));
#859 = CARTESIAN_POINT('',(-21.84831540893,17.414950488016,
    -24.55187295892));
#860 = CARTESIAN_POINT('',(-21.83280853767,17.413295325878,-24.55820272)
  );
#861 = CARTESIAN_POINT('',(-21.81715191418,17.41173794446,
    -24.56414778225));
#862 = CARTESIAN_POINT('',(-21.80135344633,17.410282843309,
    -24.56969343778));
#863 = CARTESIAN_POINT('',(-21.78542263025,17.408934317853,
    -24.57482563484));
#864 = CARTESIAN_POINT('',(-21.73693406316,17.405195115012,
    -24.58903907905));
#865 = CARTESIAN_POINT('',(-21.70397802571,17.403143522735,
    -24.59681177646));
#866 = CARTESIAN_POINT('',(-21.67062715319,17.40157897247,
    -24.60272617888));
#867 = CARTESIAN_POINT('',(-21.63700696159,17.400526722604,
    -24.60669917804));
#868 = CARTESIAN_POINT('',(-21.60324376769,17.4,-24.60868744872));
#869 = CARTESIAN_POINT('',(-21.53541489015,17.4,-24.60868744872));
#870 = CARTESIAN_POINT('',(-21.50138155771,17.400535203841,
    -24.60666717417));
#871 = CARTESIAN_POINT('',(-21.46749472497,17.401604356773,
    -24.60263034585));
#872 = CARTESIAN_POINT('',(-21.433883548,17.403193813808,-24.5966216575)
  );
#873 = CARTESIAN_POINT('',(-21.40067630572,17.405277539719,
    -24.58872677579));
#874 = CARTESIAN_POINT('',(-21.35196172001,17.409063634218,
    -24.57433354596));
#875 = CARTESIAN_POINT('',(-21.33604496935,17.410420517728,
    -24.56916893683));
#876 = CARTESIAN_POINT('',(-21.32026114397,17.411883653866,
    -24.56359195511));
#877 = CARTESIAN_POINT('',(-21.30461965478,17.413448737959,
    -24.5576166822));
#878 = CARTESIAN_POINT('',(-21.28912832748,17.415111266365,
    -24.5512578387));
#879 = CARTESIAN_POINT('',(-21.24527891749,17.420130368802,
    -24.53202218129));
#880 = CARTESIAN_POINT('',(-21.2173206199,17.423713268181,
    -24.51824688946));
#881 = CARTESIAN_POINT('',(-21.1899379181,17.427587003983,
    -24.50329559018));
#882 = CARTESIAN_POINT('',(-21.16314840877,17.431723073996,
    -24.48726069922));
#883 = CARTESIAN_POINT('',(-21.13696787696,17.436092704432,
    -24.4702363669));
#884 = CARTESIAN_POINT('',(-21.0277301563,17.455643429128,
    -24.39365207093));
#885 = CARTESIAN_POINT('',(-20.95074914413,17.472809471143,
    -24.3254216321));
#886 = CARTESIAN_POINT('',(-20.88004165393,17.491312790866,
    -24.25036055633));
#887 = CARTESIAN_POINT('',(-20.81501271795,17.510550072396,
    -24.17039774829));
#888 = CARTESIAN_POINT('',(-20.75499310323,17.530156600361,
    -24.08675006321));
#889 = CARTESIAN_POINT('',(-20.6993204531,17.549928774784,-24.));
#890 = PCURVE('',#535,#891);
#891 = DEFINITIONAL_REPRESENTATION('',(#892),#935);
#892 = B_SPLINE_CURVE_WITH_KNOTS('',6,(#893,#894,#895,#896,#897,#898,
    #899,#900,#901,#902,#903,#904,#905,#906,#907,#908,#909,#910,#911,
    #912,#913,#914,#915,#916,#917,#918,#919,#920,#921,#922,#923,#924,
    #925,#926,#927,#928,#929,#930,#931,#932,#933,#934),.UNSPECIFIED.,.F.
  ,.F.,(7,5,5,5,5,5,5,5,7),(0.,0.277794354912,0.362477959343,
    0.4080043031,0.499999525235,0.592732037214,0.638248971856,
    0.722885314498,1.),.UNSPECIFIED.);
#893 = CARTESIAN_POINT('',(4.371133053248,1.));
#894 = CARTESIAN_POINT('',(4.39391151974,0.913037684005));
#895 = CARTESIAN_POINT('',(4.418251922012,0.829192396341));
#896 = CARTESIAN_POINT('',(4.444390887592,0.749051418545));
#897 = CARTESIAN_POINT('',(4.472561201634,0.673842467431));
#898 = CARTESIAN_POINT('',(4.502965400901,0.605512284011));
#899 = CARTESIAN_POINT('',(4.545771022464,0.528928433478));
#900 = CARTESIAN_POINT('',(4.555993745119,0.511933796974));
#901 = CARTESIAN_POINT('',(4.566433157982,0.49593268552));
#902 = CARTESIAN_POINT('',(4.577083401857,0.481019583052));
#903 = CARTESIAN_POINT('',(4.587938363926,0.46728713272));
#904 = CARTESIAN_POINT('',(4.604933996436,0.448127041077));
#905 = CARTESIAN_POINT('',(4.610931905267,0.441797279996));
#906 = CARTESIAN_POINT('',(4.616983165476,0.435852217741));
#907 = CARTESIAN_POINT('',(4.623084970817,0.430306562219));
#908 = CARTESIAN_POINT('',(4.629233947562,0.425174365154));
#909 = CARTESIAN_POINT('',(4.647938766011,0.410960920946));
#910 = CARTESIAN_POINT('',(4.66063722601,0.403188223532));
#911 = CARTESIAN_POINT('',(4.673476390585,0.39727382112));
#912 = CARTESIAN_POINT('',(4.686411269674,0.39330082196));
#913 = CARTESIAN_POINT('',(4.699397027063,0.391312551279));
#914 = CARTESIAN_POINT('',(4.725485056889,0.391312551279));
#915 = CARTESIAN_POINT('',(4.738574710472,0.393332825828));
#916 = CARTESIAN_POINT('',(4.75161224291,0.397369654144));
#917 = CARTESIAN_POINT('',(4.764551813585,0.403378342495));
#918 = CARTESIAN_POINT('',(4.777347439483,0.411273224205));
#919 = CARTESIAN_POINT('',(4.796140320911,0.425666454033));
#920 = CARTESIAN_POINT('',(4.802284179807,0.430831063169));
#921 = CARTESIAN_POINT('',(4.808380662287,0.436408044885));
#922 = CARTESIAN_POINT('',(4.814426425114,0.442383317795));
#923 = CARTESIAN_POINT('',(4.820418691412,0.448742161299));
#924 = CARTESIAN_POINT('',(4.837393969927,0.46797781871));
#925 = CARTESIAN_POINT('',(4.848234116882,0.481753110538));
#926 = CARTESIAN_POINT('',(4.858869454048,0.496704409817));
#927 = CARTESIAN_POINT('',(4.869293998778,0.512739300771));
#928 = CARTESIAN_POINT('',(4.879502023262,0.529763633093));
#929 = CARTESIAN_POINT('',(4.92218412608,0.60634792907));
#930 = CARTESIAN_POINT('',(4.952492267294,0.674578367898));
#931 = CARTESIAN_POINT('',(4.980578790436,0.749639443663));
#932 = CARTESIAN_POINT('',(5.006644991645,0.829602251704));
#933 = CARTESIAN_POINT('',(5.030922037443,0.913249936789));
#934 = CARTESIAN_POINT('',(5.053644907521,1.));
#935 = ( GEOMETRIC_REPRESENTATION_CONTEXT(2) 
PARAMETRIC_REPRESENTATION_CONTEXT() REPRESENTATION_CONTEXT('2D SPACE',''
  ) );
#936 = PCURVE('',#129,#937);
#937 = DEFINITIONAL_REPRESENTATION('',(#938),#981);
#938 = B_SPLINE_CURVE_WITH_KNOTS('',6,(#939,#940,#941,#942,#943,#944,
    #945,#946,#947,#948,#949,#950,#951,#952,#953,#954,#955,#956,#957,
    #958,#959,#960,#961,#962,#963,#964,#965,#966,#967,#968,#969,#970,
    #971,#972,#973,#974,#975,#976,#977,#978,#979,#980),.UNSPECIFIED.,.F.
  ,.F.,(7,5,5,5,5,5,5,5,7),(0.,0.277794354912,0.362477959343,
    0.4080043031,0.499999525235,0.592732037214,0.638248971856,
    0.722885314498,1.),.UNSPECIFIED.);
#939 = CARTESIAN_POINT('',(4.488295888083,4.129855764042));
#940 = CARTESIAN_POINT('',(4.483340750253,4.18566462935));
#941 = CARTESIAN_POINT('',(4.478556503566,4.245842113307));
#942 = CARTESIAN_POINT('',(4.47397727786,4.311055260492));
#943 = CARTESIAN_POINT('',(4.469673957848,4.381978066212));
#944 = CARTESIAN_POINT('',(4.465759510439,4.459209268429));
#945 = CARTESIAN_POINT('',(4.461368347145,4.56877252707));
#946 = CARTESIAN_POINT('',(4.4603935856,4.594992935105));
#947 = CARTESIAN_POINT('',(4.459475528462,4.621822793356));
#948 = CARTESIAN_POINT('',(4.458619657534,4.649245950955));
#949 = CARTESIAN_POINT('',(4.457831352254,4.677244441029));
#950 = CARTESIAN_POINT('',(4.456731253323,4.721149280125));
#951 = CARTESIAN_POINT('',(4.45636777634,4.736656151392));
#952 = CARTESIAN_POINT('',(4.456026350538,4.75231277488));
#953 = CARTESIAN_POINT('',(4.455707829614,4.768111242724));
#954 = CARTESIAN_POINT('',(4.455413029171,4.784042058811));
#955 = CARTESIAN_POINT('',(4.454596525721,4.832530625902));
#956 = CARTESIAN_POINT('',(4.454149920428,4.865486663343));
#957 = CARTESIAN_POINT('',(4.453810040512,4.898837535868));
#958 = CARTESIAN_POINT('',(4.453581708221,4.932457727468));
#959 = CARTESIAN_POINT('',(4.453467438378,4.966220921363));
#960 = CARTESIAN_POINT('',(4.453467438378,5.03404979891));
#961 = CARTESIAN_POINT('',(4.45358354759,5.068083131352));
#962 = CARTESIAN_POINT('',(4.453815548176,5.10196996409));
#963 = CARTESIAN_POINT('',(4.454160845874,5.135581141052));
#964 = CARTESIAN_POINT('',(4.454614470002,5.168788383334));
#965 = CARTESIAN_POINT('',(4.455441295659,5.217502969043));
#966 = CARTESIAN_POINT('',(4.455737955659,5.233419719703));
#967 = CARTESIAN_POINT('',(4.456058273235,5.249203545083));
#968 = CARTESIAN_POINT('',(4.456401431064,5.264845034281));
#969 = CARTESIAN_POINT('',(4.456766574709,5.280336361579));
#970 = CARTESIAN_POINT('',(4.457871001695,5.324185771564));
#971 = CARTESIAN_POINT('',(4.458661757939,5.352144069159));
#972 = CARTESIAN_POINT('',(4.459519811337,5.379526770954));
#973 = CARTESIAN_POINT('',(4.460439795656,5.406316280285));
#974 = CARTESIAN_POINT('',(4.461416248446,5.432496812101));
#975 = CARTESIAN_POINT('',(4.465807381918,5.541734532756));
#976 = CARTESIAN_POINT('',(4.469716064627,5.61871554493));
#977 = CARTESIAN_POINT('',(4.474010877166,5.689423035125));
#978 = CARTESIAN_POINT('',(4.478579890032,5.754451971102));
#979 = CARTESIAN_POINT('',(4.483352844478,5.814471585824));
#980 = CARTESIAN_POINT('',(4.488295888083,5.870144235958));
#981 = ( GEOMETRIC_REPRESENTATION_CONTEXT(2) 
PARAMETRIC_REPRESENTATION_CONTEXT() REPRESENTATION_CONTEXT('2D SPACE',''
  ) );
#982 = ORIENTED_EDGE('',*,*,#983,.T.);
#983 = EDGE_CURVE('',#844,#797,#984,.T.);
#984 = SURFACE_CURVE('',#985,(#990,#997),.PCURVE_S1.);
#985 = CIRCLE('',#986,2.6);
#986 = AXIS2_PLACEMENT_3D('',#987,#988,#989);
#987 = CARTESIAN_POINT('',(-21.56946468906,20.,-24.));
#988 = DIRECTION('',(0.,0.,1.));
#989 = DIRECTION('',(1.,0.,-0.));
#990 = PCURVE('',#535,#991);
#991 = DEFINITIONAL_REPRESENTATION('',(#992),#996);
#992 = LINE('',#993,#994);
#993 = CARTESIAN_POINT('',(0.,1.));
#994 = VECTOR('',#995,1.);
#995 = DIRECTION('',(1.,0.));
#996 = ( GEOMETRIC_REPRESENTATION_CONTEXT(2) 
PARAMETRIC_REPRESENTATION_CONTEXT() REPRESENTATION_CONTEXT('2D SPACE',''
  ) );
#997 = PCURVE('',#157,#998);
#998 = DEFINITIONAL_REPRESENTATION('',(#999),#1003);
#999 = CIRCLE('',#1000,2.6);
#1000 = AXIS2_PLACEMENT_2D('',#1001,#1002);
#1001 = CARTESIAN_POINT('',(5.,4.));
#1002 = DIRECTION('',(1.,0.));
#1003 = ( GEOMETRIC_REPRESENTATION_CONTEXT(2) 
PARAMETRIC_REPRESENTATION_CONTEXT() REPRESENTATION_CONTEXT('2D SPACE',''
  ) );
#1004 = ORIENTED_EDGE('',*,*,#796,.T.);
#1005 = ADVANCED_FACE('',(#1006),#185,.T.);
#1006 = FACE_BOUND('',#1007,.T.);
#1007 = EDGE_LOOP('',(#1008,#1009,#1030,#1031));
#1008 = ORIENTED_EDGE('',*,*,#444,.F.);
#1009 = ORIENTED_EDGE('',*,*,#1010,.F.);
#1010 = EDGE_CURVE('',#142,#422,#1011,.T.);
#1011 = SURFACE_CURVE('',#1012,(#1016,#1023),.PCURVE_S1.);
#1012 = LINE('',#1013,#1014);
#1013 = CARTESIAN_POINT('',(-26.56946468906,24.,-24.));
#1014 = VECTOR('',#1015,1.);
#1015 = DIRECTION('',(1.,0.,-0.));
#1016 = PCURVE('',#185,#1017);
#1017 = DEFINITIONAL_REPRESENTATION('',(#1018),#1022);
#1018 = LINE('',#1019,#1020);
#1019 = CARTESIAN_POINT('',(0.,0.));
#1020 = VECTOR('',#1021,1.);
#1021 = DIRECTION('',(0.,1.));
#1022 = ( GEOMETRIC_REPRESENTATION_CONTEXT(2) 
PARAMETRIC_REPRESENTATION_CONTEXT() REPRESENTATION_CONTEXT('2D SPACE',''
  ) );
#1023 = PCURVE('',#157,#1024);
#1024 = DEFINITIONAL_REPRESENTATION('',(#1025),#1029);
#1025 = LINE('',#1026,#1027);
#1026 = CARTESIAN_POINT('',(0.,8.));
#1027 = VECTOR('',#1028,1.);
#1028 = DIRECTION('',(1.,0.));
#1029 = ( GEOMETRIC_REPRESENTATION_CONTEXT(2) 
PARAMETRIC_REPRESENTATION_CONTEXT() REPRESENTATION_CONTEXT('2D SPACE',''
  ) );
#1030 = ORIENTED_EDGE('',*,*,#169,.T.);
#1031 = ORIENTED_EDGE('',*,*,#492,.T.);
#1032 = ADVANCED_FACE('',(#1033),#157,.F.);
#1033 = FACE_BOUND('',#1034,.F.);
#1034 = EDGE_LOOP('',(#1035,#1036,#1055,#1056,#1057,#1076,#1077,#1078,
    #1097,#1098));
#1035 = ORIENTED_EDGE('',*,*,#141,.F.);
#1036 = ORIENTED_EDGE('',*,*,#1037,.T.);
#1037 = EDGE_CURVE('',#113,#820,#1038,.T.);
#1038 = SURFACE_CURVE('',#1039,(#1043,#1049),.PCURVE_S1.);
#1039 = LINE('',#1040,#1041);
#1040 = CARTESIAN_POINT('',(-26.56946468906,17.549928774784,-24.));
#1041 = VECTOR('',#1042,1.);
#1042 = DIRECTION('',(1.,0.,0.));
#1043 = PCURVE('',#157,#1044);
#1044 = DEFINITIONAL_REPRESENTATION('',(#1045),#1048);
#1045 = B_SPLINE_CURVE_WITH_KNOTS('',1,(#1046,#1047),.UNSPECIFIED.,.F.,
  .F.,(2,2),(-5.999999999062E-07,34.0000006),.PIECEWISE_BEZIER_KNOTS.);
#1046 = CARTESIAN_POINT('',(-5.999999999062E-07,1.549928774784));
#1047 = CARTESIAN_POINT('',(34.0000006,1.549928774784));
#1048 = ( GEOMETRIC_REPRESENTATION_CONTEXT(2) 
PARAMETRIC_REPRESENTATION_CONTEXT() REPRESENTATION_CONTEXT('2D SPACE',''
  ) );
#1049 = PCURVE('',#129,#1050);
#1050 = DEFINITIONAL_REPRESENTATION('',(#1051),#1054);
#1051 = B_SPLINE_CURVE_WITH_KNOTS('',1,(#1052,#1053),.UNSPECIFIED.,.F.,
  .F.,(2,2),(-5.999999999062E-07,34.0000006),.PIECEWISE_BEZIER_KNOTS.);
#1052 = CARTESIAN_POINT('',(4.488295888083,-5.999999999062E-07));
#1053 = CARTESIAN_POINT('',(4.488295888083,34.0000006));
#1054 = ( GEOMETRIC_REPRESENTATION_CONTEXT(2) 
PARAMETRIC_REPRESENTATION_CONTEXT() REPRESENTATION_CONTEXT('2D SPACE',''
  ) );
#1055 = ORIENTED_EDGE('',*,*,#819,.F.);
#1056 = ORIENTED_EDGE('',*,*,#983,.F.);
#1057 = ORIENTED_EDGE('',*,*,#1058,.T.);
#1058 = EDGE_CURVE('',#844,#606,#1059,.T.);
#1059 = SURFACE_CURVE('',#1060,(#1064,#1070),.PCURVE_S1.);
#1060 = LINE('',#1061,#1062);
#1061 = CARTESIAN_POINT('',(-26.56946468906,17.549928774784,-24.));
#1062 = VECTOR('',#1063,1.);
#1063 = DIRECTION('',(1.,0.,0.));
#1064 = PCURVE('',#157,#1065);
#1065 = DEFINITIONAL_REPRESENTATION('',(#1066),#1069);
#1066 = B_SPLINE_CURVE_WITH_KNOTS('',1,(#1067,#1068),.UNSPECIFIED.,.F.,
  .F.,(2,2),(-5.999999999062E-07,34.0000006),.PIECEWISE_BEZIER_KNOTS.);
#1067 = CARTESIAN_POINT('',(-5.999999999062E-07,1.549928774784));
#1068 = CARTESIAN_POINT('',(34.0000006,1.549928774784));
#1069 = ( GEOMETRIC_REPRESENTATION_CONTEXT(2) 
PARAMETRIC_REPRESENTATION_CONTEXT() REPRESENTATION_CONTEXT('2D SPACE',''
  ) );
#1070 = PCURVE('',#129,#1071);
#1071 = DEFINITIONAL_REPRESENTATION('',(#1072),#1075);
#1072 = B_SPLINE_CURVE_WITH_KNOTS('',1,(#1073,#1074),.UNSPECIFIED.,.F.,
  .F.,(2,2),(-5.999999999062E-07,34.0000006),.PIECEWISE_BEZIER_KNOTS.);
#1073 = CARTESIAN_POINT('',(4.488295888083,-5.999999999062E-07));
#1074 = CARTESIAN_POINT('',(4.488295888083,34.0000006));
#1075 = ( GEOMETRIC_REPRESENTATION_CONTEXT(2) 
PARAMETRIC_REPRESENTATION_CONTEXT() REPRESENTATION_CONTEXT('2D SPACE',''
  ) );
#1076 = ORIENTED_EDGE('',*,*,#605,.F.);
#1077 = ORIENTED_EDGE('',*,*,#769,.F.);
#1078 = ORIENTED_EDGE('',*,*,#1079,.T.);
#1079 = EDGE_CURVE('',#630,#398,#1080,.T.);
#1080 = SURFACE_CURVE('',#1081,(#1085,#1091),.PCURVE_S1.);
#1081 = LINE('',#1082,#1083);
#1082 = CARTESIAN_POINT('',(-26.56946468906,17.549928774784,-24.));
#1083 = VECTOR('',#1084,1.);
#1084 = DIRECTION('',(1.,0.,0.));
#1085 = PCURVE('',#157,#1086);
#1086 = DEFINITIONAL_REPRESENTATION('',(#1087),#1090);
#1087 = B_SPLINE_CURVE_WITH_KNOTS('',1,(#1088,#1089),.UNSPECIFIED.,.F.,
  .F.,(2,2),(-5.999999999062E-07,34.0000006),.PIECEWISE_BEZIER_KNOTS.);
#1088 = CARTESIAN_POINT('',(-5.999999999062E-07,1.549928774784));
#1089 = CARTESIAN_POINT('',(34.0000006,1.549928774784));
#1090 = ( GEOMETRIC_REPRESENTATION_CONTEXT(2) 
PARAMETRIC_REPRESENTATION_CONTEXT() REPRESENTATION_CONTEXT('2D SPACE',''
  ) );
#1091 = PCURVE('',#129,#1092);
#1092 = DEFINITIONAL_REPRESENTATION('',(#1093),#1096);
#1093 = B_SPLINE_CURVE_WITH_KNOTS('',1,(#1094,#1095),.UNSPECIFIED.,.F.,
  .F.,(2,2),(-5.999999999062E-07,34.0000006),.PIECEWISE_BEZIER_KNOTS.);
#1094 = CARTESIAN_POINT('',(4.488295888083,-5.999999999062E-07));
#1095 = CARTESIAN_POINT('',(4.488295888083,34.0000006));
#1096 = ( GEOMETRIC_REPRESENTATION_CONTEXT(2) 
PARAMETRIC_REPRESENTATION_CONTEXT() REPRESENTATION_CONTEXT('2D SPACE',''
  ) );
#1097 = ORIENTED_EDGE('',*,*,#421,.T.);
#1098 = ORIENTED_EDGE('',*,*,#1010,.F.);
#1099 = ADVANCED_FACE('',(#1100),#129,.T.);
#1100 = FACE_BOUND('',#1101,.T.);
#1101 = EDGE_LOOP('',(#1102,#1123,#1124,#1125,#1126,#1127,#1128,#1129,
    #1130,#1151,#1296,#1317));
#1102 = ORIENTED_EDGE('',*,*,#1103,.F.);
#1103 = EDGE_CURVE('',#85,#1104,#1106,.T.);
#1104 = VERTEX_POINT('',#1105);
#1105 = CARTESIAN_POINT('',(-22.43960892501,-17.54992877478,-24.));
#1106 = SURFACE_CURVE('',#1107,(#1111,#1117),.PCURVE_S1.);
#1107 = LINE('',#1108,#1109);
#1108 = CARTESIAN_POINT('',(-26.56946468906,-17.54992877478,-24.));
#1109 = VECTOR('',#1110,1.);
#1110 = DIRECTION('',(1.,0.,0.));
#1111 = PCURVE('',#129,#1112);
#1112 = DEFINITIONAL_REPRESENTATION('',(#1113),#1116);
#1113 = B_SPLINE_CURVE_WITH_KNOTS('',1,(#1114,#1115),.UNSPECIFIED.,.F.,
  .F.,(2,2),(-5.999999999062E-07,34.0000006),.PIECEWISE_BEZIER_KNOTS.);
#1114 = CARTESIAN_POINT('',(1.794889419096,-5.999999999062E-07));
#1115 = CARTESIAN_POINT('',(1.794889419096,34.0000006));
#1116 = ( GEOMETRIC_REPRESENTATION_CONTEXT(2) 
PARAMETRIC_REPRESENTATION_CONTEXT() REPRESENTATION_CONTEXT('2D SPACE',''
  ) );
#1117 = PCURVE('',#100,#1118);
#1118 = DEFINITIONAL_REPRESENTATION('',(#1119),#1122);
#1119 = B_SPLINE_CURVE_WITH_KNOTS('',1,(#1120,#1121),.UNSPECIFIED.,.F.,
  .F.,(2,2),(-5.999999999062E-07,34.0000006),.PIECEWISE_BEZIER_KNOTS.);
#1120 = CARTESIAN_POINT('',(-5.999999999062E-07,6.450071225216));
#1121 = CARTESIAN_POINT('',(34.0000006,6.450071225216));
#1122 = ( GEOMETRIC_REPRESENTATION_CONTEXT(2) 
PARAMETRIC_REPRESENTATION_CONTEXT() REPRESENTATION_CONTEXT('2D SPACE',''
  ) );
#1123 = ORIENTED_EDGE('',*,*,#112,.T.);
#1124 = ORIENTED_EDGE('',*,*,#1037,.T.);
#1125 = ORIENTED_EDGE('',*,*,#843,.T.);
#1126 = ORIENTED_EDGE('',*,*,#1058,.T.);
#1127 = ORIENTED_EDGE('',*,*,#629,.T.);
#1128 = ORIENTED_EDGE('',*,*,#1079,.T.);
#1129 = ORIENTED_EDGE('',*,*,#397,.F.);
#1130 = ORIENTED_EDGE('',*,*,#1131,.F.);
#1131 = EDGE_CURVE('',#1132,#375,#1134,.T.);
#1132 = VERTEX_POINT('',#1133);
#1133 = CARTESIAN_POINT('',(3.300679546896,-17.54992877478,-24.));
#1134 = SURFACE_CURVE('',#1135,(#1139,#1145),.PCURVE_S1.);
#1135 = LINE('',#1136,#1137);
#1136 = CARTESIAN_POINT('',(-26.56946468906,-17.54992877478,-24.));
#1137 = VECTOR('',#1138,1.);
#1138 = DIRECTION('',(1.,0.,0.));
#1139 = PCURVE('',#129,#1140);
#1140 = DEFINITIONAL_REPRESENTATION('',(#1141),#1144);
#1141 = B_SPLINE_CURVE_WITH_KNOTS('',1,(#1142,#1143),.UNSPECIFIED.,.F.,
  .F.,(2,2),(-5.999999999062E-07,34.0000006),.PIECEWISE_BEZIER_KNOTS.);
#1142 = CARTESIAN_POINT('',(1.794889419096,-5.999999999062E-07));
#1143 = CARTESIAN_POINT('',(1.794889419096,34.0000006));
#1144 = ( GEOMETRIC_REPRESENTATION_CONTEXT(2) 
PARAMETRIC_REPRESENTATION_CONTEXT() REPRESENTATION_CONTEXT('2D SPACE',''
  ) );
#1145 = PCURVE('',#100,#1146);
#1146 = DEFINITIONAL_REPRESENTATION('',(#1147),#1150);
#1147 = B_SPLINE_CURVE_WITH_KNOTS('',1,(#1148,#1149),.UNSPECIFIED.,.F.,
  .F.,(2,2),(-5.999999999062E-07,34.0000006),.PIECEWISE_BEZIER_KNOTS.);
#1148 = CARTESIAN_POINT('',(-5.999999999062E-07,6.450071225216));
#1149 = CARTESIAN_POINT('',(34.0000006,6.450071225216));
#1150 = ( GEOMETRIC_REPRESENTATION_CONTEXT(2) 
PARAMETRIC_REPRESENTATION_CONTEXT() REPRESENTATION_CONTEXT('2D SPACE',''
  ) );
#1151 = ORIENTED_EDGE('',*,*,#1152,.T.);
#1152 = EDGE_CURVE('',#1132,#1153,#1155,.T.);
#1153 = VERTEX_POINT('',#1154);
#1154 = CARTESIAN_POINT('',(1.560391074981,-17.54992877478,-24.));
#1155 = SURFACE_CURVE('',#1156,(#1199,#1245),.PCURVE_S1.);
#1156 = B_SPLINE_CURVE_WITH_KNOTS('',6,(#1157,#1158,#1159,#1160,#1161,
    #1162,#1163,#1164,#1165,#1166,#1167,#1168,#1169,#1170,#1171,#1172,
    #1173,#1174,#1175,#1176,#1177,#1178,#1179,#1180,#1181,#1182,#1183,
    #1184,#1185,#1186,#1187,#1188,#1189,#1190,#1191,#1192,#1193,#1194,
    #1195,#1196,#1197,#1198),.UNSPECIFIED.,.F.,.F.,(7,5,5,5,5,5,5,5,7),(
    0.,0.277794243644,0.362477814056,0.408004139471,0.499999324542,
    0.592731840265,0.63824879689,0.722885180442,1.),.UNSPECIFIED.);
#1157 = CARTESIAN_POINT('',(3.300679546896,-17.54992877478,-24.));
#1158 = CARTESIAN_POINT('',(3.244870681588,-17.53010822346,
    -24.08696231599));
#1159 = CARTESIAN_POINT('',(3.184693197631,-17.51045400274,
    -24.17080760365));
#1160 = CARTESIAN_POINT('',(3.119480050447,-17.49117132268,
    -24.25094858145));
#1161 = CARTESIAN_POINT('',(3.048557244726,-17.47262803984,
    -24.32615753256));
#1162 = CARTESIAN_POINT('',(2.971326042509,-17.45543316714,
    -24.39448771598));
#1163 = CARTESIAN_POINT('',(2.861762783899,-17.43587852778,
    -24.4710715665));
#1164 = CARTESIAN_POINT('',(2.835542375823,-17.431515651,-24.48806620302
    ));
#1165 = CARTESIAN_POINT('',(2.80871251755,-17.4273875102,-24.50406731449
    ));
#1166 = CARTESIAN_POINT('',(2.781289359976,-17.42352297922,
    -24.51898041695));
#1167 = CARTESIAN_POINT('',(2.753290869942,-17.41995062892,
    -24.53271286726));
#1168 = CARTESIAN_POINT('',(2.709386030813,-17.41495048801,
    -24.55187295892));
#1169 = CARTESIAN_POINT('',(2.693879159547,-17.41329532587,-24.55820272)
  );
#1170 = CARTESIAN_POINT('',(2.678222536058,-17.41173794446,
    -24.56414778225));
#1171 = CARTESIAN_POINT('',(2.662424068214,-17.4102828433,
    -24.56969343778));
#1172 = CARTESIAN_POINT('',(2.646493252128,-17.40893431785,
    -24.57482563484));
#1173 = CARTESIAN_POINT('',(2.598004685036,-17.40519511501,
    -24.58903907905));
#1174 = CARTESIAN_POINT('',(2.565048647595,-17.40314352273,
    -24.59681177646));
#1175 = CARTESIAN_POINT('',(2.53169777507,-17.40157897247,
    -24.60272617888));
#1176 = CARTESIAN_POINT('',(2.49807758347,-17.4005267226,-24.60669917804
    ));
#1177 = CARTESIAN_POINT('',(2.464314389575,-17.4,-24.60868744872));
#1178 = CARTESIAN_POINT('',(2.396485496935,-17.4,-24.60868744872));
#1179 = CARTESIAN_POINT('',(2.362452183347,-17.40053520323,
    -24.60666717646));
#1180 = CARTESIAN_POINT('',(2.328565361734,-17.4016043562,-24.602630348)
  );
#1181 = CARTESIAN_POINT('',(2.29495417415,-17.4031938141,-24.59662165637
    ));
#1182 = CARTESIAN_POINT('',(2.261746913142,-17.40527754084,
    -24.58872677152));
#1183 = CARTESIAN_POINT('',(2.213032341896,-17.40906363421,
    -24.57433354596));
#1184 = CARTESIAN_POINT('',(2.197115591236,-17.41042051772,
    -24.56916893683));
#1185 = CARTESIAN_POINT('',(2.181331765855,-17.41188365386,
    -24.56359195511));
#1186 = CARTESIAN_POINT('',(2.165690276657,-17.41344873795,
    -24.5576166822));
#1187 = CARTESIAN_POINT('',(2.150198949359,-17.41511126636,
    -24.5512578387));
#1188 = CARTESIAN_POINT('',(2.106349539364,-17.4201303688,
    -24.53202218128));
#1189 = CARTESIAN_POINT('',(2.078391241782,-17.42371326818,
    -24.51824688946));
#1190 = CARTESIAN_POINT('',(2.051008539995,-17.42758700398,
    -24.50329559018));
#1191 = CARTESIAN_POINT('',(2.024219030657,-17.43172307399,
    -24.48726069923));
#1192 = CARTESIAN_POINT('',(1.998038498827,-17.43609270443,
    -24.4702363669));
#1193 = CARTESIAN_POINT('',(1.888800778182,-17.45564342912,
    -24.39365207093));
#1194 = CARTESIAN_POINT('',(1.811819766008,-17.47280947114,
    -24.3254216321));
#1195 = CARTESIAN_POINT('',(1.741112275813,-17.49131279086,
    -24.25036055633));
#1196 = CARTESIAN_POINT('',(1.676083339836,-17.51055007239,
    -24.17039774829));
#1197 = CARTESIAN_POINT('',(1.616063725114,-17.53015660036,
    -24.08675006321));
#1198 = CARTESIAN_POINT('',(1.560391074981,-17.54992877478,-24.));
#1199 = PCURVE('',#129,#1200);
#1200 = DEFINITIONAL_REPRESENTATION('',(#1201),#1244);
#1201 = B_SPLINE_CURVE_WITH_KNOTS('',6,(#1202,#1203,#1204,#1205,#1206,
    #1207,#1208,#1209,#1210,#1211,#1212,#1213,#1214,#1215,#1216,#1217,
    #1218,#1219,#1220,#1221,#1222,#1223,#1224,#1225,#1226,#1227,#1228,
    #1229,#1230,#1231,#1232,#1233,#1234,#1235,#1236,#1237,#1238,#1239,
    #1240,#1241,#1242,#1243),.UNSPECIFIED.,.F.,.F.,(7,5,5,5,5,5,5,5,7),(
    0.,0.277794243644,0.362477814056,0.408004139471,0.499999324542,
    0.592731840265,0.63824879689,0.722885180442,1.),.UNSPECIFIED.);
#1202 = CARTESIAN_POINT('',(1.794889419096,29.870144235957));
#1203 = CARTESIAN_POINT('',(1.799844556927,29.81433537065));
#1204 = CARTESIAN_POINT('',(1.804628803614,29.754157886693));
#1205 = CARTESIAN_POINT('',(1.809208029319,29.688944739508));
#1206 = CARTESIAN_POINT('',(1.813511349331,29.618021933788));
#1207 = CARTESIAN_POINT('',(1.81742579674,29.540790731571));
#1208 = CARTESIAN_POINT('',(1.821816960033,29.43122747296));
#1209 = CARTESIAN_POINT('',(1.822791721579,29.405007064885));
#1210 = CARTESIAN_POINT('',(1.823709778718,29.378177206612));
#1211 = CARTESIAN_POINT('',(1.824565649646,29.350754049038));
#1212 = CARTESIAN_POINT('',(1.825353954925,29.322755559004));
#1213 = CARTESIAN_POINT('',(1.826454053857,29.278850719875));
#1214 = CARTESIAN_POINT('',(1.826817530839,29.263343848608));
#1215 = CARTESIAN_POINT('',(1.827158956641,29.24768722512));
#1216 = CARTESIAN_POINT('',(1.827477477565,29.231888757276));
#1217 = CARTESIAN_POINT('',(1.827772278009,29.215957941189));
#1218 = CARTESIAN_POINT('',(1.828588781458,29.167469374098));
#1219 = CARTESIAN_POINT('',(1.829035386752,29.134513336657));
#1220 = CARTESIAN_POINT('',(1.829375266668,29.101162464132));
#1221 = CARTESIAN_POINT('',(1.829603598958,29.067542272532));
#1222 = CARTESIAN_POINT('',(1.829717868801,29.033779078637));
#1223 = CARTESIAN_POINT('',(1.829717868801,28.965950185997));
#1224 = CARTESIAN_POINT('',(1.829601759721,28.931916872408));
#1225 = CARTESIAN_POINT('',(1.829369759127,28.898030050796));
#1226 = CARTESIAN_POINT('',(1.829024461241,28.864418863212));
#1227 = CARTESIAN_POINT('',(1.828570836933,28.831211602204));
#1228 = CARTESIAN_POINT('',(1.82774401152,28.782497030957));
#1229 = CARTESIAN_POINT('',(1.827447351521,28.766580280297));
#1230 = CARTESIAN_POINT('',(1.827127033944,28.750796454917));
#1231 = CARTESIAN_POINT('',(1.826783876116,28.735154965719));
#1232 = CARTESIAN_POINT('',(1.826418732471,28.719663638421));
#1233 = CARTESIAN_POINT('',(1.825314305484,28.675814228425));
#1234 = CARTESIAN_POINT('',(1.824523549241,28.647855930844));
#1235 = CARTESIAN_POINT('',(1.823665495843,28.620473229057));
#1236 = CARTESIAN_POINT('',(1.822745511524,28.593683719718));
#1237 = CARTESIAN_POINT('',(1.821769058733,28.567503187889));
#1238 = CARTESIAN_POINT('',(1.817377925262,28.458265467243));
#1239 = CARTESIAN_POINT('',(1.813469242553,28.38128445507));
#1240 = CARTESIAN_POINT('',(1.809174430013,28.310576964874));
#1241 = CARTESIAN_POINT('',(1.804605417147,28.245548028898));
#1242 = CARTESIAN_POINT('',(1.799832462702,28.185528414176));
#1243 = CARTESIAN_POINT('',(1.794889419096,28.129855764043));
#1244 = ( GEOMETRIC_REPRESENTATION_CONTEXT(2) 
PARAMETRIC_REPRESENTATION_CONTEXT() REPRESENTATION_CONTEXT('2D SPACE',''
  ) );
#1245 = PCURVE('',#1246,#1251);
#1246 = CYLINDRICAL_SURFACE('',#1247,2.6);
#1247 = AXIS2_PLACEMENT_3D('',#1248,#1249,#1250);
#1248 = CARTESIAN_POINT('',(2.430535310938,-20.,-25.));
#1249 = DIRECTION('',(0.,0.,1.));
#1250 = DIRECTION('',(1.,0.,-0.));
#1251 = DEFINITIONAL_REPRESENTATION('',(#1252),#1295);
#1252 = B_SPLINE_CURVE_WITH_KNOTS('',6,(#1253,#1254,#1255,#1256,#1257,
    #1258,#1259,#1260,#1261,#1262,#1263,#1264,#1265,#1266,#1267,#1268,
    #1269,#1270,#1271,#1272,#1273,#1274,#1275,#1276,#1277,#1278,#1279,
    #1280,#1281,#1282,#1283,#1284,#1285,#1286,#1287,#1288,#1289,#1290,
    #1291,#1292,#1293,#1294),.UNSPECIFIED.,.F.,.F.,(7,5,5,5,5,5,5,5,7),(
    0.,0.277794243644,0.362477814056,0.408004139471,0.499999324542,
    0.592731840265,0.63824879689,0.722885180442,1.),.UNSPECIFIED.);
#1253 = CARTESIAN_POINT('',(1.229540399658,1.));
#1254 = CARTESIAN_POINT('',(1.252318866151,0.913037684005));
#1255 = CARTESIAN_POINT('',(1.276659268422,0.829192396341));
#1256 = CARTESIAN_POINT('',(1.302798234003,0.749051418545));
#1257 = CARTESIAN_POINT('',(1.330968548044,0.673842467431));
#1258 = CARTESIAN_POINT('',(1.361372747311,0.605512284011));
#1259 = CARTESIAN_POINT('',(1.404178368863,0.528928433499));
#1260 = CARTESIAN_POINT('',(1.414401091533,0.511933796971));
#1261 = CARTESIAN_POINT('',(1.424840504405,0.495932685502));
#1262 = CARTESIAN_POINT('',(1.43549074827,0.481019583045));
#1263 = CARTESIAN_POINT('',(1.446345710323,0.467287132735));
#1264 = CARTESIAN_POINT('',(1.463341342847,0.448127041077));
#1265 = CARTESIAN_POINT('',(1.469339251677,0.441797279996));
#1266 = CARTESIAN_POINT('',(1.475390511887,0.435852217741));
#1267 = CARTESIAN_POINT('',(1.481492317228,0.430306562219));
#1268 = CARTESIAN_POINT('',(1.487641293972,0.425174365154));
#1269 = CARTESIAN_POINT('',(1.506346112421,0.410960920946));
#1270 = CARTESIAN_POINT('',(1.51904457242,0.403188223532));
#1271 = CARTESIAN_POINT('',(1.531883736995,0.39727382112));
#1272 = CARTESIAN_POINT('',(1.544818616085,0.39330082196));
#1273 = CARTESIAN_POINT('',(1.557804373473,0.391312551279));
#1274 = CARTESIAN_POINT('',(1.583892409104,0.391312551279));
#1275 = CARTESIAN_POINT('',(1.596982055427,0.39333282354));
#1276 = CARTESIAN_POINT('',(1.610019583587,0.397369651994));
#1277 = CARTESIAN_POINT('',(1.62295915836,0.403378343626));
#1278 = CARTESIAN_POINT('',(1.635754791473,0.411273228478));
#1279 = CARTESIAN_POINT('',(1.654547667321,0.425666454033));
#1280 = CARTESIAN_POINT('',(1.660691526217,0.430831063169));
#1281 = CARTESIAN_POINT('',(1.666788008697,0.436408044885));
#1282 = CARTESIAN_POINT('',(1.672833771524,0.442383317795));
#1283 = CARTESIAN_POINT('',(1.678826037822,0.448742161299));
#1284 = CARTESIAN_POINT('',(1.695801316341,0.467977818715));
#1285 = CARTESIAN_POINT('',(1.706641463292,0.481753110536));
#1286 = CARTESIAN_POINT('',(1.717276800455,0.496704409811));
#1287 = CARTESIAN_POINT('',(1.727701345187,0.51273930077));
#1288 = CARTESIAN_POINT('',(1.737909369677,0.5297636331));
#1289 = CARTESIAN_POINT('',(1.78059147249,0.60634792907));
#1290 = CARTESIAN_POINT('',(1.810899613704,0.674578367897));
#1291 = CARTESIAN_POINT('',(1.838986136846,0.749639443663));
#1292 = CARTESIAN_POINT('',(1.865052338055,0.829602251703));
#1293 = CARTESIAN_POINT('',(1.889329383853,0.913249936789));
#1294 = CARTESIAN_POINT('',(1.912052253931,1.));
#1295 = ( GEOMETRIC_REPRESENTATION_CONTEXT(2) 
PARAMETRIC_REPRESENTATION_CONTEXT() REPRESENTATION_CONTEXT('2D SPACE',''
  ) );
#1296 = ORIENTED_EDGE('',*,*,#1297,.F.);
#1297 = EDGE_CURVE('',#1298,#1153,#1300,.T.);
#1298 = VERTEX_POINT('',#1299);
#1299 = CARTESIAN_POINT('',(-20.6993204531,-17.54992877478,-24.));
#1300 = SURFACE_CURVE('',#1301,(#1305,#1311),.PCURVE_S1.);
#1301 = LINE('',#1302,#1303);
#1302 = CARTESIAN_POINT('',(-26.56946468906,-17.54992877478,-24.));
#1303 = VECTOR('',#1304,1.);
#1304 = DIRECTION('',(1.,0.,0.));
#1305 = PCURVE('',#129,#1306);
#1306 = DEFINITIONAL_REPRESENTATION('',(#1307),#1310);
#1307 = B_SPLINE_CURVE_WITH_KNOTS('',1,(#1308,#1309),.UNSPECIFIED.,.F.,
  .F.,(2,2),(-5.999999999062E-07,34.0000006),.PIECEWISE_BEZIER_KNOTS.);
#1308 = CARTESIAN_POINT('',(1.794889419096,-5.999999999062E-07));
#1309 = CARTESIAN_POINT('',(1.794889419096,34.0000006));
#1310 = ( GEOMETRIC_REPRESENTATION_CONTEXT(2) 
PARAMETRIC_REPRESENTATION_CONTEXT() REPRESENTATION_CONTEXT('2D SPACE',''
  ) );
#1311 = PCURVE('',#100,#1312);
#1312 = DEFINITIONAL_REPRESENTATION('',(#1313),#1316);
#1313 = B_SPLINE_CURVE_WITH_KNOTS('',1,(#1314,#1315),.UNSPECIFIED.,.F.,
  .F.,(2,2),(-5.999999999062E-07,34.0000006),.PIECEWISE_BEZIER_KNOTS.);
#1314 = CARTESIAN_POINT('',(-5.999999999062E-07,6.450071225216));
#1315 = CARTESIAN_POINT('',(34.0000006,6.450071225216));
#1316 = ( GEOMETRIC_REPRESENTATION_CONTEXT(2) 
PARAMETRIC_REPRESENTATION_CONTEXT() REPRESENTATION_CONTEXT('2D SPACE',''
  ) );
#1317 = ORIENTED_EDGE('',*,*,#1318,.T.);
#1318 = EDGE_CURVE('',#1298,#1104,#1319,.T.);
#1319 = SURFACE_CURVE('',#1320,(#1363,#1409),.PCURVE_S1.);
#1320 = B_SPLINE_CURVE_WITH_KNOTS('',6,(#1321,#1322,#1323,#1324,#1325,
    #1326,#1327,#1328,#1329,#1330,#1331,#1332,#1333,#1334,#1335,#1336,
    #1337,#1338,#1339,#1340,#1341,#1342,#1343,#1344,#1345,#1346,#1347,
    #1348,#1349,#1350,#1351,#1352,#1353,#1354,#1355,#1356,#1357,#1358,
    #1359,#1360,#1361,#1362),.UNSPECIFIED.,.F.,.F.,(7,5,5,5,5,5,5,5,7),(
    0.,0.277794163044,0.362477708991,0.40800402131,0.499999225222,
    0.592731805499,0.638248793784,0.722885203247,1.),.UNSPECIFIED.);
#1321 = CARTESIAN_POINT('',(-20.6993204531,-17.54992877478,-24.));
#1322 = CARTESIAN_POINT('',(-20.75512931841,-17.53010822346,
    -24.08696231599));
#1323 = CARTESIAN_POINT('',(-20.81530680236,-17.51045400274,
    -24.17080760365));
#1324 = CARTESIAN_POINT('',(-20.88051994955,-17.49117132268,
    -24.25094858145));
#1325 = CARTESIAN_POINT('',(-20.95144275527,-17.47262803984,
    -24.32615753256));
#1326 = CARTESIAN_POINT('',(-21.02867395749,-17.45543316714,
    -24.39448771598));
#1327 = CARTESIAN_POINT('',(-21.13823721613,-17.43587852777,
    -24.47107156652));
#1328 = CARTESIAN_POINT('',(-21.16445762416,-17.431515651,
    -24.48806620302));
#1329 = CARTESIAN_POINT('',(-21.19128748241,-17.4273875102,
    -24.50406731447));
#1330 = CARTESIAN_POINT('',(-21.21871064001,-17.42352297922,
    -24.51898041694));
#1331 = CARTESIAN_POINT('',(-21.24670913009,-17.41995062892,
    -24.53271286728));
#1332 = CARTESIAN_POINT('',(-21.29061396918,-17.41495048801,
    -24.55187295892));
#1333 = CARTESIAN_POINT('',(-21.30612084045,-17.41329532587,-24.55820272
    ));
#1334 = CARTESIAN_POINT('',(-21.32177746394,-17.41173794446,
    -24.56414778225));
#1335 = CARTESIAN_POINT('',(-21.33757593178,-17.4102828433,
    -24.56969343778));
#1336 = CARTESIAN_POINT('',(-21.35350674787,-17.40893431785,
    -24.57482563484));
#1337 = CARTESIAN_POINT('',(-21.40199533093,-17.40519511378,
    -24.58903908373));
#1338 = CARTESIAN_POINT('',(-21.43495134771,-17.4031435224,
    -24.5968117777));
#1339 = CARTESIAN_POINT('',(-21.46830220851,-17.40157897309,
    -24.60272617652));
#1340 = CARTESIAN_POINT('',(-21.50192241235,-17.40052672326,
    -24.60669917553));
#1341 = CARTESIAN_POINT('',(-21.53568562704,-17.4,-24.60868744872));
#1342 = CARTESIAN_POINT('',(-21.60351450304,-17.4,-24.60868744872));
#1343 = CARTESIAN_POINT('',(-21.63754781665,-17.40053520323,
    -24.60666717645));
#1344 = CARTESIAN_POINT('',(-21.67143463828,-17.4016043562,-24.602630348
    ));
#1345 = CARTESIAN_POINT('',(-21.70504582585,-17.4031938141,
    -24.59662165637));
#1346 = CARTESIAN_POINT('',(-21.73825308683,-17.40527754084,
    -24.58872677152));
#1347 = CARTESIAN_POINT('',(-21.7869676581,-17.40906363421,
    -24.57433354596));
#1348 = CARTESIAN_POINT('',(-21.80288440876,-17.41042051772,
    -24.56916893683));
#1349 = CARTESIAN_POINT('',(-21.81866823414,-17.41188365386,
    -24.56359195511));
#1350 = CARTESIAN_POINT('',(-21.83430972334,-17.41344873795,
    -24.5576166822));
#1351 = CARTESIAN_POINT('',(-21.84980105064,-17.41511126636,
    -24.5512578387));
#1352 = CARTESIAN_POINT('',(-21.89365044953,-17.42013036753,
    -24.53202218615));
#1353 = CARTESIAN_POINT('',(-21.92160876057,-17.42371326879,
    -24.51824688704));
#1354 = CARTESIAN_POINT('',(-21.94899147055,-17.42758700551,
    -24.50329558425));
#1355 = CARTESIAN_POINT('',(-21.97578097264,-17.4317230742,
    -24.48726069847));
#1356 = CARTESIAN_POINT('',(-22.00196149124,-17.43609270265,
    -24.47023637386));
#1357 = CARTESIAN_POINT('',(-22.11119922181,-17.45564342912,
    -24.39365207093));
#1358 = CARTESIAN_POINT('',(-22.18818023399,-17.47280947114,
    -24.3254216321));
#1359 = CARTESIAN_POINT('',(-22.25888772418,-17.49131279086,
    -24.25036055633));
#1360 = CARTESIAN_POINT('',(-22.32391666016,-17.51055007239,
    -24.17039774829));
#1361 = CARTESIAN_POINT('',(-22.38393627488,-17.53015660036,
    -24.08675006321));
#1362 = CARTESIAN_POINT('',(-22.43960892501,-17.54992877478,-24.));
#1363 = PCURVE('',#129,#1364);
#1364 = DEFINITIONAL_REPRESENTATION('',(#1365),#1408);
#1365 = B_SPLINE_CURVE_WITH_KNOTS('',6,(#1366,#1367,#1368,#1369,#1370,
    #1371,#1372,#1373,#1374,#1375,#1376,#1377,#1378,#1379,#1380,#1381,
    #1382,#1383,#1384,#1385,#1386,#1387,#1388,#1389,#1390,#1391,#1392,
    #1393,#1394,#1395,#1396,#1397,#1398,#1399,#1400,#1401,#1402,#1403,
    #1404,#1405,#1406,#1407),.UNSPECIFIED.,.F.,.F.,(7,5,5,5,5,5,5,5,7),(
    0.,0.277794163044,0.362477708991,0.40800402131,0.499999225222,
    0.592731805499,0.638248793784,0.722885203247,1.),.UNSPECIFIED.);
#1366 = CARTESIAN_POINT('',(1.794889419096,5.870144235957));
#1367 = CARTESIAN_POINT('',(1.799844556927,5.81433537065));
#1368 = CARTESIAN_POINT('',(1.804628803614,5.754157886693));
#1369 = CARTESIAN_POINT('',(1.809208029319,5.688944739508));
#1370 = CARTESIAN_POINT('',(1.813511349331,5.618021933788));
#1371 = CARTESIAN_POINT('',(1.81742579674,5.540790731571));
#1372 = CARTESIAN_POINT('',(1.821816960034,5.431227472929));
#1373 = CARTESIAN_POINT('',(1.822791721579,5.405007064896));
#1374 = CARTESIAN_POINT('',(1.823709778717,5.378177206646));
#1375 = CARTESIAN_POINT('',(1.824565649646,5.350754049046));
#1376 = CARTESIAN_POINT('',(1.825353954926,5.322755558968));
#1377 = CARTESIAN_POINT('',(1.826454053857,5.278850719875));
#1378 = CARTESIAN_POINT('',(1.826817530839,5.263343848608));
#1379 = CARTESIAN_POINT('',(1.827158956641,5.24768722512));
#1380 = CARTESIAN_POINT('',(1.827477477565,5.231888757276));
#1381 = CARTESIAN_POINT('',(1.827772278009,5.215957941189));
#1382 = CARTESIAN_POINT('',(1.828588781727,5.167469358124));
#1383 = CARTESIAN_POINT('',(1.829035386823,5.134513341343));
#1384 = CARTESIAN_POINT('',(1.829375266533,5.101162480552));
#1385 = CARTESIAN_POINT('',(1.829603598814,5.067542276704));
#1386 = CARTESIAN_POINT('',(1.829717868801,5.033779062021));
#1387 = CARTESIAN_POINT('',(1.829717868801,4.965950186017));
#1388 = CARTESIAN_POINT('',(1.829601759721,4.931916872404));
#1389 = CARTESIAN_POINT('',(1.829369759127,4.898030050776));
#1390 = CARTESIAN_POINT('',(1.829024461241,4.864418863207));
#1391 = CARTESIAN_POINT('',(1.828570836933,4.831211602223));
#1392 = CARTESIAN_POINT('',(1.82774401152,4.782497030957));
#1393 = CARTESIAN_POINT('',(1.827447351521,4.766580280297));
#1394 = CARTESIAN_POINT('',(1.827127033944,4.750796454917));
#1395 = CARTESIAN_POINT('',(1.826783876116,4.735154965719));
#1396 = CARTESIAN_POINT('',(1.826418732471,4.719663638421));
#1397 = CARTESIAN_POINT('',(1.825314305764,4.675814239529));
#1398 = CARTESIAN_POINT('',(1.824523549102,4.647855928485));
#1399 = CARTESIAN_POINT('',(1.823665495503,4.620473218503));
#1400 = CARTESIAN_POINT('',(1.822745511481,4.593683716418));
#1401 = CARTESIAN_POINT('',(1.821769059132,4.567503197816));
#1402 = CARTESIAN_POINT('',(1.817377925262,4.458265467243));
#1403 = CARTESIAN_POINT('',(1.813469242553,4.38128445507));
#1404 = CARTESIAN_POINT('',(1.809174430013,4.310576964874));
#1405 = CARTESIAN_POINT('',(1.804605417147,4.245548028898));
#1406 = CARTESIAN_POINT('',(1.799832462702,4.185528414176));
#1407 = CARTESIAN_POINT('',(1.794889419096,4.129855764043));
#1408 = ( GEOMETRIC_REPRESENTATION_CONTEXT(2) 
PARAMETRIC_REPRESENTATION_CONTEXT() REPRESENTATION_CONTEXT('2D SPACE',''
  ) );
#1409 = PCURVE('',#1410,#1415);
#1410 = CYLINDRICAL_SURFACE('',#1411,2.6);
#1411 = AXIS2_PLACEMENT_3D('',#1412,#1413,#1414);
#1412 = CARTESIAN_POINT('',(-21.56946468906,-20.,-25.));
#1413 = DIRECTION('',(0.,0.,1.));
#1414 = DIRECTION('',(1.,0.,-0.));
#1415 = DEFINITIONAL_REPRESENTATION('',(#1416),#1459);
#1416 = B_SPLINE_CURVE_WITH_KNOTS('',6,(#1417,#1418,#1419,#1420,#1421,
    #1422,#1423,#1424,#1425,#1426,#1427,#1428,#1429,#1430,#1431,#1432,
    #1433,#1434,#1435,#1436,#1437,#1438,#1439,#1440,#1441,#1442,#1443,
    #1444,#1445,#1446,#1447,#1448,#1449,#1450,#1451,#1452,#1453,#1454,
    #1455,#1456,#1457,#1458),.UNSPECIFIED.,.F.,.F.,(7,5,5,5,5,5,5,5,7),(
    0.,0.277794163044,0.362477708991,0.40800402131,0.499999225222,
    0.592731805499,0.638248793784,0.722885203247,1.),.UNSPECIFIED.);
#1417 = CARTESIAN_POINT('',(1.229540399658,1.));
#1418 = CARTESIAN_POINT('',(1.252318866151,0.913037684005));
#1419 = CARTESIAN_POINT('',(1.276659268422,0.829192396341));
#1420 = CARTESIAN_POINT('',(1.302798234003,0.749051418545));
#1421 = CARTESIAN_POINT('',(1.330968548044,0.673842467431));
#1422 = CARTESIAN_POINT('',(1.361372747311,0.605512284011));
#1423 = CARTESIAN_POINT('',(1.404178368875,0.528928433477));
#1424 = CARTESIAN_POINT('',(1.414401091529,0.511933796974));
#1425 = CARTESIAN_POINT('',(1.424840504392,0.495932685521));
#1426 = CARTESIAN_POINT('',(1.435490748267,0.481019583052));
#1427 = CARTESIAN_POINT('',(1.446345710337,0.467287132719));
#1428 = CARTESIAN_POINT('',(1.463341342847,0.448127041077));
#1429 = CARTESIAN_POINT('',(1.469339251677,0.441797279996));
#1430 = CARTESIAN_POINT('',(1.475390511887,0.435852217741));
#1431 = CARTESIAN_POINT('',(1.481492317228,0.430306562219));
#1432 = CARTESIAN_POINT('',(1.487641293972,0.425174365154));
#1433 = CARTESIAN_POINT('',(1.506346118583,0.410960916263));
#1434 = CARTESIAN_POINT('',(1.519044570623,0.403188222293));
#1435 = CARTESIAN_POINT('',(1.531883730671,0.397273823475));
#1436 = CARTESIAN_POINT('',(1.544818614471,0.393300824466));
#1437 = CARTESIAN_POINT('',(1.557804379864,0.391312551279));
#1438 = CARTESIAN_POINT('',(1.583892409096,0.391312551279));
#1439 = CARTESIAN_POINT('',(1.596982055429,0.393332823543));
#1440 = CARTESIAN_POINT('',(1.610019583595,0.397369651997));
#1441 = CARTESIAN_POINT('',(1.622959158362,0.403378343625));
#1442 = CARTESIAN_POINT('',(1.635754791466,0.411273228473));
#1443 = CARTESIAN_POINT('',(1.654547667321,0.425666454033));
#1444 = CARTESIAN_POINT('',(1.660691526217,0.430831063169));
#1445 = CARTESIAN_POINT('',(1.666788008697,0.436408044885));
#1446 = CARTESIAN_POINT('',(1.672833771524,0.442383317795));
#1447 = CARTESIAN_POINT('',(1.678826037822,0.448742161299));
#1448 = CARTESIAN_POINT('',(1.695801312042,0.467977813844));
#1449 = CARTESIAN_POINT('',(1.706641464224,0.481753112959));
#1450 = CARTESIAN_POINT('',(1.717276804558,0.496704415742));
#1451 = CARTESIAN_POINT('',(1.727701346455,0.512739301522));
#1452 = CARTESIAN_POINT('',(1.737909365798,0.52976362614));
#1453 = CARTESIAN_POINT('',(1.78059147249,0.60634792907));
#1454 = CARTESIAN_POINT('',(1.810899613704,0.674578367897));
#1455 = CARTESIAN_POINT('',(1.838986136846,0.749639443663));
#1456 = CARTESIAN_POINT('',(1.865052338055,0.829602251703));
#1457 = CARTESIAN_POINT('',(1.889329383853,0.913249936789));
#1458 = CARTESIAN_POINT('',(1.912052253931,1.));
#1459 = ( GEOMETRIC_REPRESENTATION_CONTEXT(2) 
PARAMETRIC_REPRESENTATION_CONTEXT() REPRESENTATION_CONTEXT('2D SPACE',''
  ) );
#1460 = ADVANCED_FACE('',(#1461),#1246,.F.);
#1461 = FACE_BOUND('',#1462,.F.);
#1462 = EDGE_LOOP('',(#1463,#1487,#1510,#1532,#1533,#1555));
#1463 = ORIENTED_EDGE('',*,*,#1464,.F.);
#1464 = EDGE_CURVE('',#1465,#1465,#1467,.T.);
#1465 = VERTEX_POINT('',#1466);
#1466 = CARTESIAN_POINT('',(5.030535310938,-20.,-20.2));
#1467 = SURFACE_CURVE('',#1468,(#1473,#1480),.PCURVE_S1.);
#1468 = CIRCLE('',#1469,2.6);
#1469 = AXIS2_PLACEMENT_3D('',#1470,#1471,#1472);
#1470 = CARTESIAN_POINT('',(2.430535310938,-20.,-20.2));
#1471 = DIRECTION('',(0.,0.,1.));
#1472 = DIRECTION('',(1.,0.,-0.));
#1473 = PCURVE('',#1246,#1474);
#1474 = DEFINITIONAL_REPRESENTATION('',(#1475),#1479);
#1475 = LINE('',#1476,#1477);
#1476 = CARTESIAN_POINT('',(0.,4.8));
#1477 = VECTOR('',#1478,1.);
#1478 = DIRECTION('',(1.,0.));
#1479 = ( GEOMETRIC_REPRESENTATION_CONTEXT(2) 
PARAMETRIC_REPRESENTATION_CONTEXT() REPRESENTATION_CONTEXT('2D SPACE',''
  ) );
#1480 = PCURVE('',#44,#1481);
#1481 = DEFINITIONAL_REPRESENTATION('',(#1482),#1486);
#1482 = CIRCLE('',#1483,2.6);
#1483 = AXIS2_PLACEMENT_2D('',#1484,#1485);
#1484 = CARTESIAN_POINT('',(30.,4.));
#1485 = DIRECTION('',(1.,0.));
#1486 = ( GEOMETRIC_REPRESENTATION_CONTEXT(2) 
PARAMETRIC_REPRESENTATION_CONTEXT() REPRESENTATION_CONTEXT('2D SPACE',''
  ) );
#1487 = ORIENTED_EDGE('',*,*,#1488,.F.);
#1488 = EDGE_CURVE('',#1489,#1465,#1491,.T.);
#1489 = VERTEX_POINT('',#1490);
#1490 = CARTESIAN_POINT('',(5.030535310938,-20.,-24.));
#1491 = SEAM_CURVE('',#1492,(#1496,#1503),.PCURVE_S1.);
#1492 = LINE('',#1493,#1494);
#1493 = CARTESIAN_POINT('',(5.030535310938,-20.,-25.));
#1494 = VECTOR('',#1495,1.);
#1495 = DIRECTION('',(0.,0.,1.));
#1496 = PCURVE('',#1246,#1497);
#1497 = DEFINITIONAL_REPRESENTATION('',(#1498),#1502);
#1498 = LINE('',#1499,#1500);
#1499 = CARTESIAN_POINT('',(6.28318530718,-0.));
#1500 = VECTOR('',#1501,1.);
#1501 = DIRECTION('',(0.,1.));
#1502 = ( GEOMETRIC_REPRESENTATION_CONTEXT(2) 
PARAMETRIC_REPRESENTATION_CONTEXT() REPRESENTATION_CONTEXT('2D SPACE',''
  ) );
#1503 = PCURVE('',#1246,#1504);
#1504 = DEFINITIONAL_REPRESENTATION('',(#1505),#1509);
#1505 = LINE('',#1506,#1507);
#1506 = CARTESIAN_POINT('',(0.,-0.));
#1507 = VECTOR('',#1508,1.);
#1508 = DIRECTION('',(0.,1.));
#1509 = ( GEOMETRIC_REPRESENTATION_CONTEXT(2) 
PARAMETRIC_REPRESENTATION_CONTEXT() REPRESENTATION_CONTEXT('2D SPACE',''
  ) );
#1510 = ORIENTED_EDGE('',*,*,#1511,.T.);
#1511 = EDGE_CURVE('',#1489,#1132,#1512,.T.);
#1512 = SURFACE_CURVE('',#1513,(#1518,#1525),.PCURVE_S1.);
#1513 = CIRCLE('',#1514,2.6);
#1514 = AXIS2_PLACEMENT_3D('',#1515,#1516,#1517);
#1515 = CARTESIAN_POINT('',(2.430535310938,-20.,-24.));
#1516 = DIRECTION('',(0.,0.,1.));
#1517 = DIRECTION('',(1.,0.,-0.));
#1518 = PCURVE('',#1246,#1519);
#1519 = DEFINITIONAL_REPRESENTATION('',(#1520),#1524);
#1520 = LINE('',#1521,#1522);
#1521 = CARTESIAN_POINT('',(0.,1.));
#1522 = VECTOR('',#1523,1.);
#1523 = DIRECTION('',(1.,0.));
#1524 = ( GEOMETRIC_REPRESENTATION_CONTEXT(2) 
PARAMETRIC_REPRESENTATION_CONTEXT() REPRESENTATION_CONTEXT('2D SPACE',''
  ) );
#1525 = PCURVE('',#100,#1526);
#1526 = DEFINITIONAL_REPRESENTATION('',(#1527),#1531);
#1527 = CIRCLE('',#1528,2.6);
#1528 = AXIS2_PLACEMENT_2D('',#1529,#1530);
#1529 = CARTESIAN_POINT('',(29.,4.));
#1530 = DIRECTION('',(1.,0.));
#1531 = ( GEOMETRIC_REPRESENTATION_CONTEXT(2) 
PARAMETRIC_REPRESENTATION_CONTEXT() REPRESENTATION_CONTEXT('2D SPACE',''
  ) );
#1532 = ORIENTED_EDGE('',*,*,#1152,.T.);
#1533 = ORIENTED_EDGE('',*,*,#1534,.T.);
#1534 = EDGE_CURVE('',#1153,#1489,#1535,.T.);
#1535 = SURFACE_CURVE('',#1536,(#1541,#1548),.PCURVE_S1.);
#1536 = CIRCLE('',#1537,2.6);
#1537 = AXIS2_PLACEMENT_3D('',#1538,#1539,#1540);
#1538 = CARTESIAN_POINT('',(2.430535310938,-20.,-24.));
#1539 = DIRECTION('',(0.,0.,1.));
#1540 = DIRECTION('',(1.,0.,-0.));
#1541 = PCURVE('',#1246,#1542);
#1542 = DEFINITIONAL_REPRESENTATION('',(#1543),#1547);
#1543 = LINE('',#1544,#1545);
#1544 = CARTESIAN_POINT('',(0.,1.));
#1545 = VECTOR('',#1546,1.);
#1546 = DIRECTION('',(1.,0.));
#1547 = ( GEOMETRIC_REPRESENTATION_CONTEXT(2) 
PARAMETRIC_REPRESENTATION_CONTEXT() REPRESENTATION_CONTEXT('2D SPACE',''
  ) );
#1548 = PCURVE('',#100,#1549);
#1549 = DEFINITIONAL_REPRESENTATION('',(#1550),#1554);
#1550 = CIRCLE('',#1551,2.6);
#1551 = AXIS2_PLACEMENT_2D('',#1552,#1553);
#1552 = CARTESIAN_POINT('',(29.,4.));
#1553 = DIRECTION('',(1.,0.));
#1554 = ( GEOMETRIC_REPRESENTATION_CONTEXT(2) 
PARAMETRIC_REPRESENTATION_CONTEXT() REPRESENTATION_CONTEXT('2D SPACE',''
  ) );
#1555 = ORIENTED_EDGE('',*,*,#1488,.T.);
#1556 = ADVANCED_FACE('',(#1557),#1410,.F.);
#1557 = FACE_BOUND('',#1558,.F.);
#1558 = EDGE_LOOP('',(#1559,#1583,#1606,#1628,#1629,#1651));
#1559 = ORIENTED_EDGE('',*,*,#1560,.F.);
#1560 = EDGE_CURVE('',#1561,#1561,#1563,.T.);
#1561 = VERTEX_POINT('',#1562);
#1562 = CARTESIAN_POINT('',(-18.96946468906,-20.,-20.2));
#1563 = SURFACE_CURVE('',#1564,(#1569,#1576),.PCURVE_S1.);
#1564 = CIRCLE('',#1565,2.6);
#1565 = AXIS2_PLACEMENT_3D('',#1566,#1567,#1568);
#1566 = CARTESIAN_POINT('',(-21.56946468906,-20.,-20.2));
#1567 = DIRECTION('',(0.,0.,1.));
#1568 = DIRECTION('',(1.,0.,-0.));
#1569 = PCURVE('',#1410,#1570);
#1570 = DEFINITIONAL_REPRESENTATION('',(#1571),#1575);
#1571 = LINE('',#1572,#1573);
#1572 = CARTESIAN_POINT('',(0.,4.8));
#1573 = VECTOR('',#1574,1.);
#1574 = DIRECTION('',(1.,0.));
#1575 = ( GEOMETRIC_REPRESENTATION_CONTEXT(2) 
PARAMETRIC_REPRESENTATION_CONTEXT() REPRESENTATION_CONTEXT('2D SPACE',''
  ) );
#1576 = PCURVE('',#44,#1577);
#1577 = DEFINITIONAL_REPRESENTATION('',(#1578),#1582);
#1578 = CIRCLE('',#1579,2.6);
#1579 = AXIS2_PLACEMENT_2D('',#1580,#1581);
#1580 = CARTESIAN_POINT('',(6.,4.));
#1581 = DIRECTION('',(1.,0.));
#1582 = ( GEOMETRIC_REPRESENTATION_CONTEXT(2) 
PARAMETRIC_REPRESENTATION_CONTEXT() REPRESENTATION_CONTEXT('2D SPACE',''
  ) );
#1583 = ORIENTED_EDGE('',*,*,#1584,.F.);
#1584 = EDGE_CURVE('',#1585,#1561,#1587,.T.);
#1585 = VERTEX_POINT('',#1586);
#1586 = CARTESIAN_POINT('',(-18.96946468906,-20.,-24.));
#1587 = SEAM_CURVE('',#1588,(#1592,#1599),.PCURVE_S1.);
#1588 = LINE('',#1589,#1590);
#1589 = CARTESIAN_POINT('',(-18.96946468906,-20.,-25.));
#1590 = VECTOR('',#1591,1.);
#1591 = DIRECTION('',(0.,0.,1.));
#1592 = PCURVE('',#1410,#1593);
#1593 = DEFINITIONAL_REPRESENTATION('',(#1594),#1598);
#1594 = LINE('',#1595,#1596);
#1595 = CARTESIAN_POINT('',(6.28318530718,-0.));
#1596 = VECTOR('',#1597,1.);
#1597 = DIRECTION('',(0.,1.));
#1598 = ( GEOMETRIC_REPRESENTATION_CONTEXT(2) 
PARAMETRIC_REPRESENTATION_CONTEXT() REPRESENTATION_CONTEXT('2D SPACE',''
  ) );
#1599 = PCURVE('',#1410,#1600);
#1600 = DEFINITIONAL_REPRESENTATION('',(#1601),#1605);
#1601 = LINE('',#1602,#1603);
#1602 = CARTESIAN_POINT('',(0.,-0.));
#1603 = VECTOR('',#1604,1.);
#1604 = DIRECTION('',(0.,1.));
#1605 = ( GEOMETRIC_REPRESENTATION_CONTEXT(2) 
PARAMETRIC_REPRESENTATION_CONTEXT() REPRESENTATION_CONTEXT('2D SPACE',''
  ) );
#1606 = ORIENTED_EDGE('',*,*,#1607,.T.);
#1607 = EDGE_CURVE('',#1585,#1298,#1608,.T.);
#1608 = SURFACE_CURVE('',#1609,(#1614,#1621),.PCURVE_S1.);
#1609 = CIRCLE('',#1610,2.6);
#1610 = AXIS2_PLACEMENT_3D('',#1611,#1612,#1613);
#1611 = CARTESIAN_POINT('',(-21.56946468906,-20.,-24.));
#1612 = DIRECTION('',(0.,0.,1.));
#1613 = DIRECTION('',(1.,0.,-0.));
#1614 = PCURVE('',#1410,#1615);
#1615 = DEFINITIONAL_REPRESENTATION('',(#1616),#1620);
#1616 = LINE('',#1617,#1618);
#1617 = CARTESIAN_POINT('',(0.,1.));
#1618 = VECTOR('',#1619,1.);
#1619 = DIRECTION('',(1.,0.));
#1620 = ( GEOMETRIC_REPRESENTATION_CONTEXT(2) 
PARAMETRIC_REPRESENTATION_CONTEXT() REPRESENTATION_CONTEXT('2D SPACE',''
  ) );
#1621 = PCURVE('',#100,#1622);
#1622 = DEFINITIONAL_REPRESENTATION('',(#1623),#1627);
#1623 = CIRCLE('',#1624,2.6);
#1624 = AXIS2_PLACEMENT_2D('',#1625,#1626);
#1625 = CARTESIAN_POINT('',(5.,4.));
#1626 = DIRECTION('',(1.,0.));
#1627 = ( GEOMETRIC_REPRESENTATION_CONTEXT(2) 
PARAMETRIC_REPRESENTATION_CONTEXT() REPRESENTATION_CONTEXT('2D SPACE',''
  ) );
#1628 = ORIENTED_EDGE('',*,*,#1318,.T.);
#1629 = ORIENTED_EDGE('',*,*,#1630,.T.);
#1630 = EDGE_CURVE('',#1104,#1585,#1631,.T.);
#1631 = SURFACE_CURVE('',#1632,(#1637,#1644),.PCURVE_S1.);
#1632 = CIRCLE('',#1633,2.6);
#1633 = AXIS2_PLACEMENT_3D('',#1634,#1635,#1636);
#1634 = CARTESIAN_POINT('',(-21.56946468906,-20.,-24.));
#1635 = DIRECTION('',(0.,0.,1.));
#1636 = DIRECTION('',(1.,0.,-0.));
#1637 = PCURVE('',#1410,#1638);
#1638 = DEFINITIONAL_REPRESENTATION('',(#1639),#1643);
#1639 = LINE('',#1640,#1641);
#1640 = CARTESIAN_POINT('',(0.,1.));
#1641 = VECTOR('',#1642,1.);
#1642 = DIRECTION('',(1.,0.));
#1643 = ( GEOMETRIC_REPRESENTATION_CONTEXT(2) 
PARAMETRIC_REPRESENTATION_CONTEXT() REPRESENTATION_CONTEXT('2D SPACE',''
  ) );
#1644 = PCURVE('',#100,#1645);
#1645 = DEFINITIONAL_REPRESENTATION('',(#1646),#1650);
#1646 = CIRCLE('',#1647,2.6);
#1647 = AXIS2_PLACEMENT_2D('',#1648,#1649);
#1648 = CARTESIAN_POINT('',(5.,4.));
#1649 = DIRECTION('',(1.,0.));
#1650 = ( GEOMETRIC_REPRESENTATION_CONTEXT(2) 
PARAMETRIC_REPRESENTATION_CONTEXT() REPRESENTATION_CONTEXT('2D SPACE',''
  ) );
#1651 = ORIENTED_EDGE('',*,*,#1584,.T.);
#1652 = ADVANCED_FACE('',(#1653),#100,.F.);
#1653 = FACE_BOUND('',#1654,.F.);
#1654 = EDGE_LOOP('',(#1655,#1656,#1677,#1678,#1679,#1680,#1681,#1682,
    #1683,#1684));
#1655 = ORIENTED_EDGE('',*,*,#84,.F.);
#1656 = ORIENTED_EDGE('',*,*,#1657,.T.);
#1657 = EDGE_CURVE('',#57,#352,#1658,.T.);
#1658 = SURFACE_CURVE('',#1659,(#1663,#1670),.PCURVE_S1.);
#1659 = LINE('',#1660,#1661);
#1660 = CARTESIAN_POINT('',(-26.56946468906,-24.,-24.));
#1661 = VECTOR('',#1662,1.);
#1662 = DIRECTION('',(1.,0.,-0.));
#1663 = PCURVE('',#100,#1664);
#1664 = DEFINITIONAL_REPRESENTATION('',(#1665),#1669);
#1665 = LINE('',#1666,#1667);
#1666 = CARTESIAN_POINT('',(0.,0.));
#1667 = VECTOR('',#1668,1.);
#1668 = DIRECTION('',(1.,0.));
#1669 = ( GEOMETRIC_REPRESENTATION_CONTEXT(2) 
PARAMETRIC_REPRESENTATION_CONTEXT() REPRESENTATION_CONTEXT('2D SPACE',''
  ) );
#1670 = PCURVE('',#72,#1671);
#1671 = DEFINITIONAL_REPRESENTATION('',(#1672),#1676);
#1672 = LINE('',#1673,#1674);
#1673 = CARTESIAN_POINT('',(0.,0.));
#1674 = VECTOR('',#1675,1.);
#1675 = DIRECTION('',(0.,1.));
#1676 = ( GEOMETRIC_REPRESENTATION_CONTEXT(2) 
PARAMETRIC_REPRESENTATION_CONTEXT() REPRESENTATION_CONTEXT('2D SPACE',''
  ) );
#1677 = ORIENTED_EDGE('',*,*,#374,.T.);
#1678 = ORIENTED_EDGE('',*,*,#1131,.F.);
#1679 = ORIENTED_EDGE('',*,*,#1511,.F.);
#1680 = ORIENTED_EDGE('',*,*,#1534,.F.);
#1681 = ORIENTED_EDGE('',*,*,#1297,.F.);
#1682 = ORIENTED_EDGE('',*,*,#1607,.F.);
#1683 = ORIENTED_EDGE('',*,*,#1630,.F.);
#1684 = ORIENTED_EDGE('',*,*,#1103,.F.);
#1685 = ADVANCED_FACE('',(#1686),#72,.F.);
#1686 = FACE_BOUND('',#1687,.F.);
#1687 = EDGE_LOOP('',(#1688,#1689,#1690,#1691));
#1688 = ORIENTED_EDGE('',*,*,#351,.F.);
#1689 = ORIENTED_EDGE('',*,*,#1657,.F.);
#1690 = ORIENTED_EDGE('',*,*,#56,.T.);
#1691 = ORIENTED_EDGE('',*,*,#1692,.T.);
#1692 = EDGE_CURVE('',#22,#329,#1693,.T.);
#1693 = SURFACE_CURVE('',#1694,(#1698,#1705),.PCURVE_S1.);
#1694 = LINE('',#1695,#1696);
#1695 = CARTESIAN_POINT('',(-27.56946468906,-24.,-20.2));
#1696 = VECTOR('',#1697,1.);
#1697 = DIRECTION('',(1.,0.,-0.));
#1698 = PCURVE('',#72,#1699);
#1699 = DEFINITIONAL_REPRESENTATION('',(#1700),#1704);
#1700 = LINE('',#1701,#1702);
#1701 = CARTESIAN_POINT('',(3.8,-1.));
#1702 = VECTOR('',#1703,1.);
#1703 = DIRECTION('',(0.,1.));
#1704 = ( GEOMETRIC_REPRESENTATION_CONTEXT(2) 
PARAMETRIC_REPRESENTATION_CONTEXT() REPRESENTATION_CONTEXT('2D SPACE',''
  ) );
#1705 = PCURVE('',#44,#1706);
#1706 = DEFINITIONAL_REPRESENTATION('',(#1707),#1711);
#1707 = LINE('',#1708,#1709);
#1708 = CARTESIAN_POINT('',(0.,0.));
#1709 = VECTOR('',#1710,1.);
#1710 = DIRECTION('',(1.,0.));
#1711 = ( GEOMETRIC_REPRESENTATION_CONTEXT(2) 
PARAMETRIC_REPRESENTATION_CONTEXT() REPRESENTATION_CONTEXT('2D SPACE',''
  ) );
#1712 = ADVANCED_FACE('',(#1713,#1719,#1722),#44,.T.);
#1713 = FACE_BOUND('',#1714,.T.);
#1714 = EDGE_LOOP('',(#1715,#1716,#1717,#1718));
#1715 = ORIENTED_EDGE('',*,*,#21,.F.);
#1716 = ORIENTED_EDGE('',*,*,#1692,.T.);
#1717 = ORIENTED_EDGE('',*,*,#328,.T.);
#1718 = ORIENTED_EDGE('',*,*,#286,.F.);
#1719 = FACE_BOUND('',#1720,.T.);
#1720 = EDGE_LOOP('',(#1721));
#1721 = ORIENTED_EDGE('',*,*,#1560,.F.);
#1722 = FACE_BOUND('',#1723,.T.);
#1723 = EDGE_LOOP('',(#1724));
#1724 = ORIENTED_EDGE('',*,*,#1464,.F.);
#1725 = ( GEOMETRIC_REPRESENTATION_CONTEXT(3) 
GLOBAL_UNCERTAINTY_ASSIGNED_CONTEXT((#1729)) 
GLOBAL_UNIT_ASSIGNED_CONTEXT((#1726,#1727,#1728)) REPRESENTATION_CONTEXT
('Context #1','3D Context with UNIT and UNCERTAINTY') );
#1726 = ( LENGTH_UNIT() NAMED_UNIT(*) SI_UNIT(.MILLI.,.METRE.) );
#1727 = ( NAMED_UNIT(*) PLANE_ANGLE_UNIT() SI_UNIT($,.RADIAN.) );
#1728 = ( NAMED_UNIT(*) SI_UNIT($,.STERADIAN.) SOLID_ANGLE_UNIT() );
#1729 = UNCERTAINTY_MEASURE_WITH_UNIT(LENGTH_MEASURE(1.E-07),#1726,
  'distance_accuracy_value','confusion accuracy');
#1730 = PRODUCT_RELATED_PRODUCT_CATEGORY('part',$,(#7));
ENDSEC;
END-ISO-10303-21;
