<svg xmlns="http://www.w3.org/2000/svg" width="1123" height="794" viewBox="0 0 1123 794">
<rect width="1123" height="794" fill="white"/><rect x="12" y="12" width="1099" height="770" fill="none" stroke="#111" stroke-width="2"/>
<g font-family="Noto Sans CJK KR,sans-serif" fill="#111"><text x="28" y="48" font-size="24" font-weight="bold">MFG-CT-ENC-01 · v0.8 MANUFACTURING DRAWING</text>
<text x="35" y="106" font-size="14">TOP X-Y</text><polyline points="41.00,357.00 41.00,357.00" fill="none" stroke="#263238" stroke-width="0.8"/>
<polyline points="41.00,357.00 41.00,301.18" fill="none" stroke="#263238" stroke-width="0.8"/>
<polyline points="41.00,301.18 41.00,301.18" fill="none" stroke="#263238" stroke-width="0.8"/>
<polyline points="41.00,357.00 41.00,301.18" fill="none" stroke="#263238" stroke-width="0.8"/>
<polyline points="41.00,357.00 344.00,357.00" fill="none" stroke="#263238" stroke-width="0.8"/>
<polyline points="41.00,357.00 344.00,357.00" fill="none" stroke="#263238" stroke-width="0.8"/>
<polyline points="344.00,357.00 344.00,357.00" fill="none" stroke="#263238" stroke-width="0.8"/>
<polyline points="44.19,357.00 44.19,357.00" fill="none" stroke="#263238" stroke-width="0.8"/>
<polyline points="44.19,357.00 340.81,357.00" fill="none" stroke="#263238" stroke-width="0.8"/>
<polyline points="340.81,357.00 340.81,357.00" fill="none" stroke="#263238" stroke-width="0.8"/>
<polyline points="44.19,357.00 340.81,357.00" fill="none" stroke="#263238" stroke-width="0.8"/>
<polyline points="344.00,357.00 344.00,301.18" fill="none" stroke="#263238" stroke-width="0.8"/>
<polyline points="41.00,301.18 344.00,301.18" fill="none" stroke="#263238" stroke-width="0.8"/>
<polyline points="41.00,301.18 344.00,301.18" fill="none" stroke="#263238" stroke-width="0.8"/>
<polyline points="344.00,301.18 344.00,301.18" fill="none" stroke="#263238" stroke-width="0.8"/>
<polyline points="344.00,357.00 344.00,301.18" fill="none" stroke="#263238" stroke-width="0.8"/>
<polyline points="44.19,357.00 44.19,304.37" fill="none" stroke="#263238" stroke-width="0.8"/>
<polyline points="44.19,304.37 44.19,304.37" fill="none" stroke="#263238" stroke-width="0.8"/>
<polyline points="44.19,357.00 44.19,304.37" fill="none" stroke="#263238" stroke-width="0.8"/>
<polyline points="340.81,357.00 340.81,304.37" fill="none" stroke="#263238" stroke-width="0.8"/>
<polyline points="44.19,304.37 340.81,304.37" fill="none" stroke="#263238" stroke-width="0.8"/>
<polyline points="340.81,357.00 340.81,304.37" fill="none" stroke="#263238" stroke-width="0.8"/>
<polyline points="340.81,304.37 340.81,304.37" fill="none" stroke="#263238" stroke-width="0.8"/>
<polyline points="44.19,304.37 340.81,304.37" fill="none" stroke="#263238" stroke-width="0.8"/><text x="404" y="106" font-size="14">FRONT X-Z</text><polyline points="410.00,357.00 410.00,136.00" fill="none" stroke="#263238" stroke-width="0.8"/>
<polyline points="410.00,357.00 410.00,357.00" fill="none" stroke="#263238" stroke-width="0.8"/>
<polyline points="410.00,357.00 410.00,136.00" fill="none" stroke="#263238" stroke-width="0.8"/>
<polyline points="410.00,136.00 410.00,136.00" fill="none" stroke="#263238" stroke-width="0.8"/>
<polyline points="410.00,357.00 631.00,357.00" fill="none" stroke="#263238" stroke-width="0.8"/>
<polyline points="410.00,136.00 631.00,136.00" fill="none" stroke="#263238" stroke-width="0.8"/>
<polyline points="631.00,357.00 631.00,136.00" fill="none" stroke="#263238" stroke-width="0.8"/>
<polyline points="412.33,354.67 412.33,138.33" fill="none" stroke="#263238" stroke-width="0.8"/>
<polyline points="412.33,354.67 628.67,354.67" fill="none" stroke="#263238" stroke-width="0.8"/>
<polyline points="628.67,354.67 628.67,138.33" fill="none" stroke="#263238" stroke-width="0.8"/>
<polyline points="412.33,138.33 628.67,138.33" fill="none" stroke="#263238" stroke-width="0.8"/>
<polyline points="631.00,136.00 631.00,136.00" fill="none" stroke="#263238" stroke-width="0.8"/>
<polyline points="410.00,136.00 631.00,136.00" fill="none" stroke="#263238" stroke-width="0.8"/>
<polyline points="410.00,357.00 631.00,357.00" fill="none" stroke="#263238" stroke-width="0.8"/>
<polyline points="631.00,357.00 631.00,136.00" fill="none" stroke="#263238" stroke-width="0.8"/>
<polyline points="631.00,357.00 631.00,357.00" fill="none" stroke="#263238" stroke-width="0.8"/>
<polyline points="412.33,354.67 412.33,354.67" fill="none" stroke="#263238" stroke-width="0.8"/>
<polyline points="412.33,354.67 412.33,138.33" fill="none" stroke="#263238" stroke-width="0.8"/>
<polyline points="412.33,138.33 412.33,138.33" fill="none" stroke="#263238" stroke-width="0.8"/>
<polyline points="628.67,138.33 628.67,138.33" fill="none" stroke="#263238" stroke-width="0.8"/>
<polyline points="412.33,138.33 628.67,138.33" fill="none" stroke="#263238" stroke-width="0.8"/>
<polyline points="628.67,354.67 628.67,354.67" fill="none" stroke="#263238" stroke-width="0.8"/>
<polyline points="628.67,354.67 628.67,138.33" fill="none" stroke="#263238" stroke-width="0.8"/>
<polyline points="412.33,354.67 628.67,354.67" fill="none" stroke="#263238" stroke-width="0.8"/><text x="773" y="106" font-size="14">SIDE Y-Z</text><polyline points="779.00,357.00 779.00,136.00" fill="none" stroke="#263238" stroke-width="0.8"/>
<polyline points="779.00,357.00 819.71,357.00" fill="none" stroke="#263238" stroke-width="0.8"/>
<polyline points="819.71,357.00 819.71,136.00" fill="none" stroke="#263238" stroke-width="0.8"/>
<polyline points="779.00,136.00 819.71,136.00" fill="none" stroke="#263238" stroke-width="0.8"/>
<polyline points="779.00,357.00 779.00,357.00" fill="none" stroke="#263238" stroke-width="0.8"/>
<polyline points="779.00,136.00 779.00,136.00" fill="none" stroke="#263238" stroke-width="0.8"/>
<polyline points="779.00,357.00 779.00,136.00" fill="none" stroke="#263238" stroke-width="0.8"/>
<polyline points="779.00,354.67 779.00,138.33" fill="none" stroke="#263238" stroke-width="0.8"/>
<polyline points="779.00,354.67 779.00,354.67" fill="none" stroke="#263238" stroke-width="0.8"/>
<polyline points="779.00,354.67 779.00,138.33" fill="none" stroke="#263238" stroke-width="0.8"/>
<polyline points="779.00,138.33 779.00,138.33" fill="none" stroke="#263238" stroke-width="0.8"/>
<polyline points="779.00,136.00 819.71,136.00" fill="none" stroke="#263238" stroke-width="0.8"/>
<polyline points="819.71,136.00 819.71,136.00" fill="none" stroke="#263238" stroke-width="0.8"/>
<polyline points="819.71,357.00 819.71,357.00" fill="none" stroke="#263238" stroke-width="0.8"/>
<polyline points="819.71,357.00 819.71,136.00" fill="none" stroke="#263238" stroke-width="0.8"/>
<polyline points="779.00,357.00 819.71,357.00" fill="none" stroke="#263238" stroke-width="0.8"/>
<polyline points="779.00,354.67 817.38,354.67" fill="none" stroke="#263238" stroke-width="0.8"/>
<polyline points="817.38,354.67 817.38,138.33" fill="none" stroke="#263238" stroke-width="0.8"/>
<polyline points="779.00,138.33 817.38,138.33" fill="none" stroke="#263238" stroke-width="0.8"/>
<polyline points="779.00,138.33 817.38,138.33" fill="none" stroke="#263238" stroke-width="0.8"/>
<polyline points="817.38,138.33 817.38,138.33" fill="none" stroke="#263238" stroke-width="0.8"/>
<polyline points="779.00,354.67 817.38,354.67" fill="none" stroke="#263238" stroke-width="0.8"/>
<polyline points="817.38,354.67 817.38,138.33" fill="none" stroke="#263238" stroke-width="0.8"/>
<polyline points="817.38,354.67 817.38,354.67" fill="none" stroke="#263238" stroke-width="0.8"/>
<line x1="20" y1="398" x2="1103" y2="398" stroke="#111"/><text x="28" y="418" font-size="11">Drawing MFG-CT-ENC-01 | Part CT-ENC-01 — Control-panel sheet enclosure | Qty 1</text>
<text x="28" y="439" font-size="11">Rev final-design-fabrication-closure-v0.8 | Units mm | Scale NTS, dimensions govern | Third-angle projection | source commit</text>
<text x="28" y="460" font-size="11">93ec6a9c0c2afa3ad72288a967f07b7c8d03c99e</text>
<text x="28" y="481" font-size="11">Material: 2 mm 5052 aluminum | Process/finish: laser + brake + PE stud</text>
<text x="28" y="502" font-size="11">Overall: X 190.000 × Y 35.000 × Z 190.000 mm | general tolerance ISO 2768-m unless noted</text>
<text x="28" y="523" font-size="11">Critical: 190 x35 x190; service-open face; PPR-C11 bezel datum; M4 profile mounts; segregate heater/motor and signal wiring</text>
<text x="28" y="544" font-size="11">GD&amp;T/datums: A=frame mounting plane; B=primary edge; C=mounting-hole centreline; verify datum marking on supplier inspection report</text>
<text x="28" y="565" font-size="11">Inspection: CMM/caliper against STEP and drawing; deburr and visual crack/warp inspection; fit-up, PE bond where metal, reach/access and</text>
<text x="28" y="586" font-size="11">interlock actuation inspection</text>
<text x="28" y="607" font-size="11">Edges: remove burrs; break unspecified sharp edges C0.3–0.5. No unapproved material/tolerance substitution.</text>
<text x="28" y="628" font-size="11">Artifact check: PASS only; fabrication HOLD pending full v0.8 gates. Physical NOT_RUN; machining USER_APPROVAL_REQUIRED.</text></g></svg>
