<svg xmlns="http://www.w3.org/2000/svg" width="1123" height="794" viewBox="0 0 1123 794">
<rect width="1123" height="794" fill="white"/><rect x="12" y="12" width="1099" height="770" fill="none" stroke="#111" stroke-width="2"/>
<g font-family="Noto Sans CJK KR,sans-serif" fill="#111"><text x="28" y="48" font-size="24" font-weight="bold">MFG-CUT-09 · v0.8 MANUFACTURING DRAWING</text>
<text x="35" y="106" font-size="14">TOP X-Y</text><polyline points="262.44,246.50 261.56,232.62 258.96,218.97 254.66,205.74 248.74,193.16 241.29,181.42 232.43,170.71 222.29,161.19 211.04,153.02 198.86,146.32 185.93,141.20 172.47,137.74 158.67,136.00 144.77,136.00 130.97,137.74 117.50,141.20 104.58,146.32 92.39,153.02 81.14,161.19 71.01,170.71 62.15,181.42 54.70,193.16 48.78,205.74 44.48,218.97 41.87,232.62 41.00,246.50 41.87,260.38 44.48,274.03 48.78,287.26 54.70,299.84 62.15,311.58 71.01,322.29 81.14,331.81 92.39,339.98 104.58,346.68 117.50,351.80 130.97,355.26 144.77,357.00 158.67,357.00 172.47,355.26 185.93,351.80 198.86,346.68 211.04,339.98 222.29,331.81 232.43,322.29 241.29,311.58 248.74,299.84 254.66,287.26 258.96,274.03 261.56,260.38 262.44,246.50" fill="none" stroke="#263238" stroke-width="0.8"/>
<polyline points="262.44,246.50 262.44,246.50" fill="none" stroke="#263238" stroke-width="0.8"/>
<polyline points="262.44,246.50 261.56,232.62 258.96,218.97 254.66,205.74 248.74,193.16 241.29,181.42 232.43,170.71 222.29,161.19 211.04,153.02 198.86,146.32 185.93,141.20 172.47,137.74 158.67,136.00 144.77,136.00 130.97,137.74 117.50,141.20 104.58,146.32 92.39,153.02 81.14,161.19 71.01,170.71 62.15,181.42 54.70,193.16 48.78,205.74 44.48,218.97 41.87,232.62 41.00,246.50 41.87,260.38 44.48,274.03 48.78,287.26 54.70,299.84 62.15,311.58 71.01,322.29 81.14,331.81 92.39,339.98 104.58,346.68 117.50,351.80 130.97,355.26 144.77,357.00 158.67,357.00 172.47,355.26 185.93,351.80 198.86,346.68 211.04,339.98 222.29,331.81 232.43,322.29 241.29,311.58 248.74,299.84 254.66,287.26 258.96,274.03 261.56,260.38 262.44,246.50" fill="none" stroke="#263238" stroke-width="0.8"/>
<polyline points="224.79,246.50 223.94,235.35 221.39,224.45 217.21,214.08 211.49,204.46 204.37,195.83 196.02,188.38 186.63,182.30 176.42,177.73 165.63,174.76 154.52,173.48 143.34,173.91 132.36,176.04 121.83,179.82 112.00,185.16 103.10,191.95 95.34,200.01 88.91,209.16 83.94,219.18 80.57,229.85 78.86,240.91 78.86,252.09 80.57,263.15 83.94,273.82 88.91,283.84 95.34,292.99 103.10,301.05 112.00,307.84 121.83,313.18 132.36,316.96 143.34,319.09 154.52,319.52 165.63,318.24 176.42,315.27 186.63,310.70 196.02,304.62 204.37,297.17 211.49,288.54 217.21,278.92 221.39,268.55 223.94,257.65 224.79,246.50" fill="none" stroke="#263238" stroke-width="0.8"/>
<polyline points="224.79,246.50 223.94,235.35 221.39,224.45 217.21,214.08 211.49,204.46 204.37,195.83 196.02,188.38 186.63,182.30 176.42,177.73 165.63,174.76 154.52,173.48 143.34,173.91 132.36,176.04 121.83,179.82 112.00,185.16 103.10,191.95 95.34,200.01 88.91,209.16 83.94,219.18 80.57,229.85 78.86,240.91 78.86,252.09 80.57,263.15 83.94,273.82 88.91,283.84 95.34,292.99 103.10,301.05 112.00,307.84 121.83,313.18 132.36,316.96 143.34,319.09 154.52,319.52 165.63,318.24 176.42,315.27 186.63,310.70 196.02,304.62 204.37,297.17 211.49,288.54 217.21,278.92 221.39,268.55 223.94,257.65 224.79,246.50" fill="none" stroke="#263238" stroke-width="0.8"/>
<polyline points="224.79,246.50 224.79,246.50" fill="none" stroke="#263238" stroke-width="0.8"/><text x="404" y="106" font-size="14">FRONT X-Z</text><polyline points="427.27,136.00 427.20,136.00 426.99,136.00 426.66,136.00 426.20,136.00 425.62,136.00 424.93,136.00 424.14,136.00 423.26,136.00 422.31,136.00 421.30,136.00 420.25,136.00 419.17,136.00 418.09,136.00 417.02,136.00 415.97,136.00 414.96,136.00 414.01,136.00 413.13,136.00 412.34,136.00 411.65,136.00 411.07,136.00 410.61,136.00 410.27,136.00 410.07,136.00 410.00,136.00 410.07,136.00 410.27,136.00 410.61,136.00 411.07,136.00 411.65,136.00 412.34,136.00 413.13,136.00 414.01,136.00 414.96,136.00 415.97,136.00 417.02,136.00 418.09,136.00 419.17,136.00 420.25,136.00 421.30,136.00 422.31,136.00 423.26,136.00 424.14,136.00 424.93,136.00 425.62,136.00 426.20,136.00 426.66,136.00 426.99,136.00 427.20,136.00 427.27,136.00" fill="none" stroke="#263238" stroke-width="0.8"/>
<polyline points="427.27,357.00 427.27,136.00" fill="none" stroke="#263238" stroke-width="0.8"/>
<polyline points="427.27,357.00 427.20,357.00 426.99,357.00 426.66,357.00 426.20,357.00 425.62,357.00 424.93,357.00 424.14,357.00 423.26,357.00 422.31,357.00 421.30,357.00 420.25,357.00 419.17,357.00 418.09,357.00 417.02,357.00 415.97,357.00 414.96,357.00 414.01,357.00 413.13,357.00 412.34,357.00 411.65,357.00 411.07,357.00 410.61,357.00 410.27,357.00 410.07,357.00 410.00,357.00 410.07,357.00 410.27,357.00 410.61,357.00 411.07,357.00 411.65,357.00 412.34,357.00 413.13,357.00 414.01,357.00 414.96,357.00 415.97,357.00 417.02,357.00 418.09,357.00 419.17,357.00 420.25,357.00 421.30,357.00 422.31,357.00 423.26,357.00 424.14,357.00 424.93,357.00 425.62,357.00 426.20,357.00 426.66,357.00 426.99,357.00 427.20,357.00 427.27,357.00" fill="none" stroke="#263238" stroke-width="0.8"/>
<polyline points="424.33,136.00 424.26,136.00 424.06,136.00 423.74,136.00 423.29,136.00 422.74,136.00 422.09,136.00 421.35,136.00 420.56,136.00 419.72,136.00 418.85,136.00 417.98,136.00 417.12,136.00 416.30,136.00 415.54,136.00 414.84,136.00 414.24,136.00 413.74,136.00 413.35,136.00 413.09,136.00 412.95,136.00 412.95,136.00 413.09,136.00 413.35,136.00 413.74,136.00 414.24,136.00 414.84,136.00 415.54,136.00 416.30,136.00 417.12,136.00 417.98,136.00 418.85,136.00 419.72,136.00 420.56,136.00 421.35,136.00 422.09,136.00 422.74,136.00 423.29,136.00 423.74,136.00 424.06,136.00 424.26,136.00 424.33,136.00" fill="none" stroke="#263238" stroke-width="0.8"/>
<polyline points="424.33,357.00 424.26,357.00 424.06,357.00 423.74,357.00 423.29,357.00 422.74,357.00 422.09,357.00 421.35,357.00 420.56,357.00 419.72,357.00 418.85,357.00 417.98,357.00 417.12,357.00 416.30,357.00 415.54,357.00 414.84,357.00 414.24,357.00 413.74,357.00 413.35,357.00 413.09,357.00 412.95,357.00 412.95,357.00 413.09,357.00 413.35,357.00 413.74,357.00 414.24,357.00 414.84,357.00 415.54,357.00 416.30,357.00 417.12,357.00 417.98,357.00 418.85,357.00 419.72,357.00 420.56,357.00 421.35,357.00 422.09,357.00 422.74,357.00 423.29,357.00 423.74,357.00 424.06,357.00 424.26,357.00 424.33,357.00" fill="none" stroke="#263238" stroke-width="0.8"/>
<polyline points="424.33,357.00 424.33,136.00" fill="none" stroke="#263238" stroke-width="0.8"/><text x="773" y="106" font-size="14">SIDE Y-Z</text><polyline points="787.62,136.00 788.70,136.00 789.76,136.00 790.79,136.00 791.77,136.00 792.69,136.00 793.53,136.00 794.27,136.00 794.90,136.00 795.43,136.00 795.83,136.00 796.10,136.00 796.23,136.00 796.23,136.00 796.10,136.00 795.83,136.00 795.43,136.00 794.90,136.00 794.27,136.00 793.53,136.00 792.69,136.00 791.77,136.00 790.79,136.00 789.76,136.00 788.70,136.00 787.62,136.00 786.53,136.00 785.47,136.00 784.44,136.00 783.46,136.00 782.54,136.00 781.71,136.00 780.96,136.00 780.33,136.00 779.80,136.00 779.41,136.00 779.14,136.00 779.00,136.00 779.00,136.00 779.14,136.00 779.41,136.00 779.80,136.00 780.33,136.00 780.96,136.00 781.71,136.00 782.54,136.00 783.46,136.00 784.44,136.00 785.47,136.00 786.53,136.00 787.62,136.00" fill="none" stroke="#263238" stroke-width="0.8"/>
<polyline points="787.62,357.00 787.62,136.00" fill="none" stroke="#263238" stroke-width="0.8"/>
<polyline points="787.62,357.00 788.70,357.00 789.76,357.00 790.79,357.00 791.77,357.00 792.69,357.00 793.53,357.00 794.27,357.00 794.90,357.00 795.43,357.00 795.83,357.00 796.10,357.00 796.23,357.00 796.23,357.00 796.10,357.00 795.83,357.00 795.43,357.00 794.90,357.00 794.27,357.00 793.53,357.00 792.69,357.00 791.77,357.00 790.79,357.00 789.76,357.00 788.70,357.00 787.62,357.00 786.53,357.00 785.47,357.00 784.44,357.00 783.46,357.00 782.54,357.00 781.71,357.00 780.96,357.00 780.33,357.00 779.80,357.00 779.41,357.00 779.14,357.00 779.00,357.00 779.00,357.00 779.14,357.00 779.41,357.00 779.80,357.00 780.33,357.00 780.96,357.00 781.71,357.00 782.54,357.00 783.46,357.00 784.44,357.00 785.47,357.00 786.53,357.00 787.62,357.00" fill="none" stroke="#263238" stroke-width="0.8"/>
<polyline points="787.62,136.00 788.49,136.00 789.33,136.00 790.14,136.00 790.89,136.00 791.57,136.00 792.15,136.00 792.62,136.00 792.98,136.00 793.21,136.00 793.31,136.00 793.28,136.00 793.11,136.00 792.81,136.00 792.40,136.00 791.87,136.00 791.24,136.00 790.53,136.00 789.75,136.00 788.91,136.00 788.05,136.00 787.18,136.00 786.32,136.00 785.49,136.00 784.70,136.00 783.99,136.00 783.36,136.00 782.83,136.00 782.42,136.00 782.12,136.00 781.96,136.00 781.92,136.00 782.02,136.00 782.25,136.00 782.61,136.00 783.08,136.00 783.66,136.00 784.34,136.00 785.09,136.00 785.90,136.00 786.75,136.00 787.62,136.00" fill="none" stroke="#263238" stroke-width="0.8"/>
<polyline points="787.62,357.00 788.49,357.00 789.33,357.00 790.14,357.00 790.89,357.00 791.57,357.00 792.15,357.00 792.62,357.00 792.98,357.00 793.21,357.00 793.31,357.00 793.28,357.00 793.11,357.00 792.81,357.00 792.40,357.00 791.87,357.00 791.24,357.00 790.53,357.00 789.75,357.00 788.91,357.00 788.05,357.00 787.18,357.00 786.32,357.00 785.49,357.00 784.70,357.00 783.99,357.00 783.36,357.00 782.83,357.00 782.42,357.00 782.12,357.00 781.96,357.00 781.92,357.00 782.02,357.00 782.25,357.00 782.61,357.00 783.08,357.00 783.66,357.00 784.34,357.00 785.09,357.00 785.90,357.00 786.75,357.00 787.62,357.00" fill="none" stroke="#263238" stroke-width="0.8"/>
<polyline points="787.62,357.00 787.62,136.00" fill="none" stroke="#263238" stroke-width="0.8"/>
<line x1="20" y1="398" x2="1103" y2="398" stroke="#111"/><text x="28" y="418" font-size="11">Drawing MFG-CUT-09 | Part CUT-09 — Shredder chamber distance sleeve | Qty 4</text>
<text x="28" y="439" font-size="11">Rev final-design-fabrication-closure-v0.8 | Units mm | Scale NTS, dimensions govern | Third-angle projection | source commit</text>
<text x="28" y="460" font-size="11">93ec6a9c0c2afa3ad72288a967f07b7c8d03c99e</text>
<text x="28" y="481" font-size="11">Material: S275JR steel | Process/finish: turn, drill/ream and match-face as a set</text>
<text x="28" y="502" font-size="11">Overall: X 10.000 × Y 10.000 × Z 128.000 mm | general tolerance ISO 2768-m unless noted</text>
<text x="28" y="523" font-size="11">Critical: OD10.00 +/-0.05; ID6.60 +0.10/0; length128.00 +/-0.03; four-piece matched length spread &lt;=0.03; face parallelism &lt;=0.03; deburr C0.2</text>
<text x="28" y="544" font-size="11">max</text>
<text x="28" y="565" font-size="11">GD&amp;T/datums: A=frame mounting face; B=primary bearing axis; C=secondary bearing/fastener axis; verify datum marking on supplier inspection report</text>
<text x="28" y="586" font-size="11">Inspection: CMM/caliper against STEP and drawing; deburr and visual crack/warp inspection; bore gauge; matched-pair centre distance and axis</text>
<text x="28" y="607" font-size="11">parallelism</text>
<text x="28" y="628" font-size="11">Edges: remove burrs; break unspecified sharp edges C0.3–0.5. No unapproved material/tolerance substitution.</text>
<text x="28" y="649" font-size="11">Artifact check: PASS only; fabrication HOLD pending full v0.8 gates. Physical NOT_RUN; machining USER_APPROVAL_REQUIRED.</text></g></svg>
