<svg xmlns="http://www.w3.org/2000/svg" width="1123" height="794" viewBox="0 0 1123 794">
<rect width="1123" height="794" fill="white"/><rect x="12" y="12" width="1099" height="770" fill="none" stroke="#111" stroke-width="2"/>
<g font-family="Noto Sans CJK KR,sans-serif" fill="#111"><text x="28" y="48" font-size="24" font-weight="bold">MFG-DRV-F01P · v0.8 MANUFACTURING DRAWING</text>
<text x="35" y="106" font-size="14">TOP X-Y</text><polyline points="175.67,344.38 175.67,357.00 175.67,344.38 175.67,331.75 175.67,344.38" fill="none" stroke="#263238" stroke-width="0.8"/>
<polyline points="41.00,344.38 175.67,344.38" fill="none" stroke="#263238" stroke-width="0.8"/>
<polyline points="41.00,344.38 41.00,357.00 41.00,344.38 41.00,331.75 41.00,344.38" fill="none" stroke="#263238" stroke-width="0.8"/>
<polyline points="175.67,344.38 175.67,350.94 175.67,337.81 175.67,344.38" fill="none" stroke="#263238" stroke-width="0.8"/>
<polyline points="209.33,344.38 209.33,350.94 209.33,337.81 209.33,344.38" fill="none" stroke="#263238" stroke-width="0.8"/>
<polyline points="175.67,344.38 209.33,344.38" fill="none" stroke="#263238" stroke-width="0.8"/>
<polyline points="209.33,344.38 209.33,357.00 209.33,344.38 209.33,331.75 209.33,344.38" fill="none" stroke="#263238" stroke-width="0.8"/>
<polyline points="344.00,344.38 344.00,357.00 344.00,344.38 344.00,331.75 344.00,344.38" fill="none" stroke="#263238" stroke-width="0.8"/>
<polyline points="209.33,344.38 344.00,344.38" fill="none" stroke="#263238" stroke-width="0.8"/><text x="404" y="106" font-size="14">FRONT X-Z</text><polyline points="544.67,331.75 544.67,344.38 544.67,357.00 544.67,344.38 544.67,331.75" fill="none" stroke="#263238" stroke-width="0.8"/>
<polyline points="410.00,331.75 544.67,331.75" fill="none" stroke="#263238" stroke-width="0.8"/>
<polyline points="410.00,331.75 410.00,344.38 410.00,357.00 410.00,344.38 410.00,331.75" fill="none" stroke="#263238" stroke-width="0.8"/>
<polyline points="544.67,336.80 544.67,348.16 544.67,348.16 544.67,336.80" fill="none" stroke="#263238" stroke-width="0.8"/>
<polyline points="578.33,336.80 578.33,348.16 578.33,348.16 578.33,336.80" fill="none" stroke="#263238" stroke-width="0.8"/>
<polyline points="544.67,336.80 578.33,336.80" fill="none" stroke="#263238" stroke-width="0.8"/>
<polyline points="578.33,331.75 578.33,344.38 578.33,357.00 578.33,344.38 578.33,331.75" fill="none" stroke="#263238" stroke-width="0.8"/>
<polyline points="713.00,331.75 713.00,344.38 713.00,357.00 713.00,344.38 713.00,331.75" fill="none" stroke="#263238" stroke-width="0.8"/>
<polyline points="578.33,331.75 713.00,331.75" fill="none" stroke="#263238" stroke-width="0.8"/><text x="773" y="106" font-size="14">SIDE Y-Z</text><polyline points="905.50,104.00 779.00,230.50 905.50,357.00 1032.00,230.50 905.50,104.00" fill="none" stroke="#263238" stroke-width="0.8"/>
<polyline points="905.50,104.00 905.50,104.00" fill="none" stroke="#263238" stroke-width="0.8"/>
<polyline points="905.50,104.00 779.00,230.50 905.50,357.00 1032.00,230.50 905.50,104.00" fill="none" stroke="#263238" stroke-width="0.8"/>
<polyline points="905.50,154.60 839.77,268.45 971.23,268.45 905.50,154.60" fill="none" stroke="#263238" stroke-width="0.8"/>
<polyline points="905.50,154.60 839.77,268.45 971.23,268.45 905.50,154.60" fill="none" stroke="#263238" stroke-width="0.8"/>
<polyline points="905.50,154.60 905.50,154.60" fill="none" stroke="#263238" stroke-width="0.8"/>
<polyline points="905.50,104.00 779.00,230.50 905.50,357.00 1032.00,230.50 905.50,104.00" fill="none" stroke="#263238" stroke-width="0.8"/>
<polyline points="905.50,104.00 779.00,230.50 905.50,357.00 1032.00,230.50 905.50,104.00" fill="none" stroke="#263238" stroke-width="0.8"/>
<polyline points="905.50,104.00 905.50,104.00" fill="none" stroke="#263238" stroke-width="0.8"/>
<line x1="20" y1="398" x2="1103" y2="398" stroke="#111"/><text x="28" y="418" font-size="11">Drawing MFG-DRV-F01P | Part DRV-F01P — Replaceable waisted shear pin coupon | Qty 6</text>
<text x="28" y="439" font-size="11">Rev final-design-fabrication-closure-v0.8 | Units mm | Scale NTS, dimensions govern | Third-angle projection | source commit</text>
<text x="28" y="460" font-size="11">df59fd138780f538a5fa62dad6e2770b49bf4d94</text>
<text x="28" y="481" font-size="11">Material: C360/CuZn39Pb3 brass | Process/finish: turn waist to released digital baseline; optional coupon correlation may refine later</text>
<text x="28" y="502" font-size="11">Overall: X 36.000 × Y 3.000 × Z 3.000 mm | general tolerance ISO 2768-m unless noted</text>
<text x="28" y="523" font-size="11">Critical: Ø3 x36 blank; starting waist Ø1.8 x4; target 10.35 N.m motor-side; one-shot BROKEN state; optional empirical calibration is not a</text>
<text x="28" y="544" font-size="11">design-release gate</text>
<text x="28" y="565" font-size="11">GD&amp;T/datums: A=shaft bore axis; B=stack face; C=key/dowel angular datum; verify datum marking on supplier inspection report</text>
<text x="28" y="586" font-size="11">Inspection: CMM/caliper against STEP and drawing; deburr and visual crack/warp inspection; CMM centre distance; blue-check backlash/contact;</text>
<text x="28" y="607" font-size="11">verify keyed torque path</text>
<text x="28" y="628" font-size="11">Edges: remove burrs; break unspecified sharp edges C0.3–0.5. No unapproved material/tolerance substitution.</text>
<text x="28" y="649" font-size="11">Release: PASS — physical validation NOT_RUN; procurement and machining USER_APPROVAL_REQUIRED.</text></g></svg>
