<svg xmlns="http://www.w3.org/2000/svg" width="1123" height="794" viewBox="0 0 1123 794">
<rect width="1123" height="794" fill="white"/><rect x="12" y="12" width="1099" height="770" fill="none" stroke="#111" stroke-width="2"/>
<g font-family="Noto Sans CJK KR,sans-serif" fill="#111"><text x="28" y="48" font-size="24" font-weight="bold">MFG-FM-RL-01 · v0.8 MANUFACTURING DRAWING</text>
<text x="35" y="106" font-size="14">TOP X-Y</text><polyline points="294.00,230.50 277.05,167.25 230.75,120.95 167.50,104.00 104.25,120.95 57.95,167.25 41.00,230.50 57.95,293.75 104.25,340.05 167.50,357.00 230.75,340.05 277.05,293.75 294.00,230.50" fill="none" stroke="#263238" stroke-width="0.8"/>
<polyline points="294.00,230.50 294.00,230.50" fill="none" stroke="#263238" stroke-width="0.8"/>
<polyline points="294.00,230.50 277.05,167.25 230.75,120.95 167.50,104.00 104.25,120.95 57.95,167.25 41.00,230.50 57.95,293.75 104.25,340.05 167.50,357.00 230.75,340.05 277.05,293.75 294.00,230.50" fill="none" stroke="#263238" stroke-width="0.8"/>
<polyline points="193.43,230.50 180.47,208.04 154.53,208.04 141.57,230.50 154.53,252.96 180.47,252.96 193.43,230.50" fill="none" stroke="#263238" stroke-width="0.8"/>
<polyline points="193.43,230.50 180.47,208.04 154.53,208.04 141.57,230.50 154.53,252.96 180.47,252.96 193.43,230.50" fill="none" stroke="#263238" stroke-width="0.8"/>
<polyline points="193.43,230.50 193.43,230.50" fill="none" stroke="#263238" stroke-width="0.8"/><text x="404" y="106" font-size="14">FRONT X-Z</text><polyline points="578.67,104.00 567.37,104.00 536.50,104.00 494.33,104.00 452.17,104.00 421.30,104.00 410.00,104.00 421.30,104.00 452.17,104.00 494.33,104.00 536.50,104.00 567.37,104.00 578.67,104.00" fill="none" stroke="#263238" stroke-width="0.8"/>
<polyline points="578.67,357.00 578.67,104.00" fill="none" stroke="#263238" stroke-width="0.8"/>
<polyline points="578.67,357.00 567.37,357.00 536.50,357.00 494.33,357.00 452.17,357.00 421.30,357.00 410.00,357.00 421.30,357.00 452.17,357.00 494.33,357.00 536.50,357.00 567.37,357.00 578.67,357.00" fill="none" stroke="#263238" stroke-width="0.8"/>
<polyline points="511.62,104.00 502.98,104.00 485.69,104.00 477.05,104.00 485.69,104.00 502.98,104.00 511.62,104.00" fill="none" stroke="#263238" stroke-width="0.8"/>
<polyline points="511.62,357.00 502.98,357.00 485.69,357.00 477.05,357.00 485.69,357.00 502.98,357.00 511.62,357.00" fill="none" stroke="#263238" stroke-width="0.8"/>
<polyline points="511.62,357.00 511.62,104.00" fill="none" stroke="#263238" stroke-width="0.8"/><text x="773" y="106" font-size="14">SIDE Y-Z</text><polyline points="863.33,104.00 905.50,104.00 936.37,104.00 947.67,104.00 936.37,104.00 905.50,104.00 863.33,104.00 821.17,104.00 790.30,104.00 779.00,104.00 790.30,104.00 821.17,104.00 863.33,104.00" fill="none" stroke="#263238" stroke-width="0.8"/>
<polyline points="863.33,357.00 863.33,104.00" fill="none" stroke="#263238" stroke-width="0.8"/>
<polyline points="863.33,357.00 905.50,357.00 936.37,357.00 947.67,357.00 936.37,357.00 905.50,357.00 863.33,357.00 821.17,357.00 790.30,357.00 779.00,357.00 790.30,357.00 821.17,357.00 863.33,357.00" fill="none" stroke="#263238" stroke-width="0.8"/>
<polyline points="863.33,104.00 878.31,104.00 878.31,104.00 863.33,104.00 848.36,104.00 848.36,104.00 863.33,104.00" fill="none" stroke="#263238" stroke-width="0.8"/>
<polyline points="863.33,357.00 878.31,357.00 878.31,357.00 863.33,357.00 848.36,357.00 848.36,357.00 863.33,357.00" fill="none" stroke="#263238" stroke-width="0.8"/>
<polyline points="863.33,357.00 863.33,104.00" fill="none" stroke="#263238" stroke-width="0.8"/>
<line x1="20" y1="398" x2="1103" y2="398" stroke="#111"/><text x="28" y="418" font-size="11">Drawing MFG-FM-RL-01 | Part FM-RL-01 — Puller roller | Qty 2</text>
<text x="28" y="439" font-size="11">Rev final-design-fabrication-closure-v0.8 | Units mm | Scale NTS, dimensions govern | Third-angle projection | source commit</text>
<text x="28" y="460" font-size="11">df59fd138780f538a5fa62dad6e2770b49bf4d94</text>
<text x="28" y="481" font-size="11">Material: 6061-T6 hub + replaceable Shore A 50–70 silicone sleeve | Process/finish: turn + bore</text>
<text x="28" y="502" font-size="11">Overall: X 40.000 × Y 40.000 × Z 60.000 mm | general tolerance ISO 2768-m unless noted</text>
<text x="28" y="523" font-size="11">Critical: finished OD40 x60; bore Ø8.2; TIR &lt;=0.05; Shore A 50-70 sleeve; matched OD within 0.05</text>
<text x="28" y="544" font-size="11">GD&amp;T/datums: A=frame mounting plane; B=primary edge; C=mounting-hole centreline; verify datum marking on supplier inspection report</text>
<text x="28" y="565" font-size="11">Inspection: CMM/caliper against STEP and drawing; deburr and visual crack/warp inspection; fit-up, PE bond where metal, reach/access and</text>
<text x="28" y="586" font-size="11">interlock actuation inspection</text>
<text x="28" y="607" font-size="11">Edges: remove burrs; break unspecified sharp edges C0.3–0.5. No unapproved material/tolerance substitution.</text>
<text x="28" y="628" font-size="11">Release: PASS — physical validation NOT_RUN; procurement and machining USER_APPROVAL_REQUIRED.</text></g></svg>
