<svg xmlns="http://www.w3.org/2000/svg" width="1123" height="794" viewBox="0 0 1123 794">
<rect width="1123" height="794" fill="white"/><rect x="12" y="12" width="1099" height="770" fill="none" stroke="#111" stroke-width="2"/>
<g font-family="Noto Sans CJK KR,sans-serif" fill="#111"><text x="28" y="48" font-size="24" font-weight="bold">MFG-SP-BP-01 · v0.8 MANUFACTURING DRAWING</text>
<text x="35" y="106" font-size="14">TOP X-Y</text><polyline points="41.00,357.00 41.00,357.00" fill="none" stroke="#263238" stroke-width="0.8"/>
<polyline points="41.00,357.00 41.00,342.57" fill="none" stroke="#263238" stroke-width="0.8"/>
<polyline points="41.00,342.57 41.00,342.57" fill="none" stroke="#263238" stroke-width="0.8"/>
<polyline points="41.00,357.00 41.00,342.57" fill="none" stroke="#263238" stroke-width="0.8"/>
<polyline points="41.00,357.00 344.00,357.00" fill="none" stroke="#263238" stroke-width="0.8"/>
<polyline points="41.00,357.00 344.00,357.00" fill="none" stroke="#263238" stroke-width="0.8"/>
<polyline points="344.00,357.00 344.00,357.00" fill="none" stroke="#263238" stroke-width="0.8"/>
<polyline points="64.09,357.00 71.63,357.00 68.75,357.00 59.42,357.00 56.54,357.00 64.09,357.00" fill="none" stroke="#263238" stroke-width="0.8"/>
<polyline points="191.06,357.00 198.60,357.00 195.72,357.00 186.39,357.00 183.51,357.00 191.06,357.00" fill="none" stroke="#263238" stroke-width="0.8"/>
<polyline points="64.09,357.00 71.63,357.00 68.75,357.00 59.42,357.00 56.54,357.00 64.09,357.00" fill="none" stroke="#263238" stroke-width="0.8"/>
<polyline points="127.57,357.00 151.49,357.00 166.27,357.00 166.27,357.00 151.49,357.00 127.57,357.00 103.66,357.00 88.87,357.00 88.87,357.00 103.66,357.00 127.57,357.00" fill="none" stroke="#263238" stroke-width="0.8"/>
<polyline points="191.06,357.00 198.60,357.00 195.72,357.00 186.39,357.00 183.51,357.00 191.06,357.00" fill="none" stroke="#263238" stroke-width="0.8"/>
<polyline points="320.91,357.00 328.46,357.00 325.58,357.00 316.25,357.00 313.37,357.00 320.91,357.00" fill="none" stroke="#263238" stroke-width="0.8"/>
<polyline points="320.91,357.00 328.46,357.00 325.58,357.00 316.25,357.00 313.37,357.00 320.91,357.00" fill="none" stroke="#263238" stroke-width="0.8"/>
<polyline points="344.00,357.00 344.00,342.57" fill="none" stroke="#263238" stroke-width="0.8"/>
<polyline points="41.00,342.57 344.00,342.57" fill="none" stroke="#263238" stroke-width="0.8"/>
<polyline points="41.00,342.57 344.00,342.57" fill="none" stroke="#263238" stroke-width="0.8"/>
<polyline points="344.00,342.57 344.00,342.57" fill="none" stroke="#263238" stroke-width="0.8"/>
<polyline points="64.09,342.57 71.63,342.57 68.75,342.57 59.42,342.57 56.54,342.57 64.09,342.57" fill="none" stroke="#263238" stroke-width="0.8"/>
<polyline points="191.06,342.57 198.60,342.57 195.72,342.57 186.39,342.57 183.51,342.57 191.06,342.57" fill="none" stroke="#263238" stroke-width="0.8"/>
<polyline points="64.09,342.57 71.63,342.57 68.75,342.57 59.42,342.57 56.54,342.57 64.09,342.57" fill="none" stroke="#263238" stroke-width="0.8"/>
<polyline points="127.57,342.57 151.49,342.57 166.27,342.57 166.27,342.57 151.49,342.57 127.57,342.57 103.66,342.57 88.87,342.57 88.87,342.57 103.66,342.57 127.57,342.57" fill="none" stroke="#263238" stroke-width="0.8"/>
<polyline points="191.06,342.57 198.60,342.57 195.72,342.57 186.39,342.57 183.51,342.57 191.06,342.57" fill="none" stroke="#263238" stroke-width="0.8"/>
<polyline points="320.91,342.57 328.46,342.57 325.58,342.57 316.25,342.57 313.37,342.57 320.91,342.57" fill="none" stroke="#263238" stroke-width="0.8"/>
<polyline points="320.91,342.57 328.46,342.57 325.58,342.57 316.25,342.57 313.37,342.57 320.91,342.57" fill="none" stroke="#263238" stroke-width="0.8"/>
<polyline points="344.00,357.00 344.00,342.57" fill="none" stroke="#263238" stroke-width="0.8"/>
<polyline points="64.09,357.00 64.09,342.57" fill="none" stroke="#263238" stroke-width="0.8"/>
<polyline points="191.06,357.00 191.06,342.57" fill="none" stroke="#263238" stroke-width="0.8"/>
<polyline points="64.09,357.00 64.09,342.57" fill="none" stroke="#263238" stroke-width="0.8"/>
<polyline points="127.57,357.00 127.57,342.57" fill="none" stroke="#263238" stroke-width="0.8"/>
<polyline points="191.06,357.00 191.06,342.57" fill="none" stroke="#263238" stroke-width="0.8"/>
<polyline points="320.91,357.00 320.91,342.57" fill="none" stroke="#263238" stroke-width="0.8"/>
<polyline points="320.91,357.00 320.91,342.57" fill="none" stroke="#263238" stroke-width="0.8"/><text x="404" y="106" font-size="14">FRONT X-Z</text><polyline points="410.00,357.00 410.00,183.86" fill="none" stroke="#263238" stroke-width="0.8"/>
<polyline points="410.00,357.00 410.00,357.00" fill="none" stroke="#263238" stroke-width="0.8"/>
<polyline points="410.00,357.00 410.00,183.86" fill="none" stroke="#263238" stroke-width="0.8"/>
<polyline points="410.00,183.86 410.00,183.86" fill="none" stroke="#263238" stroke-width="0.8"/>
<polyline points="410.00,357.00 713.00,357.00" fill="none" stroke="#263238" stroke-width="0.8"/>
<polyline points="410.00,183.86 713.00,183.86" fill="none" stroke="#263238" stroke-width="0.8"/>
<polyline points="713.00,357.00 713.00,183.86" fill="none" stroke="#263238" stroke-width="0.8"/>
<polyline points="433.09,325.98 440.63,331.46 437.75,340.33 428.42,340.33 425.54,331.46 433.09,325.98" fill="none" stroke="#263238" stroke-width="0.8"/>
<polyline points="560.06,325.98 567.60,331.46 564.72,340.33 555.39,340.33 552.51,331.46 560.06,325.98" fill="none" stroke="#263238" stroke-width="0.8"/>
<polyline points="433.09,199.01 440.63,204.49 437.75,213.36 428.42,213.36 425.54,204.49 433.09,199.01" fill="none" stroke="#263238" stroke-width="0.8"/>
<polyline points="496.57,229.74 520.49,237.51 535.27,257.86 535.27,283.00 520.49,303.35 496.57,311.12 472.66,303.35 457.87,283.00 457.87,257.86 472.66,237.51 496.57,229.74" fill="none" stroke="#263238" stroke-width="0.8"/>
<polyline points="560.06,199.01 567.60,204.49 564.72,213.36 555.39,213.36 552.51,204.49 560.06,199.01" fill="none" stroke="#263238" stroke-width="0.8"/>
<polyline points="689.91,320.21 697.46,325.69 694.58,334.56 685.25,334.56 682.37,325.69 689.91,320.21" fill="none" stroke="#263238" stroke-width="0.8"/>
<polyline points="689.91,204.78 697.46,210.26 694.58,219.13 685.25,219.13 682.37,210.26 689.91,204.78" fill="none" stroke="#263238" stroke-width="0.8"/>
<polyline points="713.00,183.86 713.00,183.86" fill="none" stroke="#263238" stroke-width="0.8"/>
<polyline points="410.00,183.86 713.00,183.86" fill="none" stroke="#263238" stroke-width="0.8"/>
<polyline points="410.00,357.00 713.00,357.00" fill="none" stroke="#263238" stroke-width="0.8"/>
<polyline points="713.00,357.00 713.00,183.86" fill="none" stroke="#263238" stroke-width="0.8"/>
<polyline points="433.09,325.98 440.63,331.46 437.75,340.33 428.42,340.33 425.54,331.46 433.09,325.98" fill="none" stroke="#263238" stroke-width="0.8"/>
<polyline points="560.06,325.98 567.60,331.46 564.72,340.33 555.39,340.33 552.51,331.46 560.06,325.98" fill="none" stroke="#263238" stroke-width="0.8"/>
<polyline points="433.09,199.01 440.63,204.49 437.75,213.36 428.42,213.36 425.54,204.49 433.09,199.01" fill="none" stroke="#263238" stroke-width="0.8"/>
<polyline points="496.57,229.74 520.49,237.51 535.27,257.86 535.27,283.00 520.49,303.35 496.57,311.12 472.66,303.35 457.87,283.00 457.87,257.86 472.66,237.51 496.57,229.74" fill="none" stroke="#263238" stroke-width="0.8"/>
<polyline points="560.06,199.01 567.60,204.49 564.72,213.36 555.39,213.36 552.51,204.49 560.06,199.01" fill="none" stroke="#263238" stroke-width="0.8"/>
<polyline points="689.91,320.21 697.46,325.69 694.58,334.56 685.25,334.56 682.37,325.69 689.91,320.21" fill="none" stroke="#263238" stroke-width="0.8"/>
<polyline points="689.91,204.78 697.46,210.26 694.58,219.13 685.25,219.13 682.37,210.26 689.91,204.78" fill="none" stroke="#263238" stroke-width="0.8"/>
<polyline points="713.00,357.00 713.00,357.00" fill="none" stroke="#263238" stroke-width="0.8"/>
<polyline points="433.09,325.98 433.09,325.98" fill="none" stroke="#263238" stroke-width="0.8"/>
<polyline points="560.06,325.98 560.06,325.98" fill="none" stroke="#263238" stroke-width="0.8"/>
<polyline points="433.09,199.01 433.09,199.01" fill="none" stroke="#263238" stroke-width="0.8"/>
<polyline points="496.57,229.74 496.57,229.74" fill="none" stroke="#263238" stroke-width="0.8"/>
<polyline points="560.06,199.01 560.06,199.01" fill="none" stroke="#263238" stroke-width="0.8"/>
<polyline points="689.91,320.21 689.91,320.21" fill="none" stroke="#263238" stroke-width="0.8"/>
<polyline points="689.91,204.78 689.91,204.78" fill="none" stroke="#263238" stroke-width="0.8"/><text x="773" y="106" font-size="14">SIDE Y-Z</text><polyline points="779.00,357.00 779.00,104.00" fill="none" stroke="#263238" stroke-width="0.8"/>
<polyline points="779.00,357.00 800.08,357.00" fill="none" stroke="#263238" stroke-width="0.8"/>
<polyline points="800.08,357.00 800.08,104.00" fill="none" stroke="#263238" stroke-width="0.8"/>
<polyline points="779.00,104.00 800.08,104.00" fill="none" stroke="#263238" stroke-width="0.8"/>
<polyline points="779.00,357.00 779.00,357.00" fill="none" stroke="#263238" stroke-width="0.8"/>
<polyline points="779.00,104.00 779.00,104.00" fill="none" stroke="#263238" stroke-width="0.8"/>
<polyline points="779.00,357.00 779.00,104.00" fill="none" stroke="#263238" stroke-width="0.8"/>
<polyline points="779.00,311.67 779.00,319.68 779.00,332.65 779.00,332.65 779.00,319.68 779.00,311.67" fill="none" stroke="#263238" stroke-width="0.8"/>
<polyline points="779.00,311.67 779.00,319.68 779.00,332.65 779.00,332.65 779.00,319.68 779.00,311.67" fill="none" stroke="#263238" stroke-width="0.8"/>
<polyline points="779.00,126.14 779.00,134.15 779.00,147.11 779.00,147.11 779.00,134.15 779.00,126.14" fill="none" stroke="#263238" stroke-width="0.8"/>
<polyline points="779.00,171.04 779.00,182.40 779.00,212.13 779.00,248.87 779.00,278.60 779.00,289.95 779.00,278.60 779.00,248.87 779.00,212.13 779.00,182.40 779.00,171.04" fill="none" stroke="#263238" stroke-width="0.8"/>
<polyline points="779.00,126.14 779.00,134.15 779.00,147.11 779.00,147.11 779.00,134.15 779.00,126.14" fill="none" stroke="#263238" stroke-width="0.8"/>
<polyline points="779.00,303.24 779.00,311.25 779.00,324.21 779.00,324.21 779.00,311.25 779.00,303.24" fill="none" stroke="#263238" stroke-width="0.8"/>
<polyline points="779.00,134.57 779.00,142.58 779.00,155.55 779.00,155.55 779.00,142.58 779.00,134.57" fill="none" stroke="#263238" stroke-width="0.8"/>
<polyline points="779.00,104.00 800.08,104.00" fill="none" stroke="#263238" stroke-width="0.8"/>
<polyline points="800.08,104.00 800.08,104.00" fill="none" stroke="#263238" stroke-width="0.8"/>
<polyline points="800.08,357.00 800.08,357.00" fill="none" stroke="#263238" stroke-width="0.8"/>
<polyline points="800.08,357.00 800.08,104.00" fill="none" stroke="#263238" stroke-width="0.8"/>
<polyline points="800.08,311.67 800.08,319.68 800.08,332.65 800.08,332.65 800.08,319.68 800.08,311.67" fill="none" stroke="#263238" stroke-width="0.8"/>
<polyline points="800.08,311.67 800.08,319.68 800.08,332.65 800.08,332.65 800.08,319.68 800.08,311.67" fill="none" stroke="#263238" stroke-width="0.8"/>
<polyline points="800.08,126.14 800.08,134.15 800.08,147.11 800.08,147.11 800.08,134.15 800.08,126.14" fill="none" stroke="#263238" stroke-width="0.8"/>
<polyline points="800.08,171.04 800.08,182.40 800.08,212.13 800.08,248.87 800.08,278.60 800.08,289.95 800.08,278.60 800.08,248.87 800.08,212.13 800.08,182.40 800.08,171.04" fill="none" stroke="#263238" stroke-width="0.8"/>
<polyline points="800.08,126.14 800.08,134.15 800.08,147.11 800.08,147.11 800.08,134.15 800.08,126.14" fill="none" stroke="#263238" stroke-width="0.8"/>
<polyline points="800.08,303.24 800.08,311.25 800.08,324.21 800.08,324.21 800.08,311.25 800.08,303.24" fill="none" stroke="#263238" stroke-width="0.8"/>
<polyline points="800.08,134.57 800.08,142.58 800.08,155.55 800.08,155.55 800.08,142.58 800.08,134.57" fill="none" stroke="#263238" stroke-width="0.8"/>
<polyline points="779.00,357.00 800.08,357.00" fill="none" stroke="#263238" stroke-width="0.8"/>
<polyline points="779.00,311.67 800.08,311.67" fill="none" stroke="#263238" stroke-width="0.8"/>
<polyline points="779.00,311.67 800.08,311.67" fill="none" stroke="#263238" stroke-width="0.8"/>
<polyline points="779.00,126.14 800.08,126.14" fill="none" stroke="#263238" stroke-width="0.8"/>
<polyline points="779.00,171.04 800.08,171.04" fill="none" stroke="#263238" stroke-width="0.8"/>
<polyline points="779.00,126.14 800.08,126.14" fill="none" stroke="#263238" stroke-width="0.8"/>
<polyline points="779.00,303.24 800.08,303.24" fill="none" stroke="#263238" stroke-width="0.8"/>
<polyline points="779.00,134.57 800.08,134.57" fill="none" stroke="#263238" stroke-width="0.8"/>
<line x1="20" y1="398" x2="1103" y2="398" stroke="#111"/><text x="28" y="418" font-size="11">Drawing MFG-SP-BP-01 | Part SP-BP-01 — Spool 6001 bearing plate | Qty 2</text>
<text x="28" y="439" font-size="11">Rev final-design-fabrication-closure-v0.8 | Units mm | Scale NTS, dimensions govern | Third-angle projection | source commit</text>
<text x="28" y="460" font-size="11">df59fd138780f538a5fa62dad6e2770b49bf4d94</text>
<text x="28" y="481" font-size="11">Material: 5 mm 6061-T6 | Process/finish: waterjet + bearing-seat finish</text>
<text x="28" y="502" font-size="11">Overall: X 105.000 × Y 5.000 × Z 60.000 mm | general tolerance ISO 2768-m unless noted</text>
<text x="28" y="523" font-size="11">Critical: 105 x5 x60; bearing centre X30, Ø28.2; 4xØ5.5 bearing block + 2xØ5.5 profile tab; matched axis position ±0.05; bearing outer ring</text>
<text x="28" y="544" font-size="11">retained by metal washer/clip</text>
<text x="28" y="565" font-size="11">GD&amp;T/datums: A=frame mounting face; B=primary bearing axis; C=secondary bearing/fastener axis; verify datum marking on supplier inspection report</text>
<text x="28" y="586" font-size="11">Inspection: CMM/caliper against STEP and drawing; deburr and visual crack/warp inspection; bore gauge; matched-pair centre distance and axis</text>
<text x="28" y="607" font-size="11">parallelism</text>
<text x="28" y="628" font-size="11">Edges: remove burrs; break unspecified sharp edges C0.3–0.5. No unapproved material/tolerance substitution.</text>
<text x="28" y="649" font-size="11">Release: PASS — physical validation NOT_RUN; procurement and machining USER_APPROVAL_REQUIRED.</text></g></svg>
