ISO-10303-21;
HEADER;
FILE_DESCRIPTION(('FreeCAD Model'),'2;1');
FILE_NAME('Open CASCADE Shape Model','2000-01-01T00:00:00',('FreeCAD'),(
    'FreeCAD'),'Open CASCADE STEP processor 7.9','FreeCAD','Unknown');
FILE_SCHEMA(('AUTOMOTIVE_DESIGN { 1 0 10303 214 1 1 1 1 }'));
ENDSEC;
DATA;
#1 = APPLICATION_PROTOCOL_DEFINITION('international standard',
  'automotive_design',2000,#2);
#2 = APPLICATION_CONTEXT(
  'core data for automotive mechanical design processes');
#3 = SHAPE_DEFINITION_REPRESENTATION(#4,#10);
#4 = PRODUCT_DEFINITION_SHAPE('','',#5);
#5 = PRODUCT_DEFINITION('design','',#6,#9);
#6 = PRODUCT_DEFINITION_FORMATION('','',#7);
#7 = PRODUCT('Open CASCADE STEP translator 7.9 0',
  'Open CASCADE STEP translator 7.9 0','',(#8));
#8 = PRODUCT_CONTEXT('',#2,'mechanical');
#9 = PRODUCT_DEFINITION_CONTEXT('part definition',#2,'design');
#10 = ADVANCED_BREP_SHAPE_REPRESENTATION('',(#11,#15),#630);
#11 = AXIS2_PLACEMENT_3D('',#12,#13,#14);
#12 = CARTESIAN_POINT('',(0.,0.,0.));
#13 = DIRECTION('',(0.,0.,1.));
#14 = DIRECTION('',(1.,0.,-0.));
#15 = MANIFOLD_SOLID_BREP('',#16);
#16 = CLOSED_SHELL('',(#17,#112,#143,#167,#191,#208,#233,#258,#283,#308,
    #333,#412,#432,#457,#482,#507,#532,#557,#582,#591,#600,#612,#621));
#17 = ADVANCED_FACE('',(#18,#52,#63,#74,#85,#96),#107,.F.);
#18 = FACE_BOUND('',#19,.F.);
#19 = EDGE_LOOP('',(#20,#30,#38,#46));
#20 = ORIENTED_EDGE('',*,*,#21,.F.);
#21 = EDGE_CURVE('',#22,#24,#26,.T.);
#22 = VERTEX_POINT('',#23);
#23 = CARTESIAN_POINT('',(367.5,389.,329.5));
#24 = VERTEX_POINT('',#25);
#25 = CARTESIAN_POINT('',(367.5,389.,434.5));
#26 = LINE('',#27,#28);
#27 = CARTESIAN_POINT('',(367.5,389.,329.5));
#28 = VECTOR('',#29,1.);
#29 = DIRECTION('',(0.,0.,1.));
#30 = ORIENTED_EDGE('',*,*,#31,.T.);
#31 = EDGE_CURVE('',#22,#32,#34,.T.);
#32 = VERTEX_POINT('',#33);
#33 = CARTESIAN_POINT('',(272.5,389.,329.5));
#34 = LINE('',#35,#36);
#35 = CARTESIAN_POINT('',(367.5,389.,329.5));
#36 = VECTOR('',#37,1.);
#37 = DIRECTION('',(-1.,1.110223024625E-16,0.));
#38 = ORIENTED_EDGE('',*,*,#39,.T.);
#39 = EDGE_CURVE('',#32,#40,#42,.T.);
#40 = VERTEX_POINT('',#41);
#41 = CARTESIAN_POINT('',(272.5,389.,434.5));
#42 = LINE('',#43,#44);
#43 = CARTESIAN_POINT('',(272.5,389.,329.5));
#44 = VECTOR('',#45,1.);
#45 = DIRECTION('',(0.,0.,1.));
#46 = ORIENTED_EDGE('',*,*,#47,.F.);
#47 = EDGE_CURVE('',#24,#40,#48,.T.);
#48 = LINE('',#49,#50);
#49 = CARTESIAN_POINT('',(367.5,389.,434.5));
#50 = VECTOR('',#51,1.);
#51 = DIRECTION('',(-1.,1.110223024625E-16,0.));
#52 = FACE_BOUND('',#53,.F.);
#53 = EDGE_LOOP('',(#54));
#54 = ORIENTED_EDGE('',*,*,#55,.F.);
#55 = EDGE_CURVE('',#56,#56,#58,.T.);
#56 = VERTEX_POINT('',#57);
#57 = CARTESIAN_POINT('',(284.5,389.,347.8));
#58 = CIRCLE('',#59,3.3);
#59 = AXIS2_PLACEMENT_3D('',#60,#61,#62);
#60 = CARTESIAN_POINT('',(284.5,389.,344.5));
#61 = DIRECTION('',(1.110223024625E-16,1.,-0.));
#62 = DIRECTION('',(0.,0.,1.));
#63 = FACE_BOUND('',#64,.F.);
#64 = EDGE_LOOP('',(#65));
#65 = ORIENTED_EDGE('',*,*,#66,.F.);
#66 = EDGE_CURVE('',#67,#67,#69,.T.);
#67 = VERTEX_POINT('',#68);
#68 = CARTESIAN_POINT('',(284.5,389.,422.8));
#69 = CIRCLE('',#70,3.3);
#70 = AXIS2_PLACEMENT_3D('',#71,#72,#73);
#71 = CARTESIAN_POINT('',(284.5,389.,419.5));
#72 = DIRECTION('',(1.110223024625E-16,1.,-0.));
#73 = DIRECTION('',(0.,0.,1.));
#74 = FACE_BOUND('',#75,.F.);
#75 = EDGE_LOOP('',(#76));
#76 = ORIENTED_EDGE('',*,*,#77,.F.);
#77 = EDGE_CURVE('',#78,#78,#80,.T.);
#78 = VERTEX_POINT('',#79);
#79 = CARTESIAN_POINT('',(355.5,389.,347.8));
#80 = CIRCLE('',#81,3.3);
#81 = AXIS2_PLACEMENT_3D('',#82,#83,#84);
#82 = CARTESIAN_POINT('',(355.5,389.,344.5));
#83 = DIRECTION('',(1.110223024625E-16,1.,-0.));
#84 = DIRECTION('',(0.,0.,1.));
#85 = FACE_BOUND('',#86,.F.);
#86 = EDGE_LOOP('',(#87));
#87 = ORIENTED_EDGE('',*,*,#88,.F.);
#88 = EDGE_CURVE('',#89,#89,#91,.T.);
#89 = VERTEX_POINT('',#90);
#90 = CARTESIAN_POINT('',(320.,389.,396.15));
#91 = CIRCLE('',#92,14.15);
#92 = AXIS2_PLACEMENT_3D('',#93,#94,#95);
#93 = CARTESIAN_POINT('',(320.,389.,382.));
#94 = DIRECTION('',(1.110223024625E-16,1.,-0.));
#95 = DIRECTION('',(0.,0.,1.));
#96 = FACE_BOUND('',#97,.F.);
#97 = EDGE_LOOP('',(#98));
#98 = ORIENTED_EDGE('',*,*,#99,.F.);
#99 = EDGE_CURVE('',#100,#100,#102,.T.);
#100 = VERTEX_POINT('',#101);
#101 = CARTESIAN_POINT('',(355.5,389.,422.8));
#102 = CIRCLE('',#103,3.3);
#103 = AXIS2_PLACEMENT_3D('',#104,#105,#106);
#104 = CARTESIAN_POINT('',(355.5,389.,419.5));
#105 = DIRECTION('',(1.110223024625E-16,1.,-0.));
#106 = DIRECTION('',(0.,0.,1.));
#107 = PLANE('',#108);
#108 = AXIS2_PLACEMENT_3D('',#109,#110,#111);
#109 = CARTESIAN_POINT('',(367.5,389.,329.5));
#110 = DIRECTION('',(1.110223024625E-16,1.,0.));
#111 = DIRECTION('',(0.,0.,1.));
#112 = ADVANCED_FACE('',(#113),#138,.F.);
#113 = FACE_BOUND('',#114,.F.);
#114 = EDGE_LOOP('',(#115,#123,#124,#132));
#115 = ORIENTED_EDGE('',*,*,#116,.F.);
#116 = EDGE_CURVE('',#22,#117,#119,.T.);
#117 = VERTEX_POINT('',#118);
#118 = CARTESIAN_POINT('',(367.5,401.,329.5));
#119 = LINE('',#120,#121);
#120 = CARTESIAN_POINT('',(367.5,389.,329.5));
#121 = VECTOR('',#122,1.);
#122 = DIRECTION('',(1.110223024625E-16,1.,0.));
#123 = ORIENTED_EDGE('',*,*,#21,.T.);
#124 = ORIENTED_EDGE('',*,*,#125,.T.);
#125 = EDGE_CURVE('',#24,#126,#128,.T.);
#126 = VERTEX_POINT('',#127);
#127 = CARTESIAN_POINT('',(367.5,401.,434.5));
#128 = LINE('',#129,#130);
#129 = CARTESIAN_POINT('',(367.5,389.,434.5));
#130 = VECTOR('',#131,1.);
#131 = DIRECTION('',(1.110223024625E-16,1.,0.));
#132 = ORIENTED_EDGE('',*,*,#133,.F.);
#133 = EDGE_CURVE('',#117,#126,#134,.T.);
#134 = LINE('',#135,#136);
#135 = CARTESIAN_POINT('',(367.5,401.,329.5));
#136 = VECTOR('',#137,1.);
#137 = DIRECTION('',(0.,0.,1.));
#138 = PLANE('',#139);
#139 = AXIS2_PLACEMENT_3D('',#140,#141,#142);
#140 = CARTESIAN_POINT('',(367.5,389.,329.5));
#141 = DIRECTION('',(-1.,1.110223024625E-16,0.));
#142 = DIRECTION('',(0.,0.,1.));
#143 = ADVANCED_FACE('',(#144),#162,.T.);
#144 = FACE_BOUND('',#145,.T.);
#145 = EDGE_LOOP('',(#146,#147,#148,#156));
#146 = ORIENTED_EDGE('',*,*,#47,.F.);
#147 = ORIENTED_EDGE('',*,*,#125,.T.);
#148 = ORIENTED_EDGE('',*,*,#149,.T.);
#149 = EDGE_CURVE('',#126,#150,#152,.T.);
#150 = VERTEX_POINT('',#151);
#151 = CARTESIAN_POINT('',(272.5,401.,434.5));
#152 = LINE('',#153,#154);
#153 = CARTESIAN_POINT('',(367.5,401.,434.5));
#154 = VECTOR('',#155,1.);
#155 = DIRECTION('',(-1.,1.110223024625E-16,0.));
#156 = ORIENTED_EDGE('',*,*,#157,.F.);
#157 = EDGE_CURVE('',#40,#150,#158,.T.);
#158 = LINE('',#159,#160);
#159 = CARTESIAN_POINT('',(272.5,389.,434.5));
#160 = VECTOR('',#161,1.);
#161 = DIRECTION('',(1.110223024625E-16,1.,0.));
#162 = PLANE('',#163);
#163 = AXIS2_PLACEMENT_3D('',#164,#165,#166);
#164 = CARTESIAN_POINT('',(367.5,389.,434.5));
#165 = DIRECTION('',(0.,0.,1.));
#166 = DIRECTION('',(1.110223024625E-16,1.,0.));
#167 = ADVANCED_FACE('',(#168),#186,.F.);
#168 = FACE_BOUND('',#169,.F.);
#169 = EDGE_LOOP('',(#170,#171,#172,#180));
#170 = ORIENTED_EDGE('',*,*,#31,.F.);
#171 = ORIENTED_EDGE('',*,*,#116,.T.);
#172 = ORIENTED_EDGE('',*,*,#173,.T.);
#173 = EDGE_CURVE('',#117,#174,#176,.T.);
#174 = VERTEX_POINT('',#175);
#175 = CARTESIAN_POINT('',(272.5,401.,329.5));
#176 = LINE('',#177,#178);
#177 = CARTESIAN_POINT('',(367.5,401.,329.5));
#178 = VECTOR('',#179,1.);
#179 = DIRECTION('',(-1.,1.110223024625E-16,0.));
#180 = ORIENTED_EDGE('',*,*,#181,.F.);
#181 = EDGE_CURVE('',#32,#174,#182,.T.);
#182 = LINE('',#183,#184);
#183 = CARTESIAN_POINT('',(272.5,389.,329.5));
#184 = VECTOR('',#185,1.);
#185 = DIRECTION('',(1.110223024625E-16,1.,0.));
#186 = PLANE('',#187);
#187 = AXIS2_PLACEMENT_3D('',#188,#189,#190);
#188 = CARTESIAN_POINT('',(367.5,389.,329.5));
#189 = DIRECTION('',(0.,0.,1.));
#190 = DIRECTION('',(1.110223024625E-16,1.,0.));
#191 = ADVANCED_FACE('',(#192),#203,.T.);
#192 = FACE_BOUND('',#193,.T.);
#193 = EDGE_LOOP('',(#194,#195,#196,#197));
#194 = ORIENTED_EDGE('',*,*,#181,.F.);
#195 = ORIENTED_EDGE('',*,*,#39,.T.);
#196 = ORIENTED_EDGE('',*,*,#157,.T.);
#197 = ORIENTED_EDGE('',*,*,#198,.F.);
#198 = EDGE_CURVE('',#174,#150,#199,.T.);
#199 = LINE('',#200,#201);
#200 = CARTESIAN_POINT('',(272.5,401.,329.5));
#201 = VECTOR('',#202,1.);
#202 = DIRECTION('',(0.,0.,1.));
#203 = PLANE('',#204);
#204 = AXIS2_PLACEMENT_3D('',#205,#206,#207);
#205 = CARTESIAN_POINT('',(272.5,389.,329.5));
#206 = DIRECTION('',(-1.,1.110223024625E-16,0.));
#207 = DIRECTION('',(0.,0.,1.));
#208 = ADVANCED_FACE('',(#209),#228,.F.);
#209 = FACE_BOUND('',#210,.F.);
#210 = EDGE_LOOP('',(#211,#220,#226,#227));
#211 = ORIENTED_EDGE('',*,*,#212,.F.);
#212 = EDGE_CURVE('',#213,#213,#215,.T.);
#213 = VERTEX_POINT('',#214);
#214 = CARTESIAN_POINT('',(284.5,401.,347.8));
#215 = CIRCLE('',#216,3.3);
#216 = AXIS2_PLACEMENT_3D('',#217,#218,#219);
#217 = CARTESIAN_POINT('',(284.5,401.,344.5));
#218 = DIRECTION('',(1.110223024625E-16,1.,-0.));
#219 = DIRECTION('',(0.,0.,1.));
#220 = ORIENTED_EDGE('',*,*,#221,.F.);
#221 = EDGE_CURVE('',#56,#213,#222,.T.);
#222 = LINE('',#223,#224);
#223 = CARTESIAN_POINT('',(284.5,389.,347.8));
#224 = VECTOR('',#225,1.);
#225 = DIRECTION('',(1.110223024625E-16,1.,0.));
#226 = ORIENTED_EDGE('',*,*,#55,.T.);
#227 = ORIENTED_EDGE('',*,*,#221,.T.);
#228 = CYLINDRICAL_SURFACE('',#229,3.3);
#229 = AXIS2_PLACEMENT_3D('',#230,#231,#232);
#230 = CARTESIAN_POINT('',(284.5,389.,344.5));
#231 = DIRECTION('',(1.110223024625E-16,1.,0.));
#232 = DIRECTION('',(0.,0.,1.));
#233 = ADVANCED_FACE('',(#234),#253,.F.);
#234 = FACE_BOUND('',#235,.F.);
#235 = EDGE_LOOP('',(#236,#245,#251,#252));
#236 = ORIENTED_EDGE('',*,*,#237,.F.);
#237 = EDGE_CURVE('',#238,#238,#240,.T.);
#238 = VERTEX_POINT('',#239);
#239 = CARTESIAN_POINT('',(284.5,401.,422.8));
#240 = CIRCLE('',#241,3.3);
#241 = AXIS2_PLACEMENT_3D('',#242,#243,#244);
#242 = CARTESIAN_POINT('',(284.5,401.,419.5));
#243 = DIRECTION('',(1.110223024625E-16,1.,-0.));
#244 = DIRECTION('',(0.,0.,1.));
#245 = ORIENTED_EDGE('',*,*,#246,.F.);
#246 = EDGE_CURVE('',#67,#238,#247,.T.);
#247 = LINE('',#248,#249);
#248 = CARTESIAN_POINT('',(284.5,389.,422.8));
#249 = VECTOR('',#250,1.);
#250 = DIRECTION('',(1.110223024625E-16,1.,0.));
#251 = ORIENTED_EDGE('',*,*,#66,.T.);
#252 = ORIENTED_EDGE('',*,*,#246,.T.);
#253 = CYLINDRICAL_SURFACE('',#254,3.3);
#254 = AXIS2_PLACEMENT_3D('',#255,#256,#257);
#255 = CARTESIAN_POINT('',(284.5,389.,419.5));
#256 = DIRECTION('',(1.110223024625E-16,1.,0.));
#257 = DIRECTION('',(0.,0.,1.));
#258 = ADVANCED_FACE('',(#259),#278,.F.);
#259 = FACE_BOUND('',#260,.F.);
#260 = EDGE_LOOP('',(#261,#270,#276,#277));
#261 = ORIENTED_EDGE('',*,*,#262,.F.);
#262 = EDGE_CURVE('',#263,#263,#265,.T.);
#263 = VERTEX_POINT('',#264);
#264 = CARTESIAN_POINT('',(355.5,401.,347.8));
#265 = CIRCLE('',#266,3.3);
#266 = AXIS2_PLACEMENT_3D('',#267,#268,#269);
#267 = CARTESIAN_POINT('',(355.5,401.,344.5));
#268 = DIRECTION('',(1.110223024625E-16,1.,-0.));
#269 = DIRECTION('',(0.,0.,1.));
#270 = ORIENTED_EDGE('',*,*,#271,.F.);
#271 = EDGE_CURVE('',#78,#263,#272,.T.);
#272 = LINE('',#273,#274);
#273 = CARTESIAN_POINT('',(355.5,389.,347.8));
#274 = VECTOR('',#275,1.);
#275 = DIRECTION('',(1.110223024625E-16,1.,0.));
#276 = ORIENTED_EDGE('',*,*,#77,.T.);
#277 = ORIENTED_EDGE('',*,*,#271,.T.);
#278 = CYLINDRICAL_SURFACE('',#279,3.3);
#279 = AXIS2_PLACEMENT_3D('',#280,#281,#282);
#280 = CARTESIAN_POINT('',(355.5,389.,344.5));
#281 = DIRECTION('',(1.110223024625E-16,1.,0.));
#282 = DIRECTION('',(0.,0.,1.));
#283 = ADVANCED_FACE('',(#284),#303,.F.);
#284 = FACE_BOUND('',#285,.F.);
#285 = EDGE_LOOP('',(#286,#295,#301,#302));
#286 = ORIENTED_EDGE('',*,*,#287,.F.);
#287 = EDGE_CURVE('',#288,#288,#290,.T.);
#288 = VERTEX_POINT('',#289);
#289 = CARTESIAN_POINT('',(320.,398.15,396.15));
#290 = CIRCLE('',#291,14.15);
#291 = AXIS2_PLACEMENT_3D('',#292,#293,#294);
#292 = CARTESIAN_POINT('',(320.,398.15,382.));
#293 = DIRECTION('',(1.110223024625E-16,1.,-0.));
#294 = DIRECTION('',(0.,0.,1.));
#295 = ORIENTED_EDGE('',*,*,#296,.F.);
#296 = EDGE_CURVE('',#89,#288,#297,.T.);
#297 = LINE('',#298,#299);
#298 = CARTESIAN_POINT('',(320.,389.,396.15));
#299 = VECTOR('',#300,1.);
#300 = DIRECTION('',(1.110223024625E-16,1.,0.));
#301 = ORIENTED_EDGE('',*,*,#88,.T.);
#302 = ORIENTED_EDGE('',*,*,#296,.T.);
#303 = CYLINDRICAL_SURFACE('',#304,14.15);
#304 = AXIS2_PLACEMENT_3D('',#305,#306,#307);
#305 = CARTESIAN_POINT('',(320.,389.,382.));
#306 = DIRECTION('',(1.110223024625E-16,1.,0.));
#307 = DIRECTION('',(0.,0.,1.));
#308 = ADVANCED_FACE('',(#309),#328,.F.);
#309 = FACE_BOUND('',#310,.F.);
#310 = EDGE_LOOP('',(#311,#320,#326,#327));
#311 = ORIENTED_EDGE('',*,*,#312,.F.);
#312 = EDGE_CURVE('',#313,#313,#315,.T.);
#313 = VERTEX_POINT('',#314);
#314 = CARTESIAN_POINT('',(355.5,401.,422.8));
#315 = CIRCLE('',#316,3.3);
#316 = AXIS2_PLACEMENT_3D('',#317,#318,#319);
#317 = CARTESIAN_POINT('',(355.5,401.,419.5));
#318 = DIRECTION('',(1.110223024625E-16,1.,-0.));
#319 = DIRECTION('',(0.,0.,1.));
#320 = ORIENTED_EDGE('',*,*,#321,.F.);
#321 = EDGE_CURVE('',#100,#313,#322,.T.);
#322 = LINE('',#323,#324);
#323 = CARTESIAN_POINT('',(355.5,389.,422.8));
#324 = VECTOR('',#325,1.);
#325 = DIRECTION('',(1.110223024625E-16,1.,0.));
#326 = ORIENTED_EDGE('',*,*,#99,.T.);
#327 = ORIENTED_EDGE('',*,*,#321,.T.);
#328 = CYLINDRICAL_SURFACE('',#329,3.3);
#329 = AXIS2_PLACEMENT_3D('',#330,#331,#332);
#330 = CARTESIAN_POINT('',(355.5,389.,419.5));
#331 = DIRECTION('',(1.110223024625E-16,1.,0.));
#332 = DIRECTION('',(0.,0.,1.));
#333 = ADVANCED_FACE('',(#334,#340,#343,#354,#357,#368,#379,#390,#393,
    #404),#407,.T.);
#334 = FACE_BOUND('',#335,.T.);
#335 = EDGE_LOOP('',(#336,#337,#338,#339));
#336 = ORIENTED_EDGE('',*,*,#133,.F.);
#337 = ORIENTED_EDGE('',*,*,#173,.T.);
#338 = ORIENTED_EDGE('',*,*,#198,.T.);
#339 = ORIENTED_EDGE('',*,*,#149,.F.);
#340 = FACE_BOUND('',#341,.T.);
#341 = EDGE_LOOP('',(#342));
#342 = ORIENTED_EDGE('',*,*,#212,.F.);
#343 = FACE_BOUND('',#344,.T.);
#344 = EDGE_LOOP('',(#345));
#345 = ORIENTED_EDGE('',*,*,#346,.F.);
#346 = EDGE_CURVE('',#347,#347,#349,.T.);
#347 = VERTEX_POINT('',#348);
#348 = CARTESIAN_POINT('',(301.,401.,364.65));
#349 = CIRCLE('',#350,1.65);
#350 = AXIS2_PLACEMENT_3D('',#351,#352,#353);
#351 = CARTESIAN_POINT('',(301.,401.,363.));
#352 = DIRECTION('',(0.,1.,0.));
#353 = DIRECTION('',(0.,0.,1.));
#354 = FACE_BOUND('',#355,.T.);
#355 = EDGE_LOOP('',(#356));
#356 = ORIENTED_EDGE('',*,*,#237,.F.);
#357 = FACE_BOUND('',#358,.T.);
#358 = EDGE_LOOP('',(#359));
#359 = ORIENTED_EDGE('',*,*,#360,.F.);
#360 = EDGE_CURVE('',#361,#361,#363,.T.);
#361 = VERTEX_POINT('',#362);
#362 = CARTESIAN_POINT('',(301.,401.,402.65));
#363 = CIRCLE('',#364,1.65);
#364 = AXIS2_PLACEMENT_3D('',#365,#366,#367);
#365 = CARTESIAN_POINT('',(301.,401.,401.));
#366 = DIRECTION('',(0.,1.,0.));
#367 = DIRECTION('',(0.,0.,1.));
#368 = FACE_BOUND('',#369,.T.);
#369 = EDGE_LOOP('',(#370));
#370 = ORIENTED_EDGE('',*,*,#371,.F.);
#371 = EDGE_CURVE('',#372,#372,#374,.T.);
#372 = VERTEX_POINT('',#373);
#373 = CARTESIAN_POINT('',(320.,401.,395.7));
#374 = CIRCLE('',#375,13.7);
#375 = AXIS2_PLACEMENT_3D('',#376,#377,#378);
#376 = CARTESIAN_POINT('',(320.,401.,382.));
#377 = DIRECTION('',(0.,1.,0.));
#378 = DIRECTION('',(0.,0.,1.));
#379 = FACE_BOUND('',#380,.T.);
#380 = EDGE_LOOP('',(#381));
#381 = ORIENTED_EDGE('',*,*,#382,.F.);
#382 = EDGE_CURVE('',#383,#383,#385,.T.);
#383 = VERTEX_POINT('',#384);
#384 = CARTESIAN_POINT('',(339.,401.,364.65));
#385 = CIRCLE('',#386,1.65);
#386 = AXIS2_PLACEMENT_3D('',#387,#388,#389);
#387 = CARTESIAN_POINT('',(339.,401.,363.));
#388 = DIRECTION('',(0.,1.,0.));
#389 = DIRECTION('',(0.,0.,1.));
#390 = FACE_BOUND('',#391,.T.);
#391 = EDGE_LOOP('',(#392));
#392 = ORIENTED_EDGE('',*,*,#262,.F.);
#393 = FACE_BOUND('',#394,.T.);
#394 = EDGE_LOOP('',(#395));
#395 = ORIENTED_EDGE('',*,*,#396,.F.);
#396 = EDGE_CURVE('',#397,#397,#399,.T.);
#397 = VERTEX_POINT('',#398);
#398 = CARTESIAN_POINT('',(339.,401.,402.65));
#399 = CIRCLE('',#400,1.65);
#400 = AXIS2_PLACEMENT_3D('',#401,#402,#403);
#401 = CARTESIAN_POINT('',(339.,401.,401.));
#402 = DIRECTION('',(0.,1.,0.));
#403 = DIRECTION('',(0.,0.,1.));
#404 = FACE_BOUND('',#405,.T.);
#405 = EDGE_LOOP('',(#406));
#406 = ORIENTED_EDGE('',*,*,#312,.F.);
#407 = PLANE('',#408);
#408 = AXIS2_PLACEMENT_3D('',#409,#410,#411);
#409 = CARTESIAN_POINT('',(367.5,401.,329.5));
#410 = DIRECTION('',(1.110223024625E-16,1.,0.));
#411 = DIRECTION('',(0.,0.,1.));
#412 = ADVANCED_FACE('',(#413,#416),#427,.F.);
#413 = FACE_BOUND('',#414,.F.);
#414 = EDGE_LOOP('',(#415));
#415 = ORIENTED_EDGE('',*,*,#287,.T.);
#416 = FACE_BOUND('',#417,.F.);
#417 = EDGE_LOOP('',(#418));
#418 = ORIENTED_EDGE('',*,*,#419,.F.);
#419 = EDGE_CURVE('',#420,#420,#422,.T.);
#420 = VERTEX_POINT('',#421);
#421 = CARTESIAN_POINT('',(320.,398.15,390.6));
#422 = CIRCLE('',#423,8.6);
#423 = AXIS2_PLACEMENT_3D('',#424,#425,#426);
#424 = CARTESIAN_POINT('',(320.,398.15,382.));
#425 = DIRECTION('',(1.110223024625E-16,1.,-0.));
#426 = DIRECTION('',(0.,0.,1.));
#427 = PLANE('',#428);
#428 = AXIS2_PLACEMENT_3D('',#429,#430,#431);
#429 = CARTESIAN_POINT('',(320.,398.15,382.));
#430 = DIRECTION('',(1.110223024625E-16,1.,0.));
#431 = DIRECTION('',(0.,0.,1.));
#432 = ADVANCED_FACE('',(#433),#452,.F.);
#433 = FACE_BOUND('',#434,.F.);
#434 = EDGE_LOOP('',(#435,#436,#444,#451));
#435 = ORIENTED_EDGE('',*,*,#346,.F.);
#436 = ORIENTED_EDGE('',*,*,#437,.F.);
#437 = EDGE_CURVE('',#438,#347,#440,.T.);
#438 = VERTEX_POINT('',#439);
#439 = CARTESIAN_POINT('',(301.,391.,364.65));
#440 = LINE('',#441,#442);
#441 = CARTESIAN_POINT('',(301.,391.,364.65));
#442 = VECTOR('',#443,1.);
#443 = DIRECTION('',(0.,1.,0.));
#444 = ORIENTED_EDGE('',*,*,#445,.T.);
#445 = EDGE_CURVE('',#438,#438,#446,.T.);
#446 = CIRCLE('',#447,1.65);
#447 = AXIS2_PLACEMENT_3D('',#448,#449,#450);
#448 = CARTESIAN_POINT('',(301.,391.,363.));
#449 = DIRECTION('',(0.,1.,0.));
#450 = DIRECTION('',(0.,0.,1.));
#451 = ORIENTED_EDGE('',*,*,#437,.T.);
#452 = CYLINDRICAL_SURFACE('',#453,1.65);
#453 = AXIS2_PLACEMENT_3D('',#454,#455,#456);
#454 = CARTESIAN_POINT('',(301.,391.,363.));
#455 = DIRECTION('',(0.,1.,0.));
#456 = DIRECTION('',(0.,0.,1.));
#457 = ADVANCED_FACE('',(#458),#477,.F.);
#458 = FACE_BOUND('',#459,.F.);
#459 = EDGE_LOOP('',(#460,#461,#469,#476));
#460 = ORIENTED_EDGE('',*,*,#360,.F.);
#461 = ORIENTED_EDGE('',*,*,#462,.F.);
#462 = EDGE_CURVE('',#463,#361,#465,.T.);
#463 = VERTEX_POINT('',#464);
#464 = CARTESIAN_POINT('',(301.,391.,402.65));
#465 = LINE('',#466,#467);
#466 = CARTESIAN_POINT('',(301.,391.,402.65));
#467 = VECTOR('',#468,1.);
#468 = DIRECTION('',(0.,1.,0.));
#469 = ORIENTED_EDGE('',*,*,#470,.T.);
#470 = EDGE_CURVE('',#463,#463,#471,.T.);
#471 = CIRCLE('',#472,1.65);
#472 = AXIS2_PLACEMENT_3D('',#473,#474,#475);
#473 = CARTESIAN_POINT('',(301.,391.,401.));
#474 = DIRECTION('',(0.,1.,0.));
#475 = DIRECTION('',(0.,0.,1.));
#476 = ORIENTED_EDGE('',*,*,#462,.T.);
#477 = CYLINDRICAL_SURFACE('',#478,1.65);
#478 = AXIS2_PLACEMENT_3D('',#479,#480,#481);
#479 = CARTESIAN_POINT('',(301.,391.,401.));
#480 = DIRECTION('',(0.,1.,0.));
#481 = DIRECTION('',(0.,0.,1.));
#482 = ADVANCED_FACE('',(#483),#502,.F.);
#483 = FACE_BOUND('',#484,.F.);
#484 = EDGE_LOOP('',(#485,#486,#494,#501));
#485 = ORIENTED_EDGE('',*,*,#371,.F.);
#486 = ORIENTED_EDGE('',*,*,#487,.F.);
#487 = EDGE_CURVE('',#488,#372,#490,.T.);
#488 = VERTEX_POINT('',#489);
#489 = CARTESIAN_POINT('',(320.,400.7,395.7));
#490 = LINE('',#491,#492);
#491 = CARTESIAN_POINT('',(320.,400.7,395.7));
#492 = VECTOR('',#493,1.);
#493 = DIRECTION('',(0.,1.,0.));
#494 = ORIENTED_EDGE('',*,*,#495,.T.);
#495 = EDGE_CURVE('',#488,#488,#496,.T.);
#496 = CIRCLE('',#497,13.7);
#497 = AXIS2_PLACEMENT_3D('',#498,#499,#500);
#498 = CARTESIAN_POINT('',(320.,400.7,382.));
#499 = DIRECTION('',(0.,1.,0.));
#500 = DIRECTION('',(0.,0.,1.));
#501 = ORIENTED_EDGE('',*,*,#487,.T.);
#502 = CYLINDRICAL_SURFACE('',#503,13.7);
#503 = AXIS2_PLACEMENT_3D('',#504,#505,#506);
#504 = CARTESIAN_POINT('',(320.,400.7,382.));
#505 = DIRECTION('',(0.,1.,0.));
#506 = DIRECTION('',(0.,0.,1.));
#507 = ADVANCED_FACE('',(#508),#527,.F.);
#508 = FACE_BOUND('',#509,.F.);
#509 = EDGE_LOOP('',(#510,#511,#519,#526));
#510 = ORIENTED_EDGE('',*,*,#382,.F.);
#511 = ORIENTED_EDGE('',*,*,#512,.F.);
#512 = EDGE_CURVE('',#513,#383,#515,.T.);
#513 = VERTEX_POINT('',#514);
#514 = CARTESIAN_POINT('',(339.,391.,364.65));
#515 = LINE('',#516,#517);
#516 = CARTESIAN_POINT('',(339.,391.,364.65));
#517 = VECTOR('',#518,1.);
#518 = DIRECTION('',(0.,1.,0.));
#519 = ORIENTED_EDGE('',*,*,#520,.T.);
#520 = EDGE_CURVE('',#513,#513,#521,.T.);
#521 = CIRCLE('',#522,1.65);
#522 = AXIS2_PLACEMENT_3D('',#523,#524,#525);
#523 = CARTESIAN_POINT('',(339.,391.,363.));
#524 = DIRECTION('',(0.,1.,0.));
#525 = DIRECTION('',(0.,0.,1.));
#526 = ORIENTED_EDGE('',*,*,#512,.T.);
#527 = CYLINDRICAL_SURFACE('',#528,1.65);
#528 = AXIS2_PLACEMENT_3D('',#529,#530,#531);
#529 = CARTESIAN_POINT('',(339.,391.,363.));
#530 = DIRECTION('',(0.,1.,0.));
#531 = DIRECTION('',(0.,0.,1.));
#532 = ADVANCED_FACE('',(#533),#552,.F.);
#533 = FACE_BOUND('',#534,.F.);
#534 = EDGE_LOOP('',(#535,#536,#544,#551));
#535 = ORIENTED_EDGE('',*,*,#396,.F.);
#536 = ORIENTED_EDGE('',*,*,#537,.F.);
#537 = EDGE_CURVE('',#538,#397,#540,.T.);
#538 = VERTEX_POINT('',#539);
#539 = CARTESIAN_POINT('',(339.,391.,402.65));
#540 = LINE('',#541,#542);
#541 = CARTESIAN_POINT('',(339.,391.,402.65));
#542 = VECTOR('',#543,1.);
#543 = DIRECTION('',(0.,1.,0.));
#544 = ORIENTED_EDGE('',*,*,#545,.T.);
#545 = EDGE_CURVE('',#538,#538,#546,.T.);
#546 = CIRCLE('',#547,1.65);
#547 = AXIS2_PLACEMENT_3D('',#548,#549,#550);
#548 = CARTESIAN_POINT('',(339.,391.,401.));
#549 = DIRECTION('',(0.,1.,0.));
#550 = DIRECTION('',(0.,0.,1.));
#551 = ORIENTED_EDGE('',*,*,#537,.T.);
#552 = CYLINDRICAL_SURFACE('',#553,1.65);
#553 = AXIS2_PLACEMENT_3D('',#554,#555,#556);
#554 = CARTESIAN_POINT('',(339.,391.,401.));
#555 = DIRECTION('',(0.,1.,0.));
#556 = DIRECTION('',(0.,0.,1.));
#557 = ADVANCED_FACE('',(#558),#577,.F.);
#558 = FACE_BOUND('',#559,.F.);
#559 = EDGE_LOOP('',(#560,#561,#569,#576));
#560 = ORIENTED_EDGE('',*,*,#419,.T.);
#561 = ORIENTED_EDGE('',*,*,#562,.T.);
#562 = EDGE_CURVE('',#420,#563,#565,.T.);
#563 = VERTEX_POINT('',#564);
#564 = CARTESIAN_POINT('',(320.,400.7,390.6));
#565 = LINE('',#566,#567);
#566 = CARTESIAN_POINT('',(320.,389.,390.6));
#567 = VECTOR('',#568,1.);
#568 = DIRECTION('',(1.110223024625E-16,1.,0.));
#569 = ORIENTED_EDGE('',*,*,#570,.F.);
#570 = EDGE_CURVE('',#563,#563,#571,.T.);
#571 = CIRCLE('',#572,8.6);
#572 = AXIS2_PLACEMENT_3D('',#573,#574,#575);
#573 = CARTESIAN_POINT('',(320.,400.7,382.));
#574 = DIRECTION('',(1.110223024625E-16,1.,-0.));
#575 = DIRECTION('',(0.,0.,1.));
#576 = ORIENTED_EDGE('',*,*,#562,.F.);
#577 = CYLINDRICAL_SURFACE('',#578,8.6);
#578 = AXIS2_PLACEMENT_3D('',#579,#580,#581);
#579 = CARTESIAN_POINT('',(320.,389.,382.));
#580 = DIRECTION('',(1.110223024625E-16,1.,0.));
#581 = DIRECTION('',(0.,0.,1.));
#582 = ADVANCED_FACE('',(#583),#586,.T.);
#583 = FACE_BOUND('',#584,.F.);
#584 = EDGE_LOOP('',(#585));
#585 = ORIENTED_EDGE('',*,*,#445,.F.);
#586 = PLANE('',#587);
#587 = AXIS2_PLACEMENT_3D('',#588,#589,#590);
#588 = CARTESIAN_POINT('',(301.,391.,363.));
#589 = DIRECTION('',(0.,1.,0.));
#590 = DIRECTION('',(0.,0.,1.));
#591 = ADVANCED_FACE('',(#592),#595,.T.);
#592 = FACE_BOUND('',#593,.F.);
#593 = EDGE_LOOP('',(#594));
#594 = ORIENTED_EDGE('',*,*,#470,.F.);
#595 = PLANE('',#596);
#596 = AXIS2_PLACEMENT_3D('',#597,#598,#599);
#597 = CARTESIAN_POINT('',(301.,391.,401.));
#598 = DIRECTION('',(0.,1.,0.));
#599 = DIRECTION('',(0.,0.,1.));
#600 = ADVANCED_FACE('',(#601,#604),#607,.T.);
#601 = FACE_BOUND('',#602,.T.);
#602 = EDGE_LOOP('',(#603));
#603 = ORIENTED_EDGE('',*,*,#495,.T.);
#604 = FACE_BOUND('',#605,.T.);
#605 = EDGE_LOOP('',(#606));
#606 = ORIENTED_EDGE('',*,*,#570,.F.);
#607 = PLANE('',#608);
#608 = AXIS2_PLACEMENT_3D('',#609,#610,#611);
#609 = CARTESIAN_POINT('',(320.,400.7,382.));
#610 = DIRECTION('',(0.,1.,0.));
#611 = DIRECTION('',(0.,0.,1.));
#612 = ADVANCED_FACE('',(#613),#616,.T.);
#613 = FACE_BOUND('',#614,.F.);
#614 = EDGE_LOOP('',(#615));
#615 = ORIENTED_EDGE('',*,*,#520,.F.);
#616 = PLANE('',#617);
#617 = AXIS2_PLACEMENT_3D('',#618,#619,#620);
#618 = CARTESIAN_POINT('',(339.,391.,363.));
#619 = DIRECTION('',(0.,1.,0.));
#620 = DIRECTION('',(0.,0.,1.));
#621 = ADVANCED_FACE('',(#622),#625,.T.);
#622 = FACE_BOUND('',#623,.F.);
#623 = EDGE_LOOP('',(#624));
#624 = ORIENTED_EDGE('',*,*,#545,.F.);
#625 = PLANE('',#626);
#626 = AXIS2_PLACEMENT_3D('',#627,#628,#629);
#627 = CARTESIAN_POINT('',(339.,391.,401.));
#628 = DIRECTION('',(0.,1.,0.));
#629 = DIRECTION('',(0.,0.,1.));
#630 = ( GEOMETRIC_REPRESENTATION_CONTEXT(3) 
GLOBAL_UNCERTAINTY_ASSIGNED_CONTEXT((#634)) GLOBAL_UNIT_ASSIGNED_CONTEXT
((#631,#632,#633)) REPRESENTATION_CONTEXT('Context #1',
  '3D Context with UNIT and UNCERTAINTY') );
#631 = ( LENGTH_UNIT() NAMED_UNIT(*) SI_UNIT(.MILLI.,.METRE.) );
#632 = ( NAMED_UNIT(*) PLANE_ANGLE_UNIT() SI_UNIT($,.RADIAN.) );
#633 = ( NAMED_UNIT(*) SI_UNIT($,.STERADIAN.) SOLID_ANGLE_UNIT() );
#634 = UNCERTAINTY_MEASURE_WITH_UNIT(LENGTH_MEASURE(1.E-07),#631,
  'distance_accuracy_value','confusion accuracy');
#635 = PRODUCT_RELATED_PRODUCT_CATEGORY('part',$,(#7));
ENDSEC;
END-ISO-10303-21;
