ISO-10303-21;
HEADER;
FILE_DESCRIPTION(('FreeCAD Model'),'2;1');
FILE_NAME('Open CASCADE Shape Model','2000-01-01T00:00:00',('FreeCAD'),(
    'FreeCAD'),'Open CASCADE STEP processor 7.9','FreeCAD','Unknown');
FILE_SCHEMA(('AUTOMOTIVE_DESIGN { 1 0 10303 214 1 1 1 1 }'));
ENDSEC;
DATA;
#1 = APPLICATION_PROTOCOL_DEFINITION('international standard',
  'automotive_design',2000,#2);
#2 = APPLICATION_CONTEXT(
  'core data for automotive mechanical design processes');
#3 = SHAPE_DEFINITION_REPRESENTATION(#4,#10);
#4 = PRODUCT_DEFINITION_SHAPE('','',#5);
#5 = PRODUCT_DEFINITION('design','',#6,#9);
#6 = PRODUCT_DEFINITION_FORMATION('','',#7);
#7 = PRODUCT('Open CASCADE STEP translator 7.9 0',
  'Open CASCADE STEP translator 7.9 0','',(#8));
#8 = PRODUCT_CONTEXT('',#2,'mechanical');
#9 = PRODUCT_DEFINITION_CONTEXT('part definition',#2,'design');
#10 = ADVANCED_BREP_SHAPE_REPRESENTATION('',(#11,#15),#438);
#11 = AXIS2_PLACEMENT_3D('',#12,#13,#14);
#12 = CARTESIAN_POINT('',(0.,0.,0.));
#13 = DIRECTION('',(0.,0.,1.));
#14 = DIRECTION('',(1.,0.,-0.));
#15 = MANIFOLD_SOLID_BREP('',#16);
#16 = CLOSED_SHELL('',(#17,#57,#88,#189,#213,#307,#319,#336,#353,#370,
    #387,#404,#421));
#17 = ADVANCED_FACE('',(#18),#52,.F.);
#18 = FACE_BOUND('',#19,.F.);
#19 = EDGE_LOOP('',(#20,#30,#38,#46));
#20 = ORIENTED_EDGE('',*,*,#21,.F.);
#21 = EDGE_CURVE('',#22,#24,#26,.T.);
#22 = VERTEX_POINT('',#23);
#23 = CARTESIAN_POINT('',(45.,273.,706.167));
#24 = VERTEX_POINT('',#25);
#25 = CARTESIAN_POINT('',(45.,283.,706.167));
#26 = LINE('',#27,#28);
#27 = CARTESIAN_POINT('',(45.,273.,706.167));
#28 = VECTOR('',#29,1.);
#29 = DIRECTION('',(0.,1.,2.22044604925E-16));
#30 = ORIENTED_EDGE('',*,*,#31,.T.);
#31 = EDGE_CURVE('',#22,#32,#34,.T.);
#32 = VERTEX_POINT('',#33);
#33 = CARTESIAN_POINT('',(45.,273.,646.167));
#34 = LINE('',#35,#36);
#35 = CARTESIAN_POINT('',(45.,273.,706.167));
#36 = VECTOR('',#37,1.);
#37 = DIRECTION('',(0.,2.22044604925E-16,-1.));
#38 = ORIENTED_EDGE('',*,*,#39,.T.);
#39 = EDGE_CURVE('',#32,#40,#42,.T.);
#40 = VERTEX_POINT('',#41);
#41 = CARTESIAN_POINT('',(45.,283.,646.167));
#42 = LINE('',#43,#44);
#43 = CARTESIAN_POINT('',(45.,273.,646.167));
#44 = VECTOR('',#45,1.);
#45 = DIRECTION('',(0.,1.,2.22044604925E-16));
#46 = ORIENTED_EDGE('',*,*,#47,.F.);
#47 = EDGE_CURVE('',#24,#40,#48,.T.);
#48 = LINE('',#49,#50);
#49 = CARTESIAN_POINT('',(45.,283.,706.167));
#50 = VECTOR('',#51,1.);
#51 = DIRECTION('',(0.,2.22044604925E-16,-1.));
#52 = PLANE('',#53);
#53 = AXIS2_PLACEMENT_3D('',#54,#55,#56);
#54 = CARTESIAN_POINT('',(45.,273.,706.167));
#55 = DIRECTION('',(1.,0.,-0.));
#56 = DIRECTION('',(0.,1.,2.22044604925E-16));
#57 = ADVANCED_FACE('',(#58),#83,.F.);
#58 = FACE_BOUND('',#59,.F.);
#59 = EDGE_LOOP('',(#60,#68,#69,#77));
#60 = ORIENTED_EDGE('',*,*,#61,.F.);
#61 = EDGE_CURVE('',#22,#62,#64,.T.);
#62 = VERTEX_POINT('',#63);
#63 = CARTESIAN_POINT('',(261.,273.,706.167));
#64 = LINE('',#65,#66);
#65 = CARTESIAN_POINT('',(45.,273.,706.167));
#66 = VECTOR('',#67,1.);
#67 = DIRECTION('',(1.,0.,-0.));
#68 = ORIENTED_EDGE('',*,*,#21,.T.);
#69 = ORIENTED_EDGE('',*,*,#70,.T.);
#70 = EDGE_CURVE('',#24,#71,#73,.T.);
#71 = VERTEX_POINT('',#72);
#72 = CARTESIAN_POINT('',(261.,283.,706.167));
#73 = LINE('',#74,#75);
#74 = CARTESIAN_POINT('',(45.,283.,706.167));
#75 = VECTOR('',#76,1.);
#76 = DIRECTION('',(1.,0.,-0.));
#77 = ORIENTED_EDGE('',*,*,#78,.F.);
#78 = EDGE_CURVE('',#62,#71,#79,.T.);
#79 = LINE('',#80,#81);
#80 = CARTESIAN_POINT('',(261.,273.,706.167));
#81 = VECTOR('',#82,1.);
#82 = DIRECTION('',(0.,1.,2.22044604925E-16));
#83 = PLANE('',#84);
#84 = AXIS2_PLACEMENT_3D('',#85,#86,#87);
#85 = CARTESIAN_POINT('',(45.,273.,706.167));
#86 = DIRECTION('',(0.,2.22044604925E-16,-1.));
#87 = DIRECTION('',(0.,1.,2.22044604925E-16));
#88 = ADVANCED_FACE('',(#89,#107,#118,#129,#140,#151,#162,#173),#184,.T.
  );
#89 = FACE_BOUND('',#90,.T.);
#90 = EDGE_LOOP('',(#91,#92,#93,#101));
#91 = ORIENTED_EDGE('',*,*,#47,.F.);
#92 = ORIENTED_EDGE('',*,*,#70,.T.);
#93 = ORIENTED_EDGE('',*,*,#94,.T.);
#94 = EDGE_CURVE('',#71,#95,#97,.T.);
#95 = VERTEX_POINT('',#96);
#96 = CARTESIAN_POINT('',(261.,283.,646.167));
#97 = LINE('',#98,#99);
#98 = CARTESIAN_POINT('',(261.,283.,706.167));
#99 = VECTOR('',#100,1.);
#100 = DIRECTION('',(0.,2.22044604925E-16,-1.));
#101 = ORIENTED_EDGE('',*,*,#102,.F.);
#102 = EDGE_CURVE('',#40,#95,#103,.T.);
#103 = LINE('',#104,#105);
#104 = CARTESIAN_POINT('',(45.,283.,646.167));
#105 = VECTOR('',#106,1.);
#106 = DIRECTION('',(1.,0.,-0.));
#107 = FACE_BOUND('',#108,.T.);
#108 = EDGE_LOOP('',(#109));
#109 = ORIENTED_EDGE('',*,*,#110,.F.);
#110 = EDGE_CURVE('',#111,#111,#113,.T.);
#111 = VERTEX_POINT('',#112);
#112 = CARTESIAN_POINT('',(57.75,283.,696.167));
#113 = CIRCLE('',#114,2.75);
#114 = AXIS2_PLACEMENT_3D('',#115,#116,#117);
#115 = CARTESIAN_POINT('',(55.,283.,696.167));
#116 = DIRECTION('',(0.,1.,2.22044604925E-16));
#117 = DIRECTION('',(1.,0.,-0.));
#118 = FACE_BOUND('',#119,.T.);
#119 = EDGE_LOOP('',(#120));
#120 = ORIENTED_EDGE('',*,*,#121,.F.);
#121 = EDGE_CURVE('',#122,#122,#124,.T.);
#122 = VERTEX_POINT('',#123);
#123 = CARTESIAN_POINT('',(250.75,283.,696.167));
#124 = CIRCLE('',#125,2.75);
#125 = AXIS2_PLACEMENT_3D('',#126,#127,#128);
#126 = CARTESIAN_POINT('',(248.,283.,696.167));
#127 = DIRECTION('',(0.,1.,2.22044604925E-16));
#128 = DIRECTION('',(1.,0.,-0.));
#129 = FACE_BOUND('',#130,.T.);
#130 = EDGE_LOOP('',(#131));
#131 = ORIENTED_EDGE('',*,*,#132,.F.);
#132 = EDGE_CURVE('',#133,#133,#135,.T.);
#133 = VERTEX_POINT('',#134);
#134 = CARTESIAN_POINT('',(134.25,283.,676.167));
#135 = CIRCLE('',#136,1.25);
#136 = AXIS2_PLACEMENT_3D('',#137,#138,#139);
#137 = CARTESIAN_POINT('',(133.,283.,676.167));
#138 = DIRECTION('',(0.,1.,2.22044604925E-16));
#139 = DIRECTION('',(1.,0.,-0.));
#140 = FACE_BOUND('',#141,.T.);
#141 = EDGE_LOOP('',(#142));
#142 = ORIENTED_EDGE('',*,*,#143,.F.);
#143 = EDGE_CURVE('',#144,#144,#146,.T.);
#144 = VERTEX_POINT('',#145);
#145 = CARTESIAN_POINT('',(57.75,283.,656.167));
#146 = CIRCLE('',#147,2.75);
#147 = AXIS2_PLACEMENT_3D('',#148,#149,#150);
#148 = CARTESIAN_POINT('',(55.,283.,656.167));
#149 = DIRECTION('',(0.,1.,2.22044604925E-16));
#150 = DIRECTION('',(1.,0.,-0.));
#151 = FACE_BOUND('',#152,.T.);
#152 = EDGE_LOOP('',(#153));
#153 = ORIENTED_EDGE('',*,*,#154,.F.);
#154 = EDGE_CURVE('',#155,#155,#157,.T.);
#155 = VERTEX_POINT('',#156);
#156 = CARTESIAN_POINT('',(169.015,283.,676.167));
#157 = CIRCLE('',#158,16.015);
#158 = AXIS2_PLACEMENT_3D('',#159,#160,#161);
#159 = CARTESIAN_POINT('',(153.,283.,676.167));
#160 = DIRECTION('',(0.,1.,2.22044604925E-16));
#161 = DIRECTION('',(1.,0.,-0.));
#162 = FACE_BOUND('',#163,.T.);
#163 = EDGE_LOOP('',(#164));
#164 = ORIENTED_EDGE('',*,*,#165,.F.);
#165 = EDGE_CURVE('',#166,#166,#168,.T.);
#166 = VERTEX_POINT('',#167);
#167 = CARTESIAN_POINT('',(174.25,283.,676.167));
#168 = CIRCLE('',#169,1.25);
#169 = AXIS2_PLACEMENT_3D('',#170,#171,#172);
#170 = CARTESIAN_POINT('',(173.,283.,676.167));
#171 = DIRECTION('',(0.,1.,2.22044604925E-16));
#172 = DIRECTION('',(1.,0.,-0.));
#173 = FACE_BOUND('',#174,.T.);
#174 = EDGE_LOOP('',(#175));
#175 = ORIENTED_EDGE('',*,*,#176,.F.);
#176 = EDGE_CURVE('',#177,#177,#179,.T.);
#177 = VERTEX_POINT('',#178);
#178 = CARTESIAN_POINT('',(250.75,283.,656.167));
#179 = CIRCLE('',#180,2.75);
#180 = AXIS2_PLACEMENT_3D('',#181,#182,#183);
#181 = CARTESIAN_POINT('',(248.,283.,656.167));
#182 = DIRECTION('',(0.,1.,2.22044604925E-16));
#183 = DIRECTION('',(1.,0.,-0.));
#184 = PLANE('',#185);
#185 = AXIS2_PLACEMENT_3D('',#186,#187,#188);
#186 = CARTESIAN_POINT('',(45.,283.,706.167));
#187 = DIRECTION('',(0.,1.,2.22044604925E-16));
#188 = DIRECTION('',(1.,0.,-0.));
#189 = ADVANCED_FACE('',(#190),#208,.T.);
#190 = FACE_BOUND('',#191,.T.);
#191 = EDGE_LOOP('',(#192,#200,#201,#202));
#192 = ORIENTED_EDGE('',*,*,#193,.F.);
#193 = EDGE_CURVE('',#32,#194,#196,.T.);
#194 = VERTEX_POINT('',#195);
#195 = CARTESIAN_POINT('',(261.,273.,646.167));
#196 = LINE('',#197,#198);
#197 = CARTESIAN_POINT('',(45.,273.,646.167));
#198 = VECTOR('',#199,1.);
#199 = DIRECTION('',(1.,0.,-0.));
#200 = ORIENTED_EDGE('',*,*,#39,.T.);
#201 = ORIENTED_EDGE('',*,*,#102,.T.);
#202 = ORIENTED_EDGE('',*,*,#203,.F.);
#203 = EDGE_CURVE('',#194,#95,#204,.T.);
#204 = LINE('',#205,#206);
#205 = CARTESIAN_POINT('',(261.,273.,646.167));
#206 = VECTOR('',#207,1.);
#207 = DIRECTION('',(0.,1.,2.22044604925E-16));
#208 = PLANE('',#209);
#209 = AXIS2_PLACEMENT_3D('',#210,#211,#212);
#210 = CARTESIAN_POINT('',(45.,273.,646.167));
#211 = DIRECTION('',(0.,2.22044604925E-16,-1.));
#212 = DIRECTION('',(0.,1.,2.22044604925E-16));
#213 = ADVANCED_FACE('',(#214,#225,#236,#247,#258,#269,#280,#291),#302,
  .F.);
#214 = FACE_BOUND('',#215,.F.);
#215 = EDGE_LOOP('',(#216,#217,#218,#224));
#216 = ORIENTED_EDGE('',*,*,#31,.F.);
#217 = ORIENTED_EDGE('',*,*,#61,.T.);
#218 = ORIENTED_EDGE('',*,*,#219,.T.);
#219 = EDGE_CURVE('',#62,#194,#220,.T.);
#220 = LINE('',#221,#222);
#221 = CARTESIAN_POINT('',(261.,273.,706.167));
#222 = VECTOR('',#223,1.);
#223 = DIRECTION('',(0.,2.22044604925E-16,-1.));
#224 = ORIENTED_EDGE('',*,*,#193,.F.);
#225 = FACE_BOUND('',#226,.F.);
#226 = EDGE_LOOP('',(#227));
#227 = ORIENTED_EDGE('',*,*,#228,.F.);
#228 = EDGE_CURVE('',#229,#229,#231,.T.);
#229 = VERTEX_POINT('',#230);
#230 = CARTESIAN_POINT('',(57.75,273.,696.167));
#231 = CIRCLE('',#232,2.75);
#232 = AXIS2_PLACEMENT_3D('',#233,#234,#235);
#233 = CARTESIAN_POINT('',(55.,273.,696.167));
#234 = DIRECTION('',(0.,1.,2.22044604925E-16));
#235 = DIRECTION('',(1.,0.,-0.));
#236 = FACE_BOUND('',#237,.F.);
#237 = EDGE_LOOP('',(#238));
#238 = ORIENTED_EDGE('',*,*,#239,.F.);
#239 = EDGE_CURVE('',#240,#240,#242,.T.);
#240 = VERTEX_POINT('',#241);
#241 = CARTESIAN_POINT('',(250.75,273.,696.167));
#242 = CIRCLE('',#243,2.75);
#243 = AXIS2_PLACEMENT_3D('',#244,#245,#246);
#244 = CARTESIAN_POINT('',(248.,273.,696.167));
#245 = DIRECTION('',(0.,1.,2.22044604925E-16));
#246 = DIRECTION('',(1.,0.,-0.));
#247 = FACE_BOUND('',#248,.F.);
#248 = EDGE_LOOP('',(#249));
#249 = ORIENTED_EDGE('',*,*,#250,.F.);
#250 = EDGE_CURVE('',#251,#251,#253,.T.);
#251 = VERTEX_POINT('',#252);
#252 = CARTESIAN_POINT('',(134.25,273.,676.167));
#253 = CIRCLE('',#254,1.25);
#254 = AXIS2_PLACEMENT_3D('',#255,#256,#257);
#255 = CARTESIAN_POINT('',(133.,273.,676.167));
#256 = DIRECTION('',(0.,1.,2.22044604925E-16));
#257 = DIRECTION('',(1.,0.,-0.));
#258 = FACE_BOUND('',#259,.F.);
#259 = EDGE_LOOP('',(#260));
#260 = ORIENTED_EDGE('',*,*,#261,.F.);
#261 = EDGE_CURVE('',#262,#262,#264,.T.);
#262 = VERTEX_POINT('',#263);
#263 = CARTESIAN_POINT('',(57.75,273.,656.167));
#264 = CIRCLE('',#265,2.75);
#265 = AXIS2_PLACEMENT_3D('',#266,#267,#268);
#266 = CARTESIAN_POINT('',(55.,273.,656.167));
#267 = DIRECTION('',(0.,1.,2.22044604925E-16));
#268 = DIRECTION('',(1.,0.,-0.));
#269 = FACE_BOUND('',#270,.F.);
#270 = EDGE_LOOP('',(#271));
#271 = ORIENTED_EDGE('',*,*,#272,.F.);
#272 = EDGE_CURVE('',#273,#273,#275,.T.);
#273 = VERTEX_POINT('',#274);
#274 = CARTESIAN_POINT('',(169.015,273.,676.167));
#275 = CIRCLE('',#276,16.015);
#276 = AXIS2_PLACEMENT_3D('',#277,#278,#279);
#277 = CARTESIAN_POINT('',(153.,273.,676.167));
#278 = DIRECTION('',(0.,1.,2.22044604925E-16));
#279 = DIRECTION('',(1.,0.,-0.));
#280 = FACE_BOUND('',#281,.F.);
#281 = EDGE_LOOP('',(#282));
#282 = ORIENTED_EDGE('',*,*,#283,.F.);
#283 = EDGE_CURVE('',#284,#284,#286,.T.);
#284 = VERTEX_POINT('',#285);
#285 = CARTESIAN_POINT('',(174.25,273.,676.167));
#286 = CIRCLE('',#287,1.25);
#287 = AXIS2_PLACEMENT_3D('',#288,#289,#290);
#288 = CARTESIAN_POINT('',(173.,273.,676.167));
#289 = DIRECTION('',(0.,1.,2.22044604925E-16));
#290 = DIRECTION('',(1.,0.,-0.));
#291 = FACE_BOUND('',#292,.F.);
#292 = EDGE_LOOP('',(#293));
#293 = ORIENTED_EDGE('',*,*,#294,.F.);
#294 = EDGE_CURVE('',#295,#295,#297,.T.);
#295 = VERTEX_POINT('',#296);
#296 = CARTESIAN_POINT('',(250.75,273.,656.167));
#297 = CIRCLE('',#298,2.75);
#298 = AXIS2_PLACEMENT_3D('',#299,#300,#301);
#299 = CARTESIAN_POINT('',(248.,273.,656.167));
#300 = DIRECTION('',(0.,1.,2.22044604925E-16));
#301 = DIRECTION('',(1.,0.,-0.));
#302 = PLANE('',#303);
#303 = AXIS2_PLACEMENT_3D('',#304,#305,#306);
#304 = CARTESIAN_POINT('',(45.,273.,706.167));
#305 = DIRECTION('',(0.,1.,2.22044604925E-16));
#306 = DIRECTION('',(1.,0.,-0.));
#307 = ADVANCED_FACE('',(#308),#314,.T.);
#308 = FACE_BOUND('',#309,.T.);
#309 = EDGE_LOOP('',(#310,#311,#312,#313));
#310 = ORIENTED_EDGE('',*,*,#78,.F.);
#311 = ORIENTED_EDGE('',*,*,#219,.T.);
#312 = ORIENTED_EDGE('',*,*,#203,.T.);
#313 = ORIENTED_EDGE('',*,*,#94,.F.);
#314 = PLANE('',#315);
#315 = AXIS2_PLACEMENT_3D('',#316,#317,#318);
#316 = CARTESIAN_POINT('',(261.,273.,706.167));
#317 = DIRECTION('',(1.,0.,-0.));
#318 = DIRECTION('',(0.,1.,2.22044604925E-16));
#319 = ADVANCED_FACE('',(#320),#331,.F.);
#320 = FACE_BOUND('',#321,.F.);
#321 = EDGE_LOOP('',(#322,#323,#329,#330));
#322 = ORIENTED_EDGE('',*,*,#110,.F.);
#323 = ORIENTED_EDGE('',*,*,#324,.F.);
#324 = EDGE_CURVE('',#229,#111,#325,.T.);
#325 = LINE('',#326,#327);
#326 = CARTESIAN_POINT('',(57.75,273.,696.167));
#327 = VECTOR('',#328,1.);
#328 = DIRECTION('',(0.,1.,2.22044604925E-16));
#329 = ORIENTED_EDGE('',*,*,#228,.T.);
#330 = ORIENTED_EDGE('',*,*,#324,.T.);
#331 = CYLINDRICAL_SURFACE('',#332,2.75);
#332 = AXIS2_PLACEMENT_3D('',#333,#334,#335);
#333 = CARTESIAN_POINT('',(55.,273.,696.167));
#334 = DIRECTION('',(0.,1.,2.22044604925E-16));
#335 = DIRECTION('',(1.,0.,-0.));
#336 = ADVANCED_FACE('',(#337),#348,.F.);
#337 = FACE_BOUND('',#338,.F.);
#338 = EDGE_LOOP('',(#339,#340,#346,#347));
#339 = ORIENTED_EDGE('',*,*,#121,.F.);
#340 = ORIENTED_EDGE('',*,*,#341,.F.);
#341 = EDGE_CURVE('',#240,#122,#342,.T.);
#342 = LINE('',#343,#344);
#343 = CARTESIAN_POINT('',(250.75,273.,696.167));
#344 = VECTOR('',#345,1.);
#345 = DIRECTION('',(0.,1.,2.22044604925E-16));
#346 = ORIENTED_EDGE('',*,*,#239,.T.);
#347 = ORIENTED_EDGE('',*,*,#341,.T.);
#348 = CYLINDRICAL_SURFACE('',#349,2.75);
#349 = AXIS2_PLACEMENT_3D('',#350,#351,#352);
#350 = CARTESIAN_POINT('',(248.,273.,696.167));
#351 = DIRECTION('',(0.,1.,2.22044604925E-16));
#352 = DIRECTION('',(1.,0.,-0.));
#353 = ADVANCED_FACE('',(#354),#365,.F.);
#354 = FACE_BOUND('',#355,.F.);
#355 = EDGE_LOOP('',(#356,#357,#363,#364));
#356 = ORIENTED_EDGE('',*,*,#132,.F.);
#357 = ORIENTED_EDGE('',*,*,#358,.F.);
#358 = EDGE_CURVE('',#251,#133,#359,.T.);
#359 = LINE('',#360,#361);
#360 = CARTESIAN_POINT('',(134.25,273.,676.167));
#361 = VECTOR('',#362,1.);
#362 = DIRECTION('',(0.,1.,2.22044604925E-16));
#363 = ORIENTED_EDGE('',*,*,#250,.T.);
#364 = ORIENTED_EDGE('',*,*,#358,.T.);
#365 = CYLINDRICAL_SURFACE('',#366,1.25);
#366 = AXIS2_PLACEMENT_3D('',#367,#368,#369);
#367 = CARTESIAN_POINT('',(133.,273.,676.167));
#368 = DIRECTION('',(0.,1.,2.22044604925E-16));
#369 = DIRECTION('',(1.,0.,-0.));
#370 = ADVANCED_FACE('',(#371),#382,.F.);
#371 = FACE_BOUND('',#372,.F.);
#372 = EDGE_LOOP('',(#373,#374,#380,#381));
#373 = ORIENTED_EDGE('',*,*,#143,.F.);
#374 = ORIENTED_EDGE('',*,*,#375,.F.);
#375 = EDGE_CURVE('',#262,#144,#376,.T.);
#376 = LINE('',#377,#378);
#377 = CARTESIAN_POINT('',(57.75,273.,656.167));
#378 = VECTOR('',#379,1.);
#379 = DIRECTION('',(0.,1.,2.22044604925E-16));
#380 = ORIENTED_EDGE('',*,*,#261,.T.);
#381 = ORIENTED_EDGE('',*,*,#375,.T.);
#382 = CYLINDRICAL_SURFACE('',#383,2.75);
#383 = AXIS2_PLACEMENT_3D('',#384,#385,#386);
#384 = CARTESIAN_POINT('',(55.,273.,656.167));
#385 = DIRECTION('',(0.,1.,2.22044604925E-16));
#386 = DIRECTION('',(1.,0.,-0.));
#387 = ADVANCED_FACE('',(#388),#399,.F.);
#388 = FACE_BOUND('',#389,.F.);
#389 = EDGE_LOOP('',(#390,#391,#397,#398));
#390 = ORIENTED_EDGE('',*,*,#154,.F.);
#391 = ORIENTED_EDGE('',*,*,#392,.F.);
#392 = EDGE_CURVE('',#273,#155,#393,.T.);
#393 = LINE('',#394,#395);
#394 = CARTESIAN_POINT('',(169.015,273.,676.167));
#395 = VECTOR('',#396,1.);
#396 = DIRECTION('',(0.,1.,2.22044604925E-16));
#397 = ORIENTED_EDGE('',*,*,#272,.T.);
#398 = ORIENTED_EDGE('',*,*,#392,.T.);
#399 = CYLINDRICAL_SURFACE('',#400,16.015);
#400 = AXIS2_PLACEMENT_3D('',#401,#402,#403);
#401 = CARTESIAN_POINT('',(153.,273.,676.167));
#402 = DIRECTION('',(0.,1.,2.22044604925E-16));
#403 = DIRECTION('',(1.,0.,-0.));
#404 = ADVANCED_FACE('',(#405),#416,.F.);
#405 = FACE_BOUND('',#406,.F.);
#406 = EDGE_LOOP('',(#407,#408,#414,#415));
#407 = ORIENTED_EDGE('',*,*,#165,.F.);
#408 = ORIENTED_EDGE('',*,*,#409,.F.);
#409 = EDGE_CURVE('',#284,#166,#410,.T.);
#410 = LINE('',#411,#412);
#411 = CARTESIAN_POINT('',(174.25,273.,676.167));
#412 = VECTOR('',#413,1.);
#413 = DIRECTION('',(0.,1.,2.22044604925E-16));
#414 = ORIENTED_EDGE('',*,*,#283,.T.);
#415 = ORIENTED_EDGE('',*,*,#409,.T.);
#416 = CYLINDRICAL_SURFACE('',#417,1.25);
#417 = AXIS2_PLACEMENT_3D('',#418,#419,#420);
#418 = CARTESIAN_POINT('',(173.,273.,676.167));
#419 = DIRECTION('',(0.,1.,2.22044604925E-16));
#420 = DIRECTION('',(1.,0.,-0.));
#421 = ADVANCED_FACE('',(#422),#433,.F.);
#422 = FACE_BOUND('',#423,.F.);
#423 = EDGE_LOOP('',(#424,#425,#431,#432));
#424 = ORIENTED_EDGE('',*,*,#176,.F.);
#425 = ORIENTED_EDGE('',*,*,#426,.F.);
#426 = EDGE_CURVE('',#295,#177,#427,.T.);
#427 = LINE('',#428,#429);
#428 = CARTESIAN_POINT('',(250.75,273.,656.167));
#429 = VECTOR('',#430,1.);
#430 = DIRECTION('',(0.,1.,2.22044604925E-16));
#431 = ORIENTED_EDGE('',*,*,#294,.T.);
#432 = ORIENTED_EDGE('',*,*,#426,.T.);
#433 = CYLINDRICAL_SURFACE('',#434,2.75);
#434 = AXIS2_PLACEMENT_3D('',#435,#436,#437);
#435 = CARTESIAN_POINT('',(248.,273.,656.167));
#436 = DIRECTION('',(0.,1.,2.22044604925E-16));
#437 = DIRECTION('',(1.,0.,-0.));
#438 = ( GEOMETRIC_REPRESENTATION_CONTEXT(3) 
GLOBAL_UNCERTAINTY_ASSIGNED_CONTEXT((#442)) GLOBAL_UNIT_ASSIGNED_CONTEXT
((#439,#440,#441)) REPRESENTATION_CONTEXT('Context #1',
  '3D Context with UNIT and UNCERTAINTY') );
#439 = ( LENGTH_UNIT() NAMED_UNIT(*) SI_UNIT(.MILLI.,.METRE.) );
#440 = ( NAMED_UNIT(*) PLANE_ANGLE_UNIT() SI_UNIT($,.RADIAN.) );
#441 = ( NAMED_UNIT(*) SI_UNIT($,.STERADIAN.) SOLID_ANGLE_UNIT() );
#442 = UNCERTAINTY_MEASURE_WITH_UNIT(LENGTH_MEASURE(1.E-07),#439,
  'distance_accuracy_value','confusion accuracy');
#443 = PRODUCT_RELATED_PRODUCT_CATEGORY('part',$,(#7));
ENDSEC;
END-ISO-10303-21;
