ISO-10303-21;
HEADER;
FILE_DESCRIPTION(('FreeCAD Model'),'2;1');
FILE_NAME('Open CASCADE Shape Model','2000-01-01T00:00:00',('FreeCAD'),(
    'FreeCAD'),'Open CASCADE STEP processor 7.9','FreeCAD','Unknown');
FILE_SCHEMA(('AUTOMOTIVE_DESIGN { 1 0 10303 214 1 1 1 1 }'));
ENDSEC;
DATA;
#1 = APPLICATION_PROTOCOL_DEFINITION('international standard',
  'automotive_design',2000,#2);
#2 = APPLICATION_CONTEXT(
  'core data for automotive mechanical design processes');
#3 = SHAPE_DEFINITION_REPRESENTATION(#4,#10);
#4 = PRODUCT_DEFINITION_SHAPE('','',#5);
#5 = PRODUCT_DEFINITION('design','',#6,#9);
#6 = PRODUCT_DEFINITION_FORMATION('','',#7);
#7 = PRODUCT('Open CASCADE STEP translator 7.9 0',
  'Open CASCADE STEP translator 7.9 0','',(#8));
#8 = PRODUCT_CONTEXT('',#2,'mechanical');
#9 = PRODUCT_DEFINITION_CONTEXT('part definition',#2,'design');
#10 = ADVANCED_BREP_SHAPE_REPRESENTATION('',(#11,#15),#260);
#11 = AXIS2_PLACEMENT_3D('',#12,#13,#14);
#12 = CARTESIAN_POINT('',(0.,0.,0.));
#13 = DIRECTION('',(0.,0.,1.));
#14 = DIRECTION('',(1.,0.,-0.));
#15 = MANIFOLD_SOLID_BREP('',#16);
#16 = CLOSED_SHELL('',(#17,#180,#200,#209,#226,#251));
#17 = ADVANCED_FACE('',(#18,#45,#110),#175,.T.);
#18 = FACE_BOUND('',#19,.T.);
#19 = EDGE_LOOP('',(#20,#30,#37,#38));
#20 = ORIENTED_EDGE('',*,*,#21,.T.);
#21 = EDGE_CURVE('',#22,#24,#26,.T.);
#22 = VERTEX_POINT('',#23);
#23 = CARTESIAN_POINT('',(320.,447.3,399.5));
#24 = VERTEX_POINT('',#25);
#25 = CARTESIAN_POINT('',(320.,435.6,399.5));
#26 = LINE('',#27,#28);
#27 = CARTESIAN_POINT('',(320.,447.3,399.5));
#28 = VECTOR('',#29,1.);
#29 = DIRECTION('',(0.,-1.,0.));
#30 = ORIENTED_EDGE('',*,*,#31,.F.);
#31 = EDGE_CURVE('',#24,#24,#32,.T.);
#32 = CIRCLE('',#33,1.5);
#33 = AXIS2_PLACEMENT_3D('',#34,#35,#36);
#34 = CARTESIAN_POINT('',(320.,435.6,398.));
#35 = DIRECTION('',(0.,-1.,0.));
#36 = DIRECTION('',(0.,0.,1.));
#37 = ORIENTED_EDGE('',*,*,#21,.F.);
#38 = ORIENTED_EDGE('',*,*,#39,.T.);
#39 = EDGE_CURVE('',#22,#22,#40,.T.);
#40 = CIRCLE('',#41,1.5);
#41 = AXIS2_PLACEMENT_3D('',#42,#43,#44);
#42 = CARTESIAN_POINT('',(320.,447.3,398.));
#43 = DIRECTION('',(0.,-1.,0.));
#44 = DIRECTION('',(0.,0.,1.));
#45 = FACE_BOUND('',#46,.T.);
#46 = EDGE_LOOP('',(#47));
#47 = ORIENTED_EDGE('',*,*,#48,.F.);
#48 = EDGE_CURVE('',#49,#49,#51,.T.);
#49 = VERTEX_POINT('',#50);
#50 = CARTESIAN_POINT('',(318.5,436.55,398.));
#51 = B_SPLINE_CURVE_WITH_KNOTS('',8,(#52,#53,#54,#55,#56,#57,#58,#59,
    #60,#61,#62,#63,#64,#65,#66,#67,#68,#69,#70,#71,#72,#73,#74,#75,#76,
    #77,#78,#79,#80,#81,#82,#83,#84,#85,#86,#87,#88,#89,#90,#91,#92,#93,
    #94,#95,#96,#97,#98,#99,#100,#101,#102,#103,#104,#105,#106,#107,#108
    ,#109),.UNSPECIFIED.,.T.,.F.,(9,7,7,7,7,7,7,7,9),(0.,
    8.346749290845E-02,0.189060849956,0.311284058703,0.441507366611,
    0.578657525852,0.811506038089,0.916782728389,1.),.UNSPECIFIED.);
#52 = CARTESIAN_POINT('',(318.5,436.55,398.));
#53 = CARTESIAN_POINT('',(318.5,436.55,398.03021161389));
#54 = CARTESIAN_POINT('',(318.50069543205,436.55231808201,398.0604035449
    ));
#55 = CARTESIAN_POINT('',(318.50208466466,436.55694891882,
    398.09035518692));
#56 = CARTESIAN_POINT('',(318.50413956151,436.56385940147,
    398.11984753786));
#57 = CARTESIAN_POINT('',(318.50680561498,436.57298888448,
    398.14866586099));
#58 = CARTESIAN_POINT('',(318.51000426268,436.58424904196,
    398.17660304172));
#59 = CARTESIAN_POINT('',(318.5136373868,436.59752333467,398.20346363982
    ));
#60 = CARTESIAN_POINT('',(318.52259943835,436.63182293665,398.2614610994
    ));
#61 = CARTESIAN_POINT('',(318.52812451046,436.65397783983,
    398.29185708581));
#62 = CARTESIAN_POINT('',(318.53395721432,436.67888375863,
    398.31996523981));
#63 = CARTESIAN_POINT('',(318.53986003646,436.70626634529,
    398.34552682017));
#64 = CARTESIAN_POINT('',(318.54558785614,436.73582777393,398.3683181376
    ));
#65 = CARTESIAN_POINT('',(318.55090592747,436.76725088651,
    398.38815259316));
#66 = CARTESIAN_POINT('',(318.55560793582,436.80020365377,
    398.40488231863));
#67 = CARTESIAN_POINT('',(318.5640786559,436.87386098935,398.43404532084
    ));
#68 = CARTESIAN_POINT('',(318.56758738622,436.91500255776,
    398.44540015707));
#69 = CARTESIAN_POINT('',(318.56980716553,436.95722879095,
    398.45227892083));
#70 = CARTESIAN_POINT('',(318.57056715823,436.99999746816,
    398.45458228704));
#71 = CARTESIAN_POINT('',(318.5698073092,437.04276576475,398.45227930193
    ));
#72 = CARTESIAN_POINT('',(318.56758775431,437.08499158226,
    398.44540131081));
#73 = CARTESIAN_POINT('',(318.56407917955,437.12613445722,
    398.43404712366));
#74 = CARTESIAN_POINT('',(318.55469158225,437.20776451918,
    398.40172749578));
#75 = CARTESIAN_POINT('',(318.54866511582,437.24810153695,398.3801544124
    ));
#76 = CARTESIAN_POINT('',(318.54175236276,437.28599615302,
    398.35387784281));
#77 = CARTESIAN_POINT('',(318.5343668844,437.32081046451,398.32320119889
    ));
#78 = CARTESIAN_POINT('',(318.52697728261,437.35195415777,398.2885226289
    ));
#79 = CARTESIAN_POINT('',(318.52005197816,437.37889625796,
    398.25032434424));
#80 = CARTESIAN_POINT('',(318.51400965514,437.40117408541,
    398.20916227422));
#81 = CARTESIAN_POINT('',(318.50408394174,437.43654100355,
    398.11983563565));
#82 = CARTESIAN_POINT('',(318.50034178058,437.44904648827,
    398.07149552869));
#83 = CARTESIAN_POINT('',(318.4983429652,437.45542517144,398.02155509096
    ));
#84 = CARTESIAN_POINT('',(318.4983306612,437.45542280291,397.97102367264
    ));
#85 = CARTESIAN_POINT('',(318.50033971944,437.44900885754,397.9209348));
#86 = CARTESIAN_POINT('',(318.50418257978,437.43637200795,
    397.87230986209));
#87 = CARTESIAN_POINT('',(318.50948129861,437.41792723389,
    397.82611949286));
#88 = CARTESIAN_POINT('',(318.52638877224,437.35428907974,397.7103621202
    ));
#89 = CARTESIAN_POINT('',(318.53984805166,437.29931380266,
    397.64679355879));
#90 = CARTESIAN_POINT('',(318.55390492824,437.23197833999,
    397.59573900872));
#91 = CARTESIAN_POINT('',(318.56571036677,437.1556191997,397.55976827686
    ));
#92 = CARTESIAN_POINT('',(318.57245539285,437.07403685758,
    397.54023035023));
#93 = CARTESIAN_POINT('',(318.57307480824,436.9909095353,397.53762763142
    ));
#94 = CARTESIAN_POINT('',(318.56821798982,436.90985465989,
    397.55170377685));
#95 = CARTESIAN_POINT('',(318.55560793582,436.80020365377,
    397.59511768136));
#96 = CARTESIAN_POINT('',(318.55090592747,436.76725088651,
    397.61184740683));
#97 = CARTESIAN_POINT('',(318.54558785614,436.73582777393,
    397.63168186239));
#98 = CARTESIAN_POINT('',(318.53986003646,436.70626634529,
    397.65447317982));
#99 = CARTESIAN_POINT('',(318.53395721432,436.67888375863,
    397.68003476018));
#100 = CARTESIAN_POINT('',(318.52812451046,436.65397783983,
    397.70814291418));
#101 = CARTESIAN_POINT('',(318.52259943835,436.63182293665,
    397.73853890059));
#102 = CARTESIAN_POINT('',(318.51363738244,436.597523318,397.79653638836
    ));
#103 = CARTESIAN_POINT('',(318.51000425505,436.58424901429,
    397.82339701479));
#104 = CARTESIAN_POINT('',(318.50680560686,436.57298885654,
    397.8513342141));
#105 = CARTESIAN_POINT('',(318.50413955578,436.56385938237,
    397.88015253825));
#106 = CARTESIAN_POINT('',(318.50208466254,436.55694891145,
    397.90964487112));
#107 = CARTESIAN_POINT('',(318.50069543228,436.55231808205,
    397.93959648293));
#108 = CARTESIAN_POINT('',(318.5,436.55,397.96978838716));
#109 = CARTESIAN_POINT('',(318.5,436.55,398.));
#110 = FACE_BOUND('',#111,.T.);
#111 = EDGE_LOOP('',(#112));
#112 = ORIENTED_EDGE('',*,*,#113,.T.);
#113 = EDGE_CURVE('',#114,#114,#116,.T.);
#114 = VERTEX_POINT('',#115);
#115 = CARTESIAN_POINT('',(321.5,436.55,398.));
#116 = B_SPLINE_CURVE_WITH_KNOTS('',8,(#117,#118,#119,#120,#121,#122,
    #123,#124,#125,#126,#127,#128,#129,#130,#131,#132,#133,#134,#135,
    #136,#137,#138,#139,#140,#141,#142,#143,#144,#145,#146,#147,#148,
    #149,#150,#151,#152,#153,#154,#155,#156,#157,#158,#159,#160,#161,
    #162,#163,#164,#165,#166,#167,#168,#169,#170,#171,#172,#173,#174),
  .UNSPECIFIED.,.T.,.F.,(9,7,7,7,7,7,7,7,9),(0.,8.346749290892E-02,
    0.189060849957,0.311284058705,0.441507366614,0.578657525853,
    0.81150603809,0.91678272839,1.),.UNSPECIFIED.);
#117 = CARTESIAN_POINT('',(321.5,436.55,398.));
#118 = CARTESIAN_POINT('',(321.5,436.55,398.03021161389));
#119 = CARTESIAN_POINT('',(321.49930456794,436.55231808201,
    398.0604035449));
#120 = CARTESIAN_POINT('',(321.49791533533,436.55694891882,
    398.09035518692));
#121 = CARTESIAN_POINT('',(321.49586043848,436.56385940147,
    398.11984753786));
#122 = CARTESIAN_POINT('',(321.49319438501,436.57298888448,
    398.14866586099));
#123 = CARTESIAN_POINT('',(321.48999573731,436.58424904196,
    398.17660304172));
#124 = CARTESIAN_POINT('',(321.48636261319,436.59752333467,
    398.20346363982));
#125 = CARTESIAN_POINT('',(321.47740056165,436.63182293665,
    398.2614610994));
#126 = CARTESIAN_POINT('',(321.47187548953,436.65397783983,
    398.29185708581));
#127 = CARTESIAN_POINT('',(321.46604278567,436.67888375863,
    398.31996523981));
#128 = CARTESIAN_POINT('',(321.46013996353,436.70626634529,
    398.34552682017));
#129 = CARTESIAN_POINT('',(321.45441214385,436.73582777393,
    398.3683181376));
#130 = CARTESIAN_POINT('',(321.44909407253,436.76725088651,
    398.38815259316));
#131 = CARTESIAN_POINT('',(321.44439206417,436.80020365377,
    398.40488231863));
#132 = CARTESIAN_POINT('',(321.43592134409,436.87386098935,
    398.43404532084));
#133 = CARTESIAN_POINT('',(321.43241261377,436.91500255776,
    398.44540015707));
#134 = CARTESIAN_POINT('',(321.43019283446,436.95722879095,
    398.45227892083));
#135 = CARTESIAN_POINT('',(321.42943284176,436.99999746816,
    398.45458228704));
#136 = CARTESIAN_POINT('',(321.4301926908,437.04276576475,
    398.45227930193));
#137 = CARTESIAN_POINT('',(321.43241224568,437.08499158226,
    398.44540131081));
#138 = CARTESIAN_POINT('',(321.43592082044,437.12613445722,
    398.43404712366));
#139 = CARTESIAN_POINT('',(321.44530841774,437.20776451917,
    398.40172749578));
#140 = CARTESIAN_POINT('',(321.45133488417,437.24810153695,
    398.3801544124));
#141 = CARTESIAN_POINT('',(321.45824763724,437.28599615302,
    398.35387784281));
#142 = CARTESIAN_POINT('',(321.46563311559,437.32081046451,
    398.32320119889));
#143 = CARTESIAN_POINT('',(321.47302271738,437.35195415777,
    398.2885226289));
#144 = CARTESIAN_POINT('',(321.47994802183,437.37889625796,
    398.25032434424));
#145 = CARTESIAN_POINT('',(321.48599034485,437.40117408541,
    398.20916227422));
#146 = CARTESIAN_POINT('',(321.49591605825,437.43654100355,
    398.11983563566));
#147 = CARTESIAN_POINT('',(321.49965821942,437.44904648827,
    398.07149552869));
#148 = CARTESIAN_POINT('',(321.50165703479,437.45542517144,
    398.02155509095));
#149 = CARTESIAN_POINT('',(321.50166933879,437.45542280291,
    397.97102367264));
#150 = CARTESIAN_POINT('',(321.49966028055,437.44900885754,397.9209348)
  );
#151 = CARTESIAN_POINT('',(321.49581742021,437.43637200795,
    397.87230986209));
#152 = CARTESIAN_POINT('',(321.49051870139,437.41792723389,
    397.82611949286));
#153 = CARTESIAN_POINT('',(321.47361122775,437.35428907974,
    397.7103621202));
#154 = CARTESIAN_POINT('',(321.46015194833,437.29931380266,
    397.6467935588));
#155 = CARTESIAN_POINT('',(321.44609507175,437.23197833998,
    397.59573900872));
#156 = CARTESIAN_POINT('',(321.43428963322,437.1556191997,
    397.55976827687));
#157 = CARTESIAN_POINT('',(321.42754460714,437.07403685759,
    397.54023035022));
#158 = CARTESIAN_POINT('',(321.42692519175,436.9909095353,
    397.53762763142));
#159 = CARTESIAN_POINT('',(321.43178201017,436.90985465989,
    397.55170377685));
#160 = CARTESIAN_POINT('',(321.44439206417,436.80020365377,
    397.59511768136));
#161 = CARTESIAN_POINT('',(321.44909407253,436.76725088651,
    397.61184740683));
#162 = CARTESIAN_POINT('',(321.45441214385,436.73582777393,
    397.63168186239));
#163 = CARTESIAN_POINT('',(321.46013996353,436.70626634529,
    397.65447317982));
#164 = CARTESIAN_POINT('',(321.46604278567,436.67888375863,
    397.68003476018));
#165 = CARTESIAN_POINT('',(321.47187548953,436.65397783983,
    397.70814291418));
#166 = CARTESIAN_POINT('',(321.47740056165,436.63182293665,
    397.73853890059));
#167 = CARTESIAN_POINT('',(321.48636261755,436.597523318,397.79653638836
    ));
#168 = CARTESIAN_POINT('',(321.48999574494,436.58424901429,
    397.82339701479));
#169 = CARTESIAN_POINT('',(321.49319439313,436.57298885654,
    397.8513342141));
#170 = CARTESIAN_POINT('',(321.49586044421,436.56385938237,
    397.88015253825));
#171 = CARTESIAN_POINT('',(321.49791533745,436.55694891145,
    397.90964487112));
#172 = CARTESIAN_POINT('',(321.49930456771,436.55231808205,
    397.93959648293));
#173 = CARTESIAN_POINT('',(321.5,436.55,397.96978838716));
#174 = CARTESIAN_POINT('',(321.5,436.55,398.));
#175 = CYLINDRICAL_SURFACE('',#176,1.5);
#176 = AXIS2_PLACEMENT_3D('',#177,#178,#179);
#177 = CARTESIAN_POINT('',(320.,447.3,398.));
#178 = DIRECTION('',(0.,-1.,0.));
#179 = DIRECTION('',(0.,0.,1.));
#180 = ADVANCED_FACE('',(#181,#192),#195,.T.);
#181 = FACE_BOUND('',#182,.T.);
#182 = EDGE_LOOP('',(#183));
#183 = ORIENTED_EDGE('',*,*,#184,.T.);
#184 = EDGE_CURVE('',#185,#185,#187,.T.);
#185 = VERTEX_POINT('',#186);
#186 = CARTESIAN_POINT('',(320.,447.3,400.));
#187 = CIRCLE('',#188,2.);
#188 = AXIS2_PLACEMENT_3D('',#189,#190,#191);
#189 = CARTESIAN_POINT('',(320.,447.3,398.));
#190 = DIRECTION('',(0.,-1.,0.));
#191 = DIRECTION('',(0.,0.,1.));
#192 = FACE_BOUND('',#193,.T.);
#193 = EDGE_LOOP('',(#194));
#194 = ORIENTED_EDGE('',*,*,#39,.F.);
#195 = PLANE('',#196);
#196 = AXIS2_PLACEMENT_3D('',#197,#198,#199);
#197 = CARTESIAN_POINT('',(320.,447.3,398.));
#198 = DIRECTION('',(0.,-1.,0.));
#199 = DIRECTION('',(0.,0.,1.));
#200 = ADVANCED_FACE('',(#201),#204,.T.);
#201 = FACE_BOUND('',#202,.T.);
#202 = EDGE_LOOP('',(#203));
#203 = ORIENTED_EDGE('',*,*,#31,.T.);
#204 = PLANE('',#205);
#205 = AXIS2_PLACEMENT_3D('',#206,#207,#208);
#206 = CARTESIAN_POINT('',(320.,435.6,398.));
#207 = DIRECTION('',(0.,-1.,0.));
#208 = DIRECTION('',(0.,0.,1.));
#209 = ADVANCED_FACE('',(#210),#221,.F.);
#210 = FACE_BOUND('',#211,.F.);
#211 = EDGE_LOOP('',(#212,#213,#219,#220));
#212 = ORIENTED_EDGE('',*,*,#48,.F.);
#213 = ORIENTED_EDGE('',*,*,#214,.F.);
#214 = EDGE_CURVE('',#114,#49,#215,.T.);
#215 = LINE('',#216,#217);
#216 = CARTESIAN_POINT('',(322.,436.55,398.));
#217 = VECTOR('',#218,1.);
#218 = DIRECTION('',(-1.,0.,0.));
#219 = ORIENTED_EDGE('',*,*,#113,.T.);
#220 = ORIENTED_EDGE('',*,*,#214,.T.);
#221 = CYLINDRICAL_SURFACE('',#222,0.45);
#222 = AXIS2_PLACEMENT_3D('',#223,#224,#225);
#223 = CARTESIAN_POINT('',(322.,437.,398.));
#224 = DIRECTION('',(-1.,0.,0.));
#225 = DIRECTION('',(0.,-1.,0.));
#226 = ADVANCED_FACE('',(#227),#246,.T.);
#227 = FACE_BOUND('',#228,.T.);
#228 = EDGE_LOOP('',(#229,#230,#238,#245));
#229 = ORIENTED_EDGE('',*,*,#184,.F.);
#230 = ORIENTED_EDGE('',*,*,#231,.F.);
#231 = EDGE_CURVE('',#232,#185,#234,.T.);
#232 = VERTEX_POINT('',#233);
#233 = CARTESIAN_POINT('',(320.,448.3,400.));
#234 = LINE('',#235,#236);
#235 = CARTESIAN_POINT('',(320.,448.3,400.));
#236 = VECTOR('',#237,1.);
#237 = DIRECTION('',(0.,-1.,0.));
#238 = ORIENTED_EDGE('',*,*,#239,.T.);
#239 = EDGE_CURVE('',#232,#232,#240,.T.);
#240 = CIRCLE('',#241,2.);
#241 = AXIS2_PLACEMENT_3D('',#242,#243,#244);
#242 = CARTESIAN_POINT('',(320.,448.3,398.));
#243 = DIRECTION('',(0.,-1.,0.));
#244 = DIRECTION('',(0.,0.,1.));
#245 = ORIENTED_EDGE('',*,*,#231,.T.);
#246 = CYLINDRICAL_SURFACE('',#247,2.);
#247 = AXIS2_PLACEMENT_3D('',#248,#249,#250);
#248 = CARTESIAN_POINT('',(320.,448.3,398.));
#249 = DIRECTION('',(0.,-1.,0.));
#250 = DIRECTION('',(0.,0.,1.));
#251 = ADVANCED_FACE('',(#252),#255,.F.);
#252 = FACE_BOUND('',#253,.T.);
#253 = EDGE_LOOP('',(#254));
#254 = ORIENTED_EDGE('',*,*,#239,.F.);
#255 = PLANE('',#256);
#256 = AXIS2_PLACEMENT_3D('',#257,#258,#259);
#257 = CARTESIAN_POINT('',(320.,448.3,398.));
#258 = DIRECTION('',(0.,-1.,0.));
#259 = DIRECTION('',(0.,0.,1.));
#260 = ( GEOMETRIC_REPRESENTATION_CONTEXT(3) 
GLOBAL_UNCERTAINTY_ASSIGNED_CONTEXT((#264)) GLOBAL_UNIT_ASSIGNED_CONTEXT
((#261,#262,#263)) REPRESENTATION_CONTEXT('Context #1',
  '3D Context with UNIT and UNCERTAINTY') );
#261 = ( LENGTH_UNIT() NAMED_UNIT(*) SI_UNIT(.MILLI.,.METRE.) );
#262 = ( NAMED_UNIT(*) PLANE_ANGLE_UNIT() SI_UNIT($,.RADIAN.) );
#263 = ( NAMED_UNIT(*) SI_UNIT($,.STERADIAN.) SOLID_ANGLE_UNIT() );
#264 = UNCERTAINTY_MEASURE_WITH_UNIT(LENGTH_MEASURE(1.E-07),#261,
  'distance_accuracy_value','confusion accuracy');
#265 = PRODUCT_RELATED_PRODUCT_CATEGORY('part',$,(#7));
ENDSEC;
END-ISO-10303-21;
