ISO-10303-21;
HEADER;
FILE_DESCRIPTION(('FreeCAD Model'),'2;1');
FILE_NAME('Open CASCADE Shape Model','2000-01-01T00:00:00',('FreeCAD'),(
    'FreeCAD'),'Open CASCADE STEP processor 7.9','FreeCAD','Unknown');
FILE_SCHEMA(('AUTOMOTIVE_DESIGN { 1 0 10303 214 1 1 1 1 }'));
ENDSEC;
DATA;
#1 = APPLICATION_PROTOCOL_DEFINITION('international standard',
  'automotive_design',2000,#2);
#2 = APPLICATION_CONTEXT(
  'core data for automotive mechanical design processes');
#3 = SHAPE_DEFINITION_REPRESENTATION(#4,#10);
#4 = PRODUCT_DEFINITION_SHAPE('','',#5);
#5 = PRODUCT_DEFINITION('design','',#6,#9);
#6 = PRODUCT_DEFINITION_FORMATION('','',#7);
#7 = PRODUCT('Open CASCADE STEP translator 7.9 0',
  'Open CASCADE STEP translator 7.9 0','',(#8));
#8 = PRODUCT_CONTEXT('',#2,'mechanical');
#9 = PRODUCT_DEFINITION_CONTEXT('part definition',#2,'design');
#10 = ADVANCED_BREP_SHAPE_REPRESENTATION('',(#11,#15),#448);
#11 = AXIS2_PLACEMENT_3D('',#12,#13,#14);
#12 = CARTESIAN_POINT('',(0.,0.,0.));
#13 = DIRECTION('',(0.,0.,1.));
#14 = DIRECTION('',(1.,0.,-0.));
#15 = MANIFOLD_SOLID_BREP('',#16);
#16 = CLOSED_SHELL('',(#17,#50,#81,#112,#202,#219,#244,#297,#322,#375,
    #397,#417,#434));
#17 = ADVANCED_FACE('',(#18),#45,.T.);
#18 = FACE_BOUND('',#19,.T.);
#19 = EDGE_LOOP('',(#20,#29,#37,#44));
#20 = ORIENTED_EDGE('',*,*,#21,.F.);
#21 = EDGE_CURVE('',#22,#22,#24,.T.);
#22 = VERTEX_POINT('',#23);
#23 = CARTESIAN_POINT('',(320.,438.6,405.));
#24 = CIRCLE('',#25,23.);
#25 = AXIS2_PLACEMENT_3D('',#26,#27,#28);
#26 = CARTESIAN_POINT('',(320.,438.6,382.));
#27 = DIRECTION('',(0.,-1.,0.));
#28 = DIRECTION('',(0.,0.,1.));
#29 = ORIENTED_EDGE('',*,*,#30,.F.);
#30 = EDGE_CURVE('',#31,#22,#33,.T.);
#31 = VERTEX_POINT('',#32);
#32 = CARTESIAN_POINT('',(320.,442.6,405.));
#33 = LINE('',#34,#35);
#34 = CARTESIAN_POINT('',(320.,442.6,405.));
#35 = VECTOR('',#36,1.);
#36 = DIRECTION('',(0.,-1.,0.));
#37 = ORIENTED_EDGE('',*,*,#38,.T.);
#38 = EDGE_CURVE('',#31,#31,#39,.T.);
#39 = CIRCLE('',#40,23.);
#40 = AXIS2_PLACEMENT_3D('',#41,#42,#43);
#41 = CARTESIAN_POINT('',(320.,442.6,382.));
#42 = DIRECTION('',(0.,-1.,0.));
#43 = DIRECTION('',(0.,0.,1.));
#44 = ORIENTED_EDGE('',*,*,#30,.T.);
#45 = CYLINDRICAL_SURFACE('',#46,23.);
#46 = AXIS2_PLACEMENT_3D('',#47,#48,#49);
#47 = CARTESIAN_POINT('',(320.,442.6,382.));
#48 = DIRECTION('',(0.,-1.,0.));
#49 = DIRECTION('',(0.,0.,1.));
#50 = ADVANCED_FACE('',(#51,#54,#65),#76,.T.);
#51 = FACE_BOUND('',#52,.T.);
#52 = EDGE_LOOP('',(#53));
#53 = ORIENTED_EDGE('',*,*,#21,.T.);
#54 = FACE_BOUND('',#55,.T.);
#55 = EDGE_LOOP('',(#56));
#56 = ORIENTED_EDGE('',*,*,#57,.F.);
#57 = EDGE_CURVE('',#58,#58,#60,.T.);
#58 = VERTEX_POINT('',#59);
#59 = CARTESIAN_POINT('',(320.,438.6,396.));
#60 = CIRCLE('',#61,14.);
#61 = AXIS2_PLACEMENT_3D('',#62,#63,#64);
#62 = CARTESIAN_POINT('',(320.,438.6,382.));
#63 = DIRECTION('',(0.,-1.,0.));
#64 = DIRECTION('',(0.,0.,1.));
#65 = FACE_BOUND('',#66,.T.);
#66 = EDGE_LOOP('',(#67));
#67 = ORIENTED_EDGE('',*,*,#68,.F.);
#68 = EDGE_CURVE('',#69,#69,#71,.T.);
#69 = VERTEX_POINT('',#70);
#70 = CARTESIAN_POINT('',(320.,438.6,399.55));
#71 = CIRCLE('',#72,1.55);
#72 = AXIS2_PLACEMENT_3D('',#73,#74,#75);
#73 = CARTESIAN_POINT('',(320.,438.6,398.));
#74 = DIRECTION('',(0.,-1.,0.));
#75 = DIRECTION('',(0.,0.,1.));
#76 = PLANE('',#77);
#77 = AXIS2_PLACEMENT_3D('',#78,#79,#80);
#78 = CARTESIAN_POINT('',(320.,438.6,382.));
#79 = DIRECTION('',(0.,-1.,0.));
#80 = DIRECTION('',(0.,0.,1.));
#81 = ADVANCED_FACE('',(#82,#85,#96),#107,.F.);
#82 = FACE_BOUND('',#83,.F.);
#83 = EDGE_LOOP('',(#84));
#84 = ORIENTED_EDGE('',*,*,#38,.T.);
#85 = FACE_BOUND('',#86,.F.);
#86 = EDGE_LOOP('',(#87));
#87 = ORIENTED_EDGE('',*,*,#88,.F.);
#88 = EDGE_CURVE('',#89,#89,#91,.T.);
#89 = VERTEX_POINT('',#90);
#90 = CARTESIAN_POINT('',(320.,442.6,392.05));
#91 = CIRCLE('',#92,10.05);
#92 = AXIS2_PLACEMENT_3D('',#93,#94,#95);
#93 = CARTESIAN_POINT('',(320.,442.6,382.));
#94 = DIRECTION('',(0.,-1.,0.));
#95 = DIRECTION('',(0.,0.,1.));
#96 = FACE_BOUND('',#97,.F.);
#97 = EDGE_LOOP('',(#98));
#98 = ORIENTED_EDGE('',*,*,#99,.F.);
#99 = EDGE_CURVE('',#100,#100,#102,.T.);
#100 = VERTEX_POINT('',#101);
#101 = CARTESIAN_POINT('',(320.,442.6,399.55));
#102 = CIRCLE('',#103,1.55);
#103 = AXIS2_PLACEMENT_3D('',#104,#105,#106);
#104 = CARTESIAN_POINT('',(320.,442.6,398.));
#105 = DIRECTION('',(0.,-1.,0.));
#106 = DIRECTION('',(0.,0.,1.));
#107 = PLANE('',#108);
#108 = AXIS2_PLACEMENT_3D('',#109,#110,#111);
#109 = CARTESIAN_POINT('',(320.,442.6,382.));
#110 = DIRECTION('',(0.,-1.,0.));
#111 = DIRECTION('',(0.,0.,1.));
#112 = ADVANCED_FACE('',(#113,#132),#197,.T.);
#113 = FACE_BOUND('',#114,.T.);
#114 = EDGE_LOOP('',(#115,#123,#130,#131));
#115 = ORIENTED_EDGE('',*,*,#116,.T.);
#116 = EDGE_CURVE('',#58,#117,#119,.T.);
#117 = VERTEX_POINT('',#118);
#118 = CARTESIAN_POINT('',(320.,416.6,396.));
#119 = LINE('',#120,#121);
#120 = CARTESIAN_POINT('',(320.,438.6,396.));
#121 = VECTOR('',#122,1.);
#122 = DIRECTION('',(0.,-1.,0.));
#123 = ORIENTED_EDGE('',*,*,#124,.F.);
#124 = EDGE_CURVE('',#117,#117,#125,.T.);
#125 = CIRCLE('',#126,14.);
#126 = AXIS2_PLACEMENT_3D('',#127,#128,#129);
#127 = CARTESIAN_POINT('',(320.,416.6,382.));
#128 = DIRECTION('',(0.,-1.,0.));
#129 = DIRECTION('',(0.,0.,1.));
#130 = ORIENTED_EDGE('',*,*,#116,.F.);
#131 = ORIENTED_EDGE('',*,*,#57,.T.);
#132 = FACE_BOUND('',#133,.T.);
#133 = EDGE_LOOP('',(#134));
#134 = ORIENTED_EDGE('',*,*,#135,.F.);
#135 = EDGE_CURVE('',#136,#136,#138,.T.);
#136 = VERTEX_POINT('',#137);
#137 = CARTESIAN_POINT('',(306.,426.95,382.));
#138 = B_SPLINE_CURVE_WITH_KNOTS('',8,(#139,#140,#141,#142,#143,#144,
    #145,#146,#147,#148,#149,#150,#151,#152,#153,#154,#155,#156,#157,
    #158,#159,#160,#161,#162,#163,#164,#165,#166,#167,#168,#169,#170,
    #171,#172,#173,#174,#175,#176,#177,#178,#179,#180,#181,#182,#183,
    #184,#185,#186,#187,#188,#189,#190,#191,#192,#193,#194,#195,#196),
  .UNSPECIFIED.,.T.,.F.,(9,7,7,7,7,7,7,7,9),(0.,0.142543386592,
    0.276791476681,0.444639238224,0.591240051458,0.686339625139,
    0.790949681286,0.892367508944,1.),.UNSPECIFIED.);
#139 = CARTESIAN_POINT('',(306.,426.95,382.));
#140 = CARTESIAN_POINT('',(306.,426.95,382.19813565686));
#141 = CARTESIAN_POINT('',(306.00320478294,426.9771912558,
    382.39183081094));
#142 = CARTESIAN_POINT('',(306.00936253138,427.02944237179,
    382.57690054603));
#143 = CARTESIAN_POINT('',(306.01785605539,427.10397664423,
    382.74972179961));
#144 = CARTESIAN_POINT('',(306.02781287252,427.19739314002,
    382.90730782825));
#145 = CARTESIAN_POINT('',(306.03829641393,427.30569619977,
    383.04743913825));
#146 = CARTESIAN_POINT('',(306.04849751108,427.42433445093,
    383.16883464826));
#147 = CARTESIAN_POINT('',(306.06664912972,427.66495510706,
    383.3678933667));
#148 = CARTESIAN_POINT('',(306.07487804182,427.78875398018,
    383.44968630557));
#149 = CARTESIAN_POINT('',(306.08215607348,427.91783380823,
    383.51710076243));
#150 = CARTESIAN_POINT('',(306.08821191444,428.05075654566,
    383.5705308267));
#151 = CARTESIAN_POINT('',(306.0928640342,428.18635530436,
    383.61033089354));
#152 = CARTESIAN_POINT('',(306.09600213033,428.32365417826,
    383.63677137116));
#153 = CARTESIAN_POINT('',(306.09757215447,428.46180073594,383.65));
#154 = CARTESIAN_POINT('',(306.09757215447,428.77278783708,383.65));
#155 = CARTESIAN_POINT('',(306.09511806511,428.94551505092,
    383.62932159287));
#156 = CARTESIAN_POINT('',(306.09021164402,429.11662410019,
    383.58798529646));
#157 = CARTESIAN_POINT('',(306.08298542741,429.28440452156,
    383.52562152299));
#158 = CARTESIAN_POINT('',(306.07370962785,429.44680685965,
    383.44158998492));
#159 = CARTESIAN_POINT('',(306.06285001848,429.60124296961,
    383.33508841005));
#160 = CARTESIAN_POINT('',(306.05113152256,429.7443064359,
    383.20531506454));
#161 = CARTESIAN_POINT('',(306.02945742649,429.98230590022,
    382.91762313266));
#162 = CARTESIAN_POINT('',(306.01915895942,430.08441589675,
    382.76126734544));
#163 = CARTESIAN_POINT('',(306.00969699116,430.16945903893,
    382.58500481079));
#164 = CARTESIAN_POINT('',(306.00229462784,430.23129796674,
    382.39307154861));
#165 = CARTESIAN_POINT('',(305.99805209774,430.26588173882,
    382.19115213471));
#166 = CARTESIAN_POINT('',(305.99746360056,430.27129666042,
    381.98566124427));
#167 = CARTESIAN_POINT('',(306.00034083171,430.2478449592,
    381.78316319582));
#168 = CARTESIAN_POINT('',(306.00969544808,430.16593314695,
    381.46413775033));
#169 = CARTESIAN_POINT('',(306.014579039,430.12243694943,381.34150944634
    ));
#170 = CARTESIAN_POINT('',(306.02052841855,430.06798070082,
    381.22296220149));
#171 = CARTESIAN_POINT('',(306.02734300322,430.00301422838,
    381.10962897071));
#172 = CARTESIAN_POINT('',(306.03477116471,429.92812641363,
    381.0025827887));
#173 = CARTESIAN_POINT('',(306.04252726663,429.8440385556,
    380.90282258899));
#174 = CARTESIAN_POINT('',(306.05031332855,429.75159479264,
    380.81125229023));
#175 = CARTESIAN_POINT('',(306.06613054732,429.54191930126,
    380.63779363845));
#176 = CARTESIAN_POINT('',(306.07411050383,429.42309949256,
    380.5577628351));
#177 = CARTESIAN_POINT('',(306.08140628491,429.29656345491,
    380.48962105115));
#178 = CARTESIAN_POINT('',(306.08765689425,429.16370787072,
    380.43422480883));
#179 = CARTESIAN_POINT('',(306.09256015536,429.02603174426,
    380.39222763452));
#180 = CARTESIAN_POINT('',(306.09590171758,428.88510952949,
    380.36407594123));
#181 = CARTESIAN_POINT('',(306.09757215447,428.74255844844,380.35));
#182 = CARTESIAN_POINT('',(306.09757215447,428.46179179432,380.35));
#183 = CARTESIAN_POINT('',(306.09600192993,428.32364306498,
    380.36323032618));
#184 = CARTESIAN_POINT('',(306.09286368914,428.18634818095,
    380.38967199543));
#185 = CARTESIAN_POINT('',(306.08821173863,428.05075748504,
    380.42947082076));
#186 = CARTESIAN_POINT('',(306.08215640224,427.91784327734,
    380.48289674012));
#187 = CARTESIAN_POINT('',(306.07487889161,427.78876809562,
    380.55030600266));
#188 = CARTESIAN_POINT('',(306.0666499783,427.66496635596,
    380.63209732739));
#189 = CARTESIAN_POINT('',(306.04850112666,427.42438237955,
    380.83112570173));
#190 = CARTESIAN_POINT('',(306.03829977424,427.30572786538,
    380.95251665603));
#191 = CARTESIAN_POINT('',(306.02781300092,427.19738757456,
    381.09267769996));
#192 = CARTESIAN_POINT('',(306.01785249411,427.10394186315,
    381.25031474787));
#193 = CARTESIAN_POINT('',(306.00935766613,427.02940114853,
    381.42318709216));
#194 = CARTESIAN_POINT('',(306.00320188514,426.97716665935,
    381.60828263997));
#195 = CARTESIAN_POINT('',(306.,426.95,381.801953977));
#196 = CARTESIAN_POINT('',(306.,426.95,382.));
#197 = CYLINDRICAL_SURFACE('',#198,14.);
#198 = AXIS2_PLACEMENT_3D('',#199,#200,#201);
#199 = CARTESIAN_POINT('',(320.,438.6,382.));
#200 = DIRECTION('',(0.,-1.,0.));
#201 = DIRECTION('',(0.,0.,1.));
#202 = ADVANCED_FACE('',(#203),#214,.F.);
#203 = FACE_BOUND('',#204,.F.);
#204 = EDGE_LOOP('',(#205,#211,#212,#213));
#205 = ORIENTED_EDGE('',*,*,#206,.T.);
#206 = EDGE_CURVE('',#100,#69,#207,.T.);
#207 = LINE('',#208,#209);
#208 = CARTESIAN_POINT('',(320.,447.,399.55));
#209 = VECTOR('',#210,1.);
#210 = DIRECTION('',(0.,-1.,0.));
#211 = ORIENTED_EDGE('',*,*,#68,.F.);
#212 = ORIENTED_EDGE('',*,*,#206,.F.);
#213 = ORIENTED_EDGE('',*,*,#99,.T.);
#214 = CYLINDRICAL_SURFACE('',#215,1.55);
#215 = AXIS2_PLACEMENT_3D('',#216,#217,#218);
#216 = CARTESIAN_POINT('',(320.,447.,398.));
#217 = DIRECTION('',(0.,-1.,0.));
#218 = DIRECTION('',(0.,0.,1.));
#219 = ADVANCED_FACE('',(#220),#239,.F.);
#220 = FACE_BOUND('',#221,.F.);
#221 = EDGE_LOOP('',(#222,#231,#237,#238));
#222 = ORIENTED_EDGE('',*,*,#223,.F.);
#223 = EDGE_CURVE('',#224,#224,#226,.T.);
#224 = VERTEX_POINT('',#225);
#225 = CARTESIAN_POINT('',(320.,438.4,392.05));
#226 = CIRCLE('',#227,10.05);
#227 = AXIS2_PLACEMENT_3D('',#228,#229,#230);
#228 = CARTESIAN_POINT('',(320.,438.4,382.));
#229 = DIRECTION('',(0.,-1.,0.));
#230 = DIRECTION('',(0.,0.,1.));
#231 = ORIENTED_EDGE('',*,*,#232,.F.);
#232 = EDGE_CURVE('',#89,#224,#233,.T.);
#233 = LINE('',#234,#235);
#234 = CARTESIAN_POINT('',(320.,442.6,392.05));
#235 = VECTOR('',#236,1.);
#236 = DIRECTION('',(0.,-1.,0.));
#237 = ORIENTED_EDGE('',*,*,#88,.T.);
#238 = ORIENTED_EDGE('',*,*,#232,.T.);
#239 = CYLINDRICAL_SURFACE('',#240,10.05);
#240 = AXIS2_PLACEMENT_3D('',#241,#242,#243);
#241 = CARTESIAN_POINT('',(320.,442.6,382.));
#242 = DIRECTION('',(0.,-1.,0.));
#243 = DIRECTION('',(0.,0.,1.));
#244 = ADVANCED_FACE('',(#245,#248),#292,.T.);
#245 = FACE_BOUND('',#246,.T.);
#246 = EDGE_LOOP('',(#247));
#247 = ORIENTED_EDGE('',*,*,#124,.T.);
#248 = FACE_BOUND('',#249,.T.);
#249 = EDGE_LOOP('',(#250,#261,#269,#277,#285));
#250 = ORIENTED_EDGE('',*,*,#251,.F.);
#251 = EDGE_CURVE('',#252,#254,#256,.T.);
#252 = VERTEX_POINT('',#253);
#253 = CARTESIAN_POINT('',(314.33447928253,416.6,379.95));
#254 = VERTEX_POINT('',#255);
#255 = CARTESIAN_POINT('',(320.,416.6,388.025));
#256 = CIRCLE('',#257,6.025);
#257 = AXIS2_PLACEMENT_3D('',#258,#259,#260);
#258 = CARTESIAN_POINT('',(320.,416.6,382.));
#259 = DIRECTION('',(0.,-1.,0.));
#260 = DIRECTION('',(0.,0.,1.));
#261 = ORIENTED_EDGE('',*,*,#262,.T.);
#262 = EDGE_CURVE('',#252,#263,#265,.T.);
#263 = VERTEX_POINT('',#264);
#264 = CARTESIAN_POINT('',(311.975,416.6,379.95));
#265 = LINE('',#266,#267);
#266 = CARTESIAN_POINT('',(316.575,416.6,379.95));
#267 = VECTOR('',#268,1.);
#268 = DIRECTION('',(-1.,0.,0.));
#269 = ORIENTED_EDGE('',*,*,#270,.T.);
#270 = EDGE_CURVE('',#263,#271,#273,.T.);
#271 = VERTEX_POINT('',#272);
#272 = CARTESIAN_POINT('',(311.975,416.6,384.05));
#273 = LINE('',#274,#275);
#274 = CARTESIAN_POINT('',(311.975,416.6,379.95));
#275 = VECTOR('',#276,1.);
#276 = DIRECTION('',(0.,0.,1.));
#277 = ORIENTED_EDGE('',*,*,#278,.F.);
#278 = EDGE_CURVE('',#279,#271,#281,.T.);
#279 = VERTEX_POINT('',#280);
#280 = CARTESIAN_POINT('',(314.33447928253,416.6,384.05));
#281 = LINE('',#282,#283);
#282 = CARTESIAN_POINT('',(316.575,416.6,384.05));
#283 = VECTOR('',#284,1.);
#284 = DIRECTION('',(-1.,0.,0.));
#285 = ORIENTED_EDGE('',*,*,#286,.F.);
#286 = EDGE_CURVE('',#254,#279,#287,.T.);
#287 = CIRCLE('',#288,6.025);
#288 = AXIS2_PLACEMENT_3D('',#289,#290,#291);
#289 = CARTESIAN_POINT('',(320.,416.6,382.));
#290 = DIRECTION('',(0.,-1.,0.));
#291 = DIRECTION('',(0.,0.,1.));
#292 = PLANE('',#293);
#293 = AXIS2_PLACEMENT_3D('',#294,#295,#296);
#294 = CARTESIAN_POINT('',(320.,416.6,382.));
#295 = DIRECTION('',(0.,-1.,0.));
#296 = DIRECTION('',(0.,0.,1.));
#297 = ADVANCED_FACE('',(#298),#317,.F.);
#298 = FACE_BOUND('',#299,.F.);
#299 = EDGE_LOOP('',(#300,#301,#309,#316));
#300 = ORIENTED_EDGE('',*,*,#135,.F.);
#301 = ORIENTED_EDGE('',*,*,#302,.F.);
#302 = EDGE_CURVE('',#303,#136,#305,.T.);
#303 = VERTEX_POINT('',#304);
#304 = CARTESIAN_POINT('',(311.975,426.95,382.));
#305 = LINE('',#306,#307);
#306 = CARTESIAN_POINT('',(320.,426.95,382.));
#307 = VECTOR('',#308,1.);
#308 = DIRECTION('',(-1.,0.,0.));
#309 = ORIENTED_EDGE('',*,*,#310,.T.);
#310 = EDGE_CURVE('',#303,#303,#311,.T.);
#311 = CIRCLE('',#312,1.65);
#312 = AXIS2_PLACEMENT_3D('',#313,#314,#315);
#313 = CARTESIAN_POINT('',(311.975,428.6,382.));
#314 = DIRECTION('',(-1.,0.,0.));
#315 = DIRECTION('',(0.,-1.,0.));
#316 = ORIENTED_EDGE('',*,*,#302,.T.);
#317 = CYLINDRICAL_SURFACE('',#318,1.65);
#318 = AXIS2_PLACEMENT_3D('',#319,#320,#321);
#319 = CARTESIAN_POINT('',(320.,428.6,382.));
#320 = DIRECTION('',(-1.,0.,0.));
#321 = DIRECTION('',(0.,-1.,0.));
#322 = ADVANCED_FACE('',(#323,#326),#370,.F.);
#323 = FACE_BOUND('',#324,.F.);
#324 = EDGE_LOOP('',(#325));
#325 = ORIENTED_EDGE('',*,*,#223,.T.);
#326 = FACE_BOUND('',#327,.F.);
#327 = EDGE_LOOP('',(#328,#339,#347,#355,#363));
#328 = ORIENTED_EDGE('',*,*,#329,.F.);
#329 = EDGE_CURVE('',#330,#332,#334,.T.);
#330 = VERTEX_POINT('',#331);
#331 = CARTESIAN_POINT('',(314.33447928253,438.4,379.95));
#332 = VERTEX_POINT('',#333);
#333 = CARTESIAN_POINT('',(320.,438.4,388.025));
#334 = CIRCLE('',#335,6.025);
#335 = AXIS2_PLACEMENT_3D('',#336,#337,#338);
#336 = CARTESIAN_POINT('',(320.,438.4,382.));
#337 = DIRECTION('',(0.,-1.,0.));
#338 = DIRECTION('',(0.,0.,1.));
#339 = ORIENTED_EDGE('',*,*,#340,.F.);
#340 = EDGE_CURVE('',#341,#330,#343,.T.);
#341 = VERTEX_POINT('',#342);
#342 = CARTESIAN_POINT('',(311.975,438.4,379.95));
#343 = LINE('',#344,#345);
#344 = CARTESIAN_POINT('',(318.2875,438.4,379.95));
#345 = VECTOR('',#346,1.);
#346 = DIRECTION('',(1.,0.,0.));
#347 = ORIENTED_EDGE('',*,*,#348,.T.);
#348 = EDGE_CURVE('',#341,#349,#351,.T.);
#349 = VERTEX_POINT('',#350);
#350 = CARTESIAN_POINT('',(311.975,438.4,384.05));
#351 = LINE('',#352,#353);
#352 = CARTESIAN_POINT('',(311.975,438.4,380.975));
#353 = VECTOR('',#354,1.);
#354 = DIRECTION('',(0.,0.,1.));
#355 = ORIENTED_EDGE('',*,*,#356,.T.);
#356 = EDGE_CURVE('',#349,#357,#359,.T.);
#357 = VERTEX_POINT('',#358);
#358 = CARTESIAN_POINT('',(314.33447928253,438.4,384.05));
#359 = LINE('',#360,#361);
#360 = CARTESIAN_POINT('',(318.2875,438.4,384.05));
#361 = VECTOR('',#362,1.);
#362 = DIRECTION('',(1.,0.,0.));
#363 = ORIENTED_EDGE('',*,*,#364,.F.);
#364 = EDGE_CURVE('',#332,#357,#365,.T.);
#365 = CIRCLE('',#366,6.025);
#366 = AXIS2_PLACEMENT_3D('',#367,#368,#369);
#367 = CARTESIAN_POINT('',(320.,438.4,382.));
#368 = DIRECTION('',(0.,-1.,0.));
#369 = DIRECTION('',(0.,0.,1.));
#370 = PLANE('',#371);
#371 = AXIS2_PLACEMENT_3D('',#372,#373,#374);
#372 = CARTESIAN_POINT('',(320.,438.4,382.));
#373 = DIRECTION('',(0.,-1.,0.));
#374 = DIRECTION('',(0.,0.,1.));
#375 = ADVANCED_FACE('',(#376),#392,.F.);
#376 = FACE_BOUND('',#377,.F.);
#377 = EDGE_LOOP('',(#378,#384,#385,#391));
#378 = ORIENTED_EDGE('',*,*,#379,.F.);
#379 = EDGE_CURVE('',#357,#279,#380,.T.);
#380 = LINE('',#381,#382);
#381 = CARTESIAN_POINT('',(314.33447928253,442.6,384.05));
#382 = VECTOR('',#383,1.);
#383 = DIRECTION('',(0.,-1.,0.));
#384 = ORIENTED_EDGE('',*,*,#356,.F.);
#385 = ORIENTED_EDGE('',*,*,#386,.T.);
#386 = EDGE_CURVE('',#349,#271,#387,.T.);
#387 = LINE('',#388,#389);
#388 = CARTESIAN_POINT('',(311.975,442.6,384.05));
#389 = VECTOR('',#390,1.);
#390 = DIRECTION('',(0.,-1.,0.));
#391 = ORIENTED_EDGE('',*,*,#278,.F.);
#392 = PLANE('',#393);
#393 = AXIS2_PLACEMENT_3D('',#394,#395,#396);
#394 = CARTESIAN_POINT('',(316.575,442.6,384.05));
#395 = DIRECTION('',(0.,0.,1.));
#396 = DIRECTION('',(0.,-1.,0.));
#397 = ADVANCED_FACE('',(#398,#409),#412,.F.);
#398 = FACE_BOUND('',#399,.F.);
#399 = EDGE_LOOP('',(#400,#401,#407,#408));
#400 = ORIENTED_EDGE('',*,*,#348,.F.);
#401 = ORIENTED_EDGE('',*,*,#402,.T.);
#402 = EDGE_CURVE('',#341,#263,#403,.T.);
#403 = LINE('',#404,#405);
#404 = CARTESIAN_POINT('',(311.975,442.6,379.95));
#405 = VECTOR('',#406,1.);
#406 = DIRECTION('',(0.,-1.,0.));
#407 = ORIENTED_EDGE('',*,*,#270,.T.);
#408 = ORIENTED_EDGE('',*,*,#386,.F.);
#409 = FACE_BOUND('',#410,.F.);
#410 = EDGE_LOOP('',(#411));
#411 = ORIENTED_EDGE('',*,*,#310,.F.);
#412 = PLANE('',#413);
#413 = AXIS2_PLACEMENT_3D('',#414,#415,#416);
#414 = CARTESIAN_POINT('',(311.975,442.6,379.95));
#415 = DIRECTION('',(-1.,0.,0.));
#416 = DIRECTION('',(0.,-1.,0.));
#417 = ADVANCED_FACE('',(#418),#429,.T.);
#418 = FACE_BOUND('',#419,.T.);
#419 = EDGE_LOOP('',(#420,#426,#427,#428));
#420 = ORIENTED_EDGE('',*,*,#421,.F.);
#421 = EDGE_CURVE('',#330,#252,#422,.T.);
#422 = LINE('',#423,#424);
#423 = CARTESIAN_POINT('',(314.33447928253,442.6,379.95));
#424 = VECTOR('',#425,1.);
#425 = DIRECTION('',(0.,-1.,0.));
#426 = ORIENTED_EDGE('',*,*,#340,.F.);
#427 = ORIENTED_EDGE('',*,*,#402,.T.);
#428 = ORIENTED_EDGE('',*,*,#262,.F.);
#429 = PLANE('',#430);
#430 = AXIS2_PLACEMENT_3D('',#431,#432,#433);
#431 = CARTESIAN_POINT('',(316.575,442.6,379.95));
#432 = DIRECTION('',(0.,0.,1.));
#433 = DIRECTION('',(0.,-1.,0.));
#434 = ADVANCED_FACE('',(#435),#443,.F.);
#435 = FACE_BOUND('',#436,.F.);
#436 = EDGE_LOOP('',(#437,#438,#439,#440,#441,#442));
#437 = ORIENTED_EDGE('',*,*,#379,.T.);
#438 = ORIENTED_EDGE('',*,*,#286,.F.);
#439 = ORIENTED_EDGE('',*,*,#251,.F.);
#440 = ORIENTED_EDGE('',*,*,#421,.F.);
#441 = ORIENTED_EDGE('',*,*,#329,.T.);
#442 = ORIENTED_EDGE('',*,*,#364,.T.);
#443 = CYLINDRICAL_SURFACE('',#444,6.025);
#444 = AXIS2_PLACEMENT_3D('',#445,#446,#447);
#445 = CARTESIAN_POINT('',(320.,442.6,382.));
#446 = DIRECTION('',(0.,-1.,0.));
#447 = DIRECTION('',(0.,0.,1.));
#448 = ( GEOMETRIC_REPRESENTATION_CONTEXT(3) 
GLOBAL_UNCERTAINTY_ASSIGNED_CONTEXT((#452)) GLOBAL_UNIT_ASSIGNED_CONTEXT
((#449,#450,#451)) REPRESENTATION_CONTEXT('Context #1',
  '3D Context with UNIT and UNCERTAINTY') );
#449 = ( LENGTH_UNIT() NAMED_UNIT(*) SI_UNIT(.MILLI.,.METRE.) );
#450 = ( NAMED_UNIT(*) PLANE_ANGLE_UNIT() SI_UNIT($,.RADIAN.) );
#451 = ( NAMED_UNIT(*) SI_UNIT($,.STERADIAN.) SOLID_ANGLE_UNIT() );
#452 = UNCERTAINTY_MEASURE_WITH_UNIT(LENGTH_MEASURE(1.E-07),#449,
  'distance_accuracy_value','confusion accuracy');
#453 = PRODUCT_RELATED_PRODUCT_CATEGORY('part',$,(#7));
ENDSEC;
END-ISO-10303-21;
