ISO-10303-21;
HEADER;
FILE_DESCRIPTION(('FreeCAD Model'),'2;1');
FILE_NAME('Open CASCADE Shape Model','2000-01-01T00:00:00',('FreeCAD'),(
    'FreeCAD'),'Open CASCADE STEP processor 7.9','FreeCAD','Unknown');
FILE_SCHEMA(('AUTOMOTIVE_DESIGN { 1 0 10303 214 1 1 1 1 }'));
ENDSEC;
DATA;
#1 = APPLICATION_PROTOCOL_DEFINITION('international standard',
  'automotive_design',2000,#2);
#2 = APPLICATION_CONTEXT(
  'core data for automotive mechanical design processes');
#3 = SHAPE_DEFINITION_REPRESENTATION(#4,#10);
#4 = PRODUCT_DEFINITION_SHAPE('','',#5);
#5 = PRODUCT_DEFINITION('design','',#6,#9);
#6 = PRODUCT_DEFINITION_FORMATION('','',#7);
#7 = PRODUCT('Open CASCADE STEP translator 7.9 0',
  'Open CASCADE STEP translator 7.9 0','',(#8));
#8 = PRODUCT_CONTEXT('',#2,'mechanical');
#9 = PRODUCT_DEFINITION_CONTEXT('part definition',#2,'design');
#10 = ADVANCED_BREP_SHAPE_REPRESENTATION('',(#11,#15),#434);
#11 = AXIS2_PLACEMENT_3D('',#12,#13,#14);
#12 = CARTESIAN_POINT('',(0.,0.,0.));
#13 = DIRECTION('',(0.,0.,1.));
#14 = DIRECTION('',(1.,0.,-0.));
#15 = MANIFOLD_SOLID_BREP('',#16);
#16 = CLOSED_SHELL('',(#17,#55,#97,#120,#178,#194,#206,#231,#262,#286,
    #310,#327,#370,#390,#406,#422));
#17 = ADVANCED_FACE('',(#18),#50,.T.);
#18 = FACE_BOUND('',#19,.T.);
#19 = EDGE_LOOP('',(#20,#30,#37,#45));
#20 = ORIENTED_EDGE('',*,*,#21,.T.);
#21 = EDGE_CURVE('',#22,#24,#26,.T.);
#22 = VERTEX_POINT('',#23);
#23 = CARTESIAN_POINT('',(-22.,-22.,0.));
#24 = VERTEX_POINT('',#25);
#25 = CARTESIAN_POINT('',(22.,-22.,0.));
#26 = LINE('',#27,#28);
#27 = CARTESIAN_POINT('',(-22.,-22.,0.));
#28 = VECTOR('',#29,1.);
#29 = DIRECTION('',(1.,0.,0.));
#30 = ORIENTED_EDGE('',*,*,#31,.T.);
#31 = EDGE_CURVE('',#24,#32,#34,.T.);
#32 = VERTEX_POINT('',#33);
#33 = CARTESIAN_POINT('',(71.,-59.,140.));
#34 = B_SPLINE_CURVE_WITH_KNOTS('',1,(#35,#36),.UNSPECIFIED.,.F.,.F.,(2,
    2),(0.,1.),.PIECEWISE_BEZIER_KNOTS.);
#35 = CARTESIAN_POINT('',(22.,-22.,0.));
#36 = CARTESIAN_POINT('',(71.,-59.,140.));
#37 = ORIENTED_EDGE('',*,*,#38,.F.);
#38 = EDGE_CURVE('',#39,#32,#41,.T.);
#39 = VERTEX_POINT('',#40);
#40 = CARTESIAN_POINT('',(-71.,-59.,140.));
#41 = LINE('',#42,#43);
#42 = CARTESIAN_POINT('',(-71.,-59.,140.));
#43 = VECTOR('',#44,1.);
#44 = DIRECTION('',(1.,0.,0.));
#45 = ORIENTED_EDGE('',*,*,#46,.F.);
#46 = EDGE_CURVE('',#22,#39,#47,.T.);
#47 = B_SPLINE_CURVE_WITH_KNOTS('',1,(#48,#49),.UNSPECIFIED.,.F.,.F.,(2,
    2),(0.,1.),.PIECEWISE_BEZIER_KNOTS.);
#48 = CARTESIAN_POINT('',(-22.,-22.,0.));
#49 = CARTESIAN_POINT('',(-71.,-59.,140.));
#50 = B_SPLINE_SURFACE_WITH_KNOTS('',1,1,(
    (#51,#52)
    ,(#53,#54)),.UNSPECIFIED.,.F.,.F.,.F.,(2,2),(2,2),(0.,142.),(0.,1.),
  .PIECEWISE_BEZIER_KNOTS.);
#51 = CARTESIAN_POINT('',(-22.,-22.,0.));
#52 = CARTESIAN_POINT('',(-71.,-59.,140.));
#53 = CARTESIAN_POINT('',(22.,-22.,0.));
#54 = CARTESIAN_POINT('',(71.,-59.,140.));
#55 = ADVANCED_FACE('',(#56,#81),#92,.T.);
#56 = FACE_BOUND('',#57,.T.);
#57 = EDGE_LOOP('',(#58,#59,#67,#75));
#58 = ORIENTED_EDGE('',*,*,#21,.F.);
#59 = ORIENTED_EDGE('',*,*,#60,.F.);
#60 = EDGE_CURVE('',#61,#22,#63,.T.);
#61 = VERTEX_POINT('',#62);
#62 = CARTESIAN_POINT('',(-22.,22.,0.));
#63 = LINE('',#64,#65);
#64 = CARTESIAN_POINT('',(-22.,22.,0.));
#65 = VECTOR('',#66,1.);
#66 = DIRECTION('',(0.,-1.,0.));
#67 = ORIENTED_EDGE('',*,*,#68,.F.);
#68 = EDGE_CURVE('',#69,#61,#71,.T.);
#69 = VERTEX_POINT('',#70);
#70 = CARTESIAN_POINT('',(22.,22.,0.));
#71 = LINE('',#72,#73);
#72 = CARTESIAN_POINT('',(22.,22.,0.));
#73 = VECTOR('',#74,1.);
#74 = DIRECTION('',(-1.,0.,0.));
#75 = ORIENTED_EDGE('',*,*,#76,.F.);
#76 = EDGE_CURVE('',#24,#69,#77,.T.);
#77 = LINE('',#78,#79);
#78 = CARTESIAN_POINT('',(22.,-22.,0.));
#79 = VECTOR('',#80,1.);
#80 = DIRECTION('',(0.,1.,0.));
#81 = FACE_BOUND('',#82,.T.);
#82 = EDGE_LOOP('',(#83));
#83 = ORIENTED_EDGE('',*,*,#84,.T.);
#84 = EDGE_CURVE('',#85,#85,#87,.T.);
#85 = VERTEX_POINT('',#86);
#86 = CARTESIAN_POINT('',(14.5,-3.551475717527E-15,0.));
#87 = CIRCLE('',#88,14.5);
#88 = AXIS2_PLACEMENT_3D('',#89,#90,#91);
#89 = CARTESIAN_POINT('',(0.,0.,0.));
#90 = DIRECTION('',(0.,0.,1.));
#91 = DIRECTION('',(1.,0.,0.));
#92 = PLANE('',#93);
#93 = AXIS2_PLACEMENT_3D('',#94,#95,#96);
#94 = CARTESIAN_POINT('',(-22.,-22.,0.));
#95 = DIRECTION('',(0.,0.,-1.));
#96 = DIRECTION('',(0.707106781187,0.707106781187,0.));
#97 = ADVANCED_FACE('',(#98),#115,.T.);
#98 = FACE_BOUND('',#99,.T.);
#99 = EDGE_LOOP('',(#100,#101,#108,#114));
#100 = ORIENTED_EDGE('',*,*,#76,.T.);
#101 = ORIENTED_EDGE('',*,*,#102,.T.);
#102 = EDGE_CURVE('',#69,#103,#105,.T.);
#103 = VERTEX_POINT('',#104);
#104 = CARTESIAN_POINT('',(71.,59.,140.));
#105 = B_SPLINE_CURVE_WITH_KNOTS('',1,(#106,#107),.UNSPECIFIED.,.F.,.F.,
  (2,2),(0.,1.),.PIECEWISE_BEZIER_KNOTS.);
#106 = CARTESIAN_POINT('',(22.,22.,0.));
#107 = CARTESIAN_POINT('',(71.,59.,140.));
#108 = ORIENTED_EDGE('',*,*,#109,.F.);
#109 = EDGE_CURVE('',#32,#103,#110,.T.);
#110 = LINE('',#111,#112);
#111 = CARTESIAN_POINT('',(71.,-59.,140.));
#112 = VECTOR('',#113,1.);
#113 = DIRECTION('',(0.,1.,0.));
#114 = ORIENTED_EDGE('',*,*,#31,.F.);
#115 = B_SPLINE_SURFACE_WITH_KNOTS('',1,1,(
    (#116,#117)
    ,(#118,#119
    )),.UNSPECIFIED.,.F.,.F.,.F.,(2,2),(2,2),(0.,118.),(0.,1.),
  .PIECEWISE_BEZIER_KNOTS.);
#116 = CARTESIAN_POINT('',(22.,-22.,0.));
#117 = CARTESIAN_POINT('',(71.,-59.,140.));
#118 = CARTESIAN_POINT('',(22.,22.,0.));
#119 = CARTESIAN_POINT('',(71.,59.,140.));
#120 = ADVANCED_FACE('',(#121,#139),#173,.F.);
#121 = FACE_BOUND('',#122,.F.);
#122 = EDGE_LOOP('',(#123,#124,#132,#138));
#123 = ORIENTED_EDGE('',*,*,#38,.F.);
#124 = ORIENTED_EDGE('',*,*,#125,.F.);
#125 = EDGE_CURVE('',#126,#39,#128,.T.);
#126 = VERTEX_POINT('',#127);
#127 = CARTESIAN_POINT('',(-71.,59.,140.));
#128 = LINE('',#129,#130);
#129 = CARTESIAN_POINT('',(-71.,59.,140.));
#130 = VECTOR('',#131,1.);
#131 = DIRECTION('',(0.,-1.,0.));
#132 = ORIENTED_EDGE('',*,*,#133,.F.);
#133 = EDGE_CURVE('',#103,#126,#134,.T.);
#134 = LINE('',#135,#136);
#135 = CARTESIAN_POINT('',(71.,59.,140.));
#136 = VECTOR('',#137,1.);
#137 = DIRECTION('',(-1.,0.,0.));
#138 = ORIENTED_EDGE('',*,*,#109,.F.);
#139 = FACE_BOUND('',#140,.F.);
#140 = EDGE_LOOP('',(#141,#151,#159,#167));
#141 = ORIENTED_EDGE('',*,*,#142,.F.);
#142 = EDGE_CURVE('',#143,#145,#147,.T.);
#143 = VERTEX_POINT('',#144);
#144 = CARTESIAN_POINT('',(-69.,57.,140.));
#145 = VERTEX_POINT('',#146);
#146 = CARTESIAN_POINT('',(69.,57.,140.));
#147 = LINE('',#148,#149);
#148 = CARTESIAN_POINT('',(-70.,57.,140.));
#149 = VECTOR('',#150,1.);
#150 = DIRECTION('',(1.,0.,0.));
#151 = ORIENTED_EDGE('',*,*,#152,.T.);
#152 = EDGE_CURVE('',#143,#153,#155,.T.);
#153 = VERTEX_POINT('',#154);
#154 = CARTESIAN_POINT('',(-69.,-57.,140.));
#155 = LINE('',#156,#157);
#156 = CARTESIAN_POINT('',(-69.,-58.,140.));
#157 = VECTOR('',#158,1.);
#158 = DIRECTION('',(0.,-1.,0.));
#159 = ORIENTED_EDGE('',*,*,#160,.T.);
#160 = EDGE_CURVE('',#153,#161,#163,.T.);
#161 = VERTEX_POINT('',#162);
#162 = CARTESIAN_POINT('',(69.,-57.,140.));
#163 = LINE('',#164,#165);
#164 = CARTESIAN_POINT('',(-70.,-57.,140.));
#165 = VECTOR('',#166,1.);
#166 = DIRECTION('',(1.,0.,0.));
#167 = ORIENTED_EDGE('',*,*,#168,.F.);
#168 = EDGE_CURVE('',#145,#161,#169,.T.);
#169 = LINE('',#170,#171);
#170 = CARTESIAN_POINT('',(69.,-58.,140.));
#171 = VECTOR('',#172,1.);
#172 = DIRECTION('',(0.,-1.,0.));
#173 = PLANE('',#174);
#174 = AXIS2_PLACEMENT_3D('',#175,#176,#177);
#175 = CARTESIAN_POINT('',(-71.,-59.,140.));
#176 = DIRECTION('',(0.,0.,-1.));
#177 = DIRECTION('',(0.769108451633,0.639118290794,0.));
#178 = ADVANCED_FACE('',(#179),#189,.T.);
#179 = FACE_BOUND('',#180,.T.);
#180 = EDGE_LOOP('',(#181,#182,#183,#184));
#181 = ORIENTED_EDGE('',*,*,#60,.T.);
#182 = ORIENTED_EDGE('',*,*,#46,.T.);
#183 = ORIENTED_EDGE('',*,*,#125,.F.);
#184 = ORIENTED_EDGE('',*,*,#185,.F.);
#185 = EDGE_CURVE('',#61,#126,#186,.T.);
#186 = B_SPLINE_CURVE_WITH_KNOTS('',1,(#187,#188),.UNSPECIFIED.,.F.,.F.,
  (2,2),(0.,1.),.PIECEWISE_BEZIER_KNOTS.);
#187 = CARTESIAN_POINT('',(-22.,22.,0.));
#188 = CARTESIAN_POINT('',(-71.,59.,140.));
#189 = B_SPLINE_SURFACE_WITH_KNOTS('',1,1,(
    (#190,#191)
    ,(#192,#193
    )),.UNSPECIFIED.,.F.,.F.,.F.,(2,2),(2,2),(0.,118.),(0.,1.),
  .PIECEWISE_BEZIER_KNOTS.);
#190 = CARTESIAN_POINT('',(-22.,22.,0.));
#191 = CARTESIAN_POINT('',(-71.,59.,140.));
#192 = CARTESIAN_POINT('',(-22.,-22.,0.));
#193 = CARTESIAN_POINT('',(-71.,-59.,140.));
#194 = ADVANCED_FACE('',(#195),#201,.T.);
#195 = FACE_BOUND('',#196,.T.);
#196 = EDGE_LOOP('',(#197,#198,#199,#200));
#197 = ORIENTED_EDGE('',*,*,#68,.T.);
#198 = ORIENTED_EDGE('',*,*,#185,.T.);
#199 = ORIENTED_EDGE('',*,*,#133,.F.);
#200 = ORIENTED_EDGE('',*,*,#102,.F.);
#201 = B_SPLINE_SURFACE_WITH_KNOTS('',1,1,(
    (#202,#203)
    ,(#204,#205
    )),.UNSPECIFIED.,.F.,.F.,.F.,(2,2),(2,2),(0.,142.),(0.,1.),
  .PIECEWISE_BEZIER_KNOTS.);
#202 = CARTESIAN_POINT('',(22.,22.,0.));
#203 = CARTESIAN_POINT('',(71.,59.,140.));
#204 = CARTESIAN_POINT('',(-22.,22.,0.));
#205 = CARTESIAN_POINT('',(-71.,59.,140.));
#206 = ADVANCED_FACE('',(#207),#226,.F.);
#207 = FACE_BOUND('',#208,.F.);
#208 = EDGE_LOOP('',(#209,#218,#224,#225));
#209 = ORIENTED_EDGE('',*,*,#210,.F.);
#210 = EDGE_CURVE('',#211,#211,#213,.T.);
#211 = VERTEX_POINT('',#212);
#212 = CARTESIAN_POINT('',(14.5,-3.551475717527E-15,2.));
#213 = CIRCLE('',#214,14.5);
#214 = AXIS2_PLACEMENT_3D('',#215,#216,#217);
#215 = CARTESIAN_POINT('',(0.,0.,2.));
#216 = DIRECTION('',(0.,0.,1.));
#217 = DIRECTION('',(1.,0.,0.));
#218 = ORIENTED_EDGE('',*,*,#219,.F.);
#219 = EDGE_CURVE('',#85,#211,#220,.T.);
#220 = LINE('',#221,#222);
#221 = CARTESIAN_POINT('',(14.5,-3.551475717527E-15,-1.));
#222 = VECTOR('',#223,1.);
#223 = DIRECTION('',(0.,0.,1.));
#224 = ORIENTED_EDGE('',*,*,#84,.T.);
#225 = ORIENTED_EDGE('',*,*,#219,.T.);
#226 = CYLINDRICAL_SURFACE('',#227,14.5);
#227 = AXIS2_PLACEMENT_3D('',#228,#229,#230);
#228 = CARTESIAN_POINT('',(0.,0.,-1.));
#229 = DIRECTION('',(0.,0.,1.));
#230 = DIRECTION('',(1.,0.,0.));
#231 = ADVANCED_FACE('',(#232),#257,.F.);
#232 = FACE_BOUND('',#233,.F.);
#233 = EDGE_LOOP('',(#234,#242,#250,#256));
#234 = ORIENTED_EDGE('',*,*,#235,.F.);
#235 = EDGE_CURVE('',#236,#145,#238,.T.);
#236 = VERTEX_POINT('',#237);
#237 = CARTESIAN_POINT('',(69.,57.,138.));
#238 = LINE('',#239,#240);
#239 = CARTESIAN_POINT('',(69.,57.,138.));
#240 = VECTOR('',#241,1.);
#241 = DIRECTION('',(0.,0.,1.));
#242 = ORIENTED_EDGE('',*,*,#243,.T.);
#243 = EDGE_CURVE('',#236,#244,#246,.T.);
#244 = VERTEX_POINT('',#245);
#245 = CARTESIAN_POINT('',(-69.,57.,138.));
#246 = LINE('',#247,#248);
#247 = CARTESIAN_POINT('',(69.,57.,138.));
#248 = VECTOR('',#249,1.);
#249 = DIRECTION('',(-1.,0.,0.));
#250 = ORIENTED_EDGE('',*,*,#251,.T.);
#251 = EDGE_CURVE('',#244,#143,#252,.T.);
#252 = LINE('',#253,#254);
#253 = CARTESIAN_POINT('',(-69.,57.,138.));
#254 = VECTOR('',#255,1.);
#255 = DIRECTION('',(0.,0.,1.));
#256 = ORIENTED_EDGE('',*,*,#142,.T.);
#257 = PLANE('',#258);
#258 = AXIS2_PLACEMENT_3D('',#259,#260,#261);
#259 = CARTESIAN_POINT('',(-69.,57.,138.));
#260 = DIRECTION('',(0.,1.,0.));
#261 = DIRECTION('',(0.,0.,1.));
#262 = ADVANCED_FACE('',(#263),#281,.F.);
#263 = FACE_BOUND('',#264,.F.);
#264 = EDGE_LOOP('',(#265,#273,#279,#280));
#265 = ORIENTED_EDGE('',*,*,#266,.F.);
#266 = EDGE_CURVE('',#267,#161,#269,.T.);
#267 = VERTEX_POINT('',#268);
#268 = CARTESIAN_POINT('',(69.,-57.,138.));
#269 = LINE('',#270,#271);
#270 = CARTESIAN_POINT('',(69.,-57.,138.));
#271 = VECTOR('',#272,1.);
#272 = DIRECTION('',(0.,0.,1.));
#273 = ORIENTED_EDGE('',*,*,#274,.T.);
#274 = EDGE_CURVE('',#267,#236,#275,.T.);
#275 = LINE('',#276,#277);
#276 = CARTESIAN_POINT('',(69.,-57.,138.));
#277 = VECTOR('',#278,1.);
#278 = DIRECTION('',(0.,1.,0.));
#279 = ORIENTED_EDGE('',*,*,#235,.T.);
#280 = ORIENTED_EDGE('',*,*,#168,.T.);
#281 = PLANE('',#282);
#282 = AXIS2_PLACEMENT_3D('',#283,#284,#285);
#283 = CARTESIAN_POINT('',(69.,-57.,138.));
#284 = DIRECTION('',(1.,0.,0.));
#285 = DIRECTION('',(0.,0.,1.));
#286 = ADVANCED_FACE('',(#287),#305,.T.);
#287 = FACE_BOUND('',#288,.T.);
#288 = EDGE_LOOP('',(#289,#297,#303,#304));
#289 = ORIENTED_EDGE('',*,*,#290,.F.);
#290 = EDGE_CURVE('',#291,#267,#293,.T.);
#291 = VERTEX_POINT('',#292);
#292 = CARTESIAN_POINT('',(-69.,-57.,138.));
#293 = LINE('',#294,#295);
#294 = CARTESIAN_POINT('',(-69.,-57.,138.));
#295 = VECTOR('',#296,1.);
#296 = DIRECTION('',(1.,0.,0.));
#297 = ORIENTED_EDGE('',*,*,#298,.T.);
#298 = EDGE_CURVE('',#291,#153,#299,.T.);
#299 = LINE('',#300,#301);
#300 = CARTESIAN_POINT('',(-69.,-57.,138.));
#301 = VECTOR('',#302,1.);
#302 = DIRECTION('',(0.,0.,1.));
#303 = ORIENTED_EDGE('',*,*,#160,.T.);
#304 = ORIENTED_EDGE('',*,*,#266,.F.);
#305 = PLANE('',#306);
#306 = AXIS2_PLACEMENT_3D('',#307,#308,#309);
#307 = CARTESIAN_POINT('',(-69.,-57.,138.));
#308 = DIRECTION('',(0.,1.,0.));
#309 = DIRECTION('',(0.,0.,1.));
#310 = ADVANCED_FACE('',(#311),#322,.T.);
#311 = FACE_BOUND('',#312,.T.);
#312 = EDGE_LOOP('',(#313,#314,#320,#321));
#313 = ORIENTED_EDGE('',*,*,#298,.F.);
#314 = ORIENTED_EDGE('',*,*,#315,.F.);
#315 = EDGE_CURVE('',#244,#291,#316,.T.);
#316 = LINE('',#317,#318);
#317 = CARTESIAN_POINT('',(-69.,57.,138.));
#318 = VECTOR('',#319,1.);
#319 = DIRECTION('',(0.,-1.,0.));
#320 = ORIENTED_EDGE('',*,*,#251,.T.);
#321 = ORIENTED_EDGE('',*,*,#152,.T.);
#322 = PLANE('',#323);
#323 = AXIS2_PLACEMENT_3D('',#324,#325,#326);
#324 = CARTESIAN_POINT('',(-69.,-57.,138.));
#325 = DIRECTION('',(1.,0.,0.));
#326 = DIRECTION('',(0.,0.,1.));
#327 = ADVANCED_FACE('',(#328,#362),#365,.F.);
#328 = FACE_BOUND('',#329,.F.);
#329 = EDGE_LOOP('',(#330,#340,#348,#356));
#330 = ORIENTED_EDGE('',*,*,#331,.F.);
#331 = EDGE_CURVE('',#332,#334,#336,.T.);
#332 = VERTEX_POINT('',#333);
#333 = CARTESIAN_POINT('',(-20.,-20.,2.));
#334 = VERTEX_POINT('',#335);
#335 = CARTESIAN_POINT('',(20.,-20.,2.));
#336 = LINE('',#337,#338);
#337 = CARTESIAN_POINT('',(-20.,-20.,2.));
#338 = VECTOR('',#339,1.);
#339 = DIRECTION('',(1.,0.,0.));
#340 = ORIENTED_EDGE('',*,*,#341,.F.);
#341 = EDGE_CURVE('',#342,#332,#344,.T.);
#342 = VERTEX_POINT('',#343);
#343 = CARTESIAN_POINT('',(-20.,20.,2.));
#344 = LINE('',#345,#346);
#345 = CARTESIAN_POINT('',(-20.,20.,2.));
#346 = VECTOR('',#347,1.);
#347 = DIRECTION('',(0.,-1.,0.));
#348 = ORIENTED_EDGE('',*,*,#349,.F.);
#349 = EDGE_CURVE('',#350,#342,#352,.T.);
#350 = VERTEX_POINT('',#351);
#351 = CARTESIAN_POINT('',(20.,20.,2.));
#352 = LINE('',#353,#354);
#353 = CARTESIAN_POINT('',(20.,20.,2.));
#354 = VECTOR('',#355,1.);
#355 = DIRECTION('',(-1.,0.,0.));
#356 = ORIENTED_EDGE('',*,*,#357,.F.);
#357 = EDGE_CURVE('',#334,#350,#358,.T.);
#358 = LINE('',#359,#360);
#359 = CARTESIAN_POINT('',(20.,-20.,2.));
#360 = VECTOR('',#361,1.);
#361 = DIRECTION('',(0.,1.,0.));
#362 = FACE_BOUND('',#363,.F.);
#363 = EDGE_LOOP('',(#364));
#364 = ORIENTED_EDGE('',*,*,#210,.T.);
#365 = PLANE('',#366);
#366 = AXIS2_PLACEMENT_3D('',#367,#368,#369);
#367 = CARTESIAN_POINT('',(-20.,-20.,2.));
#368 = DIRECTION('',(0.,0.,-1.));
#369 = DIRECTION('',(0.707106781187,0.707106781187,0.));
#370 = ADVANCED_FACE('',(#371),#385,.F.);
#371 = FACE_BOUND('',#372,.F.);
#372 = EDGE_LOOP('',(#373,#374,#379,#380));
#373 = ORIENTED_EDGE('',*,*,#349,.T.);
#374 = ORIENTED_EDGE('',*,*,#375,.T.);
#375 = EDGE_CURVE('',#342,#244,#376,.T.);
#376 = B_SPLINE_CURVE_WITH_KNOTS('',1,(#377,#378),.UNSPECIFIED.,.F.,.F.,
  (2,2),(0.,1.),.PIECEWISE_BEZIER_KNOTS.);
#377 = CARTESIAN_POINT('',(-20.,20.,2.));
#378 = CARTESIAN_POINT('',(-69.,57.,138.));
#379 = ORIENTED_EDGE('',*,*,#243,.F.);
#380 = ORIENTED_EDGE('',*,*,#381,.F.);
#381 = EDGE_CURVE('',#350,#236,#382,.T.);
#382 = B_SPLINE_CURVE_WITH_KNOTS('',1,(#383,#384),.UNSPECIFIED.,.F.,.F.,
  (2,2),(0.,1.),.PIECEWISE_BEZIER_KNOTS.);
#383 = CARTESIAN_POINT('',(20.,20.,2.));
#384 = CARTESIAN_POINT('',(69.,57.,138.));
#385 = B_SPLINE_SURFACE_WITH_KNOTS('',1,1,(
    (#386,#387)
    ,(#388,#389
    )),.UNSPECIFIED.,.F.,.F.,.F.,(2,2),(2,2),(0.,138.),(0.,1.),
  .PIECEWISE_BEZIER_KNOTS.);
#386 = CARTESIAN_POINT('',(20.,20.,2.));
#387 = CARTESIAN_POINT('',(69.,57.,138.));
#388 = CARTESIAN_POINT('',(-20.,20.,2.));
#389 = CARTESIAN_POINT('',(-69.,57.,138.));
#390 = ADVANCED_FACE('',(#391),#401,.F.);
#391 = FACE_BOUND('',#392,.F.);
#392 = EDGE_LOOP('',(#393,#394,#395,#396));
#393 = ORIENTED_EDGE('',*,*,#357,.T.);
#394 = ORIENTED_EDGE('',*,*,#381,.T.);
#395 = ORIENTED_EDGE('',*,*,#274,.F.);
#396 = ORIENTED_EDGE('',*,*,#397,.F.);
#397 = EDGE_CURVE('',#334,#267,#398,.T.);
#398 = B_SPLINE_CURVE_WITH_KNOTS('',1,(#399,#400),.UNSPECIFIED.,.F.,.F.,
  (2,2),(0.,1.),.PIECEWISE_BEZIER_KNOTS.);
#399 = CARTESIAN_POINT('',(20.,-20.,2.));
#400 = CARTESIAN_POINT('',(69.,-57.,138.));
#401 = B_SPLINE_SURFACE_WITH_KNOTS('',1,1,(
    (#402,#403)
    ,(#404,#405
    )),.UNSPECIFIED.,.F.,.F.,.F.,(2,2),(2,2),(0.,114.),(0.,1.),
  .PIECEWISE_BEZIER_KNOTS.);
#402 = CARTESIAN_POINT('',(20.,-20.,2.));
#403 = CARTESIAN_POINT('',(69.,-57.,138.));
#404 = CARTESIAN_POINT('',(20.,20.,2.));
#405 = CARTESIAN_POINT('',(69.,57.,138.));
#406 = ADVANCED_FACE('',(#407),#417,.F.);
#407 = FACE_BOUND('',#408,.F.);
#408 = EDGE_LOOP('',(#409,#410,#411,#412));
#409 = ORIENTED_EDGE('',*,*,#331,.T.);
#410 = ORIENTED_EDGE('',*,*,#397,.T.);
#411 = ORIENTED_EDGE('',*,*,#290,.F.);
#412 = ORIENTED_EDGE('',*,*,#413,.F.);
#413 = EDGE_CURVE('',#332,#291,#414,.T.);
#414 = B_SPLINE_CURVE_WITH_KNOTS('',1,(#415,#416),.UNSPECIFIED.,.F.,.F.,
  (2,2),(0.,1.),.PIECEWISE_BEZIER_KNOTS.);
#415 = CARTESIAN_POINT('',(-20.,-20.,2.));
#416 = CARTESIAN_POINT('',(-69.,-57.,138.));
#417 = B_SPLINE_SURFACE_WITH_KNOTS('',1,1,(
    (#418,#419)
    ,(#420,#421
    )),.UNSPECIFIED.,.F.,.F.,.F.,(2,2),(2,2),(0.,138.),(0.,1.),
  .PIECEWISE_BEZIER_KNOTS.);
#418 = CARTESIAN_POINT('',(-20.,-20.,2.));
#419 = CARTESIAN_POINT('',(-69.,-57.,138.));
#420 = CARTESIAN_POINT('',(20.,-20.,2.));
#421 = CARTESIAN_POINT('',(69.,-57.,138.));
#422 = ADVANCED_FACE('',(#423),#429,.F.);
#423 = FACE_BOUND('',#424,.F.);
#424 = EDGE_LOOP('',(#425,#426,#427,#428));
#425 = ORIENTED_EDGE('',*,*,#341,.T.);
#426 = ORIENTED_EDGE('',*,*,#413,.T.);
#427 = ORIENTED_EDGE('',*,*,#315,.F.);
#428 = ORIENTED_EDGE('',*,*,#375,.F.);
#429 = B_SPLINE_SURFACE_WITH_KNOTS('',1,1,(
    (#430,#431)
    ,(#432,#433
    )),.UNSPECIFIED.,.F.,.F.,.F.,(2,2),(2,2),(0.,114.),(0.,1.),
  .PIECEWISE_BEZIER_KNOTS.);
#430 = CARTESIAN_POINT('',(-20.,20.,2.));
#431 = CARTESIAN_POINT('',(-69.,57.,138.));
#432 = CARTESIAN_POINT('',(-20.,-20.,2.));
#433 = CARTESIAN_POINT('',(-69.,-57.,138.));
#434 = ( GEOMETRIC_REPRESENTATION_CONTEXT(3) 
GLOBAL_UNCERTAINTY_ASSIGNED_CONTEXT((#438)) GLOBAL_UNIT_ASSIGNED_CONTEXT
((#435,#436,#437)) REPRESENTATION_CONTEXT('Context #1',
  '3D Context with UNIT and UNCERTAINTY') );
#435 = ( LENGTH_UNIT() NAMED_UNIT(*) SI_UNIT(.MILLI.,.METRE.) );
#436 = ( NAMED_UNIT(*) PLANE_ANGLE_UNIT() SI_UNIT($,.RADIAN.) );
#437 = ( NAMED_UNIT(*) SI_UNIT($,.STERADIAN.) SOLID_ANGLE_UNIT() );
#438 = UNCERTAINTY_MEASURE_WITH_UNIT(LENGTH_MEASURE(1.E-07),#435,
  'distance_accuracy_value','confusion accuracy');
#439 = PRODUCT_RELATED_PRODUCT_CATEGORY('part',$,(#7));
ENDSEC;
END-ISO-10303-21;
