ISO-10303-21;
HEADER;
FILE_DESCRIPTION(('FreeCAD Model'),'2;1');
FILE_NAME('Open CASCADE Shape Model','2000-01-01T00:00:00',('FreeCAD'),(
    'FreeCAD'),'Open CASCADE STEP processor 7.9','FreeCAD','Unknown');
FILE_SCHEMA(('AUTOMOTIVE_DESIGN { 1 0 10303 214 1 1 1 1 }'));
ENDSEC;
DATA;
#1 = APPLICATION_PROTOCOL_DEFINITION('international standard',
  'automotive_design',2000,#2);
#2 = APPLICATION_CONTEXT(
  'core data for automotive mechanical design processes');
#3 = SHAPE_DEFINITION_REPRESENTATION(#4,#10);
#4 = PRODUCT_DEFINITION_SHAPE('','',#5);
#5 = PRODUCT_DEFINITION('design','',#6,#9);
#6 = PRODUCT_DEFINITION_FORMATION('','',#7);
#7 = PRODUCT('Open CASCADE STEP translator 7.9 0',
  'Open CASCADE STEP translator 7.9 0','',(#8));
#8 = PRODUCT_CONTEXT('',#2,'mechanical');
#9 = PRODUCT_DEFINITION_CONTEXT('part definition',#2,'design');
#10 = ADVANCED_BREP_SHAPE_REPRESENTATION('',(#11,#15),#569);
#11 = AXIS2_PLACEMENT_3D('',#12,#13,#14);
#12 = CARTESIAN_POINT('',(0.,0.,0.));
#13 = DIRECTION('',(0.,0.,1.));
#14 = DIRECTION('',(1.,0.,-0.));
#15 = MANIFOLD_SOLID_BREP('',#16);
#16 = CLOSED_SHELL('',(#17,#57,#88,#130,#161,#214,#265,#287,#304,#321,
    #352,#426,#457,#522,#539,#551));
#17 = ADVANCED_FACE('',(#18),#52,.T.);
#18 = FACE_BOUND('',#19,.T.);
#19 = EDGE_LOOP('',(#20,#30,#38,#46));
#20 = ORIENTED_EDGE('',*,*,#21,.F.);
#21 = EDGE_CURVE('',#22,#24,#26,.T.);
#22 = VERTEX_POINT('',#23);
#23 = CARTESIAN_POINT('',(305.43066147692,125.,373.));
#24 = VERTEX_POINT('',#25);
#25 = CARTESIAN_POINT('',(293.,125.,373.));
#26 = LINE('',#27,#28);
#27 = CARTESIAN_POINT('',(311.,125.,373.));
#28 = VECTOR('',#29,1.);
#29 = DIRECTION('',(-1.,1.110223024625E-16,0.));
#30 = ORIENTED_EDGE('',*,*,#31,.T.);
#31 = EDGE_CURVE('',#22,#32,#34,.T.);
#32 = VERTEX_POINT('',#33);
#33 = CARTESIAN_POINT('',(305.43066147692,133.,373.));
#34 = LINE('',#35,#36);
#35 = CARTESIAN_POINT('',(305.43066147692,125.,373.));
#36 = VECTOR('',#37,1.);
#37 = DIRECTION('',(1.110223024625E-16,1.,0.));
#38 = ORIENTED_EDGE('',*,*,#39,.T.);
#39 = EDGE_CURVE('',#32,#40,#42,.T.);
#40 = VERTEX_POINT('',#41);
#41 = CARTESIAN_POINT('',(293.,133.,373.));
#42 = LINE('',#43,#44);
#43 = CARTESIAN_POINT('',(311.,133.,373.));
#44 = VECTOR('',#45,1.);
#45 = DIRECTION('',(-1.,1.110223024625E-16,0.));
#46 = ORIENTED_EDGE('',*,*,#47,.F.);
#47 = EDGE_CURVE('',#24,#40,#48,.T.);
#48 = LINE('',#49,#50);
#49 = CARTESIAN_POINT('',(293.,125.,373.));
#50 = VECTOR('',#51,1.);
#51 = DIRECTION('',(1.110223024625E-16,1.,0.));
#52 = PLANE('',#53);
#53 = AXIS2_PLACEMENT_3D('',#54,#55,#56);
#54 = CARTESIAN_POINT('',(311.,125.,373.));
#55 = DIRECTION('',(0.,0.,1.));
#56 = DIRECTION('',(1.110223024625E-16,1.,0.));
#57 = ADVANCED_FACE('',(#58),#83,.T.);
#58 = FACE_BOUND('',#59,.T.);
#59 = EDGE_LOOP('',(#60,#70,#76,#77));
#60 = ORIENTED_EDGE('',*,*,#61,.F.);
#61 = EDGE_CURVE('',#62,#64,#66,.T.);
#62 = VERTEX_POINT('',#63);
#63 = CARTESIAN_POINT('',(293.,125.,348.));
#64 = VERTEX_POINT('',#65);
#65 = CARTESIAN_POINT('',(293.,133.,348.));
#66 = LINE('',#67,#68);
#67 = CARTESIAN_POINT('',(293.,125.,348.));
#68 = VECTOR('',#69,1.);
#69 = DIRECTION('',(1.110223024625E-16,1.,0.));
#70 = ORIENTED_EDGE('',*,*,#71,.T.);
#71 = EDGE_CURVE('',#62,#24,#72,.T.);
#72 = LINE('',#73,#74);
#73 = CARTESIAN_POINT('',(293.,125.,348.));
#74 = VECTOR('',#75,1.);
#75 = DIRECTION('',(0.,0.,1.));
#76 = ORIENTED_EDGE('',*,*,#47,.T.);
#77 = ORIENTED_EDGE('',*,*,#78,.F.);
#78 = EDGE_CURVE('',#64,#40,#79,.T.);
#79 = LINE('',#80,#81);
#80 = CARTESIAN_POINT('',(293.,133.,348.));
#81 = VECTOR('',#82,1.);
#82 = DIRECTION('',(0.,0.,1.));
#83 = PLANE('',#84);
#84 = AXIS2_PLACEMENT_3D('',#85,#86,#87);
#85 = CARTESIAN_POINT('',(293.,125.,348.));
#86 = DIRECTION('',(-1.,1.110223024625E-16,0.));
#87 = DIRECTION('',(0.,0.,1.));
#88 = ADVANCED_FACE('',(#89,#114),#125,.T.);
#89 = FACE_BOUND('',#90,.T.);
#90 = EDGE_LOOP('',(#91,#99,#100,#108));
#91 = ORIENTED_EDGE('',*,*,#92,.F.);
#92 = EDGE_CURVE('',#62,#93,#95,.T.);
#93 = VERTEX_POINT('',#94);
#94 = CARTESIAN_POINT('',(247.,125.,348.));
#95 = LINE('',#96,#97);
#96 = CARTESIAN_POINT('',(397.,125.,348.));
#97 = VECTOR('',#98,1.);
#98 = DIRECTION('',(-1.,1.110223024625E-16,0.));
#99 = ORIENTED_EDGE('',*,*,#61,.T.);
#100 = ORIENTED_EDGE('',*,*,#101,.T.);
#101 = EDGE_CURVE('',#64,#102,#104,.T.);
#102 = VERTEX_POINT('',#103);
#103 = CARTESIAN_POINT('',(247.,133.,348.));
#104 = LINE('',#105,#106);
#105 = CARTESIAN_POINT('',(397.,133.,348.));
#106 = VECTOR('',#107,1.);
#107 = DIRECTION('',(-1.,1.110223024625E-16,0.));
#108 = ORIENTED_EDGE('',*,*,#109,.F.);
#109 = EDGE_CURVE('',#93,#102,#110,.T.);
#110 = LINE('',#111,#112);
#111 = CARTESIAN_POINT('',(247.,125.,348.));
#112 = VECTOR('',#113,1.);
#113 = DIRECTION('',(1.110223024625E-16,1.,0.));
#114 = FACE_BOUND('',#115,.T.);
#115 = EDGE_LOOP('',(#116));
#116 = ORIENTED_EDGE('',*,*,#117,.F.);
#117 = EDGE_CURVE('',#118,#118,#120,.T.);
#118 = VERTEX_POINT('',#119);
#119 = CARTESIAN_POINT('',(257.,132.3,348.));
#120 = CIRCLE('',#121,3.3);
#121 = AXIS2_PLACEMENT_3D('',#122,#123,#124);
#122 = CARTESIAN_POINT('',(257.,129.,348.));
#123 = DIRECTION('',(0.,-0.,1.));
#124 = DIRECTION('',(1.110223024625E-16,1.,0.));
#125 = PLANE('',#126);
#126 = AXIS2_PLACEMENT_3D('',#127,#128,#129);
#127 = CARTESIAN_POINT('',(397.,125.,348.));
#128 = DIRECTION('',(0.,0.,1.));
#129 = DIRECTION('',(1.110223024625E-16,1.,0.));
#130 = ADVANCED_FACE('',(#131),#156,.T.);
#131 = FACE_BOUND('',#132,.T.);
#132 = EDGE_LOOP('',(#133,#143,#149,#150));
#133 = ORIENTED_EDGE('',*,*,#134,.F.);
#134 = EDGE_CURVE('',#135,#137,#139,.T.);
#135 = VERTEX_POINT('',#136);
#136 = CARTESIAN_POINT('',(247.,125.,340.));
#137 = VERTEX_POINT('',#138);
#138 = CARTESIAN_POINT('',(247.,133.,340.));
#139 = LINE('',#140,#141);
#140 = CARTESIAN_POINT('',(247.,125.,340.));
#141 = VECTOR('',#142,1.);
#142 = DIRECTION('',(1.110223024625E-16,1.,0.));
#143 = ORIENTED_EDGE('',*,*,#144,.T.);
#144 = EDGE_CURVE('',#135,#93,#145,.T.);
#145 = LINE('',#146,#147);
#146 = CARTESIAN_POINT('',(247.,125.,340.));
#147 = VECTOR('',#148,1.);
#148 = DIRECTION('',(0.,0.,1.));
#149 = ORIENTED_EDGE('',*,*,#109,.T.);
#150 = ORIENTED_EDGE('',*,*,#151,.F.);
#151 = EDGE_CURVE('',#137,#102,#152,.T.);
#152 = LINE('',#153,#154);
#153 = CARTESIAN_POINT('',(247.,133.,340.));
#154 = VECTOR('',#155,1.);
#155 = DIRECTION('',(0.,0.,1.));
#156 = PLANE('',#157);
#157 = AXIS2_PLACEMENT_3D('',#158,#159,#160);
#158 = CARTESIAN_POINT('',(247.,125.,340.));
#159 = DIRECTION('',(-1.,1.110223024625E-16,0.));
#160 = DIRECTION('',(0.,0.,1.));
#161 = ADVANCED_FACE('',(#162,#187,#198),#209,.F.);
#162 = FACE_BOUND('',#163,.F.);
#163 = EDGE_LOOP('',(#164,#172,#180,#186));
#164 = ORIENTED_EDGE('',*,*,#165,.F.);
#165 = EDGE_CURVE('',#166,#135,#168,.T.);
#166 = VERTEX_POINT('',#167);
#167 = CARTESIAN_POINT('',(397.,125.,340.));
#168 = LINE('',#169,#170);
#169 = CARTESIAN_POINT('',(397.,125.,340.));
#170 = VECTOR('',#171,1.);
#171 = DIRECTION('',(-1.,1.110223024625E-16,0.));
#172 = ORIENTED_EDGE('',*,*,#173,.T.);
#173 = EDGE_CURVE('',#166,#174,#176,.T.);
#174 = VERTEX_POINT('',#175);
#175 = CARTESIAN_POINT('',(397.,133.,340.));
#176 = LINE('',#177,#178);
#177 = CARTESIAN_POINT('',(397.,125.,340.));
#178 = VECTOR('',#179,1.);
#179 = DIRECTION('',(1.110223024625E-16,1.,0.));
#180 = ORIENTED_EDGE('',*,*,#181,.T.);
#181 = EDGE_CURVE('',#174,#137,#182,.T.);
#182 = LINE('',#183,#184);
#183 = CARTESIAN_POINT('',(397.,133.,340.));
#184 = VECTOR('',#185,1.);
#185 = DIRECTION('',(-1.,1.110223024625E-16,0.));
#186 = ORIENTED_EDGE('',*,*,#134,.F.);
#187 = FACE_BOUND('',#188,.F.);
#188 = EDGE_LOOP('',(#189));
#189 = ORIENTED_EDGE('',*,*,#190,.F.);
#190 = EDGE_CURVE('',#191,#191,#193,.T.);
#191 = VERTEX_POINT('',#192);
#192 = CARTESIAN_POINT('',(387.,132.3,340.));
#193 = CIRCLE('',#194,3.3);
#194 = AXIS2_PLACEMENT_3D('',#195,#196,#197);
#195 = CARTESIAN_POINT('',(387.,129.,340.));
#196 = DIRECTION('',(0.,-0.,1.));
#197 = DIRECTION('',(1.110223024625E-16,1.,0.));
#198 = FACE_BOUND('',#199,.F.);
#199 = EDGE_LOOP('',(#200));
#200 = ORIENTED_EDGE('',*,*,#201,.F.);
#201 = EDGE_CURVE('',#202,#202,#204,.T.);
#202 = VERTEX_POINT('',#203);
#203 = CARTESIAN_POINT('',(257.,132.3,340.));
#204 = CIRCLE('',#205,3.3);
#205 = AXIS2_PLACEMENT_3D('',#206,#207,#208);
#206 = CARTESIAN_POINT('',(257.,129.,340.));
#207 = DIRECTION('',(0.,-0.,1.));
#208 = DIRECTION('',(1.110223024625E-16,1.,0.));
#209 = PLANE('',#210);
#210 = AXIS2_PLACEMENT_3D('',#211,#212,#213);
#211 = CARTESIAN_POINT('',(397.,125.,340.));
#212 = DIRECTION('',(0.,0.,1.));
#213 = DIRECTION('',(1.110223024625E-16,1.,0.));
#214 = ADVANCED_FACE('',(#215,#249),#260,.T.);
#215 = FACE_BOUND('',#216,.T.);
#216 = EDGE_LOOP('',(#217,#227,#235,#243));
#217 = ORIENTED_EDGE('',*,*,#218,.F.);
#218 = EDGE_CURVE('',#219,#221,#223,.T.);
#219 = VERTEX_POINT('',#220);
#220 = CARTESIAN_POINT('',(397.,125.,348.));
#221 = VERTEX_POINT('',#222);
#222 = CARTESIAN_POINT('',(347.,125.,348.));
#223 = LINE('',#224,#225);
#224 = CARTESIAN_POINT('',(397.,125.,348.));
#225 = VECTOR('',#226,1.);
#226 = DIRECTION('',(-1.,1.110223024625E-16,0.));
#227 = ORIENTED_EDGE('',*,*,#228,.T.);
#228 = EDGE_CURVE('',#219,#229,#231,.T.);
#229 = VERTEX_POINT('',#230);
#230 = CARTESIAN_POINT('',(397.,133.,348.));
#231 = LINE('',#232,#233);
#232 = CARTESIAN_POINT('',(397.,125.,348.));
#233 = VECTOR('',#234,1.);
#234 = DIRECTION('',(1.110223024625E-16,1.,0.));
#235 = ORIENTED_EDGE('',*,*,#236,.T.);
#236 = EDGE_CURVE('',#229,#237,#239,.T.);
#237 = VERTEX_POINT('',#238);
#238 = CARTESIAN_POINT('',(347.,133.,348.));
#239 = LINE('',#240,#241);
#240 = CARTESIAN_POINT('',(397.,133.,348.));
#241 = VECTOR('',#242,1.);
#242 = DIRECTION('',(-1.,1.110223024625E-16,0.));
#243 = ORIENTED_EDGE('',*,*,#244,.F.);
#244 = EDGE_CURVE('',#221,#237,#245,.T.);
#245 = LINE('',#246,#247);
#246 = CARTESIAN_POINT('',(347.,125.,348.));
#247 = VECTOR('',#248,1.);
#248 = DIRECTION('',(1.110223024625E-16,1.,0.));
#249 = FACE_BOUND('',#250,.T.);
#250 = EDGE_LOOP('',(#251));
#251 = ORIENTED_EDGE('',*,*,#252,.F.);
#252 = EDGE_CURVE('',#253,#253,#255,.T.);
#253 = VERTEX_POINT('',#254);
#254 = CARTESIAN_POINT('',(387.,132.3,348.));
#255 = CIRCLE('',#256,3.3);
#256 = AXIS2_PLACEMENT_3D('',#257,#258,#259);
#257 = CARTESIAN_POINT('',(387.,129.,348.));
#258 = DIRECTION('',(0.,-0.,1.));
#259 = DIRECTION('',(1.110223024625E-16,1.,0.));
#260 = PLANE('',#261);
#261 = AXIS2_PLACEMENT_3D('',#262,#263,#264);
#262 = CARTESIAN_POINT('',(397.,125.,348.));
#263 = DIRECTION('',(0.,0.,1.));
#264 = DIRECTION('',(1.110223024625E-16,1.,0.));
#265 = ADVANCED_FACE('',(#266),#282,.F.);
#266 = FACE_BOUND('',#267,.F.);
#267 = EDGE_LOOP('',(#268,#269,#275,#276));
#268 = ORIENTED_EDGE('',*,*,#173,.F.);
#269 = ORIENTED_EDGE('',*,*,#270,.T.);
#270 = EDGE_CURVE('',#166,#219,#271,.T.);
#271 = LINE('',#272,#273);
#272 = CARTESIAN_POINT('',(397.,125.,340.));
#273 = VECTOR('',#274,1.);
#274 = DIRECTION('',(0.,0.,1.));
#275 = ORIENTED_EDGE('',*,*,#228,.T.);
#276 = ORIENTED_EDGE('',*,*,#277,.F.);
#277 = EDGE_CURVE('',#174,#229,#278,.T.);
#278 = LINE('',#279,#280);
#279 = CARTESIAN_POINT('',(397.,133.,340.));
#280 = VECTOR('',#281,1.);
#281 = DIRECTION('',(0.,0.,1.));
#282 = PLANE('',#283);
#283 = AXIS2_PLACEMENT_3D('',#284,#285,#286);
#284 = CARTESIAN_POINT('',(397.,125.,340.));
#285 = DIRECTION('',(-1.,1.110223024625E-16,0.));
#286 = DIRECTION('',(0.,0.,1.));
#287 = ADVANCED_FACE('',(#288),#299,.F.);
#288 = FACE_BOUND('',#289,.F.);
#289 = EDGE_LOOP('',(#290,#291,#297,#298));
#290 = ORIENTED_EDGE('',*,*,#252,.F.);
#291 = ORIENTED_EDGE('',*,*,#292,.F.);
#292 = EDGE_CURVE('',#191,#253,#293,.T.);
#293 = LINE('',#294,#295);
#294 = CARTESIAN_POINT('',(387.,132.3,340.));
#295 = VECTOR('',#296,1.);
#296 = DIRECTION('',(0.,0.,1.));
#297 = ORIENTED_EDGE('',*,*,#190,.T.);
#298 = ORIENTED_EDGE('',*,*,#292,.T.);
#299 = CYLINDRICAL_SURFACE('',#300,3.3);
#300 = AXIS2_PLACEMENT_3D('',#301,#302,#303);
#301 = CARTESIAN_POINT('',(387.,129.,340.));
#302 = DIRECTION('',(0.,0.,1.));
#303 = DIRECTION('',(1.110223024625E-16,1.,0.));
#304 = ADVANCED_FACE('',(#305),#316,.F.);
#305 = FACE_BOUND('',#306,.F.);
#306 = EDGE_LOOP('',(#307,#308,#314,#315));
#307 = ORIENTED_EDGE('',*,*,#117,.F.);
#308 = ORIENTED_EDGE('',*,*,#309,.F.);
#309 = EDGE_CURVE('',#202,#118,#310,.T.);
#310 = LINE('',#311,#312);
#311 = CARTESIAN_POINT('',(257.,132.3,340.));
#312 = VECTOR('',#313,1.);
#313 = DIRECTION('',(0.,0.,1.));
#314 = ORIENTED_EDGE('',*,*,#201,.T.);
#315 = ORIENTED_EDGE('',*,*,#309,.T.);
#316 = CYLINDRICAL_SURFACE('',#317,3.3);
#317 = AXIS2_PLACEMENT_3D('',#318,#319,#320);
#318 = CARTESIAN_POINT('',(257.,129.,340.));
#319 = DIRECTION('',(0.,0.,1.));
#320 = DIRECTION('',(1.110223024625E-16,1.,0.));
#321 = ADVANCED_FACE('',(#322),#347,.F.);
#322 = FACE_BOUND('',#323,.T.);
#323 = EDGE_LOOP('',(#324,#325,#333,#341));
#324 = ORIENTED_EDGE('',*,*,#244,.T.);
#325 = ORIENTED_EDGE('',*,*,#326,.T.);
#326 = EDGE_CURVE('',#237,#327,#329,.T.);
#327 = VERTEX_POINT('',#328);
#328 = CARTESIAN_POINT('',(347.,133.,416.));
#329 = LINE('',#330,#331);
#330 = CARTESIAN_POINT('',(347.,133.,348.));
#331 = VECTOR('',#332,1.);
#332 = DIRECTION('',(0.,0.,1.));
#333 = ORIENTED_EDGE('',*,*,#334,.F.);
#334 = EDGE_CURVE('',#335,#327,#337,.T.);
#335 = VERTEX_POINT('',#336);
#336 = CARTESIAN_POINT('',(347.,125.,416.));
#337 = LINE('',#338,#339);
#338 = CARTESIAN_POINT('',(347.,125.,416.));
#339 = VECTOR('',#340,1.);
#340 = DIRECTION('',(1.110223024625E-16,1.,0.));
#341 = ORIENTED_EDGE('',*,*,#342,.F.);
#342 = EDGE_CURVE('',#221,#335,#343,.T.);
#343 = LINE('',#344,#345);
#344 = CARTESIAN_POINT('',(347.,125.,348.));
#345 = VECTOR('',#346,1.);
#346 = DIRECTION('',(0.,0.,1.));
#347 = PLANE('',#348);
#348 = AXIS2_PLACEMENT_3D('',#349,#350,#351);
#349 = CARTESIAN_POINT('',(347.,125.,348.));
#350 = DIRECTION('',(-1.,1.110223024625E-16,0.));
#351 = DIRECTION('',(0.,0.,1.));
#352 = ADVANCED_FACE('',(#353),#421,.T.);
#353 = FACE_BOUND('',#354,.T.);
#354 = EDGE_LOOP('',(#355,#356,#357,#358,#359,#360,#361,#362,#363,#372,
    #381,#390,#399,#407,#415));
#355 = ORIENTED_EDGE('',*,*,#326,.F.);
#356 = ORIENTED_EDGE('',*,*,#236,.F.);
#357 = ORIENTED_EDGE('',*,*,#277,.F.);
#358 = ORIENTED_EDGE('',*,*,#181,.T.);
#359 = ORIENTED_EDGE('',*,*,#151,.T.);
#360 = ORIENTED_EDGE('',*,*,#101,.F.);
#361 = ORIENTED_EDGE('',*,*,#78,.T.);
#362 = ORIENTED_EDGE('',*,*,#39,.F.);
#363 = ORIENTED_EDGE('',*,*,#364,.F.);
#364 = EDGE_CURVE('',#365,#32,#367,.T.);
#365 = VERTEX_POINT('',#366);
#366 = CARTESIAN_POINT('',(326.10455772353,133.,398.));
#367 = CIRCLE('',#368,17.125);
#368 = AXIS2_PLACEMENT_3D('',#369,#370,#371);
#369 = CARTESIAN_POINT('',(320.,133.,382.));
#370 = DIRECTION('',(1.110223024625E-16,1.,-0.));
#371 = DIRECTION('',(0.,0.,1.));
#372 = ORIENTED_EDGE('',*,*,#373,.F.);
#373 = EDGE_CURVE('',#374,#365,#376,.T.);
#374 = VERTEX_POINT('',#375);
#375 = CARTESIAN_POINT('',(320.,133.,399.125));
#376 = CIRCLE('',#377,17.125);
#377 = AXIS2_PLACEMENT_3D('',#378,#379,#380);
#378 = CARTESIAN_POINT('',(320.,133.,382.));
#379 = DIRECTION('',(1.110223024625E-16,1.,-0.));
#380 = DIRECTION('',(0.,0.,1.));
#381 = ORIENTED_EDGE('',*,*,#382,.F.);
#382 = EDGE_CURVE('',#383,#374,#385,.T.);
#383 = VERTEX_POINT('',#384);
#384 = CARTESIAN_POINT('',(313.89544227646,133.,398.));
#385 = CIRCLE('',#386,17.125);
#386 = AXIS2_PLACEMENT_3D('',#387,#388,#389);
#387 = CARTESIAN_POINT('',(320.,133.,382.));
#388 = DIRECTION('',(1.110223024625E-16,1.,-0.));
#389 = DIRECTION('',(0.,0.,1.));
#390 = ORIENTED_EDGE('',*,*,#391,.F.);
#391 = EDGE_CURVE('',#392,#383,#394,.T.);
#392 = VERTEX_POINT('',#393);
#393 = CARTESIAN_POINT('',(305.43066147692,133.,391.));
#394 = CIRCLE('',#395,17.125);
#395 = AXIS2_PLACEMENT_3D('',#396,#397,#398);
#396 = CARTESIAN_POINT('',(320.,133.,382.));
#397 = DIRECTION('',(1.110223024625E-16,1.,-0.));
#398 = DIRECTION('',(0.,0.,1.));
#399 = ORIENTED_EDGE('',*,*,#400,.T.);
#400 = EDGE_CURVE('',#392,#401,#403,.T.);
#401 = VERTEX_POINT('',#402);
#402 = CARTESIAN_POINT('',(293.,133.,391.));
#403 = LINE('',#404,#405);
#404 = CARTESIAN_POINT('',(311.,133.,391.));
#405 = VECTOR('',#406,1.);
#406 = DIRECTION('',(-1.,1.110223024625E-16,0.));
#407 = ORIENTED_EDGE('',*,*,#408,.T.);
#408 = EDGE_CURVE('',#401,#409,#411,.T.);
#409 = VERTEX_POINT('',#410);
#410 = CARTESIAN_POINT('',(293.,133.,416.));
#411 = LINE('',#412,#413);
#412 = CARTESIAN_POINT('',(293.,133.,348.));
#413 = VECTOR('',#414,1.);
#414 = DIRECTION('',(0.,0.,1.));
#415 = ORIENTED_EDGE('',*,*,#416,.F.);
#416 = EDGE_CURVE('',#327,#409,#417,.T.);
#417 = LINE('',#418,#419);
#418 = CARTESIAN_POINT('',(347.,133.,416.));
#419 = VECTOR('',#420,1.);
#420 = DIRECTION('',(-1.,1.110223024625E-16,0.));
#421 = PLANE('',#422);
#422 = AXIS2_PLACEMENT_3D('',#423,#424,#425);
#423 = CARTESIAN_POINT('',(321.52314853867,133.,366.77858555243));
#424 = DIRECTION('',(1.110223024625E-16,1.,0.));
#425 = DIRECTION('',(0.,0.,1.));
#426 = ADVANCED_FACE('',(#427),#452,.F.);
#427 = FACE_BOUND('',#428,.F.);
#428 = EDGE_LOOP('',(#429,#439,#445,#446));
#429 = ORIENTED_EDGE('',*,*,#430,.F.);
#430 = EDGE_CURVE('',#431,#433,#435,.T.);
#431 = VERTEX_POINT('',#432);
#432 = CARTESIAN_POINT('',(305.43066147692,125.,391.));
#433 = VERTEX_POINT('',#434);
#434 = CARTESIAN_POINT('',(293.,125.,391.));
#435 = LINE('',#436,#437);
#436 = CARTESIAN_POINT('',(311.,125.,391.));
#437 = VECTOR('',#438,1.);
#438 = DIRECTION('',(-1.,1.110223024625E-16,0.));
#439 = ORIENTED_EDGE('',*,*,#440,.T.);
#440 = EDGE_CURVE('',#431,#392,#441,.T.);
#441 = LINE('',#442,#443);
#442 = CARTESIAN_POINT('',(305.43066147692,125.,391.));
#443 = VECTOR('',#444,1.);
#444 = DIRECTION('',(1.110223024625E-16,1.,0.));
#445 = ORIENTED_EDGE('',*,*,#400,.T.);
#446 = ORIENTED_EDGE('',*,*,#447,.F.);
#447 = EDGE_CURVE('',#433,#401,#448,.T.);
#448 = LINE('',#449,#450);
#449 = CARTESIAN_POINT('',(293.,125.,391.));
#450 = VECTOR('',#451,1.);
#451 = DIRECTION('',(1.110223024625E-16,1.,0.));
#452 = PLANE('',#453);
#453 = AXIS2_PLACEMENT_3D('',#454,#455,#456);
#454 = CARTESIAN_POINT('',(311.,125.,391.));
#455 = DIRECTION('',(0.,0.,1.));
#456 = DIRECTION('',(1.110223024625E-16,1.,0.));
#457 = ADVANCED_FACE('',(#458),#517,.T.);
#458 = FACE_BOUND('',#459,.T.);
#459 = EDGE_LOOP('',(#460,#461,#462,#463,#471,#477,#478,#487,#496,#505,
    #512,#513,#514,#515,#516));
#460 = ORIENTED_EDGE('',*,*,#270,.T.);
#461 = ORIENTED_EDGE('',*,*,#218,.T.);
#462 = ORIENTED_EDGE('',*,*,#342,.T.);
#463 = ORIENTED_EDGE('',*,*,#464,.T.);
#464 = EDGE_CURVE('',#335,#465,#467,.T.);
#465 = VERTEX_POINT('',#466);
#466 = CARTESIAN_POINT('',(293.,125.,416.));
#467 = LINE('',#468,#469);
#468 = CARTESIAN_POINT('',(347.,125.,416.));
#469 = VECTOR('',#470,1.);
#470 = DIRECTION('',(-1.,1.110223024625E-16,0.));
#471 = ORIENTED_EDGE('',*,*,#472,.F.);
#472 = EDGE_CURVE('',#433,#465,#473,.T.);
#473 = LINE('',#474,#475);
#474 = CARTESIAN_POINT('',(293.,125.,348.));
#475 = VECTOR('',#476,1.);
#476 = DIRECTION('',(0.,0.,1.));
#477 = ORIENTED_EDGE('',*,*,#430,.F.);
#478 = ORIENTED_EDGE('',*,*,#479,.T.);
#479 = EDGE_CURVE('',#431,#480,#482,.T.);
#480 = VERTEX_POINT('',#481);
#481 = CARTESIAN_POINT('',(313.89544227646,125.,398.));
#482 = CIRCLE('',#483,17.125);
#483 = AXIS2_PLACEMENT_3D('',#484,#485,#486);
#484 = CARTESIAN_POINT('',(320.,125.,382.));
#485 = DIRECTION('',(1.110223024625E-16,1.,-0.));
#486 = DIRECTION('',(0.,0.,1.));
#487 = ORIENTED_EDGE('',*,*,#488,.T.);
#488 = EDGE_CURVE('',#480,#489,#491,.T.);
#489 = VERTEX_POINT('',#490);
#490 = CARTESIAN_POINT('',(320.,125.,399.125));
#491 = CIRCLE('',#492,17.125);
#492 = AXIS2_PLACEMENT_3D('',#493,#494,#495);
#493 = CARTESIAN_POINT('',(320.,125.,382.));
#494 = DIRECTION('',(1.110223024625E-16,1.,-0.));
#495 = DIRECTION('',(0.,0.,1.));
#496 = ORIENTED_EDGE('',*,*,#497,.T.);
#497 = EDGE_CURVE('',#489,#498,#500,.T.);
#498 = VERTEX_POINT('',#499);
#499 = CARTESIAN_POINT('',(326.10455772353,125.,398.));
#500 = CIRCLE('',#501,17.125);
#501 = AXIS2_PLACEMENT_3D('',#502,#503,#504);
#502 = CARTESIAN_POINT('',(320.,125.,382.));
#503 = DIRECTION('',(1.110223024625E-16,1.,-0.));
#504 = DIRECTION('',(0.,0.,1.));
#505 = ORIENTED_EDGE('',*,*,#506,.T.);
#506 = EDGE_CURVE('',#498,#22,#507,.T.);
#507 = CIRCLE('',#508,17.125);
#508 = AXIS2_PLACEMENT_3D('',#509,#510,#511);
#509 = CARTESIAN_POINT('',(320.,125.,382.));
#510 = DIRECTION('',(1.110223024625E-16,1.,-0.));
#511 = DIRECTION('',(0.,0.,1.));
#512 = ORIENTED_EDGE('',*,*,#21,.T.);
#513 = ORIENTED_EDGE('',*,*,#71,.F.);
#514 = ORIENTED_EDGE('',*,*,#92,.T.);
#515 = ORIENTED_EDGE('',*,*,#144,.F.);
#516 = ORIENTED_EDGE('',*,*,#165,.F.);
#517 = PLANE('',#518);
#518 = AXIS2_PLACEMENT_3D('',#519,#520,#521);
#519 = CARTESIAN_POINT('',(321.52314853867,125.,366.77858555243));
#520 = DIRECTION('',(-1.110223024625E-16,-1.,-0.));
#521 = DIRECTION('',(0.,0.,-1.));
#522 = ADVANCED_FACE('',(#523),#534,.T.);
#523 = FACE_BOUND('',#524,.T.);
#524 = EDGE_LOOP('',(#525,#526,#527,#528));
#525 = ORIENTED_EDGE('',*,*,#408,.F.);
#526 = ORIENTED_EDGE('',*,*,#447,.F.);
#527 = ORIENTED_EDGE('',*,*,#472,.T.);
#528 = ORIENTED_EDGE('',*,*,#529,.T.);
#529 = EDGE_CURVE('',#465,#409,#530,.T.);
#530 = LINE('',#531,#532);
#531 = CARTESIAN_POINT('',(293.,125.,416.));
#532 = VECTOR('',#533,1.);
#533 = DIRECTION('',(1.110223024625E-16,1.,0.));
#534 = PLANE('',#535);
#535 = AXIS2_PLACEMENT_3D('',#536,#537,#538);
#536 = CARTESIAN_POINT('',(293.,125.,348.));
#537 = DIRECTION('',(-1.,1.110223024625E-16,0.));
#538 = DIRECTION('',(0.,0.,1.));
#539 = ADVANCED_FACE('',(#540),#546,.T.);
#540 = FACE_BOUND('',#541,.T.);
#541 = EDGE_LOOP('',(#542,#543,#544,#545));
#542 = ORIENTED_EDGE('',*,*,#464,.F.);
#543 = ORIENTED_EDGE('',*,*,#334,.T.);
#544 = ORIENTED_EDGE('',*,*,#416,.T.);
#545 = ORIENTED_EDGE('',*,*,#529,.F.);
#546 = PLANE('',#547);
#547 = AXIS2_PLACEMENT_3D('',#548,#549,#550);
#548 = CARTESIAN_POINT('',(320.,129.,416.));
#549 = DIRECTION('',(0.,0.,1.));
#550 = DIRECTION('',(1.110223024625E-16,1.,0.));
#551 = ADVANCED_FACE('',(#552),#564,.F.);
#552 = FACE_BOUND('',#553,.F.);
#553 = EDGE_LOOP('',(#554,#555,#556,#557,#558,#559,#560,#561,#562,#563)
  );
#554 = ORIENTED_EDGE('',*,*,#479,.T.);
#555 = ORIENTED_EDGE('',*,*,#488,.T.);
#556 = ORIENTED_EDGE('',*,*,#497,.T.);
#557 = ORIENTED_EDGE('',*,*,#506,.T.);
#558 = ORIENTED_EDGE('',*,*,#31,.T.);
#559 = ORIENTED_EDGE('',*,*,#364,.F.);
#560 = ORIENTED_EDGE('',*,*,#373,.F.);
#561 = ORIENTED_EDGE('',*,*,#382,.F.);
#562 = ORIENTED_EDGE('',*,*,#391,.F.);
#563 = ORIENTED_EDGE('',*,*,#440,.F.);
#564 = CYLINDRICAL_SURFACE('',#565,17.125);
#565 = AXIS2_PLACEMENT_3D('',#566,#567,#568);
#566 = CARTESIAN_POINT('',(320.,125.,382.));
#567 = DIRECTION('',(1.110223024625E-16,1.,0.));
#568 = DIRECTION('',(0.,0.,1.));
#569 = ( GEOMETRIC_REPRESENTATION_CONTEXT(3) 
GLOBAL_UNCERTAINTY_ASSIGNED_CONTEXT((#573)) GLOBAL_UNIT_ASSIGNED_CONTEXT
((#570,#571,#572)) REPRESENTATION_CONTEXT('Context #1',
  '3D Context with UNIT and UNCERTAINTY') );
#570 = ( LENGTH_UNIT() NAMED_UNIT(*) SI_UNIT(.MILLI.,.METRE.) );
#571 = ( NAMED_UNIT(*) PLANE_ANGLE_UNIT() SI_UNIT($,.RADIAN.) );
#572 = ( NAMED_UNIT(*) SI_UNIT($,.STERADIAN.) SOLID_ANGLE_UNIT() );
#573 = UNCERTAINTY_MEASURE_WITH_UNIT(LENGTH_MEASURE(1.E-07),#570,
  'distance_accuracy_value','confusion accuracy');
#574 = PRODUCT_RELATED_PRODUCT_CATEGORY('part',$,(#7));
ENDSEC;
END-ISO-10303-21;
