0
SECTION
2
ENTITIES
0
LINE
8
OUTLINE_T1_5
10
0
20
0
11
500.0
21
0
0
LINE
8
OUTLINE_T1_5
10
500.0
20
0
11
500.0
21
400.0
0
LINE
8
OUTLINE_T1_5
10
500.0
20
400.0
11
0
21
400.0
0
LINE
8
OUTLINE_T1_5
10
0
20
400.0
11
0
21
0
0
CIRCLE
8
DOOR_M4_TBD
10
8
20
8
40
2.25
0
CIRCLE
8
DOOR_M4_TBD
10
492.0
20
8
40
2.25
0
CIRCLE
8
DOOR_M4_TBD
10
8
20
392.0
40
2.25
0
CIRCLE
8
DOOR_M4_TBD
10
492.0
20
392.0
40
2.25
0
CIRCLE
8
SELECTED_S0_A22E_M_02
10
170.0
20
330.0
40
11.15
0
LINE
8
PLACEHOLDER_TFT_CUTOUT
10
285
20
300
11
385
21
300
0
LINE
8
PLACEHOLDER_TFT_CUTOUT
10
385
20
300
11
385
21
364
0
LINE
8
PLACEHOLDER_TFT_CUTOUT
10
385
20
364
11
285
21
364
0
LINE
8
PLACEHOLDER_TFT_CUTOUT
10
285
20
364
11
285
21
300
0
CIRCLE
8
PLACEHOLDER_UI_22MM
10
300.0
20
260.0
40
11.15
0
CIRCLE
8
PLACEHOLDER_UI_22MM
10
350.0
20
260.0
40
11.15
0
CIRCLE
8
PLACEHOLDER_UI_22MM
10
400.0
20
260.0
40
11.15
0
ENDSEC
0
EOF
