0
SECTION
2
ENTITIES
0
LINE
8
OUTLINE_T1_5
10
0
20
0
11
146.66666666666666
21
0
0
LINE
8
OUTLINE_T1_5
10
146.66666666666666
20
0
11
146.66666666666666
21
140.0
0
LINE
8
OUTLINE_T1_5
10
146.66666666666666
20
140.0
11
0
21
140.0
0
LINE
8
OUTLINE_T1_5
10
0
20
140.0
11
0
21
0
0
CIRCLE
8
FAN_AIR_D68_8
10
73.33333333333333
20
70.0
40
34.4
0
CIRCLE
8
FAN_M4
10
37.58333333333333
20
34.25
40
2.25
0
CIRCLE
8
FAN_M4
10
37.58333333333333
20
105.75
40
2.25
0
CIRCLE
8
FAN_M4
10
109.08333333333333
20
34.25
40
2.25
0
CIRCLE
8
FAN_M4
10
109.08333333333333
20
105.75
40
2.25
0
ENDSEC
0
EOF
