0
SECTION
2
ENTITIES
0
LINE
8
OUTLINE_T14
10
0
20
0
11
110.0
21
0
0
LINE
8
OUTLINE_T14
10
110.0
20
0
11
110.0
21
100.0
0
LINE
8
OUTLINE_T14
10
110.0
20
100.0
11
0
21
100.0
0
LINE
8
OUTLINE_T14
10
0
20
100.0
11
0
21
0
0
CIRCLE
8
THRU
10
40.0
20
50.0
40
18.0
0
CIRCLE
8
CBORE_DEPTH_11_8
10
40.0
20
50.0
40
21.0
0
CIRCLE
8
FRAME_M5
10
10
20
10
40
2.75
0
CIRCLE
8
FRAME_M5
10
100
20
10
40
2.75
0
CIRCLE
8
FRAME_M5
10
10
20
90
40
2.75
0
CIRCLE
8
FRAME_M5
10
100
20
90
40
2.75
0
CIRCLE
8
RETAINER_M4
10
15.0
20
50.0
40
2.1
0
CIRCLE
8
RETAINER_M4
10
65.0
20
50.0
40
2.1
0
CIRCLE
8
RETAINER_M4
10
40.0
20
25.0
40
2.1
0
CIRCLE
8
RETAINER_M4
10
40.0
20
75.0
40
2.1
0
ENDSEC
0
EOF
