0
SECTION
2
ENTITIES
0
LINE
8
OUTLINE_T14
10
0
20
0
11
100.0
21
0
0
LINE
8
OUTLINE_T14
10
100.0
20
0
11
100.0
21
90.0
0
LINE
8
OUTLINE_T14
10
100.0
20
90.0
11
0
21
90.0
0
LINE
8
OUTLINE_T14
10
0
20
90.0
11
0
21
0
0
CIRCLE
8
THRU
10
40.0
20
45.0
40
17.0
0
CIRCLE
8
CBORE_DEPTH_11_8
10
40.0
20
45.0
40
20.0
0
CIRCLE
8
FRAME_M5
10
8
20
8
40
2.75
0
CIRCLE
8
FRAME_M5
10
92
20
8
40
2.75
0
CIRCLE
8
FRAME_M5
10
8
20
82
40
2.75
0
CIRCLE
8
FRAME_M5
10
92
20
82
40
2.75
0
CIRCLE
8
RETAINER_M4
10
16.0
20
45.0
40
2.1
0
CIRCLE
8
RETAINER_M4
10
64.0
20
45.0
40
2.1
0
CIRCLE
8
RETAINER_M4
10
40.0
20
21.0
40
2.1
0
CIRCLE
8
RETAINER_M4
10
40.0
20
69.0
40
2.1
0
ENDSEC
0
EOF
