  0
SECTION
  2
HEADER
  9
$ACADVER
  1
AC1024
  9
$ACADMAINTVER
 70
6
  9
$DWGCODEPAGE
  3
ANSI_1252
  9
$LASTSAVEDBY
  1
ezdxf
  9
$INSBASE
 10
0.0
 20
0.0
 30
0.0
  9
$EXTMIN
 10
1e+20
 20
1e+20
 30
1e+20
  9
$EXTMAX
 10
-1e+20
 20
-1e+20
 30
-1e+20
  9
$LIMMIN
 10
0.0
 20
0.0
  9
$LIMMAX
 10
420.0
 20
297.0
  9
$ORTHOMODE
 70
0
  9
$REGENMODE
 70
1
  9
$FILLMODE
 70
1
  9
$QTEXTMODE
 70
0
  9
$MIRRTEXT
 70
1
  9
$LTSCALE
 40
1.0
  9
$ATTMODE
 70
1
  9
$TEXTSIZE
 40
2.5
  9
$TRACEWID
 40
1.0
  9
$TEXTSTYLE
  7
Standard
  9
$CLAYER
  8
0
  9
$CELTYPE
  6
ByLayer
  9
$CECOLOR
 62
256
  9
$CELTSCALE
 40
1.0
  9
$DISPSILH
 70
0
  9
$DIMSCALE
 40
1.0
  9
$DIMASZ
 40
2.5
  9
$DIMEXO
 40
0.625
  9
$DIMDLI
 40
3.75
  9
$DIMRND
 40
0.0
  9
$DIMDLE
 40
0.0
  9
$DIMEXE
 40
1.25
  9
$DIMTP
 40
0.0
  9
$DIMTM
 40
0.0
  9
$DIMTXT
 40
2.5
  9
$DIMCEN
 40
2.5
  9
$DIMTSZ
 40
0.0
  9
$DIMTOL
 70
0
  9
$DIMLIM
 70
0
  9
$DIMTIH
 70
0
  9
$DIMTOH
 70
0
  9
$DIMSE1
 70
0
  9
$DIMSE2
 70
0
  9
$DIMTAD
 70
1
  9
$DIMZIN
 70
8
  9
$DIMBLK
  1

  9
$DIMASO
 70
1
  9
$DIMSHO
 70
1
  9
$DIMPOST
  1

  9
$DIMAPOST
  1

  9
$DIMALT
 70
0
  9
$DIMALTD
 70
3
  9
$DIMALTF
 40
0.03937007874
  9
$DIMLFAC
 40
1.0
  9
$DIMTOFL
 70
1
  9
$DIMTVP
 40
0.0
  9
$DIMTIX
 70
0
  9
$DIMSOXD
 70
0
  9
$DIMSAH
 70
0
  9
$DIMBLK1
  1

  9
$DIMBLK2
  1

  9
$DIMSTYLE
  2
ISO-25
  9
$DIMCLRD
 70
0
  9
$DIMCLRE
 70
0
  9
$DIMCLRT
 70
0
  9
$DIMTFAC
 40
1.0
  9
$DIMGAP
 40
0.625
  9
$DIMJUST
 70
0
  9
$DIMSD1
 70
0
  9
$DIMSD2
 70
0
  9
$DIMTOLJ
 70
0
  9
$DIMTZIN
 70
8
  9
$DIMALTZ
 70
0
  9
$DIMALTTZ
 70
0
  9
$DIMUPT
 70
0
  9
$DIMDEC
 70
2
  9
$DIMTDEC
 70
2
  9
$DIMALTU
 70
2
  9
$DIMALTTD
 70
3
  9
$DIMTXSTY
  7
Standard
  9
$DIMAUNIT
 70
0
  9
$DIMADEC
 70
0
  9
$DIMALTRND
 40
0.0
  9
$DIMAZIN
 70
0
  9
$DIMDSEP
 70
44
  9
$DIMATFIT
 70
3
  9
$DIMFRAC
 70
0
  9
$DIMLDRBLK
  1

  9
$DIMLUNIT
 70
2
  9
$DIMLWD
 70
-2
  9
$DIMLWE
 70
-2
  9
$DIMTMOVE
 70
0
  9
$DIMFXL
 40
1.0
  9
$DIMFXLON
 70
0
  9
$DIMJOGANG
 40
0.785398163397
  9
$DIMTFILL
 70
0
  9
$DIMTFILLCLR
 70
0
  9
$DIMARCSYM
 70
0
  9
$DIMLTYPE
  6

  9
$DIMLTEX1
  6

  9
$DIMLTEX2
  6

  9
$DIMTXTDIRECTION
 70
0
  9
$LUNITS
 70
2
  9
$LUPREC
 70
4
  9
$SKETCHINC
 40
1.0
  9
$FILLETRAD
 40
10.0
  9
$AUNITS
 70
0
  9
$AUPREC
 70
2
  9
$MENU
  1
.
  9
$ELEVATION
 40
0.0
  9
$PELEVATION
 40
0.0
  9
$THICKNESS
 40
0.0
  9
$LIMCHECK
 70
0
  9
$CHAMFERA
 40
0.0
  9
$CHAMFERB
 40
0.0
  9
$CHAMFERC
 40
0.0
  9
$CHAMFERD
 40
0.0
  9
$SKPOLY
 70
0
  9
$TDCREATE
 40
2461305.0833680555
  9
$TDUCREATE
 40
2458532.153996898
  9
$TDUPDATE
 40
2461305.0833680555
  9
$TDUUPDATE
 40
2458532.1544311
  9
$TDINDWG
 40
0.0
  9
$TDUSRTIMER
 40
0.0
  9
$USRTIMER
 70
1
  9
$ANGBASE
 50
0.0
  9
$ANGDIR
 70
0
  9
$PDMODE
 70
0
  9
$PDSIZE
 40
0.0
  9
$PLINEWID
 40
0.0
  9
$SPLFRAME
 70
0
  9
$SPLINETYPE
 70
6
  9
$SPLINESEGS
 70
8
  9
$HANDSEED
  5
37
  9
$SURFTAB1
 70
6
  9
$SURFTAB2
 70
6
  9
$SURFTYPE
 70
6
  9
$SURFU
 70
6
  9
$SURFV
 70
6
  9
$UCSBASE
  2

  9
$UCSNAME
  2

  9
$UCSORG
 10
0.0
 20
0.0
 30
0.0
  9
$UCSXDIR
 10
1.0
 20
0.0
 30
0.0
  9
$UCSYDIR
 10
0.0
 20
1.0
 30
0.0
  9
$UCSORTHOREF
  2

  9
$UCSORTHOVIEW
 70
0
  9
$UCSORGTOP
 10
0.0
 20
0.0
 30
0.0
  9
$UCSORGBOTTOM
 10
0.0
 20
0.0
 30
0.0
  9
$UCSORGLEFT
 10
0.0
 20
0.0
 30
0.0
  9
$UCSORGRIGHT
 10
0.0
 20
0.0
 30
0.0
  9
$UCSORGFRONT
 10
0.0
 20
0.0
 30
0.0
  9
$UCSORGBACK
 10
0.0
 20
0.0
 30
0.0
  9
$PUCSBASE
  2

  9
$PUCSNAME
  2

  9
$PUCSORG
 10
0.0
 20
0.0
 30
0.0
  9
$PUCSXDIR
 10
1.0
 20
0.0
 30
0.0
  9
$PUCSYDIR
 10
0.0
 20
1.0
 30
0.0
  9
$PUCSORTHOREF
  2

  9
$PUCSORTHOVIEW
 70
0
  9
$PUCSORGTOP
 10
0.0
 20
0.0
 30
0.0
  9
$PUCSORGBOTTOM
 10
0.0
 20
0.0
 30
0.0
  9
$PUCSORGLEFT
 10
0.0
 20
0.0
 30
0.0
  9
$PUCSORGRIGHT
 10
0.0
 20
0.0
 30
0.0
  9
$PUCSORGFRONT
 10
0.0
 20
0.0
 30
0.0
  9
$PUCSORGBACK
 10
0.0
 20
0.0
 30
0.0
  9
$USERI1
 70
0
  9
$USERI2
 70
0
  9
$USERI3
 70
0
  9
$USERI4
 70
0
  9
$USERI5
 70
0
  9
$USERR1
 40
0.0
  9
$USERR2
 40
0.0
  9
$USERR3
 40
0.0
  9
$USERR4
 40
0.0
  9
$USERR5
 40
0.0
  9
$WORLDVIEW
 70
1
  9
$SHADEDGE
 70
3
  9
$SHADEDIF
 70
70
  9
$TILEMODE
 70
1
  9
$MAXACTVP
 70
64
  9
$PINSBASE
 10
0.0
 20
0.0
 30
0.0
  9
$PLIMCHECK
 70
0
  9
$PEXTMIN
 10
1e+20
 20
1e+20
 30
1e+20
  9
$PEXTMAX
 10
-1e+20
 20
-1e+20
 30
-1e+20
  9
$PLIMMIN
 10
0.0
 20
0.0
  9
$PLIMMAX
 10
420.0
 20
297.0
  9
$UNITMODE
 70
0
  9
$VISRETAIN
 70
1
  9
$PLINEGEN
 70
0
  9
$PSLTSCALE
 70
1
  9
$TREEDEPTH
 70
3020
  9
$CMLSTYLE
  2
Standard
  9
$CMLJUST
 70
0
  9
$CMLSCALE
 40
20.0
  9
$PROXYGRAPHICS
 70
1
  9
$MEASUREMENT
 70
1
  9
$CELWEIGHT
370
-1
  9
$ENDCAPS
280
0
  9
$JOINSTYLE
280
0
  9
$LWDISPLAY
290
0
  9
$INSUNITS
 70
4
  9
$HYPERLINKBASE
  1

  9
$STYLESHEET
  1

  9
$XEDIT
290
1
  9
$CEPSNTYPE
380
0
  9
$PSTYLEMODE
290
1
  9
$FINGERPRINTGUID
  2
{74E45094-7C8F-4AC5-8C21-38A831CBE8BC}
  9
$VERSIONGUID
  2
{89730ABC-B4E9-4DBA-8448-CF3FEEF1465D}
  9
$EXTNAMES
290
1
  9
$PSVPSCALE
 40
0.0
  9
$OLESTARTUP
290
0
  9
$SORTENTS
280
127
  9
$INDEXCTL
280
0
  9
$HIDETEXT
280
1
  9
$XCLIPFRAME
280
1
  9
$HALOGAP
280
0
  9
$OBSCOLOR
 70
257
  9
$OBSLTYPE
280
0
  9
$INTERSECTIONDISPLAY
280
0
  9
$INTERSECTIONCOLOR
 70
257
  9
$DIMASSOC
280
2
  9
$PROJECTNAME
  1

  9
$CAMERADISPLAY
290
0
  9
$LENSLENGTH
 40
50.0
  9
$CAMERAHEIGHT
 40
0.0
  9
$STEPSPERSEC
 40
24.0
  9
$STEPSIZE
 40
100.0
  9
$3DDWFPREC
 40
2.0
  9
$PSOLWIDTH
 40
0.005
  9
$PSOLHEIGHT
 40
0.08
  9
$LOFTANG1
 40
1.570796326795
  9
$LOFTANG2
 40
1.570796326795
  9
$LOFTMAG1
 40
0.0
  9
$LOFTMAG2
 40
0.0
  9
$LOFTPARAM
 70
7
  9
$LOFTNORMALS
280
1
  9
$LATITUDE
 40
37.795
  9
$LONGITUDE
 40
-122.394
  9
$NORTHDIRECTION
 40
0.0
  9
$TIMEZONE
 70
-8000
  9
$LIGHTGLYPHDISPLAY
280
1
  9
$TILEMODELIGHTSYNCH
280
1
  9
$CMATERIAL
347
20
  9
$SOLIDHIST
280
0
  9
$SHOWHIST
280
1
  9
$DWFFRAME
280
2
  9
$DGNFRAME
280
2
  9
$REALWORLDSCALE
290
1
  9
$INTERFERECOLOR
 62
256
  9
$CSHADOW
280
0
  9
$SHADOWPLANELOCATION
 40
0.0
  0
ENDSEC
  0
SECTION
  2
CLASSES
  0
CLASS
  1
ACDBDICTIONARYWDFLT
  2
AcDbDictionaryWithDefault
  3
ObjectDBX Classes
 90
0
 91
0
280
0
281
0
  0
CLASS
  1
SUN
  2
AcDbSun
  3
SCENEOE
 90
1153
 91
0
280
0
281
0
  0
CLASS
  1
VISUALSTYLE
  2
AcDbVisualStyle
  3
ObjectDBX Classes
 90
4095
 91
0
280
0
281
0
  0
CLASS
  1
MATERIAL
  2
AcDbMaterial
  3
ObjectDBX Classes
 90
1153
 91
0
280
0
281
0
  0
CLASS
  1
SCALE
  2
AcDbScale
  3
ObjectDBX Classes
 90
1153
 91
0
280
0
281
0
  0
CLASS
  1
TABLESTYLE
  2
AcDbTableStyle
  3
ObjectDBX Classes
 90
4095
 91
0
280
0
281
0
  0
CLASS
  1
MLEADERSTYLE
  2
AcDbMLeaderStyle
  3
ACDB_MLEADERSTYLE_CLASS
 90
4095
 91
0
280
0
281
0
  0
CLASS
  1
DICTIONARYVAR
  2
AcDbDictionaryVar
  3
ObjectDBX Classes
 90
0
 91
0
280
0
281
0
  0
CLASS
  1
CELLSTYLEMAP
  2
AcDbCellStyleMap
  3
ObjectDBX Classes
 90
1152
 91
0
280
0
281
0
  0
CLASS
  1
MENTALRAYRENDERSETTINGS
  2
AcDbMentalRayRenderSettings
  3
SCENEOE
 90
1024
 91
0
280
0
281
0
  0
CLASS
  1
ACDBDETAILVIEWSTYLE
  2
AcDbDetailViewStyle
  3
ObjectDBX Classes
 90
1025
 91
0
280
0
281
0
  0
CLASS
  1
ACDBSECTIONVIEWSTYLE
  2
AcDbSectionViewStyle
  3
ObjectDBX Classes
 90
1025
 91
0
280
0
281
0
  0
CLASS
  1
RASTERVARIABLES
  2
AcDbRasterVariables
  3
ISM
 90
0
 91
0
280
0
281
0
  0
CLASS
  1
LAYOUT
  2
AcDbLayout
  3
ObjectDBX Classes
 90
0
 91
0
280
0
281
0
  0
CLASS
  1
ACDBPLACEHOLDER
  2
AcDbPlaceHolder
  3
ObjectDBX Classes
 90
0
 91
0
280
0
281
0
  0
ENDSEC
  0
SECTION
  2
TABLES
  0
TABLE
  2
VPORT
  5
8
330
0
100
AcDbSymbolTable
 70
1
  0
VPORT
  5
23
330
8
100
AcDbSymbolTableRecord
100
AcDbViewportTableRecord
  2
*Active
 70
0
 10
0.0
 20
0.0
 11
1.0
 21
1.0
 12
0.0
 22
0.0
 13
0.0
 23
0.0
 14
0.5
 24
0.5
 15
0.5
 25
0.5
 16
0.0
 26
0.0
 36
1.0
 17
0.0
 27
0.0
 37
0.0
 40
1000.0
 41
1.34
 42
50.0
 43
0.0
 44
0.0
 50
0.0
 51
0.0
 71
0
 72
1000
 73
1
 74
3
 75
0
 76
0
 77
0
 78
0
281
0
 65
0
146
0.0
  0
ENDTAB
  0
TABLE
  2
LTYPE
  5
2
330
0
100
AcDbSymbolTable
 70
3
  0
LTYPE
  5
24
330
2
100
AcDbSymbolTableRecord
100
AcDbLinetypeTableRecord
  2
ByBlock
 70
0
  3

 72
65
 73
0
 40
0.0
  0
LTYPE
  5
25
330
2
100
AcDbSymbolTableRecord
100
AcDbLinetypeTableRecord
  2
ByLayer
 70
0
  3

 72
65
 73
0
 40
0.0
  0
LTYPE
  5
26
330
2
100
AcDbSymbolTableRecord
100
AcDbLinetypeTableRecord
  2
Continuous
 70
0
  3

 72
65
 73
0
 40
0.0
  0
ENDTAB
  0
TABLE
  2
LAYER
  5
1
330
0
100
AcDbSymbolTable
 70
4
  0
LAYER
  5
27
330
1
100
AcDbSymbolTableRecord
100
AcDbLayerTableRecord
  2
0
 70
0
 62
7
  6
Continuous
370
-3
390
13
347
21
  0
LAYER
  5
28
330
1
100
AcDbSymbolTableRecord
100
AcDbLayerTableRecord
  2
Defpoints
 70
0
 62
7
  6
Continuous
290
0
370
-3
390
13
347
21
  0
LAYER
  5
2F
330
1
100
AcDbSymbolTableRecord
100
AcDbLayerTableRecord
  2
CUT
 70
0
 62
7
  6
Continuous
370
-3
390
13
347
21
  0
LAYER
  5
30
330
1
100
AcDbSymbolTableRecord
100
AcDbLayerTableRecord
  2
INFO
 70
0
 62
7
  6
Continuous
370
-3
390
13
347
21
  0
ENDTAB
  0
TABLE
  2
STYLE
  5
5
330
0
100
AcDbSymbolTable
 70
1
  0
STYLE
  5
29
330
5
100
AcDbSymbolTableRecord
100
AcDbTextStyleTableRecord
  2
Standard
 70
0
 40
0.0
 41
1.0
 50
0.0
 71
0
 42
2.5
  3
txt
  4

  0
ENDTAB
  0
TABLE
  2
VIEW
  5
7
330
0
100
AcDbSymbolTable
 70
0
  0
ENDTAB
  0
TABLE
  2
UCS
  5
6
330
0
100
AcDbSymbolTable
 70
0
  0
ENDTAB
  0
TABLE
  2
APPID
  5
3
330
0
100
AcDbSymbolTable
 70
3
  0
APPID
  5
2A
330
3
100
AcDbSymbolTableRecord
100
AcDbRegAppTableRecord
  2
ACAD
 70
0
  0
APPID
  5
34
330
3
100
AcDbSymbolTableRecord
100
AcDbRegAppTableRecord
  2
HATCHBACKGROUNDCOLOR
 70
0
  0
APPID
  5
35
330
3
100
AcDbSymbolTableRecord
100
AcDbRegAppTableRecord
  2
EZDXF
 70
0
  0
ENDTAB
  0
TABLE
  2
DIMSTYLE
  5
4
330
0
100
AcDbSymbolTable
 70
1
100
AcDbDimStyleTable
  0
DIMSTYLE
105
2B
330
4
100
AcDbSymbolTableRecord
100
AcDbDimStyleTableRecord
  2
Standard
 70
0
 40
1.0
 41
2.5
 42
0.625
 43
3.75
 44
1.25
 45
0.0
 46
0.0
 47
0.0
 48
0.0
 49
2.5
140
2.5
141
2.5
142
0.0
143
0.03937007874
144
1.0
145
0.0
146
1.0
147
0.625
148
0.0
 69
0
 70
0
 71
0
 72
0
 73
0
 74
0
 75
0
 76
0
 77
1
 78
8
 79
3
170
0
171
3
172
1
173
0
174
0
175
0
176
0
177
0
178
0
179
2
271
2
272
2
273
2
274
3
275
0
276
0
277
2
278
44
279
0
280
0
281
0
282
0
283
0
284
8
285
0
286
0
288
0
289
3
290
0
371
-2
372
-2
  0
ENDTAB
  0
TABLE
  2
BLOCK_RECORD
  5
9
330
0
100
AcDbSymbolTable
 70
2
  0
BLOCK_RECORD
  5
17
330
9
100
AcDbSymbolTableRecord
100
AcDbBlockTableRecord
  2
*Model_Space
340
1A
 70
0
280
1
281
0
  0
BLOCK_RECORD
  5
1B
330
9
100
AcDbSymbolTableRecord
100
AcDbBlockTableRecord
  2
*Paper_Space
340
1E
 70
0
280
1
281
0
  0
ENDTAB
  0
ENDSEC
  0
SECTION
  2
BLOCKS
  0
BLOCK
  5
18
330
17
100
AcDbEntity
  8
0
100
AcDbBlockBegin
  2
*Model_Space
 70
0
 10
0.0
 20
0.0
 30
0.0
  3
*Model_Space
  1

  0
ENDBLK
  5
19
330
17
100
AcDbEntity
  8
0
100
AcDbBlockEnd
  0
BLOCK
  5
1C
330
1B
100
AcDbEntity
  8
0
100
AcDbBlockBegin
  2
*Paper_Space
 70
0
 10
0.0
 20
0.0
 30
0.0
  3
*Paper_Space
  1

  0
ENDBLK
  5
1D
330
1B
100
AcDbEntity
  8
0
100
AcDbBlockEnd
  0
ENDSEC
  0
SECTION
  2
ENTITIES
  0
LWPOLYLINE
  5
31
330
17
100
AcDbEntity
  8
CUT
100
AcDbPolyline
 90
112
 70
1
 10
20.279388705407744
 20
10.980611973650854
 10
21.2344383439229
 20
10.001123692386846
 10
22.70494670622337
 20
9.175926787769091
 10
24.815406927148764
 20
8.44360499988231
 10
27.508526908141178
 20
7.668576784513073
 10
30.55111481024671
 20
6.696215754070279
 10
33.591679300870254
 20
5.409594367482077
 10
36.2539640920652
 20
3.7682695299702935
 10
38.239548048530224
 20
1.8165623215695081
 10
39.40951252356333
 20
-0.340142058457527
 10
39.82105479124775
 20
-2.5812476761290526
 10
39.70810209811018
 20
-4.82143650674454
 10
35.71484939570982
 20
-6.385815077518794
 10
30.993183670587904
 20
-7.35598395790673
 10
26.288647218827542
 20
-7.819969793908548
 10
21.64294607333466
 20
-7.783500836174421
 10
21.228980183516555
 20
-9.008764951355147
 10
21.058649118398925
 20
-10.366153780474253
 10
21.33033116657593
 20
-12.030345367907833
 10
22.073629362484287
 20
-14.136964777550102
 10
23.146820747238355
 20
-16.725752953189165
 10
24.28362080953469
 20
-19.71080114943755
 10
25.173460655280934
 20
-22.890205506072498
 10
25.550128641311154
 20
-25.995012868850573
 10
25.262213848813886
 20
-28.76427445775043
 10
24.305495384852204
 20
-31.023672704271412
 10
22.809920864355696
 20
-32.742735903019884
 10
20.988045857643517
 20
-34.05116082162199
 10
17.27521310432241
 20
-31.90448422655893
 10
13.57279410292493
 20
-28.817827715970964
 10
10.276804868774194
 20
-25.42896344452031
 10
7.408770161365284
 20
-21.774070007604536
 10
6.192716591159697
 20
-22.214358122675506
 10
5.025267588563378
 20
-22.92750602563696
 10
3.8935411990358206
 20
-24.177522087227068
 10
2.7099586678881344
 20
-26.072111735959528
 10
1.355086454569351
 20
-28.525249573957154
 10
-0.2699349563479103
 20
-31.27518276034972
 10
-2.2008873087507883
 20
-33.953213758455746
 10
-4.393474803992714
 20
-36.18352037580004
 10
-6.738082634310375
 20
-37.6850258861156
 10
-9.101055520403595
 20
-38.34574503617524
 10
-11.377548710986696
 20
-38.24827616484436
 10
-13.53643699174183
 20
-37.63966652072139
 10
-14.17301100474706
 20
-33.39842602012584
 10
-14.068186258783808
 20
-28.579259427352984
 10
-13.473681156081762
 20
-23.889428965085337
 10
-12.404360793481578
 20
-19.368320353224668
 10
-13.506788902737657
 20
-18.692086537296646
 10
-14.792242932237928
 20
-18.223978597604358
 10
-16.47516470514461
 20
-18.11853154329288
 10
-18.69436617671043
 20
-18.374426783034224
 10
-21.457055577116556
 20
-18.844651456485774
 10
-24.620224194430893
 20
-19.2887138552547
 10
-27.917922239373798
 20
-19.448759531381103
 10
-31.028702111336663
 20
-19.12509903046746
 10
-33.66446546196179
 20
-18.22818418780049
 10
-35.65432599109575
 20
-16.792689245189425
 10
-36.99749204725807
 20
-14.952084351893987
 10
-37.867706693352225
 20
-12.8847356204448
 10
-34.948668750505206
 20
-9.742671816804737
 10
-31.115535428926673
 20
-6.819925879288345
 10
-27.07821045740053
 20
-4.360667219398389
 10
-22.876755067989432
 20
-2.377830431132516
 10
-23.03540686459098
 20
-1.0942925402552692
 10
-23.47089281829794
 20
0.20257641584067443
 10
-24.437735554237047
 20
1.5840828034292773
 10
-26.021451994671718
 20
3.159576307515895
 10
-28.111597115065823
 20
5.026353568554736
 10
-30.43098245305872
 20
7.222550000904603
 10
-32.61219230191861
 20
9.701007305217834
 10
-34.29868385866922
 20
12.334911965730418
 10
-35.2408191668071
 20
14.954851991123125
 10
-35.35916177478637
 20
17.405604055858362
 10
-34.757569260643315
 20
19.603331944969447
 10
-33.68382089442379
 20
21.572664002734825
 10
-29.407266104210933
 20
21.249512978857346
 10
-24.732251779835984
 20
20.074950957015503
 10
-20.29229498946572
 20
18.451765883896194
 10
-16.12248617554144
 20
16.40321430450371
 10
-15.217893620740634
 20
17.32752605909814
 10
-14.475481693218379
 20
18.476587256351866
 10
-13.998193092030153
 20
20.093850489768787
 10
-13.75385371975841
 20
22.314353994895487
 10
-13.597532653293305
 20
25.112411837546038
 10
-13.326590245617467
 20
28.295086393212305
 10
-12.74881639363052
 20
31.545717776501885
 10
-11.741057094777391
 20
34.50648266538381
 10
-10.28011725734222
 20
36.8765795973446
 10
-8.437827546609169
 20
38.49712249322682
 10
-6.3444878955613575
 20
39.39703945217397
 10
-4.1353309372664935
 20
39.78540762970512
 10
-1.7215922825378787
 20
36.24038109036943
 10
0.27492190546617934
 20
31.85298026831512
 10
1.7741324929186248
 20
27.36964292918674
 10
2.772343645872427
 20
22.832304104255243
 10
4.059003907985256
 20
22.701364118833567
 10
5.420262392869031
 20
22.837351039136177
 10
6.982274279576707
 20
23.472538917460625
 10
8.870676933619366
 20
24.665967994250174
 10
11.155751235526818
 20
26.288311793018238
 10
13.812996229673589
 20
28.06084561685478
 10
16.71467828752248
 20
29.635859346707555
 10
19.657825135399612
 20
30.693968114033524
 10
22.421722623077386
 20
31.029490621629247
 10
24.837362924479343
 20
30.599522495008408
 10
26.84612225884594
 20
29.52397269874386
 10
28.527147561030638
 20
28.038927837092757
 10
27.260475641968817
 20
23.941503071781536
 10
25.07507378856745
 20
19.64506575518839
 10
22.50460202242767
 20
15.677620609829656
 10
19.579542156440077
 20
12.068203219377185
  0
LWPOLYLINE
  5
32
330
17
100
AcDbEntity
  8
CUT
100
AcDbPolyline
 90
937
 70
1
 10
12.499058772989306
 20
0.15339422857150717
 10
12.497882272447793
 20
0.23008412382256532
 10
12.496235233702553
 20
0.3067653565364056
 10
12.494117718763665
 20
0.3834350397079568
 10
12.491529807354368
 20
0.46009028676699243
 10
12.488471596908067
 20
0.5367282116867642
 10
12.484943202564654
 20
0.6133459290927261
 10
12.480944757166185
 20
0.6899405543711222
 10
12.476476411251864
 20
0.7665092037776132
 10
12.471538333052395
 20
0.8430489945458036
 10
12.466130708483627
 20
0.9195570449958427
 10
12.46025374113957
 20
0.9960304746428844
 10
12.453907652284725
 20
1.0724664043055034
 10
12.447092680845747
 20
1.1488619562141609
 10
12.439809083402462
 20
1.2252142541195064
 10
12.432057134178192
 20
1.3015204234006892
 10
12.42383712502945
 20
1.3777775911735421
 10
12.415149365434932
 20
1.4539828863988105
 10
12.405994182483875
 20
1.5301334399902005
 10
12.396371920863743
 20
1.6062263849224205
 10
12.38628294284725
 20
1.6822588563390801
 10
12.375727628278714
 20
1.7582279916606152
 10
12.364706374559761
 20
1.83413093069203
 10
12.353219596634368
 20
1.9099648157305475
 10
12.341267726973228
 20
1.9857267916732697
 10
12.328851215557483
 20
2.0614140061246227
 10
12.315970529861763
 20
2.137023609503772
 10
12.302626154836613
 20
2.2125527551518633
 10
12.288818592890204
 20
2.2879985994392626
 10
12.274548363869442
 20
2.3633583018725752
 10
12.25981600504038
 20
2.438629025201609
 10
12.244622071068006
 20
2.5138079355261516
 10
12.228967133995345
 20
2.5888922024027314
 10
12.212851783221927
 20
2.6638789989511498
 10
12.196276625481605
 20
2.738765501960877
 10
12.179242284819699
 20
2.8135488919974123
 10
12.161749402569502
 20
2.8882263535083874
 10
12.143798637328146
 20
2.9627950749295966
 10
12.1253906649318
 20
3.0372522487908022
 10
12.106526178430215
 20
3.1115950718215024
 10
12.087205888060652
 20
3.18582074505643
 10
12.067430521221116
 20
3.2599264739409497
 10
12.047200822442997
 20
3.3339094684362323
 10
12.02651755336302
 20
3.4077669431243622
 10
12.005381492694571
 20
3.4814961173131707
 10
11.983793436198393
 20
3.555094215140903
 10
11.96175419665261
 20
3.628558465680781
 10
11.939264603822135
 20
3.7018861030452967
 10
11.916325504427421
 20
3.775074366490357
 10
11.892937762112604
 20
3.8481205005191894
 10
11.869102257412958
 20
3.921021754986144
 10
11.844819887721766
 20
3.9937753852001934
 10
11.820091567256515
 20
4.066378652028292
 10
11.794918227024503
 20
4.138828821998457
 10
11.76930081478776
 20
4.21112316740275
 10
11.743240295027372
 20
4.283258966399937
 10
11.716737648907186
 20
4.355233503117936
 10
11.689793874236845
 20
4.427044067756132
 10
11.662409985434238
 20
4.49868795668735
 10
11.634587013487293
 20
4.570162472559679
 10
11.606326005915193
 20
4.641464924397972
 10
11.577628026728892
 20
4.712592627705228
 10
11.548494156391081
 20
4.78354290456363
 10
11.518925491775523
 20
4.854313083735334
 10
11.488923146125721
 20
4.924900500763103
 10
11.458488249013033
 20
4.9953024980705845
 10
11.427621946294131
 20
5.0655164250623805
 10
11.396325400067871
 20
5.135539638223803
 10
11.36459978863153
 20
5.205369501220466
 10
11.332446306436443
 20
5.275003384997494
 10
11.299866164043038
 20
5.344438667878531
 10
11.266860588075273
 20
5.413672735664402
 10
11.233430821174423
 20
5.482702981731595
 10
11.19957812195231
 20
5.551526807130372
 10
11.165303764943939
 20
5.620141620682587
 10
11.130609040559472
 20
5.6885448390793
 10
11.095495255035674
 20
5.756733886977999
 10
11.059963730386718
 20
5.824706197099584
 10
11.024015804354436
 20
5.892459210324974
 10
10.987652830357918
 20
5.959990375791527
 10
10.950876177442584
 20
6.027297150989033
 10
10.913687230228623
 20
6.094377001855455
 10
10.876087388858892
 20
6.161227402872303
 10
10.838078068946158
 20
6.227845837159773
 10
10.79966070151983
 20
6.294229796571477
 10
10.760836732972088
 20
6.360376781788843
 10
10.7216076250034
 20
6.426284302415273
 10
10.681974854567507
 20
6.491949877069869
 10
10.641939913815811
 20
6.557371033480868
 10
10.601504310041214
 20
6.622545308578687
 10
10.560669565621337
 20
6.687470248588716
 10
10.519437217961231
 20
6.75214340912366
 10
10.477808819435472
 20
6.816562355275585
 10
10.435785937329749
 20
6.880724661707563
 10
10.393370153781815
 20
6.944627912745027
 10
10.350563065721943
 20
7.008269702466707
 10
10.307366284812813
 20
7.07164763479517
 10
10.263781437388806
 20
7.134759323587092
 10
10.219810164394797
 20
7.1976023927230655
 10
10.175454121324352
 20
7.260174476197062
 10
10.130714978157433
 20
7.322473218205489
 10
10.08559441929749
 20
7.3844962732359285
 10
10.040094143508064
 20
7.446241306155415
 10
9.99421586384881
 20
7.507705992298367
 10
9.947961307611042
 20
7.5688880175540705
 10
9.901332216252655
 20
7.629785078453868
 10
9.854330345332574
 20
7.690394882257842
 10
9.806957464444688
 20
7.750715147041119
 10
9.759215357151179
 20
7.810743601779831
 10
9.711105820915407
 20
7.870477986436588
 10
9.662630667034207
 20
7.9299160520455745
 10
9.613791720569743
 20
7.989055560797199
 10
9.564590820280735
 20
8.047894286122395
 10
9.515029818553273
 20
8.106430012776404
 10
9.465110581331054
 20
8.164660536922213
 10
9.414834988045154
 20
8.222583666213486
 10
9.364204931543242
 20
8.280197219877147
 10
9.313222318018319
 20
8.337499028795476
 10
9.261889066936986
 20
8.394486935587734
 10
9.210207110967122
 20
8.45115879469145
 10
9.158178395905162
 20
8.507512472443162
 10
9.105804880602811
 20
8.56354584715876
 10
9.053088536893334
 20
8.61925680921334
 10
9.00003134951727
 20
8.674643261120675
 10
8.946635316047736
 20
8.729703117612159
 10
8.892902446815201
 20
8.78443430571532
 10
8.838834764831843
 20
8.838834764831846
 10
8.784434305715315
 20
8.892902446815205
 10
8.729703117612155
 20
8.946635316047738
 10
8.674643261120671
 20
9.000031349517274
 10
8.619256809213335
 20
9.053088536893338
 10
8.563545847158755
 20
9.105804880602813
 10
8.507512472443159
 20
9.158178395905164
 10
8.451158794691446
 20
9.210207110967126
 10
8.394486935587729
 20
9.26188906693699
 10
8.337499028795472
 20
9.313222318018322
 10
8.280197219877143
 20
9.364204931543245
 10
8.222583666213481
 20
9.414834988045158
 10
8.16466053692221
 20
9.465110581331057
 10
8.1064300127764
 20
9.515029818553277
 10
8.04789428612239
 20
9.56459082028074
 10
7.989055560797195
 20
9.613791720569747
 10
7.92991605204557
 20
9.662630667034211
 10
7.870477986436583
 20
9.71110582091541
 10
7.810743601779826
 20
9.759215357151183
 10
7.750715147041114
 20
9.806957464444691
 10
7.690394882257838
 20
9.854330345332576
 10
7.629785078453864
 20
9.901332216252658
 10
7.568888017554067
 20
9.947961307611045
 10
7.507705992298362
 20
9.994215863848813
 10
7.446241306155412
 20
10.040094143508066
 10
7.384496273235924
 20
10.085594419297493
 10
7.322473218205484
 20
10.130714978157435
 10
7.260174476197058
 20
10.175454121324353
 10
7.197602392723061
 20
10.2198101643948
 10
7.134759323587088
 20
10.263781437388811
 10
7.0716476347951644
 20
10.307366284812817
 10
7.008269702466703
 20
10.350563065721946
 10
6.944627912745023
 20
10.393370153781818
 10
6.880724661707559
 20
10.43578593732975
 10
6.816562355275581
 20
10.477808819435474
 10
6.752143409123655
 20
10.519437217961235
 10
6.687470248588712
 20
10.56066956562134
 10
6.622545308578682
 20
10.601504310041216
 10
6.557371033480863
 20
10.641939913815813
 10
6.491949877069865
 20
10.681974854567509
 10
6.42628430241527
 20
10.721607625003402
 10
6.360376781788838
 20
10.760836732972091
 10
6.294229796571472
 20
10.799660701519832
 10
6.2278458371597685
 20
10.83807806894616
 10
6.161227402872298
 20
10.876087388858894
 10
6.09437700185545
 20
10.913687230228627
 10
6.027297150989027
 20
10.950876177442586
 10
5.959990375791524
 20
10.98765283035792
 10
5.8924592103249696
 20
11.024015804354438
 10
5.824706197099578
 20
11.059963730386722
 10
5.756733886977995
 20
11.095495255035678
 10
5.688544839079295
 20
11.130609040559476
 10
5.620141620682582
 20
11.16530376494394
 10
5.551526807130368
 20
11.199578121952312
 10
5.482702981731591
 20
11.233430821174425
 10
5.413672735664397
 20
11.266860588075277
 10
5.344438667878527
 20
11.299866164043042
 10
5.27500338499749
 20
11.332446306436445
 10
5.205369501220461
 20
11.364599788631532
 10
5.135539638223798
 20
11.396325400067873
 10
5.065516425062375
 20
11.427621946294133
 10
4.99530249807058
 20
11.458488249013035
 10
4.924900500763099
 20
11.488923146125723
 10
4.854313083735329
 20
11.518925491775525
 10
4.783542904563625
 20
11.548494156391083
 10
4.712592627705224
 20
11.577628026728894
 10
4.641464924397967
 20
11.606326005915195
 10
4.570162472559675
 20
11.634587013487296
 10
4.498687956687345
 20
11.662409985434238
 10
4.427044067756126
 20
11.689793874236846
 10
4.3552335031179314
 20
11.716737648907188
 10
4.283258966399932
 20
11.743240295027373
 10
4.211123167402745
 20
11.769300814787762
 10
4.138828821998453
 20
11.794918227024505
 10
4.066378652028287
 20
11.820091567256515
 10
3.9937753852001885
 20
11.844819887721766
 10
3.921021754986139
 20
11.86910225741296
 10
3.8481205005191845
 20
11.892937762112606
 10
3.775074366490352
 20
11.916325504427423
 10
3.701886103045291
 20
11.939264603822137
 10
3.6285584656807757
 20
11.961754196652612
 10
3.555094215140897
 20
11.983793436198395
 10
3.499842726043995
 20
12.0
 10
4.0
 20
12.0
 10
4.0
 20
15.8
 10
-4.0
 20
15.8
 10
-4.0
 20
12.0
 10
-3.499842726043993
 20
12.0
 10
-3.555094215140902
 20
11.983793436198393
 10
-3.6285584656807806
 20
11.96175419665261
 10
-3.701886103045296
 20
11.939264603822135
 10
-3.7750743664903568
 20
11.916325504427421
 10
-3.8481205005191885
 20
11.892937762112604
 10
-3.9210217549861435
 20
11.869102257412958
 10
-3.9937753852001925
 20
11.844819887721766
 10
-4.066378652028291
 20
11.820091567256515
 10
-4.138828821998457
 20
11.794918227024503
 10
-4.211123167402749
 20
11.76930081478776
 10
-4.283258966399936
 20
11.743240295027372
 10
-4.355233503117936
 20
11.716737648907186
 10
-4.427044067756131
 20
11.689793874236845
 10
-4.498687956687349
 20
11.662409985434238
 10
-4.570162472559678
 20
11.634587013487295
 10
-4.641464924397972
 20
11.606326005915193
 10
-4.712592627705227
 20
11.577628026728892
 10
-4.783542904563629
 20
11.548494156391081
 10
-4.854313083735333
 20
11.518925491775523
 10
-4.924900500763103
 20
11.488923146125721
 10
-4.9953024980705845
 20
11.458488249013033
 10
-5.06551642506238
 20
11.427621946294131
 10
-5.135539638223802
 20
11.396325400067871
 10
-5.205369501220465
 20
11.36459978863153
 10
-5.275003384997494
 20
11.332446306436443
 10
-5.3444386678785305
 20
11.299866164043038
 10
-5.413672735664401
 20
11.266860588075273
 10
-5.482702981731595
 20
11.233430821174423
 10
-5.551526807130372
 20
11.19957812195231
 10
-5.6201416206825865
 20
11.16530376494394
 10
-5.6885448390793
 20
11.130609040559474
 10
-5.756733886977998
 20
11.095495255035676
 10
-5.824706197099583
 20
11.05996373038672
 10
-5.892459210324973
 20
11.024015804354438
 10
-5.959990375791527
 20
10.987652830357918
 10
-6.027297150989032
 20
10.950876177442584
 10
-6.094377001855454
 20
10.913687230228623
 10
-6.161227402872303
 20
10.876087388858892
 10
-6.227845837159773
 20
10.838078068946158
 10
-6.294229796571475
 20
10.79966070151983
 10
-6.360376781788841
 20
10.760836732972088
 10
-6.426284302415272
 20
10.7216076250034
 10
-6.491949877069867
 20
10.681974854567509
 10
-6.557371033480868
 20
10.641939913815811
 10
-6.622545308578687
 20
10.601504310041214
 10
-6.687470248588716
 20
10.560669565621337
 10
-6.75214340912366
 20
10.519437217961231
 10
-6.816562355275585
 20
10.477808819435474
 10
-6.8807246617075615
 20
10.43578593732975
 10
-6.944627912745027
 20
10.393370153781815
 10
-7.0082697024667056
 20
10.350563065721943
 10
-7.071647634795168
 20
10.307366284812813
 10
-7.134759323587092
 20
10.263781437388808
 10
-7.1976023927230655
 20
10.219810164394797
 10
-7.260174476197062
 20
10.175454121324352
 10
-7.322473218205489
 20
10.130714978157433
 10
-7.3844962732359285
 20
10.08559441929749
 10
-7.4462413061554145
 20
10.040094143508064
 10
-7.507705992298367
 20
9.99421586384881
 10
-7.5688880175540705
 20
9.947961307611044
 10
-7.629785078453867
 20
9.901332216252655
 10
-7.6903948822578405
 20
9.854330345332574
 10
-7.7507151470411175
 20
9.806957464444688
 10
-7.810743601779831
 20
9.759215357151179
 10
-7.870477986436586
 20
9.711105820915407
 10
-7.9299160520455745
 20
9.662630667034207
 10
-7.989055560797199
 20
9.613791720569743
 10
-8.047894286122395
 20
9.564590820280737
 10
-8.106430012776404
 20
9.515029818553275
 10
-8.164660536922213
 20
9.465110581331054
 10
-8.222583666213485
 20
9.414834988045156
 10
-8.28019721987715
 20
9.364204931543238
 10
-8.33749902879547
 20
9.313222318018322
 10
-8.394486935587734
 20
9.261889066936986
 10
-8.45115879469145
 20
9.210207110967122
 10
-8.507512472443166
 20
9.158178395905157
 10
-8.563545847158755
 20
9.105804880602815
 10
-8.619256809213338
 20
9.053088536893334
 10
-8.674643261120675
 20
9.00003134951727
 10
-8.729703117612162
 20
8.94663531604773
 10
-8.784434305715315
 20
8.892902446815205
 10
-8.838834764831846
 20
8.838834764831843
 10
-8.892902446815208
 20
8.784434305715314
 10
-8.946635316047734
 20
8.72970311761216
 10
-9.000031349517274
 20
8.674643261120671
 10
-9.053088536893338
 20
8.619256809213335
 10
-9.105804880602818
 20
8.563545847158752
 10
-9.15817839590516
 20
8.507512472443162
 10
-9.210207110967126
 20
8.451158794691448
 10
-9.26188906693699
 20
8.39448693558773
 10
-9.313222318018326
 20
8.337499028795467
 10
-9.364204931543242
 20
8.280197219877147
 10
-9.414834988045158
 20
8.222583666213481
 10
-9.46511058133106
 20
8.164660536922206
 10
-9.515029818553273
 20
8.106430012776404
 10
-9.564590820280738
 20
8.047894286122391
 10
-9.613791720569747
 20
7.989055560797197
 10
-9.662630667034215
 20
7.929916052045566
 10
-9.711105820915405
 20
7.870477986436588
 10
-9.759215357151183
 20
7.810743601779828
 10
-9.806957464444691
 20
7.750715147041115
 10
-9.85433034533258
 20
7.690394882257834
 10
-9.901332216252653
 20
7.629785078453868
 10
-9.947961307611045
 20
7.568888017554068
 10
-9.994215863848815
 20
7.507705992298358
 10
-10.040094143508062
 20
7.446241306155415
 10
-10.085594419297493
 20
7.384496273235924
 10
-10.130714978157435
 20
7.322473218205486
 10
-10.175454121324357
 20
7.2601744761970535
 10
-10.219810164394797
 20
7.197602392723066
 10
-10.26378143738881
 20
7.134759323587089
 10
-10.307366284812817
 20
7.071647634795165
 10
-10.350563065721948
 20
7.008269702466699
 10
-10.393370153781818
 20
6.944627912745024
 10
-10.43578593732975
 20
6.880724661707559
 10
-10.477808819435477
 20
6.816562355275576
 10
-10.519437217961231
 20
6.7521434091236605
 10
-10.56066956562134
 20
6.687470248588712
 10
-10.601504310041216
 20
6.622545308578682
 10
-10.641939913815817
 20
6.557371033480859
 10
-10.681974854567507
 20
6.491949877069871
 10
-10.7216076250034
 20
6.42628430241527
 10
-10.760836732972091
 20
6.360376781788839
 10
-10.799660701519835
 20
6.294229796571468
 10
-10.83807806894616
 20
6.227845837159769
 10
-10.876087388858894
 20
6.161227402872299
 10
-10.913687230228627
 20
6.094377001855446
 10
-10.950876177442582
 20
6.027297150989034
 10
-10.98765283035792
 20
5.959990375791524
 10
-11.024015804354438
 20
5.89245921032497
 10
-11.059963730386723
 20
5.824706197099575
 10
-11.095495255035674
 20
5.756733886978001
 10
-11.130609040559476
 20
5.688544839079296
 10
-11.16530376494394
 20
5.620141620682583
 10
-11.199578121952316
 20
5.551526807130363
 10
-11.233430821174425
 20
5.482702981731592
 10
-11.266860588075275
 20
5.413672735664398
 10
-11.299866164043044
 20
5.3444386678785225
 10
-11.332446306436443
 20
5.275003384997495
 10
-11.364599788631532
 20
5.205369501220462
 10
-11.396325400067873
 20
5.135539638223799
 10
-11.427621946294133
 20
5.065516425062371
 10
-11.458488249013033
 20
4.995302498070585
 10
-11.488923146125723
 20
4.9249005007630995
 10
-11.518925491775525
 20
4.854313083735329
 10
-11.548494156391085
 20
4.783542904563621
 10
-11.577628026728894
 20
4.712592627705224
 10
-11.606326005915195
 20
4.641464924397968
 10
-11.634587013487298
 20
4.5701624725596695
 10
-11.662409985434238
 20
4.498687956687351
 10
-11.689793874236846
 20
4.4270440677561265
 10
-11.716737648907188
 20
4.355233503117932
 10
-11.743240295027375
 20
4.283258966399927
 10
-11.76930081478776
 20
4.211123167402751
 10
-11.794918227024505
 20
4.1388288219984535
 10
-11.820091567256515
 20
4.066378652028288
 10
-11.844819887721766
 20
3.9937753852001947
 10
-11.86910225741296
 20
3.92102175498614
 10
-11.892937762112606
 20
3.848120500519185
 10
-11.916325504427425
 20
3.7750743664903474
 10
-11.939264603822135
 20
3.701886103045297
 10
-11.961754196652612
 20
3.6285584656807766
 10
-11.983793436198395
 20
3.555094215140898
 10
-12.005381492694573
 20
3.4814961173131613
 10
-12.02651755336302
 20
3.407766943124363
 10
-12.047200822443
 20
3.3339094684362283
 10
-12.067430521221118
 20
3.2599264739409453
 10
-12.087205888060652
 20
3.185820745056431
 10
-12.106526178430217
 20
3.1115950718214984
 10
-12.1253906649318
 20
3.037252248790798
 10
-12.143798637328148
 20
2.962795074929587
 10
-12.161749402569502
 20
2.8882263535083883
 10
-12.179242284819699
 20
2.8135488919974074
 10
-12.196276625481607
 20
2.7387655019608723
 10
-12.21285178322193
 20
2.66387899895114
 10
-12.228967133995345
 20
2.5888922024027323
 10
-12.244622071068006
 20
2.513807935526147
 10
-12.259816005040381
 20
2.4386290252016045
 10
-12.27454836386944
 20
2.3633583018725766
 10
-12.288818592890205
 20
2.287998599439258
 10
-12.302626154836615
 20
2.212552755151859
 10
-12.315970529861767
 20
2.1370236095037622
 10
-12.328851215557483
 20
2.0614140061246236
 10
-12.34126772697323
 20
1.9857267916732653
 10
-12.353219596634368
 20
1.9099648157305429
 10
-12.364706374559763
 20
1.8341309306920197
 10
-12.375727628278714
 20
1.7582279916606163
 10
-12.38628294284725
 20
1.6822588563390757
 10
-12.396371920863745
 20
1.6062263849224105
 10
-12.405994182483875
 20
1.5301334399902011
 10
-12.415149365434933
 20
1.453982886398806
 10
-12.42383712502945
 20
1.3777775911735375
 10
-12.432057134178194
 20
1.301520423400679
 10
-12.439809083402462
 20
1.2252142541195075
 10
-12.447092680845747
 20
1.1488619562141564
 10
-12.453907652284725
 20
1.072466404305499
 10
-12.460253741139573
 20
0.9960304746428743
 10
-12.466130708483627
 20
0.9195570449958437
 10
-12.471538333052395
 20
0.8430489945457991
 10
-12.476476411251864
 20
0.7665092037776031
 10
-12.480944757166185
 20
0.6899405543711231
 10
-12.484943202564654
 20
0.6133459290927216
 10
-12.488471596908067
 20
0.5367282116867598
 10
-12.49152980735437
 20
0.46009028676698227
 10
-12.494117718763665
 20
0.3834350397079577
 10
-12.496235233702553
 20
0.306765356536401
 10
-12.497882272447793
 20
0.23008412382256072
 10
-12.499058772989306
 20
0.15339422857149704
 10
-12.499764691032514
 20
0.07669855811443192
 10
-12.5
 20
0.0
 10
-12.499764691032514
 20
-0.07669855811443499
 10
-12.499058772989306
 20
-0.1533942285715001
 10
-12.497882272447793
 20
-0.23008412382256377
 10
-12.496235233702553
 20
-0.3067653565364041
 10
-12.494117718763665
 20
-0.38343503970796083
 10
-12.49152980735437
 20
-0.4600902867669854
 10
-12.488471596908067
 20
-0.5367282116867628
 10
-12.484943202564654
 20
-0.6133459290927246
 10
-12.480944757166185
 20
-0.6899405543711262
 10
-12.476476411251864
 20
-0.7665092037776061
 10
-12.471538333052395
 20
-0.8430489945458022
 10
-12.466130708483627
 20
-0.9195570449958467
 10
-12.46025374113957
 20
-0.9960304746428774
 10
-12.453907652284725
 20
-1.0724664043055019
 10
-12.447092680845747
 20
-1.1488619562141593
 10
-12.43980908340246
 20
-1.2252142541195103
 10
-12.432057134178192
 20
-1.301520423400682
 10
-12.42383712502945
 20
-1.3777775911735406
 10
-12.415149365434932
 20
-1.453982886398809
 10
-12.405994182483875
 20
-1.5301334399902045
 10
-12.396371920863745
 20
-1.6062263849224137
 10
-12.38628294284725
 20
-1.6822588563390786
 10
-12.375727628278712
 20
-1.7582279916606194
 10
-12.364706374559763
 20
-1.8341309306920226
 10
-12.353219596634368
 20
-1.909964815730546
 10
-12.34126772697323
 20
-1.9857267916732684
 10
-12.328851215557481
 20
-2.0614140061246267
 10
-12.315970529861765
 20
-2.1370236095037654
 10
-12.302626154836613
 20
-2.212552755151862
 10
-12.288818592890204
 20
-2.2879985994392613
 10
-12.27454836386944
 20
-2.3633583018725797
 10
-12.259816005040381
 20
-2.4386290252016076
 10
-12.244622071068006
 20
-2.5138079355261502
 10
-12.228967133995344
 20
-2.5888922024027354
 10
-12.21285178322193
 20
-2.6638789989511427
 10
-12.196276625481605
 20
-2.7387655019608754
 10
-12.179242284819699
 20
-2.8135488919974105
 10
-12.161749402569502
 20
-2.888226353508392
 10
-12.143798637328148
 20
-2.9627950749295895
 10
-12.1253906649318
 20
-3.037252248790801
 10
-12.106526178430217
 20
-3.111595071821501
 10
-12.087205888060652
 20
-3.1858207450564335
 10
-12.067430521221116
 20
-3.259926473940948
 10
-12.047200822442997
 20
-3.333909468436231
 10
-12.026517553363018
 20
-3.407766943124366
 10
-12.005381492694573
 20
-3.4814961173131644
 10
-11.983793436198393
 20
-3.555094215140901
 10
-11.96175419665261
 20
-3.6285584656807797
 10
-11.939264603822133
 20
-3.7018861030453003
 10
-11.916325504427423
 20
-3.7750743664903506
 10
-11.892937762112604
 20
-3.848120500519188
 10
-11.869102257412958
 20
-3.9210217549861426
 10
-11.844819887721764
 20
-3.9937753852001974
 10
-11.820091567256515
 20
-4.066378652028291
 10
-11.794918227024505
 20
-4.138828821998456
 10
-11.769300814787758
 20
-4.2111231674027545
 10
-11.743240295027373
 20
-4.283258966399931
 10
-11.716737648907186
 20
-4.355233503117935
 10
-11.689793874236845
 20
-4.42704406775613
 10
-11.662409985434236
 20
-4.4986879566873545
 10
-11.634587013487296
 20
-4.570162472559672
 10
-11.606326005915193
 20
-4.6414649243979715
 10
-11.577628026728892
 20
-4.712592627705227
 10
-11.548494156391085
 20
-4.783542904563624
 10
-11.518925491775523
 20
-4.854313083735332
 10
-11.488923146125723
 20
-4.924900500763102
 10
-11.458488249013033
 20
-4.995302498070588
 10
-11.427621946294133
 20
-5.065516425062374
 10
-11.396325400067871
 20
-5.135539638223801
 10
-11.36459978863153
 20
-5.205369501220464
 10
-11.332446306436442
 20
-5.275003384997498
 10
-11.299866164043042
 20
-5.344438667878525
 10
-11.266860588075273
 20
-5.4136727356644005
 10
-11.233430821174425
 20
-5.482702981731594
 10
-11.199578121952314
 20
-5.551526807130366
 10
-11.16530376494394
 20
-5.620141620682586
 10
-11.130609040559474
 20
-5.688544839079299
 10
-11.095495255035672
 20
-5.756733886978003
 10
-11.059963730386722
 20
-5.8247061970995775
 10
-11.024015804354438
 20
-5.892459210324973
 10
-10.98765283035792
 20
-5.959990375791526
 10
-10.95087617744258
 20
-6.027297150989036
 10
-10.913687230228627
 20
-6.094377001855449
 10
-10.876087388858892
 20
-6.161227402872302
 10
-10.83807806894616
 20
-6.227845837159772
 10
-10.799660701519834
 20
-6.2942297965714715
 10
-10.760836732972088
 20
-6.360376781788841
 10
-10.7216076250034
 20
-6.426284302415272
 10
-10.681974854567505
 20
-6.491949877069872
 10
-10.641939913815815
 20
-6.5573710334808615
 10
-10.601504310041214
 20
-6.622545308578685
 10
-10.560669565621339
 20
-6.687470248588714
 10
-10.51943721796123
 20
-6.752143409123662
 10
-10.477808819435475
 20
-6.816562355275579
 10
-10.43578593732975
 20
-6.8807246617075615
 10
-10.393370153781817
 20
-6.944627912745027
 10
-10.350563065721946
 20
-7.008269702466702
 10
-10.307366284812813
 20
-7.071647634795168
 10
-10.263781437388808
 20
-7.13475932358709
 10
-10.219810164394795
 20
-7.197602392723068
 10
-10.175454121324355
 20
-7.260174476197056
 10
-10.130714978157433
 20
-7.322473218205487
 10
-10.085594419297491
 20
-7.384496273235927
 10
-10.04009414350806
 20
-7.446241306155418
 10
-9.994215863848813
 20
-7.50770599229836
 10
-9.947961307611044
 20
-7.5688880175540705
 10
-9.901332216252651
 20
-7.629785078453871
 10
-9.854330345332578
 20
-7.690394882257837
 10
-9.806957464444688
 20
-7.7507151470411175
 10
-9.75921535715118
 20
-7.810743601779829
 10
-9.711105820915405
 20
-7.87047798643659
 10
-9.662630667034213
 20
-7.929916052045568
 10
-9.613791720569743
 20
-7.989055560797198
 10
-9.564590820280737
 20
-8.047894286122393
 10
-9.515029818553272
 20
-8.106430012776407
 10
-9.465110581331057
 20
-8.164660536922208
 10
-9.414834988045156
 20
-8.222583666213485
 10
-9.36420493154324
 20
-8.28019721987715
 10
-9.313222318018324
 20
-8.33749902879547
 10
-9.261889066936986
 20
-8.394486935587732
 10
-9.210207110967124
 20
-8.451158794691448
 10
-9.158178395905159
 20
-8.507512472443166
 10
-9.105804880602815
 20
-8.563545847158755
 10
-9.053088536893334
 20
-8.619256809213338
 10
-9.00003134951727
 20
-8.674643261120675
 10
-8.946635316047733
 20
-8.72970311761216
 10
-8.892902446815206
 20
-8.784434305715315
 10
-8.838834764831843
 20
-8.838834764831844
 10
-8.784434305715314
 20
-8.892902446815208
 10
-8.72970311761216
 20
-8.946635316047734
 10
-8.674643261120671
 20
-9.000031349517272
 10
-8.619256809213336
 20
-9.053088536893336
 10
-8.563545847158753
 20
-9.105804880602816
 10
-8.507512472443162
 20
-9.15817839590516
 10
-8.451158794691448
 20
-9.210207110967126
 10
-8.39448693558773
 20
-9.261889066936988
 10
-8.337499028795467
 20
-9.313222318018326
 10
-8.280197219877149
 20
-9.364204931543242
 10
-8.222583666213483
 20
-9.414834988045156
 10
-8.164660536922206
 20
-9.465110581331059
 10
-8.106430012776405
 20
-9.515029818553273
 10
-8.047894286122391
 20
-9.564590820280738
 10
-7.989055560797197
 20
-9.613791720569745
 10
-7.929916052045567
 20
-9.662630667034215
 10
-7.870477986436589
 20
-9.711105820915405
 10
-7.810743601779828
 20
-9.759215357151183
 10
-7.750715147041115
 20
-9.80695746444469
 10
-7.690394882257834
 20
-9.85433034533258
 10
-7.62978507845387
 20
-9.901332216252653
 10
-7.568888017554068
 20
-9.947961307611045
 10
-7.5077059922983596
 20
-9.994215863848815
 10
-7.446241306155417
 20
-10.040094143508062
 10
-7.384496273235926
 20
-10.085594419297493
 10
-7.322473218205486
 20
-10.130714978157435
 10
-7.260174476197055
 20
-10.175454121324357
 10
-7.197602392723066
 20
-10.219810164394797
 10
-7.134759323587089
 20
-10.26378143738881
 10
-7.071647634795165
 20
-10.307366284812815
 10
-7.008269702466699
 20
-10.350563065721948
 10
-6.944627912745024
 20
-10.393370153781818
 10
-6.880724661707559
 20
-10.43578593732975
 10
-6.816562355275578
 20
-10.477808819435477
 10
-6.7521434091236605
 20
-10.519437217961231
 10
-6.687470248588713
 20
-10.56066956562134
 10
-6.622545308578684
 20
-10.601504310041216
 10
-6.557371033480859
 20
-10.641939913815815
 10
-6.491949877069871
 20
-10.681974854567507
 10
-6.4262843024152705
 20
-10.7216076250034
 10
-6.360376781788839
 20
-10.76083673297209
 10
-6.294229796571468
 20
-10.799660701519835
 10
-6.22784583715977
 20
-10.83807806894616
 10
-6.1612274028723
 20
-10.876087388858894
 10
-6.094377001855446
 20
-10.913687230228627
 10
-6.027297150989034
 20
-10.950876177442582
 10
-5.959990375791524
 20
-10.98765283035792
 10
-5.892459210324971
 20
-11.024015804354438
 10
-5.824706197099575
 20
-11.059963730386723
 10
-5.756733886978001
 20
-11.095495255035674
 10
-5.688544839079297
 20
-11.130609040559476
 10
-5.620141620682584
 20
-11.16530376494394
 10
-5.551526807130364
 20
-11.199578121952316
 10
-5.482702981731593
 20
-11.233430821174425
 10
-5.413672735664399
 20
-11.266860588075275
 10
-5.344438667878523
 20
-11.299866164043044
 10
-5.275003384997496
 20
-11.332446306436442
 10
-5.205369501220463
 20
-11.364599788631532
 10
-5.135539638223798
 20
-11.396325400067873
 10
-5.065516425062372
 20
-11.427621946294133
 10
-4.995302498070584
 20
-11.458488249013033
 10
-4.9249005007630995
 20
-11.488923146125723
 10
-4.854313083735327
 20
-11.518925491775525
 10
-4.783542904563622
 20
-11.548494156391085
 10
-4.712592627705227
 20
-11.577628026728892
 10
-4.641464924397969
 20
-11.606326005915195
 10
-4.570162472559673
 20
-11.634587013487296
 10
-4.498687956687352
 20
-11.662409985434236
 10
-4.42704406775613
 20
-11.689793874236845
 10
-4.35523350311793
 20
-11.716737648907188
 10
-4.283258966399928
 20
-11.743240295027373
 10
-4.211123167402749
 20
-11.76930081478776
 10
-4.138828821998454
 20
-11.794918227024505
 10
-4.066378652028286
 20
-11.820091567256517
 10
-3.9937753852001956
 20
-11.844819887721766
 10
-3.9210217549861426
 20
-11.869102257412958
 10
-3.848120500519186
 20
-11.892937762112604
 10
-3.775074366490351
 20
-11.916325504427423
 10
-3.701886103045298
 20
-11.939264603822133
 10
-3.628558465680777
 20
-11.961754196652612
 10
-3.555094215140896
 20
-11.983793436198395
 10
-3.4814961173131618
 20
-12.005381492694573
 10
-3.407766943124361
 20
-12.02651755336302
 10
-3.3339094684362287
 20
-12.047200822442997
 10
-3.259926473940943
 20
-12.067430521221118
 10
-3.1858207450564313
 20
-12.087205888060652
 10
-3.1115950718215015
 20
-12.106526178430217
 10
-3.0372522487907982
 20
-12.1253906649318
 10
-2.9627950749295904
 20
-12.143798637328148
 10
-2.888226353508389
 20
-12.161749402569502
 10
-2.8135488919974083
 20
-12.179242284819699
 10
-2.7387655019608705
 20
-12.196276625481607
 10
-2.6638789989511404
 20
-12.21285178322193
 10
-2.5888922024027305
 20
-12.228967133995345
 10
-2.5138079355261476
 20
-12.244622071068006
 10
-2.4386290252016023
 20
-12.259816005040381
 10
-2.363358301872577
 20
-12.27454836386944
 10
-2.2879985994392618
 20
-12.288818592890204
 10
-2.2125527551518593
 20
-12.302626154836613
 10
-2.1370236095037654
 20
-12.315970529861765
 10
-2.0614140061246244
 20
-12.328851215557483
 10
-1.985726791673266
 20
-12.34126772697323
 10
-1.909964815730541
 20
-12.353219596634368
 10
-1.8341309306920204
 20
-12.364706374559763
 10
-1.758227991660614
 20
-12.375727628278714
 10
-1.6822588563390763
 20
-12.38628294284725
 10
-1.6062263849224139
 20
-12.396371920863745
 10
-1.530133439990202
 20
-12.405994182483875
 10
-1.4539828863988093
 20
-12.415149365434932
 10
-1.3777775911735382
 20
-12.42383712502945
 10
-1.3015204234006825
 20
-12.432057134178192
 10
-1.2252142541195081
 20
-12.439809083402462
 10
-1.148861956214157
 20
-12.447092680845747
 10
-1.072466404305497
 20
-12.453907652284725
 10
-0.9960304746428752
 20
-12.460253741139573
 10
-0.9195570449958416
 20
-12.466130708483627
 10
-0.8430489945457997
 20
-12.471538333052395
 10
-0.7665092037776067
 20
-12.476476411251864
 10
-0.6899405543711239
 20
-12.480944757166185
 10
-0.6133459290927251
 20
-12.484943202564654
 10
-0.5367282116867604
 20
-12.488471596908067
 10
-0.4600902867669858
 20
-12.49152980735437
 10
-0.3834350397079557
 20
-12.494117718763665
 10
-0.3067653565364018
 20
-12.496235233702553
 10
-0.2300841238225587
 20
-12.497882272447793
 10
-0.1533942285714978
 20
-12.499058772989306
 10
-0.07669855811442991
 20
-12.499764691032514
 10
0.0
 20
-12.5
 10
0.07669855811443144
 20
-12.499764691032514
 10
0.1533942285714993
 20
-12.499058772989306
 10
0.23008412382256024
 20
-12.497882272447793
 10
0.3067653565364033
 20
-12.496235233702553
 10
0.3834350397079573
 20
-12.494117718763665
 10
0.4600902867669874
 20
-12.49152980735437
 10
0.536728211686762
 20
-12.488471596908067
 10
0.6133459290927266
 20
-12.484943202564654
 10
0.6899405543711254
 20
-12.480944757166185
 10
0.7665092037776081
 20
-12.476476411251864
 10
0.8430489945458013
 20
-12.471538333052395
 10
0.9195570449958432
 20
-12.466130708483627
 10
0.9960304746428765
 20
-12.46025374113957
 10
1.0724664043054986
 20
-12.453907652284725
 10
1.1488619562141587
 20
-12.447092680845747
 10
1.2252142541195097
 20
-12.43980908340246
 10
1.301520423400684
 20
-12.432057134178192
 10
1.3777775911735397
 20
-12.42383712502945
 10
1.453982886398811
 20
-12.415149365434932
 10
1.5301334399902036
 20
-12.405994182483875
 10
1.6062263849224152
 20
-12.396371920863745
 10
1.682258856339078
 20
-12.38628294284725
 10
1.7582279916606154
 20
-12.375727628278714
 10
1.834130930692022
 20
-12.364706374559763
 10
1.9099648157305427
 20
-12.353219596634368
 10
1.9857267916732675
 20
-12.34126772697323
 10
2.061414006124626
 20
-12.328851215557483
 10
2.137023609503767
 20
-12.315970529861765
 10
2.2125527551518607
 20
-12.302626154836613
 10
2.287998599439263
 20
-12.288818592890204
 10
2.3633583018725783
 20
-12.27454836386944
 10
2.438629025201604
 20
-12.259816005040381
 10
2.5138079355261493
 20
-12.244622071068006
 10
2.588892202402732
 20
-12.228967133995345
 10
2.663878998951142
 20
-12.21285178322193
 10
2.7387655019608723
 20
-12.196276625481607
 10
2.8135488919974097
 20
-12.179242284819699
 10
2.888226353508391
 20
-12.161749402569502
 10
2.9627950749295917
 20
-12.143798637328148
 10
3.0372522487907996
 20
-12.1253906649318
 10
3.1115950718215033
 20
-12.106526178430215
 10
3.1858207450564326
 20
-12.087205888060652
 10
3.259926473940945
 20
-12.067430521221118
 10
3.3339094684362305
 20
-12.047200822442997
 10
3.4077669431243622
 20
-12.02651755336302
 10
3.481496117313163
 20
-12.005381492694573
 10
3.555094215140898
 20
-11.983793436198395
 10
3.628558465680779
 20
-11.961754196652612
 10
3.7018861030452994
 20
-11.939264603822133
 10
3.7750743664903523
 20
-11.916325504427421
 10
3.848120500519187
 20
-11.892937762112604
 10
3.921021754986145
 20
-11.869102257412958
 10
3.993775385200197
 20
-11.844819887721764
 10
4.066378652028288
 20
-11.820091567256515
 10
4.138828821998455
 20
-11.794918227024505
 10
4.211123167402751
 20
-11.76930081478776
 10
4.28325896639993
 20
-11.743240295027373
 10
4.3552335031179314
 20
-11.716737648907188
 10
4.427044067756132
 20
-11.689793874236845
 10
4.498687956687354
 20
-11.662409985434236
 10
4.570162472559675
 20
-11.634587013487296
 10
4.64146492439797
 20
-11.606326005915193
 10
4.712592627705229
 20
-11.57762802672889
 10
4.783542904563623
 20
-11.548494156391085
 10
4.854313083735329
 20
-11.518925491775525
 10
4.924900500763101
 20
-11.488923146125723
 10
4.9953024980705845
 20
-11.458488249013033
 10
5.065516425062373
 20
-11.427621946294133
 10
5.135539638223799
 20
-11.396325400067873
 10
5.205369501220466
 20
-11.364599788631528
 10
5.275003384997498
 20
-11.332446306436442
 10
5.344438667878528
 20
-11.299866164043042
 10
5.4136727356644005
 20
-11.266860588075275
 10
5.482702981731596
 20
-11.233430821174423
 10
5.551526807130366
 20
-11.199578121952314
 10
5.620141620682582
 20
-11.16530376494394
 10
5.688544839079298
 20
-11.130609040559474
 10
5.756733886978
 20
-11.095495255035674
 10
5.824706197099577
 20
-11.059963730386722
 10
5.892459210324972
 20
-11.024015804354438
 10
5.959990375791528
 20
-10.987652830357918
 10
6.027297150989035
 20
-10.950876177442582
 10
6.094377001855451
 20
-10.913687230228627
 10
6.161227402872301
 20
-10.876087388858892
 10
6.227845837159773
 20
-10.838078068946158
 10
6.29422979657147
 20
-10.799660701519834
 10
6.360376781788838
 20
-10.760836732972091
 10
6.4262843024152705
 20
-10.7216076250034
 10
6.491949877069869
 20
-10.681974854567507
 10
6.557371033480861
 20
-10.641939913815815
 10
6.622545308578685
 20
-10.601504310041214
 10
6.687470248588716
 20
-10.560669565621337
 10
6.752143409123662
 20
-10.51943721796123
 10
6.816562355275581
 20
-10.477808819435474
 10
6.880724661707561
 20
-10.43578593732975
 10
6.9446279127450286
 20
-10.393370153781815
 10
7.0082697024667
 20
-10.350563065721948
 10
7.071647634795165
 20
-10.307366284812817
 10
7.134759323587092
 20
-10.263781437388808
 10
7.197602392723066
 20
-10.219810164394797
 10
7.260174476197056
 20
-10.175454121324353
 10
7.322473218205486
 20
-10.130714978157435
 10
7.3844962732359285
 20
-10.08559441929749
 10
7.446241306155418
 20
-10.04009414350806
 10
7.507705992298362
 20
-9.994215863848813
 10
7.56888801755407
 20
-9.947961307611044
 10
7.629785078453868
 20
-9.901332216252655
 10
7.690394882257835
 20
-9.854330345332578
 10
7.750715147041115
 20
-9.806957464444691
 10
7.810743601779831
 20
-9.759215357151179
 10
7.870477986436589
 20
-9.711105820915405
 10
7.929916052045568
 20
-9.662630667034213
 10
7.989055560797197
 20
-9.613791720569745
 10
8.047894286122395
 20
-9.564590820280737
 10
8.106430012776407
 20
-9.515029818553272
 10
8.16466053692221
 20
-9.465110581331055
 10
8.222583666213483
 20
-9.414834988045156
 10
8.280197219877147
 20
-9.364204931543242
 10
8.337499028795468
 20
-9.313222318018324
 10
8.394486935587729
 20
-9.26188906693699
 10
8.45115879469145
 20
-9.210207110967122
 10
8.507512472443164
 20
-9.15817839590516
 10
8.563545847158755
 20
-9.105804880602815
 10
8.619256809213336
 20
-9.053088536893336
 10
8.674643261120675
 20
-9.00003134951727
 10
8.72970311761216
 20
-8.946635316047733
 10
8.784434305715315
 20
-8.892902446815205
 10
8.838834764831844
 20
-8.838834764831843
 10
8.892902446815205
 20
-8.784434305715315
 10
8.946635316047733
 20
-8.72970311761216
 10
9.00003134951727
 20
-8.674643261120675
 10
9.053088536893338
 20
-8.619256809213335
 10
9.105804880602815
 20
-8.563545847158755
 10
9.15817839590516
 20
-8.507512472443162
 10
9.210207110967124
 20
-8.451158794691448
 10
9.26188906693699
 20
-8.394486935587729
 10
9.313222318018326
 20
-8.337499028795468
 10
9.364204931543242
 20
-8.280197219877147
 10
9.414834988045156
 20
-8.222583666213483
 10
9.465110581331057
 20
-8.16466053692221
 10
9.515029818553272
 20
-8.106430012776405
 10
9.564590820280737
 20
-8.047894286122393
 10
9.613791720569747
 20
-7.989055560797197
 10
9.662630667034213
 20
-7.929916052045568
 10
9.711105820915405
 20
-7.870477986436588
 10
9.75921535715118
 20
-7.810743601779829
 10
9.806957464444691
 20
-7.750715147041114
 10
9.85433034533258
 20
-7.690394882257835
 10
9.901332216252655
 20
-7.629785078453868
 10
9.947961307611045
 20
-7.56888801755407
 10
9.994215863848813
 20
-7.507705992298362
 10
10.040094143508062
 20
-7.446241306155417
 10
10.085594419297491
 20
-7.384496273235927
 10
10.130714978157435
 20
-7.322473218205486
 10
10.175454121324355
 20
-7.260174476197056
 10
10.219810164394797
 20
-7.197602392723066
 10
10.263781437388808
 20
-7.13475932358709
 10
10.307366284812817
 20
-7.0716476347951644
 10
10.350563065721948
 20
-7.0082697024667
 10
10.393370153781815
 20
-6.944627912745027
 10
10.43578593732975
 20
-6.880724661707561
 10
10.477808819435475
 20
-6.816562355275581
 10
10.519437217961231
 20
-6.7521434091236605
 10
10.560669565621339
 20
-6.687470248588714
 10
10.601504310041216
 20
-6.622545308578682
 10
10.641939913815815
 20
-6.5573710334808615
 10
10.681974854567507
 20
-6.491949877069871
 10
10.7216076250034
 20
-6.4262843024152705
 10
10.760836732972091
 20
-6.360376781788838
 10
10.799660701519835
 20
-6.29422979657147
 10
10.838078068946158
 20
-6.227845837159773
 10
10.876087388858894
 20
-6.1612274028723
 10
10.913687230228627
 20
-6.09437700185545
 10
10.950876177442582
 20
-6.027297150989034
 10
10.98765283035792
 20
-5.959990375791526
 10
11.024015804354438
 20
-5.89245921032497
 10
11.059963730386722
 20
-5.8247061970995775
 10
11.095495255035674
 20
-5.756733886978
 10
11.130609040559474
 20
-5.688544839079298
 10
11.16530376494394
 20
-5.620141620682582
 10
11.199578121952316
 20
-5.551526807130365
 10
11.233430821174423
 20
-5.482702981731595
 10
11.266860588075275
 20
-5.4136727356644
 10
11.299866164043042
 20
-5.344438667878526
 10
11.332446306436442
 20
-5.275003384997496
 10
11.36459978863153
 20
-5.205369501220464
 10
11.396325400067873
 20
-5.135539638223799
 10
11.427621946294133
 20
-5.065516425062373
 10
11.458488249013033
 20
-4.9953024980705845
 10
11.488923146125723
 20
-4.924900500763101
 10
11.518925491775525
 20
-4.854313083735328
 10
11.548494156391085
 20
-4.783542904563622
 10
11.577628026728892
 20
-4.712592627705228
 10
11.606326005915195
 20
-4.641464924397969
 10
11.634587013487296
 20
-4.570162472559673
 10
11.662409985434238
 20
-4.498687956687351
 10
11.689793874236845
 20
-4.427044067756129
 10
11.716737648907188
 20
-4.355233503117932
 10
11.743240295027373
 20
-4.28325896639993
 10
11.76930081478776
 20
-4.211123167402751
 10
11.794918227024505
 20
-4.138828821998455
 10
11.820091567256515
 20
-4.066378652028287
 10
11.844819887721764
 20
-3.993775385200196
 10
11.869102257412958
 20
-3.921021754986144
 10
11.892937762112604
 20
-3.848120500519186
 10
11.916325504427423
 20
-3.775074366490351
 10
11.939264603822135
 20
-3.701886103045297
 10
11.96175419665261
 20
-3.628558465680779
 10
11.983793436198395
 20
-3.5550942151408984
 10
12.005381492694573
 20
-3.481496117313163
 10
12.02651755336302
 20
-3.4077669431243622
 10
12.047200822442997
 20
-3.3339094684362296
 10
12.067430521221118
 20
-3.259926473940944
 10
12.087205888060652
 20
-3.185820745056432
 10
12.106526178430217
 20
-3.111595071821502
 10
12.1253906649318
 20
-3.0372522487907982
 10
12.143798637328148
 20
-2.96279507492959
 10
12.161749402569502
 20
-2.8882263535083887
 10
12.179242284819699
 20
-2.8135488919974105
 10
12.196276625481607
 20
-2.7387655019608723
 10
12.21285178322193
 20
-2.663878998951142
 10
12.228967133995345
 20
-2.588892202402732
 10
12.244622071068006
 20
-2.513807935526149
 10
12.259816005040381
 20
-2.438629025201603
 10
12.27454836386944
 20
-2.3633583018725774
 10
12.288818592890204
 20
-2.2879985994392618
 10
12.302626154836613
 20
-2.2125527551518593
 10
12.315970529861765
 20
-2.1370236095037654
 10
12.328851215557483
 20
-2.061414006124624
 10
12.34126772697323
 20
-1.9857267916732682
 10
12.353219596634368
 20
-1.9099648157305429
 10
12.364706374559763
 20
-1.834130930692022
 10
12.375727628278714
 20
-1.7582279916606152
 10
12.38628294284725
 20
-1.682258856339077
 10
12.396371920863745
 20
-1.6062263849224145
 10
12.405994182483875
 20
-1.5301334399902025
 10
12.415149365434932
 20
-1.4539828863988093
 10
12.42383712502945
 20
-1.3777775911735382
 10
12.432057134178192
 20
-1.3015204234006823
 10
12.439809083402462
 20
-1.2252142541195075
 10
12.447092680845747
 20
-1.148861956214159
 10
12.453907652284725
 20
-1.0724664043054988
 10
12.46025374113957
 20
-0.9960304746428765
 10
12.466130708483627
 20
-0.9195570449958428
 10
12.471538333052395
 20
-0.8430489945458006
 10
12.476476411251864
 20
-0.7665092037776072
 10
12.480944757166185
 20
-0.6899405543711242
 10
12.484943202564654
 20
-0.6133459290927252
 10
12.488471596908067
 20
-0.5367282116867602
 10
12.49152980735437
 20
-0.4600902867669854
 10
12.494117718763665
 20
-0.38343503970795784
 10
12.496235233702553
 20
-0.3067653565364036
 10
12.497882272447793
 20
-0.23008412382256024
 10
12.499058772989306
 20
-0.15339422857149906
 10
12.499764691032514
 20
-0.07669855811443094
 10
12.5
 20
0.0
 10
12.499764691032514
 20
0.07669855811443096
  0
TEXT
  5
33
330
17
100
AcDbEntity
  8
INFO
100
AcDbText
 10
-37.867706693352225
 20
49.78540762970512
 30
0.0
 40
3.0
  1
S1-CUT-B-P08 C1 NOMINAL / RFQ ONLY / NOT NC RELEASE
100
AcDbText
  0
ENDSEC
  0
SECTION
  2
OBJECTS
  0
DICTIONARY
  5
A
330
0
100
AcDbDictionary
281
1
  3
ACAD_COLOR
350
B
  3
ACAD_GROUP
350
C
  3
ACAD_LAYOUT
350
D
  3
ACAD_MATERIAL
350
E
  3
ACAD_MLEADERSTYLE
350
F
  3
ACAD_MLINESTYLE
350
10
  3
ACAD_PLOTSETTINGS
350
11
  3
ACAD_PLOTSTYLENAME
350
12
  3
ACAD_SCALELIST
350
14
  3
ACAD_TABLESTYLE
350
15
  3
ACAD_VISUALSTYLE
350
16
  3
EZDXF_META
350
2D
  0
DICTIONARY
  5
B
330
A
100
AcDbDictionary
281
1
  0
DICTIONARY
  5
C
330
A
100
AcDbDictionary
281
1
  0
DICTIONARY
  5
D
330
A
100
AcDbDictionary
281
1
  3
Model
350
1A
  3
Layout1
350
1E
  0
DICTIONARY
  5
E
330
A
100
AcDbDictionary
281
1
  3
ByBlock
350
1F
  3
ByLayer
350
20
  3
Global
350
21
  0
DICTIONARY
  5
F
330
A
100
AcDbDictionary
281
1
  3
Standard
350
2C
  0
DICTIONARY
  5
10
330
A
100
AcDbDictionary
281
1
  3
Standard
350
22
  0
DICTIONARY
  5
11
330
A
100
AcDbDictionary
281
1
  0
ACDBDICTIONARYWDFLT
  5
12
330
A
100
AcDbDictionary
281
1
  3
Normal
350
13
100
AcDbDictionaryWithDefault
340
13
  0
ACDBPLACEHOLDER
  5
13
330
12
  0
DICTIONARY
  5
14
330
A
100
AcDbDictionary
281
1
  0
DICTIONARY
  5
15
330
A
100
AcDbDictionary
281
1
  0
DICTIONARY
  5
16
330
A
100
AcDbDictionary
281
1
  0
LAYOUT
  5
1A
330
D
100
AcDbPlotSettings
  1

  4
A3
  6

 40
7.5
 41
20.0
 42
7.5
 43
20.0
 44
420.0
 45
297.0
 46
0.0
 47
0.0
 48
0.0
 49
0.0
140
0.0
141
0.0
142
1.0
143
1.0
 70
1024
 72
1
 73
0
 74
5
  7

 75
16
 76
0
 77
2
 78
300
147
1.0
148
0.0
149
0.0
100
AcDbLayout
  1
Model
 70
1
 71
0
 10
0.0
 20
0.0
 11
420.0
 21
297.0
 12
0.0
 22
0.0
 32
0.0
 14
1e+20
 24
1e+20
 34
1e+20
 15
-1e+20
 25
-1e+20
 35
-1e+20
146
0.0
 13
0.0
 23
0.0
 33
0.0
 16
1.0
 26
0.0
 36
0.0
 17
0.0
 27
1.0
 37
0.0
 76
1
330
17
  0
LAYOUT
  5
1E
330
D
100
AcDbPlotSettings
  1

  4
A3
  6

 40
7.5
 41
20.0
 42
7.5
 43
20.0
 44
420.0
 45
297.0
 46
0.0
 47
0.0
 48
0.0
 49
0.0
140
0.0
141
0.0
142
1.0
143
1.0
 70
0
 72
1
 73
0
 74
5
  7

 75
16
 76
0
 77
2
 78
300
147
1.0
148
0.0
149
0.0
100
AcDbLayout
  1
Layout1
 70
1
 71
1
 10
0.0
 20
0.0
 11
420.0
 21
297.0
 12
0.0
 22
0.0
 32
0.0
 14
1e+20
 24
1e+20
 34
1e+20
 15
-1e+20
 25
-1e+20
 35
-1e+20
146
0.0
 13
0.0
 23
0.0
 33
0.0
 16
1.0
 26
0.0
 36
0.0
 17
0.0
 27
1.0
 37
0.0
 76
1
330
1B
  0
MATERIAL
  5
1F
102
{ACAD_REACTORS
330
E
102
}
330
E
100
AcDbMaterial
  1
ByBlock
  2

 70
0
 40
1.0
 71
1
 41
1.0
 91
-1023410177
 42
1.0
 72
1
  3

 73
1
 74
1
 75
1
 44
0.5
 73
0
 45
1.0
 46
1.0
 77
1
  4

 78
1
 79
1
170
1
 48
1.0
171
1
  6

172
1
173
1
174
1
140
1.0
141
1.0
175
1
  7

176
1
177
1
178
1
143
1.0
179
1
  8

270
1
271
1
272
1
145
1.0
146
1.0
273
1
  9

274
1
275
1
276
1
 42
1.0
 72
1
  3

 73
1
 74
1
 75
1
 94
63
  0
MATERIAL
  5
20
102
{ACAD_REACTORS
330
E
102
}
330
E
100
AcDbMaterial
  1
ByLayer
  2

 70
0
 40
1.0
 71
1
 41
1.0
 91
-1023410177
 42
1.0
 72
1
  3

 73
1
 74
1
 75
1
 44
0.5
 73
0
 45
1.0
 46
1.0
 77
1
  4

 78
1
 79
1
170
1
 48
1.0
171
1
  6

172
1
173
1
174
1
140
1.0
141
1.0
175
1
  7

176
1
177
1
178
1
143
1.0
179
1
  8

270
1
271
1
272
1
145
1.0
146
1.0
273
1
  9

274
1
275
1
276
1
 42
1.0
 72
1
  3

 73
1
 74
1
 75
1
 94
63
  0
MATERIAL
  5
21
102
{ACAD_REACTORS
330
E
102
}
330
E
100
AcDbMaterial
  1
Global
  2

 70
0
 40
1.0
 71
1
 41
1.0
 91
-1023410177
 42
1.0
 72
1
  3

 73
1
 74
1
 75
1
 44
0.5
 73
0
 45
1.0
 46
1.0
 77
1
  4

 78
1
 79
1
170
1
 48
1.0
171
1
  6

172
1
173
1
174
1
140
1.0
141
1.0
175
1
  7

176
1
177
1
178
1
143
1.0
179
1
  8

270
1
271
1
272
1
145
1.0
146
1.0
273
1
  9

274
1
275
1
276
1
 42
1.0
 72
1
  3

 73
1
 74
1
 75
1
 94
63
  0
MLINESTYLE
  5
22
102
{ACAD_REACTORS
330
10
102
}
330
10
100
AcDbMlineStyle
  2
Standard
 70
0
  3

 62
256
 51
90.0
 52
90.0
 71
2
 49
0.5
 62
256
  6
BYLAYER
 49
-0.5
 62
256
  6
BYLAYER
  0
MLEADERSTYLE
  5
2C
102
{ACAD_REACTORS
330
F
102
}
330
F
100
AcDbMLeaderStyle
179
2
170
2
171
1
172
0
 90
2
 40
0.0
 41
0.0
173
1
 91
-1056964608
 92
-2
290
1
 42
2.0
291
1
 43
8.0
  3
Standard
 44
4.0
300

342
29
174
1
175
1
176
0
178
1
 93
-1056964608
 45
4.0
292
0
297
0
 46
4.0
 94
-1056964608
 47
1.0
 49
1.0
140
1.0
294
1
141
0.0
177
0
142
1.0
295
0
296
0
143
3.75
271
0
272
9
273
9
  0
DICTIONARY
  5
2D
330
A
100
AcDbDictionary
280
1
281
1
  3
CREATED_BY_EZDXF
350
2E
  3
WRITTEN_BY_EZDXF
350
36
  0
DICTIONARYVAR
  5
2E
330
2D
100
DictionaryVariables
280
0
  1
1.4.4 @ 2026-09-20T17:00:03.678716+00:00
  0
DICTIONARYVAR
  5
36
330
2D
100
DictionaryVariables
280
0
  1
1.4.4 @ 2026-09-20T17:00:03.681623+00:00
  0
ENDSEC
  0
EOF
