  0
SECTION
  2
HEADER
  9
$ACADVER
  1
AC1024
  9
$ACADMAINTVER
 70
6
  9
$DWGCODEPAGE
  3
ANSI_1252
  9
$LASTSAVEDBY
  1
ezdxf
  9
$INSBASE
 10
0.0
 20
0.0
 30
0.0
  9
$EXTMIN
 10
1e+20
 20
1e+20
 30
1e+20
  9
$EXTMAX
 10
-1e+20
 20
-1e+20
 30
-1e+20
  9
$LIMMIN
 10
0.0
 20
0.0
  9
$LIMMAX
 10
420.0
 20
297.0
  9
$ORTHOMODE
 70
0
  9
$REGENMODE
 70
1
  9
$FILLMODE
 70
1
  9
$QTEXTMODE
 70
0
  9
$MIRRTEXT
 70
1
  9
$LTSCALE
 40
1.0
  9
$ATTMODE
 70
1
  9
$TEXTSIZE
 40
2.5
  9
$TRACEWID
 40
1.0
  9
$TEXTSTYLE
  7
Standard
  9
$CLAYER
  8
0
  9
$CELTYPE
  6
ByLayer
  9
$CECOLOR
 62
256
  9
$CELTSCALE
 40
1.0
  9
$DISPSILH
 70
0
  9
$DIMSCALE
 40
1.0
  9
$DIMASZ
 40
2.5
  9
$DIMEXO
 40
0.625
  9
$DIMDLI
 40
3.75
  9
$DIMRND
 40
0.0
  9
$DIMDLE
 40
0.0
  9
$DIMEXE
 40
1.25
  9
$DIMTP
 40
0.0
  9
$DIMTM
 40
0.0
  9
$DIMTXT
 40
2.5
  9
$DIMCEN
 40
2.5
  9
$DIMTSZ
 40
0.0
  9
$DIMTOL
 70
0
  9
$DIMLIM
 70
0
  9
$DIMTIH
 70
0
  9
$DIMTOH
 70
0
  9
$DIMSE1
 70
0
  9
$DIMSE2
 70
0
  9
$DIMTAD
 70
1
  9
$DIMZIN
 70
8
  9
$DIMBLK
  1

  9
$DIMASO
 70
1
  9
$DIMSHO
 70
1
  9
$DIMPOST
  1

  9
$DIMAPOST
  1

  9
$DIMALT
 70
0
  9
$DIMALTD
 70
3
  9
$DIMALTF
 40
0.03937007874
  9
$DIMLFAC
 40
1.0
  9
$DIMTOFL
 70
1
  9
$DIMTVP
 40
0.0
  9
$DIMTIX
 70
0
  9
$DIMSOXD
 70
0
  9
$DIMSAH
 70
0
  9
$DIMBLK1
  1

  9
$DIMBLK2
  1

  9
$DIMSTYLE
  2
ISO-25
  9
$DIMCLRD
 70
0
  9
$DIMCLRE
 70
0
  9
$DIMCLRT
 70
0
  9
$DIMTFAC
 40
1.0
  9
$DIMGAP
 40
0.625
  9
$DIMJUST
 70
0
  9
$DIMSD1
 70
0
  9
$DIMSD2
 70
0
  9
$DIMTOLJ
 70
0
  9
$DIMTZIN
 70
8
  9
$DIMALTZ
 70
0
  9
$DIMALTTZ
 70
0
  9
$DIMUPT
 70
0
  9
$DIMDEC
 70
2
  9
$DIMTDEC
 70
2
  9
$DIMALTU
 70
2
  9
$DIMALTTD
 70
3
  9
$DIMTXSTY
  7
Standard
  9
$DIMAUNIT
 70
0
  9
$DIMADEC
 70
0
  9
$DIMALTRND
 40
0.0
  9
$DIMAZIN
 70
0
  9
$DIMDSEP
 70
44
  9
$DIMATFIT
 70
3
  9
$DIMFRAC
 70
0
  9
$DIMLDRBLK
  1

  9
$DIMLUNIT
 70
2
  9
$DIMLWD
 70
-2
  9
$DIMLWE
 70
-2
  9
$DIMTMOVE
 70
0
  9
$DIMFXL
 40
1.0
  9
$DIMFXLON
 70
0
  9
$DIMJOGANG
 40
0.785398163397
  9
$DIMTFILL
 70
0
  9
$DIMTFILLCLR
 70
0
  9
$DIMARCSYM
 70
0
  9
$DIMLTYPE
  6

  9
$DIMLTEX1
  6

  9
$DIMLTEX2
  6

  9
$DIMTXTDIRECTION
 70
0
  9
$LUNITS
 70
2
  9
$LUPREC
 70
4
  9
$SKETCHINC
 40
1.0
  9
$FILLETRAD
 40
10.0
  9
$AUNITS
 70
0
  9
$AUPREC
 70
2
  9
$MENU
  1
.
  9
$ELEVATION
 40
0.0
  9
$PELEVATION
 40
0.0
  9
$THICKNESS
 40
0.0
  9
$LIMCHECK
 70
0
  9
$CHAMFERA
 40
0.0
  9
$CHAMFERB
 40
0.0
  9
$CHAMFERC
 40
0.0
  9
$CHAMFERD
 40
0.0
  9
$SKPOLY
 70
0
  9
$TDCREATE
 40
2461305.0833680555
  9
$TDUCREATE
 40
2458532.153996898
  9
$TDUPDATE
 40
2461305.0833680555
  9
$TDUUPDATE
 40
2458532.1544311
  9
$TDINDWG
 40
0.0
  9
$TDUSRTIMER
 40
0.0
  9
$USRTIMER
 70
1
  9
$ANGBASE
 50
0.0
  9
$ANGDIR
 70
0
  9
$PDMODE
 70
0
  9
$PDSIZE
 40
0.0
  9
$PLINEWID
 40
0.0
  9
$SPLFRAME
 70
0
  9
$SPLINETYPE
 70
6
  9
$SPLINESEGS
 70
8
  9
$HANDSEED
  5
37
  9
$SURFTAB1
 70
6
  9
$SURFTAB2
 70
6
  9
$SURFTYPE
 70
6
  9
$SURFU
 70
6
  9
$SURFV
 70
6
  9
$UCSBASE
  2

  9
$UCSNAME
  2

  9
$UCSORG
 10
0.0
 20
0.0
 30
0.0
  9
$UCSXDIR
 10
1.0
 20
0.0
 30
0.0
  9
$UCSYDIR
 10
0.0
 20
1.0
 30
0.0
  9
$UCSORTHOREF
  2

  9
$UCSORTHOVIEW
 70
0
  9
$UCSORGTOP
 10
0.0
 20
0.0
 30
0.0
  9
$UCSORGBOTTOM
 10
0.0
 20
0.0
 30
0.0
  9
$UCSORGLEFT
 10
0.0
 20
0.0
 30
0.0
  9
$UCSORGRIGHT
 10
0.0
 20
0.0
 30
0.0
  9
$UCSORGFRONT
 10
0.0
 20
0.0
 30
0.0
  9
$UCSORGBACK
 10
0.0
 20
0.0
 30
0.0
  9
$PUCSBASE
  2

  9
$PUCSNAME
  2

  9
$PUCSORG
 10
0.0
 20
0.0
 30
0.0
  9
$PUCSXDIR
 10
1.0
 20
0.0
 30
0.0
  9
$PUCSYDIR
 10
0.0
 20
1.0
 30
0.0
  9
$PUCSORTHOREF
  2

  9
$PUCSORTHOVIEW
 70
0
  9
$PUCSORGTOP
 10
0.0
 20
0.0
 30
0.0
  9
$PUCSORGBOTTOM
 10
0.0
 20
0.0
 30
0.0
  9
$PUCSORGLEFT
 10
0.0
 20
0.0
 30
0.0
  9
$PUCSORGRIGHT
 10
0.0
 20
0.0
 30
0.0
  9
$PUCSORGFRONT
 10
0.0
 20
0.0
 30
0.0
  9
$PUCSORGBACK
 10
0.0
 20
0.0
 30
0.0
  9
$USERI1
 70
0
  9
$USERI2
 70
0
  9
$USERI3
 70
0
  9
$USERI4
 70
0
  9
$USERI5
 70
0
  9
$USERR1
 40
0.0
  9
$USERR2
 40
0.0
  9
$USERR3
 40
0.0
  9
$USERR4
 40
0.0
  9
$USERR5
 40
0.0
  9
$WORLDVIEW
 70
1
  9
$SHADEDGE
 70
3
  9
$SHADEDIF
 70
70
  9
$TILEMODE
 70
1
  9
$MAXACTVP
 70
64
  9
$PINSBASE
 10
0.0
 20
0.0
 30
0.0
  9
$PLIMCHECK
 70
0
  9
$PEXTMIN
 10
1e+20
 20
1e+20
 30
1e+20
  9
$PEXTMAX
 10
-1e+20
 20
-1e+20
 30
-1e+20
  9
$PLIMMIN
 10
0.0
 20
0.0
  9
$PLIMMAX
 10
420.0
 20
297.0
  9
$UNITMODE
 70
0
  9
$VISRETAIN
 70
1
  9
$PLINEGEN
 70
0
  9
$PSLTSCALE
 70
1
  9
$TREEDEPTH
 70
3020
  9
$CMLSTYLE
  2
Standard
  9
$CMLJUST
 70
0
  9
$CMLSCALE
 40
20.0
  9
$PROXYGRAPHICS
 70
1
  9
$MEASUREMENT
 70
1
  9
$CELWEIGHT
370
-1
  9
$ENDCAPS
280
0
  9
$JOINSTYLE
280
0
  9
$LWDISPLAY
290
0
  9
$INSUNITS
 70
4
  9
$HYPERLINKBASE
  1

  9
$STYLESHEET
  1

  9
$XEDIT
290
1
  9
$CEPSNTYPE
380
0
  9
$PSTYLEMODE
290
1
  9
$FINGERPRINTGUID
  2
{209E2DBB-D807-4F23-AD53-0FEDFB86DEB4}
  9
$VERSIONGUID
  2
{FBE7FA41-1539-4676-9246-679038FD7F4C}
  9
$EXTNAMES
290
1
  9
$PSVPSCALE
 40
0.0
  9
$OLESTARTUP
290
0
  9
$SORTENTS
280
127
  9
$INDEXCTL
280
0
  9
$HIDETEXT
280
1
  9
$XCLIPFRAME
280
1
  9
$HALOGAP
280
0
  9
$OBSCOLOR
 70
257
  9
$OBSLTYPE
280
0
  9
$INTERSECTIONDISPLAY
280
0
  9
$INTERSECTIONCOLOR
 70
257
  9
$DIMASSOC
280
2
  9
$PROJECTNAME
  1

  9
$CAMERADISPLAY
290
0
  9
$LENSLENGTH
 40
50.0
  9
$CAMERAHEIGHT
 40
0.0
  9
$STEPSPERSEC
 40
24.0
  9
$STEPSIZE
 40
100.0
  9
$3DDWFPREC
 40
2.0
  9
$PSOLWIDTH
 40
0.005
  9
$PSOLHEIGHT
 40
0.08
  9
$LOFTANG1
 40
1.570796326795
  9
$LOFTANG2
 40
1.570796326795
  9
$LOFTMAG1
 40
0.0
  9
$LOFTMAG2
 40
0.0
  9
$LOFTPARAM
 70
7
  9
$LOFTNORMALS
280
1
  9
$LATITUDE
 40
37.795
  9
$LONGITUDE
 40
-122.394
  9
$NORTHDIRECTION
 40
0.0
  9
$TIMEZONE
 70
-8000
  9
$LIGHTGLYPHDISPLAY
280
1
  9
$TILEMODELIGHTSYNCH
280
1
  9
$CMATERIAL
347
20
  9
$SOLIDHIST
280
0
  9
$SHOWHIST
280
1
  9
$DWFFRAME
280
2
  9
$DGNFRAME
280
2
  9
$REALWORLDSCALE
290
1
  9
$INTERFERECOLOR
 62
256
  9
$CSHADOW
280
0
  9
$SHADOWPLANELOCATION
 40
0.0
  0
ENDSEC
  0
SECTION
  2
CLASSES
  0
CLASS
  1
ACDBDICTIONARYWDFLT
  2
AcDbDictionaryWithDefault
  3
ObjectDBX Classes
 90
0
 91
0
280
0
281
0
  0
CLASS
  1
SUN
  2
AcDbSun
  3
SCENEOE
 90
1153
 91
0
280
0
281
0
  0
CLASS
  1
VISUALSTYLE
  2
AcDbVisualStyle
  3
ObjectDBX Classes
 90
4095
 91
0
280
0
281
0
  0
CLASS
  1
MATERIAL
  2
AcDbMaterial
  3
ObjectDBX Classes
 90
1153
 91
0
280
0
281
0
  0
CLASS
  1
SCALE
  2
AcDbScale
  3
ObjectDBX Classes
 90
1153
 91
0
280
0
281
0
  0
CLASS
  1
TABLESTYLE
  2
AcDbTableStyle
  3
ObjectDBX Classes
 90
4095
 91
0
280
0
281
0
  0
CLASS
  1
MLEADERSTYLE
  2
AcDbMLeaderStyle
  3
ACDB_MLEADERSTYLE_CLASS
 90
4095
 91
0
280
0
281
0
  0
CLASS
  1
DICTIONARYVAR
  2
AcDbDictionaryVar
  3
ObjectDBX Classes
 90
0
 91
0
280
0
281
0
  0
CLASS
  1
CELLSTYLEMAP
  2
AcDbCellStyleMap
  3
ObjectDBX Classes
 90
1152
 91
0
280
0
281
0
  0
CLASS
  1
MENTALRAYRENDERSETTINGS
  2
AcDbMentalRayRenderSettings
  3
SCENEOE
 90
1024
 91
0
280
0
281
0
  0
CLASS
  1
ACDBDETAILVIEWSTYLE
  2
AcDbDetailViewStyle
  3
ObjectDBX Classes
 90
1025
 91
0
280
0
281
0
  0
CLASS
  1
ACDBSECTIONVIEWSTYLE
  2
AcDbSectionViewStyle
  3
ObjectDBX Classes
 90
1025
 91
0
280
0
281
0
  0
CLASS
  1
RASTERVARIABLES
  2
AcDbRasterVariables
  3
ISM
 90
0
 91
0
280
0
281
0
  0
CLASS
  1
LAYOUT
  2
AcDbLayout
  3
ObjectDBX Classes
 90
0
 91
0
280
0
281
0
  0
CLASS
  1
ACDBPLACEHOLDER
  2
AcDbPlaceHolder
  3
ObjectDBX Classes
 90
0
 91
0
280
0
281
0
  0
ENDSEC
  0
SECTION
  2
TABLES
  0
TABLE
  2
VPORT
  5
8
330
0
100
AcDbSymbolTable
 70
1
  0
VPORT
  5
23
330
8
100
AcDbSymbolTableRecord
100
AcDbViewportTableRecord
  2
*Active
 70
0
 10
0.0
 20
0.0
 11
1.0
 21
1.0
 12
0.0
 22
0.0
 13
0.0
 23
0.0
 14
0.5
 24
0.5
 15
0.5
 25
0.5
 16
0.0
 26
0.0
 36
1.0
 17
0.0
 27
0.0
 37
0.0
 40
1000.0
 41
1.34
 42
50.0
 43
0.0
 44
0.0
 50
0.0
 51
0.0
 71
0
 72
1000
 73
1
 74
3
 75
0
 76
0
 77
0
 78
0
281
0
 65
0
146
0.0
  0
ENDTAB
  0
TABLE
  2
LTYPE
  5
2
330
0
100
AcDbSymbolTable
 70
3
  0
LTYPE
  5
24
330
2
100
AcDbSymbolTableRecord
100
AcDbLinetypeTableRecord
  2
ByBlock
 70
0
  3

 72
65
 73
0
 40
0.0
  0
LTYPE
  5
25
330
2
100
AcDbSymbolTableRecord
100
AcDbLinetypeTableRecord
  2
ByLayer
 70
0
  3

 72
65
 73
0
 40
0.0
  0
LTYPE
  5
26
330
2
100
AcDbSymbolTableRecord
100
AcDbLinetypeTableRecord
  2
Continuous
 70
0
  3

 72
65
 73
0
 40
0.0
  0
ENDTAB
  0
TABLE
  2
LAYER
  5
1
330
0
100
AcDbSymbolTable
 70
4
  0
LAYER
  5
27
330
1
100
AcDbSymbolTableRecord
100
AcDbLayerTableRecord
  2
0
 70
0
 62
7
  6
Continuous
370
-3
390
13
347
21
  0
LAYER
  5
28
330
1
100
AcDbSymbolTableRecord
100
AcDbLayerTableRecord
  2
Defpoints
 70
0
 62
7
  6
Continuous
290
0
370
-3
390
13
347
21
  0
LAYER
  5
2F
330
1
100
AcDbSymbolTableRecord
100
AcDbLayerTableRecord
  2
CUT
 70
0
 62
7
  6
Continuous
370
-3
390
13
347
21
  0
LAYER
  5
30
330
1
100
AcDbSymbolTableRecord
100
AcDbLayerTableRecord
  2
INFO
 70
0
 62
7
  6
Continuous
370
-3
390
13
347
21
  0
ENDTAB
  0
TABLE
  2
STYLE
  5
5
330
0
100
AcDbSymbolTable
 70
1
  0
STYLE
  5
29
330
5
100
AcDbSymbolTableRecord
100
AcDbTextStyleTableRecord
  2
Standard
 70
0
 40
0.0
 41
1.0
 50
0.0
 71
0
 42
2.5
  3
txt
  4

  0
ENDTAB
  0
TABLE
  2
VIEW
  5
7
330
0
100
AcDbSymbolTable
 70
0
  0
ENDTAB
  0
TABLE
  2
UCS
  5
6
330
0
100
AcDbSymbolTable
 70
0
  0
ENDTAB
  0
TABLE
  2
APPID
  5
3
330
0
100
AcDbSymbolTable
 70
3
  0
APPID
  5
2A
330
3
100
AcDbSymbolTableRecord
100
AcDbRegAppTableRecord
  2
ACAD
 70
0
  0
APPID
  5
34
330
3
100
AcDbSymbolTableRecord
100
AcDbRegAppTableRecord
  2
HATCHBACKGROUNDCOLOR
 70
0
  0
APPID
  5
35
330
3
100
AcDbSymbolTableRecord
100
AcDbRegAppTableRecord
  2
EZDXF
 70
0
  0
ENDTAB
  0
TABLE
  2
DIMSTYLE
  5
4
330
0
100
AcDbSymbolTable
 70
1
100
AcDbDimStyleTable
  0
DIMSTYLE
105
2B
330
4
100
AcDbSymbolTableRecord
100
AcDbDimStyleTableRecord
  2
Standard
 70
0
 40
1.0
 41
2.5
 42
0.625
 43
3.75
 44
1.25
 45
0.0
 46
0.0
 47
0.0
 48
0.0
 49
2.5
140
2.5
141
2.5
142
0.0
143
0.03937007874
144
1.0
145
0.0
146
1.0
147
0.625
148
0.0
 69
0
 70
0
 71
0
 72
0
 73
0
 74
0
 75
0
 76
0
 77
1
 78
8
 79
3
170
0
171
3
172
1
173
0
174
0
175
0
176
0
177
0
178
0
179
2
271
2
272
2
273
2
274
3
275
0
276
0
277
2
278
44
279
0
280
0
281
0
282
0
283
0
284
8
285
0
286
0
288
0
289
3
290
0
371
-2
372
-2
  0
ENDTAB
  0
TABLE
  2
BLOCK_RECORD
  5
9
330
0
100
AcDbSymbolTable
 70
2
  0
BLOCK_RECORD
  5
17
330
9
100
AcDbSymbolTableRecord
100
AcDbBlockTableRecord
  2
*Model_Space
340
1A
 70
0
280
1
281
0
  0
BLOCK_RECORD
  5
1B
330
9
100
AcDbSymbolTableRecord
100
AcDbBlockTableRecord
  2
*Paper_Space
340
1E
 70
0
280
1
281
0
  0
ENDTAB
  0
ENDSEC
  0
SECTION
  2
BLOCKS
  0
BLOCK
  5
18
330
17
100
AcDbEntity
  8
0
100
AcDbBlockBegin
  2
*Model_Space
 70
0
 10
0.0
 20
0.0
 30
0.0
  3
*Model_Space
  1

  0
ENDBLK
  5
19
330
17
100
AcDbEntity
  8
0
100
AcDbBlockEnd
  0
BLOCK
  5
1C
330
1B
100
AcDbEntity
  8
0
100
AcDbBlockBegin
  2
*Paper_Space
 70
0
 10
0.0
 20
0.0
 30
0.0
  3
*Paper_Space
  1

  0
ENDBLK
  5
1D
330
1B
100
AcDbEntity
  8
0
100
AcDbBlockEnd
  0
ENDSEC
  0
SECTION
  2
ENTITIES
  0
LWPOLYLINE
  5
31
330
17
100
AcDbEntity
  8
CUT
100
AcDbPolyline
 90
1024
 70
1
 10
24.49868228218503
 20
-0.21475192000009868
 10
24.49703518142691
 20
-0.32211777335158437
 10
24.494729327183574
 20
-0.42947149915096505
 10
24.49176480626913
 20
-0.536809055591141
 10
24.488141730296118
 20
-0.6441264014737795
 10
24.483860235671294
 20
-0.7514194963614643
 10
24.478920483590517
 20
-0.8586843007298153
 10
24.473322660032657
 20
-0.9659167761195738
 10
24.467066975752612
 20
-1.07311288528865
 10
24.460153666273353
 20
-1.180268592364121
 10
24.45258299187708
 20
-1.28737986299418
 10
24.4443552375954
 20
-1.3944426645000272
 10
24.435470713198615
 20
-1.501452966027698
 10
24.425929753184047
 20
-1.6084067386998226
 10
24.415732716763447
 20
-1.7152999557673105
 10
24.40487998784947
 20
-1.8221285927609552
 10
24.39337197504123
 20
-1.9288886276429535
 10
24.381209111608904
 20
-2.035576040958333
 10
24.368391855477423
 20
-2.1421868159862836
 10
24.35492068920924
 20
-2.2487169388913806
 10
24.340796119986152
 20
-2.355162398874708
 10
24.3260186795902
 20
-2.461519188324861
 10
24.31058892438367
 20
-2.5677833029688304
 10
24.294507435288114
 20
-2.67395074202276
 10
24.277774817762523
 20
-2.780017508342575
 10
24.260391701780478
 20
-2.8859796085744738
 10
24.24235874180647
 20
-2.9918330533052715
 10
24.223676616771257
 20
-3.0975738572126033
 10
24.204346030046285
 20
-3.203198039214967
 10
24.184367709417216
 20
-3.308701622621608
 10
24.16374240705653
 20
-3.4140806352822444
 10
24.14247089949521
 20
-3.5193311097366085
 10
24.120553987593485
 20
-3.624449083363825
 10
24.097992496510702
 20
-3.7294305985315988
 10
24.07478727567425
 20
-3.8342717027452213
 10
24.050939198747578
 20
-3.9389684487963748
 10
24.026449163597302
 20
-4.043516894911744
 10
24.001318092259407
 20
-4.147913104901426
 10
23.97554693090452
 20
-4.2521531483071175
 10
23.949136649802305
 20
-4.356233100550103
 10
23.92208824328491
 20
-4.460149043079005
 10
23.894402729709565
 20
-4.563897063517322
 10
23.866081151420197
 20
-4.667473255810721
 10
23.837124574708227
 20
-4.770873720374107
 10
23.8075340897724
 20
-4.874094564238429
 10
23.777310810677754
 20
-4.977131901197258
 10
23.746455875313654
 20
-5.07998185195309
 10
23.71497044535099
 20
-5.182640544263417
 10
23.682855706198392
 20
-5.285104113086492
 10
23.650112866957645
 20
-5.38736870072686
 10
23.616743160378142
 20
-5.489430456980601
 10
23.58274784281047
 20
-5.591285539280275
 10
23.548128194159123
 20
-5.692930112839601
 10
23.512885517834306
 20
-5.794360350797837
 10
23.477021140702863
 20
-5.895572434363851
 10
23.440536413038323
 20
-5.996562552959902
 10
23.403432708470064
 20
-6.097326904365105
 10
23.365711423931582
 20
-6.197861694858581
 10
23.32737397960793
 20
-6.298163139362292
 10
23.288421818882213
 20
-6.398227461583542
 10
23.248856408281274
 20
-6.498050894157157
 10
23.208679237420448
 20
-6.597629678787319
 10
23.167891818947517
 20
-6.696960066389071
 10
23.126495688485736
 20
-6.796038317229459
 10
23.08449240457601
 20
-6.894860701068342
 10
23.041883548618248
 20
-6.993423497298819
 10
22.998670724811788
 20
-7.091722995087323
 10
22.954855560095023
 20
-7.189755493513318
 10
22.91043970408414
 20
-7.28751730170865
 10
22.86542482901102
 20
-7.385004738996495
 10
22.81981262966026
 20
-7.4822141350299365
 10
22.773604823305384
 20
-7.579141829930159
 10
22.72680314964419
 20
-7.675784174424234
 10
22.67940937073324
 20
-7.772137529982511
 10
22.63142527092152
 20
-7.868198268955615
 10
22.582852656783263
 20
-7.9639627747110175
 10
22.533693357049945
 20
-8.0594274417692
 10
22.483949222541412
 20
-8.154588675939408
 10
22.433622126096214
 20
-8.249442894454958
 10
22.382713962501086
 20
-8.343986526108136
 10
22.331226648419616
 20
-8.438216011384647
 10
22.279162122320077
 20
-8.53212780259763
 10
22.22652234440245
 20
-8.625718364021221
 10
22.17330929652462
 20
-8.718984172023683
 10
22.11952498212777
 20
-8.811921715200057
 10
22.06517142616093
 20
-8.904527494504372
 10
22.010250675004762
 20
-8.996798023381379
 10
21.954764796394507
 20
-9.088729827897819
 10
21.89871587934214
 20
-9.180319446873206
 10
21.8421060340577
 20
-9.271563432010156
 10
21.784937391869875
 20
-9.3624583480242
 10
21.727212105145725
 20
-9.453000772773125
 10
21.66893234720967
 20
-9.543187297385813
 10
21.61010031226165
 20
-9.633014526390584
 10
21.55071821529454
 20
-9.722479077843039
 10
21.490788292010727
 20
-9.811577583453381
 10
21.430312798737944
 20
-9.90030668871323
 10
21.369294012344334
 20
-9.988663053021927
 10
21.307734230152715
 20
-10.076643349812294
 10
21.245635769854097
 20
-10.16424426667588
 10
21.18300096942041
 20
-10.25146250548768
 10
21.11983218701649
 20
-10.338294782530298
 10
21.056131800911288
 20
-10.424737828617584
 10
20.991902209388336
 20
-10.510788389217707
 10
20.927145830655462
 20
-10.596443224575697
 10
20.86186510275372
 20
-10.681699109835415
 10
20.79606248346561
 20
-10.766552835160969
 10
20.729740450222565
 20
-10.851001205857559
 10
20.662901500011653
 20
-10.935041042491761
 10
20.59554814928157
 20
-11.018669181011223
 10
20.5276829338479
 20
-11.101882472863796
 10
20.459308408797646
 20
-11.184677785116076
 10
20.39042714839303
 20
-11.267052000571349
 10
20.321041745974583
 20
-11.349002017886967
 10
20.25115481386348
 20
-11.430524751691093
 10
20.18076898326322
 20
-11.511617132698877
 10
20.10988690416054
 20
-11.592276107828006
 10
20.038511245225656
 20
-11.672498640313655
 10
19.966644693711785
 20
-11.752281709822821
 10
19.894289955353972
 20
-11.83162231256803
 10
19.821449754267224
 20
-11.910517461420428
 10
19.74812683284394
 20
-11.988964186022256
 10
19.67432395165067
 20
-12.06695953289867
 10
19.600043889324176
 20
-12.144500565568945
 10
19.525289442466825
 20
-12.221584364657026
 10
19.450063425541288
 20
-12.298208028001444
 10
19.374368670764582
 20
-12.37436867076458
 10
19.298208028001444
 20
-12.450063425541288
 10
19.221584364657026
 20
-12.525289442466825
 10
19.144500565568947
 20
-12.600043889324178
 10
19.06695953289867
 20
-12.67432395165067
 10
18.988964186022258
 20
-12.74812683284394
 10
18.91051746142043
 20
-12.821449754267224
 10
18.83162231256803
 20
-12.89428995535397
 10
18.75228170982282
 20
-12.966644693711784
 10
18.672498640313655
 20
-13.038511245225655
 10
18.592276107828006
 20
-13.109886904160536
 10
18.511617132698877
 20
-13.180768983263217
 10
18.430524751691095
 20
-13.251154813863478
 10
18.349002017886967
 20
-13.321041745974581
 10
18.26705200057135
 20
-13.390427148393032
 10
18.184677785116076
 20
-13.459308408797643
 10
18.101882472863796
 20
-13.527682933847897
 10
18.018669181011226
 20
-13.595548149281568
 10
17.93504104249176
 20
-13.662901500011651
 10
17.85100120585756
 20
-13.729740450222566
 10
17.76655283516097
 20
-13.79606248346561
 10
17.681699109835414
 20
-13.861865102753717
 10
17.596443224575697
 20
-13.92714583065546
 10
17.51078838921771
 20
-13.991902209388337
 10
17.424737828617587
 20
-14.056131800911285
 10
17.338294782530298
 20
-14.119832187016486
 10
17.25146250548768
 20
-14.183000969420409
 10
17.16424426667588
 20
-14.245635769854095
 10
17.076643349812294
 20
-14.307734230152715
 10
16.98866305302193
 20
-14.369294012344332
 10
16.90030668871323
 20
-14.430312798737942
 10
16.81157758345338
 20
-14.490788292010727
 10
16.72247907784304
 20
-14.550718215294541
 10
16.633014526390582
 20
-14.61010031226165
 10
16.543187297385813
 20
-14.668932347209665
 10
16.453000772773127
 20
-14.727212105145721
 10
16.3624583480242
 20
-14.784937391869873
 10
16.27156343201016
 20
-14.8421060340577
 10
16.180319446873206
 20
-14.898715879342141
 10
16.088729827897815
 20
-14.954764796394509
 10
15.996798023381379
 20
-15.010250675004762
 10
15.904527494504372
 20
-15.065171426160928
 10
15.811921715200057
 20
-15.119524982127768
 10
15.718984172023683
 20
-15.173309296524621
 10
15.625718364021221
 20
-15.226522344402449
 10
15.53212780259763
 20
-15.279162122320077
 10
15.43821601138465
 20
-15.331226648419616
 10
15.34398652610814
 20
-15.382713962501084
 10
15.249442894454962
 20
-15.43362212609621
 10
15.154588675939408
 20
-15.483949222541412
 10
15.0594274417692
 20
-15.533693357049945
 10
14.963962774711018
 20
-15.582852656783263
 10
14.868198268955616
 20
-15.631425270921518
 10
14.772137529982512
 20
-15.67940937073324
 10
14.675784174424235
 20
-15.726803149644192
 10
14.57914182993016
 20
-15.773604823305385
 10
14.482214135029938
 20
-15.819812629660259
 10
14.385004738996496
 20
-15.865424829011019
 10
14.287517301708654
 20
-15.91043970408414
 10
14.189755493513317
 20
-15.954855560095023
 10
14.091722995087324
 20
-15.998670724811786
 10
13.993423497298819
 20
-16.041883548618248
 10
13.894860701068342
 20
-16.08449240457601
 10
13.79603831722946
 20
-16.126495688485733
 10
13.696960066389071
 20
-16.167891818947517
 10
13.597629678787321
 20
-16.208679237420448
 10
13.498050894157158
 20
-16.24885640828127
 10
13.398227461583545
 20
-16.288421818882213
 10
13.298163139362295
 20
-16.32737397960793
 10
13.197861694858585
 20
-16.365711423931582
 10
13.097326904365104
 20
-16.403432708470064
 10
12.996562552959901
 20
-16.440536413038323
 10
12.895572434363851
 20
-16.477021140702863
 10
12.794360350797838
 20
-16.512885517834306
 10
12.692930112839601
 20
-16.548128194159123
 10
12.591285539280275
 20
-16.58274784281047
 10
12.489430456980603
 20
-16.616743160378142
 10
12.387368700726862
 20
-16.650112866957645
 10
12.285104113086494
 20
-16.682855706198392
 10
12.18264054426342
 20
-16.714970445350986
 10
12.07998185195309
 20
-16.746455875313657
 10
11.977131901197257
 20
-16.777310810677754
 10
11.87409456423843
 20
-16.8075340897724
 10
11.770873720374107
 20
-16.837124574708227
 10
11.667473255810723
 20
-16.866081151420197
 10
11.563897063517324
 20
-16.894402729709565
 10
11.460149043079007
 20
-16.92208824328491
 10
11.356233100550105
 20
-16.949136649802302
 10
11.25215314830712
 20
-16.97554693090452
 10
11.147913104901429
 20
-17.001318092259407
 10
11.043516894911747
 20
-17.026449163597302
 10
10.938968448796373
 20
-17.050939198747578
 10
10.834271702745221
 20
-17.07478727567425
 10
10.729430598531598
 20
-17.097992496510702
 10
10.624449083363825
 20
-17.120553987593485
 10
10.519331109736608
 20
-17.14247089949521
 10
10.414080635282247
 20
-17.16374240705653
 10
10.30870162262161
 20
-17.184367709417216
 10
10.203198039214968
 20
-17.204346030046285
 10
10.097573857212605
 20
-17.223676616771257
 10
9.991833053305275
 20
-17.24235874180647
 10
9.885979608574477
 20
-17.260391701780478
 10
9.780017508342574
 20
-17.277774817762523
 10
9.67395074202276
 20
-17.294507435288114
 10
9.56778330296883
 20
-17.31058892438367
 10
9.46151918832486
 20
-17.3260186795902
 10
9.35516239887471
 20
-17.340796119986152
 10
9.24871693889138
 20
-17.35492068920924
 10
9.142186815986285
 20
-17.368391855477423
 10
9.035576040958336
 20
-17.381209111608904
 10
8.928888627642955
 20
-17.39337197504123
 10
8.822128592760958
 20
-17.40487998784947
 10
8.715299955767314
 20
-17.415732716763443
 10
8.608406738699822
 20
-17.425929753184047
 10
8.501452966027697
 20
-17.435470713198615
 10
8.394442664500026
 20
-17.4443552375954
 10
8.28737986299418
 20
-17.45258299187708
 10
8.180268592364122
 20
-17.460153666273353
 10
8.073112885288651
 20
-17.467066975752612
 10
7.965916776119576
 20
-17.473322660032657
 10
7.858684300729817
 20
-17.478920483590517
 10
7.751419496361467
 20
-17.483860235671294
 10
7.644126401473782
 20
-17.488141730296118
 10
7.5368090555911404
 20
-17.49176480626913
 10
7.4294714991509645
 20
-17.494729327183574
 10
7.322117773351584
 20
-17.49703518142691
 10
7.214751920000099
 20
-17.49868228218503
 10
7.107377981360204
 20
-17.49967056744552
 10
7.0
 20
-17.5
 10
6.892622018639798
 20
-17.49967056744552
 10
6.785248079999903
 20
-17.49868228218503
 10
6.677882226648418
 20
-17.49703518142691
 10
6.570528500849037
 20
-17.494729327183574
 10
6.463190944408862
 20
-17.49176480626913
 10
6.35587359852622
 20
-17.488141730296118
 10
6.248580503638536
 20
-17.483860235671294
 10
6.1413156992701845
 20
-17.478920483590517
 10
6.034083223880426
 20
-17.473322660032657
 10
5.92688711471135
 20
-17.467066975752612
 10
5.819731407635881
 20
-17.460153666273353
 10
5.712620137005822
 20
-17.45258299187708
 10
5.605557335499975
 20
-17.444355237595403
 10
5.498547033972304
 20
-17.435470713198615
 10
5.39159326130018
 20
-17.425929753184047
 10
5.284700044232689
 20
-17.415732716763447
 10
5.177871407239045
 20
-17.40487998784947
 10
5.071111372357047
 20
-17.39337197504123
 10
4.9644239590416674
 20
-17.381209111608904
 10
4.857813184013717
 20
-17.368391855477423
 10
4.75128306110862
 20
-17.35492068920924
 10
4.6448376011252925
 20
-17.340796119986152
 10
4.53848081167514
 20
-17.3260186795902
 10
4.432216697031171
 20
-17.31058892438367
 10
4.3260492579772425
 20
-17.294507435288114
 10
4.219982491657428
 20
-17.277774817762523
 10
4.114020391425526
 20
-17.260391701780478
 10
4.008166946694728
 20
-17.24235874180647
 10
3.9024261427873967
 20
-17.223676616771257
 10
3.796801960785034
 20
-17.204346030046285
 10
3.6912983773783923
 20
-17.184367709417216
 10
3.5859193647177565
 20
-17.16374240705653
 10
3.4806688902633933
 20
-17.14247089949521
 10
3.3755509166361772
 20
-17.120553987593485
 10
3.270569401468403
 20
-17.097992496510702
 10
3.165728297254781
 20
-17.07478727567425
 10
3.0610315512036284
 20
-17.050939198747578
 10
2.956483105088255
 20
-17.026449163597302
 10
2.852086895098574
 20
-17.001318092259407
 10
2.7478468516928825
 20
-16.97554693090452
 10
2.643766899449898
 20
-16.949136649802305
 10
2.539850956920996
 20
-16.92208824328491
 10
2.43610293648268
 20
-16.894402729709565
 10
2.3325267441892796
 20
-16.866081151420197
 10
2.229126279625895
 20
-16.837124574708227
 10
2.125905435761573
 20
-16.807534089772403
 10
2.0228680988027454
 20
-16.777310810677754
 10
1.9200181480469123
 20
-16.746455875313657
 10
1.8173594557365824
 20
-16.714970445350986
 10
1.7148958869135082
 20
-16.682855706198392
 10
1.61263129927314
 20
-16.650112866957645
 10
1.5105695430194004
 20
-16.616743160378142
 10
1.4087144607197262
 20
-16.58274784281047
 10
1.3070698871603996
 20
-16.548128194159123
 10
1.2056396492021646
 20
-16.512885517834306
 10
1.1044275656361506
 20
-16.477021140702863
 10
1.0034374470401
 20
-16.440536413038323
 10
0.9026730956348983
 20
-16.403432708470064
 10
0.8021383051414182
 20
-16.365711423931582
 10
0.701836860637707
 20
-16.32737397960793
 10
0.6017725384164576
 20
-16.288421818882213
 10
0.5019491058428436
 20
-16.248856408281274
 10
0.4023703212126817
 20
-16.208679237420448
 10
0.30303993361092996
 20
-16.167891818947517
 10
0.20396168277054194
 20
-16.126495688485736
 10
0.10513929893166019
 20
-16.08449240457601
 10
0.006576502701182818
 20
-16.041883548618248
 10
-0.09172299508732085
 20
-15.998670724811786
 10
-0.18975549351331633
 20
-15.954855560095023
 10
-0.28751730170864764
 20
-15.910439704084144
 10
-0.38500473899649457
 20
-15.865424829011019
 10
-0.48221413502993293
 20
-15.81981262966026
 10
-0.5791418299301583
 20
-15.773604823305385
 10
-0.675784174424229
 20
-15.726803149644194
 10
-0.7721375299825102
 20
-15.679409370733241
 10
-0.8681982689556174
 20
-15.631425270921516
 10
-0.9639627747110149
 20
-15.582852656783265
 10
-1.0594274417692002
 20
-15.533693357049945
 10
-1.1545886759394044
 20
-15.483949222541414
 10
-1.24944289445496
 20
-15.433622126096214
 10
-1.343986526108134
 20
-15.382713962501086
 10
-1.4382160113846467
 20
-15.331226648419616
 10
-1.5321278025976248
 20
-15.279162122320079
 10
-1.6257183640212194
 20
-15.22652234440245
 10
-1.7189841720236778
 20
-15.173309296524623
 10
-1.8119217152000555
 20
-15.11952498212777
 10
-1.904527494504375
 20
-15.065171426160926
 10
-1.9967980233813787
 20
-15.010250675004762
 10
-2.0887298278978186
 20
-14.954764796394509
 10
-2.1803194468732023
 20
-14.898715879342141
 10
-2.271563432010158
 20
-14.842106034057702
 10
-2.362458348024198
 20
-14.784937391869876
 10
-2.453000772773125
 20
-14.727212105145723
 10
-2.54318729738581
 20
-14.668932347209669
 10
-2.633014526390582
 20
-14.610100312261652
 10
-2.722479077843035
 20
-14.550718215294545
 10
-2.811577583453378
 20
-14.490788292010727
 10
-2.900306688713231
 20
-14.43031279873794
 10
-2.9886630530219254
 20
-14.369294012344334
 10
-3.0766433498122936
 20
-14.307734230152715
 10
-3.164244266675878
 20
-14.245635769854099
 10
-3.2514625054876802
 20
-14.183000969420409
 10
-3.338294782530296
 20
-14.11983218701649
 10
-3.424737828617584
 20
-14.056131800911286
 10
-3.510788389217703
 20
-13.991902209388341
 10
-3.5964432245756957
 20
-13.927145830655462
 10
-3.6816991098354173
 20
-13.861865102753715
 10
-3.766552835160967
 20
-13.796062483465612
 10
-3.8510012058575604
 20
-13.729740450222565
 10
-3.9350410424917595
 20
-13.662901500011655
 10
-4.018669181011225
 20
-13.595548149281568
 10
-4.101882472863794
 20
-13.527682933847899
 10
-4.184677785116076
 20
-13.459308408797643
 10
-4.267052000571347
 20
-13.390427148393034
 10
-4.349002017886967
 20
-13.321041745974583
 10
-4.43052475169109
 20
-13.251154813863481
 10
-4.511617132698877
 20
-13.180768983263219
 10
-4.592276107828008
 20
-13.109886904160536
 10
-4.672498640313654
 20
-13.038511245225656
 10
-4.752281709822823
 20
-12.966644693711782
 10
-4.831622312568026
 20
-12.894289955353976
 10
-4.910517461420428
 20
-12.821449754267224
 10
-4.988964186022255
 20
-12.748126832843942
 10
-5.066959532898672
 20
-12.67432395165067
 10
-5.144500565568942
 20
-12.600043889324182
 10
-5.221584364657025
 20
-12.525289442466827
 10
-5.298208028001438
 20
-12.450063425541291
 10
-5.37436867076458
 20
-12.374368670764582
 10
-5.450063425541289
 20
-12.29820802800144
 10
-5.525289442466825
 20
-12.221584364657026
 10
-5.600043889324178
 20
-12.144500565568945
 10
-5.674323951650669
 20
-12.066959532898673
 10
-5.7481268328439405
 20
-11.988964186022256
 10
-5.821449754267222
 20
-11.910517461420431
 10
-5.8942899553539725
 20
-11.83162231256803
 10
-5.96664469371178
 20
-11.752281709822824
 10
-6.038511245225655
 20
-11.672498640313657
 10
-6.109886904160534
 20
-11.59227610782801
 10
-6.180768983263217
 20
-11.511617132698879
 10
-6.251154813863479
 20
-11.430524751691092
 10
-6.321041745974579
 20
-11.349002017886969
 10
-6.390427148393032
 20
-11.267052000571349
 10
-6.459308408797641
 20
-11.184677785116078
 10
-6.527682933847897
 20
-11.101882472863796
 10
-6.595548149281566
 20
-11.018669181011226
 10
-6.662901500011653
 20
-10.935041042491761
 10
-6.729740450222563
 20
-10.851001205857566
 10
-6.79606248346561
 20
-10.76655283516097
 10
-6.861865102753713
 20
-10.681699109835419
 10
-6.92714583065546
 20
-10.5964432245757
 10
-6.991902209388339
 20
-10.510788389217705
 10
-7.056131800911285
 20
-10.424737828617586
 10
-7.119832187016488
 20
-10.338294782530298
 10
-7.183000969420407
 20
-10.251462505487682
 10
-7.245635769854097
 20
-10.16424426667588
 10
-7.307734230152713
 20
-10.076643349812295
 10
-7.369294012344332
 20
-9.988663053021927
 10
-7.430312798737939
 20
-9.900306688713236
 10
-7.490788292010725
 20
-9.811577583453383
 10
-7.550718215294543
 20
-9.722479077843039
 10
-7.61010031226165
 20
-9.633014526390586
 10
-7.668932347209667
 20
-9.543187297385812
 10
-7.727212105145721
 20
-9.453000772773127
 10
-7.7849373918698745
 20
-9.3624583480242
 10
-7.8421060340577
 20
-9.27156343201016
 10
-7.8987158793421415
 20
-9.180319446873206
 10
-7.954764796394507
 20
-9.08872982789782
 10
-8.01025067500476
 20
-8.99679802338138
 10
-8.065171426160925
 20
-8.904527494504379
 10
-8.119524982127768
 20
-8.811921715200059
 10
-8.173309296524623
 20
-8.718984172023681
 10
-8.226522344402449
 20
-8.625718364021223
 10
-8.279162122320077
 20
-8.532127802597628
 10
-8.331226648419614
 20
-8.43821601138465
 10
-8.382713962501086
 20
-8.343986526108136
 10
-8.43362212609621
 20
-8.249442894454962
 10
-8.483949222541412
 20
-8.154588675939408
 10
-8.533693357049941
 20
-8.059427441769204
 10
-8.582852656783263
 20
-7.963962774711018
 10
-8.631425270921516
 20
-7.86819826895562
 10
-8.67940937073324
 20
-7.772137529982513
 10
-8.726803149644194
 20
-7.675784174424232
 10
-8.773604823305384
 20
-7.579141829930161
 10
-8.819812629660259
 20
-7.482214135029936
 10
-8.865424829011019
 20
-7.385004738996497
 10
-8.910439704084142
 20
-7.28751730170865
 10
-8.954855560095021
 20
-7.1897554935133225
 10
-8.998670724811786
 20
-7.0917229950873235
 10
-9.041883548618245
 20
-6.993423497298823
 10
-9.084492404576011
 20
-6.8948607010683425
 10
-9.126495688485733
 20
-6.796038317229465
 10
-9.167891818947517
 20
-6.696960066389073
 10
-9.208679237420448
 20
-6.597629678787317
 10
-9.24885640828127
 20
-6.49805089415716
 10
-9.288421818882213
 20
-6.3982274615835415
 10
-9.32737397960793
 20
-6.298163139362296
 10
-9.365711423931582
 20
-6.197861694858582
 10
-9.40343270847006
 20
-6.097326904365109
 10
-9.440536413038323
 20
-5.996562552959903
 10
-9.477021140702863
 20
-5.895572434363856
 10
-9.512885517834306
 20
-5.794360350797838
 10
-9.54812819415912
 20
-5.692930112839607
 10
-9.58274784281047
 20
-5.5912855392802765
 10
-9.616743160378142
 20
-5.4894304569806
 10
-9.650112866957645
 20
-5.387368700726863
 10
-9.682855706198392
 20
-5.285104113086491
 10
-9.714970445350986
 20
-5.18264054426342
 10
-9.746455875313654
 20
-5.079981851953092
 10
-9.77731081067775
 20
-4.977131901197262
 10
-9.8075340897724
 20
-4.874094564238431
 10
-9.837124574708227
 20
-4.770873720374112
 10
-9.866081151420197
 20
-4.667473255810723
 10
-9.894402729709562
 20
-4.563897063517327
 10
-9.922088243284911
 20
-4.4601490430790065
 10
-9.949136649802305
 20
-4.356233100550102
 10
-9.975546930904521
 20
-4.252153148307121
 10
-10.001318092259407
 20
-4.147913104901425
 10
-10.026449163597302
 20
-4.043516894911749
 10
-10.050939198747578
 20
-3.9389684487963748
 10
-10.074787275674247
 20
-3.8342717027452258
 10
-10.097992496510702
 20
-3.7294305985315996
 10
-10.120553987593482
 20
-3.62444908336383
 10
-10.142470899495208
 20
-3.5193311097366102
 10
-10.163742407056532
 20
-3.4140806352822506
 10
-10.184367709417216
 20
-3.3087016226216113
 10
-10.204346030046285
 20
-3.2031980392149655
 10
-10.223676616771257
 20
-3.0975738572126064
 10
-10.24235874180647
 20
-2.9918330533052715
 10
-10.260391701780474
 20
-2.8859796085744773
 10
-10.277774817762523
 20
-2.780017508342576
 10
-10.294507435288114
 20
-2.6739507420227646
 10
-10.31058892438367
 20
-2.5677833029688317
 10
-10.326018679590199
 20
-2.461519188324867
 10
-10.340796119986152
 20
-2.3551623988747097
 10
-10.35492068920924
 20
-2.248716938891379
 10
-10.368391855477423
 20
-2.1421868159862862
 10
-10.381209111608904
 20
-2.0355760409583326
 10
-10.39337197504123
 20
-1.9288886276429567
 10
-10.404879987849469
 20
-1.822128592760955
 10
-10.415732716763443
 20
-1.7152999557673145
 10
-10.425929753184047
 20
-1.608406738699823
 10
-10.435470713198615
 20
-1.5014529660277027
 10
-10.4443552375954
 20
-1.3944426645000285
 10
-10.45258299187708
 20
-1.2873798629941853
 10
-10.460153666273353
 20
-1.1802685923641232
 10
-10.467066975752612
 20
-1.0731128852886485
 10
-10.473322660032657
 20
-0.9659167761195766
 10
-10.478920483590517
 20
-0.8586843007298144
 10
-10.483860235671294
 20
-0.7514194963614679
 10
-10.488141730296118
 20
-0.6441264014737795
 10
-10.491764806269131
 20
-0.5368090555911451
 10
-10.494729327183574
 20
-0.4294714991509657
 10
-10.49703518142691
 20
-0.32211777335158925
 10
-10.49868228218503
 20
-0.21475192000010013
 10
-10.49967056744552
 20
-0.10737798136020898
 10
-10.5
 20
0.0
 10
-10.49967056744552
 20
0.1073779813602047
 10
-10.49868228218503
 20
0.21475192000009585
 10
-10.49703518142691
 20
0.32211777335158503
 10
-10.494729327183574
 20
0.4294714991509614
 10
-10.491764806269131
 20
0.5368090555911408
 10
-10.488141730296118
 20
0.6441264014737752
 10
-10.483860235671294
 20
0.7514194963614637
 10
-10.478920483590517
 20
0.8586843007298102
 10
-10.473322660032657
 20
0.9659167761195724
 10
-10.467066975752612
 20
1.0731128852886442
 10
-10.460153666273353
 20
1.1802685923641187
 10
-10.45258299187708
 20
1.2873798629941813
 10
-10.444355237595403
 20
1.394442664500024
 10
-10.435470713198615
 20
1.5014529660276987
 10
-10.425929753184047
 20
1.608406738699819
 10
-10.415732716763447
 20
1.7152999557673103
 10
-10.404879987849473
 20
1.8221285927609507
 10
-10.39337197504123
 20
1.9288886276429527
 10
-10.381209111608907
 20
2.035576040958328
 10
-10.368391855477423
 20
2.142186815986282
 10
-10.35492068920924
 20
2.248716938891375
 10
-10.340796119986152
 20
2.355162398874706
 10
-10.326018679590199
 20
2.461519188324863
 10
-10.31058892438367
 20
2.5677833029688277
 10
-10.294507435288114
 20
2.67395074202276
 10
-10.277774817762523
 20
2.7800175083425716
 10
-10.260391701780478
 20
2.8859796085744733
 10
-10.242358741806473
 20
2.991833053305267
 10
-10.223676616771261
 20
3.097573857212602
 10
-10.204346030046288
 20
3.2031980392149615
 10
-10.184367709417216
 20
3.308701622621607
 10
-10.163742407056532
 20
3.414080635282246
 10
-10.142470899495208
 20
3.519331109736606
 10
-10.120553987593485
 20
3.6244490833638254
 10
-10.097992496510702
 20
3.729430598531596
 10
-10.07478727567425
 20
3.8342717027452213
 10
-10.050939198747578
 20
3.9389684487963708
 10
-10.026449163597302
 20
4.043516894911744
 10
-10.001318092259407
 20
4.147913104901422
 10
-9.975546930904521
 20
4.252153148307117
 10
-9.949136649802305
 20
4.356233100550098
 10
-9.922088243284914
 20
4.460149043079003
 10
-9.894402729709565
 20
4.563897063517324
 10
-9.8660811514202
 20
4.6674732558107195
 10
-9.837124574708227
 20
4.770873720374108
 10
-9.807534089772403
 20
4.874094564238425
 10
-9.777310810677754
 20
4.977131901197257
 10
-9.746455875313657
 20
5.079981851953087
 10
-9.714970445350989
 20
5.182640544263417
 10
-9.682855706198396
 20
5.285104113086486
 10
-9.650112866957649
 20
5.387368700726859
 10
-9.616743160378142
 20
5.489430456980596
 10
-9.58274784281047
 20
5.591285539280273
 10
-9.548128194159123
 20
5.692930112839602
 10
-9.512885517834306
 20
5.7943603507978345
 10
-9.477021140702863
 20
5.895572434363852
 10
-9.440536413038327
 20
5.996562552959899
 10
-9.403432708470064
 20
6.097326904365105
 10
-9.365711423931586
 20
6.197861694858577
 10
-9.32737397960793
 20
6.298163139362292
 10
-9.288421818882217
 20
6.398227461583538
 10
-9.248856408281274
 20
6.498050894157155
 10
-9.208679237420451
 20
6.597629678787314
 10
-9.16789181894752
 20
6.696960066389069
 10
-9.126495688485733
 20
6.796038317229462
 10
-9.084492404576011
 20
6.894860701068339
 10
-9.041883548618248
 20
6.99342349729882
 10
-8.998670724811786
 20
7.09172299508732
 10
-8.954855560095023
 20
7.189755493513318
 10
-8.910439704084144
 20
7.287517301708646
 10
-8.86542482901102
 20
7.385004738996494
 10
-8.81981262966026
 20
7.482214135029932
 10
-8.773604823305385
 20
7.579141829930157
 10
-8.726803149644196
 20
7.675784174424228
 10
-8.679409370733241
 20
7.772137529982509
 10
-8.631425270921518
 20
7.8681982689556165
 10
-8.582852656783265
 20
7.963962774711014
 10
-8.533693357049945
 20
8.0594274417692
 10
-8.483949222541414
 20
8.154588675939404
 10
-8.433622126096214
 20
8.249442894454958
 10
-8.38271396250109
 20
8.343986526108132
 10
-8.331226648419616
 20
8.438216011384647
 10
-8.279162122320079
 20
8.532127802597625
 10
-8.22652234440245
 20
8.62571836402122
 10
-8.173309296524625
 20
8.718984172023676
 10
-8.11952498212777
 20
8.811921715200056
 10
-8.065171426160928
 20
8.904527494504375
 10
-8.010250675004762
 20
8.996798023381377
 10
-7.9547647963945085
 20
9.088729827897819
 10
-7.898715879342143
 20
9.180319446873202
 10
-7.842106034057702
 20
9.271563432010156
 10
-7.784937391869876
 20
9.362458348024196
 10
-7.727212105145723
 20
9.453000772773125
 10
-7.668932347209669
 20
9.543187297385808
 10
-7.610100312261652
 20
9.633014526390582
 10
-7.550718215294545
 20
9.722479077843035
 10
-7.490788292010727
 20
9.811577583453378
 10
-7.430312798737942
 20
9.900306688713231
 10
-7.369294012344334
 20
9.988663053021925
 10
-7.307734230152715
 20
10.076643349812294
 10
-7.245635769854099
 20
10.164244266675876
 10
-7.183000969420409
 20
10.25146250548768
 10
-7.11983218701649
 20
10.338294782530294
 10
-7.056131800911286
 20
10.424737828617582
 10
-6.991902209388341
 20
10.510788389217701
 10
-6.927145830655462
 20
10.596443224575696
 10
-6.861865102753715
 20
10.681699109835415
 10
-6.796062483465612
 20
10.766552835160967
 10
-6.729740450222566
 20
10.85100120585756
 10
-6.662901500011655
 20
10.93504104249176
 10
-6.5955481492815675
 20
11.018669181011223
 10
-6.527682933847899
 20
11.101882472863792
 10
-6.459308408797645
 20
11.184677785116076
 10
-6.390427148393034
 20
11.267052000571347
 10
-6.321041745974583
 20
11.349002017886965
 10
-6.251154813863483
 20
11.43052475169109
 10
-6.180768983263221
 20
11.511617132698873
 10
-6.109886904160536
 20
11.592276107828006
 10
-6.038511245225656
 20
11.672498640313654
 10
-5.966644693711784
 20
11.752281709822823
 10
-5.894289955353976
 20
11.831622312568026
 10
-5.821449754267224
 20
11.910517461420428
 10
-5.748126832843944
 20
11.988964186022253
 10
-5.674323951650672
 20
12.06695953289867
 10
-5.6000438893241835
 20
12.144500565568942
 10
-5.525289442466827
 20
12.221584364657025
 10
-5.450063425541291
 20
12.298208028001438
 10
-5.374368670764584
 20
12.37436867076458
 10
-5.298208028001444
 20
12.450063425541288
 10
-5.221584364657028
 20
12.525289442466823
 10
-5.144500565568945
 20
12.600043889324178
 10
-5.066959532898673
 20
12.674323951650669
 10
-4.988964186022256
 20
12.74812683284394
 10
-4.910517461420431
 20
12.82144975426722
 10
-4.831622312568031
 20
12.89428995535397
 10
-4.752281709822826
 20
12.96664469371178
 10
-4.672498640313657
 20
13.038511245225653
 10
-4.59227610782801
 20
13.109886904160533
 10
-4.511617132698879
 20
13.180768983263217
 10
-4.430524751691099
 20
13.251154813863474
 10
-4.3490020178869635
 20
13.321041745974584
 10
-4.267052000571351
 20
13.390427148393032
 10
-4.1846777851160795
 20
13.459308408797641
 10
-4.101882472863803
 20
13.527682933847892
 10
-4.018669181011219
 20
13.59554814928157
 10
-3.935041042491763
 20
13.662901500011651
 10
-3.851001205857566
 20
13.729740450222563
 10
-3.7665528351609776
 20
13.796062483465603
 10
-3.6816991098354137
 20
13.861865102753717
 10
-3.596443224575699
 20
13.92714583065546
 10
-3.510788389217712
 20
13.991902209388334
 10
-3.4247378286175802
 20
14.056131800911288
 10
-3.3382947825302995
 20
14.119832187016486
 10
-3.251462505487684
 20
14.183000969420407
 10
-3.1642442666758868
 20
14.245635769854092
 10
-3.076643349812292
 20
14.307734230152716
 10
-2.988663053021929
 20
14.369294012344332
 10
-2.9003066887132363
 20
14.430312798737939
 10
-2.8115775834533885
 20
14.49078829201072
 10
-2.7224790778430386
 20
14.550718215294541
 10
-2.6330145263905855
 20
14.61010031226165
 10
-2.5431872973858187
 20
14.668932347209662
 10
-2.453000772773123
 20
14.727212105145725
 10
-2.3624583480242016
 20
14.784937391869873
 10
-2.2715634320101614
 20
14.8421060340577
 10
-2.1803194468732148
 20
14.898715879342134
 10
-2.088729827897815
 20
14.954764796394512
 10
-1.9967980233813805
 20
15.01025067500476
 10
-1.9045274945043786
 20
15.065171426160925
 10
-1.8119217152000662
 20
15.119524982127764
 10
-1.7189841720236814
 20
15.173309296524621
 10
-1.625718364021223
 20
15.226522344402449
 10
-1.5321278025976355
 20
15.279162122320074
 10
-1.438216011384645
 20
15.331226648419618
 10
-1.3439865261081376
 20
15.382713962501084
 10
-1.2494428944549618
 20
15.43362212609621
 10
-1.154588675939415
 20
15.483949222541407
 10
-1.0594274417691985
 20
15.533693357049946
 10
-0.9639627747110193
 20
15.582852656783263
 10
-0.8681982689556209
 20
15.631425270921516
 10
-0.7721375299825208
 20
15.679409370733236
 10
-0.6757841744242334
 20
15.726803149644192
 10
-0.5791418299301618
 20
15.773604823305384
 10
-0.4822141350299436
 20
15.819812629660255
 10
-0.3850047389964919
 20
15.86542482901102
 10
-0.2875173017086512
 20
15.910439704084142
 10
-0.18975549351332344
 20
15.954855560095021
 10
-0.0917229950873315
 20
15.998670724811783
 10
0.00657650270118193
 20
16.041883548618248
 10
0.10513929893165663
 20
16.084492404576007
 10
0.20396168277053395
 20
16.126495688485733
 10
0.3030399336109193
 20
16.167891818947513
 10
0.4023703212126817
 20
16.208679237420448
 10
0.5019491058428391
 20
16.24885640828127
 10
0.6017725384164496
 20
16.288421818882213
 10
0.7018368606377106
 20
16.32737397960793
 10
0.8021383051414173
 20
16.365711423931582
 10
0.9026730956348903
 20
16.40343270847006
 10
1.0034374470400893
 20
16.44053641303832
 10
1.1044275656361506
 20
16.477021140702863
 10
1.2056396492021602
 20
16.512885517834306
 10
1.3070698871603916
 20
16.54812819415912
 10
1.4087144607197306
 20
16.58274784281047
 10
1.5105695430193995
 20
16.616743160378142
 10
1.6126312992731355
 20
16.650112866957645
 10
1.7148958869135011
 20
16.682855706198392
 10
1.817359455736586
 20
16.71497044535099
 10
1.920018148046907
 20
16.746455875313654
 10
2.0228680988027374
 20
16.77731081067775
 10
2.1259054357615614
 20
16.8075340897724
 10
2.229126279625895
 20
16.837124574708227
 10
2.332526744189276
 20
16.866081151420197
 10
2.436102936482672
 20
16.89440272970956
 10
2.539850956920999
 20
16.922088243284914
 10
2.643766899449897
 20
16.949136649802302
 10
2.747846851692878
 20
16.97554693090452
 10
2.852086895098566
 20
17.001318092259403
 10
2.9564831050882585
 20
17.026449163597302
 10
3.061031551203624
 20
17.050939198747578
 10
3.1657282972547733
 20
17.074787275674247
 10
3.2705694014683915
 20
17.0979924965107
 10
3.375550916636177
 20
17.120553987593485
 10
3.480668890263389
 20
17.14247089949521
 10
3.5859193647177485
 20
17.16374240705653
 10
3.6912983773783954
 20
17.18436770941722
 10
3.796801960785033
 20
17.204346030046285
 10
3.9024261427873923
 20
17.223676616771257
 10
4.00816694669472
 20
17.24235874180647
 10
4.114020391425529
 20
17.260391701780478
 10
4.219982491657423
 20
17.27777481776252
 10
4.3260492579772345
 20
17.294507435288114
 10
4.43221669703116
 20
17.310588924383666
 10
4.538480811675139
 20
17.3260186795902
 10
4.644837601125289
 20
17.340796119986152
 10
4.751283061108612
 20
17.35492068920924
 10
4.857813184013721
 20
17.368391855477427
 10
4.964423959041667
 20
17.381209111608904
 10
5.071111372357042
 20
17.39337197504123
 10
5.177871407239036
 20
17.40487998784947
 10
5.284700044232692
 20
17.415732716763447
 10
5.391593261300176
 20
17.425929753184047
 10
5.4985470339722955
 20
17.435470713198615
 10
5.605557335499963
 20
17.4443552375954
 10
5.712620137005821
 20
17.45258299187708
 10
5.819731407635876
 20
17.460153666273353
 10
5.926887114711342
 20
17.467066975752612
 10
6.03408322388043
 20
17.473322660032657
 10
6.1413156992701845
 20
17.478920483590517
 10
6.248580503638531
 20
17.483860235671294
 10
6.355873598526212
 20
17.488141730296114
 10
6.463190944408861
 20
17.49176480626913
 10
6.570528500849033
 20
17.494729327183574
 10
6.67788222664841
 20
17.49703518142691
 10
6.785248079999891
 20
17.49868228218503
 10
6.8926220186397975
 20
17.49967056744552
 10
7.0
 20
17.5
 10
7.107377981360196
 20
17.49967056744552
 10
7.2147519200001025
 20
17.49868228218503
 10
7.322117773351584
 20
17.49703518142691
 10
7.42947149915096
 20
17.494729327183574
 10
7.536809055591132
 20
17.49176480626913
 10
7.644126401473782
 20
17.488141730296118
 10
7.751419496361462
 20
17.483860235671294
 10
7.858684300729809
 20
17.478920483590517
 10
7.965916776119563
 20
17.473322660032657
 10
8.073112885288651
 20
17.467066975752612
 10
8.180268592364119
 20
17.460153666273353
 10
8.287379862994172
 20
17.45258299187708
 10
8.39444266450003
 20
17.4443552375954
 10
8.501452966027697
 20
17.435470713198615
 10
8.608406738699818
 20
17.425929753184047
 10
8.715299955767302
 20
17.415732716763447
 10
8.822128592760958
 20
17.40487998784947
 10
8.928888627642952
 20
17.39337197504123
 10
9.035576040958327
 20
17.381209111608907
 10
9.142186815986273
 20
17.368391855477427
 10
9.24871693889138
 20
17.35492068920924
 10
9.355162398874704
 20
17.340796119986152
 10
9.461519188324854
 20
17.3260186795902
 10
9.567783302968834
 20
17.310588924383666
 10
9.67395074202276
 20
17.294507435288114
 10
9.78001750834257
 20
17.277774817762523
 10
9.885979608574464
 20
17.260391701780478
 10
9.991833053305273
 20
17.24235874180647
 10
10.097573857212602
 20
17.22367661677126
 10
10.20319803921496
 20
17.20434603004629
 10
10.308701622621598
 20
17.18436770941722
 10
10.414080635282245
 20
17.16374240705653
 10
10.519331109736605
 20
17.142470899495212
 10
10.624449083363817
 20
17.120553987593485
 10
10.729430598531602
 20
17.0979924965107
 10
10.83427170274522
 20
17.07478727567425
 10
10.93896844879637
 20
17.050939198747578
 10
11.043516894911736
 20
17.026449163597306
 10
11.147913104901427
 20
17.001318092259407
 10
11.252153148307116
 20
16.97554693090452
 10
11.356233100550096
 20
16.949136649802305
 10
11.460149043078994
 20
16.922088243284914
 10
11.563897063517322
 20
16.894402729709565
 10
11.66747325581072
 20
16.8660811514202
 10
11.770873720374098
 20
16.83712457470823
 10
11.874094564238433
 20
16.8075340897724
 10
11.977131901197255
 20
16.777310810677754
 10
12.079981851953086
 20
16.746455875313657
 10
12.182640544263407
 20
16.71497044535099
 10
12.285104113086494
 20
16.682855706198392
 10
12.387368700726858
 20
16.65011286695765
 10
12.489430456980596
 20
16.616743160378142
 10
12.591285539280264
 20
16.582747842810473
 10
12.692930112839601
 20
16.548128194159123
 10
12.794360350797835
 20
16.512885517834306
 10
12.895572434363842
 20
16.477021140702867
 10
12.996562552959904
 20
16.440536413038323
 10
13.097326904365104
 20
16.403432708470064
 10
13.197861694858577
 20
16.365711423931586
 10
13.298163139362284
 20
16.327373979607934
 10
13.398227461583545
 20
16.288421818882213
 10
13.498050894157153
 20
16.248856408281274
 10
13.597629678787314
 20
16.20867923742045
 10
13.696960066389074
 20
16.167891818947517
 10
13.79603831722946
 20
16.126495688485733
 10
13.894860701068339
 20
16.084492404576014
 10
13.993423497298812
 20
16.041883548618248
 10
14.091722995087325
 20
15.998670724811785
 10
14.189755493513317
 20
15.954855560095023
 10
14.287517301708645
 20
15.910439704084144
 10
14.385004738996486
 20
15.865424829011022
 10
14.482214135029938
 20
15.819812629660259
 10
14.579141829930157
 20
15.773604823305387
 10
14.675784174424226
 20
15.726803149644196
 10
14.772137529982516
 20
15.679409370733238
 10
14.868198268955616
 20
15.631425270921518
 10
14.963962774711014
 20
15.582852656783265
 10
15.059427441769193
 20
15.533693357049948
 10
15.15458867593941
 20
15.48394922254141
 10
15.249442894454958
 20
15.433622126096214
 10
15.343986526108132
 20
15.38271396250109
 10
15.43821601138464
 20
15.331226648419621
 10
15.53212780259763
 20
15.279162122320077
 10
15.625718364021218
 20
15.22652234440245
 10
15.718984172023676
 20
15.173309296524625
 10
15.81192171520006
 20
15.119524982127766
 10
15.904527494504372
 20
15.065171426160928
 10
15.996798023381377
 20
15.010250675004764
 10
16.08872982789781
 20
14.954764796394514
 10
16.18031944687321
 20
14.89871587934214
 10
16.271563432010154
 20
14.842106034057704
 10
16.362458348024198
 20
14.784937391869876
 10
16.453000772773116
 20
14.727212105145728
 10
16.543187297385813
 20
14.668932347209665
 10
16.633014526390582
 20
14.610100312261652
 10
16.722479077843033
 20
14.550718215294545
 10
16.811577583453385
 20
14.490788292010725
 10
16.90030668871323
 20
14.430312798737942
 10
16.988663053021924
 20
14.369294012344335
 10
17.076643349812286
 20
14.30773423015272
 10
17.16424426667588
 20
14.245635769854095
 10
17.25146250548768
 20
14.18300096942041
 10
17.338294782530294
 20
14.11983218701649
 10
17.424737828617577
 20
14.056131800911292
 10
17.51078838921771
 20
13.991902209388337
 10
17.596443224575694
 20
13.927145830655464
 10
17.68169910983541
 20
13.86186510275372
 10
17.766552835160972
 20
13.796062483465606
 10
17.851001205857557
 20
13.729740450222566
 10
17.935041042491758
 20
13.662901500011655
 10
18.018669181011216
 20
13.595548149281573
 10
18.1018824728638
 20
13.527682933847895
 10
18.184677785116072
 20
13.459308408797645
 10
18.267052000571347
 20
13.390427148393035
 10
18.34900201788696
 20
13.32104174597459
 10
18.430524751691095
 20
13.25115481386348
 10
18.511617132698873
 20
13.18076898326322
 10
18.592276107828
 20
13.109886904160543
 10
18.67249864031366
 20
13.038511245225653
 10
18.75228170982282
 20
12.966644693711784
 10
18.831622312568022
 20
12.894289955353976
 10
18.910517461420422
 20
12.82144975426723
 10
18.988964186022258
 20
12.748126832843939
 10
19.06695953289867
 20
12.674323951650672
 10
19.14450056556894
 20
12.600043889324184
 10
19.221584364657016
 20
12.525289442466834
 10
19.298208028001444
 20
12.450063425541288
 10
19.37436867076458
 20
12.374368670764584
 10
19.45006342554128
 20
12.298208028001449
 10
19.52528944246683
 20
12.221584364657023
 10
19.600043889324176
 20
12.144500565568945
 10
19.674323951650667
 20
12.066959532898675
 10
19.748126832843937
 20
11.988964186022264
 10
19.821449754267228
 20
11.910517461420428
 10
19.89428995535397
 20
11.831622312568031
 10
19.96664469371178
 20
11.752281709822826
 10
20.038511245225646
 20
11.672498640313666
 10
20.10988690416054
 20
11.592276107828006
 10
20.180768983263214
 20
11.51161713269888
 10
20.251154813863472
 20
11.430524751691099
 10
20.321041745974583
 20
11.349002017886965
 10
20.39042714839303
 20
11.26705200057135
 10
20.45930840879764
 20
11.18467778511608
 10
20.527682933847892
 20
11.101882472863803
 10
20.59554814928157
 20
11.018669181011223
 10
20.66290150001165
 20
10.935041042491763
 10
20.729740450222565
 20
10.851001205857568
 10
20.796062483465604
 20
10.76655283516098
 10
20.86186510275372
 20
10.681699109835415
 10
20.92714583065546
 20
10.5964432245757
 10
20.991902209388336
 20
10.510788389217712
 10
21.056131800911288
 20
10.424737828617582
 10
21.119832187016485
 20
10.3382947825303
 10
21.183000969420405
 20
10.251462505487684
 10
21.24563576985409
 20
10.164244266675887
 10
21.307734230152715
 20
10.076643349812292
 10
21.36929401234433
 20
9.988663053021929
 10
21.430312798737937
 20
9.900306688713238
 10
21.49078829201072
 20
9.81157758345339
 10
21.55071821529454
 20
9.722479077843039
 10
21.61010031226165
 20
9.633014526390587
 10
21.66893234720966
 20
9.543187297385819
 10
21.727212105145725
 20
9.453000772773123
 10
21.784937391869875
 20
9.362458348024202
 10
21.8421060340577
 20
9.271563432010161
 10
21.898715879342134
 20
9.180319446873215
 10
21.954764796394507
 20
9.088729827897817
 10
22.010250675004762
 20
8.996798023381382
 10
22.065171426160923
 20
8.90452749450438
 10
22.11952498212776
 20
8.811921715200068
 10
22.17330929652462
 20
8.718984172023683
 10
22.226522344402447
 20
8.625718364021225
 10
22.279162122320074
 20
8.532127802597637
 10
22.331226648419616
 20
8.438216011384645
 10
22.382713962501086
 20
8.343986526108138
 10
22.43362212609621
 20
8.249442894454964
 10
22.483949222541405
 20
8.154588675939417
 10
22.533693357049945
 20
8.059427441769198
 10
22.58285265678326
 20
7.96396277471102
 10
22.631425270921515
 20
7.868198268955622
 10
22.679409370733236
 20
7.772137529982522
 10
22.72680314964419
 20
7.675784174424234
 10
22.773604823305384
 20
7.579141829930163
 10
22.819812629660255
 20
7.4822141350299445
 10
22.86542482901102
 20
7.385004738996493
 10
22.91043970408414
 20
7.287517301708652
 10
22.95485556009502
 20
7.189755493513324
 10
22.99867072481178
 20
7.091722995087332
 10
23.041883548618248
 20
6.993423497298819
 10
23.084492404576007
 20
6.894860701068344
 10
23.126495688485733
 20
6.796038317229467
 10
23.167891818947513
 20
6.696960066389082
 10
23.208679237420448
 20
6.597629678787319
 10
23.24885640828127
 20
6.498050894157162
 10
23.28842181888221
 20
6.398227461583551
 10
23.32737397960793
 20
6.29816313936229
 10
23.365711423931582
 20
6.197861694858584
 10
23.40343270847006
 20
6.097326904365111
 10
23.44053641303832
 20
5.996562552959912
 10
23.477021140702863
 20
5.89557243436385
 10
23.512885517834306
 20
5.794360350797841
 10
23.54812819415912
 20
5.692930112839609
 10
23.58274784281047
 20
5.591285539280271
 10
23.616743160378142
 20
5.489430456980601
 10
23.650112866957645
 20
5.387368700726865
 10
23.68285570619839
 20
5.285104113086501
 10
23.71497044535099
 20
5.182640544263415
 10
23.746455875313654
 20
5.079981851953094
 10
23.77731081067775
 20
4.9771319011972635
 10
23.8075340897724
 20
4.8740945642384395
 10
23.837124574708227
 20
4.770873720374107
 10
23.866081151420197
 20
4.667473255810726
 10
23.89440272970956
 20
4.563897063517329
 10
23.922088243284914
 20
4.460149043079002
 10
23.949136649802302
 20
4.356233100550104
 10
23.97554693090452
 20
4.252153148307123
 10
24.001318092259403
 20
4.147913104901435
 10
24.026449163597302
 20
4.043516894911742
 10
24.050939198747578
 20
3.938968448796377
 10
24.074787275674247
 20
3.8342717027452276
 10
24.0979924965107
 20
3.7294305985316094
 10
24.120553987593485
 20
3.6244490833638245
 10
24.14247089949521
 20
3.519331109736612
 10
24.16374240705653
 20
3.414080635282253
 10
24.18436770941722
 20
3.3087016226216055
 10
24.204346030046285
 20
3.2031980392149677
 10
24.223676616771257
 20
3.0975738572126086
 10
24.24235874180647
 20
2.991833053305281
 10
24.260391701780478
 20
2.8859796085744716
 10
24.27777481776252
 20
2.7800175083425778
 10
24.294507435288114
 20
2.6739507420227664
 10
24.310588924383666
 20
2.567783302968842
 10
24.3260186795902
 20
2.461519188324861
 10
24.340796119986152
 20
2.3551623988747123
 10
24.35492068920924
 20
2.2487169388913886
 10
24.368391855477423
 20
2.1421868159862805
 10
24.381209111608904
 20
2.0355760409583348
 10
24.39337197504123
 20
1.9288886276429589
 10
24.40487998784947
 20
1.8221285927609647
 10
24.415732716763447
 20
1.7152999557673088
 10
24.425929753184047
 20
1.6084067386998253
 10
24.435470713198615
 20
1.501452966027705
 10
24.4443552375954
 20
1.394442664500038
 10
24.45258299187708
 20
1.2873798629941797
 10
24.460153666273353
 20
1.180268592364125
 10
24.467066975752612
 20
1.0731128852886584
 10
24.473322660032657
 20
0.965916776119571
 10
24.478920483590517
 20
0.8586843007298166
 10
24.483860235671294
 20
0.75141949636147
 10
24.488141730296114
 20
0.6441264014737894
 10
24.49176480626913
 20
0.5368090555911395
 10
24.494729327183574
 20
0.42947149915096783
 10
24.49703518142691
 20
0.3221177733515915
 10
24.49868228218503
 20
0.21475192000011
 10
24.49967056744552
 20
0.10737798136020335
 10
24.5
 20
0.0
 10
24.49967056744552
 20
-0.10737798136020332
  0
LWPOLYLINE
  5
32
330
17
100
AcDbEntity
  8
CUT
100
AcDbPolyline
 90
917
 70
1
 10
5.999548211034867
 20
0.07362922971432344
 10
5.998983490774941
 20
0.11044037943483136
 10
5.998192912177226
 20
0.1472473711374747
 10
5.997176505006559
 20
0.18404881905981926
 10
5.995934307530097
 20
0.22084333764815636
 10
5.994466366515872
 20
0.25762954160964685
 10
5.992772737231034
 20
0.29440604596450853
 10
5.990853483439769
 20
0.33117146609813863
 10
5.988708677400895
 20
0.36792441781325436
 10
5.98633839986515
 20
0.4046635173819857
 10
5.983742740072142
 20
0.4413873815980045
 10
5.980921795746994
 20
0.4780946278285845
 10
5.977875673096668
 20
0.5147838740666417
 10
5.9746044868059585
 20
0.5514537389827973
 10
5.971108360033181
 20
0.5881028419773631
 10
5.9673874244055325
 20
0.6247298032323307
 10
5.963441820014136
 20
0.6613332437633002
 10
5.959271695408767
 20
0.697911785471429
 10
5.95487720759226
 20
0.7344640511952962
 10
5.950258522014597
 20
0.7709886647627618
 10
5.94541581256668
 20
0.8074842510427584
 10
5.9403492615737825
 20
0.8439494359970953
 10
5.935059059788685
 20
0.8803828467321744
 10
5.929545406384497
 20
0.9167831115506628
 10
5.92380850894715
 20
0.9531488600031695
 10
5.917848583467592
 20
0.9894787229398189
 10
5.911665854333647
 20
1.0257713325618107
 10
5.905260554321574
 20
1.0620253224728944
 10
5.8986329245872975
 20
1.098239327730846
 10
5.891783214657332
 20
1.134411984898836
 10
5.884711682419382
 20
1.1705419320967723
 10
5.877418594112643
 20
1.2066278090525526
 10
5.869904224317766
 20
1.2426682571533112
 10
5.862168855946525
 20
1.2786619194965518
 10
5.854212780231171
 20
1.314607440941221
 10
5.846036296713455
 20
1.3505034681587578
 10
5.8376397132333615
 20
1.386348649684026
 10
5.82902334591751
 20
1.4221416359662062
 10
5.820187519167264
 20
1.4578810794195851
 10
5.811132565646504
 20
1.4935656344743213
 10
5.801858826269113
 20
1.5291939576270863
 10
5.7923666501861355
 20
1.5647647074916557
 10
5.782656394772639
 20
1.6002765448493914
 10
5.7727284256142495
 20
1.6357281326996937
 10
5.762583116493394
 20
1.671118136310322
 10
5.752220849375229
 20
1.7064452232676333
 10
5.741642014393253
 20
1.741708063526775
 10
5.7308470098346245
 20
1.7769053294617425
 10
5.719836242125162
 20
1.8120356959153714
 10
5.70861012581405
 20
1.8470978402492109
 10
5.6971690835582205
 20
1.882090442393349
 10
5.685513546106447
 20
1.9170121848960928
 10
5.673643952283127
 20
1.9518617529735802
 10
5.661560748971762
 20
1.9866378345592595
 10
5.649264391098125
 20
2.02133912035332
 10
5.636755341613139
 20
2.0559643038719697
 10
5.6240340714754495
 20
2.0905120814966094
 10
5.611101059633685
 20
2.124981152522943
 10
5.597956793008434
 20
2.159370219209928
 10
5.5846017664739005
 20
2.193677986828646
 10
5.571036482839293
 20
2.227903163711027
 10
5.557261452829868
 20
2.2620444612985096
 10
5.543277195067719
 20
2.296100594190542
 10
5.529084236052251
 20
2.33007028019296
 10
5.514683110140346
 20
2.36395224036629
 10
5.5000743595262565
 20
2.3977451990738805
 10
5.485258534221183
 20
2.4314478840299425
 10
5.470236192032578
 20
2.4650590263474257
 10
5.455007898543134
 20
2.4985773605858235
 10
5.4395742270894925
 20
2.5320016247987973
 10
5.423935758740659
 20
2.565330560581695
 10
5.408093082276132
 20
2.598562913118913
 10
5.392046794163723
 20
2.631697431231166
 10
5.375797498537109
 20
2.664732867422579
 10
5.35934580717309
 20
2.697667977927642
 10
5.342692339468547
 20
2.730501522758064
 10
5.325837722417123
 20
2.7632322657494397
 10
5.308782590585625
 20
2.7958589746078
 10
5.291527586090129
 20
2.8283804209559875
 10
5.2740733585718
 20
2.8607953803799333
 10
5.256420565172441
 20
2.8931026324747355
 10
5.238569870509739
 20
2.925300960890618
 10
5.220521946652268
 20
2.9573891533787053
 10
5.202277473094156
 20
2.989366001836691
 10
5.183837136729518
 20
3.021230302354309
 10
5.165201631826602
 20
3.0529808552586446
 10
5.146371660001632
 20
3.084616465159331
 10
5.127347930192403
 20
3.116135940993537
 10
5.108131158631589
 20
3.147538096070816
 10
5.0887220688197825
 20
3.1788217481177696
 10
5.069121391498242
 20
3.2099857193225834
 10
5.049329864621391
 20
3.2410288363793565
 10
5.029348233329026
 20
3.271949930532281
 10
5.009177249918279
 20
3.30274783761963
 10
4.988817673815271
 20
3.333421398117613
 10
4.968270271546532
 20
3.3639694571840195
 10
4.94753581671015
 20
3.3943908647016814
 10
4.926615089946627
 20
3.424684475321804
 10
4.905508878909503
 20
3.4548491485070714
 10
4.8842179782356885
 20
3.48488374857459
 10
4.862743189515568
 20
3.5147871447386345
 10
4.841085321262796
 20
3.5445582111532454
 10
4.819245188883871
 20
3.5741958269545995
 10
4.797223614647429
 20
3.603698876303216
 10
4.7750214276533
 20
3.633066248425954
 10
4.752639463801274
 20
3.662296837657857
 10
4.730078565759635
 20
3.6913895434837642
 10
4.70733958293345
 20
3.720343270579737
 10
4.684423371432566
 20
3.749156928854319
 10
4.6613307940393955
 20
3.777829433489562
 10
4.6380627201764195
 20
3.8063597049818756
 10
4.614620025873477
 20
3.834746669182656
 10
4.591003593734753
 20
3.862989257338749
 10
4.567214312905572
 20
3.8910864061326738
 10
4.543253079038905
 20
3.9190370577226625
 10
4.519120794261674
 20
3.9468401597824734
 10
4.494818367140756
 20
3.9744946655410307
 10
4.470346712648793
 20
4.001999533821828
 10
4.4457067521297535
 20
4.029353729082112
 10
4.420899413264219
 20
4.056556221451896
 10
4.395925630034478
 20
4.083605986772718
 10
4.37078634268935
 20
4.110502006636205
 10
4.3454824977088
 20
4.137243268422403
 10
4.3200150477682895
 20
4.163828765337924
 10
4.294384951702913
 20
4.190257496453836
 10
4.268593174471297
 20
4.216528466743354
 10
4.242640687119284
 20
4.242640687119286
 10
4.216528466743352
 20
4.268593174471299
 10
4.190257496453834
 20
4.294384951702915
 10
4.1638287653379225
 20
4.320015047768291
 10
4.1372432684224005
 20
4.345482497708802
 10
4.110502006636203
 20
4.3707863426893505
 10
4.083605986772716
 20
4.395925630034479
 10
4.056556221451894
 20
4.42089941326422
 10
4.02935372908211
 20
4.445706752129754
 10
4.001999533821826
 20
4.470346712648795
 10
3.9744946655410285
 20
4.494818367140757
 10
3.946840159782471
 20
4.519120794261676
 10
3.9190370577226608
 20
4.543253079038907
 10
3.891086406132672
 20
4.567214312905573
 10
3.862989257338747
 20
4.591003593734755
 10
3.8347466691826537
 20
4.614620025873478
 10
3.8063597049818734
 20
4.638062720176421
 10
3.77782943348956
 20
4.661330794039396
 10
3.7491569288543167
 20
4.684423371432567
 10
3.7203432705797344
 20
4.707339582933452
 10
3.691389543483762
 20
4.730078565759637
 10
3.6622968376578546
 20
4.752639463801276
 10
3.633066248425952
 20
4.775021427653302
 10
3.6036988763032136
 20
4.7972236146474305
 10
3.5741958269545977
 20
4.819245188883872
 10
3.5445582111532437
 20
4.8410853212627964
 10
3.5147871447386327
 20
4.8627431895155695
 10
3.484883748574588
 20
4.884217978235689
 10
3.454849148507069
 20
4.9055088789095045
 10
3.4246844753218024
 20
4.92661508994663
 10
3.3943908647016787
 20
4.947535816710152
 10
3.3639694571840177
 20
4.968270271546534
 10
3.3334213981176113
 20
4.988817673815273
 10
3.302747837619628
 20
5.009177249918281
 10
3.271949930532279
 20
5.029348233329028
 10
3.2410288363793542
 20
5.049329864621392
 10
3.2099857193225816
 20
5.069121391498244
 10
3.178821748117768
 20
5.088722068819784
 10
3.1475380960708144
 20
5.108131158631591
 10
3.1161359409935354
 20
5.127347930192404
 10
3.0846164651593293
 20
5.146371660001633
 10
3.052980855258642
 20
5.165201631826604
 10
3.021230302354307
 20
5.18383713672952
 10
2.989366001836689
 20
5.202277473094157
 10
2.957389153378703
 20
5.220521946652269
 10
2.925300960890616
 20
5.238569870509741
 10
2.8931026324747333
 20
5.256420565172442
 10
2.860795380379931
 20
5.274073358571802
 10
2.8283804209559857
 20
5.2915275860901305
 10
2.795858974607798
 20
5.308782590585626
 10
2.7632322657494375
 20
5.325837722417125
 10
2.7305015227580616
 20
5.342692339468548
 10
2.6976679779276393
 20
5.359345807173092
 10
2.6647328674225763
 20
5.37579749853711
 10
2.6316974312311636
 20
5.392046794163724
 10
2.5985629131189105
 20
5.408093082276133
 10
2.565330560581693
 20
5.42393575874066
 10
2.532001624798795
 20
5.439574227089493
 10
2.4985773605858212
 20
5.455007898543135
 10
2.465059026347423
 20
5.470236192032579
 10
2.4314478840299403
 20
5.485258534221184
 10
2.3977451990738783
 20
5.500074359526257
 10
2.363952240366287
 20
5.514683110140347
 10
2.330070280192958
 20
5.529084236052252
 10
2.29610059419054
 20
5.54327719506772
 10
2.2620444612985073
 20
5.557261452829869
 10
2.2279031637110243
 20
5.571036482839293
 10
2.193677986828644
 20
5.584601766473902
 10
2.159370219209926
 20
5.597956793008434
 10
2.1249811525229405
 20
5.611101059633686
 10
2.090512081496607
 20
5.6240340714754495
 10
2.055964303871967
 20
5.636755341613139
 10
2.0213391203533178
 20
5.649264391098125
 10
2.0
 20
5.656825882108292
 10
2.0
 20
8.3
 10
-2.0
 20
8.3
 10
-2.0
 20
5.656825882108292
 10
-2.0213391203533195
 20
5.649264391098125
 10
-2.0559643038719693
 20
5.636755341613139
 10
-2.090512081496609
 20
5.6240340714754495
 10
-2.1249811525229427
 20
5.611101059633686
 10
-2.1593702192099276
 20
5.597956793008434
 10
-2.1936779868286456
 20
5.584601766473901
 10
-2.2279031637110265
 20
5.571036482839293
 10
-2.262044461298509
 20
5.557261452829868
 10
-2.296100594190542
 20
5.543277195067719
 10
-2.3300702801929596
 20
5.529084236052251
 10
-2.3639522403662894
 20
5.514683110140346
 10
-2.3977451990738805
 20
5.5000743595262565
 10
-2.431447884029942
 20
5.485258534221183
 10
-2.4650590263474252
 20
5.470236192032578
 10
-2.4985773605858235
 20
5.455007898543134
 10
-2.532001624798797
 20
5.4395742270894925
 10
-2.5653305605816947
 20
5.423935758740659
 10
-2.5985629131189127
 20
5.408093082276132
 10
-2.6316974312311654
 20
5.392046794163723
 10
-2.6647328674225785
 20
5.375797498537109
 10
-2.6976679779276416
 20
5.359345807173091
 10
-2.730501522758064
 20
5.342692339468547
 10
-2.7632322657494393
 20
5.325837722417124
 10
-2.7958589746077998
 20
5.308782590585626
 10
-2.828380420955987
 20
5.29152758609013
 10
-2.860795380379933
 20
5.2740733585718
 10
-2.8931026324747355
 20
5.256420565172441
 10
-2.9253009608906178
 20
5.238569870509739
 10
-2.9573891533787053
 20
5.220521946652268
 10
-2.9893660018366908
 20
5.202277473094156
 10
-3.021230302354308
 20
5.183837136729519
 10
-3.052980855258644
 20
5.165201631826602
 10
-3.0846164651593306
 20
5.146371660001632
 10
-3.1161359409935363
 20
5.127347930192403
 10
-3.147538096070816
 20
5.108131158631589
 10
-3.1788217481177696
 20
5.0887220688197825
 10
-3.2099857193225834
 20
5.069121391498242
 10
-3.2410288363793565
 20
5.0493298646213916
 10
-3.271949930532281
 20
5.029348233329027
 10
-3.3027478376196298
 20
5.00917724991828
 10
-3.333421398117613
 20
4.988817673815271
 10
-3.3639694571840186
 20
4.968270271546533
 10
-3.3943908647016805
 20
4.94753581671015
 10
-3.424684475321804
 20
4.926615089946628
 10
-3.4548491485070714
 20
4.905508878909503
 10
-3.48488374857459
 20
4.8842179782356885
 10
-3.5147871447386345
 20
4.862743189515568
 10
-3.5445582111532454
 20
4.841085321262796
 10
-3.5741958269545986
 20
4.819245188883871
 10
-3.603698876303216
 20
4.797223614647429
 10
-3.633066248425954
 20
4.775021427653301
 10
-3.6622968376578564
 20
4.752639463801274
 10
-3.691389543483764
 20
4.730078565759635
 10
-3.7203432705797366
 20
4.70733958293345
 10
-3.749156928854319
 20
4.684423371432566
 10
-3.7778294334895612
 20
4.6613307940393955
 10
-3.8063597049818756
 20
4.6380627201764195
 10
-3.834746669182656
 20
4.614620025873477
 10
-3.862989257338749
 20
4.5910035937347535
 10
-3.8910864061326733
 20
4.567214312905572
 10
-3.9190370577226625
 20
4.543253079038905
 10
-3.9468401597824725
 20
4.519120794261674
 10
-3.974494665541032
 20
4.494818367140754
 10
-4.0019995338218255
 20
4.470346712648795
 10
-4.029353729082112
 20
4.4457067521297535
 10
-4.056556221451896
 20
4.420899413264219
 10
-4.083605986772719
 20
4.395925630034475
 10
-4.110502006636202
 20
4.370786342689351
 10
-4.137243268422402
 20
4.345482497708801
 10
-4.163828765337924
 20
4.32001504776829
 10
-4.190257496453838
 20
4.294384951702911
 10
-4.216528466743352
 20
4.268593174471299
 10
-4.242640687119286
 20
4.242640687119285
 10
-4.2685931744713
 20
4.21652846674335
 10
-4.294384951702912
 20
4.190257496453837
 10
-4.320015047768291
 20
4.1638287653379225
 10
-4.345482497708802
 20
4.1372432684224005
 10
-4.370786342689352
 20
4.110502006636201
 10
-4.395925630034477
 20
4.083605986772718
 10
-4.42089941326422
 20
4.056556221451895
 10
-4.445706752129754
 20
4.029353729082111
 10
-4.470346712648796
 20
4.001999533821824
 10
-4.4948183671407556
 20
3.9744946655410307
 10
-4.519120794261676
 20
3.946840159782471
 10
-4.543253079038909
 20
3.919037057722659
 10
-4.567214312905572
 20
3.8910864061326738
 10
-4.591003593734754
 20
3.8629892573387474
 10
-4.614620025873478
 20
3.834746669182654
 10
-4.638062720176423
 20
3.8063597049818716
 10
-4.661330794039395
 20
3.777829433489562
 10
-4.684423371432567
 20
3.749156928854317
 10
-4.707339582933452
 20
3.7203432705797352
 10
-4.730078565759638
 20
3.6913895434837602
 10
-4.752639463801273
 20
3.662296837657857
 10
-4.775021427653302
 20
3.6330662484259526
 10
-4.797223614647431
 20
3.603698876303212
 10
-4.81924518888387
 20
3.5741958269545995
 10
-4.8410853212627964
 20
3.5445582111532437
 10
-4.862743189515569
 20
3.514787144738633
 10
-4.884217978235691
 20
3.484883748574586
 10
-4.905508878909503
 20
3.454849148507072
 10
-4.926615089946629
 20
3.424684475321803
 10
-4.947535816710152
 20
3.3943908647016796
 10
-4.968270271546535
 20
3.3639694571840155
 10
-4.988817673815273
 20
3.3334213981176117
 10
-5.009177249918281
 20
3.302747837619628
 10
-5.02934823332903
 20
3.271949930532277
 10
-5.049329864621391
 20
3.241028836379357
 10
-5.069121391498244
 20
3.2099857193225816
 10
-5.088722068819783
 20
3.178821748117768
 10
-5.108131158631592
 20
3.1475380960708126
 10
-5.127347930192403
 20
3.116135940993538
 10
-5.146371660001632
 20
3.0846164651593293
 10
-5.165201631826604
 20
3.0529808552586424
 10
-5.183837136729521
 20
3.021230302354305
 10
-5.202277473094157
 20
2.9893660018366894
 10
-5.220521946652269
 20
2.9573891533787036
 10
-5.238569870509741
 20
2.925300960890614
 10
-5.25642056517244
 20
2.893102632474736
 10
-5.274073358571802
 20
2.860795380379931
 10
-5.2915275860901305
 20
2.8283804209559857
 10
-5.308782590585627
 20
2.7958589746077958
 10
-5.325837722417123
 20
2.7632322657494406
 10
-5.342692339468548
 20
2.730501522758062
 10
-5.359345807173092
 20
2.69766797792764
 10
-5.3757974985371115
 20
2.6647328674225745
 10
-5.392046794163724
 20
2.631697431231164
 10
-5.408093082276132
 20
2.598562913118911
 10
-5.423935758740661
 20
2.5653305605816907
 10
-5.4395742270894925
 20
2.5320016247987978
 10
-5.455007898543135
 20
2.4985773605858217
 10
-5.470236192032579
 20
2.4650590263474235
 10
-5.485258534221185
 20
2.431447884029938
 10
-5.5000743595262565
 20
2.397745199073881
 10
-5.514683110140346
 20
2.3639522403662876
 10
-5.529084236052252
 20
2.3300702801929583
 10
-5.543277195067721
 20
2.296100594190538
 10
-5.557261452829869
 20
2.2620444612985073
 10
-5.571036482839293
 20
2.2279031637110247
 10
-5.584601766473903
 20
2.1936779868286416
 10
-5.597956793008434
 20
2.1593702192099284
 10
-5.611101059633686
 20
2.124981152522941
 10
-5.6240340714754495
 20
2.090512081496607
 10
-5.63675534161314
 20
2.0559643038719653
 10
-5.649264391098125
 20
2.0213391203533204
 10
-5.6615607489717625
 20
1.9866378345592577
 10
-5.673643952283127
 20
1.9518617529735778
 10
-5.685513546106447
 20
1.9170121848960935
 10
-5.6971690835582205
 20
1.882090442393347
 10
-5.708610125814051
 20
1.8470978402492089
 10
-5.719836242125163
 20
1.812035695915367
 10
-5.7308470098346245
 20
1.7769053294617427
 10
-5.741642014393253
 20
1.7417080635267728
 10
-5.752220849375229
 20
1.706445223267631
 10
-5.762583116493396
 20
1.6711181363103174
 10
-5.7727284256142495
 20
1.6357281326996942
 10
-5.78265639477264
 20
1.6002765448493896
 10
-5.792366650186136
 20
1.5647647074916538
 10
-5.801858826269113
 20
1.5291939576270868
 10
-5.8111325656465045
 20
1.4935656344743191
 10
-5.820187519167264
 20
1.457881079419583
 10
-5.829023345917511
 20
1.4221416359662018
 10
-5.8376397132333615
 20
1.3863486496840265
 10
-5.846036296713455
 20
1.3505034681587555
 10
-5.854212780231172
 20
1.3146074409412187
 10
-5.862168855946527
 20
1.2786619194965472
 10
-5.869904224317766
 20
1.2426682571533116
 10
-5.877418594112643
 20
1.2066278090525506
 10
-5.884711682419383
 20
1.17054193209677
 10
-5.891783214657331
 20
1.1344119848988368
 10
-5.898632924587298
 20
1.0982393277308438
 10
-5.905260554321575
 20
1.0620253224728922
 10
-5.911665854333648
 20
1.0257713325618059
 10
-5.917848583467592
 20
0.9894787229398194
 10
-5.92380850894715
 20
0.9531488600031673
 10
-5.929545406384497
 20
0.9167831115506606
 10
-5.935059059788686
 20
0.8803828467321695
 10
-5.9403492615737825
 20
0.8439494359970958
 10
-5.94541581256668
 20
0.8074842510427563
 10
-5.950258522014597
 20
0.7709886647627571
 10
-5.95487720759226
 20
0.7344640511952966
 10
-5.959271695408768
 20
0.6979117854714268
 10
-5.963441820014136
 20
0.661333243763298
 10
-5.967387424405533
 20
0.624729803232326
 10
-5.971108360033181
 20
0.5881028419773635
 10
-5.9746044868059585
 20
0.5514537389827951
 10
-5.977875673096668
 20
0.5147838740666395
 10
-5.980921795746995
 20
0.4780946278285797
 10
-5.983742740072142
 20
0.44138738159800495
 10
-5.98633839986515
 20
0.4046635173819836
 10
-5.988708677400895
 20
0.36792441781324947
 10
-5.990853483439769
 20
0.3311714660981391
 10
-5.992772737231034
 20
0.29440604596450637
 10
-5.994466366515872
 20
0.2576295416096447
 10
-5.9959343075300975
 20
0.2208433376481515
 10
-5.997176505006559
 20
0.1840488190598197
 10
-5.998192912177226
 20
0.1472473711374725
 10
-5.998983490774941
 20
0.11044037943482915
 10
-5.999548211034867
 20
0.07362922971431857
 10
-5.999887051695607
 20
0.036815307894927325
 10
-6.0
 20
0.0
 10
-5.999887051695607
 20
-0.03681530789492879
 10
-5.999548211034867
 20
-0.07362922971432004
 10
-5.998983490774941
 20
-0.11044037943483061
 10
-5.998192912177226
 20
-0.14724737113747396
 10
-5.997176505006559
 20
-0.18404881905982118
 10
-5.9959343075300975
 20
-0.220843337648153
 10
-5.994466366515872
 20
-0.25762954160964613
 10
-5.992772737231034
 20
-0.2944060459645078
 10
-5.990853483439769
 20
-0.3311714660981406
 10
-5.988708677400895
 20
-0.3679244178132509
 10
-5.98633839986515
 20
-0.404663517381985
 10
-5.983742740072142
 20
-0.4413873815980064
 10
-5.980921795746994
 20
-0.47809462782858114
 10
-5.977875673096668
 20
-0.514783874066641
 10
-5.9746044868059585
 20
-0.5514537389827965
 10
-5.971108360033181
 20
-0.588102841977365
 10
-5.9673874244055325
 20
-0.6247298032323274
 10
-5.963441820014136
 20
-0.6613332437632995
 10
-5.959271695408767
 20
-0.6979117854714283
 10
-5.95487720759226
 20
-0.7344640511952981
 10
-5.950258522014597
 20
-0.7709886647627585
 10
-5.94541581256668
 20
-0.8074842510427577
 10
-5.9403492615737825
 20
-0.8439494359970973
 10
-5.935059059788686
 20
-0.8803828467321708
 10
-5.929545406384497
 20
-0.9167831115506622
 10
-5.92380850894715
 20
-0.9531488600031688
 10
-5.917848583467592
 20
-0.9894787229398209
 10
-5.9116658543336476
 20
-1.0257713325618072
 10
-5.905260554321574
 20
-1.0620253224728937
 10
-5.8986329245872975
 20
-1.0982393277308453
 10
-5.891783214657331
 20
-1.134411984898838
 10
-5.884711682419383
 20
-1.1705419320967716
 10
-5.877418594112643
 20
-1.2066278090525522
 10
-5.869904224317765
 20
-1.242668257153313
 10
-5.862168855946527
 20
-1.2786619194965485
 10
-5.854212780231171
 20
-1.3146074409412203
 10
-5.846036296713455
 20
-1.3505034681587569
 10
-5.837639713233361
 20
-1.386348649684028
 10
-5.829023345917511
 20
-1.4221416359662031
 10
-5.820187519167264
 20
-1.4578810794195844
 10
-5.8111325656465045
 20
-1.4935656344743204
 10
-5.801858826269113
 20
-1.529193957627088
 10
-5.7923666501861355
 20
-1.564764707491655
 10
-5.782656394772639
 20
-1.600276544849391
 10
-5.772728425614249
 20
-1.6357281326996955
 10
-5.762583116493395
 20
-1.671118136310319
 10
-5.752220849375229
 20
-1.7064452232676326
 10
-5.741642014393253
 20
-1.7417080635267743
 10
-5.7308470098346245
 20
-1.776905329461744
 10
-5.719836242125163
 20
-1.8120356959153683
 10
-5.70861012581405
 20
-1.8470978402492102
 10
-5.6971690835582205
 20
-1.8820904423933484
 10
-5.6855135461064465
 20
-1.9170121848960948
 10
-5.673643952283127
 20
-1.9518617529735796
 10
-5.6615607489717625
 20
-1.986637834559259
 10
-5.649264391098124
 20
-2.021339120353322
 10
-5.6367553416131395
 20
-2.0559643038719666
 10
-5.6240340714754495
 20
-2.090512081496609
 10
-5.611101059633686
 20
-2.1249811525229423
 10
-5.597956793008433
 20
-2.15937021920993
 10
-5.584601766473902
 20
-2.193677986828643
 10
-5.571036482839293
 20
-2.2279031637110265
 10
-5.557261452829868
 20
-2.262044461298509
 10
-5.54327719506772
 20
-2.2961005941905395
 10
-5.529084236052251
 20
-2.3300702801929596
 10
-5.514683110140346
 20
-2.363952240366289
 10
-5.500074359526256
 20
-2.3977451990738823
 10
-5.485258534221185
 20
-2.4314478840299394
 10
-5.470236192032578
 20
-2.465059026347425
 10
-5.455007898543134
 20
-2.498577360585823
 10
-5.4395742270894925
 20
-2.532001624798799
 10
-5.42393575874066
 20
-2.565330560581692
 10
-5.408093082276132
 20
-2.5985629131189123
 10
-5.392046794163724
 20
-2.6316974312311654
 10
-5.375797498537111
 20
-2.664732867422576
 10
-5.359345807173091
 20
-2.697667977927641
 10
-5.342692339468547
 20
-2.7305015227580633
 10
-5.325837722417123
 20
-2.7632322657494415
 10
-5.3087825905856265
 20
-2.795858974607797
 10
-5.29152758609013
 20
-2.828380420955987
 10
-5.274073358571801
 20
-2.8607953803799324
 10
-5.256420565172439
 20
-2.8931026324747373
 10
-5.238569870509741
 20
-2.925300960890615
 10
-5.220521946652268
 20
-2.957389153378705
 10
-5.202277473094156
 20
-2.9893660018366903
 10
-5.183837136729521
 20
-3.021230302354306
 10
-5.165201631826602
 20
-3.052980855258644
 10
-5.146371660001632
 20
-3.0846164651593306
 10
-5.1273479301924025
 20
-3.1161359409935385
 10
-5.108131158631592
 20
-3.1475380960708135
 10
-5.0887220688197825
 20
-3.1788217481177687
 10
-5.069121391498243
 20
-3.209985719322583
 10
-5.04932986462139
 20
-3.241028836379358
 10
-5.029348233329029
 20
-3.271949930532278
 10
-5.00917724991828
 20
-3.3027478376196298
 10
-4.988817673815272
 20
-3.333421398117613
 10
-4.968270271546534
 20
-3.363969457184017
 10
-4.94753581671015
 20
-3.3943908647016805
 10
-4.926615089946628
 20
-3.4246844753218033
 10
-4.905508878909502
 20
-3.4548491485070727
 10
-4.88421797823569
 20
-3.484883748574587
 10
-4.862743189515568
 20
-3.5147871447386336
 10
-4.841085321262796
 20
-3.544558211153245
 10
-4.819245188883869
 20
-3.574195826954601
 10
-4.7972236146474305
 20
-3.603698876303213
 10
-4.775021427653301
 20
-3.633066248425954
 10
-4.752639463801273
 20
-3.662296837657858
 10
-4.730078565759637
 20
-3.6913895434837616
 10
-4.70733958293345
 20
-3.7203432705797366
 10
-4.684423371432567
 20
-3.749156928854318
 10
-4.661330794039394
 20
-3.777829433489563
 10
-4.638062720176422
 20
-3.806359704981873
 10
-4.614620025873477
 20
-3.834746669182655
 10
-4.5910035937347535
 20
-3.8629892573387483
 10
-4.56721431290557
 20
-3.8910864061326755
 10
-4.543253079038907
 20
-3.91903705772266
 10
-4.519120794261674
 20
-3.9468401597824725
 10
-4.494818367140755
 20
-3.974494665541032
 10
-4.470346712648796
 20
-4.0019995338218255
 10
-4.4457067521297535
 20
-4.0293537290821115
 10
-4.42089941326422
 20
-4.0565562214518955
 10
-4.395925630034476
 20
-4.083605986772719
 10
-4.370786342689351
 20
-4.110502006636202
 10
-4.345482497708801
 20
-4.137243268422402
 10
-4.32001504776829
 20
-4.163828765337924
 10
-4.294384951702911
 20
-4.190257496453837
 10
-4.268593174471299
 20
-4.216528466743351
 10
-4.242640687119285
 20
-4.242640687119286
 10
-4.21652846674335
 20
-4.2685931744713
 10
-4.190257496453837
 20
-4.294384951702912
 10
-4.1638287653379225
 20
-4.32001504776829
 10
-4.137243268422401
 20
-4.345482497708801
 10
-4.110502006636201
 20
-4.370786342689351
 10
-4.083605986772718
 20
-4.395925630034477
 10
-4.056556221451895
 20
-4.42089941326422
 10
-4.029353729082111
 20
-4.4457067521297535
 10
-4.001999533821824
 20
-4.470346712648796
 10
-3.974494665541031
 20
-4.4948183671407556
 10
-3.9468401597824716
 20
-4.519120794261675
 10
-3.919037057722659
 20
-4.543253079038908
 10
-3.8910864061326746
 20
-4.567214312905572
 10
-3.8629892573387474
 20
-4.591003593734754
 10
-3.834746669182654
 20
-4.614620025873478
 10
-3.8063597049818725
 20
-4.638062720176423
 10
-3.7778294334895626
 20
-4.661330794039395
 10
-3.749156928854317
 20
-4.684423371432567
 10
-3.7203432705797352
 20
-4.707339582933451
 10
-3.6913895434837602
 20
-4.730078565759638
 10
-3.6622968376578573
 20
-4.752639463801273
 10
-3.6330662484259526
 20
-4.775021427653302
 10
-3.6036988763032127
 20
-4.797223614647431
 10
-3.5741958269546004
 20
-4.81924518888387
 10
-3.5445582111532445
 20
-4.8410853212627964
 10
-3.514787144738633
 20
-4.862743189515569
 10
-3.4848837485745863
 20
-4.884217978235691
 10
-3.454849148507072
 20
-4.905508878909503
 10
-3.424684475321803
 20
-4.926615089946629
 10
-3.3943908647016796
 20
-4.947535816710151
 10
-3.3639694571840155
 20
-4.968270271546535
 10
-3.3334213981176117
 20
-4.988817673815273
 10
-3.302747837619628
 20
-5.009177249918281
 10
-3.2719499305322772
 20
-5.02934823332903
 10
-3.241028836379357
 20
-5.049329864621391
 10
-3.2099857193225825
 20
-5.069121391498244
 10
-3.1788217481177683
 20
-5.088722068819783
 10
-3.1475380960708126
 20
-5.108131158631592
 10
-3.116135940993538
 20
-5.127347930192403
 10
-3.08461646515933
 20
-5.146371660001632
 10
-3.0529808552586424
 20
-5.165201631826603
 10
-3.021230302354305
 20
-5.183837136729521
 10
-2.9893660018366894
 20
-5.202277473094156
 10
-2.957389153378704
 20
-5.220521946652269
 10
-2.925300960890614
 20
-5.238569870509741
 10
-2.8931026324747364
 20
-5.25642056517244
 10
-2.8607953803799315
 20
-5.274073358571801
 10
-2.828380420955986
 20
-5.2915275860901305
 10
-2.795858974607796
 20
-5.308782590585627
 10
-2.7632322657494406
 20
-5.325837722417123
 10
-2.7305015227580625
 20
-5.342692339468548
 10
-2.6976679779276402
 20
-5.359345807173091
 10
-2.664732867422575
 20
-5.3757974985371115
 10
-2.6316974312311645
 20
-5.392046794163724
 10
-2.5985629131189114
 20
-5.408093082276132
 10
-2.565330560581691
 20
-5.423935758740661
 10
-2.532001624798798
 20
-5.4395742270894925
 10
-2.4985773605858217
 20
-5.455007898543135
 10
-2.465059026347423
 20
-5.470236192032579
 10
-2.4314478840299385
 20
-5.485258534221185
 10
-2.39774519907388
 20
-5.5000743595262565
 10
-2.363952240366288
 20
-5.514683110140346
 10
-2.330070280192957
 20
-5.5290842360522525
 10
-2.2961005941905386
 20
-5.54327719506772
 10
-2.262044461298509
 20
-5.557261452829868
 10
-2.2279031637110247
 20
-5.571036482839293
 10
-2.193677986828643
 20
-5.584601766473902
 10
-2.159370219209929
 20
-5.597956793008433
 10
-2.1249811525229423
 20
-5.611101059633686
 10
-2.0905120814966063
 20
-5.6240340714754495
 10
-2.0559643038719657
 20
-5.6367553416131395
 10
-2.0213391203533195
 20
-5.649264391098125
 10
-1.986637834559258
 20
-5.6615607489717625
 10
-1.9518617529735773
 20
-5.673643952283128
 10
-1.9170121848960937
 20
-5.685513546106447
 10
-1.8820904423933484
 20
-5.6971690835582205
 10
-1.847097840249209
 20
-5.70861012581405
 10
-1.8120356959153685
 20
-5.719836242125163
 10
-1.776905329461743
 20
-5.7308470098346245
 10
-1.741708063526773
 20
-5.741642014393253
 10
-1.7064452232676302
 20
-5.752220849375229
 10
-1.6711181363103176
 20
-5.762583116493396
 10
-1.6357281326996933
 20
-5.7727284256142495
 10
-1.6002765448493899
 20
-5.782656394772639
 10
-1.5647647074916526
 20
-5.792366650186136
 10
-1.5291939576270872
 20
-5.801858826269113
 10
-1.4935656344743207
 20
-5.8111325656465045
 10
-1.4578810794195833
 20
-5.820187519167264
 10
-1.4221416359662034
 20
-5.829023345917511
 10
-1.386348649684027
 20
-5.8376397132333615
 10
-1.350503468158756
 20
-5.846036296713455
 10
-1.3146074409412178
 20
-5.854212780231172
 10
-1.2786619194965474
 20
-5.862168855946527
 10
-1.2426682571533108
 20
-5.869904224317766
 10
-1.2066278090525508
 20
-5.877418594112643
 10
-1.1705419320967692
 20
-5.884711682419383
 10
-1.134411984898837
 20
-5.891783214657331
 10
-1.0982393277308455
 20
-5.8986329245872975
 10
-1.0620253224728926
 20
-5.905260554321574
 10
-1.0257713325618074
 20
-5.9116658543336476
 10
-0.9894787229398196
 20
-5.917848583467592
 10
-0.9531488600031677
 20
-5.92380850894715
 10
-0.9167831115506597
 20
-5.929545406384497
 10
-0.8803828467321698
 20
-5.935059059788686
 10
-0.8439494359970947
 20
-5.9403492615737825
 10
-0.8074842510427567
 20
-5.94541581256668
 10
-0.7709886647627586
 20
-5.950258522014597
 10
-0.7344640511952969
 20
-5.95487720759226
 10
-0.6979117854714285
 20
-5.959271695408767
 10
-0.6613332437632984
 20
-5.963441820014136
 10
-0.6247298032323276
 20
-5.9673874244055325
 10
-0.5881028419773638
 20
-5.971108360033181
 10
-0.5514537389827954
 20
-5.9746044868059585
 10
-0.5147838740666385
 20
-5.977875673096668
 10
-0.4780946278285801
 20
-5.980921795746995
 10
-0.44138738159800395
 20
-5.983742740072142
 10
-0.4046635173819839
 20
-5.98633839986515
 10
-0.3679244178132512
 20
-5.988708677400895
 10
-0.33117146609813947
 20
-5.990853483439769
 10
-0.29440604596450803
 20
-5.992772737231034
 10
-0.257629541609645
 20
-5.994466366515872
 10
-0.2208433376481532
 20
-5.9959343075300975
 10
-0.18404881905981876
 20
-5.997176505006559
 10
-0.14724737113747285
 20
-5.998192912177226
 10
-0.11044037943482818
 20
-5.998983490774941
 10
-0.07362922971431894
 20
-5.999548211034867
 10
-0.03681530789492636
 20
-5.999887051695607
 10
0.0
 20
-6.0
 10
0.03681530789492709
 20
-5.999887051695607
 10
0.07362922971431966
 20
-5.999548211034867
 10
0.11044037943482893
 20
-5.998983490774941
 10
0.14724737113747358
 20
-5.998192912177226
 10
0.18404881905981949
 20
-5.997176505006559
 10
0.22084333764815395
 20
-5.9959343075300975
 10
0.25762954160964574
 20
-5.994466366515872
 10
0.29440604596450876
 20
-5.992772737231034
 10
0.3311714660981402
 20
-5.990853483439769
 10
0.3679244178132519
 20
-5.988708677400895
 10
0.40466351738198464
 20
-5.98633839986515
 10
0.4413873815980047
 20
-5.983742740072142
 10
0.47809462782858075
 20
-5.980921795746994
 10
0.5147838740666393
 20
-5.977875673096668
 10
0.5514537389827961
 20
-5.9746044868059585
 10
0.5881028419773646
 20
-5.971108360033181
 10
0.6247298032323283
 20
-5.9673874244055325
 10
0.661333243763299
 20
-5.963441820014136
 10
0.6979117854714293
 20
-5.959271695408767
 10
0.7344640511952977
 20
-5.95487720759226
 10
0.7709886647627593
 20
-5.950258522014597
 10
0.8074842510427573
 20
-5.94541581256668
 10
0.8439494359970954
 20
-5.9403492615737825
 10
0.8803828467321705
 20
-5.935059059788686
 10
0.9167831115506604
 20
-5.929545406384497
 10
0.9531488600031683
 20
-5.92380850894715
 10
0.9894787229398205
 20
-5.917848583467592
 10
1.025771332561808
 20
-5.9116658543336476
 10
1.062025322472893
 20
-5.905260554321574
 10
1.0982393277308464
 20
-5.8986329245872975
 10
1.1344119848988377
 20
-5.891783214657331
 10
1.17054193209677
 20
-5.884711682419383
 10
1.2066278090525517
 20
-5.877418594112643
 10
1.2426682571533114
 20
-5.869904224317766
 10
1.2786619194965483
 20
-5.862168855946527
 10
1.3146074409412187
 20
-5.854212780231172
 10
1.3505034681587567
 20
-5.846036296713455
 10
1.3863486496840276
 20
-5.837639713233361
 10
1.422141635966204
 20
-5.829023345917511
 10
1.4578810794195838
 20
-5.820187519167264
 10
1.4935656344743216
 20
-5.811132565646504
 10
1.5291939576270877
 20
-5.801858826269113
 10
1.5647647074916535
 20
-5.792366650186136
 10
1.6002765448493905
 20
-5.782656394772639
 10
1.6357281326996937
 20
-5.7727284256142495
 10
1.6711181363103185
 20
-5.762583116493395
 10
1.706445223267631
 20
-5.752220849375229
 10
1.741708063526774
 20
-5.741642014393253
 10
1.7769053294617438
 20
-5.7308470098346245
 10
1.8120356959153692
 20
-5.7198362421251625
 10
1.84709784024921
 20
-5.70861012581405
 10
1.8820904423933493
 20
-5.6971690835582205
 10
1.9170121848960946
 20
-5.6855135461064465
 10
1.9518617529735778
 20
-5.673643952283127
 10
1.9866378345592586
 20
-5.6615607489717625
 10
2.0213391203533204
 20
-5.649264391098125
 10
2.055964303871966
 20
-5.6367553416131395
 10
2.090512081496607
 20
-5.6240340714754495
 10
2.124981152522943
 20
-5.611101059633685
 10
2.1593702192099298
 20
-5.597956793008433
 10
2.193677986828644
 20
-5.584601766473902
 10
2.2279031637110256
 20
-5.571036482839293
 10
2.26204446129851
 20
-5.557261452829867
 10
2.296100594190539
 20
-5.54327719506772
 10
2.330070280192958
 20
-5.529084236052252
 10
2.3639522403662885
 20
-5.514683110140346
 10
2.3977451990738805
 20
-5.5000743595262565
 10
2.4314478840299394
 20
-5.485258534221185
 10
2.4650590263474235
 20
-5.470236192032579
 10
2.498577360585824
 20
-5.455007898543133
 10
2.5320016247987986
 20
-5.4395742270894925
 10
2.5653305605816934
 20
-5.42393575874066
 10
2.5985629131189123
 20
-5.408093082276132
 10
2.6316974312311663
 20
-5.392046794163723
 10
2.6647328674225754
 20
-5.375797498537111
 10
2.6976679779276393
 20
-5.359345807173092
 10
2.730501522758063
 20
-5.342692339468547
 10
2.76323226574944
 20
-5.325837722417123
 10
2.7958589746077966
 20
-5.3087825905856265
 10
2.8283804209559866
 20
-5.29152758609013
 10
2.8607953803799333
 20
-5.2740733585718
 10
2.893102632474737
 20
-5.25642056517244
 10
2.9253009608906164
 20
-5.238569870509741
 10
2.9573891533787044
 20
-5.220521946652268
 10
2.989366001836691
 20
-5.202277473094156
 10
3.0212303023543052
 20
-5.183837136729521
 10
3.052980855258642
 20
-5.165201631826604
 10
3.08461646515933
 20
-5.146371660001632
 10
3.116135940993537
 20
-5.127347930192403
 10
3.147538096070813
 20
-5.108131158631592
 10
3.1788217481177687
 20
-5.0887220688197825
 10
3.2099857193225834
 20
-5.069121391498242
 10
3.241028836379358
 20
-5.04932986462139
 10
3.271949930532279
 20
-5.029348233329028
 10
3.302747837619629
 20
-5.00917724991828
 10
3.333421398117614
 20
-4.988817673815271
 10
3.363969457184016
 20
-4.968270271546535
 10
3.3943908647016796
 20
-4.947535816710152
 10
3.424684475321804
 20
-4.926615089946628
 10
3.454849148507072
 20
-4.905508878909503
 10
3.484883748574587
 20
-4.884217978235689
 10
3.514787144738633
 20
-4.862743189515569
 10
3.5445582111532454
 20
-4.841085321262796
 10
3.574195826954601
 20
-4.819245188883869
 10
3.6036988763032136
 20
-4.7972236146474305
 10
3.633066248425953
 20
-4.775021427653301
 10
3.662296837657857
 20
-4.752639463801274
 10
3.691389543483761
 20
-4.730078565759637
 10
3.7203432705797352
 20
-4.707339582933452
 10
3.749156928854319
 20
-4.684423371432566
 10
3.7778294334895626
 20
-4.661330794039395
 10
3.806359704981873
 20
-4.638062720176422
 10
3.834746669182654
 20
-4.614620025873478
 10
3.862989257338749
 20
-4.5910035937347535
 10
3.8910864061326755
 20
-4.567214312905571
 10
3.9190370577226608
 20
-4.543253079038907
 10
3.9468401597824716
 20
-4.519120794261674
 10
3.9744946655410307
 20
-4.4948183671407556
 10
4.001999533821825
 20
-4.470346712648796
 10
4.02935372908211
 20
-4.445706752129754
 10
4.056556221451896
 20
-4.420899413264219
 10
4.083605986772719
 20
-4.395925630034477
 10
4.110502006636202
 20
-4.370786342689351
 10
4.137243268422401
 20
-4.345482497708801
 10
4.163828765337924
 20
-4.32001504776829
 10
4.190257496453837
 20
-4.294384951702911
 10
4.216528466743352
 20
-4.268593174471299
 10
4.242640687119286
 20
-4.242640687119285
 10
4.268593174471299
 20
-4.216528466743352
 10
4.294384951702911
 20
-4.190257496453837
 10
4.32001504776829
 20
-4.163828765337924
 10
4.345482497708802
 20
-4.1372432684224005
 10
4.370786342689351
 20
-4.110502006636202
 10
4.395925630034477
 20
-4.083605986772718
 10
4.42089941326422
 20
-4.0565562214518955
 10
4.445706752129754
 20
-4.02935372908211
 10
4.470346712648796
 20
-4.001999533821825
 10
4.494818367140756
 20
-3.9744946655410307
 10
4.519120794261675
 20
-3.9468401597824716
 10
4.543253079038907
 20
-3.9190370577226608
 10
4.567214312905571
 20
-3.8910864061326746
 10
4.5910035937347535
 20
-3.8629892573387483
 10
4.614620025873478
 20
-3.834746669182654
 10
4.638062720176422
 20
-3.806359704981873
 10
4.661330794039395
 20
-3.777829433489562
 10
4.684423371432567
 20
-3.749156928854318
 10
4.707339582933452
 20
-3.7203432705797344
 10
4.730078565759638
 20
-3.691389543483761
 10
4.752639463801274
 20
-3.662296837657857
 10
4.775021427653302
 20
-3.633066248425953
 10
4.7972236146474305
 20
-3.6036988763032136
 10
4.81924518888387
 20
-3.5741958269546004
 10
4.841085321262796
 20
-3.544558211153245
 10
4.862743189515569
 20
-3.514787144738633
 10
4.88421797823569
 20
-3.484883748574587
 10
4.905508878909503
 20
-3.454849148507072
 10
4.926615089946628
 20
-3.4246844753218033
 10
4.947535816710152
 20
-3.3943908647016787
 10
4.968270271546535
 20
-3.363969457184016
 10
4.988817673815271
 20
-3.333421398117613
 10
5.00917724991828
 20
-3.302747837619629
 10
5.029348233329029
 20
-3.271949930532279
 10
5.049329864621391
 20
-3.241028836379357
 10
5.069121391498243
 20
-3.209985719322583
 10
5.088722068819783
 20
-3.178821748117768
 10
5.108131158631592
 20
-3.1475380960708135
 10
5.127347930192403
 20
-3.116135940993538
 10
5.146371660001632
 20
-3.08461646515933
 10
5.165201631826604
 20
-3.052980855258642
 10
5.183837136729521
 20
-3.0212303023543052
 10
5.202277473094156
 20
-2.989366001836691
 10
5.220521946652269
 20
-2.9573891533787044
 10
5.238569870509741
 20
-2.925300960890616
 10
5.25642056517244
 20
-2.8931026324747364
 10
5.274073358571801
 20
-2.8607953803799324
 10
5.2915275860901305
 20
-2.8283804209559857
 10
5.3087825905856265
 20
-2.795858974607797
 10
5.325837722417123
 20
-2.76323226574944
 10
5.342692339468547
 20
-2.730501522758063
 10
5.359345807173092
 20
-2.6976679779276393
 10
5.3757974985371115
 20
-2.6647328674225754
 10
5.392046794163723
 20
-2.631697431231166
 10
5.408093082276132
 20
-2.598562913118912
 10
5.42393575874066
 20
-2.5653305605816925
 10
5.4395742270894925
 20
-2.532001624798798
 10
5.455007898543134
 20
-2.498577360585823
 10
5.470236192032579
 20
-2.4650590263474235
 10
5.485258534221185
 20
-2.4314478840299394
 10
5.5000743595262565
 20
-2.3977451990738805
 10
5.514683110140346
 20
-2.3639522403662885
 10
5.5290842360522525
 20
-2.3300702801929574
 10
5.54327719506772
 20
-2.2961005941905386
 10
5.557261452829868
 20
-2.2620444612985096
 10
5.571036482839293
 20
-2.227903163711025
 10
5.584601766473902
 20
-2.193677986828643
 10
5.597956793008434
 20
-2.1593702192099284
 10
5.611101059633686
 20
-2.124981152522942
 10
5.6240340714754495
 20
-2.090512081496607
 10
5.6367553416131395
 20
-2.055964303871966
 10
5.649264391098125
 20
-2.0213391203533204
 10
5.6615607489717625
 20
-1.9866378345592586
 10
5.673643952283127
 20
-1.9518617529735776
 10
5.6855135461064465
 20
-1.9170121848960942
 10
5.6971690835582205
 20
-1.882090442393349
 10
5.70861012581405
 20
-1.847097840249209
 10
5.719836242125163
 20
-1.8120356959153685
 10
5.7308470098346245
 20
-1.7769053294617427
 10
5.741642014393253
 20
-1.741708063526774
 10
5.752220849375229
 20
-1.7064452232676313
 10
5.762583116493395
 20
-1.6711181363103185
 10
5.7727284256142495
 20
-1.6357281326996937
 10
5.782656394772639
 20
-1.60027654484939
 10
5.792366650186136
 20
-1.564764707491653
 10
5.801858826269113
 20
-1.5291939576270874
 10
5.8111325656465045
 20
-1.493565634474321
 10
5.820187519167264
 20
-1.4578810794195833
 10
5.829023345917511
 20
-1.4221416359662031
 10
5.8376397132333615
 20
-1.3863486496840267
 10
5.846036296713455
 20
-1.3505034681587569
 10
5.854212780231172
 20
-1.3146074409412187
 10
5.862168855946527
 20
-1.2786619194965483
 10
5.869904224317766
 20
-1.2426682571533114
 10
5.877418594112643
 20
-1.2066278090525513
 10
5.884711682419383
 20
-1.1705419320967696
 10
5.891783214657331
 20
-1.1344119848988372
 10
5.8986329245872975
 20
-1.0982393277308458
 10
5.905260554321574
 20
-1.0620253224728926
 10
5.9116658543336476
 20
-1.0257713325618072
 10
5.917848583467592
 20
-0.9894787229398195
 10
5.92380850894715
 20
-0.9531488600031687
 10
5.929545406384497
 20
-0.9167831115506606
 10
5.935059059788686
 20
-0.8803828467321705
 10
5.9403492615737825
 20
-0.8439494359970953
 10
5.94541581256668
 20
-0.807484251042757
 10
5.950258522014597
 20
-0.7709886647627591
 10
5.95487720759226
 20
-0.7344640511952971
 10
5.959271695408767
 20
-0.6979117854714285
 10
5.963441820014136
 20
-0.6613332437632984
 10
5.9673874244055325
 20
-0.6247298032323275
 10
5.971108360033181
 20
-0.5881028419773636
 10
5.9746044868059585
 20
-0.5514537389827964
 10
5.977875673096668
 20
-0.5147838740666394
 10
5.980921795746994
 20
-0.47809462782858075
 10
5.983742740072142
 20
-0.44138738159800456
 10
5.98633839986515
 20
-0.4046635173819843
 10
5.988708677400895
 20
-0.36792441781325147
 10
5.990853483439769
 20
-0.33117146609813963
 10
5.992772737231034
 20
-0.2944060459645081
 10
5.994466366515872
 20
-0.2576295416096449
 10
5.9959343075300975
 20
-0.220843337648153
 10
5.997176505006559
 20
-0.18404881905981976
 10
5.998192912177226
 20
-0.14724737113747371
 10
5.998983490774941
 20
-0.11044037943482893
 10
5.999548211034867
 20
-0.07362922971431955
 10
5.999887051695607
 20
-0.03681530789492685
 10
6.0
 20
0.0
 10
5.999887051695607
 20
0.03681530789492686
  0
TEXT
  5
33
330
17
100
AcDbEntity
  8
INFO
100
AcDbText
 10
-10.5
 20
27.5
 30
0.0
 40
3.0
  1
S2-ECC C1 NOMINAL / RFQ ONLY / NOT NC RELEASE
100
AcDbText
  0
ENDSEC
  0
SECTION
  2
OBJECTS
  0
DICTIONARY
  5
A
330
0
100
AcDbDictionary
281
1
  3
ACAD_COLOR
350
B
  3
ACAD_GROUP
350
C
  3
ACAD_LAYOUT
350
D
  3
ACAD_MATERIAL
350
E
  3
ACAD_MLEADERSTYLE
350
F
  3
ACAD_MLINESTYLE
350
10
  3
ACAD_PLOTSETTINGS
350
11
  3
ACAD_PLOTSTYLENAME
350
12
  3
ACAD_SCALELIST
350
14
  3
ACAD_TABLESTYLE
350
15
  3
ACAD_VISUALSTYLE
350
16
  3
EZDXF_META
350
2D
  0
DICTIONARY
  5
B
330
A
100
AcDbDictionary
281
1
  0
DICTIONARY
  5
C
330
A
100
AcDbDictionary
281
1
  0
DICTIONARY
  5
D
330
A
100
AcDbDictionary
281
1
  3
Model
350
1A
  3
Layout1
350
1E
  0
DICTIONARY
  5
E
330
A
100
AcDbDictionary
281
1
  3
ByBlock
350
1F
  3
ByLayer
350
20
  3
Global
350
21
  0
DICTIONARY
  5
F
330
A
100
AcDbDictionary
281
1
  3
Standard
350
2C
  0
DICTIONARY
  5
10
330
A
100
AcDbDictionary
281
1
  3
Standard
350
22
  0
DICTIONARY
  5
11
330
A
100
AcDbDictionary
281
1
  0
ACDBDICTIONARYWDFLT
  5
12
330
A
100
AcDbDictionary
281
1
  3
Normal
350
13
100
AcDbDictionaryWithDefault
340
13
  0
ACDBPLACEHOLDER
  5
13
330
12
  0
DICTIONARY
  5
14
330
A
100
AcDbDictionary
281
1
  0
DICTIONARY
  5
15
330
A
100
AcDbDictionary
281
1
  0
DICTIONARY
  5
16
330
A
100
AcDbDictionary
281
1
  0
LAYOUT
  5
1A
330
D
100
AcDbPlotSettings
  1

  4
A3
  6

 40
7.5
 41
20.0
 42
7.5
 43
20.0
 44
420.0
 45
297.0
 46
0.0
 47
0.0
 48
0.0
 49
0.0
140
0.0
141
0.0
142
1.0
143
1.0
 70
1024
 72
1
 73
0
 74
5
  7

 75
16
 76
0
 77
2
 78
300
147
1.0
148
0.0
149
0.0
100
AcDbLayout
  1
Model
 70
1
 71
0
 10
0.0
 20
0.0
 11
420.0
 21
297.0
 12
0.0
 22
0.0
 32
0.0
 14
1e+20
 24
1e+20
 34
1e+20
 15
-1e+20
 25
-1e+20
 35
-1e+20
146
0.0
 13
0.0
 23
0.0
 33
0.0
 16
1.0
 26
0.0
 36
0.0
 17
0.0
 27
1.0
 37
0.0
 76
1
330
17
  0
LAYOUT
  5
1E
330
D
100
AcDbPlotSettings
  1

  4
A3
  6

 40
7.5
 41
20.0
 42
7.5
 43
20.0
 44
420.0
 45
297.0
 46
0.0
 47
0.0
 48
0.0
 49
0.0
140
0.0
141
0.0
142
1.0
143
1.0
 70
0
 72
1
 73
0
 74
5
  7

 75
16
 76
0
 77
2
 78
300
147
1.0
148
0.0
149
0.0
100
AcDbLayout
  1
Layout1
 70
1
 71
1
 10
0.0
 20
0.0
 11
420.0
 21
297.0
 12
0.0
 22
0.0
 32
0.0
 14
1e+20
 24
1e+20
 34
1e+20
 15
-1e+20
 25
-1e+20
 35
-1e+20
146
0.0
 13
0.0
 23
0.0
 33
0.0
 16
1.0
 26
0.0
 36
0.0
 17
0.0
 27
1.0
 37
0.0
 76
1
330
1B
  0
MATERIAL
  5
1F
102
{ACAD_REACTORS
330
E
102
}
330
E
100
AcDbMaterial
  1
ByBlock
  2

 70
0
 40
1.0
 71
1
 41
1.0
 91
-1023410177
 42
1.0
 72
1
  3

 73
1
 74
1
 75
1
 44
0.5
 73
0
 45
1.0
 46
1.0
 77
1
  4

 78
1
 79
1
170
1
 48
1.0
171
1
  6

172
1
173
1
174
1
140
1.0
141
1.0
175
1
  7

176
1
177
1
178
1
143
1.0
179
1
  8

270
1
271
1
272
1
145
1.0
146
1.0
273
1
  9

274
1
275
1
276
1
 42
1.0
 72
1
  3

 73
1
 74
1
 75
1
 94
63
  0
MATERIAL
  5
20
102
{ACAD_REACTORS
330
E
102
}
330
E
100
AcDbMaterial
  1
ByLayer
  2

 70
0
 40
1.0
 71
1
 41
1.0
 91
-1023410177
 42
1.0
 72
1
  3

 73
1
 74
1
 75
1
 44
0.5
 73
0
 45
1.0
 46
1.0
 77
1
  4

 78
1
 79
1
170
1
 48
1.0
171
1
  6

172
1
173
1
174
1
140
1.0
141
1.0
175
1
  7

176
1
177
1
178
1
143
1.0
179
1
  8

270
1
271
1
272
1
145
1.0
146
1.0
273
1
  9

274
1
275
1
276
1
 42
1.0
 72
1
  3

 73
1
 74
1
 75
1
 94
63
  0
MATERIAL
  5
21
102
{ACAD_REACTORS
330
E
102
}
330
E
100
AcDbMaterial
  1
Global
  2

 70
0
 40
1.0
 71
1
 41
1.0
 91
-1023410177
 42
1.0
 72
1
  3

 73
1
 74
1
 75
1
 44
0.5
 73
0
 45
1.0
 46
1.0
 77
1
  4

 78
1
 79
1
170
1
 48
1.0
171
1
  6

172
1
173
1
174
1
140
1.0
141
1.0
175
1
  7

176
1
177
1
178
1
143
1.0
179
1
  8

270
1
271
1
272
1
145
1.0
146
1.0
273
1
  9

274
1
275
1
276
1
 42
1.0
 72
1
  3

 73
1
 74
1
 75
1
 94
63
  0
MLINESTYLE
  5
22
102
{ACAD_REACTORS
330
10
102
}
330
10
100
AcDbMlineStyle
  2
Standard
 70
0
  3

 62
256
 51
90.0
 52
90.0
 71
2
 49
0.5
 62
256
  6
BYLAYER
 49
-0.5
 62
256
  6
BYLAYER
  0
MLEADERSTYLE
  5
2C
102
{ACAD_REACTORS
330
F
102
}
330
F
100
AcDbMLeaderStyle
179
2
170
2
171
1
172
0
 90
2
 40
0.0
 41
0.0
173
1
 91
-1056964608
 92
-2
290
1
 42
2.0
291
1
 43
8.0
  3
Standard
 44
4.0
300

342
29
174
1
175
1
176
0
178
1
 93
-1056964608
 45
4.0
292
0
297
0
 46
4.0
 94
-1056964608
 47
1.0
 49
1.0
140
1.0
294
1
141
0.0
177
0
142
1.0
295
0
296
0
143
3.75
271
0
272
9
273
9
  0
DICTIONARY
  5
2D
330
A
100
AcDbDictionary
280
1
281
1
  3
CREATED_BY_EZDXF
350
2E
  3
WRITTEN_BY_EZDXF
350
36
  0
DICTIONARYVAR
  5
2E
330
2D
100
DictionaryVariables
280
0
  1
1.4.4 @ 2026-09-20T17:00:03.490525+00:00
  0
DICTIONARYVAR
  5
36
330
2D
100
DictionaryVariables
280
0
  1
1.4.4 @ 2026-09-20T17:00:03.495584+00:00
  0
ENDSEC
  0
EOF
