999
FreeCAD v1.1 Unknown
  0
SECTION
  2
HEADER
  9
$ACADVER
  1
AC1014
  9
$ACADMAINTVER
 70
     9
  9
$DWGCODEPAGE
  3
ANSI_1252
  9
$TEXTSTYLE
  7
STANDARD
  9
$DIMSTYLE
  2
STANDARD
  9
$DIMTXSTY
  7
STANDARD
  9
$CMLSTYLE
  2
STANDARD
  9
$LUNITS
 70
2
  9
$INSUNITS
 70
4
  9
$PEXTMAX
 10
50
 20
50
 30
50
  9
$PEXTMIN
 10
0
 20
0
 30
0
  9
$HANDSEED
  5
FFFF
  0
ENDSEC
  0
SECTION
  2
CLASSES
  0
CLASS
  1
ACDBDICTIONARYWDFLT
  2
AcDbDictionaryWithDefault
  3
ObjectDBX Classes
 90
        0
280
     0
281
     0
  0
CLASS
  1
XRECORD
  2
AcDbXrecord
  3
ObjectDBX Classes
 90
        0
280
     0
281
     0
  0
CLASS
  1
LWPOLYLINE
  2
AcDbPolyline
  3
ObjectDBX Classes
 90
        0
280
     0
281
     1
  0
ENDSEC
  0
SECTION
  2
TABLES
  0
TABLE
  2
VPORT
  5
20
330
0
100
AcDbSymbolTable
 70
     1
  0
VPORT
  5
21
330
20
100
AcDbSymbolTableRecord
100
AcDbViewportTableRecord
  2
*ACTIVE
 70
     0
  0
ENDTAB
  0
TABLE
  2
LTYPE
  5
22
330
0
100
AcDbSymbolTable
 70
     1
  0
LTYPE
  5
23
330
21
100
AcDbSymbolTableRecord
100
AcDbLinetypeTableRecord
  2
BYBLOCK
 70
     0
  3

 72
    65
 73
     0
 40
0.0
  0
LTYPE
  5
24
330
21
100
AcDbSymbolTableRecord
100
AcDbLinetypeTableRecord
  2
BYLAYER
 70
     0
  3

 72
    65
 73
     0
 40
0.0
  0
LTYPE
  5
25
330
21
100
AcDbSymbolTableRecord
100
AcDbLinetypeTableRecord
  2
CONTINUOUS
 70
     0
  3
Solid line
 72
    65
 73
     0
 40
0.0
  0
ENDTAB
  0
TABLE
  2
LAYER
  5
A42
330
0
100
AcDbSymbolTable
 70
3
  0
LAYER
  5
A43
330
A42
100
AcDbSymbolTableRecord
100
AcDbLayerTableRecord
  2
0
 70
   0
 62
   7
  6
CONTINUOUS
  0
LAYER
  5
A44
330
A42
100
AcDbSymbolTableRecord
100
AcDbLayerTableRecord
  2
none
 70
    0
 62
    7
  6
CONTINUOUS
  0
LAYER
  5
A45
330
A42
100
AcDbSymbolTableRecord
100
AcDbLayerTableRecord
  2
Part
 70
    0
 62
    7
  6
CONTINUOUS
  0
ENDTAB
  0
TABLE
  2
STYLE
  5
70
330
0
100
AcDbSymbolTable
 70
     2
  0
STYLE
  5
71
330
70
100
AcDbSymbolTableRecord
100
AcDbTextStyleTableRecord
  2
STANDARD
 70
     0
 40
0.0
 41
1.0
 50
0.0
 71
     0
 42
2.5
  3
arial.ttf
  4

  0
STYLE
  5
72
330
70
100
AcDbSymbolTableRecord
100
AcDbTextStyleTableRecord
  2
ANNOTATIVE
 70
     0
 40
0.0
 41
1.0
 50
0.0
 71
     0
 42
2.5
  3
arial.ttf
  4

  0
ENDTAB
  0
TABLE
  2
VIEW
  5
73
330
0
100
AcDbSymbolTable
 70
     0
  0
ENDTAB
  0
TABLE
  2
UCS
  5
74
330
0
100
AcDbSymbolTable
 70
     0
  0
ENDTAB
  0
TABLE
  2
APPID
  5
75
330
0
100
AcDbSymbolTable
 70
     2
  0
APPID
  5
76
330
75
100
AcDbSymbolTableRecord
100
AcDbRegAppTableRecord
  2
ACAD
 70
     0
  0
APPID
  5
77
330
75
100
AcDbSymbolTableRecord
100
AcDbRegAppTableRecord
  2
ACADANNOTATIVE
 70
     0
  0
ENDTAB
  0
TABLE
  2
DIMSTYLE
  5
78
330
0
100
AcDbSymbolTable
 70
     2
  0
DIMSTYLE
105
79
330
78
100
AcDbSymbolTableRecord
100
AcDbDimStyleTableRecord
  2
STANDARD
 70
     0
  3

  4

  5

  6

  7

 40
0.0
 41
2.5
 42
0.625
 43
3.75
 44
1.25
 45
0.0
 46
0.0
 47
0.0
 48
0.0
140
2.5
141
2.5
142
0.0
143
0.03937007874016
144
1.0
145
0.0
146
1.0
147
0.625
 71
     0
 72
     0
 73
     0
 74
     0
 75
     0
 76
     0
 77
     1
 78
     8
170
     0
171
     3
172
     1
173
     0
174
     0
175
     0
176
     0
177
     0
178
     0
270
     2
271
     2
272
     2
273
     2
274
     3
340
71
275
     0
280
     0
281
     0
282
     0
283
     0
284
     8
285
     0
286
     0
287
     3
288
     0
  0
ENDTAB
  0
TABLE
  2
BLOCK_RECORD
  5
A01
330
0
100
AcDbSymbolTable
  70
5
  0
BLOCK_RECORD
  5
A02
330
A01
100
AcDbSymbolTableRecord
100
AcDbBlockTableRecord
  2
*MODEL_SPACE
  0
BLOCK_RECORD
  5
A03
330
A01
100
AcDbSymbolTableRecord
100
AcDbBlockTableRecord
  2
*PAPER_SPACE
  0
ENDTAB
  0
ENDSEC
  0
SECTION
  2
BLOCKS
  0
BLOCK
  5
A04
330
A02
100
AcDbEntity
  8
0
100
AcDbBlockBegin
  2
*MODEL_SPACE
 70
   0
 10
0
 20
0
 30
0
  3
*MODEL_SPACE
  1

  0
ENDBLK
  5
A05
330
A02
100
AcDbEntity
  8
0
100
AcDbBlockEnd
  0
BLOCK
  5
A06
330
A03
100
AcDbEntity
 67
1
  8
0
100
AcDbBlockBegin
  2
*PAPER_SPACE
 70
   0
 10
0
 20
0
 30
0
  3
*PAPER_SPACE
  1

  0
ENDBLK
  5
A07
330
A03
100
AcDbEntity
 67
    1
  8
0
100
AcDbBlockEnd
  0
ENDSEC
  0
SECTION
  2
ENTITIES
  0
LINE
  5
A08
330
A02
100
AcDbEntity
  8
Part
100
AcDbLine
 10
18.000000000
 20
-0.000000000
 30
6.600000000
 11
18.000000000
 21
-0.000000000
 31
10.000000000
  0
SPLINE
  5
A09
330
A02
100
AcDbEntity
  8
Part
100
AcDbSpline
210
0
220
0
230
1
 70
8
 71
3
 72
17
 73
13
 74
0
 40
0.000000000
 40
0.000000000
 40
0.000000000
 40
0.000000000
 40
0.257871620
 40
0.257871620
 40
0.257871620
 40
0.500332487
 40
0.500332487
 40
0.500332487
 40
0.742318459
 40
0.742318459
 40
0.742318459
 40
1.000000000
 40
1.000000000
 40
1.000000000
 40
1.000000000
 10
18.000000000
 20
-0.000000000
 30
6.600000000
 10
18.000430359
 20
-0.515043210
 30
6.602981796
 10
17.976012469
 20
-0.971395513
 30
6.343684431
 10
17.957732371
 20
-1.232821188
 30
6.019878384
 10
17.940311778
 20
-1.482107785
 30
5.717151559
 10
17.928493254
 20
-1.599577087
 30
5.356372118
 10
17.928747865
 20
-1.600000000
 30
5.000000000
 10
17.928479768
 20
-1.599744493
 30
4.644213342
 10
17.940329013
 20
-1.481888081
 30
4.282294684
 10
17.957732371
 20
-1.232821188
 30
3.980121616
 10
17.976010589
 20
-0.971454962
 30
3.656341629
 10
18.000432867
 20
-0.514947508
 30
3.396986117
 10
18.000000000
 20
-0.000000000
 30
3.400000000
  0
LINE
  5
A0A
330
A02
100
AcDbEntity
  8
Part
100
AcDbLine
 10
18.000000000
 20
-0.000000000
 30
0.000000000
 11
18.000000000
 21
-0.000000000
 31
3.400000000
  0
CIRCLE
  5
A0B
330
A02
100
AcDbEntity
  8
Part
100
AcDbCircle
 10
0.000000000
 20
0.000000000
 30
0.000000000
 40
18.000000000
  0
LINE
  5
A0C
330
A02
100
AcDbEntity
  8
Part
100
AcDbLine
 10
18.000000000
 20
-0.000000000
 30
0.000000000
 11
18.000000000
 21
-0.000000000
 31
3.400000000
  0
SPLINE
  5
A0D
330
A02
100
AcDbEntity
  8
Part
100
AcDbSpline
210
0
220
0
230
1
 70
8
 71
3
 72
17
 73
13
 74
0
 40
0.000000000
 40
0.000000000
 40
0.000000000
 40
0.000000000
 40
0.257887063
 40
0.257887063
 40
0.257887063
 40
0.500426460
 40
0.500426460
 40
0.500426460
 40
0.742393463
 40
0.742393463
 40
0.742393463
 40
1.000000000
 40
1.000000000
 40
1.000000000
 40
1.000000000
 10
18.000000000
 20
0.000000000
 30
3.400000000
 10
18.000430359
 20
0.515043210
 30
3.397018204
 10
17.976012469
 20
0.971395513
 30
3.656315569
 10
17.957732371
 20
1.232821188
 30
3.980121616
 10
17.940307644
 20
1.482160486
 30
4.282972275
 10
17.928495766
 20
1.599545405
 30
4.643527951
 10
17.928747865
 20
1.600000000
 30
5.000000000
 10
17.928479768
 20
1.599744493
 30
5.355786658
 10
17.940329013
 20
1.481888081
 30
5.717705316
 10
17.957732371
 20
1.232821188
 30
6.019878384
 10
17.976008776
 20
0.971518595
 30
6.343633283
 10
18.000435991
 20
0.514826315
 30
6.603053407
 10
18.000000000
 20
0.000000000
 30
6.600000000
  0
LINE
  5
A0E
330
A02
100
AcDbEntity
  8
Part
100
AcDbLine
 10
18.000000000
 20
-0.000000000
 30
6.600000000
 11
18.000000000
 21
-0.000000000
 31
10.000000000
  0
CIRCLE
  5
A0F
330
A02
100
AcDbEntity
  8
Part
100
AcDbCircle
 10
0.000000000
 20
0.000000000
 30
10.000000000
 40
18.000000000
  0
SPLINE
  5
A10
330
A02
100
AcDbEntity
  8
Part
100
AcDbSpline
210
0
220
0
230
1
 70
8
 71
3
 72
17
 73
13
 74
0
 40
0.000000000
 40
0.000000000
 40
0.000000000
 40
0.000000000
 40
0.257887063
 40
0.257887063
 40
0.257887063
 40
0.500426460
 40
0.500426460
 40
0.500426460
 40
0.742393463
 40
0.742393463
 40
0.742393463
 40
1.000000000
 40
1.000000000
 40
1.000000000
 40
1.000000000
 10
-18.000000000
 20
0.000000000
 30
3.400000000
 10
-18.000430359
 20
0.515043210
 30
3.397018204
 10
-17.976012469
 20
0.971395513
 30
3.656315569
 10
-17.957732371
 20
1.232821188
 30
3.980121616
 10
-17.940307644
 20
1.482160486
 30
4.282972275
 10
-17.928495766
 20
1.599545405
 30
4.643527951
 10
-17.928747865
 20
1.600000000
 30
5.000000000
 10
-17.928479768
 20
1.599744493
 30
5.355786658
 10
-17.940329013
 20
1.481888081
 30
5.717705316
 10
-17.957732371
 20
1.232821188
 30
6.019878384
 10
-17.976008776
 20
0.971518595
 30
6.343633283
 10
-18.000435991
 20
0.514826315
 30
6.603053407
 10
-18.000000000
 20
0.000000000
 30
6.600000000
  0
SPLINE
  5
A11
330
A02
100
AcDbEntity
  8
Part
100
AcDbSpline
210
0
220
0
230
1
 70
8
 71
3
 72
17
 73
13
 74
0
 40
0.000000000
 40
0.000000000
 40
0.000000000
 40
0.000000000
 40
0.257871620
 40
0.257871620
 40
0.257871620
 40
0.500332487
 40
0.500332487
 40
0.500332487
 40
0.742318459
 40
0.742318459
 40
0.742318459
 40
1.000000000
 40
1.000000000
 40
1.000000000
 40
1.000000000
 10
-18.000000000
 20
0.000000000
 30
6.600000000
 10
-18.000430359
 20
-0.515043210
 30
6.602981796
 10
-17.976012469
 20
-0.971395513
 30
6.343684431
 10
-17.957732371
 20
-1.232821188
 30
6.019878384
 10
-17.940311778
 20
-1.482107785
 30
5.717151559
 10
-17.928493254
 20
-1.599577087
 30
5.356372118
 10
-17.928747865
 20
-1.600000000
 30
5.000000000
 10
-17.928479768
 20
-1.599744493
 30
4.644213342
 10
-17.940329013
 20
-1.481888081
 30
4.282294684
 10
-17.957732371
 20
-1.232821188
 30
3.980121616
 10
-17.976010589
 20
-0.971454962
 30
3.656341629
 10
-18.000432867
 20
-0.514947508
 30
3.396986117
 10
-18.000000000
 20
0.000000000
 30
3.400000000
  0
SPLINE
  5
A12
330
A02
100
AcDbEntity
  8
Part
100
AcDbSpline
210
0
220
0
230
1
 70
8
 71
3
 72
17
 73
13
 74
0
 40
0.000000000
 40
0.000000000
 40
0.000000000
 40
0.000000000
 40
0.257871620
 40
0.257871620
 40
0.257871620
 40
0.500332487
 40
0.500332487
 40
0.500332487
 40
0.742318459
 40
0.742318459
 40
0.742318459
 40
1.000000000
 40
1.000000000
 40
1.000000000
 40
1.000000000
 10
18.000000000
 20
-0.000000000
 30
6.600000000
 10
18.000430359
 20
-0.515043210
 30
6.602981796
 10
17.976012469
 20
-0.971395513
 30
6.343684431
 10
17.957732371
 20
-1.232821188
 30
6.019878384
 10
17.940311778
 20
-1.482107785
 30
5.717151559
 10
17.928493254
 20
-1.599577087
 30
5.356372118
 10
17.928747865
 20
-1.600000000
 30
5.000000000
 10
17.928479768
 20
-1.599744493
 30
4.644213342
 10
17.940329013
 20
-1.481888081
 30
4.282294684
 10
17.957732371
 20
-1.232821188
 30
3.980121616
 10
17.976010589
 20
-0.971454962
 30
3.656341629
 10
18.000432867
 20
-0.514947508
 30
3.396986117
 10
18.000000000
 20
-0.000000000
 30
3.400000000
  0
SPLINE
  5
A13
330
A02
100
AcDbEntity
  8
Part
100
AcDbSpline
210
0
220
0
230
1
 70
8
 71
3
 72
17
 73
13
 74
0
 40
0.000000000
 40
0.000000000
 40
0.000000000
 40
0.000000000
 40
0.257887063
 40
0.257887063
 40
0.257887063
 40
0.500426460
 40
0.500426460
 40
0.500426460
 40
0.742393463
 40
0.742393463
 40
0.742393463
 40
1.000000000
 40
1.000000000
 40
1.000000000
 40
1.000000000
 10
18.000000000
 20
0.000000000
 30
3.400000000
 10
18.000430359
 20
0.515043210
 30
3.397018204
 10
17.976012469
 20
0.971395513
 30
3.656315569
 10
17.957732371
 20
1.232821188
 30
3.980121616
 10
17.940307644
 20
1.482160486
 30
4.282972275
 10
17.928495766
 20
1.599545405
 30
4.643527951
 10
17.928747865
 20
1.600000000
 30
5.000000000
 10
17.928479768
 20
1.599744493
 30
5.355786658
 10
17.940329013
 20
1.481888081
 30
5.717705316
 10
17.957732371
 20
1.232821188
 30
6.019878384
 10
17.976008776
 20
0.971518595
 30
6.343633283
 10
18.000435991
 20
0.514826315
 30
6.603053407
 10
18.000000000
 20
0.000000000
 30
6.600000000
  0
LINE
  5
A14
330
A02
100
AcDbEntity
  8
Part
100
AcDbLine
 10
10.200000000
 20
0.000000000
 30
6.600000000
 11
18.000000000
 21
0.000000000
 31
6.600000000
  0
SPLINE
  5
A15
330
A02
100
AcDbEntity
  8
Part
100
AcDbSpline
210
0
220
0
230
1
 70
8
 71
3
 72
17
 73
13
 74
0
 40
0.000000000
 40
0.000000000
 40
0.000000000
 40
0.000000000
 40
0.247822991
 40
0.247822991
 40
0.247822991
 40
0.500043223
 40
0.500043223
 40
0.500043223
 40
0.752263454
 40
0.752263454
 40
0.752263454
 40
1.000000000
 40
1.000000000
 40
1.000000000
 40
1.000000000
 10
10.200000000
 20
0.000000000
 30
3.400000000
 10
10.200737176
 20
0.494165980
 30
3.397208775
 10
10.160954951
 20
0.936766408
 30
3.636442867
 10
10.129144755
 20
1.200177711
 30
3.941901015
 10
10.096348098
 20
1.471532899
 30
4.251303063
 10
10.073181803
 20
1.599543566
 30
4.628035176
 10
10.073728208
 20
1.600000000
 30
5.000000000
 10
10.073181803
 20
1.599543566
 30
5.371964824
 10
10.096348098
 20
1.471532899
 30
5.748696937
 10
10.129144755
 20
1.200177711
 30
6.058098985
 10
10.160949240
 20
0.936878027
 30
6.363513136
 10
10.200745965
 20
0.493967549
 30
6.602853848
 10
10.200000000
 20
0.000000000
 30
6.600000000
  0
SPLINE
  5
A16
330
A02
100
AcDbEntity
  8
Part
100
AcDbSpline
210
0
220
0
230
1
 70
8
 71
3
 72
17
 73
13
 74
0
 40
0.000000000
 40
0.000000000
 40
0.000000000
 40
0.000000000
 40
0.247833570
 40
0.247833570
 40
0.247833570
 40
0.500041171
 40
0.500041171
 40
0.500041171
 40
0.752264549
 40
0.752264549
 40
0.752264549
 40
1.000000000
 40
1.000000000
 40
1.000000000
 40
1.000000000
 10
10.200000000
 20
-0.000000000
 30
6.600000000
 10
10.200737176
 20
-0.494165980
 30
6.602791225
 10
10.160954951
 20
-0.936766408
 30
6.363557133
 10
10.129144755
 20
-1.200177711
 30
6.058098985
 10
10.096350298
 20
-1.471516782
 30
5.748729356
 10
10.073180573
 20
-1.599552573
 30
5.371942649
 10
10.073728208
 20
-1.600000000
 30
5.000000000
 10
10.073181803
 20
-1.599543566
 30
4.628035176
 10
10.096348098
 20
-1.471532899
 30
4.251303063
 10
10.129144755
 20
-1.200177711
 30
3.941901015
 10
10.160948226
 20
-0.936890114
 30
3.636494828
 10
10.200746261
 20
-0.493964244
 30
3.397143607
 10
10.200000000
 20
-0.000000000
 30
3.400000000
  0
LINE
  5
A17
330
A02
100
AcDbEntity
  8
Part
100
AcDbLine
 10
10.200000000
 20
0.000000000
 30
6.600000000
 11
18.000000000
 21
0.000000000
 31
6.600000000
  0
CIRCLE
  5
A18
330
A02
100
AcDbEntity
  8
Part
100
AcDbCircle
 10
0.000000000
 20
0.000000000
 30
0.000000000
 40
18.000000000
  0
CIRCLE
  5
A19
330
A02
100
AcDbEntity
  8
Part
100
AcDbCircle
 10
-9.899494937
 20
-9.899494937
 30
0.000000000
 40
2.250000000
  0
CIRCLE
  5
A1A
330
A02
100
AcDbEntity
  8
Part
100
AcDbCircle
 10
9.899494937
 20
-9.899494937
 30
0.000000000
 40
2.250000000
  0
CIRCLE
  5
A1B
330
A02
100
AcDbEntity
  8
Part
100
AcDbCircle
 10
-9.899494937
 20
9.899494937
 30
0.000000000
 40
2.250000000
  0
CIRCLE
  5
A1C
330
A02
100
AcDbEntity
  8
Part
100
AcDbCircle
 10
0.000000000
 20
0.000000000
 30
0.000000000
 40
10.200000000
  0
CIRCLE
  5
A1D
330
A02
100
AcDbEntity
  8
Part
100
AcDbCircle
 10
9.899494937
 20
9.899494937
 30
0.000000000
 40
2.250000000
  0
CIRCLE
  5
A1E
330
A02
100
AcDbEntity
  8
Part
100
AcDbCircle
 10
0.000000000
 20
0.000000000
 30
10.000000000
 40
18.000000000
  0
CIRCLE
  5
A1F
330
A02
100
AcDbEntity
  8
Part
100
AcDbCircle
 10
-9.899494937
 20
-9.899494937
 30
10.000000000
 40
2.250000000
  0
CIRCLE
  5
A20
330
A02
100
AcDbEntity
  8
Part
100
AcDbCircle
 10
9.899494937
 20
-9.899494937
 30
10.000000000
 40
2.250000000
  0
CIRCLE
  5
A21
330
A02
100
AcDbEntity
  8
Part
100
AcDbCircle
 10
-9.899494937
 20
9.899494937
 30
10.000000000
 40
2.250000000
  0
CIRCLE
  5
A22
330
A02
100
AcDbEntity
  8
Part
100
AcDbCircle
 10
0.000000000
 20
0.000000000
 30
10.000000000
 40
10.200000000
  0
CIRCLE
  5
A23
330
A02
100
AcDbEntity
  8
Part
100
AcDbCircle
 10
9.899494937
 20
9.899494937
 30
10.000000000
 40
2.250000000
  0
SPLINE
  5
A24
330
A02
100
AcDbEntity
  8
Part
100
AcDbSpline
210
0
220
0
230
1
 70
9
 71
3
 72
29
 73
25
 74
0
 40
0.000000000
 40
0.000000000
 40
0.000000000
 40
0.000000000
 40
0.123911371
 40
0.123911371
 40
0.123911371
 40
0.250009661
 40
0.250009661
 40
0.250009661
 40
0.376115841
 40
0.376115841
 40
0.376115841
 40
0.499978154
 40
0.499978154
 40
0.499978154
 40
0.623895064
 40
0.623895064
 40
0.623895064
 40
0.750010689
 40
0.750010689
 40
0.750010689
 40
0.876126315
 40
0.876126315
 40
0.876126315
 40
1.000000000
 40
1.000000000
 40
1.000000000
 40
1.000000000
 10
-10.200000000
 20
0.000000000
 30
6.600000000
 10
-10.200737176
 20
-0.494165980
 30
6.602791225
 10
-10.160954951
 20
-0.936766408
 30
6.363557133
 10
-10.129144755
 20
-1.200177711
 30
6.058098985
 10
-10.096350298
 20
-1.471516782
 30
5.748729356
 10
-10.073180573
 20
-1.599552573
 30
5.371942649
 10
-10.073728208
 20
-1.600000000
 30
5.000000000
 10
-10.073181803
 20
-1.599543566
 30
4.628035176
 10
-10.096348098
 20
-1.471532899
 30
4.251303063
 10
-10.129144755
 20
-1.200177711
 30
3.941901015
 10
-10.160948226
 20
-0.936890114
 30
3.636494828
 10
-10.200746261
 20
-0.493964244
 30
3.397143607
 10
-10.200000000
 20
0.000000000
 30
3.400000000
 10
-10.200737176
 20
0.494165980
 30
3.397208775
 10
-10.160954951
 20
0.936766408
 30
3.636442867
 10
-10.129144755
 20
1.200177711
 30
3.941901015
 10
-10.096348098
 20
1.471532899
 30
4.251303063
 10
-10.073181803
 20
1.599543566
 30
4.628035176
 10
-10.073728208
 20
1.600000000
 30
5.000000000
 10
-10.073181803
 20
1.599543566
 30
5.371964824
 10
-10.096348098
 20
1.471532899
 30
5.748696937
 10
-10.129144755
 20
1.200177711
 30
6.058098985
 10
-10.160949240
 20
0.936878027
 30
6.363513136
 10
-10.200745965
 20
0.493967549
 30
6.602853848
 10
-10.200000000
 20
0.000000000
 30
6.600000000
  0
LINE
  5
A25
330
A02
100
AcDbEntity
  8
Part
100
AcDbLine
 10
-18.000000000
 20
0.000000000
 30
6.600000000
 11
-10.200000000
 21
0.000000000
 31
6.600000000
  0
SPLINE
  5
A26
330
A02
100
AcDbEntity
  8
Part
100
AcDbSpline
210
0
220
0
230
1
 70
8
 71
3
 72
17
 73
13
 74
0
 40
0.000000000
 40
0.000000000
 40
0.000000000
 40
0.000000000
 40
0.257887063
 40
0.257887063
 40
0.257887063
 40
0.500426460
 40
0.500426460
 40
0.500426460
 40
0.742393463
 40
0.742393463
 40
0.742393463
 40
1.000000000
 40
1.000000000
 40
1.000000000
 40
1.000000000
 10
-18.000000000
 20
0.000000000
 30
3.400000000
 10
-18.000430359
 20
0.515043210
 30
3.397018204
 10
-17.976012469
 20
0.971395513
 30
3.656315569
 10
-17.957732371
 20
1.232821188
 30
3.980121616
 10
-17.940307644
 20
1.482160486
 30
4.282972275
 10
-17.928495766
 20
1.599545405
 30
4.643527951
 10
-17.928747865
 20
1.600000000
 30
5.000000000
 10
-17.928479768
 20
1.599744493
 30
5.355786658
 10
-17.940329013
 20
1.481888081
 30
5.717705316
 10
-17.957732371
 20
1.232821188
 30
6.019878384
 10
-17.976008776
 20
0.971518595
 30
6.343633283
 10
-18.000435991
 20
0.514826315
 30
6.603053407
 10
-18.000000000
 20
0.000000000
 30
6.600000000
  0
SPLINE
  5
A27
330
A02
100
AcDbEntity
  8
Part
100
AcDbSpline
210
0
220
0
230
1
 70
8
 71
3
 72
17
 73
13
 74
0
 40
0.000000000
 40
0.000000000
 40
0.000000000
 40
0.000000000
 40
0.257871620
 40
0.257871620
 40
0.257871620
 40
0.500332487
 40
0.500332487
 40
0.500332487
 40
0.742318459
 40
0.742318459
 40
0.742318459
 40
1.000000000
 40
1.000000000
 40
1.000000000
 40
1.000000000
 10
-18.000000000
 20
0.000000000
 30
6.600000000
 10
-18.000430359
 20
-0.515043210
 30
6.602981796
 10
-17.976012469
 20
-0.971395513
 30
6.343684431
 10
-17.957732371
 20
-1.232821188
 30
6.019878384
 10
-17.940311778
 20
-1.482107785
 30
5.717151559
 10
-17.928493254
 20
-1.599577087
 30
5.356372118
 10
-17.928747865
 20
-1.600000000
 30
5.000000000
 10
-17.928479768
 20
-1.599744493
 30
4.644213342
 10
-17.940329013
 20
-1.481888081
 30
4.282294684
 10
-17.957732371
 20
-1.232821188
 30
3.980121616
 10
-17.976010589
 20
-0.971454962
 30
3.656341629
 10
-18.000432867
 20
-0.514947508
 30
3.396986117
 10
-18.000000000
 20
0.000000000
 30
3.400000000
  0
LINE
  5
A28
330
A02
100
AcDbEntity
  8
Part
100
AcDbLine
 10
-18.000000000
 20
0.000000000
 30
6.600000000
 11
-10.200000000
 21
0.000000000
 31
6.600000000
  0
LINE
  5
A29
330
A02
100
AcDbEntity
  8
Part
100
AcDbLine
 10
10.200000000
 20
-0.000000000
 30
6.600000000
 11
10.200000000
 21
-0.000000000
 31
10.000000000
  0
SPLINE
  5
A2A
330
A02
100
AcDbEntity
  8
Part
100
AcDbSpline
210
0
220
0
230
1
 70
8
 71
3
 72
17
 73
13
 74
0
 40
0.000000000
 40
0.000000000
 40
0.000000000
 40
0.000000000
 40
0.247833570
 40
0.247833570
 40
0.247833570
 40
0.500041171
 40
0.500041171
 40
0.500041171
 40
0.752264549
 40
0.752264549
 40
0.752264549
 40
1.000000000
 40
1.000000000
 40
1.000000000
 40
1.000000000
 10
10.200000000
 20
-0.000000000
 30
6.600000000
 10
10.200737176
 20
-0.494165980
 30
6.602791225
 10
10.160954951
 20
-0.936766408
 30
6.363557133
 10
10.129144755
 20
-1.200177711
 30
6.058098985
 10
10.096350298
 20
-1.471516782
 30
5.748729356
 10
10.073180573
 20
-1.599552573
 30
5.371942649
 10
10.073728208
 20
-1.600000000
 30
5.000000000
 10
10.073181803
 20
-1.599543566
 30
4.628035176
 10
10.096348098
 20
-1.471532899
 30
4.251303063
 10
10.129144755
 20
-1.200177711
 30
3.941901015
 10
10.160948226
 20
-0.936890114
 30
3.636494828
 10
10.200746261
 20
-0.493964244
 30
3.397143607
 10
10.200000000
 20
-0.000000000
 30
3.400000000
  0
LINE
  5
A2B
330
A02
100
AcDbEntity
  8
Part
100
AcDbLine
 10
10.200000000
 20
-0.000000000
 30
0.000000000
 11
10.200000000
 21
-0.000000000
 31
3.400000000
  0
CIRCLE
  5
A2C
330
A02
100
AcDbEntity
  8
Part
100
AcDbCircle
 10
0.000000000
 20
0.000000000
 30
0.000000000
 40
10.200000000
  0
LINE
  5
A2D
330
A02
100
AcDbEntity
  8
Part
100
AcDbLine
 10
10.200000000
 20
-0.000000000
 30
0.000000000
 11
10.200000000
 21
-0.000000000
 31
3.400000000
  0
SPLINE
  5
A2E
330
A02
100
AcDbEntity
  8
Part
100
AcDbSpline
210
0
220
0
230
1
 70
8
 71
3
 72
17
 73
13
 74
0
 40
0.000000000
 40
0.000000000
 40
0.000000000
 40
0.000000000
 40
0.247822991
 40
0.247822991
 40
0.247822991
 40
0.500043223
 40
0.500043223
 40
0.500043223
 40
0.752263454
 40
0.752263454
 40
0.752263454
 40
1.000000000
 40
1.000000000
 40
1.000000000
 40
1.000000000
 10
10.200000000
 20
0.000000000
 30
3.400000000
 10
10.200737176
 20
0.494165980
 30
3.397208775
 10
10.160954951
 20
0.936766408
 30
3.636442867
 10
10.129144755
 20
1.200177711
 30
3.941901015
 10
10.096348098
 20
1.471532899
 30
4.251303063
 10
10.073181803
 20
1.599543566
 30
4.628035176
 10
10.073728208
 20
1.600000000
 30
5.000000000
 10
10.073181803
 20
1.599543566
 30
5.371964824
 10
10.096348098
 20
1.471532899
 30
5.748696937
 10
10.129144755
 20
1.200177711
 30
6.058098985
 10
10.160949240
 20
0.936878027
 30
6.363513136
 10
10.200745965
 20
0.493967549
 30
6.602853848
 10
10.200000000
 20
0.000000000
 30
6.600000000
  0
LINE
  5
A2F
330
A02
100
AcDbEntity
  8
Part
100
AcDbLine
 10
10.200000000
 20
-0.000000000
 30
6.600000000
 11
10.200000000
 21
-0.000000000
 31
10.000000000
  0
CIRCLE
  5
A30
330
A02
100
AcDbEntity
  8
Part
100
AcDbCircle
 10
0.000000000
 20
0.000000000
 30
10.000000000
 40
10.200000000
  0
SPLINE
  5
A31
330
A02
100
AcDbEntity
  8
Part
100
AcDbSpline
210
0
220
0
230
1
 70
9
 71
3
 72
29
 73
25
 74
0
 40
0.000000000
 40
0.000000000
 40
0.000000000
 40
0.000000000
 40
0.123911371
 40
0.123911371
 40
0.123911371
 40
0.250009661
 40
0.250009661
 40
0.250009661
 40
0.376115841
 40
0.376115841
 40
0.376115841
 40
0.499978154
 40
0.499978154
 40
0.499978154
 40
0.623895064
 40
0.623895064
 40
0.623895064
 40
0.750010689
 40
0.750010689
 40
0.750010689
 40
0.876126315
 40
0.876126315
 40
0.876126315
 40
1.000000000
 40
1.000000000
 40
1.000000000
 40
1.000000000
 10
-10.200000000
 20
0.000000000
 30
6.600000000
 10
-10.200737176
 20
-0.494165980
 30
6.602791225
 10
-10.160954951
 20
-0.936766408
 30
6.363557133
 10
-10.129144755
 20
-1.200177711
 30
6.058098985
 10
-10.096350298
 20
-1.471516782
 30
5.748729356
 10
-10.073180573
 20
-1.599552573
 30
5.371942649
 10
-10.073728208
 20
-1.600000000
 30
5.000000000
 10
-10.073181803
 20
-1.599543566
 30
4.628035176
 10
-10.096348098
 20
-1.471532899
 30
4.251303063
 10
-10.129144755
 20
-1.200177711
 30
3.941901015
 10
-10.160948226
 20
-0.936890114
 30
3.636494828
 10
-10.200746261
 20
-0.493964244
 30
3.397143607
 10
-10.200000000
 20
0.000000000
 30
3.400000000
 10
-10.200737176
 20
0.494165980
 30
3.397208775
 10
-10.160954951
 20
0.936766408
 30
3.636442867
 10
-10.129144755
 20
1.200177711
 30
3.941901015
 10
-10.096348098
 20
1.471532899
 30
4.251303063
 10
-10.073181803
 20
1.599543566
 30
4.628035176
 10
-10.073728208
 20
1.600000000
 30
5.000000000
 10
-10.073181803
 20
1.599543566
 30
5.371964824
 10
-10.096348098
 20
1.471532899
 30
5.748696937
 10
-10.129144755
 20
1.200177711
 30
6.058098985
 10
-10.160949240
 20
0.936878027
 30
6.363513136
 10
-10.200745965
 20
0.493967549
 30
6.602853848
 10
-10.200000000
 20
0.000000000
 30
6.600000000
  0
CIRCLE
  5
A32
330
A02
100
AcDbEntity
  8
Part
100
AcDbCircle
 10
-9.899494937
 20
-9.899494937
 30
10.000000000
 40
2.250000000
  0
LINE
  5
A33
330
A02
100
AcDbEntity
  8
Part
100
AcDbLine
 10
-7.649494937
 20
-9.899494937
 30
0.000000000
 11
-7.649494937
 21
-9.899494937
 31
10.000000000
  0
CIRCLE
  5
A34
330
A02
100
AcDbEntity
  8
Part
100
AcDbCircle
 10
-9.899494937
 20
-9.899494937
 30
0.000000000
 40
2.250000000
  0
LINE
  5
A35
330
A02
100
AcDbEntity
  8
Part
100
AcDbLine
 10
-7.649494937
 20
-9.899494937
 30
0.000000000
 11
-7.649494937
 21
-9.899494937
 31
10.000000000
  0
CIRCLE
  5
A36
330
A02
100
AcDbEntity
  8
Part
100
AcDbCircle
 10
9.899494937
 20
-9.899494937
 30
10.000000000
 40
2.250000000
  0
LINE
  5
A37
330
A02
100
AcDbEntity
  8
Part
100
AcDbLine
 10
12.149494937
 20
-9.899494937
 30
0.000000000
 11
12.149494937
 21
-9.899494937
 31
10.000000000
  0
CIRCLE
  5
A38
330
A02
100
AcDbEntity
  8
Part
100
AcDbCircle
 10
9.899494937
 20
-9.899494937
 30
0.000000000
 40
2.250000000
  0
LINE
  5
A39
330
A02
100
AcDbEntity
  8
Part
100
AcDbLine
 10
12.149494937
 20
-9.899494937
 30
0.000000000
 11
12.149494937
 21
-9.899494937
 31
10.000000000
  0
CIRCLE
  5
A3A
330
A02
100
AcDbEntity
  8
Part
100
AcDbCircle
 10
-9.899494937
 20
9.899494937
 30
10.000000000
 40
2.250000000
  0
LINE
  5
A3B
330
A02
100
AcDbEntity
  8
Part
100
AcDbLine
 10
-7.649494937
 20
9.899494937
 30
0.000000000
 11
-7.649494937
 21
9.899494937
 31
10.000000000
  0
CIRCLE
  5
A3C
330
A02
100
AcDbEntity
  8
Part
100
AcDbCircle
 10
-9.899494937
 20
9.899494937
 30
0.000000000
 40
2.250000000
  0
LINE
  5
A3D
330
A02
100
AcDbEntity
  8
Part
100
AcDbLine
 10
-7.649494937
 20
9.899494937
 30
0.000000000
 11
-7.649494937
 21
9.899494937
 31
10.000000000
  0
CIRCLE
  5
A3E
330
A02
100
AcDbEntity
  8
Part
100
AcDbCircle
 10
9.899494937
 20
9.899494937
 30
10.000000000
 40
2.250000000
  0
LINE
  5
A3F
330
A02
100
AcDbEntity
  8
Part
100
AcDbLine
 10
12.149494937
 20
9.899494937
 30
0.000000000
 11
12.149494937
 21
9.899494937
 31
10.000000000
  0
CIRCLE
  5
A40
330
A02
100
AcDbEntity
  8
Part
100
AcDbCircle
 10
9.899494937
 20
9.899494937
 30
0.000000000
 40
2.250000000
  0
LINE
  5
A41
330
A02
100
AcDbEntity
  8
Part
100
AcDbLine
 10
12.149494937
 20
9.899494937
 30
0.000000000
 11
12.149494937
 21
9.899494937
 31
10.000000000
  0
ENDSEC
  0
SECTION
  2
OBJECTS
  0
DICTIONARY
  5
F000
330
0
100
AcDbDictionary
  3
ACAD_GROUP
350
F001
  0
DICTIONARY
  5
F001
330
F000
100
AcDbDictionary
  0
ENDSEC
  0
EOF
