999
FreeCAD v1.1 Unknown
  0
SECTION
  2
HEADER
  9
$ACADVER
  1
AC1014
  9
$ACADMAINTVER
 70
     9
  9
$DWGCODEPAGE
  3
ANSI_1252
  9
$TEXTSTYLE
  7
STANDARD
  9
$DIMSTYLE
  2
STANDARD
  9
$DIMTXSTY
  7
STANDARD
  9
$CMLSTYLE
  2
STANDARD
  9
$LUNITS
 70
2
  9
$INSUNITS
 70
4
  9
$PEXTMAX
 10
50
 20
50
 30
50
  9
$PEXTMIN
 10
0
 20
0
 30
0
  9
$HANDSEED
  5
FFFF
  0
ENDSEC
  0
SECTION
  2
CLASSES
  0
CLASS
  1
ACDBDICTIONARYWDFLT
  2
AcDbDictionaryWithDefault
  3
ObjectDBX Classes
 90
        0
280
     0
281
     0
  0
CLASS
  1
XRECORD
  2
AcDbXrecord
  3
ObjectDBX Classes
 90
        0
280
     0
281
     0
  0
CLASS
  1
LWPOLYLINE
  2
AcDbPolyline
  3
ObjectDBX Classes
 90
        0
280
     0
281
     1
  0
ENDSEC
  0
SECTION
  2
TABLES
  0
TABLE
  2
VPORT
  5
20
330
0
100
AcDbSymbolTable
 70
     1
  0
VPORT
  5
21
330
20
100
AcDbSymbolTableRecord
100
AcDbViewportTableRecord
  2
*ACTIVE
 70
     0
  0
ENDTAB
  0
TABLE
  2
LTYPE
  5
22
330
0
100
AcDbSymbolTable
 70
     1
  0
LTYPE
  5
23
330
21
100
AcDbSymbolTableRecord
100
AcDbLinetypeTableRecord
  2
BYBLOCK
 70
     0
  3

 72
    65
 73
     0
 40
0.0
  0
LTYPE
  5
24
330
21
100
AcDbSymbolTableRecord
100
AcDbLinetypeTableRecord
  2
BYLAYER
 70
     0
  3

 72
    65
 73
     0
 40
0.0
  0
LTYPE
  5
25
330
21
100
AcDbSymbolTableRecord
100
AcDbLinetypeTableRecord
  2
CONTINUOUS
 70
     0
  3
Solid line
 72
    65
 73
     0
 40
0.0
  0
ENDTAB
  0
TABLE
  2
LAYER
  5
A3A
330
0
100
AcDbSymbolTable
 70
3
  0
LAYER
  5
A3B
330
A3A
100
AcDbSymbolTableRecord
100
AcDbLayerTableRecord
  2
0
 70
   0
 62
   7
  6
CONTINUOUS
  0
LAYER
  5
A3C
330
A3A
100
AcDbSymbolTableRecord
100
AcDbLayerTableRecord
  2
none
 70
    0
 62
    7
  6
CONTINUOUS
  0
LAYER
  5
A3D
330
A3A
100
AcDbSymbolTableRecord
100
AcDbLayerTableRecord
  2
Part
 70
    0
 62
    7
  6
CONTINUOUS
  0
ENDTAB
  0
TABLE
  2
STYLE
  5
70
330
0
100
AcDbSymbolTable
 70
     2
  0
STYLE
  5
71
330
70
100
AcDbSymbolTableRecord
100
AcDbTextStyleTableRecord
  2
STANDARD
 70
     0
 40
0.0
 41
1.0
 50
0.0
 71
     0
 42
2.5
  3
arial.ttf
  4

  0
STYLE
  5
72
330
70
100
AcDbSymbolTableRecord
100
AcDbTextStyleTableRecord
  2
ANNOTATIVE
 70
     0
 40
0.0
 41
1.0
 50
0.0
 71
     0
 42
2.5
  3
arial.ttf
  4

  0
ENDTAB
  0
TABLE
  2
VIEW
  5
73
330
0
100
AcDbSymbolTable
 70
     0
  0
ENDTAB
  0
TABLE
  2
UCS
  5
74
330
0
100
AcDbSymbolTable
 70
     0
  0
ENDTAB
  0
TABLE
  2
APPID
  5
75
330
0
100
AcDbSymbolTable
 70
     2
  0
APPID
  5
76
330
75
100
AcDbSymbolTableRecord
100
AcDbRegAppTableRecord
  2
ACAD
 70
     0
  0
APPID
  5
77
330
75
100
AcDbSymbolTableRecord
100
AcDbRegAppTableRecord
  2
ACADANNOTATIVE
 70
     0
  0
ENDTAB
  0
TABLE
  2
DIMSTYLE
  5
78
330
0
100
AcDbSymbolTable
 70
     2
  0
DIMSTYLE
105
79
330
78
100
AcDbSymbolTableRecord
100
AcDbDimStyleTableRecord
  2
STANDARD
 70
     0
  3

  4

  5

  6

  7

 40
0.0
 41
2.5
 42
0.625
 43
3.75
 44
1.25
 45
0.0
 46
0.0
 47
0.0
 48
0.0
140
2.5
141
2.5
142
0.0
143
0.03937007874016
144
1.0
145
0.0
146
1.0
147
0.625
 71
     0
 72
     0
 73
     0
 74
     0
 75
     0
 76
     0
 77
     1
 78
     8
170
     0
171
     3
172
     1
173
     0
174
     0
175
     0
176
     0
177
     0
178
     0
270
     2
271
     2
272
     2
273
     2
274
     3
340
71
275
     0
280
     0
281
     0
282
     0
283
     0
284
     8
285
     0
286
     0
287
     3
288
     0
  0
ENDTAB
  0
TABLE
  2
BLOCK_RECORD
  5
A01
330
0
100
AcDbSymbolTable
  70
5
  0
BLOCK_RECORD
  5
A02
330
A01
100
AcDbSymbolTableRecord
100
AcDbBlockTableRecord
  2
*MODEL_SPACE
  0
BLOCK_RECORD
  5
A03
330
A01
100
AcDbSymbolTableRecord
100
AcDbBlockTableRecord
  2
*PAPER_SPACE
  0
ENDTAB
  0
ENDSEC
  0
SECTION
  2
BLOCKS
  0
BLOCK
  5
A04
330
A02
100
AcDbEntity
  8
0
100
AcDbBlockBegin
  2
*MODEL_SPACE
 70
   0
 10
0
 20
0
 30
0
  3
*MODEL_SPACE
  1

  0
ENDBLK
  5
A05
330
A02
100
AcDbEntity
  8
0
100
AcDbBlockEnd
  0
BLOCK
  5
A06
330
A03
100
AcDbEntity
 67
1
  8
0
100
AcDbBlockBegin
  2
*PAPER_SPACE
 70
   0
 10
0
 20
0
 30
0
  3
*PAPER_SPACE
  1

  0
ENDBLK
  5
A07
330
A03
100
AcDbEntity
 67
    1
  8
0
100
AcDbBlockEnd
  0
ENDSEC
  0
SECTION
  2
ENTITIES
  0
LINE
  5
A08
330
A02
100
AcDbEntity
  8
Part
100
AcDbLine
 10
4.000000000
 20
-0.000000000
 30
185.000000000
 11
4.000000000
 21
-0.000000000
 31
271.000000000
  0
SPLINE
  5
A09
330
A02
100
AcDbEntity
  8
Part
100
AcDbSpline
210
0
220
0
230
1
 70
8
 71
3
 72
26
 73
22
 74
0
 40
0.000000000
 40
0.000000000
 40
0.000000000
 40
0.000000000
 40
0.125297274
 40
0.125297274
 40
0.125297274
 40
0.249388887
 40
0.249388887
 40
0.249388887
 40
0.499940492
 40
0.499940492
 40
0.499940492
 40
0.669070087
 40
0.669070087
 40
0.669070087
 40
0.820263032
 40
0.820263032
 40
0.820263032
 40
0.875566936
 40
0.875566936
 40
0.875566936
 40
1.000000000
 40
1.000000000
 40
1.000000000
 40
1.000000000
 10
4.000000000
 20
-0.000000000
 30
271.000000000
 10
4.000604861
 20
0.312931700
 30
270.999191426
 10
3.961024749
 20
0.618964528
 30
271.076282238
 10
3.903443054
 20
0.873574454
 30
271.200870301
 10
3.846773060
 20
1.126256975
 30
271.323787881
 10
3.775046977
 20
1.334142926
 30
271.489420344
 10
3.708383894
 20
1.499296134
 30
271.676326663
 10
3.571592311
 20
1.832051742
 30
272.054263722
 10
3.461659602
 20
1.999534126
 30
272.525177366
 10
3.464101615
 20
2.000000000
 30
273.000000000
 10
3.463464980
 20
2.000015948
 30
273.320264998
 10
3.510966565
 20
1.922959385
 30
273.639532554
 10
3.586459110
 20
1.771245622
 30
273.928810501
 10
3.653223555
 20
1.635481222
 30
274.187130785
 10
3.741291034
 20
1.440468117
 30
274.423962644
 10
3.821974560
 20
1.180046807
 30
274.614772285
 10
3.851724741
 20
1.084746801
 30
274.684787167
 10
3.879301872
 20
0.980701898
 30
274.747152432
 10
3.904705954
 20
0.867912101
 30
274.801868082
 10
3.961620899
 20
0.614497015
 30
274.924868595
 10
4.000591256
 20
0.310600826
 30
275.000790601
 10
4.000000000
 20
0.000000000
 30
275.000000000
  0
LINE
  5
A0A
330
A02
100
AcDbEntity
  8
Part
100
AcDbLine
 10
4.000000000
 20
-0.000000000
 30
275.000000000
 11
4.000000000
 21
-0.000000000
 31
300.000000000
  0
CIRCLE
  5
A0B
330
A02
100
AcDbEntity
  8
Part
100
AcDbCircle
 10
0.000000000
 20
0.000000000
 30
300.000000000
 40
4.000000000
  0
LINE
  5
A0C
330
A02
100
AcDbEntity
  8
Part
100
AcDbLine
 10
4.000000000
 20
-0.000000000
 30
275.000000000
 11
4.000000000
 21
-0.000000000
 31
300.000000000
  0
SPLINE
  5
A0D
330
A02
100
AcDbEntity
  8
Part
100
AcDbSpline
210
0
220
0
230
1
 70
8
 71
3
 72
26
 73
22
 74
0
 40
0.000000000
 40
0.000000000
 40
0.000000000
 40
0.000000000
 40
0.125297279
 40
0.125297279
 40
0.125297279
 40
0.249388896
 40
0.249388896
 40
0.249388896
 40
0.499940511
 40
0.499940511
 40
0.499940511
 40
0.669070111
 40
0.669070111
 40
0.669070111
 40
0.820263062
 40
0.820263062
 40
0.820263062
 40
0.875566961
 40
0.875566961
 40
0.875566961
 40
1.000000000
 40
1.000000000
 40
1.000000000
 40
1.000000000
 10
4.000000000
 20
-0.000000000
 30
275.000000000
 10
4.000604861
 20
-0.312931700
 30
275.000808574
 10
3.961024749
 20
-0.618964528
 30
274.923717762
 10
3.903443054
 20
-0.873574454
 30
274.799129699
 10
3.846773060
 20
-1.126256975
 30
274.676212119
 10
3.775046977
 20
-1.334142926
 30
274.510579656
 10
3.708383894
 20
-1.499296134
 30
274.323673337
 10
3.571592311
 20
-1.832051742
 30
273.945736278
 10
3.461659602
 20
-1.999534126
 30
273.474822634
 10
3.464101615
 20
-2.000000000
 30
273.000000000
 10
3.463464980
 20
-2.000015948
 30
272.679735002
 10
3.510966565
 20
-1.922959385
 30
272.360467446
 10
3.586459110
 20
-1.771245622
 30
272.071189499
 10
3.653223555
 20
-1.635481222
 30
271.812869215
 10
3.741291034
 20
-1.440468117
 30
271.576037356
 10
3.821974560
 20
-1.180046807
 30
271.385227715
 10
3.851724741
 20
-1.084746801
 30
271.315212833
 10
3.879301872
 20
-0.980701898
 30
271.252847568
 10
3.904705954
 20
-0.867912101
 30
271.198131918
 10
3.961620899
 20
-0.614497015
 30
271.075131405
 10
4.000591256
 20
-0.310600826
 30
270.999209399
 10
4.000000000
 20
-0.000000000
 30
271.000000000
  0
LINE
  5
A0E
330
A02
100
AcDbEntity
  8
Part
100
AcDbLine
 10
4.000000000
 20
-0.000000000
 30
185.000000000
 11
4.000000000
 21
-0.000000000
 31
271.000000000
  0
SPLINE
  5
A0F
330
A02
100
AcDbEntity
  8
Part
100
AcDbSpline
210
0
220
0
230
1
 70
8
 71
3
 72
26
 73
22
 74
0
 40
0.000000000
 40
0.000000000
 40
0.000000000
 40
0.000000000
 40
0.125297256
 40
0.125297256
 40
0.125297256
 40
0.249388871
 40
0.249388871
 40
0.249388871
 40
0.499940494
 40
0.499940494
 40
0.499940494
 40
0.669070100
 40
0.669070100
 40
0.669070100
 40
0.820263056
 40
0.820263056
 40
0.820263056
 40
0.875566957
 40
0.875566957
 40
0.875566957
 40
1.000000000
 40
1.000000000
 40
1.000000000
 40
1.000000000
 10
4.000000000
 20
-0.000000000
 30
185.000000000
 10
4.000604861
 20
-0.312931700
 30
185.000808574
 10
3.961024749
 20
-0.618964528
 30
184.923717762
 10
3.903443054
 20
-0.873574454
 30
184.799129699
 10
3.846773054
 20
-1.126256999
 30
184.676212105
 10
3.775046973
 20
-1.334142935
 30
184.510579645
 10
3.708383894
 20
-1.499296134
 30
184.323673337
 10
3.571592311
 20
-1.832051742
 30
183.945736278
 10
3.461659602
 20
-1.999534126
 30
183.474822634
 10
3.464101615
 20
-2.000000000
 30
183.000000000
 10
3.463464980
 20
-2.000015948
 30
182.679735002
 10
3.510966565
 20
-1.922959385
 30
182.360467446
 10
3.586459110
 20
-1.771245622
 30
182.071189499
 10
3.653223555
 20
-1.635481222
 30
181.812869215
 10
3.741291034
 20
-1.440468117
 30
181.576037356
 10
3.821974560
 20
-1.180046807
 30
181.385227715
 10
3.851724741
 20
-1.084746801
 30
181.315212833
 10
3.879301872
 20
-0.980701898
 30
181.252847568
 10
3.904705954
 20
-0.867912101
 30
181.198131918
 10
3.961620899
 20
-0.614497015
 30
181.075131405
 10
4.000591256
 20
-0.310600826
 30
180.999209399
 10
4.000000000
 20
-0.000000000
 30
181.000000000
  0
LINE
  5
A10
330
A02
100
AcDbEntity
  8
Part
100
AcDbLine
 10
4.000000000
 20
-0.000000000
 30
0.000000000
 11
4.000000000
 21
-0.000000000
 31
181.000000000
  0
CIRCLE
  5
A11
330
A02
100
AcDbEntity
  8
Part
100
AcDbCircle
 10
0.000000000
 20
0.000000000
 30
0.000000000
 40
4.000000000
  0
LINE
  5
A12
330
A02
100
AcDbEntity
  8
Part
100
AcDbLine
 10
4.000000000
 20
-0.000000000
 30
0.000000000
 11
4.000000000
 21
-0.000000000
 31
181.000000000
  0
SPLINE
  5
A13
330
A02
100
AcDbEntity
  8
Part
100
AcDbSpline
210
0
220
0
230
1
 70
8
 71
3
 72
26
 73
22
 74
0
 40
0.000000000
 40
0.000000000
 40
0.000000000
 40
0.000000000
 40
0.125297274
 40
0.125297274
 40
0.125297274
 40
0.249388887
 40
0.249388887
 40
0.249388887
 40
0.499940492
 40
0.499940492
 40
0.499940492
 40
0.669070087
 40
0.669070087
 40
0.669070087
 40
0.820263032
 40
0.820263032
 40
0.820263032
 40
0.875566936
 40
0.875566936
 40
0.875566936
 40
1.000000000
 40
1.000000000
 40
1.000000000
 40
1.000000000
 10
4.000000000
 20
-0.000000000
 30
181.000000000
 10
4.000604861
 20
0.312931700
 30
180.999191426
 10
3.961024749
 20
0.618964528
 30
181.076282238
 10
3.903443054
 20
0.873574454
 30
181.200870301
 10
3.846773060
 20
1.126256975
 30
181.323787881
 10
3.775046977
 20
1.334142926
 30
181.489420344
 10
3.708383894
 20
1.499296134
 30
181.676326663
 10
3.571592311
 20
1.832051742
 30
182.054263722
 10
3.461659602
 20
1.999534126
 30
182.525177366
 10
3.464101615
 20
2.000000000
 30
183.000000000
 10
3.463464980
 20
2.000015948
 30
183.320264998
 10
3.510966565
 20
1.922959385
 30
183.639532554
 10
3.586459110
 20
1.771245622
 30
183.928810501
 10
3.653223555
 20
1.635481222
 30
184.187130785
 10
3.741291034
 20
1.440468117
 30
184.423962644
 10
3.821974560
 20
1.180046807
 30
184.614772285
 10
3.851724741
 20
1.084746801
 30
184.684787167
 10
3.879301872
 20
0.980701898
 30
184.747152432
 10
3.904705954
 20
0.867912101
 30
184.801868082
 10
3.961620899
 20
0.614497015
 30
184.924868595
 10
4.000591256
 20
0.310600826
 30
185.000790601
 10
4.000000000
 20
0.000000000
 30
185.000000000
  0
SPLINE
  5
A14
330
A02
100
AcDbEntity
  8
Part
100
AcDbSpline
210
0
220
0
230
1
 70
9
 71
3
 72
47
 73
43
 74
0
 40
0.000000000
 40
0.000000000
 40
0.000000000
 40
0.000000000
 40
0.062618146
 40
0.062618146
 40
0.062618146
 40
0.124633755
 40
0.124633755
 40
0.124633755
 40
0.249848588
 40
0.249848588
 40
0.249848588
 40
0.335342742
 40
0.335342742
 40
0.335342742
 40
0.409931194
 40
0.409931194
 40
0.409931194
 40
0.473656673
 40
0.473656673
 40
0.473656673
 40
0.526760073
 40
0.526760073
 40
0.526760073
 40
0.562108959
 40
0.562108959
 40
0.562108959
 40
0.624384130
 40
0.624384130
 40
0.624384130
 40
0.750016209
 40
0.750016209
 40
0.750016209
 40
0.834565461
 40
0.834565461
 40
0.834565461
 40
0.910148036
 40
0.910148036
 40
0.910148036
 40
0.937794905
 40
0.937794905
 40
0.937794905
 40
1.000000000
 40
1.000000000
 40
1.000000000
 40
1.000000000
 10
0.000000000
 20
4.000000000
 30
230.000000000
 10
0.312931700
 20
4.000604861
 30
230.000808574
 10
0.618964528
 20
3.961024749
 30
229.923717762
 10
0.873574454
 20
3.903443054
 30
229.799129699
 10
1.126256975
 20
3.846773060
 30
229.676212119
 10
1.334142926
 20
3.775046977
 30
229.510579656
 10
1.499296134
 20
3.708383894
 30
229.323673337
 10
1.832051742
 20
3.571592311
 30
228.945736278
 10
1.999534126
 20
3.461659602
 30
228.474822634
 10
2.000000000
 20
3.464101615
 30
228.000000000
 10
2.000013335
 20
3.463438991
 30
227.676049544
 10
1.921184306
 20
3.512097467
 30
227.353149338
 10
1.765989110
 20
3.589050357
 30
227.061233541
 10
1.630450937
 20
3.655470473
 30
226.806814485
 10
1.437129352
 20
3.742335332
 30
226.573574378
 10
1.180046807
 20
3.821974560
 30
226.385227715
 10
0.961338615
 20
3.889663662
 30
226.225029269
 10
0.691119239
 20
3.951860870
 30
226.097519290
 10
0.386018476
 20
3.981330147
 30
226.037606121
 10
0.132607598
 20
4.006430225
 30
225.987006042
 10
-0.141377650
 20
4.006104974
 30
225.987632987
 10
-0.394341056
 20
3.980514431
 30
226.039261585
 10
-0.563619179
 20
3.963077762
 30
226.074137962
 10
-0.720833987
 20
3.937950849
 30
226.126785829
 10
-0.865985480
 20
3.905133691
 30
226.197205184
 10
-1.120522448
 20
3.848567058
 30
226.319702547
 10
-1.329950456
 20
3.776581599
 30
226.485547057
 10
-1.496256113
 20
3.709611522
 30
226.672891246
 10
-1.831051921
 20
3.572290027
 30
227.051412303
 10
-1.999523585
 20
3.461634962
 30
227.523737745
 10
-2.000000000
 20
3.464101615
 30
228.000000000
 10
-2.000015948
 20
3.463464980
 30
228.320264998
 10
-1.922959385
 20
3.510966565
 30
228.639532554
 10
-1.771245622
 20
3.586459110
 30
228.928810501
 10
-1.635481222
 20
3.653223555
 30
229.187130785
 10
-1.440468117
 20
3.741291034
 30
229.423962644
 10
-1.180046807
 20
3.821974560
 30
229.614772285
 10
-1.084746801
 20
3.851724741
 30
229.684787167
 10
-0.980701898
 20
3.879301872
 30
229.747152432
 10
-0.867912101
 20
3.904705954
 30
229.801868082
 10
-0.614497015
 20
3.961620899
 30
229.924868595
 10
-0.310600826
 20
4.000591256
 30
230.000790601
 10
-0.000000000
 20
4.000000000
 30
230.000000000
  0
SPLINE
  5
A15
330
A02
100
AcDbEntity
  8
Part
100
AcDbSpline
210
0
220
0
230
1
 70
9
 71
3
 72
44
 73
40
 74
0
 40
0.000000000
 40
0.000000000
 40
0.000000000
 40
0.000000000
 40
0.062619536
 40
0.062619536
 40
0.062619536
 40
0.124636532
 40
0.124636532
 40
0.124636532
 40
0.249854171
 40
0.249854171
 40
0.249854171
 40
0.334379705
 40
0.334379705
 40
0.334379705
 40
0.409941079
 40
0.409941079
 40
0.409941079
 40
0.473669892
 40
0.473669892
 40
0.473669892
 40
0.525408011
 40
0.525408011
 40
0.525408011
 40
0.623665837
 40
0.623665837
 40
0.623665837
 40
0.750024714
 40
0.750024714
 40
0.750024714
 40
0.834571089
 40
0.834571089
 40
0.834571089
 40
0.910151094
 40
0.910151094
 40
0.910151094
 40
0.937797022
 40
0.937797022
 40
0.937797022
 40
1.000000000
 40
1.000000000
 40
1.000000000
 40
1.000000000
 10
-4.000000000
 20
0.000000000
 30
185.000000000
 10
-4.000604861
 20
-0.312931700
 30
185.000808574
 10
-3.961024749
 20
-0.618964528
 30
184.923717762
 10
-3.903443054
 20
-0.873574454
 30
184.799129699
 10
-3.846773053
 20
-1.126257000
 30
184.676212105
 10
-3.775046973
 20
-1.334142936
 30
184.510579644
 10
-3.708383894
 20
-1.499296134
 30
184.323673337
 10
-3.571592311
 20
-1.832051742
 30
183.945736278
 10
-3.461659602
 20
-1.999534126
 30
183.474822634
 10
-3.464101615
 20
-2.000000000
 30
183.000000000
 10
-3.463464980
 20
-2.000015948
 30
182.679735002
 10
-3.510966565
 20
-1.922959385
 30
182.360467446
 10
-3.586459110
 20
-1.771245622
 30
182.071189499
 10
-3.653223555
 20
-1.635481222
 30
181.812869215
 10
-3.741291034
 20
-1.440468117
 30
181.576037356
 10
-3.821974560
 20
-1.180046807
 30
181.385227715
 10
-3.889663654
 20
-0.961338643
 30
181.225029288
 10
-3.951860868
 20
-0.691119261
 30
181.097519295
 10
-3.981330147
 20
-0.386018476
 30
181.037606121
 10
-4.005745801
 20
-0.139136753
 30
180.988362487
 10
-4.006171076
 20
0.127305457
 30
180.987541432
 10
-3.982405425
 20
0.374762629
 30
181.035425499
 10
-3.937550202
 20
0.849168296
 30
181.126685777
 10
-3.817047849
 20
1.228803688
 30
181.373146471
 10
-3.711975815
 20
1.490381009
 30
181.666296716
 10
-3.573641833
 20
1.829115836
 30
182.045921306
 10
-3.461586817
 20
1.999503839
 30
182.520963135
 10
-3.464101615
 20
2.000000000
 30
183.000000000
 10
-3.463464980
 20
2.000015948
 30
183.320264998
 10
-3.510966565
 20
1.922959385
 30
183.639532554
 10
-3.586459110
 20
1.771245622
 30
183.928810501
 10
-3.653223555
 20
1.635481222
 30
184.187130785
 10
-3.741291034
 20
1.440468117
 30
184.423962644
 10
-3.821974560
 20
1.180046807
 30
184.614772285
 10
-3.851724741
 20
1.084746801
 30
184.684787167
 10
-3.879301872
 20
0.980701898
 30
184.747152432
 10
-3.904705954
 20
0.867912101
 30
184.801868082
 10
-3.961620899
 20
0.614497015
 30
184.924868595
 10
-4.000591256
 20
0.310600826
 30
185.000790601
 10
-4.000000000
 20
0.000000000
 30
185.000000000
  0
SPLINE
  5
A16
330
A02
100
AcDbEntity
  8
Part
100
AcDbSpline
210
0
220
0
230
1
 70
9
 71
3
 72
47
 73
43
 74
0
 40
0.000000000
 40
0.000000000
 40
0.000000000
 40
0.000000000
 40
0.062618142
 40
0.062618142
 40
0.062618142
 40
0.124633746
 40
0.124633746
 40
0.124633746
 40
0.249848568
 40
0.249848568
 40
0.249848568
 40
0.335342716
 40
0.335342716
 40
0.335342716
 40
0.409931163
 40
0.409931163
 40
0.409931163
 40
0.473656636
 40
0.473656636
 40
0.473656636
 40
0.526760033
 40
0.526760033
 40
0.526760033
 40
0.562108915
 40
0.562108915
 40
0.562108915
 40
0.624384093
 40
0.624384093
 40
0.624384093
 40
0.750016190
 40
0.750016190
 40
0.750016190
 40
0.834565454
 40
0.834565454
 40
0.834565454
 40
0.910148041
 40
0.910148041
 40
0.910148041
 40
0.937794911
 40
0.937794911
 40
0.937794911
 40
1.000000000
 40
1.000000000
 40
1.000000000
 40
1.000000000
 10
-0.000000000
 20
-4.000000000
 30
230.000000000
 10
0.312931700
 20
-4.000604861
 30
230.000808574
 10
0.618964528
 20
-3.961024749
 30
229.923717762
 10
0.873574454
 20
-3.903443054
 30
229.799129699
 10
1.126256975
 20
-3.846773060
 30
229.676212119
 10
1.334142926
 20
-3.775046977
 30
229.510579656
 10
1.499296134
 20
-3.708383894
 30
229.323673337
 10
1.832051742
 20
-3.571592311
 30
228.945736278
 10
1.999534126
 20
-3.461659602
 30
228.474822634
 10
2.000000000
 20
-3.464101615
 30
228.000000000
 10
2.000013335
 20
-3.463438991
 30
227.676049544
 10
1.921184306
 20
-3.512097467
 30
227.353149338
 10
1.765989110
 20
-3.589050357
 30
227.061233541
 10
1.630450937
 20
-3.655470473
 30
226.806814485
 10
1.437129352
 20
-3.742335332
 30
226.573574378
 10
1.180046807
 20
-3.821974560
 30
226.385227715
 10
0.961338615
 20
-3.889663662
 30
226.225029269
 10
0.691119239
 20
-3.951860870
 30
226.097519290
 10
0.386018476
 20
-3.981330147
 30
226.037606121
 10
0.132607598
 20
-4.006430225
 30
225.987006042
 10
-0.141377650
 20
-4.006104974
 30
225.987632987
 10
-0.394341056
 20
-3.980514431
 30
226.039261585
 10
-0.563619179
 20
-3.963077762
 30
226.074137962
 10
-0.720833987
 20
-3.937950849
 30
226.126785829
 10
-0.865985480
 20
-3.905133691
 30
226.197205184
 10
-1.120522474
 20
-3.848567052
 30
226.319702562
 10
-1.329950466
 20
-3.776581594
 30
226.485547070
 10
-1.496256113
 20
-3.709611522
 30
226.672891246
 10
-1.831051921
 20
-3.572290027
 30
227.051412303
 10
-1.999523585
 20
-3.461634962
 30
227.523737745
 10
-2.000000000
 20
-3.464101615
 30
228.000000000
 10
-2.000015948
 20
-3.463464980
 30
228.320264998
 10
-1.922959385
 20
-3.510966565
 30
228.639532554
 10
-1.771245622
 20
-3.586459110
 30
228.928810501
 10
-1.635481222
 20
-3.653223555
 30
229.187130785
 10
-1.440468117
 20
-3.741291034
 30
229.423962644
 10
-1.180046807
 20
-3.821974560
 30
229.614772285
 10
-1.084746801
 20
-3.851724741
 30
229.684787167
 10
-0.980701898
 20
-3.879301872
 30
229.747152432
 10
-0.867912101
 20
-3.904705954
 30
229.801868082
 10
-0.614497015
 20
-3.961620899
 30
229.924868595
 10
-0.310600826
 20
-4.000591256
 30
230.000790601
 10
-0.000000000
 20
-4.000000000
 30
230.000000000
  0
SPLINE
  5
A17
330
A02
100
AcDbEntity
  8
Part
100
AcDbSpline
210
0
220
0
230
1
 70
9
 71
3
 72
44
 73
40
 74
0
 40
0.000000000
 40
0.000000000
 40
0.000000000
 40
0.000000000
 40
0.062619543
 40
0.062619543
 40
0.062619543
 40
0.124636546
 40
0.124636546
 40
0.124636546
 40
0.249854198
 40
0.249854198
 40
0.249854198
 40
0.334379742
 40
0.334379742
 40
0.334379742
 40
0.409941124
 40
0.409941124
 40
0.409941124
 40
0.473669943
 40
0.473669943
 40
0.473669943
 40
0.525408068
 40
0.525408068
 40
0.525408068
 40
0.623665891
 40
0.623665891
 40
0.623665891
 40
0.750024751
 40
0.750024751
 40
0.750024751
 40
0.834571113
 40
0.834571113
 40
0.834571113
 40
0.910151107
 40
0.910151107
 40
0.910151107
 40
0.937797031
 40
0.937797031
 40
0.937797031
 40
1.000000000
 40
1.000000000
 40
1.000000000
 40
1.000000000
 10
-4.000000000
 20
0.000000000
 30
275.000000000
 10
-4.000604861
 20
-0.312931700
 30
275.000808574
 10
-3.961024749
 20
-0.618964528
 30
274.923717762
 10
-3.903443054
 20
-0.873574454
 30
274.799129699
 10
-3.846773053
 20
-1.126257000
 30
274.676212105
 10
-3.775046973
 20
-1.334142936
 30
274.510579644
 10
-3.708383894
 20
-1.499296134
 30
274.323673337
 10
-3.571592311
 20
-1.832051742
 30
273.945736278
 10
-3.461659602
 20
-1.999534126
 30
273.474822634
 10
-3.464101615
 20
-2.000000000
 30
273.000000000
 10
-3.463464980
 20
-2.000015948
 30
272.679735002
 10
-3.510966565
 20
-1.922959385
 30
272.360467446
 10
-3.586459110
 20
-1.771245622
 30
272.071189499
 10
-3.653223555
 20
-1.635481222
 30
271.812869215
 10
-3.741291034
 20
-1.440468117
 30
271.576037356
 10
-3.821974560
 20
-1.180046807
 30
271.385227715
 10
-3.889663654
 20
-0.961338644
 30
271.225029288
 10
-3.951860868
 20
-0.691119262
 30
271.097519295
 10
-3.981330147
 20
-0.386018476
 30
271.037606121
 10
-4.005745801
 20
-0.139136753
 30
270.988362487
 10
-4.006171076
 20
0.127305457
 30
270.987541432
 10
-3.982405425
 20
0.374762629
 30
271.035425499
 10
-3.937550214
 20
0.849168211
 30
271.126685755
 10
-3.817047871
 20
1.228803641
 30
271.373146417
 10
-3.711975815
 20
1.490381009
 30
271.666296716
 10
-3.573641833
 20
1.829115836
 30
272.045921306
 10
-3.461586817
 20
1.999503839
 30
272.520963135
 10
-3.464101615
 20
2.000000000
 30
273.000000000
 10
-3.463464980
 20
2.000015948
 30
273.320264998
 10
-3.510966565
 20
1.922959385
 30
273.639532554
 10
-3.586459110
 20
1.771245622
 30
273.928810501
 10
-3.653223555
 20
1.635481222
 30
274.187130785
 10
-3.741291034
 20
1.440468117
 30
274.423962644
 10
-3.821974560
 20
1.180046807
 30
274.614772285
 10
-3.851724741
 20
1.084746801
 30
274.684787167
 10
-3.879301872
 20
0.980701898
 30
274.747152432
 10
-3.904705954
 20
0.867912101
 30
274.801868082
 10
-3.961620899
 20
0.614497015
 30
274.924868595
 10
-4.000591256
 20
0.310600826
 30
275.000790601
 10
-4.000000000
 20
0.000000000
 30
275.000000000
  0
LINE
  5
A18
330
A02
100
AcDbEntity
  8
Part
100
AcDbLine
 10
4.000000000
 20
0.000000000
 30
275.000000000
 11
60.000000000
 21
0.000000000
 31
275.000000000
  0
SPLINE
  5
A19
330
A02
100
AcDbEntity
  8
Part
100
AcDbSpline
210
0
220
0
230
1
 70
8
 71
3
 72
26
 73
22
 74
0
 40
0.000000000
 40
0.000000000
 40
0.000000000
 40
0.000000000
 40
0.125297274
 40
0.125297274
 40
0.125297274
 40
0.249388887
 40
0.249388887
 40
0.249388887
 40
0.499940492
 40
0.499940492
 40
0.499940492
 40
0.669070087
 40
0.669070087
 40
0.669070087
 40
0.820263032
 40
0.820263032
 40
0.820263032
 40
0.875566936
 40
0.875566936
 40
0.875566936
 40
1.000000000
 40
1.000000000
 40
1.000000000
 40
1.000000000
 10
4.000000000
 20
-0.000000000
 30
271.000000000
 10
4.000604861
 20
0.312931700
 30
270.999191426
 10
3.961024749
 20
0.618964528
 30
271.076282238
 10
3.903443054
 20
0.873574454
 30
271.200870301
 10
3.846773060
 20
1.126256975
 30
271.323787881
 10
3.775046977
 20
1.334142926
 30
271.489420344
 10
3.708383894
 20
1.499296134
 30
271.676326663
 10
3.571592311
 20
1.832051742
 30
272.054263722
 10
3.461659602
 20
1.999534126
 30
272.525177366
 10
3.464101615
 20
2.000000000
 30
273.000000000
 10
3.463464980
 20
2.000015948
 30
273.320264998
 10
3.510966565
 20
1.922959385
 30
273.639532554
 10
3.586459110
 20
1.771245622
 30
273.928810501
 10
3.653223555
 20
1.635481222
 30
274.187130785
 10
3.741291034
 20
1.440468117
 30
274.423962644
 10
3.821974560
 20
1.180046807
 30
274.614772285
 10
3.851724741
 20
1.084746801
 30
274.684787167
 10
3.879301872
 20
0.980701898
 30
274.747152432
 10
3.904705954
 20
0.867912101
 30
274.801868082
 10
3.961620899
 20
0.614497015
 30
274.924868595
 10
4.000591256
 20
0.310600826
 30
275.000790601
 10
4.000000000
 20
0.000000000
 30
275.000000000
  0
SPLINE
  5
A1A
330
A02
100
AcDbEntity
  8
Part
100
AcDbSpline
210
0
220
0
230
1
 70
8
 71
3
 72
26
 73
22
 74
0
 40
0.000000000
 40
0.000000000
 40
0.000000000
 40
0.000000000
 40
0.125297279
 40
0.125297279
 40
0.125297279
 40
0.249388896
 40
0.249388896
 40
0.249388896
 40
0.499940511
 40
0.499940511
 40
0.499940511
 40
0.669070111
 40
0.669070111
 40
0.669070111
 40
0.820263062
 40
0.820263062
 40
0.820263062
 40
0.875566961
 40
0.875566961
 40
0.875566961
 40
1.000000000
 40
1.000000000
 40
1.000000000
 40
1.000000000
 10
4.000000000
 20
-0.000000000
 30
275.000000000
 10
4.000604861
 20
-0.312931700
 30
275.000808574
 10
3.961024749
 20
-0.618964528
 30
274.923717762
 10
3.903443054
 20
-0.873574454
 30
274.799129699
 10
3.846773060
 20
-1.126256975
 30
274.676212119
 10
3.775046977
 20
-1.334142926
 30
274.510579656
 10
3.708383894
 20
-1.499296134
 30
274.323673337
 10
3.571592311
 20
-1.832051742
 30
273.945736278
 10
3.461659602
 20
-1.999534126
 30
273.474822634
 10
3.464101615
 20
-2.000000000
 30
273.000000000
 10
3.463464980
 20
-2.000015948
 30
272.679735002
 10
3.510966565
 20
-1.922959385
 30
272.360467446
 10
3.586459110
 20
-1.771245622
 30
272.071189499
 10
3.653223555
 20
-1.635481222
 30
271.812869215
 10
3.741291034
 20
-1.440468117
 30
271.576037356
 10
3.821974560
 20
-1.180046807
 30
271.385227715
 10
3.851724741
 20
-1.084746801
 30
271.315212833
 10
3.879301872
 20
-0.980701898
 30
271.252847568
 10
3.904705954
 20
-0.867912101
 30
271.198131918
 10
3.961620899
 20
-0.614497015
 30
271.075131405
 10
4.000591256
 20
-0.310600826
 30
270.999209399
 10
4.000000000
 20
-0.000000000
 30
271.000000000
  0
LINE
  5
A1B
330
A02
100
AcDbEntity
  8
Part
100
AcDbLine
 10
4.000000000
 20
0.000000000
 30
275.000000000
 11
60.000000000
 21
0.000000000
 31
275.000000000
  0
CIRCLE
  5
A1C
330
A02
100
AcDbEntity
  8
Part
100
AcDbCircle
 10
60.000000000
 20
0.000000000
 30
273.000000000
 40
2.000000000
  0
CIRCLE
  5
A1D
330
A02
100
AcDbEntity
  8
Part
100
AcDbCircle
 10
0.000000000
 20
0.000000000
 30
300.000000000
 40
4.000000000
  0
LINE
  5
A1E
330
A02
100
AcDbEntity
  8
Part
100
AcDbLine
 10
4.000000000
 20
0.000000000
 30
185.000000000
 11
25.000000000
 21
0.000000000
 31
185.000000000
  0
SPLINE
  5
A1F
330
A02
100
AcDbEntity
  8
Part
100
AcDbSpline
210
0
220
0
230
1
 70
8
 71
3
 72
26
 73
22
 74
0
 40
0.000000000
 40
0.000000000
 40
0.000000000
 40
0.000000000
 40
0.125297274
 40
0.125297274
 40
0.125297274
 40
0.249388887
 40
0.249388887
 40
0.249388887
 40
0.499940492
 40
0.499940492
 40
0.499940492
 40
0.669070087
 40
0.669070087
 40
0.669070087
 40
0.820263032
 40
0.820263032
 40
0.820263032
 40
0.875566936
 40
0.875566936
 40
0.875566936
 40
1.000000000
 40
1.000000000
 40
1.000000000
 40
1.000000000
 10
4.000000000
 20
-0.000000000
 30
181.000000000
 10
4.000604861
 20
0.312931700
 30
180.999191426
 10
3.961024749
 20
0.618964528
 30
181.076282238
 10
3.903443054
 20
0.873574454
 30
181.200870301
 10
3.846773060
 20
1.126256975
 30
181.323787881
 10
3.775046977
 20
1.334142926
 30
181.489420344
 10
3.708383894
 20
1.499296134
 30
181.676326663
 10
3.571592311
 20
1.832051742
 30
182.054263722
 10
3.461659602
 20
1.999534126
 30
182.525177366
 10
3.464101615
 20
2.000000000
 30
183.000000000
 10
3.463464980
 20
2.000015948
 30
183.320264998
 10
3.510966565
 20
1.922959385
 30
183.639532554
 10
3.586459110
 20
1.771245622
 30
183.928810501
 10
3.653223555
 20
1.635481222
 30
184.187130785
 10
3.741291034
 20
1.440468117
 30
184.423962644
 10
3.821974560
 20
1.180046807
 30
184.614772285
 10
3.851724741
 20
1.084746801
 30
184.684787167
 10
3.879301872
 20
0.980701898
 30
184.747152432
 10
3.904705954
 20
0.867912101
 30
184.801868082
 10
3.961620899
 20
0.614497015
 30
184.924868595
 10
4.000591256
 20
0.310600826
 30
185.000790601
 10
4.000000000
 20
0.000000000
 30
185.000000000
  0
SPLINE
  5
A20
330
A02
100
AcDbEntity
  8
Part
100
AcDbSpline
210
0
220
0
230
1
 70
8
 71
3
 72
26
 73
22
 74
0
 40
0.000000000
 40
0.000000000
 40
0.000000000
 40
0.000000000
 40
0.125297256
 40
0.125297256
 40
0.125297256
 40
0.249388871
 40
0.249388871
 40
0.249388871
 40
0.499940494
 40
0.499940494
 40
0.499940494
 40
0.669070100
 40
0.669070100
 40
0.669070100
 40
0.820263056
 40
0.820263056
 40
0.820263056
 40
0.875566957
 40
0.875566957
 40
0.875566957
 40
1.000000000
 40
1.000000000
 40
1.000000000
 40
1.000000000
 10
4.000000000
 20
-0.000000000
 30
185.000000000
 10
4.000604861
 20
-0.312931700
 30
185.000808574
 10
3.961024749
 20
-0.618964528
 30
184.923717762
 10
3.903443054
 20
-0.873574454
 30
184.799129699
 10
3.846773054
 20
-1.126256999
 30
184.676212105
 10
3.775046973
 20
-1.334142935
 30
184.510579645
 10
3.708383894
 20
-1.499296134
 30
184.323673337
 10
3.571592311
 20
-1.832051742
 30
183.945736278
 10
3.461659602
 20
-1.999534126
 30
183.474822634
 10
3.464101615
 20
-2.000000000
 30
183.000000000
 10
3.463464980
 20
-2.000015948
 30
182.679735002
 10
3.510966565
 20
-1.922959385
 30
182.360467446
 10
3.586459110
 20
-1.771245622
 30
182.071189499
 10
3.653223555
 20
-1.635481222
 30
181.812869215
 10
3.741291034
 20
-1.440468117
 30
181.576037356
 10
3.821974560
 20
-1.180046807
 30
181.385227715
 10
3.851724741
 20
-1.084746801
 30
181.315212833
 10
3.879301872
 20
-0.980701898
 30
181.252847568
 10
3.904705954
 20
-0.867912101
 30
181.198131918
 10
3.961620899
 20
-0.614497015
 30
181.075131405
 10
4.000591256
 20
-0.310600826
 30
180.999209399
 10
4.000000000
 20
-0.000000000
 30
181.000000000
  0
LINE
  5
A21
330
A02
100
AcDbEntity
  8
Part
100
AcDbLine
 10
4.000000000
 20
0.000000000
 30
185.000000000
 11
25.000000000
 21
0.000000000
 31
185.000000000
  0
CIRCLE
  5
A22
330
A02
100
AcDbEntity
  8
Part
100
AcDbCircle
 10
25.000000000
 20
0.000000000
 30
183.000000000
 40
2.000000000
  0
CIRCLE
  5
A23
330
A02
100
AcDbEntity
  8
Part
100
AcDbCircle
 10
0.000000000
 20
0.000000000
 30
0.000000000
 40
4.000000000
  0
LINE
  5
A24
330
A02
100
AcDbEntity
  8
Part
100
AcDbLine
 10
-0.000000000
 20
4.000000000
 30
230.000000000
 11
0.000000000
 21
50.000000000
 31
230.000000000
  0
SPLINE
  5
A25
330
A02
100
AcDbEntity
  8
Part
100
AcDbSpline
210
0
220
0
230
1
 70
9
 71
3
 72
47
 73
43
 74
0
 40
0.000000000
 40
0.000000000
 40
0.000000000
 40
0.000000000
 40
0.062618146
 40
0.062618146
 40
0.062618146
 40
0.124633755
 40
0.124633755
 40
0.124633755
 40
0.249848588
 40
0.249848588
 40
0.249848588
 40
0.335342742
 40
0.335342742
 40
0.335342742
 40
0.409931194
 40
0.409931194
 40
0.409931194
 40
0.473656673
 40
0.473656673
 40
0.473656673
 40
0.526760073
 40
0.526760073
 40
0.526760073
 40
0.562108959
 40
0.562108959
 40
0.562108959
 40
0.624384130
 40
0.624384130
 40
0.624384130
 40
0.750016209
 40
0.750016209
 40
0.750016209
 40
0.834565461
 40
0.834565461
 40
0.834565461
 40
0.910148036
 40
0.910148036
 40
0.910148036
 40
0.937794905
 40
0.937794905
 40
0.937794905
 40
1.000000000
 40
1.000000000
 40
1.000000000
 40
1.000000000
 10
0.000000000
 20
4.000000000
 30
230.000000000
 10
0.312931700
 20
4.000604861
 30
230.000808574
 10
0.618964528
 20
3.961024749
 30
229.923717762
 10
0.873574454
 20
3.903443054
 30
229.799129699
 10
1.126256975
 20
3.846773060
 30
229.676212119
 10
1.334142926
 20
3.775046977
 30
229.510579656
 10
1.499296134
 20
3.708383894
 30
229.323673337
 10
1.832051742
 20
3.571592311
 30
228.945736278
 10
1.999534126
 20
3.461659602
 30
228.474822634
 10
2.000000000
 20
3.464101615
 30
228.000000000
 10
2.000013335
 20
3.463438991
 30
227.676049544
 10
1.921184306
 20
3.512097467
 30
227.353149338
 10
1.765989110
 20
3.589050357
 30
227.061233541
 10
1.630450937
 20
3.655470473
 30
226.806814485
 10
1.437129352
 20
3.742335332
 30
226.573574378
 10
1.180046807
 20
3.821974560
 30
226.385227715
 10
0.961338615
 20
3.889663662
 30
226.225029269
 10
0.691119239
 20
3.951860870
 30
226.097519290
 10
0.386018476
 20
3.981330147
 30
226.037606121
 10
0.132607598
 20
4.006430225
 30
225.987006042
 10
-0.141377650
 20
4.006104974
 30
225.987632987
 10
-0.394341056
 20
3.980514431
 30
226.039261585
 10
-0.563619179
 20
3.963077762
 30
226.074137962
 10
-0.720833987
 20
3.937950849
 30
226.126785829
 10
-0.865985480
 20
3.905133691
 30
226.197205184
 10
-1.120522448
 20
3.848567058
 30
226.319702547
 10
-1.329950456
 20
3.776581599
 30
226.485547057
 10
-1.496256113
 20
3.709611522
 30
226.672891246
 10
-1.831051921
 20
3.572290027
 30
227.051412303
 10
-1.999523585
 20
3.461634962
 30
227.523737745
 10
-2.000000000
 20
3.464101615
 30
228.000000000
 10
-2.000015948
 20
3.463464980
 30
228.320264998
 10
-1.922959385
 20
3.510966565
 30
228.639532554
 10
-1.771245622
 20
3.586459110
 30
228.928810501
 10
-1.635481222
 20
3.653223555
 30
229.187130785
 10
-1.440468117
 20
3.741291034
 30
229.423962644
 10
-1.180046807
 20
3.821974560
 30
229.614772285
 10
-1.084746801
 20
3.851724741
 30
229.684787167
 10
-0.980701898
 20
3.879301872
 30
229.747152432
 10
-0.867912101
 20
3.904705954
 30
229.801868082
 10
-0.614497015
 20
3.961620899
 30
229.924868595
 10
-0.310600826
 20
4.000591256
 30
230.000790601
 10
-0.000000000
 20
4.000000000
 30
230.000000000
  0
LINE
  5
A26
330
A02
100
AcDbEntity
  8
Part
100
AcDbLine
 10
-0.000000000
 20
4.000000000
 30
230.000000000
 11
0.000000000
 21
50.000000000
 31
230.000000000
  0
CIRCLE
  5
A27
330
A02
100
AcDbEntity
  8
Part
100
AcDbCircle
 10
0.000000000
 20
50.000000000
 30
228.000000000
 40
2.000000000
  0
SPLINE
  5
A28
330
A02
100
AcDbEntity
  8
Part
100
AcDbSpline
210
0
220
0
230
1
 70
9
 71
3
 72
44
 73
40
 74
0
 40
0.000000000
 40
0.000000000
 40
0.000000000
 40
0.000000000
 40
0.062619536
 40
0.062619536
 40
0.062619536
 40
0.124636532
 40
0.124636532
 40
0.124636532
 40
0.249854171
 40
0.249854171
 40
0.249854171
 40
0.334379705
 40
0.334379705
 40
0.334379705
 40
0.409941079
 40
0.409941079
 40
0.409941079
 40
0.473669892
 40
0.473669892
 40
0.473669892
 40
0.525408011
 40
0.525408011
 40
0.525408011
 40
0.623665837
 40
0.623665837
 40
0.623665837
 40
0.750024714
 40
0.750024714
 40
0.750024714
 40
0.834571089
 40
0.834571089
 40
0.834571089
 40
0.910151094
 40
0.910151094
 40
0.910151094
 40
0.937797022
 40
0.937797022
 40
0.937797022
 40
1.000000000
 40
1.000000000
 40
1.000000000
 40
1.000000000
 10
-4.000000000
 20
0.000000000
 30
185.000000000
 10
-4.000604861
 20
-0.312931700
 30
185.000808574
 10
-3.961024749
 20
-0.618964528
 30
184.923717762
 10
-3.903443054
 20
-0.873574454
 30
184.799129699
 10
-3.846773053
 20
-1.126257000
 30
184.676212105
 10
-3.775046973
 20
-1.334142936
 30
184.510579644
 10
-3.708383894
 20
-1.499296134
 30
184.323673337
 10
-3.571592311
 20
-1.832051742
 30
183.945736278
 10
-3.461659602
 20
-1.999534126
 30
183.474822634
 10
-3.464101615
 20
-2.000000000
 30
183.000000000
 10
-3.463464980
 20
-2.000015948
 30
182.679735002
 10
-3.510966565
 20
-1.922959385
 30
182.360467446
 10
-3.586459110
 20
-1.771245622
 30
182.071189499
 10
-3.653223555
 20
-1.635481222
 30
181.812869215
 10
-3.741291034
 20
-1.440468117
 30
181.576037356
 10
-3.821974560
 20
-1.180046807
 30
181.385227715
 10
-3.889663654
 20
-0.961338643
 30
181.225029288
 10
-3.951860868
 20
-0.691119261
 30
181.097519295
 10
-3.981330147
 20
-0.386018476
 30
181.037606121
 10
-4.005745801
 20
-0.139136753
 30
180.988362487
 10
-4.006171076
 20
0.127305457
 30
180.987541432
 10
-3.982405425
 20
0.374762629
 30
181.035425499
 10
-3.937550202
 20
0.849168296
 30
181.126685777
 10
-3.817047849
 20
1.228803688
 30
181.373146471
 10
-3.711975815
 20
1.490381009
 30
181.666296716
 10
-3.573641833
 20
1.829115836
 30
182.045921306
 10
-3.461586817
 20
1.999503839
 30
182.520963135
 10
-3.464101615
 20
2.000000000
 30
183.000000000
 10
-3.463464980
 20
2.000015948
 30
183.320264998
 10
-3.510966565
 20
1.922959385
 30
183.639532554
 10
-3.586459110
 20
1.771245622
 30
183.928810501
 10
-3.653223555
 20
1.635481222
 30
184.187130785
 10
-3.741291034
 20
1.440468117
 30
184.423962644
 10
-3.821974560
 20
1.180046807
 30
184.614772285
 10
-3.851724741
 20
1.084746801
 30
184.684787167
 10
-3.879301872
 20
0.980701898
 30
184.747152432
 10
-3.904705954
 20
0.867912101
 30
184.801868082
 10
-3.961620899
 20
0.614497015
 30
184.924868595
 10
-4.000591256
 20
0.310600826
 30
185.000790601
 10
-4.000000000
 20
0.000000000
 30
185.000000000
  0
LINE
  5
A29
330
A02
100
AcDbEntity
  8
Part
100
AcDbLine
 10
-25.000000000
 20
0.000000000
 30
185.000000000
 11
-4.000000000
 21
0.000000000
 31
185.000000000
  0
CIRCLE
  5
A2A
330
A02
100
AcDbEntity
  8
Part
100
AcDbCircle
 10
-25.000000000
 20
0.000000000
 30
183.000000000
 40
2.000000000
  0
LINE
  5
A2B
330
A02
100
AcDbEntity
  8
Part
100
AcDbLine
 10
-25.000000000
 20
0.000000000
 30
185.000000000
 11
-4.000000000
 21
0.000000000
 31
185.000000000
  0
SPLINE
  5
A2C
330
A02
100
AcDbEntity
  8
Part
100
AcDbSpline
210
0
220
0
230
1
 70
9
 71
3
 72
47
 73
43
 74
0
 40
0.000000000
 40
0.000000000
 40
0.000000000
 40
0.000000000
 40
0.062618142
 40
0.062618142
 40
0.062618142
 40
0.124633746
 40
0.124633746
 40
0.124633746
 40
0.249848568
 40
0.249848568
 40
0.249848568
 40
0.335342716
 40
0.335342716
 40
0.335342716
 40
0.409931163
 40
0.409931163
 40
0.409931163
 40
0.473656636
 40
0.473656636
 40
0.473656636
 40
0.526760033
 40
0.526760033
 40
0.526760033
 40
0.562108915
 40
0.562108915
 40
0.562108915
 40
0.624384093
 40
0.624384093
 40
0.624384093
 40
0.750016190
 40
0.750016190
 40
0.750016190
 40
0.834565454
 40
0.834565454
 40
0.834565454
 40
0.910148041
 40
0.910148041
 40
0.910148041
 40
0.937794911
 40
0.937794911
 40
0.937794911
 40
1.000000000
 40
1.000000000
 40
1.000000000
 40
1.000000000
 10
-0.000000000
 20
-4.000000000
 30
230.000000000
 10
0.312931700
 20
-4.000604861
 30
230.000808574
 10
0.618964528
 20
-3.961024749
 30
229.923717762
 10
0.873574454
 20
-3.903443054
 30
229.799129699
 10
1.126256975
 20
-3.846773060
 30
229.676212119
 10
1.334142926
 20
-3.775046977
 30
229.510579656
 10
1.499296134
 20
-3.708383894
 30
229.323673337
 10
1.832051742
 20
-3.571592311
 30
228.945736278
 10
1.999534126
 20
-3.461659602
 30
228.474822634
 10
2.000000000
 20
-3.464101615
 30
228.000000000
 10
2.000013335
 20
-3.463438991
 30
227.676049544
 10
1.921184306
 20
-3.512097467
 30
227.353149338
 10
1.765989110
 20
-3.589050357
 30
227.061233541
 10
1.630450937
 20
-3.655470473
 30
226.806814485
 10
1.437129352
 20
-3.742335332
 30
226.573574378
 10
1.180046807
 20
-3.821974560
 30
226.385227715
 10
0.961338615
 20
-3.889663662
 30
226.225029269
 10
0.691119239
 20
-3.951860870
 30
226.097519290
 10
0.386018476
 20
-3.981330147
 30
226.037606121
 10
0.132607598
 20
-4.006430225
 30
225.987006042
 10
-0.141377650
 20
-4.006104974
 30
225.987632987
 10
-0.394341056
 20
-3.980514431
 30
226.039261585
 10
-0.563619179
 20
-3.963077762
 30
226.074137962
 10
-0.720833987
 20
-3.937950849
 30
226.126785829
 10
-0.865985480
 20
-3.905133691
 30
226.197205184
 10
-1.120522474
 20
-3.848567052
 30
226.319702562
 10
-1.329950466
 20
-3.776581594
 30
226.485547070
 10
-1.496256113
 20
-3.709611522
 30
226.672891246
 10
-1.831051921
 20
-3.572290027
 30
227.051412303
 10
-1.999523585
 20
-3.461634962
 30
227.523737745
 10
-2.000000000
 20
-3.464101615
 30
228.000000000
 10
-2.000015948
 20
-3.463464980
 30
228.320264998
 10
-1.922959385
 20
-3.510966565
 30
228.639532554
 10
-1.771245622
 20
-3.586459110
 30
228.928810501
 10
-1.635481222
 20
-3.653223555
 30
229.187130785
 10
-1.440468117
 20
-3.741291034
 30
229.423962644
 10
-1.180046807
 20
-3.821974560
 30
229.614772285
 10
-1.084746801
 20
-3.851724741
 30
229.684787167
 10
-0.980701898
 20
-3.879301872
 30
229.747152432
 10
-0.867912101
 20
-3.904705954
 30
229.801868082
 10
-0.614497015
 20
-3.961620899
 30
229.924868595
 10
-0.310600826
 20
-4.000591256
 30
230.000790601
 10
-0.000000000
 20
-4.000000000
 30
230.000000000
  0
LINE
  5
A2D
330
A02
100
AcDbEntity
  8
Part
100
AcDbLine
 10
-0.000000000
 20
-50.000000000
 30
230.000000000
 11
-0.000000000
 21
-4.000000000
 31
230.000000000
  0
CIRCLE
  5
A2E
330
A02
100
AcDbEntity
  8
Part
100
AcDbCircle
 10
-0.000000000
 20
-50.000000000
 30
228.000000000
 40
2.000000000
  0
LINE
  5
A2F
330
A02
100
AcDbEntity
  8
Part
100
AcDbLine
 10
-0.000000000
 20
-50.000000000
 30
230.000000000
 11
-0.000000000
 21
-4.000000000
 31
230.000000000
  0
SPLINE
  5
A30
330
A02
100
AcDbEntity
  8
Part
100
AcDbSpline
210
0
220
0
230
1
 70
9
 71
3
 72
44
 73
40
 74
0
 40
0.000000000
 40
0.000000000
 40
0.000000000
 40
0.000000000
 40
0.062619543
 40
0.062619543
 40
0.062619543
 40
0.124636546
 40
0.124636546
 40
0.124636546
 40
0.249854198
 40
0.249854198
 40
0.249854198
 40
0.334379742
 40
0.334379742
 40
0.334379742
 40
0.409941124
 40
0.409941124
 40
0.409941124
 40
0.473669943
 40
0.473669943
 40
0.473669943
 40
0.525408068
 40
0.525408068
 40
0.525408068
 40
0.623665891
 40
0.623665891
 40
0.623665891
 40
0.750024751
 40
0.750024751
 40
0.750024751
 40
0.834571113
 40
0.834571113
 40
0.834571113
 40
0.910151107
 40
0.910151107
 40
0.910151107
 40
0.937797031
 40
0.937797031
 40
0.937797031
 40
1.000000000
 40
1.000000000
 40
1.000000000
 40
1.000000000
 10
-4.000000000
 20
0.000000000
 30
275.000000000
 10
-4.000604861
 20
-0.312931700
 30
275.000808574
 10
-3.961024749
 20
-0.618964528
 30
274.923717762
 10
-3.903443054
 20
-0.873574454
 30
274.799129699
 10
-3.846773053
 20
-1.126257000
 30
274.676212105
 10
-3.775046973
 20
-1.334142936
 30
274.510579644
 10
-3.708383894
 20
-1.499296134
 30
274.323673337
 10
-3.571592311
 20
-1.832051742
 30
273.945736278
 10
-3.461659602
 20
-1.999534126
 30
273.474822634
 10
-3.464101615
 20
-2.000000000
 30
273.000000000
 10
-3.463464980
 20
-2.000015948
 30
272.679735002
 10
-3.510966565
 20
-1.922959385
 30
272.360467446
 10
-3.586459110
 20
-1.771245622
 30
272.071189499
 10
-3.653223555
 20
-1.635481222
 30
271.812869215
 10
-3.741291034
 20
-1.440468117
 30
271.576037356
 10
-3.821974560
 20
-1.180046807
 30
271.385227715
 10
-3.889663654
 20
-0.961338644
 30
271.225029288
 10
-3.951860868
 20
-0.691119262
 30
271.097519295
 10
-3.981330147
 20
-0.386018476
 30
271.037606121
 10
-4.005745801
 20
-0.139136753
 30
270.988362487
 10
-4.006171076
 20
0.127305457
 30
270.987541432
 10
-3.982405425
 20
0.374762629
 30
271.035425499
 10
-3.937550214
 20
0.849168211
 30
271.126685755
 10
-3.817047871
 20
1.228803641
 30
271.373146417
 10
-3.711975815
 20
1.490381009
 30
271.666296716
 10
-3.573641833
 20
1.829115836
 30
272.045921306
 10
-3.461586817
 20
1.999503839
 30
272.520963135
 10
-3.464101615
 20
2.000000000
 30
273.000000000
 10
-3.463464980
 20
2.000015948
 30
273.320264998
 10
-3.510966565
 20
1.922959385
 30
273.639532554
 10
-3.586459110
 20
1.771245622
 30
273.928810501
 10
-3.653223555
 20
1.635481222
 30
274.187130785
 10
-3.741291034
 20
1.440468117
 30
274.423962644
 10
-3.821974560
 20
1.180046807
 30
274.614772285
 10
-3.851724741
 20
1.084746801
 30
274.684787167
 10
-3.879301872
 20
0.980701898
 30
274.747152432
 10
-3.904705954
 20
0.867912101
 30
274.801868082
 10
-3.961620899
 20
0.614497015
 30
274.924868595
 10
-4.000591256
 20
0.310600826
 30
275.000790601
 10
-4.000000000
 20
0.000000000
 30
275.000000000
  0
LINE
  5
A31
330
A02
100
AcDbEntity
  8
Part
100
AcDbLine
 10
-60.000000000
 20
0.000000000
 30
275.000000000
 11
-4.000000000
 21
0.000000000
 31
275.000000000
  0
CIRCLE
  5
A32
330
A02
100
AcDbEntity
  8
Part
100
AcDbCircle
 10
-60.000000000
 20
0.000000000
 30
273.000000000
 40
2.000000000
  0
LINE
  5
A33
330
A02
100
AcDbEntity
  8
Part
100
AcDbLine
 10
-60.000000000
 20
0.000000000
 30
275.000000000
 11
-4.000000000
 21
0.000000000
 31
275.000000000
  0
CIRCLE
  5
A34
330
A02
100
AcDbEntity
  8
Part
100
AcDbCircle
 10
60.000000000
 20
0.000000000
 30
273.000000000
 40
2.000000000
  0
CIRCLE
  5
A35
330
A02
100
AcDbEntity
  8
Part
100
AcDbCircle
 10
25.000000000
 20
0.000000000
 30
183.000000000
 40
2.000000000
  0
CIRCLE
  5
A36
330
A02
100
AcDbEntity
  8
Part
100
AcDbCircle
 10
0.000000000
 20
50.000000000
 30
228.000000000
 40
2.000000000
  0
CIRCLE
  5
A37
330
A02
100
AcDbEntity
  8
Part
100
AcDbCircle
 10
-25.000000000
 20
0.000000000
 30
183.000000000
 40
2.000000000
  0
CIRCLE
  5
A38
330
A02
100
AcDbEntity
  8
Part
100
AcDbCircle
 10
-0.000000000
 20
-50.000000000
 30
228.000000000
 40
2.000000000
  0
CIRCLE
  5
A39
330
A02
100
AcDbEntity
  8
Part
100
AcDbCircle
 10
-60.000000000
 20
0.000000000
 30
273.000000000
 40
2.000000000
  0
ENDSEC
  0
SECTION
  2
OBJECTS
  0
DICTIONARY
  5
F000
330
0
100
AcDbDictionary
  3
ACAD_GROUP
350
F001
  0
DICTIONARY
  5
F001
330
F000
100
AcDbDictionary
  0
ENDSEC
  0
EOF
