ISO-10303-21;
HEADER;
FILE_DESCRIPTION(('FreeCAD Model'),'2;1');
FILE_NAME('Open CASCADE Shape Model','2000-01-01T00:00:00',('FreeCAD'),(
    'FreeCAD'),'Open CASCADE STEP processor 7.9','FreeCAD','Unknown');
FILE_SCHEMA(('AUTOMOTIVE_DESIGN { 1 0 10303 214 1 1 1 1 }'));
ENDSEC;
DATA;
#1 = APPLICATION_PROTOCOL_DEFINITION('international standard',
  'automotive_design',2000,#2);
#2 = APPLICATION_CONTEXT(
  'core data for automotive mechanical design processes');
#3 = SHAPE_DEFINITION_REPRESENTATION(#4,#10);
#4 = PRODUCT_DEFINITION_SHAPE('','',#5);
#5 = PRODUCT_DEFINITION('design','',#6,#9);
#6 = PRODUCT_DEFINITION_FORMATION('','',#7);
#7 = PRODUCT('Open CASCADE STEP translator 7.9 0',
  'Open CASCADE STEP translator 7.9 0','',(#8));
#8 = PRODUCT_CONTEXT('',#2,'mechanical');
#9 = PRODUCT_DEFINITION_CONTEXT('part definition',#2,'design');
#10 = ADVANCED_BREP_SHAPE_REPRESENTATION('',(#11,#15),#595);
#11 = AXIS2_PLACEMENT_3D('',#12,#13,#14);
#12 = CARTESIAN_POINT('',(0.,0.,0.));
#13 = DIRECTION('',(0.,0.,1.));
#14 = DIRECTION('',(1.,0.,-0.));
#15 = MANIFOLD_SOLID_BREP('',#16);
#16 = CLOSED_SHELL('',(#17,#183,#262,#317,#337,#416,#455,#482,#506,#538,
    #558,#585));
#17 = ADVANCED_FACE('',(#18,#114),#178,.T.);
#18 = FACE_BOUND('',#19,.T.);
#19 = EDGE_LOOP('',(#20,#30,#37,#38,#69,#77,#84,#85));
#20 = ORIENTED_EDGE('',*,*,#21,.T.);
#21 = EDGE_CURVE('',#22,#24,#26,.T.);
#22 = VERTEX_POINT('',#23);
#23 = CARTESIAN_POINT('',(10.,3.918869757272E-16,9.6));
#24 = VERTEX_POINT('',#25);
#25 = CARTESIAN_POINT('',(10.,-2.449293598295E-15,16.));
#26 = LINE('',#27,#28);
#27 = CARTESIAN_POINT('',(10.,-2.449293598295E-15,0.));
#28 = VECTOR('',#29,1.);
#29 = DIRECTION('',(0.,0.,1.));
#30 = ORIENTED_EDGE('',*,*,#31,.F.);
#31 = EDGE_CURVE('',#24,#24,#32,.T.);
#32 = CIRCLE('',#33,10.);
#33 = AXIS2_PLACEMENT_3D('',#34,#35,#36);
#34 = CARTESIAN_POINT('',(0.,0.,16.));
#35 = DIRECTION('',(0.,0.,1.));
#36 = DIRECTION('',(1.,0.,0.));
#37 = ORIENTED_EDGE('',*,*,#21,.F.);
#38 = ORIENTED_EDGE('',*,*,#39,.F.);
#39 = EDGE_CURVE('',#40,#22,#42,.T.);
#40 = VERTEX_POINT('',#41);
#41 = CARTESIAN_POINT('',(10.,-2.121781514436E-14,6.4));
#42 = B_SPLINE_CURVE_WITH_KNOTS('',7,(#43,#44,#45,#46,#47,#48,#49,#50,
    #51,#52,#53,#54,#55,#56,#57,#58,#59,#60,#61,#62,#63,#64,#65,#66,#67,
    #68),.UNSPECIFIED.,.F.,.F.,(8,6,6,6,8),(0.,0.247824502754,
    0.500043289232,0.752262080084,1.),.UNSPECIFIED.);
#43 = CARTESIAN_POINT('',(10.,6.125709918283E-16,6.4));
#44 = CARTESIAN_POINT('',(10.,0.210483541154,6.4));
#45 = CARTESIAN_POINT('',(9.994831121476,0.41598538734,6.432304248835));
#46 = CARTESIAN_POINT('',(9.984934937314,0.610666566543,6.494162067142)
  );
#47 = CARTESIAN_POINT('',(9.971575352609,0.78955266147,6.581644863955));
#48 = CARTESIAN_POINT('',(9.956553523146,0.948743518864,6.689691695285)
  );
#49 = CARTESIAN_POINT('',(9.941545672454,1.085792285948,6.812156218297)
  );
#50 = CARTESIAN_POINT('',(9.913644002241,1.31659135445,7.073946373929));
#51 = CARTESIAN_POINT('',(9.900453222963,1.412337329375,7.216716103551)
  );
#52 = CARTESIAN_POINT('',(9.889101806252,1.487966644983,7.366909421985)
  );
#53 = CARTESIAN_POINT('',(9.880226509892,1.544127328737,7.522087290018)
  );
#54 = CARTESIAN_POINT('',(9.8741908431,1.581363748473,7.680349029678));
#55 = CARTESIAN_POINT('',(9.871170143402,1.6,7.84012931143));
#56 = CARTESIAN_POINT('',(9.871170143402,1.6,8.159870691343));
#57 = CARTESIAN_POINT('',(9.87419084317,1.58136374778,8.31965096346));
#58 = CARTESIAN_POINT('',(9.88022650951,1.544127332064,8.477912715048));
#59 = CARTESIAN_POINT('',(9.889101807015,1.487966638664,8.633090580396)
  );
#60 = CARTESIAN_POINT('',(9.900453222263,1.412337335097,8.783283890943)
  );
#61 = CARTESIAN_POINT('',(9.913644002506,1.316591352257,8.92605362856));
#62 = CARTESIAN_POINT('',(9.941540840761,1.085832253102,9.187798447866)
  );
#63 = CARTESIAN_POINT('',(9.956550099532,0.948780834038,9.310289060713)
  );
#64 = CARTESIAN_POINT('',(9.971577425217,0.78954848086,9.418375029715));
#65 = CARTESIAN_POINT('',(9.984941108046,0.610605126041,9.505876400758)
  );
#66 = CARTESIAN_POINT('',(9.994835436674,0.415884350507,9.567722736882)
  );
#67 = CARTESIAN_POINT('',(10.,0.210395619873,9.6));
#68 = CARTESIAN_POINT('',(10.,1.959434878636E-16,9.6));
#69 = ORIENTED_EDGE('',*,*,#70,.F.);
#70 = EDGE_CURVE('',#71,#40,#73,.T.);
#71 = VERTEX_POINT('',#72);
#72 = CARTESIAN_POINT('',(10.,-2.449293598295E-15,0.));
#73 = LINE('',#74,#75);
#74 = CARTESIAN_POINT('',(10.,-2.449293598295E-15,0.));
#75 = VECTOR('',#76,1.);
#76 = DIRECTION('',(0.,0.,1.));
#77 = ORIENTED_EDGE('',*,*,#78,.T.);
#78 = EDGE_CURVE('',#71,#71,#79,.T.);
#79 = CIRCLE('',#80,10.);
#80 = AXIS2_PLACEMENT_3D('',#81,#82,#83);
#81 = CARTESIAN_POINT('',(0.,0.,0.));
#82 = DIRECTION('',(0.,0.,1.));
#83 = DIRECTION('',(1.,0.,0.));
#84 = ORIENTED_EDGE('',*,*,#70,.T.);
#85 = ORIENTED_EDGE('',*,*,#86,.F.);
#86 = EDGE_CURVE('',#22,#40,#87,.T.);
#87 = B_SPLINE_CURVE_WITH_KNOTS('',7,(#88,#89,#90,#91,#92,#93,#94,#95,
    #96,#97,#98,#99,#100,#101,#102,#103,#104,#105,#106,#107,#108,#109,
    #110,#111,#112,#113),.UNSPECIFIED.,.F.,.F.,(8,6,6,6,8),(0.,
    0.247830665041,0.500040726587,0.752262922827,1.),.UNSPECIFIED.);
#88 = CARTESIAN_POINT('',(10.,-1.110223024625E-15,9.6));
#89 = CARTESIAN_POINT('',(10.,-0.210483541154,9.6));
#90 = CARTESIAN_POINT('',(9.994831121476,-0.41598538734,9.567695751165)
  );
#91 = CARTESIAN_POINT('',(9.984934937314,-0.610666566544,9.505837932858)
  );
#92 = CARTESIAN_POINT('',(9.971575352609,-0.78955266147,9.418355136046)
  );
#93 = CARTESIAN_POINT('',(9.956553523146,-0.948743518864,9.310308304715)
  );
#94 = CARTESIAN_POINT('',(9.941545672454,-1.085792285948,9.187843781703)
  );
#95 = CARTESIAN_POINT('',(9.913644839002,-1.316584432872,8.926061477061)
  );
#96 = CARTESIAN_POINT('',(9.900454107015,-1.412331601759,8.783294476774)
  );
#97 = CARTESIAN_POINT('',(9.889102092143,-1.487965202804,8.63309767687)
  );
#98 = CARTESIAN_POINT('',(9.880226236118,-1.544128980194,8.477912710462)
  );
#99 = CARTESIAN_POINT('',(9.874190558583,-1.581365517051,8.319644600821)
  );
#100 = CARTESIAN_POINT('',(9.871170143402,-1.6,8.159862999784));
#101 = CARTESIAN_POINT('',(9.871170143402,-1.6,7.840129308657));
#102 = CARTESIAN_POINT('',(9.87419084317,-1.58136374778,7.68034903654));
#103 = CARTESIAN_POINT('',(9.88022650951,-1.544127332064,7.522087284953)
  );
#104 = CARTESIAN_POINT('',(9.889101807015,-1.487966638664,7.366909419604
    ));
#105 = CARTESIAN_POINT('',(9.900453222263,-1.412337335097,7.216716109057
    ));
#106 = CARTESIAN_POINT('',(9.913644002506,-1.316591352257,7.073946371441
    ));
#107 = CARTESIAN_POINT('',(9.9415406071,-1.085834185912,6.812203744477)
  );
#108 = CARTESIAN_POINT('',(9.956549462249,-0.948786513699,6.689716275467
    ));
#109 = CARTESIAN_POINT('',(9.971576735466,-0.78955644584,6.581629185894)
  );
#110 = CARTESIAN_POINT('',(9.984940985304,-0.610610528919,6.494124161587
    ));
#111 = CARTESIAN_POINT('',(9.994835689198,-0.415883767377,6.432275769778
    ));
#112 = CARTESIAN_POINT('',(10.,-0.210390660075,6.4));
#113 = CARTESIAN_POINT('',(10.,-6.661338147751E-16,6.4));
#114 = FACE_BOUND('',#115,.T.);
#115 = EDGE_LOOP('',(#116,#149));
#116 = ORIENTED_EDGE('',*,*,#117,.T.);
#117 = EDGE_CURVE('',#118,#120,#122,.T.);
#118 = VERTEX_POINT('',#119);
#119 = CARTESIAN_POINT('',(-10.,-1.959434878636E-16,6.4));
#120 = VERTEX_POINT('',#121);
#121 = CARTESIAN_POINT('',(-10.,3.918869757272E-16,9.6));
#122 = B_SPLINE_CURVE_WITH_KNOTS('',7,(#123,#124,#125,#126,#127,#128,
    #129,#130,#131,#132,#133,#134,#135,#136,#137,#138,#139,#140,#141,
    #142,#143,#144,#145,#146,#147,#148),.UNSPECIFIED.,.F.,.F.,(8,6,6,6,8
    ),(0.,0.247824511721,0.500043302572,0.75226208905,1.),
  .UNSPECIFIED.);
#123 = CARTESIAN_POINT('',(-10.,1.224894391402E-15,6.4));
#124 = CARTESIAN_POINT('',(-10.,0.210483541154,6.4));
#125 = CARTESIAN_POINT('',(-9.994831121476,0.41598538734,6.432304248835)
  );
#126 = CARTESIAN_POINT('',(-9.984934937314,0.610666566543,6.494162067142
    ));
#127 = CARTESIAN_POINT('',(-9.971575352609,0.78955266147,6.581644863955)
  );
#128 = CARTESIAN_POINT('',(-9.956553523146,0.948743518864,6.689691695285
    ));
#129 = CARTESIAN_POINT('',(-9.941545672454,1.085792285948,6.812156218297
    ));
#130 = CARTESIAN_POINT('',(-9.913644002506,1.316591352257,7.073946371441
    ));
#131 = CARTESIAN_POINT('',(-9.900453222263,1.412337335097,7.216716109057
    ));
#132 = CARTESIAN_POINT('',(-9.889101807015,1.487966638664,7.366909419604
    ));
#133 = CARTESIAN_POINT('',(-9.88022650951,1.544127332064,7.522087284952)
  );
#134 = CARTESIAN_POINT('',(-9.87419084317,1.58136374778,7.68034903654));
#135 = CARTESIAN_POINT('',(-9.871170143402,1.6,7.840129308657));
#136 = CARTESIAN_POINT('',(-9.871170143402,1.6,8.159870688571));
#137 = CARTESIAN_POINT('',(-9.8741908431,1.581363748474,8.319650970321)
  );
#138 = CARTESIAN_POINT('',(-9.880226509893,1.544127328736,8.477912709984
    ));
#139 = CARTESIAN_POINT('',(-9.889101806252,1.487966644984,8.633090578013
    ));
#140 = CARTESIAN_POINT('',(-9.900453222963,1.412337329374,8.783283896449
    ));
#141 = CARTESIAN_POINT('',(-9.913644002241,1.316591354451,8.926053626071
    ));
#142 = CARTESIAN_POINT('',(-9.941540840761,1.085832253102,9.187798447866
    ));
#143 = CARTESIAN_POINT('',(-9.956550099532,0.948780834038,9.310289060713
    ));
#144 = CARTESIAN_POINT('',(-9.971577425217,0.78954848086,9.418375029715)
  );
#145 = CARTESIAN_POINT('',(-9.984941108046,0.610605126041,9.505876400759
    ));
#146 = CARTESIAN_POINT('',(-9.994835436674,0.415884350507,9.567722736882
    ));
#147 = CARTESIAN_POINT('',(-10.,0.210395619873,9.6));
#148 = CARTESIAN_POINT('',(-10.,8.082668874373E-16,9.6));
#149 = ORIENTED_EDGE('',*,*,#150,.T.);
#150 = EDGE_CURVE('',#120,#118,#151,.T.);
#151 = B_SPLINE_CURVE_WITH_KNOTS('',7,(#152,#153,#154,#155,#156,#157,
    #158,#159,#160,#161,#162,#163,#164,#165,#166,#167,#168,#169,#170,
    #171,#172,#173,#174,#175,#176,#177),.UNSPECIFIED.,.F.,.F.,(8,6,6,6,8
    ),(0.,0.24783066504,0.500040726587,0.752262922827,1.),
  .UNSPECIFIED.);
#152 = CARTESIAN_POINT('',(-10.,8.881784197001E-16,9.6));
#153 = CARTESIAN_POINT('',(-10.,-0.210483541154,9.6));
#154 = CARTESIAN_POINT('',(-9.994831121476,-0.41598538734,9.567695751165
    ));
#155 = CARTESIAN_POINT('',(-9.984934937314,-0.610666566544,
    9.505837932858));
#156 = CARTESIAN_POINT('',(-9.971575352609,-0.78955266147,9.418355136046
    ));
#157 = CARTESIAN_POINT('',(-9.956553523146,-0.948743518864,
    9.310308304715));
#158 = CARTESIAN_POINT('',(-9.941545672454,-1.085792285948,
    9.187843781703));
#159 = CARTESIAN_POINT('',(-9.913644839002,-1.316584432873,8.92606147706
    ));
#160 = CARTESIAN_POINT('',(-9.900454107015,-1.412331601758,
    8.783294476775));
#161 = CARTESIAN_POINT('',(-9.889102092143,-1.487965202804,8.63309767687
    ));
#162 = CARTESIAN_POINT('',(-9.880226236118,-1.544128980194,
    8.477912710462));
#163 = CARTESIAN_POINT('',(-9.874190558583,-1.581365517051,
    8.319644600821));
#164 = CARTESIAN_POINT('',(-9.871170143402,-1.6,8.159862999784));
#165 = CARTESIAN_POINT('',(-9.871170143402,-1.6,7.840129308657));
#166 = CARTESIAN_POINT('',(-9.87419084317,-1.58136374778,7.680349036539)
  );
#167 = CARTESIAN_POINT('',(-9.88022650951,-1.544127332064,7.522087284953
    ));
#168 = CARTESIAN_POINT('',(-9.889101807015,-1.487966638664,
    7.366909419603));
#169 = CARTESIAN_POINT('',(-9.900453222263,-1.412337335098,
    7.216716109057));
#170 = CARTESIAN_POINT('',(-9.913644002506,-1.316591352257,
    7.073946371441));
#171 = CARTESIAN_POINT('',(-9.9415406071,-1.085834185912,6.812203744477)
  );
#172 = CARTESIAN_POINT('',(-9.956549462249,-0.948786513699,
    6.689716275467));
#173 = CARTESIAN_POINT('',(-9.971576735466,-0.78955644584,6.581629185894
    ));
#174 = CARTESIAN_POINT('',(-9.984940985304,-0.610610528919,
    6.494124161586));
#175 = CARTESIAN_POINT('',(-9.994835689198,-0.415883767377,
    6.432275769778));
#176 = CARTESIAN_POINT('',(-10.,-0.210390660075,6.4));
#177 = CARTESIAN_POINT('',(-10.,1.33226762955E-15,6.4));
#178 = CYLINDRICAL_SURFACE('',#179,10.);
#179 = AXIS2_PLACEMENT_3D('',#180,#181,#182);
#180 = CARTESIAN_POINT('',(0.,0.,0.));
#181 = DIRECTION('',(0.,0.,1.));
#182 = DIRECTION('',(1.,0.,0.));
#183 = ADVANCED_FACE('',(#184),#257,.F.);
#184 = FACE_BOUND('',#185,.F.);
#185 = EDGE_LOOP('',(#186,#187,#195,#226,#255,#256));
#186 = ORIENTED_EDGE('',*,*,#86,.F.);
#187 = ORIENTED_EDGE('',*,*,#188,.F.);
#188 = EDGE_CURVE('',#189,#22,#191,.T.);
#189 = VERTEX_POINT('',#190);
#190 = CARTESIAN_POINT('',(6.02,-5.412938852231E-16,9.6));
#191 = LINE('',#192,#193);
#192 = CARTESIAN_POINT('',(-10.,3.918869757272E-16,9.6));
#193 = VECTOR('',#194,1.);
#194 = DIRECTION('',(1.,0.,0.));
#195 = ORIENTED_EDGE('',*,*,#196,.T.);
#196 = EDGE_CURVE('',#189,#197,#199,.T.);
#197 = VERTEX_POINT('',#198);
#198 = CARTESIAN_POINT('',(6.02,-1.474474746173E-15,6.4));
#199 = B_SPLINE_CURVE_WITH_KNOTS('',7,(#200,#201,#202,#203,#204,#205,
    #206,#207,#208,#209,#210,#211,#212,#213,#214,#215,#216,#217,#218,
    #219,#220,#221,#222,#223,#224,#225),.UNSPECIFIED.,.F.,.F.,(8,6,6,6,8
    ),(0.,0.23828463075,0.500030878393,0.761794210092,1.),
  .UNSPECIFIED.);
#200 = CARTESIAN_POINT('',(6.02,-4.440892098501E-16,9.6));
#201 = CARTESIAN_POINT('',(6.02,-0.202234968554,9.6));
#202 = CARTESIAN_POINT('',(6.012073470989,-0.399752282106,9.570178075118
    ));
#203 = CARTESIAN_POINT('',(5.996888735981,-0.587420816266,9.513036905584
    ));
#204 = CARTESIAN_POINT('',(5.976219534941,-0.760830048992,9.432037299906
    ));
#205 = CARTESIAN_POINT('',(5.952596611164,-0.916428580721,9.331612473429
    ));
#206 = CARTESIAN_POINT('',(5.928544644055,-1.05184637138,9.217209140438)
  );
#207 = CARTESIAN_POINT('',(5.88109207762,-1.292127298224,8.961335942057)
  );
#208 = CARTESIAN_POINT('',(5.857363557363,-1.395837464151,8.814936153564
    ));
#209 = CARTESIAN_POINT('',(5.836645610801,-1.477957175916,8.659807384443
    ));
#210 = CARTESIAN_POINT('',(5.820278187998,-1.539076449909,8.498698912574
    ));
#211 = CARTESIAN_POINT('',(5.809086701432,-1.579669668271,8.333799391828
    ));
#212 = CARTESIAN_POINT('',(5.803481713592,-1.6,8.16697895265));
#213 = CARTESIAN_POINT('',(5.803481713592,-1.6,7.833010148711));
#214 = CARTESIAN_POINT('',(5.809087422124,-1.579667042751,7.666190111793
    ));
#215 = CARTESIAN_POINT('',(5.820279042365,-1.539073385943,7.501296277411
    ));
#216 = CARTESIAN_POINT('',(5.836645686069,-1.47795639149,7.340193620548)
  );
#217 = CARTESIAN_POINT('',(5.857363029344,-1.395839517393,7.185067419337
    ));
#218 = CARTESIAN_POINT('',(5.881091608556,-1.292129673376,7.038666587223
    ));
#219 = CARTESIAN_POINT('',(5.928536113609,-1.051889566168,6.782836857339
    ));
#220 = CARTESIAN_POINT('',(5.952590151431,-0.916471490267,6.668410713783
    ));
#221 = CARTESIAN_POINT('',(5.976222134412,-0.760832493231,6.567947082472
    ));
#222 = CARTESIAN_POINT('',(5.996898410098,-0.587363648781,6.4869265279)
  );
#223 = CARTESIAN_POINT('',(6.012080751577,-0.399650481798,6.429794631388
    ));
#224 = CARTESIAN_POINT('',(6.02,-0.202142329426,6.4));
#225 = CARTESIAN_POINT('',(6.02,-4.440892098501E-16,6.4));
#226 = ORIENTED_EDGE('',*,*,#227,.T.);
#227 = EDGE_CURVE('',#197,#189,#228,.T.);
#228 = B_SPLINE_CURVE_WITH_KNOTS('',7,(#229,#230,#231,#232,#233,#234,
    #235,#236,#237,#238,#239,#240,#241,#242,#243,#244,#245,#246,#247,
    #248,#249,#250,#251,#252,#253,#254),.UNSPECIFIED.,.F.,.F.,(8,6,6,6,8
    ),(0.,0.238286703977,0.500040176832,0.761793649686,1.),
  .UNSPECIFIED.);
#229 = CARTESIAN_POINT('',(6.02,6.125709918283E-16,6.4));
#230 = CARTESIAN_POINT('',(6.02,0.202234972752,6.4));
#231 = CARTESIAN_POINT('',(6.012073470852,0.399752271996,6.429821925739)
  );
#232 = CARTESIAN_POINT('',(5.996888736766,0.587420824275,6.486963090181)
  );
#233 = CARTESIAN_POINT('',(5.97621953344,0.760830050036,6.567962707895)
  );
#234 = CARTESIAN_POINT('',(5.952596612438,0.916428575787,6.668387519919)
  );
#235 = CARTESIAN_POINT('',(5.928544643618,1.051846373592,6.782790861917)
  );
#236 = CARTESIAN_POINT('',(5.881091608556,1.292129673376,7.038666587223)
  );
#237 = CARTESIAN_POINT('',(5.857363029344,1.395839517393,7.185067419337)
  );
#238 = CARTESIAN_POINT('',(5.836645686069,1.477956391491,7.340193620549)
  );
#239 = CARTESIAN_POINT('',(5.820279042365,1.539073385942,7.50129627741)
  );
#240 = CARTESIAN_POINT('',(5.809087422124,1.579667042751,7.666190111793)
  );
#241 = CARTESIAN_POINT('',(5.803481713592,1.6,7.833010148711));
#242 = CARTESIAN_POINT('',(5.803481713592,1.6,8.166989851289));
#243 = CARTESIAN_POINT('',(5.809087422124,1.579667042751,8.333809888206)
  );
#244 = CARTESIAN_POINT('',(5.820279042365,1.539073385942,8.498703722591)
  );
#245 = CARTESIAN_POINT('',(5.836645686069,1.477956391491,8.65980637945)
  );
#246 = CARTESIAN_POINT('',(5.857363029344,1.395839517392,8.814932580664)
  );
#247 = CARTESIAN_POINT('',(5.881091608556,1.292129673376,8.961333412777)
  );
#248 = CARTESIAN_POINT('',(5.928537018181,1.051884985776,9.217168020283)
  );
#249 = CARTESIAN_POINT('',(5.952591612459,0.916463056519,9.331595883871)
  );
#250 = CARTESIAN_POINT('',(5.976223077882,0.760824274268,9.4320560702));
#251 = CARTESIAN_POINT('',(5.996898046034,0.587361575342,9.513071861096)
  );
#252 = CARTESIAN_POINT('',(6.012079923805,0.399657034309,9.570202369035)
  );
#253 = CARTESIAN_POINT('',(6.02,0.20215259169,9.6));
#254 = CARTESIAN_POINT('',(6.02,1.959434878636E-16,9.6));
#255 = ORIENTED_EDGE('',*,*,#188,.T.);
#256 = ORIENTED_EDGE('',*,*,#39,.F.);
#257 = CYLINDRICAL_SURFACE('',#258,1.6);
#258 = AXIS2_PLACEMENT_3D('',#259,#260,#261);
#259 = CARTESIAN_POINT('',(-10.,0.,8.));
#260 = DIRECTION('',(1.,0.,0.));
#261 = DIRECTION('',(0.,0.,1.));
#262 = ADVANCED_FACE('',(#263,#266),#312,.F.);
#263 = FACE_BOUND('',#264,.F.);
#264 = EDGE_LOOP('',(#265));
#265 = ORIENTED_EDGE('',*,*,#78,.T.);
#266 = FACE_BOUND('',#267,.F.);
#267 = EDGE_LOOP('',(#268,#279,#288,#297,#305));
#268 = ORIENTED_EDGE('',*,*,#269,.F.);
#269 = EDGE_CURVE('',#270,#272,#274,.T.);
#270 = VERTEX_POINT('',#271);
#271 = CARTESIAN_POINT('',(4.318212084644E-13,-6.02,0.));
#272 = VERTEX_POINT('',#273);
#273 = CARTESIAN_POINT('',(6.02,-1.474474746173E-15,0.));
#274 = CIRCLE('',#275,6.02);
#275 = AXIS2_PLACEMENT_3D('',#276,#277,#278);
#276 = CARTESIAN_POINT('',(0.,0.,0.));
#277 = DIRECTION('',(0.,0.,1.));
#278 = DIRECTION('',(1.,0.,0.));
#279 = ORIENTED_EDGE('',*,*,#280,.F.);
#280 = EDGE_CURVE('',#281,#270,#283,.T.);
#281 = VERTEX_POINT('',#282);
#282 = CARTESIAN_POINT('',(-6.02,3.481684047592E-15,0.));
#283 = CIRCLE('',#284,6.02);
#284 = AXIS2_PLACEMENT_3D('',#285,#286,#287);
#285 = CARTESIAN_POINT('',(0.,0.,0.));
#286 = DIRECTION('',(0.,0.,1.));
#287 = DIRECTION('',(1.,0.,0.));
#288 = ORIENTED_EDGE('',*,*,#289,.F.);
#289 = EDGE_CURVE('',#290,#281,#292,.T.);
#290 = VERTEX_POINT('',#291);
#291 = CARTESIAN_POINT('',(-3.469005621212,4.92,0.));
#292 = CIRCLE('',#293,6.02);
#293 = AXIS2_PLACEMENT_3D('',#294,#295,#296);
#294 = CARTESIAN_POINT('',(0.,0.,0.));
#295 = DIRECTION('',(0.,0.,1.));
#296 = DIRECTION('',(1.,0.,0.));
#297 = ORIENTED_EDGE('',*,*,#298,.T.);
#298 = EDGE_CURVE('',#290,#299,#301,.T.);
#299 = VERTEX_POINT('',#300);
#300 = CARTESIAN_POINT('',(3.469005621212,4.92,0.));
#301 = LINE('',#302,#303);
#302 = CARTESIAN_POINT('',(-6.02,4.92,0.));
#303 = VECTOR('',#304,1.);
#304 = DIRECTION('',(1.,0.,0.));
#305 = ORIENTED_EDGE('',*,*,#306,.F.);
#306 = EDGE_CURVE('',#272,#299,#307,.T.);
#307 = CIRCLE('',#308,6.02);
#308 = AXIS2_PLACEMENT_3D('',#309,#310,#311);
#309 = CARTESIAN_POINT('',(0.,0.,0.));
#310 = DIRECTION('',(0.,0.,1.));
#311 = DIRECTION('',(1.,0.,0.));
#312 = PLANE('',#313);
#313 = AXIS2_PLACEMENT_3D('',#314,#315,#316);
#314 = CARTESIAN_POINT('',(0.,0.,0.));
#315 = DIRECTION('',(0.,0.,1.));
#316 = DIRECTION('',(1.,0.,0.));
#317 = ADVANCED_FACE('',(#318,#321),#332,.T.);
#318 = FACE_BOUND('',#319,.T.);
#319 = EDGE_LOOP('',(#320));
#320 = ORIENTED_EDGE('',*,*,#31,.T.);
#321 = FACE_BOUND('',#322,.T.);
#322 = EDGE_LOOP('',(#323));
#323 = ORIENTED_EDGE('',*,*,#324,.F.);
#324 = EDGE_CURVE('',#325,#325,#327,.T.);
#325 = VERTEX_POINT('',#326);
#326 = CARTESIAN_POINT('',(6.02,-1.474474746173E-15,16.));
#327 = CIRCLE('',#328,6.02);
#328 = AXIS2_PLACEMENT_3D('',#329,#330,#331);
#329 = CARTESIAN_POINT('',(0.,0.,16.));
#330 = DIRECTION('',(0.,0.,1.));
#331 = DIRECTION('',(1.,0.,0.));
#332 = PLANE('',#333);
#333 = AXIS2_PLACEMENT_3D('',#334,#335,#336);
#334 = CARTESIAN_POINT('',(0.,0.,16.));
#335 = DIRECTION('',(0.,0.,1.));
#336 = DIRECTION('',(1.,0.,0.));
#337 = ADVANCED_FACE('',(#338),#411,.F.);
#338 = FACE_BOUND('',#339,.F.);
#339 = EDGE_LOOP('',(#340,#373,#379,#380,#381,#382));
#340 = ORIENTED_EDGE('',*,*,#341,.F.);
#341 = EDGE_CURVE('',#342,#344,#346,.T.);
#342 = VERTEX_POINT('',#343);
#343 = CARTESIAN_POINT('',(-6.02,1.959434878636E-16,9.6));
#344 = VERTEX_POINT('',#345);
#345 = CARTESIAN_POINT('',(-6.02,0.,6.4));
#346 = B_SPLINE_CURVE_WITH_KNOTS('',7,(#347,#348,#349,#350,#351,#352,
    #353,#354,#355,#356,#357,#358,#359,#360,#361,#362,#363,#364,#365,
    #366,#367,#368,#369,#370,#371,#372),.UNSPECIFIED.,.F.,.F.,(8,6,6,6,8
    ),(0.,0.238284634636,0.500030878257,0.761794206227,1.),
  .UNSPECIFIED.);
#347 = CARTESIAN_POINT('',(-6.02,6.661338147751E-16,9.6));
#348 = CARTESIAN_POINT('',(-6.02,-0.202234968554,9.6));
#349 = CARTESIAN_POINT('',(-6.012073470989,-0.399752282107,
    9.570178075118));
#350 = CARTESIAN_POINT('',(-5.996888735981,-0.587420816265,
    9.513036905584));
#351 = CARTESIAN_POINT('',(-5.976219534941,-0.760830048993,
    9.432037299906));
#352 = CARTESIAN_POINT('',(-5.952596611164,-0.916428580721,
    9.331612473429));
#353 = CARTESIAN_POINT('',(-5.928544644055,-1.05184637138,9.217209140438
    ));
#354 = CARTESIAN_POINT('',(-5.881092078407,-1.292127294239,8.9613359463)
  );
#355 = CARTESIAN_POINT('',(-5.857363555296,-1.395837474453,8.81493614433
    ));
#356 = CARTESIAN_POINT('',(-5.836645613022,-1.47795716473,8.65980738799)
  );
#357 = CARTESIAN_POINT('',(-5.820278186912,-1.539076455654,
    8.498698921658));
#358 = CARTESIAN_POINT('',(-5.809086701633,-1.57966966708,8.333799380242
    ));
#359 = CARTESIAN_POINT('',(-5.803481713592,-1.6,8.166978957333));
#360 = CARTESIAN_POINT('',(-5.803481713592,-1.6,7.833010143841));
#361 = CARTESIAN_POINT('',(-5.809087422328,-1.579667041495,
    7.666190123762));
#362 = CARTESIAN_POINT('',(-5.820279041241,-1.539073391927,
    7.501296268559));
#363 = CARTESIAN_POINT('',(-5.836645688301,-1.477956380227,
    7.340193616707));
#364 = CARTESIAN_POINT('',(-5.857363027318,-1.395839527493,
    7.185067428436));
#365 = CARTESIAN_POINT('',(-5.881091609313,-1.292129669543,
    7.038666583141));
#366 = CARTESIAN_POINT('',(-5.928536113609,-1.051889566168,
    6.782836857339));
#367 = CARTESIAN_POINT('',(-5.952590151431,-0.916471490266,
    6.668410713783));
#368 = CARTESIAN_POINT('',(-5.976222134412,-0.760832493232,
    6.567947082472));
#369 = CARTESIAN_POINT('',(-5.996898410098,-0.58736364878,6.4869265279)
  );
#370 = CARTESIAN_POINT('',(-6.012080751577,-0.399650481798,
    6.429794631388));
#371 = CARTESIAN_POINT('',(-6.02,-0.202142329426,6.4));
#372 = CARTESIAN_POINT('',(-6.02,6.661338147751E-16,6.4));
#373 = ORIENTED_EDGE('',*,*,#374,.F.);
#374 = EDGE_CURVE('',#120,#342,#375,.T.);
#375 = LINE('',#376,#377);
#376 = CARTESIAN_POINT('',(-10.,3.918869757272E-16,9.6));
#377 = VECTOR('',#378,1.);
#378 = DIRECTION('',(1.,0.,0.));
#379 = ORIENTED_EDGE('',*,*,#150,.T.);
#380 = ORIENTED_EDGE('',*,*,#117,.T.);
#381 = ORIENTED_EDGE('',*,*,#374,.T.);
#382 = ORIENTED_EDGE('',*,*,#383,.F.);
#383 = EDGE_CURVE('',#344,#342,#384,.T.);
#384 = B_SPLINE_CURVE_WITH_KNOTS('',7,(#385,#386,#387,#388,#389,#390,
    #391,#392,#393,#394,#395,#396,#397,#398,#399,#400,#401,#402,#403,
    #404,#405,#406,#407,#408,#409,#410),.UNSPECIFIED.,.F.,.F.,(8,6,6,6,8
    ),(0.,0.238281707208,0.500032714667,0.761790094331,1.),
  .UNSPECIFIED.);
#385 = CARTESIAN_POINT('',(-6.02,6.259183104916E-16,6.4));
#386 = CARTESIAN_POINT('',(-6.02,0.202234968554,6.4));
#387 = CARTESIAN_POINT('',(-6.012073470989,0.399752282107,6.429821924882
    ));
#388 = CARTESIAN_POINT('',(-5.996888735981,0.587420816265,6.486963094416
    ));
#389 = CARTESIAN_POINT('',(-5.976219534941,0.760830048993,6.567962700094
    ));
#390 = CARTESIAN_POINT('',(-5.952596611164,0.916428580721,6.668387526571
    ));
#391 = CARTESIAN_POINT('',(-5.928544644055,1.05184637138,6.782790859562)
  );
#392 = CARTESIAN_POINT('',(-5.881091321148,1.292131128694,7.03866813698)
  );
#393 = CARTESIAN_POINT('',(-5.857363046283,1.395839046833,7.185067746223
    ));
#394 = CARTESIAN_POINT('',(-5.836645993609,1.477955411792,7.340191989123
    ));
#395 = CARTESIAN_POINT('',(-5.820278999104,1.539073558193,7.501295004994
    ));
#396 = CARTESIAN_POINT('',(-5.809087145791,1.579668040379,7.666191888019
    ));
#397 = CARTESIAN_POINT('',(-5.803481713592,1.6,7.833014213901));
#398 = CARTESIAN_POINT('',(-5.803481713592,1.6,8.166989851289));
#399 = CARTESIAN_POINT('',(-5.809087422124,1.579667042751,8.333809888206
    ));
#400 = CARTESIAN_POINT('',(-5.820279042365,1.539073385943,8.49870372259)
  );
#401 = CARTESIAN_POINT('',(-5.836645686069,1.477956391491,8.659806379451
    ));
#402 = CARTESIAN_POINT('',(-5.857363029344,1.395839517393,8.814932580663
    ));
#403 = CARTESIAN_POINT('',(-5.881091608556,1.292129673376,8.961333412777
    ));
#404 = CARTESIAN_POINT('',(-5.928537018181,1.051884985776,9.217168020283
    ));
#405 = CARTESIAN_POINT('',(-5.95259161246,0.916463056519,9.331595883871)
  );
#406 = CARTESIAN_POINT('',(-5.976223077882,0.760824274269,9.4320560702)
  );
#407 = CARTESIAN_POINT('',(-5.996898046034,0.587361575342,9.513071861096
    ));
#408 = CARTESIAN_POINT('',(-6.012079923805,0.39965703431,9.570202369035)
  );
#409 = CARTESIAN_POINT('',(-6.02,0.20215259169,9.6));
#410 = CARTESIAN_POINT('',(-6.02,5.645621744069E-16,9.6));
#411 = CYLINDRICAL_SURFACE('',#412,1.6);
#412 = AXIS2_PLACEMENT_3D('',#413,#414,#415);
#413 = CARTESIAN_POINT('',(-10.,0.,8.));
#414 = DIRECTION('',(1.,0.,0.));
#415 = DIRECTION('',(0.,0.,1.));
#416 = ADVANCED_FACE('',(#417),#450,.F.);
#417 = FACE_BOUND('',#418,.F.);
#418 = EDGE_LOOP('',(#419,#430,#436,#437,#443,#444));
#419 = ORIENTED_EDGE('',*,*,#420,.F.);
#420 = EDGE_CURVE('',#421,#423,#425,.T.);
#421 = VERTEX_POINT('',#422);
#422 = CARTESIAN_POINT('',(6.02,-1.625415792787E-15,13.));
#423 = VERTEX_POINT('',#424);
#424 = CARTESIAN_POINT('',(3.469005621212,4.92,13.));
#425 = CIRCLE('',#426,6.02);
#426 = AXIS2_PLACEMENT_3D('',#427,#428,#429);
#427 = CARTESIAN_POINT('',(0.,0.,13.));
#428 = DIRECTION('',(0.,0.,1.));
#429 = DIRECTION('',(1.,0.,0.));
#430 = ORIENTED_EDGE('',*,*,#431,.F.);
#431 = EDGE_CURVE('',#189,#421,#432,.T.);
#432 = LINE('',#433,#434);
#433 = CARTESIAN_POINT('',(6.02,-1.474474746173E-15,0.));
#434 = VECTOR('',#435,1.);
#435 = DIRECTION('',(0.,0.,1.));
#436 = ORIENTED_EDGE('',*,*,#227,.F.);
#437 = ORIENTED_EDGE('',*,*,#438,.F.);
#438 = EDGE_CURVE('',#272,#197,#439,.T.);
#439 = LINE('',#440,#441);
#440 = CARTESIAN_POINT('',(6.02,-1.474474746173E-15,0.));
#441 = VECTOR('',#442,1.);
#442 = DIRECTION('',(0.,0.,1.));
#443 = ORIENTED_EDGE('',*,*,#306,.T.);
#444 = ORIENTED_EDGE('',*,*,#445,.T.);
#445 = EDGE_CURVE('',#299,#423,#446,.T.);
#446 = LINE('',#447,#448);
#447 = CARTESIAN_POINT('',(3.469005621212,4.92,0.));
#448 = VECTOR('',#449,1.);
#449 = DIRECTION('',(0.,0.,1.));
#450 = CYLINDRICAL_SURFACE('',#451,6.02);
#451 = AXIS2_PLACEMENT_3D('',#452,#453,#454);
#452 = CARTESIAN_POINT('',(0.,0.,0.));
#453 = DIRECTION('',(0.,0.,1.));
#454 = DIRECTION('',(1.,0.,0.));
#455 = ADVANCED_FACE('',(#456),#477,.F.);
#456 = FACE_BOUND('',#457,.F.);
#457 = EDGE_LOOP('',(#458,#459,#460,#469,#475,#476));
#458 = ORIENTED_EDGE('',*,*,#196,.F.);
#459 = ORIENTED_EDGE('',*,*,#431,.T.);
#460 = ORIENTED_EDGE('',*,*,#461,.F.);
#461 = EDGE_CURVE('',#462,#421,#464,.T.);
#462 = VERTEX_POINT('',#463);
#463 = CARTESIAN_POINT('',(0.,-6.02,13.));
#464 = CIRCLE('',#465,6.02);
#465 = AXIS2_PLACEMENT_3D('',#466,#467,#468);
#466 = CARTESIAN_POINT('',(0.,0.,13.));
#467 = DIRECTION('',(0.,0.,1.));
#468 = DIRECTION('',(1.,0.,0.));
#469 = ORIENTED_EDGE('',*,*,#470,.F.);
#470 = EDGE_CURVE('',#270,#462,#471,.T.);
#471 = LINE('',#472,#473);
#472 = CARTESIAN_POINT('',(0.,-6.02,0.));
#473 = VECTOR('',#474,1.);
#474 = DIRECTION('',(0.,0.,1.));
#475 = ORIENTED_EDGE('',*,*,#269,.T.);
#476 = ORIENTED_EDGE('',*,*,#438,.T.);
#477 = CYLINDRICAL_SURFACE('',#478,6.02);
#478 = AXIS2_PLACEMENT_3D('',#479,#480,#481);
#479 = CARTESIAN_POINT('',(0.,0.,0.));
#480 = DIRECTION('',(0.,0.,1.));
#481 = DIRECTION('',(1.,0.,0.));
#482 = ADVANCED_FACE('',(#483),#501,.F.);
#483 = FACE_BOUND('',#484,.F.);
#484 = EDGE_LOOP('',(#485,#486,#494,#500));
#485 = ORIENTED_EDGE('',*,*,#298,.F.);
#486 = ORIENTED_EDGE('',*,*,#487,.T.);
#487 = EDGE_CURVE('',#290,#488,#490,.T.);
#488 = VERTEX_POINT('',#489);
#489 = CARTESIAN_POINT('',(-3.469005621212,4.92,13.));
#490 = LINE('',#491,#492);
#491 = CARTESIAN_POINT('',(-3.469005621212,4.92,0.));
#492 = VECTOR('',#493,1.);
#493 = DIRECTION('',(0.,0.,1.));
#494 = ORIENTED_EDGE('',*,*,#495,.T.);
#495 = EDGE_CURVE('',#488,#423,#496,.T.);
#496 = LINE('',#497,#498);
#497 = CARTESIAN_POINT('',(-6.02,4.92,13.));
#498 = VECTOR('',#499,1.);
#499 = DIRECTION('',(1.,0.,0.));
#500 = ORIENTED_EDGE('',*,*,#445,.F.);
#501 = PLANE('',#502);
#502 = AXIS2_PLACEMENT_3D('',#503,#504,#505);
#503 = CARTESIAN_POINT('',(-6.02,4.92,0.));
#504 = DIRECTION('',(0.,1.,0.));
#505 = DIRECTION('',(0.,0.,1.));
#506 = ADVANCED_FACE('',(#507),#533,.F.);
#507 = FACE_BOUND('',#508,.F.);
#508 = EDGE_LOOP('',(#509,#510,#518,#525,#526,#527));
#509 = ORIENTED_EDGE('',*,*,#383,.T.);
#510 = ORIENTED_EDGE('',*,*,#511,.T.);
#511 = EDGE_CURVE('',#342,#512,#514,.T.);
#512 = VERTEX_POINT('',#513);
#513 = CARTESIAN_POINT('',(-6.02,0.,13.));
#514 = LINE('',#515,#516);
#515 = CARTESIAN_POINT('',(-6.02,0.,0.));
#516 = VECTOR('',#517,1.);
#517 = DIRECTION('',(0.,0.,1.));
#518 = ORIENTED_EDGE('',*,*,#519,.F.);
#519 = EDGE_CURVE('',#488,#512,#520,.T.);
#520 = CIRCLE('',#521,6.02);
#521 = AXIS2_PLACEMENT_3D('',#522,#523,#524);
#522 = CARTESIAN_POINT('',(0.,0.,13.));
#523 = DIRECTION('',(0.,0.,1.));
#524 = DIRECTION('',(1.,0.,0.));
#525 = ORIENTED_EDGE('',*,*,#487,.F.);
#526 = ORIENTED_EDGE('',*,*,#289,.T.);
#527 = ORIENTED_EDGE('',*,*,#528,.T.);
#528 = EDGE_CURVE('',#281,#344,#529,.T.);
#529 = LINE('',#530,#531);
#530 = CARTESIAN_POINT('',(-6.02,0.,0.));
#531 = VECTOR('',#532,1.);
#532 = DIRECTION('',(0.,0.,1.));
#533 = CYLINDRICAL_SURFACE('',#534,6.02);
#534 = AXIS2_PLACEMENT_3D('',#535,#536,#537);
#535 = CARTESIAN_POINT('',(0.,0.,0.));
#536 = DIRECTION('',(0.,0.,1.));
#537 = DIRECTION('',(1.,0.,0.));
#538 = ADVANCED_FACE('',(#539),#553,.F.);
#539 = FACE_BOUND('',#540,.F.);
#540 = EDGE_LOOP('',(#541,#542,#543,#550,#551,#552));
#541 = ORIENTED_EDGE('',*,*,#280,.T.);
#542 = ORIENTED_EDGE('',*,*,#470,.T.);
#543 = ORIENTED_EDGE('',*,*,#544,.F.);
#544 = EDGE_CURVE('',#512,#462,#545,.T.);
#545 = CIRCLE('',#546,6.02);
#546 = AXIS2_PLACEMENT_3D('',#547,#548,#549);
#547 = CARTESIAN_POINT('',(0.,0.,13.));
#548 = DIRECTION('',(0.,0.,1.));
#549 = DIRECTION('',(1.,0.,0.));
#550 = ORIENTED_EDGE('',*,*,#511,.F.);
#551 = ORIENTED_EDGE('',*,*,#341,.T.);
#552 = ORIENTED_EDGE('',*,*,#528,.F.);
#553 = CYLINDRICAL_SURFACE('',#554,6.02);
#554 = AXIS2_PLACEMENT_3D('',#555,#556,#557);
#555 = CARTESIAN_POINT('',(0.,0.,0.));
#556 = DIRECTION('',(0.,0.,1.));
#557 = DIRECTION('',(1.,0.,0.));
#558 = ADVANCED_FACE('',(#559),#580,.F.);
#559 = FACE_BOUND('',#560,.F.);
#560 = EDGE_LOOP('',(#561,#562,#568,#569,#570,#571,#578,#579));
#561 = ORIENTED_EDGE('',*,*,#461,.T.);
#562 = ORIENTED_EDGE('',*,*,#563,.T.);
#563 = EDGE_CURVE('',#421,#325,#564,.T.);
#564 = LINE('',#565,#566);
#565 = CARTESIAN_POINT('',(6.02,-1.474474746173E-15,13.));
#566 = VECTOR('',#567,1.);
#567 = DIRECTION('',(0.,0.,1.));
#568 = ORIENTED_EDGE('',*,*,#324,.F.);
#569 = ORIENTED_EDGE('',*,*,#563,.F.);
#570 = ORIENTED_EDGE('',*,*,#420,.T.);
#571 = ORIENTED_EDGE('',*,*,#572,.T.);
#572 = EDGE_CURVE('',#423,#488,#573,.T.);
#573 = CIRCLE('',#574,6.02);
#574 = AXIS2_PLACEMENT_3D('',#575,#576,#577);
#575 = CARTESIAN_POINT('',(0.,0.,13.));
#576 = DIRECTION('',(0.,0.,1.));
#577 = DIRECTION('',(1.,0.,0.));
#578 = ORIENTED_EDGE('',*,*,#519,.T.);
#579 = ORIENTED_EDGE('',*,*,#544,.T.);
#580 = CYLINDRICAL_SURFACE('',#581,6.02);
#581 = AXIS2_PLACEMENT_3D('',#582,#583,#584);
#582 = CARTESIAN_POINT('',(0.,0.,13.));
#583 = DIRECTION('',(0.,0.,1.));
#584 = DIRECTION('',(1.,0.,0.));
#585 = ADVANCED_FACE('',(#586),#590,.T.);
#586 = FACE_BOUND('',#587,.T.);
#587 = EDGE_LOOP('',(#588,#589));
#588 = ORIENTED_EDGE('',*,*,#495,.T.);
#589 = ORIENTED_EDGE('',*,*,#572,.T.);
#590 = PLANE('',#591);
#591 = AXIS2_PLACEMENT_3D('',#592,#593,#594);
#592 = CARTESIAN_POINT('',(0.,0.,13.));
#593 = DIRECTION('',(0.,0.,1.));
#594 = DIRECTION('',(1.,0.,0.));
#595 = ( GEOMETRIC_REPRESENTATION_CONTEXT(3) 
GLOBAL_UNCERTAINTY_ASSIGNED_CONTEXT((#599)) GLOBAL_UNIT_ASSIGNED_CONTEXT
((#596,#597,#598)) REPRESENTATION_CONTEXT('Context #1',
  '3D Context with UNIT and UNCERTAINTY') );
#596 = ( LENGTH_UNIT() NAMED_UNIT(*) SI_UNIT(.MILLI.,.METRE.) );
#597 = ( NAMED_UNIT(*) PLANE_ANGLE_UNIT() SI_UNIT($,.RADIAN.) );
#598 = ( NAMED_UNIT(*) SI_UNIT($,.STERADIAN.) SOLID_ANGLE_UNIT() );
#599 = UNCERTAINTY_MEASURE_WITH_UNIT(LENGTH_MEASURE(1.E-07),#596,
  'distance_accuracy_value','confusion accuracy');
#600 = PRODUCT_RELATED_PRODUCT_CATEGORY('part',$,(#7));
ENDSEC;
END-ISO-10303-21;
