999
FreeCAD v1.1 Unknown
  0
SECTION
  2
HEADER
  9
$ACADVER
  1
AC1014
  9
$ACADMAINTVER
 70
     9
  9
$DWGCODEPAGE
  3
ANSI_1252
  9
$TEXTSTYLE
  7
STANDARD
  9
$DIMSTYLE
  2
STANDARD
  9
$DIMTXSTY
  7
STANDARD
  9
$CMLSTYLE
  2
STANDARD
  9
$LUNITS
 70
2
  9
$INSUNITS
 70
4
  9
$PEXTMAX
 10
50
 20
50
 30
50
  9
$PEXTMIN
 10
0
 20
0
 30
0
  9
$HANDSEED
  5
FFFF
  0
ENDSEC
  0
SECTION
  2
CLASSES
  0
CLASS
  1
ACDBDICTIONARYWDFLT
  2
AcDbDictionaryWithDefault
  3
ObjectDBX Classes
 90
        0
280
     0
281
     0
  0
CLASS
  1
XRECORD
  2
AcDbXrecord
  3
ObjectDBX Classes
 90
        0
280
     0
281
     0
  0
CLASS
  1
LWPOLYLINE
  2
AcDbPolyline
  3
ObjectDBX Classes
 90
        0
280
     0
281
     1
  0
ENDSEC
  0
SECTION
  2
TABLES
  0
TABLE
  2
VPORT
  5
20
330
0
100
AcDbSymbolTable
 70
     1
  0
VPORT
  5
21
330
20
100
AcDbSymbolTableRecord
100
AcDbViewportTableRecord
  2
*ACTIVE
 70
     0
  0
ENDTAB
  0
TABLE
  2
LTYPE
  5
22
330
0
100
AcDbSymbolTable
 70
     1
  0
LTYPE
  5
23
330
21
100
AcDbSymbolTableRecord
100
AcDbLinetypeTableRecord
  2
BYBLOCK
 70
     0
  3

 72
    65
 73
     0
 40
0.0
  0
LTYPE
  5
24
330
21
100
AcDbSymbolTableRecord
100
AcDbLinetypeTableRecord
  2
BYLAYER
 70
     0
  3

 72
    65
 73
     0
 40
0.0
  0
LTYPE
  5
25
330
21
100
AcDbSymbolTableRecord
100
AcDbLinetypeTableRecord
  2
CONTINUOUS
 70
     0
  3
Solid line
 72
    65
 73
     0
 40
0.0
  0
ENDTAB
  0
TABLE
  2
LAYER
  5
A42
330
0
100
AcDbSymbolTable
 70
3
  0
LAYER
  5
A43
330
A42
100
AcDbSymbolTableRecord
100
AcDbLayerTableRecord
  2
0
 70
   0
 62
   7
  6
CONTINUOUS
  0
LAYER
  5
A44
330
A42
100
AcDbSymbolTableRecord
100
AcDbLayerTableRecord
  2
none
 70
    0
 62
    7
  6
CONTINUOUS
  0
LAYER
  5
A45
330
A42
100
AcDbSymbolTableRecord
100
AcDbLayerTableRecord
  2
Part
 70
    0
 62
    7
  6
CONTINUOUS
  0
ENDTAB
  0
TABLE
  2
STYLE
  5
70
330
0
100
AcDbSymbolTable
 70
     2
  0
STYLE
  5
71
330
70
100
AcDbSymbolTableRecord
100
AcDbTextStyleTableRecord
  2
STANDARD
 70
     0
 40
0.0
 41
1.0
 50
0.0
 71
     0
 42
2.5
  3
arial.ttf
  4

  0
STYLE
  5
72
330
70
100
AcDbSymbolTableRecord
100
AcDbTextStyleTableRecord
  2
ANNOTATIVE
 70
     0
 40
0.0
 41
1.0
 50
0.0
 71
     0
 42
2.5
  3
arial.ttf
  4

  0
ENDTAB
  0
TABLE
  2
VIEW
  5
73
330
0
100
AcDbSymbolTable
 70
     0
  0
ENDTAB
  0
TABLE
  2
UCS
  5
74
330
0
100
AcDbSymbolTable
 70
     0
  0
ENDTAB
  0
TABLE
  2
APPID
  5
75
330
0
100
AcDbSymbolTable
 70
     2
  0
APPID
  5
76
330
75
100
AcDbSymbolTableRecord
100
AcDbRegAppTableRecord
  2
ACAD
 70
     0
  0
APPID
  5
77
330
75
100
AcDbSymbolTableRecord
100
AcDbRegAppTableRecord
  2
ACADANNOTATIVE
 70
     0
  0
ENDTAB
  0
TABLE
  2
DIMSTYLE
  5
78
330
0
100
AcDbSymbolTable
 70
     2
  0
DIMSTYLE
105
79
330
78
100
AcDbSymbolTableRecord
100
AcDbDimStyleTableRecord
  2
STANDARD
 70
     0
  3

  4

  5

  6

  7

 40
0.0
 41
2.5
 42
0.625
 43
3.75
 44
1.25
 45
0.0
 46
0.0
 47
0.0
 48
0.0
140
2.5
141
2.5
142
0.0
143
0.03937007874016
144
1.0
145
0.0
146
1.0
147
0.625
 71
     0
 72
     0
 73
     0
 74
     0
 75
     0
 76
     0
 77
     1
 78
     8
170
     0
171
     3
172
     1
173
     0
174
     0
175
     0
176
     0
177
     0
178
     0
270
     2
271
     2
272
     2
273
     2
274
     3
340
71
275
     0
280
     0
281
     0
282
     0
283
     0
284
     8
285
     0
286
     0
287
     3
288
     0
  0
ENDTAB
  0
TABLE
  2
BLOCK_RECORD
  5
A01
330
0
100
AcDbSymbolTable
  70
5
  0
BLOCK_RECORD
  5
A02
330
A01
100
AcDbSymbolTableRecord
100
AcDbBlockTableRecord
  2
*MODEL_SPACE
  0
BLOCK_RECORD
  5
A03
330
A01
100
AcDbSymbolTableRecord
100
AcDbBlockTableRecord
  2
*PAPER_SPACE
  0
ENDTAB
  0
ENDSEC
  0
SECTION
  2
BLOCKS
  0
BLOCK
  5
A04
330
A02
100
AcDbEntity
  8
0
100
AcDbBlockBegin
  2
*MODEL_SPACE
 70
   0
 10
0
 20
0
 30
0
  3
*MODEL_SPACE
  1

  0
ENDBLK
  5
A05
330
A02
100
AcDbEntity
  8
0
100
AcDbBlockEnd
  0
BLOCK
  5
A06
330
A03
100
AcDbEntity
 67
1
  8
0
100
AcDbBlockBegin
  2
*PAPER_SPACE
 70
   0
 10
0
 20
0
 30
0
  3
*PAPER_SPACE
  1

  0
ENDBLK
  5
A07
330
A03
100
AcDbEntity
 67
    1
  8
0
100
AcDbBlockEnd
  0
ENDSEC
  0
SECTION
  2
ENTITIES
  0
LINE
  5
A08
330
A02
100
AcDbEntity
  8
Part
100
AcDbLine
 10
10.000000000
 20
-0.000000000
 30
9.600000000
 11
10.000000000
 21
-0.000000000
 31
16.000000000
  0
SPLINE
  5
A09
330
A02
100
AcDbEntity
  8
Part
100
AcDbSpline
210
0
220
0
230
1
 70
8
 71
3
 72
17
 73
13
 74
0
 40
0.000000000
 40
0.000000000
 40
0.000000000
 40
0.000000000
 40
0.247830665
 40
0.247830665
 40
0.247830665
 40
0.500040727
 40
0.500040727
 40
0.500040727
 40
0.752262923
 40
0.752262923
 40
0.752262923
 40
1.000000000
 40
1.000000000
 40
1.000000000
 40
1.000000000
 10
10.000000000
 20
-0.000000000
 30
9.600000000
 10
10.000751334
 20
-0.494195614
 30
9.602785336
 10
9.960173384
 20
-0.936763360
 30
9.363552541
 10
9.927717435
 20
-1.200177711
 30
9.058098985
 10
9.894258958
 20
-1.471506331
 30
8.748730277
 10
9.870612682
 20
-1.599542849
 30
8.372005003
 10
9.871170143
 20
-1.600000000
 30
8.000000000
 10
9.870613540
 20
-1.599536720
 30
7.627979095
 10
9.894257468
 20
-1.471517015
 30
7.251291738
 10
9.927717435
 20
-1.200177711
 30
6.941901015
 10
9.960166513
 20
-0.936887259
 30
6.636499498
 10
10.000760617
 20
-0.493993547
 30
6.397149389
 10
10.000000000
 20
-0.000000000
 30
6.400000000
  0
LINE
  5
A0A
330
A02
100
AcDbEntity
  8
Part
100
AcDbLine
 10
10.000000000
 20
-0.000000000
 30
0.000000000
 11
10.000000000
 21
-0.000000000
 31
6.400000000
  0
CIRCLE
  5
A0B
330
A02
100
AcDbEntity
  8
Part
100
AcDbCircle
 10
0.000000000
 20
0.000000000
 30
0.000000000
 40
10.000000000
  0
LINE
  5
A0C
330
A02
100
AcDbEntity
  8
Part
100
AcDbLine
 10
10.000000000
 20
-0.000000000
 30
0.000000000
 11
10.000000000
 21
-0.000000000
 31
6.400000000
  0
SPLINE
  5
A0D
330
A02
100
AcDbEntity
  8
Part
100
AcDbSpline
210
0
220
0
230
1
 70
8
 71
3
 72
17
 73
13
 74
0
 40
0.000000000
 40
0.000000000
 40
0.000000000
 40
0.000000000
 40
0.247824503
 40
0.247824503
 40
0.247824503
 40
0.500043289
 40
0.500043289
 40
0.500043289
 40
0.752262080
 40
0.752262080
 40
0.752262080
 40
1.000000000
 40
1.000000000
 40
1.000000000
 40
1.000000000
 10
10.000000000
 20
0.000000000
 30
6.400000000
 10
10.000751334
 20
0.494195614
 30
6.397214664
 10
9.960173384
 20
0.936763360
 30
6.636447459
 10
9.927717435
 20
1.200177711
 30
6.941901015
 10
9.894257468
 20
1.471517015
 30
7.251291738
 10
9.870613540
 20
1.599536720
 30
7.627979095
 10
9.871170143
 20
1.600000000
 30
8.000000000
 10
9.870613540
 20
1.599536720
 30
8.372020905
 10
9.894257468
 20
1.471517015
 30
8.748708262
 10
9.927717435
 20
1.200177711
 30
9.058098985
 10
9.960167550
 20
0.936875153
 30
9.363508478
 10
10.000760315
 20
0.493996855
 30
9.602848063
 10
10.000000000
 20
0.000000000
 30
9.600000000
  0
LINE
  5
A0E
330
A02
100
AcDbEntity
  8
Part
100
AcDbLine
 10
10.000000000
 20
-0.000000000
 30
9.600000000
 11
10.000000000
 21
-0.000000000
 31
16.000000000
  0
CIRCLE
  5
A0F
330
A02
100
AcDbEntity
  8
Part
100
AcDbCircle
 10
0.000000000
 20
0.000000000
 30
16.000000000
 40
10.000000000
  0
SPLINE
  5
A10
330
A02
100
AcDbEntity
  8
Part
100
AcDbSpline
210
0
220
0
230
1
 70
8
 71
3
 72
17
 73
13
 74
0
 40
0.000000000
 40
0.000000000
 40
0.000000000
 40
0.000000000
 40
0.247824512
 40
0.247824512
 40
0.247824512
 40
0.500043303
 40
0.500043303
 40
0.500043303
 40
0.752262089
 40
0.752262089
 40
0.752262089
 40
1.000000000
 40
1.000000000
 40
1.000000000
 40
1.000000000
 10
-10.000000000
 20
0.000000000
 30
6.400000000
 10
-10.000751334
 20
0.494195614
 30
6.397214664
 10
-9.960173384
 20
0.936763360
 30
6.636447459
 10
-9.927717435
 20
1.200177711
 30
6.941901015
 10
-9.894257468
 20
1.471517015
 30
7.251291738
 10
-9.870613540
 20
1.599536720
 30
7.627979095
 10
-9.871170143
 20
1.600000000
 30
8.000000000
 10
-9.870613540
 20
1.599536720
 30
8.372020905
 10
-9.894257468
 20
1.471517015
 30
8.748708262
 10
-9.927717435
 20
1.200177711
 30
9.058098985
 10
-9.960167550
 20
0.936875153
 30
9.363508478
 10
-10.000760315
 20
0.493996855
 30
9.602848063
 10
-10.000000000
 20
0.000000000
 30
9.600000000
  0
SPLINE
  5
A11
330
A02
100
AcDbEntity
  8
Part
100
AcDbSpline
210
0
220
0
230
1
 70
8
 71
3
 72
17
 73
13
 74
0
 40
0.000000000
 40
0.000000000
 40
0.000000000
 40
0.000000000
 40
0.247830665
 40
0.247830665
 40
0.247830665
 40
0.500040727
 40
0.500040727
 40
0.500040727
 40
0.752262923
 40
0.752262923
 40
0.752262923
 40
1.000000000
 40
1.000000000
 40
1.000000000
 40
1.000000000
 10
-10.000000000
 20
0.000000000
 30
9.600000000
 10
-10.000751334
 20
-0.494195614
 30
9.602785336
 10
-9.960173384
 20
-0.936763360
 30
9.363552541
 10
-9.927717435
 20
-1.200177711
 30
9.058098985
 10
-9.894258958
 20
-1.471506331
 30
8.748730277
 10
-9.870612682
 20
-1.599542849
 30
8.372005003
 10
-9.871170143
 20
-1.600000000
 30
8.000000000
 10
-9.870613540
 20
-1.599536720
 30
7.627979095
 10
-9.894257468
 20
-1.471517015
 30
7.251291738
 10
-9.927717435
 20
-1.200177711
 30
6.941901015
 10
-9.960166513
 20
-0.936887259
 30
6.636499498
 10
-10.000760617
 20
-0.493993547
 30
6.397149389
 10
-10.000000000
 20
0.000000000
 30
6.400000000
  0
SPLINE
  5
A12
330
A02
100
AcDbEntity
  8
Part
100
AcDbSpline
210
0
220
0
230
1
 70
8
 71
3
 72
17
 73
13
 74
0
 40
0.000000000
 40
0.000000000
 40
0.000000000
 40
0.000000000
 40
0.247830665
 40
0.247830665
 40
0.247830665
 40
0.500040727
 40
0.500040727
 40
0.500040727
 40
0.752262923
 40
0.752262923
 40
0.752262923
 40
1.000000000
 40
1.000000000
 40
1.000000000
 40
1.000000000
 10
10.000000000
 20
-0.000000000
 30
9.600000000
 10
10.000751334
 20
-0.494195614
 30
9.602785336
 10
9.960173384
 20
-0.936763360
 30
9.363552541
 10
9.927717435
 20
-1.200177711
 30
9.058098985
 10
9.894258958
 20
-1.471506331
 30
8.748730277
 10
9.870612682
 20
-1.599542849
 30
8.372005003
 10
9.871170143
 20
-1.600000000
 30
8.000000000
 10
9.870613540
 20
-1.599536720
 30
7.627979095
 10
9.894257468
 20
-1.471517015
 30
7.251291738
 10
9.927717435
 20
-1.200177711
 30
6.941901015
 10
9.960166513
 20
-0.936887259
 30
6.636499498
 10
10.000760617
 20
-0.493993547
 30
6.397149389
 10
10.000000000
 20
-0.000000000
 30
6.400000000
  0
SPLINE
  5
A13
330
A02
100
AcDbEntity
  8
Part
100
AcDbSpline
210
0
220
0
230
1
 70
8
 71
3
 72
17
 73
13
 74
0
 40
0.000000000
 40
0.000000000
 40
0.000000000
 40
0.000000000
 40
0.247824503
 40
0.247824503
 40
0.247824503
 40
0.500043289
 40
0.500043289
 40
0.500043289
 40
0.752262080
 40
0.752262080
 40
0.752262080
 40
1.000000000
 40
1.000000000
 40
1.000000000
 40
1.000000000
 10
10.000000000
 20
0.000000000
 30
6.400000000
 10
10.000751334
 20
0.494195614
 30
6.397214664
 10
9.960173384
 20
0.936763360
 30
6.636447459
 10
9.927717435
 20
1.200177711
 30
6.941901015
 10
9.894257468
 20
1.471517015
 30
7.251291738
 10
9.870613540
 20
1.599536720
 30
7.627979095
 10
9.871170143
 20
1.600000000
 30
8.000000000
 10
9.870613540
 20
1.599536720
 30
8.372020905
 10
9.894257468
 20
1.471517015
 30
8.748708262
 10
9.927717435
 20
1.200177711
 30
9.058098985
 10
9.960167550
 20
0.936875153
 30
9.363508478
 10
10.000760315
 20
0.493996855
 30
9.602848063
 10
10.000000000
 20
0.000000000
 30
9.600000000
  0
LINE
  5
A14
330
A02
100
AcDbEntity
  8
Part
100
AcDbLine
 10
6.100000000
 20
0.000000000
 30
9.600000000
 11
10.000000000
 21
0.000000000
 31
9.600000000
  0
SPLINE
  5
A15
330
A02
100
AcDbEntity
  8
Part
100
AcDbSpline
210
0
220
0
230
1
 70
8
 71
3
 72
17
 73
13
 74
0
 40
0.000000000
 40
0.000000000
 40
0.000000000
 40
0.000000000
 40
0.238263369
 40
0.238263369
 40
0.238263369
 40
0.500040052
 40
0.500040052
 40
0.500040052
 40
0.761816735
 40
0.761816735
 40
0.761816735
 40
1.000000000
 40
1.000000000
 40
1.000000000
 40
1.000000000
 10
6.100000000
 20
0.000000000
 30
6.400000000
 10
6.101150733
 20
0.474338648
 30
6.397531718
 10
6.039940487
 20
0.902042951
 30
6.617716356
 10
5.987455898
 20
1.166349804
 30
6.904724631
 10
5.929079459
 20
1.459615940
 30
7.218694389
 10
5.885308028
 20
1.599550010
 30
7.611456224
 10
5.886425061
 20
1.600000000
 30
8.000000000
 10
5.885308028
 20
1.599550010
 30
8.388543776
 10
5.929079459
 20
1.459615940
 30
8.781305611
 10
5.987455898
 20
1.166349804
 30
9.095275369
 10
6.039931876
 20
0.902147112
 30
9.382244794
 10
6.101164166
 20
0.474151219
 30
9.602524782
 10
6.100000000
 20
0.000000000
 30
9.600000000
  0
SPLINE
  5
A16
330
A02
100
AcDbEntity
  8
Part
100
AcDbSpline
210
0
220
0
230
1
 70
8
 71
3
 72
17
 73
13
 74
0
 40
0.000000000
 40
0.000000000
 40
0.000000000
 40
0.000000000
 40
0.238261301
 40
0.238261301
 40
0.238261301
 40
0.500031102
 40
0.500031102
 40
0.500031102
 40
0.761817447
 40
0.761817447
 40
0.761817447
 40
1.000000000
 40
1.000000000
 40
1.000000000
 40
1.000000000
 10
6.100000000
 20
-0.000000000
 30
9.600000000
 10
6.101150733
 20
-0.474338648
 30
9.602468282
 10
6.039940487
 20
-0.902042951
 30
9.382283644
 10
5.987455898
 20
-1.166349804
 30
9.095275369
 10
5.929080220
 20
-1.459612745
 30
8.781316779
 10
5.885306857
 20
-1.599554658
 30
8.388524099
 10
5.886425061
 20
-1.600000000
 30
8.000000000
 10
5.885308028
 20
-1.599550010
 30
7.611456224
 10
5.929079459
 20
-1.459615940
 30
7.218694389
 10
5.987455898
 20
-1.166349804
 30
6.904724631
 10
6.039929536
 20
-0.902166712
 30
6.617765895
 10
6.101165532
 20
-0.474136054
 30
6.397469069
 10
6.100000000
 20
-0.000000000
 30
6.400000000
  0
LINE
  5
A17
330
A02
100
AcDbEntity
  8
Part
100
AcDbLine
 10
6.100000000
 20
0.000000000
 30
9.600000000
 11
10.000000000
 21
0.000000000
 31
9.600000000
  0
CIRCLE
  5
A18
330
A02
100
AcDbEntity
  8
Part
100
AcDbCircle
 10
0.000000000
 20
0.000000000
 30
0.000000000
 40
10.000000000
  0
CIRCLE
  5
A19
330
A02
100
AcDbEntity
  8
Part
100
AcDbCircle
 10
0.000000000
 20
0.000000000
 30
0.000000000
 40
6.100000000
  0
CIRCLE
  5
A1A
330
A02
100
AcDbEntity
  8
Part
100
AcDbCircle
 10
0.000000000
 20
0.000000000
 30
16.000000000
 40
10.000000000
  0
ARC
  5
A1B
330
A02
100
AcDbEntity
  8
Part
100
AcDbCircle
 10
0.000000000
 20
0.000000000
 30
16.000000000
 40
6.100000000
100
AcDbArc
 50
0.000000000
 51
65.805462886
  0
LINE
  5
A1C
330
A02
100
AcDbEntity
  8
Part
100
AcDbLine
 10
2.500000000
 20
5.564171097
 30
16.000000000
 11
2.500000000
 21
6.500000000
 31
16.000000000
  0
LINE
  5
A1D
330
A02
100
AcDbEntity
  8
Part
100
AcDbLine
 10
2.500000000
 20
6.500000000
 30
16.000000000
 11
-2.500000000
 21
6.500000000
 31
16.000000000
  0
LINE
  5
A1E
330
A02
100
AcDbEntity
  8
Part
100
AcDbLine
 10
-2.500000000
 20
5.564171097
 30
16.000000000
 11
-2.500000000
 21
6.500000000
 31
16.000000000
  0
ARC
  5
A1F
330
A02
100
AcDbEntity
  8
Part
100
AcDbCircle
 10
0.000000000
 20
0.000000000
 30
16.000000000
 40
6.100000000
100
AcDbArc
 50
114.194537114
 51
-0.000000000
  0
SPLINE
  5
A20
330
A02
100
AcDbEntity
  8
Part
100
AcDbSpline
210
0
220
0
230
1
 70
9
 71
3
 72
29
 73
25
 74
0
 40
0.000000000
 40
0.000000000
 40
0.000000000
 40
0.000000000
 40
0.119123632
 40
0.119123632
 40
0.119123632
 40
0.250000826
 40
0.250000826
 40
0.250000826
 40
0.380886295
 40
0.380886295
 40
0.380886295
 40
0.499970563
 40
0.499970563
 40
0.499970563
 40
0.619109261
 40
0.619109261
 40
0.619109261
 40
0.750005309
 40
0.750005309
 40
0.750005309
 40
0.880901356
 40
0.880901356
 40
0.880901356
 40
1.000000000
 40
1.000000000
 40
1.000000000
 40
1.000000000
 10
-6.100000000
 20
0.000000000
 30
9.600000000
 10
-6.101150733
 20
-0.474338648
 30
9.602468282
 10
-6.039940487
 20
-0.902042951
 30
9.382283644
 10
-5.987455898
 20
-1.166349804
 30
9.095275369
 10
-5.929080220
 20
-1.459612745
 30
8.781316779
 10
-5.885306857
 20
-1.599554658
 30
8.388524099
 10
-5.886425061
 20
-1.600000000
 30
8.000000000
 10
-5.885308028
 20
-1.599550010
 30
7.611456224
 10
-5.929079459
 20
-1.459615940
 30
7.218694389
 10
-5.987455898
 20
-1.166349804
 30
6.904724631
 10
-6.039929536
 20
-0.902166712
 30
6.617765895
 10
-6.101165532
 20
-0.474136054
 30
6.397469069
 10
-6.100000000
 20
0.000000000
 30
6.400000000
 10
-6.101150733
 20
0.474338648
 30
6.397531718
 10
-6.039940487
 20
0.902042951
 30
6.617716356
 10
-5.987455898
 20
1.166349804
 30
6.904724631
 10
-5.929079459
 20
1.459615940
 30
7.218694389
 10
-5.885308028
 20
1.599550010
 30
7.611456224
 10
-5.886425061
 20
1.600000000
 30
8.000000000
 10
-5.885308028
 20
1.599550010
 30
8.388543776
 10
-5.929079459
 20
1.459615940
 30
8.781305611
 10
-5.987455898
 20
1.166349804
 30
9.095275369
 10
-6.039931876
 20
0.902147112
 30
9.382244794
 10
-6.101164166
 20
0.474151219
 30
9.602524782
 10
-6.100000000
 20
0.000000000
 30
9.600000000
  0
LINE
  5
A21
330
A02
100
AcDbEntity
  8
Part
100
AcDbLine
 10
-10.000000000
 20
0.000000000
 30
9.600000000
 11
-6.100000000
 21
0.000000000
 31
9.600000000
  0
SPLINE
  5
A22
330
A02
100
AcDbEntity
  8
Part
100
AcDbSpline
210
0
220
0
230
1
 70
8
 71
3
 72
17
 73
13
 74
0
 40
0.000000000
 40
0.000000000
 40
0.000000000
 40
0.000000000
 40
0.247824512
 40
0.247824512
 40
0.247824512
 40
0.500043303
 40
0.500043303
 40
0.500043303
 40
0.752262089
 40
0.752262089
 40
0.752262089
 40
1.000000000
 40
1.000000000
 40
1.000000000
 40
1.000000000
 10
-10.000000000
 20
0.000000000
 30
6.400000000
 10
-10.000751334
 20
0.494195614
 30
6.397214664
 10
-9.960173384
 20
0.936763360
 30
6.636447459
 10
-9.927717435
 20
1.200177711
 30
6.941901015
 10
-9.894257468
 20
1.471517015
 30
7.251291738
 10
-9.870613540
 20
1.599536720
 30
7.627979095
 10
-9.871170143
 20
1.600000000
 30
8.000000000
 10
-9.870613540
 20
1.599536720
 30
8.372020905
 10
-9.894257468
 20
1.471517015
 30
8.748708262
 10
-9.927717435
 20
1.200177711
 30
9.058098985
 10
-9.960167550
 20
0.936875153
 30
9.363508478
 10
-10.000760315
 20
0.493996855
 30
9.602848063
 10
-10.000000000
 20
0.000000000
 30
9.600000000
  0
SPLINE
  5
A23
330
A02
100
AcDbEntity
  8
Part
100
AcDbSpline
210
0
220
0
230
1
 70
8
 71
3
 72
17
 73
13
 74
0
 40
0.000000000
 40
0.000000000
 40
0.000000000
 40
0.000000000
 40
0.247830665
 40
0.247830665
 40
0.247830665
 40
0.500040727
 40
0.500040727
 40
0.500040727
 40
0.752262923
 40
0.752262923
 40
0.752262923
 40
1.000000000
 40
1.000000000
 40
1.000000000
 40
1.000000000
 10
-10.000000000
 20
0.000000000
 30
9.600000000
 10
-10.000751334
 20
-0.494195614
 30
9.602785336
 10
-9.960173384
 20
-0.936763360
 30
9.363552541
 10
-9.927717435
 20
-1.200177711
 30
9.058098985
 10
-9.894258958
 20
-1.471506331
 30
8.748730277
 10
-9.870612682
 20
-1.599542849
 30
8.372005003
 10
-9.871170143
 20
-1.600000000
 30
8.000000000
 10
-9.870613540
 20
-1.599536720
 30
7.627979095
 10
-9.894257468
 20
-1.471517015
 30
7.251291738
 10
-9.927717435
 20
-1.200177711
 30
6.941901015
 10
-9.960166513
 20
-0.936887259
 30
6.636499498
 10
-10.000760617
 20
-0.493993547
 30
6.397149389
 10
-10.000000000
 20
0.000000000
 30
6.400000000
  0
LINE
  5
A24
330
A02
100
AcDbEntity
  8
Part
100
AcDbLine
 10
-10.000000000
 20
0.000000000
 30
9.600000000
 11
-6.100000000
 21
0.000000000
 31
9.600000000
  0
SPLINE
  5
A25
330
A02
100
AcDbEntity
  8
Part
100
AcDbSpline
210
0
220
0
230
1
 70
8
 71
3
 72
17
 73
13
 74
0
 40
0.000000000
 40
0.000000000
 40
0.000000000
 40
0.000000000
 40
0.238261301
 40
0.238261301
 40
0.238261301
 40
0.500031102
 40
0.500031102
 40
0.500031102
 40
0.761817447
 40
0.761817447
 40
0.761817447
 40
1.000000000
 40
1.000000000
 40
1.000000000
 40
1.000000000
 10
6.100000000
 20
-0.000000000
 30
9.600000000
 10
6.101150733
 20
-0.474338648
 30
9.602468282
 10
6.039940487
 20
-0.902042951
 30
9.382283644
 10
5.987455898
 20
-1.166349804
 30
9.095275369
 10
5.929080220
 20
-1.459612745
 30
8.781316779
 10
5.885306857
 20
-1.599554658
 30
8.388524099
 10
5.886425061
 20
-1.600000000
 30
8.000000000
 10
5.885308028
 20
-1.599550010
 30
7.611456224
 10
5.929079459
 20
-1.459615940
 30
7.218694389
 10
5.987455898
 20
-1.166349804
 30
6.904724631
 10
6.039929536
 20
-0.902166712
 30
6.617765895
 10
6.101165532
 20
-0.474136054
 30
6.397469069
 10
6.100000000
 20
-0.000000000
 30
6.400000000
  0
LINE
  5
A26
330
A02
100
AcDbEntity
  8
Part
100
AcDbLine
 10
6.100000000
 20
-0.000000000
 30
0.000000000
 11
6.100000000
 21
-0.000000000
 31
6.400000000
  0
CIRCLE
  5
A27
330
A02
100
AcDbEntity
  8
Part
100
AcDbCircle
 10
0.000000000
 20
0.000000000
 30
0.000000000
 40
6.100000000
  0
LINE
  5
A28
330
A02
100
AcDbEntity
  8
Part
100
AcDbLine
 10
6.100000000
 20
-0.000000000
 30
0.000000000
 11
6.100000000
 21
-0.000000000
 31
6.400000000
  0
SPLINE
  5
A29
330
A02
100
AcDbEntity
  8
Part
100
AcDbSpline
210
0
220
0
230
1
 70
8
 71
3
 72
17
 73
13
 74
0
 40
0.000000000
 40
0.000000000
 40
0.000000000
 40
0.000000000
 40
0.238263369
 40
0.238263369
 40
0.238263369
 40
0.500040052
 40
0.500040052
 40
0.500040052
 40
0.761816735
 40
0.761816735
 40
0.761816735
 40
1.000000000
 40
1.000000000
 40
1.000000000
 40
1.000000000
 10
6.100000000
 20
0.000000000
 30
6.400000000
 10
6.101150733
 20
0.474338648
 30
6.397531718
 10
6.039940487
 20
0.902042951
 30
6.617716356
 10
5.987455898
 20
1.166349804
 30
6.904724631
 10
5.929079459
 20
1.459615940
 30
7.218694389
 10
5.885308028
 20
1.599550010
 30
7.611456224
 10
5.886425061
 20
1.600000000
 30
8.000000000
 10
5.885308028
 20
1.599550010
 30
8.388543776
 10
5.929079459
 20
1.459615940
 30
8.781305611
 10
5.987455898
 20
1.166349804
 30
9.095275369
 10
6.039931876
 20
0.902147112
 30
9.382244794
 10
6.101164166
 20
0.474151219
 30
9.602524782
 10
6.100000000
 20
0.000000000
 30
9.600000000
  0
LINE
  5
A2A
330
A02
100
AcDbEntity
  8
Part
100
AcDbLine
 10
6.100000000
 20
-0.000000000
 30
9.600000000
 11
6.100000000
 21
-0.000000000
 31
16.000000000
  0
ARC
  5
A2B
330
A02
100
AcDbEntity
  8
Part
100
AcDbCircle
 10
0.000000000
 20
0.000000000
 30
16.000000000
 40
6.100000000
100
AcDbArc
 50
0.000000000
 51
65.805462886
  0
LINE
  5
A2C
330
A02
100
AcDbEntity
  8
Part
100
AcDbLine
 10
2.500000000
 20
5.564171097
 30
6.000000000
 11
2.500000000
 21
5.564171097
 31
16.000000000
  0
ARC
  5
A2D
330
A02
100
AcDbEntity
  8
Part
100
AcDbCircle
 10
0.000000000
 20
0.000000000
 30
6.000000000
 40
6.100000000
100
AcDbArc
 50
65.805462886
 51
114.194537114
  0
LINE
  5
A2E
330
A02
100
AcDbEntity
  8
Part
100
AcDbLine
 10
-2.500000000
 20
5.564171097
 30
6.000000000
 11
-2.500000000
 21
5.564171097
 31
16.000000000
  0
ARC
  5
A2F
330
A02
100
AcDbEntity
  8
Part
100
AcDbCircle
 10
0.000000000
 20
0.000000000
 30
16.000000000
 40
6.100000000
100
AcDbArc
 50
114.194537114
 51
-0.000000000
  0
LINE
  5
A30
330
A02
100
AcDbEntity
  8
Part
100
AcDbLine
 10
6.100000000
 20
-0.000000000
 30
9.600000000
 11
6.100000000
 21
-0.000000000
 31
16.000000000
  0
SPLINE
  5
A31
330
A02
100
AcDbEntity
  8
Part
100
AcDbSpline
210
0
220
0
230
1
 70
9
 71
3
 72
29
 73
25
 74
0
 40
0.000000000
 40
0.000000000
 40
0.000000000
 40
0.000000000
 40
0.119123632
 40
0.119123632
 40
0.119123632
 40
0.250000826
 40
0.250000826
 40
0.250000826
 40
0.380886295
 40
0.380886295
 40
0.380886295
 40
0.499970563
 40
0.499970563
 40
0.499970563
 40
0.619109261
 40
0.619109261
 40
0.619109261
 40
0.750005309
 40
0.750005309
 40
0.750005309
 40
0.880901356
 40
0.880901356
 40
0.880901356
 40
1.000000000
 40
1.000000000
 40
1.000000000
 40
1.000000000
 10
-6.100000000
 20
0.000000000
 30
9.600000000
 10
-6.101150733
 20
-0.474338648
 30
9.602468282
 10
-6.039940487
 20
-0.902042951
 30
9.382283644
 10
-5.987455898
 20
-1.166349804
 30
9.095275369
 10
-5.929080220
 20
-1.459612745
 30
8.781316779
 10
-5.885306857
 20
-1.599554658
 30
8.388524099
 10
-5.886425061
 20
-1.600000000
 30
8.000000000
 10
-5.885308028
 20
-1.599550010
 30
7.611456224
 10
-5.929079459
 20
-1.459615940
 30
7.218694389
 10
-5.987455898
 20
-1.166349804
 30
6.904724631
 10
-6.039929536
 20
-0.902166712
 30
6.617765895
 10
-6.101165532
 20
-0.474136054
 30
6.397469069
 10
-6.100000000
 20
0.000000000
 30
6.400000000
 10
-6.101150733
 20
0.474338648
 30
6.397531718
 10
-6.039940487
 20
0.902042951
 30
6.617716356
 10
-5.987455898
 20
1.166349804
 30
6.904724631
 10
-5.929079459
 20
1.459615940
 30
7.218694389
 10
-5.885308028
 20
1.599550010
 30
7.611456224
 10
-5.886425061
 20
1.600000000
 30
8.000000000
 10
-5.885308028
 20
1.599550010
 30
8.388543776
 10
-5.929079459
 20
1.459615940
 30
8.781305611
 10
-5.987455898
 20
1.166349804
 30
9.095275369
 10
-6.039931876
 20
0.902147112
 30
9.382244794
 10
-6.101164166
 20
0.474151219
 30
9.602524782
 10
-6.100000000
 20
0.000000000
 30
9.600000000
  0
LINE
  5
A32
330
A02
100
AcDbEntity
  8
Part
100
AcDbLine
 10
2.500000000
 20
5.564171097
 30
6.000000000
 11
2.500000000
 21
5.564171097
 31
16.000000000
  0
LINE
  5
A33
330
A02
100
AcDbEntity
  8
Part
100
AcDbLine
 10
2.500000000
 20
5.564171097
 30
16.000000000
 11
2.500000000
 21
6.500000000
 31
16.000000000
  0
LINE
  5
A34
330
A02
100
AcDbEntity
  8
Part
100
AcDbLine
 10
2.500000000
 20
6.500000000
 30
6.000000000
 11
2.500000000
 21
6.500000000
 31
16.000000000
  0
LINE
  5
A35
330
A02
100
AcDbEntity
  8
Part
100
AcDbLine
 10
2.500000000
 20
5.564171097
 30
6.000000000
 11
2.500000000
 21
6.500000000
 31
6.000000000
  0
LINE
  5
A36
330
A02
100
AcDbEntity
  8
Part
100
AcDbLine
 10
2.500000000
 20
6.500000000
 30
6.000000000
 11
2.500000000
 21
6.500000000
 31
16.000000000
  0
LINE
  5
A37
330
A02
100
AcDbEntity
  8
Part
100
AcDbLine
 10
2.500000000
 20
6.500000000
 30
16.000000000
 11
-2.500000000
 21
6.500000000
 31
16.000000000
  0
LINE
  5
A38
330
A02
100
AcDbEntity
  8
Part
100
AcDbLine
 10
-2.500000000
 20
6.500000000
 30
6.000000000
 11
-2.500000000
 21
6.500000000
 31
16.000000000
  0
LINE
  5
A39
330
A02
100
AcDbEntity
  8
Part
100
AcDbLine
 10
-2.500000000
 20
6.500000000
 30
6.000000000
 11
2.500000000
 21
6.500000000
 31
6.000000000
  0
LINE
  5
A3A
330
A02
100
AcDbEntity
  8
Part
100
AcDbLine
 10
-2.500000000
 20
5.564171097
 30
6.000000000
 11
-2.500000000
 21
5.564171097
 31
16.000000000
  0
LINE
  5
A3B
330
A02
100
AcDbEntity
  8
Part
100
AcDbLine
 10
-2.500000000
 20
5.564171097
 30
16.000000000
 11
-2.500000000
 21
6.500000000
 31
16.000000000
  0
LINE
  5
A3C
330
A02
100
AcDbEntity
  8
Part
100
AcDbLine
 10
-2.500000000
 20
6.500000000
 30
6.000000000
 11
-2.500000000
 21
6.500000000
 31
16.000000000
  0
LINE
  5
A3D
330
A02
100
AcDbEntity
  8
Part
100
AcDbLine
 10
-2.500000000
 20
5.564171097
 30
6.000000000
 11
-2.500000000
 21
6.500000000
 31
6.000000000
  0
LINE
  5
A3E
330
A02
100
AcDbEntity
  8
Part
100
AcDbLine
 10
-2.500000000
 20
5.564171097
 30
6.000000000
 11
-2.500000000
 21
6.500000000
 31
6.000000000
  0
LINE
  5
A3F
330
A02
100
AcDbEntity
  8
Part
100
AcDbLine
 10
-2.500000000
 20
6.500000000
 30
6.000000000
 11
2.500000000
 21
6.500000000
 31
6.000000000
  0
LINE
  5
A40
330
A02
100
AcDbEntity
  8
Part
100
AcDbLine
 10
2.500000000
 20
5.564171097
 30
6.000000000
 11
2.500000000
 21
6.500000000
 31
6.000000000
  0
ARC
  5
A41
330
A02
100
AcDbEntity
  8
Part
100
AcDbCircle
 10
0.000000000
 20
0.000000000
 30
6.000000000
 40
6.100000000
100
AcDbArc
 50
65.805462886
 51
114.194537114
  0
ENDSEC
  0
SECTION
  2
OBJECTS
  0
DICTIONARY
  5
F000
330
0
100
AcDbDictionary
  3
ACAD_GROUP
350
F001
  0
DICTIONARY
  5
F001
330
F000
100
AcDbDictionary
  0
ENDSEC
  0
EOF
