%TF.GenerationSoftware,KiCad,Pcbnew,9.0.9-9.0.9~ubuntu24.04.1*%
%TF.CreationDate,2026-08-28T08:50:18+09:00*%
%TF.ProjectId,ppr_interface,7070725f-696e-4746-9572-666163652e6b,A-DRAFT*%
%TF.SameCoordinates,Original*%
%TF.FileFunction,Legend,Top*%
%TF.FilePolarity,Positive*%
%FSLAX46Y46*%
G04 Gerber Fmt 4.6, Leading zero omitted, Abs format (unit mm)*
G04 Created by KiCad (PCBNEW 9.0.9-9.0.9~ubuntu24.04.1) date 2026-08-28 08:50:18*
%MOMM*%
%LPD*%
G01*
G04 APERTURE LIST*
%ADD10C,0.162500*%
%ADD11C,0.187500*%
%ADD12C,0.350000*%
%ADD13C,0.150000*%
%ADD14C,0.120000*%
G04 APERTURE END LIST*
D10*
X106190477Y-2792954D02*
X105571429Y-2792954D01*
X105571429Y-2792954D02*
X105509525Y-3412002D01*
X105509525Y-3412002D02*
X105571429Y-3350097D01*
X105571429Y-3350097D02*
X105695239Y-3288192D01*
X105695239Y-3288192D02*
X106004763Y-3288192D01*
X106004763Y-3288192D02*
X106128572Y-3350097D01*
X106128572Y-3350097D02*
X106190477Y-3412002D01*
X106190477Y-3412002D02*
X106252382Y-3535811D01*
X106252382Y-3535811D02*
X106252382Y-3845335D01*
X106252382Y-3845335D02*
X106190477Y-3969145D01*
X106190477Y-3969145D02*
X106128572Y-4031050D01*
X106128572Y-4031050D02*
X106004763Y-4092954D01*
X106004763Y-4092954D02*
X105695239Y-4092954D01*
X105695239Y-4092954D02*
X105571429Y-4031050D01*
X105571429Y-4031050D02*
X105509525Y-3969145D01*
X106623810Y-2792954D02*
X107057143Y-4092954D01*
X107057143Y-4092954D02*
X107490477Y-2792954D01*
X109533334Y-4092954D02*
X108914286Y-4092954D01*
X108914286Y-4092954D02*
X108914286Y-2792954D01*
X110214286Y-2792954D02*
X110461905Y-2792954D01*
X110461905Y-2792954D02*
X110585715Y-2854859D01*
X110585715Y-2854859D02*
X110709524Y-2978669D01*
X110709524Y-2978669D02*
X110771429Y-3226288D01*
X110771429Y-3226288D02*
X110771429Y-3659621D01*
X110771429Y-3659621D02*
X110709524Y-3907240D01*
X110709524Y-3907240D02*
X110585715Y-4031050D01*
X110585715Y-4031050D02*
X110461905Y-4092954D01*
X110461905Y-4092954D02*
X110214286Y-4092954D01*
X110214286Y-4092954D02*
X110090477Y-4031050D01*
X110090477Y-4031050D02*
X109966667Y-3907240D01*
X109966667Y-3907240D02*
X109904763Y-3659621D01*
X109904763Y-3659621D02*
X109904763Y-3226288D01*
X109904763Y-3226288D02*
X109966667Y-2978669D01*
X109966667Y-2978669D02*
X110090477Y-2854859D01*
X110090477Y-2854859D02*
X110214286Y-2792954D01*
X112009525Y-2854859D02*
X111885715Y-2792954D01*
X111885715Y-2792954D02*
X111700001Y-2792954D01*
X111700001Y-2792954D02*
X111514287Y-2854859D01*
X111514287Y-2854859D02*
X111390477Y-2978669D01*
X111390477Y-2978669D02*
X111328572Y-3102478D01*
X111328572Y-3102478D02*
X111266668Y-3350097D01*
X111266668Y-3350097D02*
X111266668Y-3535811D01*
X111266668Y-3535811D02*
X111328572Y-3783430D01*
X111328572Y-3783430D02*
X111390477Y-3907240D01*
X111390477Y-3907240D02*
X111514287Y-4031050D01*
X111514287Y-4031050D02*
X111700001Y-4092954D01*
X111700001Y-4092954D02*
X111823810Y-4092954D01*
X111823810Y-4092954D02*
X112009525Y-4031050D01*
X112009525Y-4031050D02*
X112071429Y-3969145D01*
X112071429Y-3969145D02*
X112071429Y-3535811D01*
X112071429Y-3535811D02*
X111823810Y-3535811D01*
X112628572Y-4092954D02*
X112628572Y-2792954D01*
X113990477Y-3969145D02*
X113928573Y-4031050D01*
X113928573Y-4031050D02*
X113742858Y-4092954D01*
X113742858Y-4092954D02*
X113619049Y-4092954D01*
X113619049Y-4092954D02*
X113433335Y-4031050D01*
X113433335Y-4031050D02*
X113309525Y-3907240D01*
X113309525Y-3907240D02*
X113247620Y-3783430D01*
X113247620Y-3783430D02*
X113185716Y-3535811D01*
X113185716Y-3535811D02*
X113185716Y-3350097D01*
X113185716Y-3350097D02*
X113247620Y-3102478D01*
X113247620Y-3102478D02*
X113309525Y-2978669D01*
X113309525Y-2978669D02*
X113433335Y-2854859D01*
X113433335Y-2854859D02*
X113619049Y-2792954D01*
X113619049Y-2792954D02*
X113742858Y-2792954D01*
X113742858Y-2792954D02*
X113928573Y-2854859D01*
X113928573Y-2854859D02*
X113990477Y-2916764D01*
X115414287Y-3659621D02*
X116528573Y-3659621D01*
X118014286Y-3412002D02*
X118447620Y-3412002D01*
X118633334Y-4092954D02*
X118014286Y-4092954D01*
X118014286Y-4092954D02*
X118014286Y-2792954D01*
X118014286Y-2792954D02*
X118633334Y-2792954D01*
X119066667Y-2792954D02*
X119933333Y-4092954D01*
X119933333Y-2792954D02*
X119066667Y-4092954D01*
X120242857Y-2792954D02*
X120985714Y-2792954D01*
X120614286Y-4092954D02*
X120614286Y-2792954D01*
X121419047Y-3412002D02*
X121852381Y-3412002D01*
X122038095Y-4092954D02*
X121419047Y-4092954D01*
X121419047Y-4092954D02*
X121419047Y-2792954D01*
X121419047Y-2792954D02*
X122038095Y-2792954D01*
X123338094Y-4092954D02*
X122904761Y-3473907D01*
X122595237Y-4092954D02*
X122595237Y-2792954D01*
X122595237Y-2792954D02*
X123090475Y-2792954D01*
X123090475Y-2792954D02*
X123214285Y-2854859D01*
X123214285Y-2854859D02*
X123276190Y-2916764D01*
X123276190Y-2916764D02*
X123338094Y-3040573D01*
X123338094Y-3040573D02*
X123338094Y-3226288D01*
X123338094Y-3226288D02*
X123276190Y-3350097D01*
X123276190Y-3350097D02*
X123214285Y-3412002D01*
X123214285Y-3412002D02*
X123090475Y-3473907D01*
X123090475Y-3473907D02*
X122595237Y-3473907D01*
X123895237Y-4092954D02*
X123895237Y-2792954D01*
X123895237Y-2792954D02*
X124638094Y-4092954D01*
X124638094Y-4092954D02*
X124638094Y-2792954D01*
X125195238Y-3721526D02*
X125814285Y-3721526D01*
X125071428Y-4092954D02*
X125504761Y-2792954D01*
X125504761Y-2792954D02*
X125938095Y-4092954D01*
X126990476Y-4092954D02*
X126371428Y-4092954D01*
X126371428Y-4092954D02*
X126371428Y-2792954D01*
X128414285Y-4092954D02*
X128414285Y-2792954D01*
X128414285Y-2792954D02*
X128723809Y-2792954D01*
X128723809Y-2792954D02*
X128909523Y-2854859D01*
X128909523Y-2854859D02*
X129033333Y-2978669D01*
X129033333Y-2978669D02*
X129095238Y-3102478D01*
X129095238Y-3102478D02*
X129157142Y-3350097D01*
X129157142Y-3350097D02*
X129157142Y-3535811D01*
X129157142Y-3535811D02*
X129095238Y-3783430D01*
X129095238Y-3783430D02*
X129033333Y-3907240D01*
X129033333Y-3907240D02*
X128909523Y-4031050D01*
X128909523Y-4031050D02*
X128723809Y-4092954D01*
X128723809Y-4092954D02*
X128414285Y-4092954D01*
X130457142Y-4092954D02*
X130023809Y-3473907D01*
X129714285Y-4092954D02*
X129714285Y-2792954D01*
X129714285Y-2792954D02*
X130209523Y-2792954D01*
X130209523Y-2792954D02*
X130333333Y-2854859D01*
X130333333Y-2854859D02*
X130395238Y-2916764D01*
X130395238Y-2916764D02*
X130457142Y-3040573D01*
X130457142Y-3040573D02*
X130457142Y-3226288D01*
X130457142Y-3226288D02*
X130395238Y-3350097D01*
X130395238Y-3350097D02*
X130333333Y-3412002D01*
X130333333Y-3412002D02*
X130209523Y-3473907D01*
X130209523Y-3473907D02*
X129714285Y-3473907D01*
X131014285Y-4092954D02*
X131014285Y-2792954D01*
X131447619Y-2792954D02*
X131880952Y-4092954D01*
X131880952Y-4092954D02*
X132314286Y-2792954D01*
X132747619Y-3412002D02*
X133180953Y-3412002D01*
X133366667Y-4092954D02*
X132747619Y-4092954D01*
X132747619Y-4092954D02*
X132747619Y-2792954D01*
X132747619Y-2792954D02*
X133366667Y-2792954D01*
X134666666Y-4092954D02*
X134233333Y-3473907D01*
X133923809Y-4092954D02*
X133923809Y-2792954D01*
X133923809Y-2792954D02*
X134419047Y-2792954D01*
X134419047Y-2792954D02*
X134542857Y-2854859D01*
X134542857Y-2854859D02*
X134604762Y-2916764D01*
X134604762Y-2916764D02*
X134666666Y-3040573D01*
X134666666Y-3040573D02*
X134666666Y-3226288D01*
X134666666Y-3226288D02*
X134604762Y-3350097D01*
X134604762Y-3350097D02*
X134542857Y-3412002D01*
X134542857Y-3412002D02*
X134419047Y-3473907D01*
X134419047Y-3473907D02*
X133923809Y-3473907D01*
X135161905Y-4031050D02*
X135347619Y-4092954D01*
X135347619Y-4092954D02*
X135657143Y-4092954D01*
X135657143Y-4092954D02*
X135780952Y-4031050D01*
X135780952Y-4031050D02*
X135842857Y-3969145D01*
X135842857Y-3969145D02*
X135904762Y-3845335D01*
X135904762Y-3845335D02*
X135904762Y-3721526D01*
X135904762Y-3721526D02*
X135842857Y-3597716D01*
X135842857Y-3597716D02*
X135780952Y-3535811D01*
X135780952Y-3535811D02*
X135657143Y-3473907D01*
X135657143Y-3473907D02*
X135409524Y-3412002D01*
X135409524Y-3412002D02*
X135285714Y-3350097D01*
X135285714Y-3350097D02*
X135223809Y-3288192D01*
X135223809Y-3288192D02*
X135161905Y-3164383D01*
X135161905Y-3164383D02*
X135161905Y-3040573D01*
X135161905Y-3040573D02*
X135223809Y-2916764D01*
X135223809Y-2916764D02*
X135285714Y-2854859D01*
X135285714Y-2854859D02*
X135409524Y-2792954D01*
X135409524Y-2792954D02*
X135719047Y-2792954D01*
X135719047Y-2792954D02*
X135904762Y-2854859D01*
X138195237Y-4092954D02*
X137761904Y-3473907D01*
X137452380Y-4092954D02*
X137452380Y-2792954D01*
X137452380Y-2792954D02*
X137947618Y-2792954D01*
X137947618Y-2792954D02*
X138071428Y-2854859D01*
X138071428Y-2854859D02*
X138133333Y-2916764D01*
X138133333Y-2916764D02*
X138195237Y-3040573D01*
X138195237Y-3040573D02*
X138195237Y-3226288D01*
X138195237Y-3226288D02*
X138133333Y-3350097D01*
X138133333Y-3350097D02*
X138071428Y-3412002D01*
X138071428Y-3412002D02*
X137947618Y-3473907D01*
X137947618Y-3473907D02*
X137452380Y-3473907D01*
X138752380Y-3412002D02*
X139185714Y-3412002D01*
X139371428Y-4092954D02*
X138752380Y-4092954D01*
X138752380Y-4092954D02*
X138752380Y-2792954D01*
X138752380Y-2792954D02*
X139371428Y-2792954D01*
X140795237Y-4216764D02*
X140671427Y-4154859D01*
X140671427Y-4154859D02*
X140547618Y-4031050D01*
X140547618Y-4031050D02*
X140361904Y-3845335D01*
X140361904Y-3845335D02*
X140238094Y-3783430D01*
X140238094Y-3783430D02*
X140114285Y-3783430D01*
X140176189Y-4092954D02*
X140052380Y-4031050D01*
X140052380Y-4031050D02*
X139928570Y-3907240D01*
X139928570Y-3907240D02*
X139866666Y-3659621D01*
X139866666Y-3659621D02*
X139866666Y-3226288D01*
X139866666Y-3226288D02*
X139928570Y-2978669D01*
X139928570Y-2978669D02*
X140052380Y-2854859D01*
X140052380Y-2854859D02*
X140176189Y-2792954D01*
X140176189Y-2792954D02*
X140423808Y-2792954D01*
X140423808Y-2792954D02*
X140547618Y-2854859D01*
X140547618Y-2854859D02*
X140671427Y-2978669D01*
X140671427Y-2978669D02*
X140733332Y-3226288D01*
X140733332Y-3226288D02*
X140733332Y-3659621D01*
X140733332Y-3659621D02*
X140671427Y-3907240D01*
X140671427Y-3907240D02*
X140547618Y-4031050D01*
X140547618Y-4031050D02*
X140423808Y-4092954D01*
X140423808Y-4092954D02*
X140176189Y-4092954D01*
X141290475Y-2792954D02*
X141290475Y-3845335D01*
X141290475Y-3845335D02*
X141352380Y-3969145D01*
X141352380Y-3969145D02*
X141414285Y-4031050D01*
X141414285Y-4031050D02*
X141538094Y-4092954D01*
X141538094Y-4092954D02*
X141785713Y-4092954D01*
X141785713Y-4092954D02*
X141909523Y-4031050D01*
X141909523Y-4031050D02*
X141971428Y-3969145D01*
X141971428Y-3969145D02*
X142033332Y-3845335D01*
X142033332Y-3845335D02*
X142033332Y-2792954D01*
X142652380Y-4092954D02*
X142652380Y-2792954D01*
X144014285Y-4092954D02*
X143580952Y-3473907D01*
X143271428Y-4092954D02*
X143271428Y-2792954D01*
X143271428Y-2792954D02*
X143766666Y-2792954D01*
X143766666Y-2792954D02*
X143890476Y-2854859D01*
X143890476Y-2854859D02*
X143952381Y-2916764D01*
X143952381Y-2916764D02*
X144014285Y-3040573D01*
X144014285Y-3040573D02*
X144014285Y-3226288D01*
X144014285Y-3226288D02*
X143952381Y-3350097D01*
X143952381Y-3350097D02*
X143890476Y-3412002D01*
X143890476Y-3412002D02*
X143766666Y-3473907D01*
X143766666Y-3473907D02*
X143271428Y-3473907D01*
X144571428Y-3412002D02*
X145004762Y-3412002D01*
X145190476Y-4092954D02*
X144571428Y-4092954D01*
X144571428Y-4092954D02*
X144571428Y-2792954D01*
X144571428Y-2792954D02*
X145190476Y-2792954D01*
X145747618Y-4092954D02*
X145747618Y-2792954D01*
X145747618Y-2792954D02*
X146057142Y-2792954D01*
X146057142Y-2792954D02*
X146242856Y-2854859D01*
X146242856Y-2854859D02*
X146366666Y-2978669D01*
X146366666Y-2978669D02*
X146428571Y-3102478D01*
X146428571Y-3102478D02*
X146490475Y-3350097D01*
X146490475Y-3350097D02*
X146490475Y-3535811D01*
X146490475Y-3535811D02*
X146428571Y-3783430D01*
X146428571Y-3783430D02*
X146366666Y-3907240D01*
X146366666Y-3907240D02*
X146242856Y-4031050D01*
X146242856Y-4031050D02*
X146057142Y-4092954D01*
X146057142Y-4092954D02*
X145747618Y-4092954D01*
D11*
X20178571Y-3398464D02*
X19678571Y-3398464D01*
X19678571Y-4184178D02*
X19678571Y-2684178D01*
X19678571Y-2684178D02*
X20392857Y-2684178D01*
X20964285Y-4184178D02*
X20964285Y-2684178D01*
X21678571Y-3398464D02*
X22178571Y-3398464D01*
X22392857Y-4184178D02*
X21678571Y-4184178D01*
X21678571Y-4184178D02*
X21678571Y-2684178D01*
X21678571Y-2684178D02*
X22392857Y-2684178D01*
X23750000Y-4184178D02*
X23035714Y-4184178D01*
X23035714Y-4184178D02*
X23035714Y-2684178D01*
X24250000Y-4184178D02*
X24250000Y-2684178D01*
X24250000Y-2684178D02*
X24607143Y-2684178D01*
X24607143Y-2684178D02*
X24821429Y-2755607D01*
X24821429Y-2755607D02*
X24964286Y-2898464D01*
X24964286Y-2898464D02*
X25035715Y-3041321D01*
X25035715Y-3041321D02*
X25107143Y-3327035D01*
X25107143Y-3327035D02*
X25107143Y-3541321D01*
X25107143Y-3541321D02*
X25035715Y-3827035D01*
X25035715Y-3827035D02*
X24964286Y-3969892D01*
X24964286Y-3969892D02*
X24821429Y-4112750D01*
X24821429Y-4112750D02*
X24607143Y-4184178D01*
X24607143Y-4184178D02*
X24250000Y-4184178D01*
X26821429Y-2827035D02*
X26892857Y-2755607D01*
X26892857Y-2755607D02*
X27035715Y-2684178D01*
X27035715Y-2684178D02*
X27392857Y-2684178D01*
X27392857Y-2684178D02*
X27535715Y-2755607D01*
X27535715Y-2755607D02*
X27607143Y-2827035D01*
X27607143Y-2827035D02*
X27678572Y-2969892D01*
X27678572Y-2969892D02*
X27678572Y-3112750D01*
X27678572Y-3112750D02*
X27607143Y-3327035D01*
X27607143Y-3327035D02*
X26750000Y-4184178D01*
X26750000Y-4184178D02*
X27678572Y-4184178D01*
X28964286Y-3184178D02*
X28964286Y-4184178D01*
X28607143Y-2612750D02*
X28250000Y-3684178D01*
X28250000Y-3684178D02*
X29178571Y-3684178D01*
X29535714Y-2684178D02*
X30035714Y-4184178D01*
X30035714Y-4184178D02*
X30535714Y-2684178D01*
D12*
X97904759Y-126907038D02*
X97904759Y-124907038D01*
X97904759Y-124907038D02*
X98571426Y-126335609D01*
X98571426Y-126335609D02*
X99238092Y-124907038D01*
X99238092Y-124907038D02*
X99238092Y-126907038D01*
X100571425Y-124907038D02*
X100952378Y-124907038D01*
X100952378Y-124907038D02*
X101142854Y-125002276D01*
X101142854Y-125002276D02*
X101333330Y-125192752D01*
X101333330Y-125192752D02*
X101428568Y-125573704D01*
X101428568Y-125573704D02*
X101428568Y-126240371D01*
X101428568Y-126240371D02*
X101333330Y-126621323D01*
X101333330Y-126621323D02*
X101142854Y-126811800D01*
X101142854Y-126811800D02*
X100952378Y-126907038D01*
X100952378Y-126907038D02*
X100571425Y-126907038D01*
X100571425Y-126907038D02*
X100380949Y-126811800D01*
X100380949Y-126811800D02*
X100190473Y-126621323D01*
X100190473Y-126621323D02*
X100095235Y-126240371D01*
X100095235Y-126240371D02*
X100095235Y-125573704D01*
X100095235Y-125573704D02*
X100190473Y-125192752D01*
X100190473Y-125192752D02*
X100380949Y-125002276D01*
X100380949Y-125002276D02*
X100571425Y-124907038D01*
X102285711Y-126907038D02*
X102285711Y-124907038D01*
X102285711Y-124907038D02*
X103428568Y-126907038D01*
X103428568Y-126907038D02*
X103428568Y-124907038D01*
X104380949Y-126907038D02*
X104380949Y-124907038D01*
X105047616Y-124907038D02*
X106190473Y-124907038D01*
X105619044Y-126907038D02*
X105619044Y-124907038D01*
X107238092Y-124907038D02*
X107619045Y-124907038D01*
X107619045Y-124907038D02*
X107809521Y-125002276D01*
X107809521Y-125002276D02*
X107999997Y-125192752D01*
X107999997Y-125192752D02*
X108095235Y-125573704D01*
X108095235Y-125573704D02*
X108095235Y-126240371D01*
X108095235Y-126240371D02*
X107999997Y-126621323D01*
X107999997Y-126621323D02*
X107809521Y-126811800D01*
X107809521Y-126811800D02*
X107619045Y-126907038D01*
X107619045Y-126907038D02*
X107238092Y-126907038D01*
X107238092Y-126907038D02*
X107047616Y-126811800D01*
X107047616Y-126811800D02*
X106857140Y-126621323D01*
X106857140Y-126621323D02*
X106761902Y-126240371D01*
X106761902Y-126240371D02*
X106761902Y-125573704D01*
X106761902Y-125573704D02*
X106857140Y-125192752D01*
X106857140Y-125192752D02*
X107047616Y-125002276D01*
X107047616Y-125002276D02*
X107238092Y-124907038D01*
X110095235Y-126907038D02*
X109428568Y-125954657D01*
X108952378Y-126907038D02*
X108952378Y-124907038D01*
X108952378Y-124907038D02*
X109714283Y-124907038D01*
X109714283Y-124907038D02*
X109904759Y-125002276D01*
X109904759Y-125002276D02*
X109999997Y-125097514D01*
X109999997Y-125097514D02*
X110095235Y-125287990D01*
X110095235Y-125287990D02*
X110095235Y-125573704D01*
X110095235Y-125573704D02*
X109999997Y-125764180D01*
X109999997Y-125764180D02*
X109904759Y-125859419D01*
X109904759Y-125859419D02*
X109714283Y-125954657D01*
X109714283Y-125954657D02*
X108952378Y-125954657D01*
X112857140Y-124907038D02*
X113238093Y-124907038D01*
X113238093Y-124907038D02*
X113428569Y-125002276D01*
X113428569Y-125002276D02*
X113619045Y-125192752D01*
X113619045Y-125192752D02*
X113714283Y-125573704D01*
X113714283Y-125573704D02*
X113714283Y-126240371D01*
X113714283Y-126240371D02*
X113619045Y-126621323D01*
X113619045Y-126621323D02*
X113428569Y-126811800D01*
X113428569Y-126811800D02*
X113238093Y-126907038D01*
X113238093Y-126907038D02*
X112857140Y-126907038D01*
X112857140Y-126907038D02*
X112666664Y-126811800D01*
X112666664Y-126811800D02*
X112476188Y-126621323D01*
X112476188Y-126621323D02*
X112380950Y-126240371D01*
X112380950Y-126240371D02*
X112380950Y-125573704D01*
X112380950Y-125573704D02*
X112476188Y-125192752D01*
X112476188Y-125192752D02*
X112666664Y-125002276D01*
X112666664Y-125002276D02*
X112857140Y-124907038D01*
X114571426Y-126907038D02*
X114571426Y-124907038D01*
X114571426Y-124907038D02*
X115714283Y-126907038D01*
X115714283Y-126907038D02*
X115714283Y-124907038D01*
X117619045Y-126907038D02*
X116666664Y-126907038D01*
X116666664Y-126907038D02*
X116666664Y-124907038D01*
X118666664Y-125954657D02*
X118666664Y-126907038D01*
X117999998Y-124907038D02*
X118666664Y-125954657D01*
X118666664Y-125954657D02*
X119333331Y-124907038D01*
X122952379Y-124811800D02*
X121238094Y-127383228D01*
X125142856Y-126907038D02*
X125142856Y-124907038D01*
X125142856Y-124907038D02*
X126285713Y-126907038D01*
X126285713Y-126907038D02*
X126285713Y-124907038D01*
X127619046Y-124907038D02*
X127999999Y-124907038D01*
X127999999Y-124907038D02*
X128190475Y-125002276D01*
X128190475Y-125002276D02*
X128380951Y-125192752D01*
X128380951Y-125192752D02*
X128476189Y-125573704D01*
X128476189Y-125573704D02*
X128476189Y-126240371D01*
X128476189Y-126240371D02*
X128380951Y-126621323D01*
X128380951Y-126621323D02*
X128190475Y-126811800D01*
X128190475Y-126811800D02*
X127999999Y-126907038D01*
X127999999Y-126907038D02*
X127619046Y-126907038D01*
X127619046Y-126907038D02*
X127428570Y-126811800D01*
X127428570Y-126811800D02*
X127238094Y-126621323D01*
X127238094Y-126621323D02*
X127142856Y-126240371D01*
X127142856Y-126240371D02*
X127142856Y-125573704D01*
X127142856Y-125573704D02*
X127238094Y-125192752D01*
X127238094Y-125192752D02*
X127428570Y-125002276D01*
X127428570Y-125002276D02*
X127619046Y-124907038D01*
X130761904Y-126811800D02*
X131047618Y-126907038D01*
X131047618Y-126907038D02*
X131523809Y-126907038D01*
X131523809Y-126907038D02*
X131714285Y-126811800D01*
X131714285Y-126811800D02*
X131809523Y-126716561D01*
X131809523Y-126716561D02*
X131904761Y-126526085D01*
X131904761Y-126526085D02*
X131904761Y-126335609D01*
X131904761Y-126335609D02*
X131809523Y-126145133D01*
X131809523Y-126145133D02*
X131714285Y-126049895D01*
X131714285Y-126049895D02*
X131523809Y-125954657D01*
X131523809Y-125954657D02*
X131142856Y-125859419D01*
X131142856Y-125859419D02*
X130952380Y-125764180D01*
X130952380Y-125764180D02*
X130857142Y-125668942D01*
X130857142Y-125668942D02*
X130761904Y-125478466D01*
X130761904Y-125478466D02*
X130761904Y-125287990D01*
X130761904Y-125287990D02*
X130857142Y-125097514D01*
X130857142Y-125097514D02*
X130952380Y-125002276D01*
X130952380Y-125002276D02*
X131142856Y-124907038D01*
X131142856Y-124907038D02*
X131619047Y-124907038D01*
X131619047Y-124907038D02*
X131904761Y-125002276D01*
X132666666Y-126335609D02*
X133619047Y-126335609D01*
X132476190Y-126907038D02*
X133142856Y-124907038D01*
X133142856Y-124907038D02*
X133809523Y-126907038D01*
X135142857Y-125859419D02*
X134476190Y-125859419D01*
X134476190Y-126907038D02*
X134476190Y-124907038D01*
X134476190Y-124907038D02*
X135428571Y-124907038D01*
X136190476Y-125859419D02*
X136857143Y-125859419D01*
X137142857Y-126907038D02*
X136190476Y-126907038D01*
X136190476Y-126907038D02*
X136190476Y-124907038D01*
X136190476Y-124907038D02*
X137142857Y-124907038D01*
X137714286Y-124907038D02*
X138857143Y-124907038D01*
X138285714Y-126907038D02*
X138285714Y-124907038D01*
X139904762Y-125954657D02*
X139904762Y-126907038D01*
X139238096Y-124907038D02*
X139904762Y-125954657D01*
X139904762Y-125954657D02*
X140571429Y-124907038D01*
X143904763Y-126716561D02*
X143809525Y-126811800D01*
X143809525Y-126811800D02*
X143523811Y-126907038D01*
X143523811Y-126907038D02*
X143333335Y-126907038D01*
X143333335Y-126907038D02*
X143047620Y-126811800D01*
X143047620Y-126811800D02*
X142857144Y-126621323D01*
X142857144Y-126621323D02*
X142761906Y-126430847D01*
X142761906Y-126430847D02*
X142666668Y-126049895D01*
X142666668Y-126049895D02*
X142666668Y-125764180D01*
X142666668Y-125764180D02*
X142761906Y-125383228D01*
X142761906Y-125383228D02*
X142857144Y-125192752D01*
X142857144Y-125192752D02*
X143047620Y-125002276D01*
X143047620Y-125002276D02*
X143333335Y-124907038D01*
X143333335Y-124907038D02*
X143523811Y-124907038D01*
X143523811Y-124907038D02*
X143809525Y-125002276D01*
X143809525Y-125002276D02*
X143904763Y-125097514D01*
X145904763Y-126907038D02*
X145238096Y-125954657D01*
X144761906Y-126907038D02*
X144761906Y-124907038D01*
X144761906Y-124907038D02*
X145523811Y-124907038D01*
X145523811Y-124907038D02*
X145714287Y-125002276D01*
X145714287Y-125002276D02*
X145809525Y-125097514D01*
X145809525Y-125097514D02*
X145904763Y-125287990D01*
X145904763Y-125287990D02*
X145904763Y-125573704D01*
X145904763Y-125573704D02*
X145809525Y-125764180D01*
X145809525Y-125764180D02*
X145714287Y-125859419D01*
X145714287Y-125859419D02*
X145523811Y-125954657D01*
X145523811Y-125954657D02*
X144761906Y-125954657D01*
X146761906Y-125859419D02*
X147428573Y-125859419D01*
X147714287Y-126907038D02*
X146761906Y-126907038D01*
X146761906Y-126907038D02*
X146761906Y-124907038D01*
X146761906Y-124907038D02*
X147714287Y-124907038D01*
X148571430Y-126907038D02*
X148571430Y-124907038D01*
X148571430Y-124907038D02*
X149047620Y-124907038D01*
X149047620Y-124907038D02*
X149333335Y-125002276D01*
X149333335Y-125002276D02*
X149523811Y-125192752D01*
X149523811Y-125192752D02*
X149619049Y-125383228D01*
X149619049Y-125383228D02*
X149714287Y-125764180D01*
X149714287Y-125764180D02*
X149714287Y-126049895D01*
X149714287Y-126049895D02*
X149619049Y-126430847D01*
X149619049Y-126430847D02*
X149523811Y-126621323D01*
X149523811Y-126621323D02*
X149333335Y-126811800D01*
X149333335Y-126811800D02*
X149047620Y-126907038D01*
X149047620Y-126907038D02*
X148571430Y-126907038D01*
X150571430Y-126907038D02*
X150571430Y-124907038D01*
X151238097Y-124907038D02*
X152380954Y-124907038D01*
X151809525Y-126907038D02*
X151809525Y-124907038D01*
D13*
X42283095Y-8814819D02*
X42283095Y-7814819D01*
X42854523Y-8814819D02*
X42425952Y-8243390D01*
X42854523Y-7814819D02*
X42283095Y-8386247D01*
X42283095Y-102159819D02*
X42283095Y-101159819D01*
X42854523Y-102159819D02*
X42425952Y-101588390D01*
X42854523Y-101159819D02*
X42283095Y-101731247D01*
X42283095Y-22149819D02*
X42283095Y-21149819D01*
X42854523Y-22149819D02*
X42425952Y-21578390D01*
X42854523Y-21149819D02*
X42283095Y-21721247D01*
X42283095Y-88824819D02*
X42283095Y-87824819D01*
X42854523Y-88824819D02*
X42425952Y-88253390D01*
X42854523Y-87824819D02*
X42283095Y-88396247D01*
X42283095Y-62154819D02*
X42283095Y-61154819D01*
X42854523Y-62154819D02*
X42425952Y-61583390D01*
X42854523Y-61154819D02*
X42283095Y-61726247D01*
X42283095Y-75489819D02*
X42283095Y-74489819D01*
X42854523Y-75489819D02*
X42425952Y-74918390D01*
X42854523Y-74489819D02*
X42283095Y-75061247D01*
X42283095Y-48819819D02*
X42283095Y-47819819D01*
X42854523Y-48819819D02*
X42425952Y-48248390D01*
X42854523Y-47819819D02*
X42283095Y-48391247D01*
X42283095Y-35484819D02*
X42283095Y-34484819D01*
X42854523Y-35484819D02*
X42425952Y-34913390D01*
X42854523Y-34484819D02*
X42283095Y-35056247D01*
D14*
%TO.C,TP12*%
X164310000Y-116840000D02*
G75*
G02*
X160810000Y-116840000I-1750000J0D01*
G01*
X160810000Y-116840000D02*
G75*
G02*
X164310000Y-116840000I1750000J0D01*
G01*
%TO.C,R30*%
X149630000Y-70485000D02*
X150400000Y-70485000D01*
X157710000Y-70485000D02*
X156940000Y-70485000D01*
X150400000Y-69115000D02*
X156940000Y-69115000D01*
X156940000Y-71855000D01*
X150400000Y-71855000D01*
X150400000Y-69115000D01*
%TO.C,TP11*%
X154150000Y-116840000D02*
G75*
G02*
X150650000Y-116840000I-1750000J0D01*
G01*
X150650000Y-116840000D02*
G75*
G02*
X154150000Y-116840000I1750000J0D01*
G01*
%TO.C,R16*%
X71525000Y-103505000D02*
X72295000Y-103505000D01*
X79605000Y-103505000D02*
X78835000Y-103505000D01*
X72295000Y-102135000D02*
X78835000Y-102135000D01*
X78835000Y-104875000D01*
X72295000Y-104875000D01*
X72295000Y-102135000D01*
%TO.C,R5*%
X28980000Y-63500000D02*
X29750000Y-63500000D01*
X37060000Y-63500000D02*
X36290000Y-63500000D01*
X29750000Y-62130000D02*
X36290000Y-62130000D01*
X36290000Y-64870000D01*
X29750000Y-64870000D01*
X29750000Y-62130000D01*
%TO.C,U7*%
X56137500Y-87570000D02*
X56137500Y-92770000D01*
X56137500Y-92770000D02*
X62607500Y-92770000D01*
X58372500Y-87570000D02*
X56137500Y-87570000D01*
X62607500Y-87570000D02*
X60372500Y-87570000D01*
X62607500Y-92770000D02*
X62607500Y-87570000D01*
X60372500Y-87570000D02*
G75*
G02*
X58372500Y-87570000I-1000000J0D01*
G01*
%TO.C,R13*%
X71525000Y-63500000D02*
X72295000Y-63500000D01*
X79605000Y-63500000D02*
X78835000Y-63500000D01*
X72295000Y-62130000D02*
X78835000Y-62130000D01*
X78835000Y-64870000D01*
X72295000Y-64870000D01*
X72295000Y-62130000D01*
%TO.C,D1*%
X43585000Y-10160000D02*
X44235000Y-10160000D01*
X44835000Y-9040000D02*
X44835000Y-11280000D01*
X44955000Y-9040000D02*
X44955000Y-11280000D01*
X45075000Y-9040000D02*
X45075000Y-11280000D01*
X49125000Y-10160000D02*
X48475000Y-10160000D01*
X44235000Y-9040000D02*
X48475000Y-9040000D01*
X48475000Y-11280000D01*
X44235000Y-11280000D01*
X44235000Y-9040000D01*
%TO.C,R9*%
X71525000Y-10160000D02*
X72295000Y-10160000D01*
X79605000Y-10160000D02*
X78835000Y-10160000D01*
X72295000Y-8790000D02*
X78835000Y-8790000D01*
X78835000Y-11530000D01*
X72295000Y-11530000D01*
X72295000Y-8790000D01*
%TO.C,R29*%
X149630000Y-58420000D02*
X150400000Y-58420000D01*
X157710000Y-58420000D02*
X156940000Y-58420000D01*
X150400000Y-57050000D02*
X156940000Y-57050000D01*
X156940000Y-59790000D01*
X150400000Y-59790000D01*
X150400000Y-57050000D01*
%TO.C,D8*%
X43585000Y-103505000D02*
X44235000Y-103505000D01*
X44835000Y-102385000D02*
X44835000Y-104625000D01*
X44955000Y-102385000D02*
X44955000Y-104625000D01*
X45075000Y-102385000D02*
X45075000Y-104625000D01*
X49125000Y-103505000D02*
X48475000Y-103505000D01*
X44235000Y-102385000D02*
X48475000Y-102385000D01*
X48475000Y-104625000D01*
X44235000Y-104625000D01*
X44235000Y-102385000D01*
%TO.C,TP7*%
X113510000Y-116840000D02*
G75*
G02*
X110010000Y-116840000I-1750000J0D01*
G01*
X110010000Y-116840000D02*
G75*
G02*
X113510000Y-116840000I1750000J0D01*
G01*
%TO.C,R37*%
X164870000Y-58420000D02*
X165640000Y-58420000D01*
X172950000Y-58420000D02*
X172180000Y-58420000D01*
X165640000Y-57050000D02*
X172180000Y-57050000D01*
X172180000Y-59790000D01*
X165640000Y-59790000D01*
X165640000Y-57050000D01*
%TO.C,TP9*%
X133830000Y-116840000D02*
G75*
G02*
X130330000Y-116840000I-1750000J0D01*
G01*
X130330000Y-116840000D02*
G75*
G02*
X133830000Y-116840000I1750000J0D01*
G01*
%TO.C,R20*%
X117880000Y-46355000D02*
X118650000Y-46355000D01*
X125960000Y-46355000D02*
X125190000Y-46355000D01*
X118650000Y-44985000D02*
X125190000Y-44985000D01*
X125190000Y-47725000D01*
X118650000Y-47725000D01*
X118650000Y-44985000D01*
%TO.C,R11*%
X71525000Y-36830000D02*
X72295000Y-36830000D01*
X79605000Y-36830000D02*
X78835000Y-36830000D01*
X72295000Y-35460000D02*
X78835000Y-35460000D01*
X78835000Y-38200000D01*
X72295000Y-38200000D01*
X72295000Y-35460000D01*
%TO.C,TP5*%
X93190000Y-116840000D02*
G75*
G02*
X89690000Y-116840000I-1750000J0D01*
G01*
X89690000Y-116840000D02*
G75*
G02*
X93190000Y-116840000I1750000J0D01*
G01*
%TO.C,R28*%
X149630000Y-46355000D02*
X150400000Y-46355000D01*
X157710000Y-46355000D02*
X156940000Y-46355000D01*
X150400000Y-44985000D02*
X156940000Y-44985000D01*
X156940000Y-47725000D01*
X150400000Y-47725000D01*
X150400000Y-44985000D01*
%TO.C,J1*%
X6240000Y-44340000D02*
X7620000Y-44340000D01*
X6240000Y-45720000D02*
X6240000Y-44340000D01*
X6240000Y-46990000D02*
X6240000Y-69960000D01*
X6240000Y-46990000D02*
X8890000Y-46990000D01*
X6240000Y-69960000D02*
X11540000Y-69960000D01*
X8890000Y-44340000D02*
X11540000Y-44340000D01*
X8890000Y-46990000D02*
X8890000Y-44340000D01*
X11540000Y-44340000D02*
X11540000Y-69960000D01*
%TO.C,U9*%
X136180000Y-34230000D02*
X136180000Y-59750000D01*
X136180000Y-59750000D02*
X140680000Y-59750000D01*
X137430000Y-34230000D02*
X136180000Y-34230000D01*
X140680000Y-34230000D02*
X139430000Y-34230000D01*
X140680000Y-59750000D02*
X140680000Y-34230000D01*
X139430000Y-34230000D02*
G75*
G02*
X137430000Y-34230000I-1000000J0D01*
G01*
%TO.C,R21*%
X117880000Y-58420000D02*
X118650000Y-58420000D01*
X125960000Y-58420000D02*
X125190000Y-58420000D01*
X118650000Y-57050000D02*
X125190000Y-57050000D01*
X125190000Y-59790000D01*
X118650000Y-59790000D01*
X118650000Y-57050000D01*
%TO.C,R12*%
X71525000Y-50165000D02*
X72295000Y-50165000D01*
X79605000Y-50165000D02*
X78835000Y-50165000D01*
X72295000Y-48795000D02*
X78835000Y-48795000D01*
X78835000Y-51535000D01*
X72295000Y-51535000D01*
X72295000Y-48795000D01*
%TO.C,R8*%
X28980000Y-103505000D02*
X29750000Y-103505000D01*
X37060000Y-103505000D02*
X36290000Y-103505000D01*
X29750000Y-102135000D02*
X36290000Y-102135000D01*
X36290000Y-104875000D01*
X29750000Y-104875000D01*
X29750000Y-102135000D01*
%TO.C,TP6*%
X103350000Y-116840000D02*
G75*
G02*
X99850000Y-116840000I-1750000J0D01*
G01*
X99850000Y-116840000D02*
G75*
G02*
X103350000Y-116840000I1750000J0D01*
G01*
%TO.C,D2*%
X43585000Y-23495000D02*
X44235000Y-23495000D01*
X44835000Y-22375000D02*
X44835000Y-24615000D01*
X44955000Y-22375000D02*
X44955000Y-24615000D01*
X45075000Y-22375000D02*
X45075000Y-24615000D01*
X49125000Y-23495000D02*
X48475000Y-23495000D01*
X44235000Y-22375000D02*
X48475000Y-22375000D01*
X48475000Y-24615000D01*
X44235000Y-24615000D01*
X44235000Y-22375000D01*
%TO.C,U5*%
X56137500Y-60900000D02*
X56137500Y-66100000D01*
X56137500Y-66100000D02*
X62607500Y-66100000D01*
X58372500Y-60900000D02*
X56137500Y-60900000D01*
X62607500Y-60900000D02*
X60372500Y-60900000D01*
X62607500Y-66100000D02*
X62607500Y-60900000D01*
X60372500Y-60900000D02*
G75*
G02*
X58372500Y-60900000I-1000000J0D01*
G01*
%TO.C,R38*%
X164870000Y-70485000D02*
X165640000Y-70485000D01*
X172950000Y-70485000D02*
X172180000Y-70485000D01*
X165640000Y-69115000D02*
X172180000Y-69115000D01*
X172180000Y-71855000D01*
X165640000Y-71855000D01*
X165640000Y-69115000D01*
%TO.C,TP2*%
X32230000Y-116840000D02*
G75*
G02*
X28730000Y-116840000I-1750000J0D01*
G01*
X28730000Y-116840000D02*
G75*
G02*
X32230000Y-116840000I1750000J0D01*
G01*
%TO.C,U8*%
X56137500Y-100905000D02*
X56137500Y-106105000D01*
X56137500Y-106105000D02*
X62607500Y-106105000D01*
X58372500Y-100905000D02*
X56137500Y-100905000D01*
X62607500Y-100905000D02*
X60372500Y-100905000D01*
X62607500Y-106105000D02*
X62607500Y-100905000D01*
X60372500Y-100905000D02*
G75*
G02*
X58372500Y-100905000I-1000000J0D01*
G01*
%TO.C,R27*%
X149630000Y-34290000D02*
X150400000Y-34290000D01*
X157710000Y-34290000D02*
X156940000Y-34290000D01*
X150400000Y-32920000D02*
X156940000Y-32920000D01*
X156940000Y-35660000D01*
X150400000Y-35660000D01*
X150400000Y-32920000D01*
%TO.C,U6*%
X56137500Y-74235000D02*
X56137500Y-79435000D01*
X56137500Y-79435000D02*
X62607500Y-79435000D01*
X58372500Y-74235000D02*
X56137500Y-74235000D01*
X62607500Y-74235000D02*
X60372500Y-74235000D01*
X62607500Y-79435000D02*
X62607500Y-74235000D01*
X60372500Y-74235000D02*
G75*
G02*
X58372500Y-74235000I-1000000J0D01*
G01*
%TO.C,R25*%
X149630000Y-10160000D02*
X150400000Y-10160000D01*
X157710000Y-10160000D02*
X156940000Y-10160000D01*
X150400000Y-8790000D02*
X156940000Y-8790000D01*
X156940000Y-11530000D01*
X150400000Y-11530000D01*
X150400000Y-8790000D01*
%TO.C,R40*%
X164870000Y-94615000D02*
X165640000Y-94615000D01*
X172950000Y-94615000D02*
X172180000Y-94615000D01*
X165640000Y-93245000D02*
X172180000Y-93245000D01*
X172180000Y-95985000D01*
X165640000Y-95985000D01*
X165640000Y-93245000D01*
%TO.C,D7*%
X43585000Y-90170000D02*
X44235000Y-90170000D01*
X44835000Y-89050000D02*
X44835000Y-91290000D01*
X44955000Y-89050000D02*
X44955000Y-91290000D01*
X45075000Y-89050000D02*
X45075000Y-91290000D01*
X49125000Y-90170000D02*
X48475000Y-90170000D01*
X44235000Y-89050000D02*
X48475000Y-89050000D01*
X48475000Y-91290000D01*
X44235000Y-91290000D01*
X44235000Y-89050000D01*
%TO.C,R2*%
X28980000Y-23495000D02*
X29750000Y-23495000D01*
X37060000Y-23495000D02*
X36290000Y-23495000D01*
X29750000Y-22125000D02*
X36290000Y-22125000D01*
X36290000Y-24865000D01*
X29750000Y-24865000D01*
X29750000Y-22125000D01*
%TO.C,R14*%
X71525000Y-76835000D02*
X72295000Y-76835000D01*
X79605000Y-76835000D02*
X78835000Y-76835000D01*
X72295000Y-75465000D02*
X78835000Y-75465000D01*
X78835000Y-78205000D01*
X72295000Y-78205000D01*
X72295000Y-75465000D01*
%TO.C,TP8*%
X123670000Y-116840000D02*
G75*
G02*
X120170000Y-116840000I-1750000J0D01*
G01*
X120170000Y-116840000D02*
G75*
G02*
X123670000Y-116840000I1750000J0D01*
G01*
%TO.C,R15*%
X71525000Y-90170000D02*
X72295000Y-90170000D01*
X79605000Y-90170000D02*
X78835000Y-90170000D01*
X72295000Y-88800000D02*
X78835000Y-88800000D01*
X78835000Y-91540000D01*
X72295000Y-91540000D01*
X72295000Y-88800000D01*
%TO.C,R19*%
X117880000Y-34290000D02*
X118650000Y-34290000D01*
X125960000Y-34290000D02*
X125190000Y-34290000D01*
X118650000Y-32920000D02*
X125190000Y-32920000D01*
X125190000Y-35660000D01*
X118650000Y-35660000D01*
X118650000Y-32920000D01*
%TO.C,U2*%
X56137500Y-20895000D02*
X56137500Y-26095000D01*
X56137500Y-26095000D02*
X62607500Y-26095000D01*
X58372500Y-20895000D02*
X56137500Y-20895000D01*
X62607500Y-20895000D02*
X60372500Y-20895000D01*
X62607500Y-26095000D02*
X62607500Y-20895000D01*
X60372500Y-20895000D02*
G75*
G02*
X58372500Y-20895000I-1000000J0D01*
G01*
%TO.C,U1*%
X56137500Y-7560000D02*
X56137500Y-12760000D01*
X56137500Y-12760000D02*
X62607500Y-12760000D01*
X58372500Y-7560000D02*
X56137500Y-7560000D01*
X62607500Y-7560000D02*
X60372500Y-7560000D01*
X62607500Y-12760000D02*
X62607500Y-7560000D01*
X60372500Y-7560000D02*
G75*
G02*
X58372500Y-7560000I-1000000J0D01*
G01*
%TO.C,R4*%
X28980000Y-50165000D02*
X29750000Y-50165000D01*
X37060000Y-50165000D02*
X36290000Y-50165000D01*
X29750000Y-48795000D02*
X36290000Y-48795000D01*
X36290000Y-51535000D01*
X29750000Y-51535000D01*
X29750000Y-48795000D01*
%TO.C,TP4*%
X82395000Y-116840000D02*
G75*
G02*
X78895000Y-116840000I-1750000J0D01*
G01*
X78895000Y-116840000D02*
G75*
G02*
X82395000Y-116840000I1750000J0D01*
G01*
%TO.C,C1*%
X144045000Y-34190000D02*
X146785000Y-34190000D01*
X144045000Y-39430000D02*
X144045000Y-34190000D01*
X146785000Y-34190000D02*
X146785000Y-39430000D01*
X146785000Y-39430000D02*
X144045000Y-39430000D01*
%TO.C,R33*%
X164870000Y-10160000D02*
X165640000Y-10160000D01*
X172950000Y-10160000D02*
X172180000Y-10160000D01*
X165640000Y-8790000D02*
X172180000Y-8790000D01*
X172180000Y-11530000D01*
X165640000Y-11530000D01*
X165640000Y-8790000D01*
%TO.C,R10*%
X71525000Y-23495000D02*
X72295000Y-23495000D01*
X79605000Y-23495000D02*
X78835000Y-23495000D01*
X72295000Y-22125000D02*
X78835000Y-22125000D01*
X78835000Y-24865000D01*
X72295000Y-24865000D01*
X72295000Y-22125000D01*
%TO.C,D5*%
X43585000Y-63500000D02*
X44235000Y-63500000D01*
X44835000Y-62380000D02*
X44835000Y-64620000D01*
X44955000Y-62380000D02*
X44955000Y-64620000D01*
X45075000Y-62380000D02*
X45075000Y-64620000D01*
X49125000Y-63500000D02*
X48475000Y-63500000D01*
X44235000Y-62380000D02*
X48475000Y-62380000D01*
X48475000Y-64620000D01*
X44235000Y-64620000D01*
X44235000Y-62380000D01*
%TO.C,R18*%
X117880000Y-22225000D02*
X118650000Y-22225000D01*
X125960000Y-22225000D02*
X125190000Y-22225000D01*
X118650000Y-20855000D02*
X125190000Y-20855000D01*
X125190000Y-23595000D01*
X118650000Y-23595000D01*
X118650000Y-20855000D01*
%TO.C,R39*%
X164870000Y-82550000D02*
X165640000Y-82550000D01*
X172950000Y-82550000D02*
X172180000Y-82550000D01*
X165640000Y-81180000D02*
X172180000Y-81180000D01*
X172180000Y-83920000D01*
X165640000Y-83920000D01*
X165640000Y-81180000D01*
%TO.C,J2*%
X90060000Y-41800000D02*
X91440000Y-41800000D01*
X90060000Y-43180000D02*
X90060000Y-41800000D01*
X90060000Y-44450000D02*
X90060000Y-67420000D01*
X90060000Y-44450000D02*
X92820000Y-44450000D01*
X90060000Y-67420000D02*
X92820000Y-67420000D01*
X92820000Y-44450000D02*
X92820000Y-67420000D01*
%TO.C,R3*%
X28980000Y-36830000D02*
X29750000Y-36830000D01*
X37060000Y-36830000D02*
X36290000Y-36830000D01*
X29750000Y-35460000D02*
X36290000Y-35460000D01*
X36290000Y-38200000D01*
X29750000Y-38200000D01*
X29750000Y-35460000D01*
%TO.C,R34*%
X164870000Y-22225000D02*
X165640000Y-22225000D01*
X172950000Y-22225000D02*
X172180000Y-22225000D01*
X165640000Y-20855000D02*
X172180000Y-20855000D01*
X172180000Y-23595000D01*
X165640000Y-23595000D01*
X165640000Y-20855000D01*
%TO.C,D6*%
X43585000Y-76835000D02*
X44235000Y-76835000D01*
X44835000Y-75715000D02*
X44835000Y-77955000D01*
X44955000Y-75715000D02*
X44955000Y-77955000D01*
X45075000Y-75715000D02*
X45075000Y-77955000D01*
X49125000Y-76835000D02*
X48475000Y-76835000D01*
X44235000Y-75715000D02*
X48475000Y-75715000D01*
X48475000Y-77955000D01*
X44235000Y-77955000D01*
X44235000Y-75715000D01*
%TO.C,D4*%
X43585000Y-50165000D02*
X44235000Y-50165000D01*
X44835000Y-49045000D02*
X44835000Y-51285000D01*
X44955000Y-49045000D02*
X44955000Y-51285000D01*
X45075000Y-49045000D02*
X45075000Y-51285000D01*
X49125000Y-50165000D02*
X48475000Y-50165000D01*
X44235000Y-49045000D02*
X48475000Y-49045000D01*
X48475000Y-51285000D01*
X44235000Y-51285000D01*
X44235000Y-49045000D01*
%TO.C,D3*%
X43585000Y-36830000D02*
X44235000Y-36830000D01*
X44835000Y-35710000D02*
X44835000Y-37950000D01*
X44955000Y-35710000D02*
X44955000Y-37950000D01*
X45075000Y-35710000D02*
X45075000Y-37950000D01*
X49125000Y-36830000D02*
X48475000Y-36830000D01*
X44235000Y-35710000D02*
X48475000Y-35710000D01*
X48475000Y-37950000D01*
X44235000Y-37950000D01*
X44235000Y-35710000D01*
%TO.C,R6*%
X28980000Y-76835000D02*
X29750000Y-76835000D01*
X37060000Y-76835000D02*
X36290000Y-76835000D01*
X29750000Y-75465000D02*
X36290000Y-75465000D01*
X36290000Y-78205000D01*
X29750000Y-78205000D01*
X29750000Y-75465000D01*
%TO.C,R17*%
X117880000Y-10160000D02*
X118650000Y-10160000D01*
X125960000Y-10160000D02*
X125190000Y-10160000D01*
X118650000Y-8790000D02*
X125190000Y-8790000D01*
X125190000Y-11530000D01*
X118650000Y-11530000D01*
X118650000Y-8790000D01*
%TO.C,R7*%
X28980000Y-90170000D02*
X29750000Y-90170000D01*
X37060000Y-90170000D02*
X36290000Y-90170000D01*
X29750000Y-88800000D02*
X36290000Y-88800000D01*
X36290000Y-91540000D01*
X29750000Y-91540000D01*
X29750000Y-88800000D01*
%TO.C,R32*%
X149630000Y-94615000D02*
X150400000Y-94615000D01*
X157710000Y-94615000D02*
X156940000Y-94615000D01*
X150400000Y-93245000D02*
X156940000Y-93245000D01*
X156940000Y-95985000D01*
X150400000Y-95985000D01*
X150400000Y-93245000D01*
%TO.C,R22*%
X117880000Y-70485000D02*
X118650000Y-70485000D01*
X125960000Y-70485000D02*
X125190000Y-70485000D01*
X118650000Y-69115000D02*
X125190000Y-69115000D01*
X125190000Y-71855000D01*
X118650000Y-71855000D01*
X118650000Y-69115000D01*
%TO.C,R36*%
X164870000Y-46355000D02*
X165640000Y-46355000D01*
X172950000Y-46355000D02*
X172180000Y-46355000D01*
X165640000Y-44985000D02*
X172180000Y-44985000D01*
X172180000Y-47725000D01*
X165640000Y-47725000D01*
X165640000Y-44985000D01*
%TO.C,R1*%
X28980000Y-10160000D02*
X29750000Y-10160000D01*
X37060000Y-10160000D02*
X36290000Y-10160000D01*
X29750000Y-8790000D02*
X36290000Y-8790000D01*
X36290000Y-11530000D01*
X29750000Y-11530000D01*
X29750000Y-8790000D01*
%TO.C,TP10*%
X143990000Y-116840000D02*
G75*
G02*
X140490000Y-116840000I-1750000J0D01*
G01*
X140490000Y-116840000D02*
G75*
G02*
X143990000Y-116840000I1750000J0D01*
G01*
%TO.C,TP3*%
X72235000Y-116840000D02*
G75*
G02*
X68735000Y-116840000I-1750000J0D01*
G01*
X68735000Y-116840000D02*
G75*
G02*
X72235000Y-116840000I1750000J0D01*
G01*
%TO.C,R26*%
X149630000Y-22225000D02*
X150400000Y-22225000D01*
X157710000Y-22225000D02*
X156940000Y-22225000D01*
X150400000Y-20855000D02*
X156940000Y-20855000D01*
X156940000Y-23595000D01*
X150400000Y-23595000D01*
X150400000Y-20855000D01*
%TO.C,TP1*%
X16990000Y-116840000D02*
G75*
G02*
X13490000Y-116840000I-1750000J0D01*
G01*
X13490000Y-116840000D02*
G75*
G02*
X16990000Y-116840000I1750000J0D01*
G01*
%TO.C,J3*%
X107840000Y-11320000D02*
X109220000Y-11320000D01*
X107840000Y-12700000D02*
X107840000Y-11320000D01*
X107840000Y-13970000D02*
X107840000Y-36940000D01*
X107840000Y-13970000D02*
X110600000Y-13970000D01*
X107840000Y-36940000D02*
X110600000Y-36940000D01*
X110600000Y-13970000D02*
X110600000Y-36940000D01*
%TO.C,R24*%
X117880000Y-94615000D02*
X118650000Y-94615000D01*
X125960000Y-94615000D02*
X125190000Y-94615000D01*
X118650000Y-93245000D02*
X125190000Y-93245000D01*
X125190000Y-95985000D01*
X118650000Y-95985000D01*
X118650000Y-93245000D01*
%TO.C,R35*%
X164870000Y-34290000D02*
X165640000Y-34290000D01*
X172950000Y-34290000D02*
X172180000Y-34290000D01*
X165640000Y-32920000D02*
X172180000Y-32920000D01*
X172180000Y-35660000D01*
X165640000Y-35660000D01*
X165640000Y-32920000D01*
%TO.C,R31*%
X149630000Y-82550000D02*
X150400000Y-82550000D01*
X157710000Y-82550000D02*
X156940000Y-82550000D01*
X150400000Y-81180000D02*
X156940000Y-81180000D01*
X156940000Y-83920000D01*
X150400000Y-83920000D01*
X150400000Y-81180000D01*
%TO.C,U4*%
X56137500Y-47565000D02*
X56137500Y-52765000D01*
X56137500Y-52765000D02*
X62607500Y-52765000D01*
X58372500Y-47565000D02*
X56137500Y-47565000D01*
X62607500Y-47565000D02*
X60372500Y-47565000D01*
X62607500Y-52765000D02*
X62607500Y-47565000D01*
X60372500Y-47565000D02*
G75*
G02*
X58372500Y-47565000I-1000000J0D01*
G01*
%TO.C,R23*%
X117880000Y-82550000D02*
X118650000Y-82550000D01*
X125960000Y-82550000D02*
X125190000Y-82550000D01*
X118650000Y-81180000D02*
X125190000Y-81180000D01*
X125190000Y-83920000D01*
X118650000Y-83920000D01*
X118650000Y-81180000D01*
%TO.C,J4*%
X181500000Y-11320000D02*
X182880000Y-11320000D01*
X181500000Y-12700000D02*
X181500000Y-11320000D01*
X181500000Y-13970000D02*
X181500000Y-36940000D01*
X181500000Y-13970000D02*
X184260000Y-13970000D01*
X181500000Y-36940000D02*
X184260000Y-36940000D01*
X184260000Y-13970000D02*
X184260000Y-36940000D01*
%TO.C,U3*%
X56137500Y-34230000D02*
X56137500Y-39430000D01*
X56137500Y-39430000D02*
X62607500Y-39430000D01*
X58372500Y-34230000D02*
X56137500Y-34230000D01*
X62607500Y-34230000D02*
X60372500Y-34230000D01*
X62607500Y-39430000D02*
X62607500Y-34230000D01*
X60372500Y-34230000D02*
G75*
G02*
X58372500Y-34230000I-1000000J0D01*
G01*
%TD*%
M02*
