%TF.GenerationSoftware,KiCad,Pcbnew,9.0.9-9.0.9~ubuntu24.04.1*%
%TF.CreationDate,2026-08-28T08:50:18+09:00*%
%TF.ProjectId,ppr_interface,7070725f-696e-4746-9572-666163652e6b,A-DRAFT*%
%TF.SameCoordinates,Original*%
%TF.FileFunction,Soldermask,Top*%
%TF.FilePolarity,Negative*%
%FSLAX46Y46*%
G04 Gerber Fmt 4.6, Leading zero omitted, Abs format (unit mm)*
G04 Created by KiCad (PCBNEW 9.0.9-9.0.9~ubuntu24.04.1) date 2026-08-28 08:50:18*
%MOMM*%
%LPD*%
G01*
G04 APERTURE LIST*
G04 Aperture macros list*
%AMRoundRect*
0 Rectangle with rounded corners*
0 $1 Rounding radius*
0 $2 $3 $4 $5 $6 $7 $8 $9 X,Y pos of 4 corners*
0 Add a 4 corners polygon primitive as box body*
4,1,4,$2,$3,$4,$5,$6,$7,$8,$9,$2,$3,0*
0 Add four circle primitives for the rounded corners*
1,1,$1+$1,$2,$3*
1,1,$1+$1,$4,$5*
1,1,$1+$1,$6,$7*
1,1,$1+$1,$8,$9*
0 Add four rect primitives between the rounded corners*
20,1,$1+$1,$2,$3,$4,$5,0*
20,1,$1+$1,$4,$5,$6,$7,0*
20,1,$1+$1,$6,$7,$8,$9,0*
20,1,$1+$1,$8,$9,$2,$3,0*%
G04 Aperture macros list end*
%ADD10C,3.000000*%
%ADD11C,1.600000*%
%ADD12C,3.200000*%
%ADD13RoundRect,0.249999X-0.750001X-0.640001X0.750001X-0.640001X0.750001X0.640001X-0.750001X0.640001X0*%
%ADD14RoundRect,0.250000X-0.550000X-0.550000X0.550000X-0.550000X0.550000X0.550000X-0.550000X0.550000X0*%
%ADD15R,1.700000X1.700000*%
%ADD16C,1.700000*%
%ADD17RoundRect,0.250000X-0.950000X-0.550000X0.950000X-0.550000X0.950000X0.550000X-0.950000X0.550000X0*%
%ADD18O,2.400000X1.600000*%
%ADD19C,2.000000*%
G04 APERTURE END LIST*
D10*
%TO.C,TP12*%
X162560000Y-116840000D03*
%TD*%
D11*
%TO.C,R30*%
X148590000Y-70485000D03*
X158750000Y-70485000D03*
%TD*%
D10*
%TO.C,TP11*%
X152400000Y-116840000D03*
%TD*%
D12*
%TO.C,H4*%
X185000000Y-125000000D03*
%TD*%
D11*
%TO.C,R16*%
X70485000Y-103505000D03*
X80645000Y-103505000D03*
%TD*%
%TO.C,R5*%
X27940000Y-63500000D03*
X38100000Y-63500000D03*
%TD*%
D13*
%TO.C,U7*%
X54607500Y-88900000D03*
X54607500Y-91440000D03*
X64137500Y-91440000D03*
X64137500Y-88900000D03*
%TD*%
D11*
%TO.C,R13*%
X70485000Y-63500000D03*
X80645000Y-63500000D03*
%TD*%
D14*
%TO.C,D1*%
X42545000Y-10160000D03*
D11*
X50165000Y-10160000D03*
%TD*%
%TO.C,R9*%
X70485000Y-10160000D03*
X80645000Y-10160000D03*
%TD*%
%TO.C,R29*%
X148590000Y-58420000D03*
X158750000Y-58420000D03*
%TD*%
D14*
%TO.C,D8*%
X42545000Y-103505000D03*
D11*
X50165000Y-103505000D03*
%TD*%
D10*
%TO.C,TP7*%
X111760000Y-116840000D03*
%TD*%
D11*
%TO.C,R37*%
X163830000Y-58420000D03*
X173990000Y-58420000D03*
%TD*%
D10*
%TO.C,TP9*%
X132080000Y-116840000D03*
%TD*%
D11*
%TO.C,R20*%
X116840000Y-46355000D03*
X127000000Y-46355000D03*
%TD*%
%TO.C,R11*%
X70485000Y-36830000D03*
X80645000Y-36830000D03*
%TD*%
D10*
%TO.C,TP5*%
X91440000Y-116840000D03*
%TD*%
D12*
%TO.C,H1*%
X5000000Y-5000000D03*
%TD*%
D11*
%TO.C,R28*%
X148590000Y-46355000D03*
X158750000Y-46355000D03*
%TD*%
D15*
%TO.C,J1*%
X7620000Y-45720000D03*
D16*
X10160000Y-45720000D03*
X7620000Y-48260000D03*
X10160000Y-48260000D03*
X7620000Y-50800000D03*
X10160000Y-50800000D03*
X7620000Y-53340000D03*
X10160000Y-53340000D03*
X7620000Y-55880000D03*
X10160000Y-55880000D03*
X7620000Y-58420000D03*
X10160000Y-58420000D03*
X7620000Y-60960000D03*
X10160000Y-60960000D03*
X7620000Y-63500000D03*
X10160000Y-63500000D03*
X7620000Y-66040000D03*
X10160000Y-66040000D03*
X7620000Y-68580000D03*
X10160000Y-68580000D03*
%TD*%
D17*
%TO.C,U9*%
X134620000Y-35560000D03*
D18*
X134620000Y-38100000D03*
X134620000Y-40640000D03*
X134620000Y-43180000D03*
X134620000Y-45720000D03*
X134620000Y-48260000D03*
X134620000Y-50800000D03*
X134620000Y-53340000D03*
X134620000Y-55880000D03*
X134620000Y-58420000D03*
X142240000Y-58420000D03*
X142240000Y-55880000D03*
X142240000Y-53340000D03*
X142240000Y-50800000D03*
X142240000Y-48260000D03*
X142240000Y-45720000D03*
X142240000Y-43180000D03*
X142240000Y-40640000D03*
X142240000Y-38100000D03*
X142240000Y-35560000D03*
%TD*%
D11*
%TO.C,R21*%
X116840000Y-58420000D03*
X127000000Y-58420000D03*
%TD*%
%TO.C,R12*%
X70485000Y-50165000D03*
X80645000Y-50165000D03*
%TD*%
%TO.C,R8*%
X27940000Y-103505000D03*
X38100000Y-103505000D03*
%TD*%
D10*
%TO.C,TP6*%
X101600000Y-116840000D03*
%TD*%
D14*
%TO.C,D2*%
X42545000Y-23495000D03*
D11*
X50165000Y-23495000D03*
%TD*%
D13*
%TO.C,U5*%
X54607500Y-62230000D03*
X54607500Y-64770000D03*
X64137500Y-64770000D03*
X64137500Y-62230000D03*
%TD*%
D11*
%TO.C,R38*%
X163830000Y-70485000D03*
X173990000Y-70485000D03*
%TD*%
D10*
%TO.C,TP2*%
X30480000Y-116840000D03*
%TD*%
D13*
%TO.C,U8*%
X54607500Y-102235000D03*
X54607500Y-104775000D03*
X64137500Y-104775000D03*
X64137500Y-102235000D03*
%TD*%
D11*
%TO.C,R27*%
X148590000Y-34290000D03*
X158750000Y-34290000D03*
%TD*%
D13*
%TO.C,U6*%
X54607500Y-75565000D03*
X54607500Y-78105000D03*
X64137500Y-78105000D03*
X64137500Y-75565000D03*
%TD*%
D12*
%TO.C,H3*%
X5000000Y-125000000D03*
%TD*%
D11*
%TO.C,R25*%
X148590000Y-10160000D03*
X158750000Y-10160000D03*
%TD*%
%TO.C,R40*%
X163830000Y-94615000D03*
X173990000Y-94615000D03*
%TD*%
D14*
%TO.C,D7*%
X42545000Y-90170000D03*
D11*
X50165000Y-90170000D03*
%TD*%
%TO.C,R2*%
X27940000Y-23495000D03*
X38100000Y-23495000D03*
%TD*%
%TO.C,R14*%
X70485000Y-76835000D03*
X80645000Y-76835000D03*
%TD*%
D10*
%TO.C,TP8*%
X121920000Y-116840000D03*
%TD*%
D11*
%TO.C,R15*%
X70485000Y-90170000D03*
X80645000Y-90170000D03*
%TD*%
%TO.C,R19*%
X116840000Y-34290000D03*
X127000000Y-34290000D03*
%TD*%
D13*
%TO.C,U2*%
X54607500Y-22225000D03*
X54607500Y-24765000D03*
X64137500Y-24765000D03*
X64137500Y-22225000D03*
%TD*%
%TO.C,U1*%
X54607500Y-8890000D03*
X54607500Y-11430000D03*
X64137500Y-11430000D03*
X64137500Y-8890000D03*
%TD*%
D11*
%TO.C,R4*%
X27940000Y-50165000D03*
X38100000Y-50165000D03*
%TD*%
D10*
%TO.C,TP4*%
X80645000Y-116840000D03*
%TD*%
D11*
%TO.C,C1*%
X145415000Y-35560000D03*
X145415000Y-38060000D03*
%TD*%
%TO.C,R33*%
X163830000Y-10160000D03*
X173990000Y-10160000D03*
%TD*%
%TO.C,R10*%
X70485000Y-23495000D03*
X80645000Y-23495000D03*
%TD*%
D14*
%TO.C,D5*%
X42545000Y-63500000D03*
D11*
X50165000Y-63500000D03*
%TD*%
%TO.C,R18*%
X116840000Y-22225000D03*
X127000000Y-22225000D03*
%TD*%
%TO.C,R39*%
X163830000Y-82550000D03*
X173990000Y-82550000D03*
%TD*%
D15*
%TO.C,J2*%
X91440000Y-43180000D03*
D16*
X91440000Y-45720000D03*
X91440000Y-48260000D03*
X91440000Y-50800000D03*
X91440000Y-53340000D03*
X91440000Y-55880000D03*
X91440000Y-58420000D03*
X91440000Y-60960000D03*
X91440000Y-63500000D03*
X91440000Y-66040000D03*
%TD*%
D12*
%TO.C,H2*%
X185000000Y-5000000D03*
%TD*%
D11*
%TO.C,R3*%
X27940000Y-36830000D03*
X38100000Y-36830000D03*
%TD*%
D19*
%TO.C,FID3*%
X175000000Y-125000000D03*
%TD*%
D11*
%TO.C,R34*%
X163830000Y-22225000D03*
X173990000Y-22225000D03*
%TD*%
D14*
%TO.C,D6*%
X42545000Y-76835000D03*
D11*
X50165000Y-76835000D03*
%TD*%
D14*
%TO.C,D4*%
X42545000Y-50165000D03*
D11*
X50165000Y-50165000D03*
%TD*%
D14*
%TO.C,D3*%
X42545000Y-36830000D03*
D11*
X50165000Y-36830000D03*
%TD*%
%TO.C,R6*%
X27940000Y-76835000D03*
X38100000Y-76835000D03*
%TD*%
%TO.C,R17*%
X116840000Y-10160000D03*
X127000000Y-10160000D03*
%TD*%
%TO.C,R7*%
X27940000Y-90170000D03*
X38100000Y-90170000D03*
%TD*%
%TO.C,R32*%
X148590000Y-94615000D03*
X158750000Y-94615000D03*
%TD*%
%TO.C,R22*%
X116840000Y-70485000D03*
X127000000Y-70485000D03*
%TD*%
D19*
%TO.C,FID1*%
X15000000Y-5000000D03*
%TD*%
D11*
%TO.C,R36*%
X163830000Y-46355000D03*
X173990000Y-46355000D03*
%TD*%
%TO.C,R1*%
X27940000Y-10160000D03*
X38100000Y-10160000D03*
%TD*%
D10*
%TO.C,TP10*%
X142240000Y-116840000D03*
%TD*%
%TO.C,TP3*%
X70485000Y-116840000D03*
%TD*%
D11*
%TO.C,R26*%
X148590000Y-22225000D03*
X158750000Y-22225000D03*
%TD*%
D10*
%TO.C,TP1*%
X15240000Y-116840000D03*
%TD*%
D15*
%TO.C,J3*%
X109220000Y-12700000D03*
D16*
X109220000Y-15240000D03*
X109220000Y-17780000D03*
X109220000Y-20320000D03*
X109220000Y-22860000D03*
X109220000Y-25400000D03*
X109220000Y-27940000D03*
X109220000Y-30480000D03*
X109220000Y-33020000D03*
X109220000Y-35560000D03*
%TD*%
D11*
%TO.C,R24*%
X116840000Y-94615000D03*
X127000000Y-94615000D03*
%TD*%
%TO.C,R35*%
X163830000Y-34290000D03*
X173990000Y-34290000D03*
%TD*%
%TO.C,R31*%
X148590000Y-82550000D03*
X158750000Y-82550000D03*
%TD*%
D13*
%TO.C,U4*%
X54607500Y-48895000D03*
X54607500Y-51435000D03*
X64137500Y-51435000D03*
X64137500Y-48895000D03*
%TD*%
D11*
%TO.C,R23*%
X116840000Y-82550000D03*
X127000000Y-82550000D03*
%TD*%
D15*
%TO.C,J4*%
X182880000Y-12700000D03*
D16*
X182880000Y-15240000D03*
X182880000Y-17780000D03*
X182880000Y-20320000D03*
X182880000Y-22860000D03*
X182880000Y-25400000D03*
X182880000Y-27940000D03*
X182880000Y-30480000D03*
X182880000Y-33020000D03*
X182880000Y-35560000D03*
%TD*%
D19*
%TO.C,FID2*%
X175000000Y-5000000D03*
%TD*%
D13*
%TO.C,U3*%
X54607500Y-35560000D03*
X54607500Y-38100000D03*
X64137500Y-38100000D03*
X64137500Y-35560000D03*
%TD*%
M02*
