M48
; DRILL file {KiCad 9.0.9-9.0.9~ubuntu24.04.1} date 2026-08-28T08:50:18+0900
; FORMAT={-:-/ absolute / metric / decimal}
; #@! TF.CreationDate,2026-08-28T08:50:18+09:00
; #@! TF.GenerationSoftware,Kicad,Pcbnew,9.0.9-9.0.9~ubuntu24.04.1
; #@! TF.FileFunction,Plated,1,2,PTH
FMAT,2
METRIC
; #@! TA.AperFunction,Plated,PTH,ViaDrill
T1C0.400
; #@! TA.AperFunction,Plated,PTH,ComponentDrill
T2C0.800
; #@! TA.AperFunction,Plated,PTH,ComponentDrill
T3C1.000
; #@! TA.AperFunction,Plated,PTH,ComponentDrill
T4C1.500
%
G90
G05
T1
X50.165Y-11.43
X50.165Y-24.765
X50.165Y-38.1
X50.165Y-51.435
X50.165Y-100.33
X64.135Y-13.97
X66.04Y-22.86
X66.04Y-36.195
X66.04Y-49.53
X66.04Y-61.595
X66.04Y-64.135
X66.04Y-76.2
X66.04Y-89.535
X66.04Y-102.87
X71.755Y-66.675
X80.645Y-54.61
X83.82Y-103.505
X85.09Y-63.5
X85.09Y-66.04
X89.535Y-43.18
X94.615Y-48.26
X95.885Y-50.8
X97.155Y-53.34
X106.045Y-8.255
X106.045Y-34.29
X112.395Y-54.61
X118.745Y-50.8
X129.54Y-35.56
X129.54Y-41.91
X129.54Y-44.45
X163.195Y-24.13
X167.005Y-19.05
X173.99Y-19.05
X176.53Y-24.13
X177.8Y-24.13
X177.8Y-31.75
T2
X27.94Y-10.16
X27.94Y-23.495
X27.94Y-36.83
X27.94Y-50.165
X27.94Y-63.5
X27.94Y-76.835
X27.94Y-90.17
X27.94Y-103.505
X38.1Y-10.16
X38.1Y-23.495
X38.1Y-36.83
X38.1Y-50.165
X38.1Y-63.5
X38.1Y-76.835
X38.1Y-90.17
X38.1Y-103.505
X42.545Y-10.16
X42.545Y-23.495
X42.545Y-36.83
X42.545Y-50.165
X42.545Y-63.5
X42.545Y-76.835
X42.545Y-90.17
X42.545Y-103.505
X50.165Y-10.16
X50.165Y-23.495
X50.165Y-36.83
X50.165Y-50.165
X50.165Y-63.5
X50.165Y-76.835
X50.165Y-90.17
X50.165Y-103.505
X70.485Y-10.16
X70.485Y-23.495
X70.485Y-36.83
X70.485Y-50.165
X70.485Y-63.5
X70.485Y-76.835
X70.485Y-90.17
X70.485Y-103.505
X80.645Y-10.16
X80.645Y-23.495
X80.645Y-36.83
X80.645Y-50.165
X80.645Y-63.5
X80.645Y-76.835
X80.645Y-90.17
X80.645Y-103.505
X116.84Y-10.16
X116.84Y-22.225
X116.84Y-34.29
X116.84Y-46.355
X116.84Y-58.42
X116.84Y-70.485
X116.84Y-82.55
X116.84Y-94.615
X127.0Y-10.16
X127.0Y-22.225
X127.0Y-34.29
X127.0Y-46.355
X127.0Y-58.42
X127.0Y-70.485
X127.0Y-82.55
X127.0Y-94.615
X134.62Y-35.56
X134.62Y-38.1
X134.62Y-40.64
X134.62Y-43.18
X134.62Y-45.72
X134.62Y-48.26
X134.62Y-50.8
X134.62Y-53.34
X134.62Y-55.88
X134.62Y-58.42
X142.24Y-35.56
X142.24Y-38.1
X142.24Y-40.64
X142.24Y-43.18
X142.24Y-45.72
X142.24Y-48.26
X142.24Y-50.8
X142.24Y-53.34
X142.24Y-55.88
X142.24Y-58.42
X145.415Y-35.56
X145.415Y-38.06
X148.59Y-10.16
X148.59Y-22.225
X148.59Y-34.29
X148.59Y-46.355
X148.59Y-58.42
X148.59Y-70.485
X148.59Y-82.55
X148.59Y-94.615
X158.75Y-10.16
X158.75Y-22.225
X158.75Y-34.29
X158.75Y-46.355
X158.75Y-58.42
X158.75Y-70.485
X158.75Y-82.55
X158.75Y-94.615
X163.83Y-10.16
X163.83Y-22.225
X163.83Y-34.29
X163.83Y-46.355
X163.83Y-58.42
X163.83Y-70.485
X163.83Y-82.55
X163.83Y-94.615
X173.99Y-10.16
X173.99Y-22.225
X173.99Y-34.29
X173.99Y-46.355
X173.99Y-58.42
X173.99Y-70.485
X173.99Y-82.55
X173.99Y-94.615
T3
X7.62Y-45.72
X7.62Y-48.26
X7.62Y-50.8
X7.62Y-53.34
X7.62Y-55.88
X7.62Y-58.42
X7.62Y-60.96
X7.62Y-63.5
X7.62Y-66.04
X7.62Y-68.58
X10.16Y-45.72
X10.16Y-48.26
X10.16Y-50.8
X10.16Y-53.34
X10.16Y-55.88
X10.16Y-58.42
X10.16Y-60.96
X10.16Y-63.5
X10.16Y-66.04
X10.16Y-68.58
X91.44Y-43.18
X91.44Y-45.72
X91.44Y-48.26
X91.44Y-50.8
X91.44Y-53.34
X91.44Y-55.88
X91.44Y-58.42
X91.44Y-60.96
X91.44Y-63.5
X91.44Y-66.04
X109.22Y-12.7
X109.22Y-15.24
X109.22Y-17.78
X109.22Y-20.32
X109.22Y-22.86
X109.22Y-25.4
X109.22Y-27.94
X109.22Y-30.48
X109.22Y-33.02
X109.22Y-35.56
X182.88Y-12.7
X182.88Y-15.24
X182.88Y-17.78
X182.88Y-20.32
X182.88Y-22.86
X182.88Y-25.4
X182.88Y-27.94
X182.88Y-30.48
X182.88Y-33.02
X182.88Y-35.56
T4
X15.24Y-116.84
X30.48Y-116.84
X70.485Y-116.84
X80.645Y-116.84
X91.44Y-116.84
X101.6Y-116.84
X111.76Y-116.84
X121.92Y-116.84
X132.08Y-116.84
X142.24Y-116.84
X152.4Y-116.84
X162.56Y-116.84
M30
