ISO-10303-21;
HEADER;
FILE_DESCRIPTION(('FreeCAD Model'),'2;1');
FILE_NAME('Open CASCADE Shape Model','2000-01-01T00:00:00',('FreeCAD'),(
    'FreeCAD'),'Open CASCADE STEP processor 7.9','FreeCAD','Unknown');
FILE_SCHEMA(('AUTOMOTIVE_DESIGN { 1 0 10303 214 1 1 1 1 }'));
ENDSEC;
DATA;
#1 = APPLICATION_PROTOCOL_DEFINITION('international standard',
  'automotive_design',2000,#2);
#2 = APPLICATION_CONTEXT(
  'core data for automotive mechanical design processes');
#3 = SHAPE_DEFINITION_REPRESENTATION(#4,#10);
#4 = PRODUCT_DEFINITION_SHAPE('','',#5);
#5 = PRODUCT_DEFINITION('design','',#6,#9);
#6 = PRODUCT_DEFINITION_FORMATION('','',#7);
#7 = PRODUCT('Open CASCADE STEP translator 7.9 17',
  'Open CASCADE STEP translator 7.9 17','',(#8));
#8 = PRODUCT_CONTEXT('',#2,'mechanical');
#9 = PRODUCT_DEFINITION_CONTEXT('part definition',#2,'design');
#10 = ADVANCED_BREP_SHAPE_REPRESENTATION('',(#11,#15),#860);
#11 = AXIS2_PLACEMENT_3D('',#12,#13,#14);
#12 = CARTESIAN_POINT('',(0.,0.,0.));
#13 = DIRECTION('',(0.,0.,1.));
#14 = DIRECTION('',(1.,0.,-0.));
#15 = MANIFOLD_SOLID_BREP('',#16);
#16 = CLOSED_SHELL('',(#17,#386,#561,#581,#601,#786,#823,#848));
#17 = ADVANCED_FACE('',(#18,#210),#381,.T.);
#18 = FACE_BOUND('',#19,.T.);
#19 = EDGE_LOOP('',(#20,#30,#37,#38,#117,#125,#132,#133));
#20 = ORIENTED_EDGE('',*,*,#21,.T.);
#21 = EDGE_CURVE('',#22,#24,#26,.T.);
#22 = VERTEX_POINT('',#23);
#23 = CARTESIAN_POINT('',(24.46,-2.591352626996E-15,13.3));
#24 = VERTEX_POINT('',#25);
#25 = CARTESIAN_POINT('',(35.,-8.572527594031E-15,35.));
#26 = LINE('',#27,#28);
#27 = CARTESIAN_POINT('',(18.,-4.40872847693E-15,0.));
#28 = VECTOR('',#29,1.);
#29 = DIRECTION('',(0.436903962737,-1.070106079001E-16,0.899508158576));
#30 = ORIENTED_EDGE('',*,*,#31,.F.);
#31 = EDGE_CURVE('',#24,#24,#32,.T.);
#32 = CIRCLE('',#33,35.);
#33 = AXIS2_PLACEMENT_3D('',#34,#35,#36);
#34 = CARTESIAN_POINT('',(0.,0.,35.));
#35 = DIRECTION('',(0.,0.,1.));
#36 = DIRECTION('',(1.,0.,0.));
#37 = ORIENTED_EDGE('',*,*,#21,.F.);
#38 = ORIENTED_EDGE('',*,*,#39,.F.);
#39 = EDGE_CURVE('',#40,#22,#42,.T.);
#40 = VERTEX_POINT('',#41);
#41 = CARTESIAN_POINT('',(21.254285714286,-5.205798593633E-15,6.7));
#42 = B_SPLINE_CURVE_WITH_KNOTS('',7,(#43,#44,#45,#46,#47,#48,#49,#50,
    #51,#52,#53,#54,#55,#56,#57,#58,#59,#60,#61,#62,#63,#64,#65,#66,#67,
    #68,#69,#70,#71,#72,#73,#74,#75,#76,#77,#78,#79,#80,#81,#82,#83,#84,
    #85,#86,#87,#88,#89,#90,#91,#92,#93,#94,#95,#96,#97,#98,#99,#100,
    #101,#102,#103,#104,#105,#106,#107,#108,#109,#110,#111,#112,#113,
    #114,#115,#116),.UNSPECIFIED.,.F.,.F.,(8,6,6,6,6,6,6,6,6,6,6,6,8),(
    0.,8.510470466726E-02,0.142354755394,0.225237129631,0.298145087977,
    0.35854225533,0.526679010714,0.693198943675,0.747536505852,
    0.810430475178,0.880501379991,0.928618636534,1.),.UNSPECIFIED.);
#43 = CARTESIAN_POINT('',(21.254285714286,-5.205798593633E-15,6.7));
#44 = CARTESIAN_POINT('',(21.254285714286,0.166316285431,6.7));
#45 = CARTESIAN_POINT('',(21.257517550133,0.332712050587,6.709779607882)
  );
#46 = CARTESIAN_POINT('',(21.263985148359,0.497367236483,6.729353264814)
  );
#47 = CARTESIAN_POINT('',(21.273578126085,0.658811049862,6.758283955389)
  );
#48 = CARTESIAN_POINT('',(21.286124989683,0.815870605614,6.795867695994)
  );
#49 = CARTESIAN_POINT('',(21.301419521661,0.96763323993,6.84125486197));
#50 = CARTESIAN_POINT('',(21.33119500105,1.211495124093,6.928659348513)
  );
#51 = CARTESIAN_POINT('',(21.344310775808,1.306920253422,6.96693798939)
  );
#52 = CARTESIAN_POINT('',(21.358504473478,1.39954921897,7.008087330542)
  );
#53 = CARTESIAN_POINT('',(21.373713296567,1.489288356256,7.051853898526)
  );
#54 = CARTESIAN_POINT('',(21.389876998003,1.576090296608,7.09799579086)
  );
#55 = CARTESIAN_POINT('',(21.406940022522,1.659945264227,7.146290774767)
  );
#56 = CARTESIAN_POINT('',(21.450787665523,1.858032635148,7.269297834268)
  );
#57 = CARTESIAN_POINT('',(21.478498415776,1.969030621761,7.346139541061)
  );
#58 = CARTESIAN_POINT('',(21.507842480718,2.073953353834,7.426488272378)
  );
#59 = CARTESIAN_POINT('',(21.538688995209,2.172934595872,7.509832867193)
  );
#60 = CARTESIAN_POINT('',(21.570922747203,2.266144168103,7.59573607383)
  );
#61 = CARTESIAN_POINT('',(21.604447277888,2.353777258443,7.683838386397)
  );
#62 = CARTESIAN_POINT('',(21.669747842331,2.508409914356,7.853051567465)
  );
#63 = CARTESIAN_POINT('',(21.701243699205,2.576611241459,7.93371439614)
  );
#64 = CARTESIAN_POINT('',(21.733621368543,2.640783610755,8.015651720359)
  );
#65 = CARTESIAN_POINT('',(21.766830760678,2.70105421317,8.098689318505)
  );
#66 = CARTESIAN_POINT('',(21.80082643462,2.757542585122,8.182676480037)
  );
#67 = CARTESIAN_POINT('',(21.835568152522,2.81036165808,8.267485091288)
  );
#68 = CARTESIAN_POINT('',(21.900391036986,2.900423576245,8.423856748142)
  );
#69 = CARTESIAN_POINT('',(21.930247708341,2.938782134513,8.495192445545)
  );
#70 = CARTESIAN_POINT('',(21.960571029412,2.974754212961,8.566953402832)
  );
#71 = CARTESIAN_POINT('',(21.991341477542,3.008394498763,8.639083089595)
  );
#72 = CARTESIAN_POINT('',(22.02254055396,3.039753118352,8.711530634161)
  );
#73 = CARTESIAN_POINT('',(22.054150911561,3.068876119522,8.784250602105)
  );
#74 = CARTESIAN_POINT('',(22.175255245371,3.170774617014,9.060290802607)
  );
#75 = CARTESIAN_POINT('',(22.267393477505,3.228727399294,9.265125113936)
  );
#76 = CARTESIAN_POINT('',(22.362251652638,3.270613556339,9.470904804254)
  );
#77 = CARTESIAN_POINT('',(22.459507746993,3.297056432876,9.676951465757)
  );
#78 = CARTESIAN_POINT('',(22.558842984294,3.308487892339,9.882687654304)
  );
#79 = CARTESIAN_POINT('',(22.659949815391,3.305171211483,10.08762500404)
  );
#80 = CARTESIAN_POINT('',(22.864147910369,3.269227323073,10.493139816938
    ));
#81 = CARTESIAN_POINT('',(22.967157809293,3.236892216487,10.693635117237
    ));
#82 = CARTESIAN_POINT('',(23.071299528113,3.190138767596,10.892476666424
    ));
#83 = CARTESIAN_POINT('',(23.176233746772,3.12877193255,11.0891994556));
#84 = CARTESIAN_POINT('',(23.281545094961,3.052395283701,11.283241842166
    ));
#85 = CARTESIAN_POINT('',(23.386739315831,2.960420402776,11.473947191892
    ));
#86 = CARTESIAN_POINT('',(23.525302429844,2.816337884051,11.72139590953)
  );
#87 = CARTESIAN_POINT('',(23.559312834423,2.779118978386,11.781829159769
    ));
#88 = CARTESIAN_POINT('',(23.593220455395,2.740094904602,11.841785512214
    ));
#89 = CARTESIAN_POINT('',(23.627000017629,2.699227746295,11.901230380328
    ));
#90 = CARTESIAN_POINT('',(23.660623285807,2.65647583419,11.960124739282)
  );
#91 = CARTESIAN_POINT('',(23.694058869495,2.611793029946,12.018424925928
    ));
#92 = CARTESIAN_POINT('',(23.76571518437,2.511114759832,12.142819143535)
  );
#93 = CARTESIAN_POINT('',(23.803858407995,2.454448721143,12.208691473603
    ));
#94 = CARTESIAN_POINT('',(23.841649244026,2.395047873434,12.273626695863
    ));
#95 = CARTESIAN_POINT('',(23.879025297528,2.332826353568,12.337536555468
    ));
#96 = CARTESIAN_POINT('',(23.915913531613,2.267692745826,12.400316554811
    ));
#97 = CARTESIAN_POINT('',(23.952229565333,2.199548372005,12.461845232504
    ));
#98 = CARTESIAN_POINT('',(24.027592162641,2.048890875456,12.588984123374
    ));
#99 = CARTESIAN_POINT('',(24.066470076441,1.965639881008,12.654246589697
    ));
#100 = CARTESIAN_POINT('',(24.104383350008,1.878373942979,
    12.717588277267));
#101 = CARTESIAN_POINT('',(24.141169156246,1.786947211332,
    12.778771249336));
#102 = CARTESIAN_POINT('',(24.176630325542,1.691232190737,
    12.837504746863));
#103 = CARTESIAN_POINT('',(24.210536467389,1.591125290124,
    12.893447738933));
#104 = CARTESIAN_POINT('',(24.264660151879,1.414742796897,
    12.982444002818));
#105 = CARTESIAN_POINT('',(24.285834887825,1.340837454497,
    13.017171954494));
#106 = CARTESIAN_POINT('',(24.306063398946,1.264819601577,
    13.050267743115));
#107 = CARTESIAN_POINT('',(24.32524771945,1.186693932916,13.081585171569
    ));
#108 = CARTESIAN_POINT('',(24.343281378127,1.106492558563,
    13.110964884181));
#109 = CARTESIAN_POINT('',(24.360052957837,1.024280980884,
    13.138239820182));
#110 = CARTESIAN_POINT('',(24.398290467492,0.815377662162,13.2003291189)
  );
#111 = CARTESIAN_POINT('',(24.418122281297,0.686308824712,
    13.232440098841));
#112 = CARTESIAN_POINT('',(24.434542776411,0.553440455061,
    13.258964611915));
#113 = CARTESIAN_POINT('',(24.447180532169,0.417423743926,
    13.279344554556));
#114 = CARTESIAN_POINT('',(24.455728844823,0.27909817003,13.29311794776)
  );
#115 = CARTESIAN_POINT('',(24.46,0.139520100709,13.3));
#116 = CARTESIAN_POINT('',(24.46,8.082668874373E-16,13.3));
#117 = ORIENTED_EDGE('',*,*,#118,.F.);
#118 = EDGE_CURVE('',#119,#40,#121,.T.);
#119 = VERTEX_POINT('',#120);
#120 = CARTESIAN_POINT('',(18.,-4.40872847693E-15,0.));
#121 = LINE('',#122,#123);
#122 = CARTESIAN_POINT('',(18.,-4.40872847693E-15,0.));
#123 = VECTOR('',#124,1.);
#124 = DIRECTION('',(0.436903962737,-1.070106079001E-16,0.899508158576)
  );
#125 = ORIENTED_EDGE('',*,*,#126,.T.);
#126 = EDGE_CURVE('',#119,#119,#127,.T.);
#127 = CIRCLE('',#128,18.);
#128 = AXIS2_PLACEMENT_3D('',#129,#130,#131);
#129 = CARTESIAN_POINT('',(0.,0.,0.));
#130 = DIRECTION('',(0.,0.,1.));
#131 = DIRECTION('',(1.,0.,0.));
#132 = ORIENTED_EDGE('',*,*,#118,.T.);
#133 = ORIENTED_EDGE('',*,*,#134,.F.);
#134 = EDGE_CURVE('',#22,#40,#135,.T.);
#135 = B_SPLINE_CURVE_WITH_KNOTS('',7,(#136,#137,#138,#139,#140,#141,
    #142,#143,#144,#145,#146,#147,#148,#149,#150,#151,#152,#153,#154,
    #155,#156,#157,#158,#159,#160,#161,#162,#163,#164,#165,#166,#167,
    #168,#169,#170,#171,#172,#173,#174,#175,#176,#177,#178,#179,#180,
    #181,#182,#183,#184,#185,#186,#187,#188,#189,#190,#191,#192,#193,
    #194,#195,#196,#197,#198,#199,#200,#201,#202,#203,#204,#205,#206,
    #207,#208,#209),.UNSPECIFIED.,.F.,.F.,(8,6,6,6,6,6,6,6,6,6,6,6,8),(
    0.,7.178700681933E-02,0.119496150117,0.189567240918,0.252461384868,
    0.307373282294,0.472707263243,0.640878296367,0.701853850417,
    0.774762082921,0.857644760742,0.914895012457,1.),.UNSPECIFIED.);
#136 = CARTESIAN_POINT('',(24.46,8.881784197001E-16,13.3));
#137 = CARTESIAN_POINT('',(24.46,-0.140330908153,13.3));
#138 = CARTESIAN_POINT('',(24.455679037114,-0.28070788336,
    13.293037691698));
#139 = CARTESIAN_POINT('',(24.44703250512,-0.419803304919,
    13.279106046208));
#140 = CARTESIAN_POINT('',(24.434252638856,-0.556551698594,
    13.258496726406));
#141 = CARTESIAN_POINT('',(24.417651785573,-0.690106122962,
    13.231680079163));
#142 = CARTESIAN_POINT('',(24.397608035228,-0.819806040533,
    13.199224118348));
#143 = CARTESIAN_POINT('',(24.359197841833,-1.028463828845,
    13.136849121816));
#144 = CARTESIAN_POINT('',(24.342515532819,-1.109893320498,
    13.109717155102));
#145 = CARTESIAN_POINT('',(24.324596207378,-1.189344352231,
    13.080521580622));
#146 = CARTESIAN_POINT('',(24.305548334458,-1.266753967201,
    13.049425029775));
#147 = CARTESIAN_POINT('',(24.285475537152,-1.342091335531,
    13.016582588029));
#148 = CARTESIAN_POINT('',(24.26447320262,-1.415352041752,12.98213659977
    ));
#149 = CARTESIAN_POINT('',(24.210536464192,-1.591125300542,
    12.893447733676));
#150 = CARTESIAN_POINT('',(24.176630320115,-1.691232206361,
    12.837504737902));
#151 = CARTESIAN_POINT('',(24.14116914971,-1.786947228235,
    12.778771238491));
#152 = CARTESIAN_POINT('',(24.104383343525,-1.878373958241,
    12.717588266452));
#153 = CARTESIAN_POINT('',(24.066470071131,-1.965639892494,
    12.65424658079));
#154 = CARTESIAN_POINT('',(24.027592159532,-2.048890881671,
    12.588984118129));
#155 = CARTESIAN_POINT('',(23.952229563767,-2.199548375134,
    12.461845229862));
#156 = CARTESIAN_POINT('',(23.915913529067,-2.267692750526,
    12.400316550493));
#157 = CARTESIAN_POINT('',(23.879025294557,-2.332826358661,
    12.337536550402));
#158 = CARTESIAN_POINT('',(23.841649241146,-2.395047878041,
    12.273626690923));
#159 = CARTESIAN_POINT('',(23.803858405673,-2.454448724623,
    12.208691469595));
#160 = CARTESIAN_POINT('',(23.765715183021,-2.511114761727,
    12.142819141194));
#161 = CARTESIAN_POINT('',(23.693707908588,-2.612286135642,
    12.017815663401));
#162 = CARTESIAN_POINT('',(23.659916648559,-2.65741992032,
    11.958892577872));
#163 = CARTESIAN_POINT('',(23.62593408946,-2.700582345155,
    11.899363216625));
#164 = CARTESIAN_POINT('',(23.591792586365,-2.741820977077,
    11.839272580894));
#165 = CARTESIAN_POINT('',(23.557521212981,-2.781178721885,
    11.778660848955));
#166 = CARTESIAN_POINT('',(23.523145966512,-2.818694577356,
    11.717563586368));
#167 = CARTESIAN_POINT('',(23.384946577755,-2.961922887034,
    11.47068643439));
#168 = CARTESIAN_POINT('',(23.280502290764,-3.053036319513,
    11.281297430928));
#169 = CARTESIAN_POINT('',(23.175947208242,-3.128777031262,
    11.088625056181));
#170 = CARTESIAN_POINT('',(23.071764550971,-3.189720879468,
    10.893311302656));
#171 = CARTESIAN_POINT('',(22.968360826923,-3.236255905957,
    10.69590572463));
#172 = CARTESIAN_POINT('',(22.866068697648,-3.268574324208,
    10.496864067093));
#173 = CARTESIAN_POINT('',(22.662510945154,-3.305032564824,
    10.092800566003));
#174 = CARTESIAN_POINT('',(22.561346339033,-3.308669176146,
    9.887840497931));
#175 = CARTESIAN_POINT('',(22.46194854755,-3.297555272336,9.682072670708
    ));
#176 = CARTESIAN_POINT('',(22.364625415809,-3.271430388134,
    9.475985132868));
#177 = CARTESIAN_POINT('',(22.269695775741,-3.229865274884,
    9.270154352016));
#178 = CARTESIAN_POINT('',(22.177481514418,-3.172239259738,
    9.065257040138));
#179 = CARTESIAN_POINT('',(22.055967012619,-3.070545724018,
    8.788427635682));
#180 = CARTESIAN_POINT('',(22.024034207456,-3.04125192437,8.714998434353
    ));
#181 = CARTESIAN_POINT('',(21.992519915161,-3.009681292949,
    8.641845117935));
#182 = CARTESIAN_POINT('',(21.96144195885,-2.975786574797,8.569014294142
    ));
#183 = CARTESIAN_POINT('',(21.93081935491,-2.939516280695,8.496558202324
    ));
#184 = CARTESIAN_POINT('',(21.900672179346,-2.90081418244,8.424534945311
    ));
#185 = CARTESIAN_POINT('',(21.835568153537,-2.81036165949,8.267485093736
    ));
#186 = CARTESIAN_POINT('',(21.800826436339,-2.757542587771,
    8.182676484239));
#187 = CARTESIAN_POINT('',(21.76683076277,-2.701054216746,8.098689323694
    ));
#188 = CARTESIAN_POINT('',(21.733621370662,-2.640783614778,8.01565172569
    ));
#189 = CARTESIAN_POINT('',(21.701243700988,-2.576611245233,
    7.933714400694));
#190 = CARTESIAN_POINT('',(21.669747843408,-2.508409916906,
    7.853051570256));
#191 = CARTESIAN_POINT('',(21.604447280051,-2.353777263565,
    7.683838392002));
#192 = CARTESIAN_POINT('',(21.57092275083,-2.266144177725,7.595736083382
    ));
#193 = CARTESIAN_POINT('',(21.538688999553,-2.172934608841,
    7.509832878825));
#194 = CARTESIAN_POINT('',(21.507842485014,-2.073953368388,
    7.426488284073));
#195 = CARTESIAN_POINT('',(21.478498419279,-1.969030635375,
    7.346139550749));
#196 = CARTESIAN_POINT('',(21.450787667555,-1.858032644326,
    7.269297839967));
#197 = CARTESIAN_POINT('',(21.406940023844,-1.659945270198,
    7.146290778475));
#198 = CARTESIAN_POINT('',(21.389877000134,-1.576090307237,
    7.097995796902));
#199 = CARTESIAN_POINT('',(21.373713299006,-1.489288369801,
    7.051853905514));
#200 = CARTESIAN_POINT('',(21.358504475771,-1.399549233284,
    7.008087337172));
#201 = CARTESIAN_POINT('',(21.344310777577,-1.306920265977,
    6.966937994546));
#202 = CARTESIAN_POINT('',(21.331195002015,-1.211495131994,
    6.928659351345));
#203 = CARTESIAN_POINT('',(21.301419523553,-0.967633255426,
    6.841254867524));
#204 = CARTESIAN_POINT('',(21.286124992145,-0.815870631412,
    6.795867703326));
#205 = CARTESIAN_POINT('',(21.273578128157,-0.658811079909,
    6.758283961631));
#206 = CARTESIAN_POINT('',(21.263985149577,-0.497367264604,
    6.729353268503));
#207 = CARTESIAN_POINT('',(21.257517550538,-0.332712071484,
    6.709779609107));
#208 = CARTESIAN_POINT('',(21.254285714286,-0.16631629585,6.7));
#209 = CARTESIAN_POINT('',(21.254285714286,-5.329070518201E-15,6.7));
#210 = FACE_BOUND('',#211,.T.);
#211 = EDGE_LOOP('',(#212));
#212 = ORIENTED_EDGE('',*,*,#213,.T.);
#213 = EDGE_CURVE('',#214,#214,#216,.T.);
#214 = VERTEX_POINT('',#215);
#215 = CARTESIAN_POINT('',(-24.46,8.082668874373E-16,13.3));
#216 = B_SPLINE_CURVE_WITH_KNOTS('',7,(#217,#218,#219,#220,#221,#222,
    #223,#224,#225,#226,#227,#228,#229,#230,#231,#232,#233,#234,#235,
    #236,#237,#238,#239,#240,#241,#242,#243,#244,#245,#246,#247,#248,
    #249,#250,#251,#252,#253,#254,#255,#256,#257,#258,#259,#260,#261,
    #262,#263,#264,#265,#266,#267,#268,#269,#270,#271,#272,#273,#274,
    #275,#276,#277,#278,#279,#280,#281,#282,#283,#284,#285,#286,#287,
    #288,#289,#290,#291,#292,#293,#294,#295,#296,#297,#298,#299,#300,
    #301,#302,#303,#304,#305,#306,#307,#308,#309,#310,#311,#312,#313,
    #314,#315,#316,#317,#318,#319,#320,#321,#322,#323,#324,#325,#326,
    #327,#328,#329,#330,#331,#332,#333,#334,#335,#336,#337,#338,#339,
    #340,#341,#342,#343,#344,#345,#346,#347,#348,#349,#350,#351,#352,
    #353,#354,#355,#356,#357,#358,#359,#360,#361,#362,#363,#364,#365,
    #366,#367,#368,#369,#370,#371,#372,#373,#374,#375,#376,#377,#378,
    #379,#380),.UNSPECIFIED.,.T.,.F.,(8,6,6,6,6,6,6,6,6,6,6,6,6,6,6,6,6,
    6,6,6,6,6,6,6,6,6,6,8),(0.,3.589167638771E-02,5.974503381068E-02,
    9.477879586031E-02,0.126224267142,0.153678818314,0.236341600941,
    0.32042283745,0.350909062611,0.387361323305,0.428800552803,
    0.457424221607,0.471862189533,0.480840546827,0.499991366542,
    0.52811958273,0.542558057268,0.571182730444,0.612623413996,
    0.649076953758,0.679564248644,0.763648435467,0.846314118634,
    0.873769633155,0.905216207822,0.940251199165,0.96451347965,1.),
  .UNSPECIFIED.);
#217 = CARTESIAN_POINT('',(-24.46,8.881784197001E-16,13.3));
#218 = CARTESIAN_POINT('',(-24.46,-0.140330908153,13.3));
#219 = CARTESIAN_POINT('',(-24.45567903711,-0.28070788336,
    13.293037691698));
#220 = CARTESIAN_POINT('',(-24.44703250512,-0.419803304919,
    13.279106046208));
#221 = CARTESIAN_POINT('',(-24.43425263885,-0.556551698594,
    13.258496726405));
#222 = CARTESIAN_POINT('',(-24.41765178557,-0.690106122962,
    13.231680079163));
#223 = CARTESIAN_POINT('',(-24.39760803522,-0.819806040533,
    13.199224118348));
#224 = CARTESIAN_POINT('',(-24.35919784183,-1.028463828845,
    13.136849121816));
#225 = CARTESIAN_POINT('',(-24.34251553281,-1.109893320498,
    13.109717155102));
#226 = CARTESIAN_POINT('',(-24.32459620737,-1.189344352231,
    13.080521580622));
#227 = CARTESIAN_POINT('',(-24.30554833445,-1.266753967201,
    13.049425029775));
#228 = CARTESIAN_POINT('',(-24.28547553715,-1.342091335531,
    13.016582588029));
#229 = CARTESIAN_POINT('',(-24.26447320262,-1.415352041752,
    12.982136599771));
#230 = CARTESIAN_POINT('',(-24.21053646419,-1.591125300542,
    12.893447733676));
#231 = CARTESIAN_POINT('',(-24.17663032011,-1.691232206361,
    12.837504737902));
#232 = CARTESIAN_POINT('',(-24.14116914971,-1.786947228235,
    12.778771238491));
#233 = CARTESIAN_POINT('',(-24.10438334352,-1.878373958241,
    12.717588266452));
#234 = CARTESIAN_POINT('',(-24.06647007113,-1.965639892494,
    12.65424658079));
#235 = CARTESIAN_POINT('',(-24.02759215953,-2.048890881671,
    12.588984118129));
#236 = CARTESIAN_POINT('',(-23.95222956376,-2.199548375134,
    12.461845229863));
#237 = CARTESIAN_POINT('',(-23.91591352906,-2.267692750526,
    12.400316550493));
#238 = CARTESIAN_POINT('',(-23.87902529455,-2.332826358661,
    12.337536550402));
#239 = CARTESIAN_POINT('',(-23.84164924114,-2.395047878041,
    12.273626690923));
#240 = CARTESIAN_POINT('',(-23.80385840567,-2.454448724623,
    12.208691469595));
#241 = CARTESIAN_POINT('',(-23.76571518302,-2.511114761727,
    12.142819141194));
#242 = CARTESIAN_POINT('',(-23.69370790858,-2.612286135642,
    12.017815663401));
#243 = CARTESIAN_POINT('',(-23.65991664855,-2.65741992032,
    11.958892577872));
#244 = CARTESIAN_POINT('',(-23.62593408946,-2.700582345155,
    11.899363216625));
#245 = CARTESIAN_POINT('',(-23.59179258636,-2.741820977077,
    11.839272580894));
#246 = CARTESIAN_POINT('',(-23.55752121298,-2.781178721885,
    11.778660848955));
#247 = CARTESIAN_POINT('',(-23.52314596651,-2.818694577356,
    11.717563586368));
#248 = CARTESIAN_POINT('',(-23.38494657775,-2.961922887034,
    11.470686434389));
#249 = CARTESIAN_POINT('',(-23.28050229076,-3.053036319512,
    11.28129743093));
#250 = CARTESIAN_POINT('',(-23.17594720824,-3.128777031263,
    11.088625056177));
#251 = CARTESIAN_POINT('',(-23.07176455097,-3.189720879467,
    10.89331130266));
#252 = CARTESIAN_POINT('',(-22.96836082692,-3.236255905957,
    10.695905724628));
#253 = CARTESIAN_POINT('',(-22.86606869764,-3.268574324208,
    10.496864067094));
#254 = CARTESIAN_POINT('',(-22.66251094515,-3.305032564824,
    10.092800566003));
#255 = CARTESIAN_POINT('',(-22.56134633903,-3.308669176146,
    9.887840497932));
#256 = CARTESIAN_POINT('',(-22.46194854755,-3.297555272336,
    9.682072670708));
#257 = CARTESIAN_POINT('',(-22.3646254158,-3.271430388134,9.475985132868
    ));
#258 = CARTESIAN_POINT('',(-22.26969577574,-3.229865274884,
    9.270154352016));
#259 = CARTESIAN_POINT('',(-22.17748151441,-3.172239259738,
    9.065257040138));
#260 = CARTESIAN_POINT('',(-22.05596701261,-3.070545724018,
    8.788427635682));
#261 = CARTESIAN_POINT('',(-22.02403420745,-3.04125192437,8.714998434353
    ));
#262 = CARTESIAN_POINT('',(-21.99251991516,-3.009681292949,
    8.641845117935));
#263 = CARTESIAN_POINT('',(-21.96144195885,-2.975786574797,
    8.569014294142));
#264 = CARTESIAN_POINT('',(-21.93081935491,-2.939516280695,
    8.496558202324));
#265 = CARTESIAN_POINT('',(-21.90067217934,-2.90081418244,8.424534945311
    ));
#266 = CARTESIAN_POINT('',(-21.83556815353,-2.81036165949,8.267485093736
    ));
#267 = CARTESIAN_POINT('',(-21.80082643633,-2.757542587771,
    8.182676484239));
#268 = CARTESIAN_POINT('',(-21.76683076277,-2.701054216746,
    8.098689323694));
#269 = CARTESIAN_POINT('',(-21.73362137066,-2.640783614778,8.01565172569
    ));
#270 = CARTESIAN_POINT('',(-21.70124370098,-2.576611245233,
    7.933714400694));
#271 = CARTESIAN_POINT('',(-21.6697478434,-2.508409916906,7.853051570256
    ));
#272 = CARTESIAN_POINT('',(-21.60444728005,-2.353777263565,
    7.683838392002));
#273 = CARTESIAN_POINT('',(-21.57092275083,-2.266144177725,
    7.595736083382));
#274 = CARTESIAN_POINT('',(-21.53868899955,-2.172934608841,
    7.509832878825));
#275 = CARTESIAN_POINT('',(-21.50784248501,-2.073953368388,
    7.426488284073));
#276 = CARTESIAN_POINT('',(-21.47849841927,-1.969030635375,
    7.346139550749));
#277 = CARTESIAN_POINT('',(-21.45078766755,-1.858032644326,
    7.269297839967));
#278 = CARTESIAN_POINT('',(-21.40694002384,-1.659945270198,
    7.146290778475));
#279 = CARTESIAN_POINT('',(-21.38987700013,-1.576090307237,
    7.097995796902));
#280 = CARTESIAN_POINT('',(-21.373713299,-1.489288369801,7.051853905514)
  );
#281 = CARTESIAN_POINT('',(-21.35850447577,-1.399549233284,
    7.008087337172));
#282 = CARTESIAN_POINT('',(-21.34431077757,-1.306920265977,
    6.966937994546));
#283 = CARTESIAN_POINT('',(-21.33119500201,-1.211495131994,
    6.928659351345));
#284 = CARTESIAN_POINT('',(-21.31318026491,-1.063954006831,6.87577795771
    ));
#285 = CARTESIAN_POINT('',(-21.30743067432,-1.013813364728,
    6.858843761272));
#286 = CARTESIAN_POINT('',(-21.30197980405,-0.963021111442,
    6.842738958211));
#287 = CARTESIAN_POINT('',(-21.29683588814,-0.911601822449,
    6.827496855356));
#288 = CARTESIAN_POINT('',(-21.29200703363,-0.859584487425,
    6.813150274206));
#289 = CARTESIAN_POINT('',(-21.28750107969,-0.807002892511,
    6.799730952745));
#290 = CARTESIAN_POINT('',(-21.28072881477,-0.720871089733,
    6.779519356834));
#291 = CARTESIAN_POINT('',(-21.27825990022,-0.687642980301,
    6.772139915218));
#292 = CARTESIAN_POINT('',(-21.27592051745,-0.654221045516,
    6.765137923417));
#293 = CARTESIAN_POINT('',(-21.27371237541,-0.620615338444,6.75852029682
    ));
#294 = CARTESIAN_POINT('',(-21.27163708765,-0.586836593993,
    6.752293565198));
#295 = CARTESIAN_POINT('',(-21.26969617238,-0.552896228913,6.7464638727)
  );
#296 = CARTESIAN_POINT('',(-21.26404073486,-0.446092674801,
    6.729461421054));
#297 = CARTESIAN_POINT('',(-21.2608080317,-0.372695044321,6.719717757164
    ));
#298 = CARTESIAN_POINT('',(-21.25820689079,-0.298736229032,
    6.711862181879));
#299 = CARTESIAN_POINT('',(-21.25624829267,-0.224346248569,
    6.705939112299));
#300 = CARTESIAN_POINT('',(-21.25493990122,-0.149662452721,
    6.701979642648));
#301 = CARTESIAN_POINT('',(-21.25428571428,-7.482961063023E-02,6.7));
#302 = CARTESIAN_POINT('',(-21.25428571428,0.109907747888,6.7));
#303 = CARTESIAN_POINT('',(-21.25569714914,0.219832874147,6.704270962908
    ));
#304 = CARTESIAN_POINT('',(-21.25852000563,0.329276249655,6.712813923324
    ));
#305 = CARTESIAN_POINT('',(-21.2627353066,0.437786987654,6.725551551592)
  );
#306 = CARTESIAN_POINT('',(-21.26830814958,0.544960436991,6.742341737807
    ));
#307 = CARTESIAN_POINT('',(-21.2751907454,0.650436175367,6.762991175822)
  );
#308 = CARTESIAN_POINT('',(-21.28750107969,0.807002892511,6.799730952745
    ));
#309 = CARTESIAN_POINT('',(-21.29200703363,0.859584487425,6.813150274206
    ));
#310 = CARTESIAN_POINT('',(-21.29683588814,0.91160182245,6.827496855356)
  );
#311 = CARTESIAN_POINT('',(-21.30197980405,0.963021111442,6.842738958212
    ));
#312 = CARTESIAN_POINT('',(-21.30743067432,1.013813364728,6.858843761272
    ));
#313 = CARTESIAN_POINT('',(-21.31318026491,1.063954006831,6.87577795771)
  );
#314 = CARTESIAN_POINT('',(-21.33119500201,1.211495131994,6.928659351345
    ));
#315 = CARTESIAN_POINT('',(-21.34431077757,1.306920265977,6.966937994546
    ));
#316 = CARTESIAN_POINT('',(-21.35850447577,1.399549233284,7.008087337172
    ));
#317 = CARTESIAN_POINT('',(-21.373713299,1.489288369801,7.051853905514)
  );
#318 = CARTESIAN_POINT('',(-21.38987700013,1.576090307237,7.097995796902
    ));
#319 = CARTESIAN_POINT('',(-21.40694002384,1.659945270198,7.146290778475
    ));
#320 = CARTESIAN_POINT('',(-21.45078766755,1.858032644326,7.269297839967
    ));
#321 = CARTESIAN_POINT('',(-21.47849841927,1.969030635375,7.346139550749
    ));
#322 = CARTESIAN_POINT('',(-21.50784248501,2.073953368388,7.426488284073
    ));
#323 = CARTESIAN_POINT('',(-21.53868899955,2.172934608841,7.509832878825
    ));
#324 = CARTESIAN_POINT('',(-21.57092275083,2.266144177725,7.595736083382
    ));
#325 = CARTESIAN_POINT('',(-21.60444728005,2.353777263565,7.683838392002
    ));
#326 = CARTESIAN_POINT('',(-21.6697478434,2.508409916906,7.853051570256)
  );
#327 = CARTESIAN_POINT('',(-21.70124370098,2.576611245233,7.933714400694
    ));
#328 = CARTESIAN_POINT('',(-21.73362137066,2.640783614778,8.015651725691
    ));
#329 = CARTESIAN_POINT('',(-21.76683076277,2.701054216746,8.098689323694
    ));
#330 = CARTESIAN_POINT('',(-21.80082643633,2.757542587771,8.182676484239
    ));
#331 = CARTESIAN_POINT('',(-21.83556815353,2.81036165949,8.267485093736)
  );
#332 = CARTESIAN_POINT('',(-21.90067217934,2.90081418244,8.424534945311)
  );
#333 = CARTESIAN_POINT('',(-21.93081935491,2.939516280695,8.496558202324
    ));
#334 = CARTESIAN_POINT('',(-21.96144195885,2.975786574797,8.569014294142
    ));
#335 = CARTESIAN_POINT('',(-21.99251991516,3.009681292949,8.641845117935
    ));
#336 = CARTESIAN_POINT('',(-22.02403420745,3.04125192437,8.714998434353)
  );
#337 = CARTESIAN_POINT('',(-22.05596701261,3.070545724018,8.788427635682
    ));
#338 = CARTESIAN_POINT('',(-22.17748151441,3.172239259738,9.065257040138
    ));
#339 = CARTESIAN_POINT('',(-22.26969577574,3.229865274884,9.270154352016
    ));
#340 = CARTESIAN_POINT('',(-22.3646254158,3.271430388134,9.475985132868)
  );
#341 = CARTESIAN_POINT('',(-22.46194854755,3.297555272336,9.682072670708
    ));
#342 = CARTESIAN_POINT('',(-22.56134633903,3.308669176146,9.887840497932
    ));
#343 = CARTESIAN_POINT('',(-22.66251094515,3.305032564824,
    10.092800566004));
#344 = CARTESIAN_POINT('',(-22.86606869764,3.268574324208,
    10.496864067093));
#345 = CARTESIAN_POINT('',(-22.96836082692,3.236255905957,
    10.695905724631));
#346 = CARTESIAN_POINT('',(-23.07176455097,3.189720879468,
    10.893311302654));
#347 = CARTESIAN_POINT('',(-23.17594720824,3.128777031262,
    11.088625056183));
#348 = CARTESIAN_POINT('',(-23.28050229076,3.053036319513,
    11.281297430927));
#349 = CARTESIAN_POINT('',(-23.38494657775,2.961922887033,11.47068643439
    ));
#350 = CARTESIAN_POINT('',(-23.52314596651,2.818694577356,
    11.717563586368));
#351 = CARTESIAN_POINT('',(-23.55752121298,2.781178721885,
    11.778660848955));
#352 = CARTESIAN_POINT('',(-23.59179258636,2.741820977077,
    11.839272580895));
#353 = CARTESIAN_POINT('',(-23.62593408946,2.700582345154,
    11.899363216625));
#354 = CARTESIAN_POINT('',(-23.65991664856,2.65741992032,11.958892577872
    ));
#355 = CARTESIAN_POINT('',(-23.69370790858,2.612286135642,
    12.017815663401));
#356 = CARTESIAN_POINT('',(-23.76571518302,2.511114761727,
    12.142819141195));
#357 = CARTESIAN_POINT('',(-23.80385840567,2.454448724623,
    12.208691469595));
#358 = CARTESIAN_POINT('',(-23.84164924114,2.395047878041,
    12.273626690923));
#359 = CARTESIAN_POINT('',(-23.87902529455,2.33282635866,12.337536550402
    ));
#360 = CARTESIAN_POINT('',(-23.91591352906,2.267692750525,
    12.400316550493));
#361 = CARTESIAN_POINT('',(-23.95222956376,2.199548375134,
    12.461845229863));
#362 = CARTESIAN_POINT('',(-24.02759215953,2.048890881671,12.58898411813
    ));
#363 = CARTESIAN_POINT('',(-24.06647007113,1.965639892494,12.65424658079
    ));
#364 = CARTESIAN_POINT('',(-24.10438334352,1.878373958241,
    12.717588266452));
#365 = CARTESIAN_POINT('',(-24.14116914971,1.786947228235,
    12.778771238491));
#366 = CARTESIAN_POINT('',(-24.17663032011,1.69123220636,12.837504737902
    ));
#367 = CARTESIAN_POINT('',(-24.21053646419,1.591125300542,
    12.893447733676));
#368 = CARTESIAN_POINT('',(-24.26484696957,1.414133980772,
    12.982751189543));
#369 = CARTESIAN_POINT('',(-24.28619386283,1.339584150227,
    13.017760691452));
#370 = CARTESIAN_POINT('',(-24.30657769708,1.262885671054,
    13.051109166355));
#371 = CARTESIAN_POINT('',(-24.3258978811,1.18404352735,13.082646494264)
  );
#372 = CARTESIAN_POINT('',(-24.34404504289,1.103091147891,
    13.112208970018));
#373 = CARTESIAN_POINT('',(-24.36090476544,1.020096657163,13.13962502555
    ));
#374 = CARTESIAN_POINT('',(-24.39896840726,0.810952338514,
    13.201426780813));
#375 = CARTESIAN_POINT('',(-24.41858996636,0.682513487995,
    13.233195557632));
#376 = CARTESIAN_POINT('',(-24.43483078117,0.550332151824,
    13.259429052516));
#377 = CARTESIAN_POINT('',(-24.44732666957,0.41505253768,13.279580014472
    ));
#378 = CARTESIAN_POINT('',(-24.4557775171,0.277502851295,13.293196374532
    ));
#379 = CARTESIAN_POINT('',(-24.46,0.138722909646,13.3));
#380 = CARTESIAN_POINT('',(-24.46,8.881784197001E-16,13.3));
#381 = CONICAL_SURFACE('',#382,18.,0.452153862286);
#382 = AXIS2_PLACEMENT_3D('',#383,#384,#385);
#383 = CARTESIAN_POINT('',(0.,0.,0.));
#384 = DIRECTION('',(0.,0.,1.));
#385 = DIRECTION('',(1.,0.,0.));
#386 = ADVANCED_FACE('',(#387),#556,.F.);
#387 = FACE_BOUND('',#388,.F.);
#388 = EDGE_LOOP('',(#389,#390,#398,#477,#554,#555));
#389 = ORIENTED_EDGE('',*,*,#134,.F.);
#390 = ORIENTED_EDGE('',*,*,#391,.F.);
#391 = EDGE_CURVE('',#392,#22,#394,.T.);
#392 = VERTEX_POINT('',#393);
#393 = CARTESIAN_POINT('',(19.821212121212,-2.023264954228E-15,13.3));
#394 = LINE('',#395,#396);
#395 = CARTESIAN_POINT('',(-30.,8.082668874373E-16,13.3));
#396 = VECTOR('',#397,1.);
#397 = DIRECTION('',(1.,0.,0.));
#398 = ORIENTED_EDGE('',*,*,#399,.T.);
#399 = EDGE_CURVE('',#392,#400,#402,.T.);
#400 = VERTEX_POINT('',#401);
#401 = CARTESIAN_POINT('',(16.421212121212,-4.022036972472E-15,6.7));
#402 = B_SPLINE_CURVE_WITH_KNOTS('',7,(#403,#404,#405,#406,#407,#408,
    #409,#410,#411,#412,#413,#414,#415,#416,#417,#418,#419,#420,#421,
    #422,#423,#424,#425,#426,#427,#428,#429,#430,#431,#432,#433,#434,
    #435,#436,#437,#438,#439,#440,#441,#442,#443,#444,#445,#446,#447,
    #448,#449,#450,#451,#452,#453,#454,#455,#456,#457,#458,#459,#460,
    #461,#462,#463,#464,#465,#466,#467,#468,#469,#470,#471,#472,#473,
    #474,#475,#476),.UNSPECIFIED.,.F.,.F.,(8,6,6,6,6,6,6,6,6,6,6,6,8),(
    0.,6.79129086571E-02,0.114327808448,0.182092286541,0.24378721922,
    0.297603504139,0.464957665579,0.63541675339,0.697783275103,
    0.772880277283,0.857343380841,0.914990350167,1.),.UNSPECIFIED.);
#403 = CARTESIAN_POINT('',(19.821212121212,8.881784197001E-16,13.3));
#404 = CARTESIAN_POINT('',(19.821212121212,-0.134234187125,13.3));
#405 = CARTESIAN_POINT('',(19.816869797079,-0.268509858723,
    13.293629530348));
#406 = CARTESIAN_POINT('',(19.808180753303,-0.401595731774,
    13.280882483826));
#407 = CARTESIAN_POINT('',(19.795335699731,-0.532503817012,
    13.262022652239));
#408 = CARTESIAN_POINT('',(19.778645131369,-0.66044875308,
    13.237476367182));
#409 = CARTESIAN_POINT('',(19.758485466226,-0.784817722145,
    13.207759225689));
#410 = CARTESIAN_POINT('',(19.719397795986,-0.987392374728,
    13.149979397587));
#411 = CARTESIAN_POINT('',(19.702091620656,-1.067791153579,
    13.124358407906));
#412 = CARTESIAN_POINT('',(19.683467270316,-1.146246434611,
    13.096736925395));
#413 = CARTESIAN_POINT('',(19.663642323624,-1.222696429415,
    13.067275591235));
#414 = CARTESIAN_POINT('',(19.642728961065,-1.297112448414,
    13.036127352052));
#415 = CARTESIAN_POINT('',(19.620830143223,-1.369492939201,
    13.003432117832));
#416 = CARTESIAN_POINT('',(19.564756658389,-1.542587886176,
    12.919496138516));
#417 = CARTESIAN_POINT('',(19.529576240775,-1.640999091581,
    12.866653811541));
#418 = CARTESIAN_POINT('',(19.492771513357,-1.735174677516,
    12.811157728426));
#419 = CARTESIAN_POINT('',(19.454584731689,-1.825225056816,
    12.753333935273));
#420 = CARTESIAN_POINT('',(19.415222449398,-1.911282665522,
    12.693459053672));
#421 = CARTESIAN_POINT('',(19.374854537872,-1.993497109659,
    12.631758099582));
#422 = CARTESIAN_POINT('',(19.296065787739,-2.143529433237,
    12.510721172474));
#423 = CARTESIAN_POINT('',(19.257801034046,-2.211964818762,
    12.451678479669));
#424 = CARTESIAN_POINT('',(19.218923597916,-2.277450930404,
    12.391410773476));
#425 = CARTESIAN_POINT('',(19.179524720276,-2.340091955043,
    12.330036542611));
#426 = CARTESIAN_POINT('',(19.139683079458,-2.399983863473,
    12.267657037756));
#427 = CARTESIAN_POINT('',(19.099465640738,-2.457216469251,
    12.204357094498));
#428 = CARTESIAN_POINT('',(19.023568097749,-2.559554367679,
    12.084247131362));
#429 = CARTESIAN_POINT('',(18.987966092605,-2.605272663053,
    12.027643251912));
#430 = CARTESIAN_POINT('',(18.952160781916,-2.649085494376,
    11.970441960482));
#431 = CARTESIAN_POINT('',(18.916186687711,-2.691042215822,
    11.91268587489));
#432 = CARTESIAN_POINT('',(18.88007479988,-2.731187255609,
    11.854412814817));
#433 = CARTESIAN_POINT('',(18.843852813471,-2.769560956595,
    11.795656028432));
#434 = CARTESIAN_POINT('',(18.694638976453,-2.920139276807,
    11.552312250583));
#435 = CARTESIAN_POINT('',(18.580942953176,-3.017270059733,
    11.363841765003));
#436 = CARTESIAN_POINT('',(18.46714847957,-3.098770632288,
    11.171824564497));
#437 = CARTESIAN_POINT('',(18.353818924445,-3.165282965649,
    10.97689547478));
#438 = CARTESIAN_POINT('',(18.241430309667,-3.217240875259,
    10.779588632563));
#439 = CARTESIAN_POINT('',(18.130373902735,-3.25485802075,
    10.580334908957));
#440 = CARTESIAN_POINT('',(17.909531750795,-3.301793701738,
    10.174868550198));
#441 = CARTESIAN_POINT('',(17.799869282886,-3.31056053953,9.968708287501
    ));
#442 = CARTESIAN_POINT('',(17.692325623245,-3.304411551078,
    9.761360385551));
#443 = CARTESIAN_POINT('',(17.587270452426,-3.283065504241,9.55328804046
    ));
#444 = CARTESIAN_POINT('',(17.485085389653,-3.246055107702,9.34504618594
    ));
#445 = CARTESIAN_POINT('',(17.38615129905,-3.192705802829,9.137295539861
    ));
#446 = CARTESIAN_POINT('',(17.255961739519,-3.096126907115,
    8.855284309621));
#447 = CARTESIAN_POINT('',(17.221575904952,-3.067935245382,
    8.779921489644));
#448 = CARTESIAN_POINT('',(17.187697236516,-3.037373940981,
    8.704779683275));
#449 = CARTESIAN_POINT('',(17.154346409116,-3.004390380661,
    8.629906799395));
#450 = CARTESIAN_POINT('',(17.121545145954,-2.968927160953,
    8.555356877709));
#451 = CARTESIAN_POINT('',(17.089315980547,-2.930921538214,
    8.481190370536));
#452 = CARTESIAN_POINT('',(17.019590817969,-2.841397399372,
    8.318711312586));
#453 = CARTESIAN_POINT('',(16.982364729114,-2.788707047225,
    8.230606434082));
#454 = CARTESIAN_POINT('',(16.946042370516,-2.732111442019,
    8.143273223361));
#455 = CARTESIAN_POINT('',(16.910668075046,-2.6714813836,8.056849509323)
  );
#456 = CARTESIAN_POINT('',(16.876290854894,-2.606679593438,
    7.971498710911));
#457 = CARTESIAN_POINT('',(16.842963366369,-2.537559456189,
    7.887411032527));
#458 = CARTESIAN_POINT('',(16.774499592467,-2.381189208077,
    7.711895615939));
#459 = CARTESIAN_POINT('',(16.739663479413,-2.29277030056,7.620879874349
    ));
#460 = CARTESIAN_POINT('',(16.706305626412,-2.198472182199,
    7.532052342275));
#461 = CARTESIAN_POINT('',(16.674519841442,-2.098074409184,
    7.445797882371));
#462 = CARTESIAN_POINT('',(16.6444164682,-1.991382654137,7.36258762234)
  );
#463 = CARTESIAN_POINT('',(16.616118204716,-1.87824040983,7.282975264928
    ));
#464 = CARTESIAN_POINT('',(16.571763382724,-1.676844359006,
    7.156144469407));
#465 = CARTESIAN_POINT('',(16.554675793271,-1.592106759197,7.10667505493
    ));
#466 = CARTESIAN_POINT('',(16.538536479919,-1.504304146145,
    7.059389436564));
#467 = CARTESIAN_POINT('',(16.523394680413,-1.413443058256,
    7.014521889624));
#468 = CARTESIAN_POINT('',(16.509303582183,-1.319569685654,
    6.972328063629));
#469 = CARTESIAN_POINT('',(16.496318360592,-1.222779236153,
    6.933076363292));
#470 = CARTESIAN_POINT('',(16.467057632036,-0.976417147293,
    6.843896975973));
#471 = CARTESIAN_POINT('',(16.452130471631,-0.823472302668,
    6.797698057691));
#472 = CARTESIAN_POINT('',(16.439924701001,-0.665078742953,
    6.759414096928));
#473 = CARTESIAN_POINT('',(16.430614513929,-0.502170050991,
    6.729927454957));
#474 = CARTESIAN_POINT('',(16.424345089378,-0.335950402778,
    6.709970820962));
#475 = CARTESIAN_POINT('',(16.421212121212,-0.167934150111,6.7));
#476 = CARTESIAN_POINT('',(16.421212121212,-3.996802888651E-15,6.7));
#477 = ORIENTED_EDGE('',*,*,#478,.T.);
#478 = EDGE_CURVE('',#400,#392,#479,.T.);
#479 = B_SPLINE_CURVE_WITH_KNOTS('',7,(#480,#481,#482,#483,#484,#485,
    #486,#487,#488,#489,#490,#491,#492,#493,#494,#495,#496,#497,#498,
    #499,#500,#501,#502,#503,#504,#505,#506,#507,#508,#509,#510,#511,
    #512,#513,#514,#515,#516,#517,#518,#519,#520,#521,#522,#523,#524,
    #525,#526,#527,#528,#529,#530,#531,#532,#533,#534,#535,#536,#537,
    #538,#539,#540,#541,#542,#543,#544,#545,#546,#547,#548,#549,#550,
    #551,#552,#553),.UNSPECIFIED.,.F.,.F.,(8,6,6,6,6,6,6,6,6,6,6,6,8),(
    0.,8.500954003426E-02,0.14265642406,0.22661423735,0.301664751785,
    0.364001295861,0.535657579808,0.702395078966,0.756211208843,
    0.817905967403,0.885670263115,0.932085047723,1.),.UNSPECIFIED.);
#480 = CARTESIAN_POINT('',(16.421212121212,-4.022036972472E-15,6.7));
#481 = CARTESIAN_POINT('',(16.421212121212,0.167934139509,6.7));
#482 = CARTESIAN_POINT('',(16.424345088982,0.33595038152,6.709970819703)
  );
#483 = CARTESIAN_POINT('',(16.430614512741,0.502170022406,6.729927451168
    ));
#484 = CARTESIAN_POINT('',(16.439924698975,0.665078712443,6.759414090524
    ));
#485 = CARTESIAN_POINT('',(16.452130469217,0.823472276507,6.79769805018)
  );
#486 = CARTESIAN_POINT('',(16.467057630172,0.976417131602,6.843896970293
    ));
#487 = CARTESIAN_POINT('',(16.496318359632,1.222779228067,6.933076360366
    ));
#488 = CARTESIAN_POINT('',(16.509303580418,1.319569672827,6.972328058302
    ));
#489 = CARTESIAN_POINT('',(16.523394678118,1.413443043656,7.014521882779
    ));
#490 = CARTESIAN_POINT('',(16.53853647747,1.504304132353,7.059389429358)
  );
#491 = CARTESIAN_POINT('',(16.554675791125,1.592106748394,7.106675048704
    ));
#492 = CARTESIAN_POINT('',(16.57176338139,1.676844352949,7.156144465592)
  );
#493 = CARTESIAN_POINT('',(16.615960536277,1.877524505681,7.282524418488
    ));
#494 = CARTESIAN_POINT('',(16.644078134286,1.990029424681,7.361635723404
    ));
#495 = CARTESIAN_POINT('',(16.673980087707,2.096160053464,7.444305770529
    ));
#496 = CARTESIAN_POINT('',(16.705545788205,2.196069677937,7.529990118837
    ));
#497 = CARTESIAN_POINT('',(16.738666720555,2.289948815877,7.618225070553
    ));
#498 = CARTESIAN_POINT('',(16.77325053581,2.378013766473,7.708631313286)
  );
#499 = CARTESIAN_POINT('',(16.841383077123,2.534225891529,7.883412927198
    ));
#500 = CARTESIAN_POINT('',(16.874646612819,2.603481492383,7.967395347605
    ));
#501 = CARTESIAN_POINT('',(16.90896041543,2.668418991504,8.052646069286)
  );
#502 = CARTESIAN_POINT('',(16.944271788806,2.729184917954,8.13897438623)
  );
#503 = CARTESIAN_POINT('',(16.980531693393,2.785916544702,8.22621644749)
  );
#504 = CARTESIAN_POINT('',(17.017695782865,2.838743132572,8.314234064138
    ));
#505 = CARTESIAN_POINT('',(17.087312665215,2.928522885111,8.476570180884
    ));
#506 = CARTESIAN_POINT('',(17.119495570334,2.966647049629,8.550680007572
    ));
#507 = CARTESIAN_POINT('',(17.152251040143,3.00222838811,8.625175651912)
  );
#508 = CARTESIAN_POINT('',(17.185556534367,3.035329737183,8.699996488676
    ));
#509 = CARTESIAN_POINT('',(17.219390326904,3.066008600085,8.775088329121
    ));
#510 = CARTESIAN_POINT('',(17.253731744323,3.094317697021,8.850403138325
    ));
#511 = CARTESIAN_POINT('',(17.384471918775,3.19186823072,9.133791197928)
  );
#512 = CARTESIAN_POINT('',(17.484058159535,3.245809609539,9.342997113686
    ));
#513 = CARTESIAN_POINT('',(17.58694524815,3.283176238888,9.55270765608)
  );
#514 = CARTESIAN_POINT('',(17.692744108143,3.304657756931,9.762247261385
    ));
#515 = CARTESIAN_POINT('',(17.801064848117,3.310731109793,9.97104920206)
  );
#516 = CARTESIAN_POINT('',(17.911529896303,3.301682499058,
    10.178641006893));
#517 = CARTESIAN_POINT('',(18.132827169778,3.254024285731,
    10.584735620704));
#518 = CARTESIAN_POINT('',(18.2434991031,3.216282536143,10.783220000823)
  );
#519 = CARTESIAN_POINT('',(18.355487546758,3.164302384943,
    10.979765222369));
#520 = CARTESIAN_POINT('',(18.468404924214,3.097870124633,
    11.173944555814));
#521 = CARTESIAN_POINT('',(18.58177989019,3.01655486235,11.365229097057)
  );
#522 = CARTESIAN_POINT('',(18.69505468495,2.919719766871,11.552990204305
    ));
#523 = CARTESIAN_POINT('',(18.843852814106,2.769560955955,
    11.795656029466));
#524 = CARTESIAN_POINT('',(18.880074800975,2.731187254441,11.85441281659
    ));
#525 = CARTESIAN_POINT('',(18.916186689071,2.691042214286,
    11.912685877081));
#526 = CARTESIAN_POINT('',(18.952160783324,2.649085492692,
    11.970441962737));
#527 = CARTESIAN_POINT('',(18.98796609382,2.605272661513,12.027643253845
    ));
#528 = CARTESIAN_POINT('',(19.023568098502,2.559554366664,
    12.084247132553));
#529 = CARTESIAN_POINT('',(19.099465642255,2.457216467206,
    12.204357096897));
#530 = CARTESIAN_POINT('',(19.139683082072,2.399983859723,
    12.267657041867));
#531 = CARTESIAN_POINT('',(19.17952472352,2.340091950082,12.330036547681
    ));
#532 = CARTESIAN_POINT('',(19.218923601266,2.277450924924,
    12.391410778681));
#533 = CARTESIAN_POINT('',(19.25780103692,2.211964813705,12.451678484109
    ));
#534 = CARTESIAN_POINT('',(19.296065789509,2.143529429869,
    12.510721175191));
#535 = CARTESIAN_POINT('',(19.374854541327,1.99349710308,12.631758104889
    ));
#536 = CARTESIAN_POINT('',(19.415222455304,1.911282653373,
    12.693459062692));
#537 = CARTESIAN_POINT('',(19.454584738907,1.825225040684,
    12.753333946236));
#538 = CARTESIAN_POINT('',(19.492771520641,1.735174659653,12.81115773943
    ));
#539 = CARTESIAN_POINT('',(19.529576246828,1.640999075069,12.86665382064
    ));
#540 = CARTESIAN_POINT('',(19.564756661958,1.542587875161,
    12.919496143857));
#541 = CARTESIAN_POINT('',(19.620830145561,1.369492931984,
    13.003432121332));
#542 = CARTESIAN_POINT('',(19.642728964882,1.29711243565,13.036127357748
    ));
#543 = CARTESIAN_POINT('',(19.663642328042,1.222696413253,13.06727559781
    ));
#544 = CARTESIAN_POINT('',(19.683467274512,1.146246417631,
    13.096736931622));
#545 = CARTESIAN_POINT('',(19.702091623919,1.06779113876,13.12435841274)
  );
#546 = CARTESIAN_POINT('',(19.719397797778,0.987392365439,
    13.149979400237));
#547 = CARTESIAN_POINT('',(19.75848621992,0.784813816069,13.207760339808
    ));
#548 = CARTESIAN_POINT('',(19.778645172957,0.660447172082,
    13.237476426691));
#549 = CARTESIAN_POINT('',(19.795336079469,0.53250187344,13.262023210567
    ));
#550 = CARTESIAN_POINT('',(19.808181804483,0.40158831939,13.280884029685
    ));
#551 = CARTESIAN_POINT('',(19.816870706506,0.268495876858,13.29363086437
    ));
#552 = CARTESIAN_POINT('',(19.821212121212,0.134220422514,13.3));
#553 = CARTESIAN_POINT('',(19.821212121212,8.082668874373E-16,13.3));
#554 = ORIENTED_EDGE('',*,*,#391,.T.);
#555 = ORIENTED_EDGE('',*,*,#39,.F.);
#556 = CYLINDRICAL_SURFACE('',#557,3.3);
#557 = AXIS2_PLACEMENT_3D('',#558,#559,#560);
#558 = CARTESIAN_POINT('',(-30.,0.,10.));
#559 = DIRECTION('',(1.,0.,0.));
#560 = DIRECTION('',(0.,0.,1.));
#561 = ADVANCED_FACE('',(#562,#565),#576,.F.);
#562 = FACE_BOUND('',#563,.F.);
#563 = EDGE_LOOP('',(#564));
#564 = ORIENTED_EDGE('',*,*,#126,.T.);
#565 = FACE_BOUND('',#566,.F.);
#566 = EDGE_LOOP('',(#567));
#567 = ORIENTED_EDGE('',*,*,#568,.F.);
#568 = EDGE_CURVE('',#569,#569,#571,.T.);
#569 = VERTEX_POINT('',#570);
#570 = CARTESIAN_POINT('',(6.1,-1.49406909496E-15,0.));
#571 = CIRCLE('',#572,6.1);
#572 = AXIS2_PLACEMENT_3D('',#573,#574,#575);
#573 = CARTESIAN_POINT('',(0.,0.,0.));
#574 = DIRECTION('',(0.,0.,1.));
#575 = DIRECTION('',(1.,0.,0.));
#576 = PLANE('',#577);
#577 = AXIS2_PLACEMENT_3D('',#578,#579,#580);
#578 = CARTESIAN_POINT('',(0.,0.,0.));
#579 = DIRECTION('',(0.,0.,1.));
#580 = DIRECTION('',(1.,0.,0.));
#581 = ADVANCED_FACE('',(#582,#585),#596,.T.);
#582 = FACE_BOUND('',#583,.T.);
#583 = EDGE_LOOP('',(#584));
#584 = ORIENTED_EDGE('',*,*,#31,.T.);
#585 = FACE_BOUND('',#586,.T.);
#586 = EDGE_LOOP('',(#587));
#587 = ORIENTED_EDGE('',*,*,#588,.F.);
#588 = EDGE_CURVE('',#589,#589,#591,.T.);
#589 = VERTEX_POINT('',#590);
#590 = CARTESIAN_POINT('',(31.,-7.592810154714E-15,35.));
#591 = CIRCLE('',#592,31.);
#592 = AXIS2_PLACEMENT_3D('',#593,#594,#595);
#593 = CARTESIAN_POINT('',(0.,0.,35.));
#594 = DIRECTION('',(0.,0.,1.));
#595 = DIRECTION('',(1.,0.,0.));
#596 = PLANE('',#597);
#597 = AXIS2_PLACEMENT_3D('',#598,#599,#600);
#598 = CARTESIAN_POINT('',(0.,0.,35.));
#599 = DIRECTION('',(0.,0.,1.));
#600 = DIRECTION('',(1.,0.,0.));
#601 = ADVANCED_FACE('',(#602),#781,.F.);
#602 = FACE_BOUND('',#603,.F.);
#603 = EDGE_LOOP('',(#604,#773,#779,#780));
#604 = ORIENTED_EDGE('',*,*,#605,.F.);
#605 = EDGE_CURVE('',#606,#606,#608,.T.);
#606 = VERTEX_POINT('',#607);
#607 = CARTESIAN_POINT('',(-19.82121212121,8.082668874373E-16,13.3));
#608 = B_SPLINE_CURVE_WITH_KNOTS('',7,(#609,#610,#611,#612,#613,#614,
    #615,#616,#617,#618,#619,#620,#621,#622,#623,#624,#625,#626,#627,
    #628,#629,#630,#631,#632,#633,#634,#635,#636,#637,#638,#639,#640,
    #641,#642,#643,#644,#645,#646,#647,#648,#649,#650,#651,#652,#653,
    #654,#655,#656,#657,#658,#659,#660,#661,#662,#663,#664,#665,#666,
    #667,#668,#669,#670,#671,#672,#673,#674,#675,#676,#677,#678,#679,
    #680,#681,#682,#683,#684,#685,#686,#687,#688,#689,#690,#691,#692,
    #693,#694,#695,#696,#697,#698,#699,#700,#701,#702,#703,#704,#705,
    #706,#707,#708,#709,#710,#711,#712,#713,#714,#715,#716,#717,#718,
    #719,#720,#721,#722,#723,#724,#725,#726,#727,#728,#729,#730,#731,
    #732,#733,#734,#735,#736,#737,#738,#739,#740,#741,#742,#743,#744,
    #745,#746,#747,#748,#749,#750,#751,#752,#753,#754,#755,#756,#757,
    #758,#759,#760,#761,#762,#763,#764,#765,#766,#767,#768,#769,#770,
    #771,#772),.UNSPECIFIED.,.T.,.F.,(8,6,6,6,6,6,6,6,6,6,6,6,6,6,6,6,6,
    6,6,6,6,6,6,6,6,6,6,8),(0.,3.395594594225E-02,5.716304838235E-02,
    9.104478015364E-02,0.121891784654,0.148799524253,0.232475352184,
    0.317703620057,0.348886414046,0.386434352971,0.428665272471,
    0.457488325597,0.471790369552,0.500007771022,0.519336528689,
    0.528226194015,0.542527702595,0.571349676776,0.613579015428,
    0.651125548805,0.682307175516,0.767532253004,0.851204948663,
    0.878111681013,0.908957530804,0.942837994267,0.966044227985,1.),
  .UNSPECIFIED.);
#609 = CARTESIAN_POINT('',(-19.82121212121,8.881784197001E-16,13.3));
#610 = CARTESIAN_POINT('',(-19.82121212121,-0.134234187125,13.3));
#611 = CARTESIAN_POINT('',(-19.81686979707,-0.268509858722,
    13.293629530348));
#612 = CARTESIAN_POINT('',(-19.8081807533,-0.401595731774,
    13.280882483826));
#613 = CARTESIAN_POINT('',(-19.79533569973,-0.532503817012,
    13.262022652239));
#614 = CARTESIAN_POINT('',(-19.77864513136,-0.660448753079,
    13.237476367183));
#615 = CARTESIAN_POINT('',(-19.75848546622,-0.784817722145,
    13.207759225689));
#616 = CARTESIAN_POINT('',(-19.71939779598,-0.987392374728,
    13.149979397587));
#617 = CARTESIAN_POINT('',(-19.70209162065,-1.067791153579,
    13.124358407906));
#618 = CARTESIAN_POINT('',(-19.68346727031,-1.146246434611,
    13.096736925395));
#619 = CARTESIAN_POINT('',(-19.66364232362,-1.222696429415,
    13.067275591235));
#620 = CARTESIAN_POINT('',(-19.64272896106,-1.297112448414,
    13.036127352052));
#621 = CARTESIAN_POINT('',(-19.62083014322,-1.369492939201,
    13.003432117832));
#622 = CARTESIAN_POINT('',(-19.56475665838,-1.542587886176,
    12.919496138516));
#623 = CARTESIAN_POINT('',(-19.52957624077,-1.640999091581,
    12.866653811541));
#624 = CARTESIAN_POINT('',(-19.49277151335,-1.735174677516,
    12.811157728426));
#625 = CARTESIAN_POINT('',(-19.45458473168,-1.825225056816,
    12.753333935273));
#626 = CARTESIAN_POINT('',(-19.41522244939,-1.911282665522,
    12.693459053672));
#627 = CARTESIAN_POINT('',(-19.37485453787,-1.993497109659,
    12.631758099582));
#628 = CARTESIAN_POINT('',(-19.29606578773,-2.143529433238,
    12.510721172474));
#629 = CARTESIAN_POINT('',(-19.25780103404,-2.211964818762,
    12.451678479669));
#630 = CARTESIAN_POINT('',(-19.21892359791,-2.277450930404,
    12.391410773476));
#631 = CARTESIAN_POINT('',(-19.17952472027,-2.340091955043,
    12.330036542611));
#632 = CARTESIAN_POINT('',(-19.13968307945,-2.399983863473,
    12.267657037756));
#633 = CARTESIAN_POINT('',(-19.09946564073,-2.45721646925,
    12.204357094498));
#634 = CARTESIAN_POINT('',(-19.02356809774,-2.559554367679,
    12.084247131362));
#635 = CARTESIAN_POINT('',(-18.9879660926,-2.605272663053,
    12.027643251912));
#636 = CARTESIAN_POINT('',(-18.95216078191,-2.649085494376,
    11.970441960482));
#637 = CARTESIAN_POINT('',(-18.91618668771,-2.691042215822,
    11.91268587489));
#638 = CARTESIAN_POINT('',(-18.88007479988,-2.731187255609,
    11.854412814817));
#639 = CARTESIAN_POINT('',(-18.84385281347,-2.769560956595,
    11.795656028432));
#640 = CARTESIAN_POINT('',(-18.69463897645,-2.920139276807,
    11.552312250583));
#641 = CARTESIAN_POINT('',(-18.58094295317,-3.017270059734,
    11.363841765003));
#642 = CARTESIAN_POINT('',(-18.46714847957,-3.098770632288,
    11.171824564498));
#643 = CARTESIAN_POINT('',(-18.35381892444,-3.165282965649,
    10.97689547478));
#644 = CARTESIAN_POINT('',(-18.24143030966,-3.217240875258,
    10.779588632564));
#645 = CARTESIAN_POINT('',(-18.13037390273,-3.25485802075,
    10.580334908957));
#646 = CARTESIAN_POINT('',(-17.90953175079,-3.301793701738,
    10.174868550198));
#647 = CARTESIAN_POINT('',(-17.79986928288,-3.31056053953,9.968708287501
    ));
#648 = CARTESIAN_POINT('',(-17.69232562324,-3.304411551078,
    9.761360385551));
#649 = CARTESIAN_POINT('',(-17.58727045242,-3.283065504241,
    9.553288040461));
#650 = CARTESIAN_POINT('',(-17.48508538965,-3.246055107702,9.34504618594
    ));
#651 = CARTESIAN_POINT('',(-17.38615129905,-3.192705802829,
    9.137295539861));
#652 = CARTESIAN_POINT('',(-17.25596173951,-3.096126907115,
    8.855284309621));
#653 = CARTESIAN_POINT('',(-17.22157590495,-3.067935245382,
    8.779921489644));
#654 = CARTESIAN_POINT('',(-17.18769723651,-3.037373940981,
    8.704779683275));
#655 = CARTESIAN_POINT('',(-17.15434640911,-3.004390380661,
    8.629906799395));
#656 = CARTESIAN_POINT('',(-17.12154514595,-2.968927160953,
    8.555356877709));
#657 = CARTESIAN_POINT('',(-17.08931598054,-2.930921538214,
    8.481190370536));
#658 = CARTESIAN_POINT('',(-17.01959081796,-2.841397399372,
    8.318711312586));
#659 = CARTESIAN_POINT('',(-16.98236472911,-2.788707047225,
    8.230606434082));
#660 = CARTESIAN_POINT('',(-16.94604237051,-2.732111442019,
    8.143273223361));
#661 = CARTESIAN_POINT('',(-16.91066807504,-2.6714813836,8.056849509323)
  );
#662 = CARTESIAN_POINT('',(-16.87629085489,-2.606679593438,
    7.971498710911));
#663 = CARTESIAN_POINT('',(-16.84296336636,-2.537559456189,
    7.887411032527));
#664 = CARTESIAN_POINT('',(-16.77449959246,-2.381189208077,
    7.711895615939));
#665 = CARTESIAN_POINT('',(-16.73966347941,-2.29277030056,7.620879874349
    ));
#666 = CARTESIAN_POINT('',(-16.70630562641,-2.198472182199,
    7.532052342275));
#667 = CARTESIAN_POINT('',(-16.67451984144,-2.098074409184,
    7.445797882371));
#668 = CARTESIAN_POINT('',(-16.6444164682,-1.991382654137,7.36258762234)
  );
#669 = CARTESIAN_POINT('',(-16.61611820471,-1.87824040983,7.282975264928
    ));
#670 = CARTESIAN_POINT('',(-16.57176338272,-1.676844359006,
    7.156144469407));
#671 = CARTESIAN_POINT('',(-16.55467579327,-1.592106759197,7.10667505493
    ));
#672 = CARTESIAN_POINT('',(-16.53853647991,-1.504304146145,
    7.059389436564));
#673 = CARTESIAN_POINT('',(-16.52339468041,-1.413443058256,
    7.014521889624));
#674 = CARTESIAN_POINT('',(-16.50930358218,-1.319569685654,
    6.972328063629));
#675 = CARTESIAN_POINT('',(-16.49631836059,-1.222779236153,
    6.933076363292));
#676 = CARTESIAN_POINT('',(-16.47862705878,-1.073826483319,
    6.879157697077));
#677 = CARTESIAN_POINT('',(-16.47304595621,-1.023748782245,
    6.862068046257));
#678 = CARTESIAN_POINT('',(-16.46775777608,-0.973012470726,
    6.845803901191));
#679 = CARTESIAN_POINT('',(-16.4627693868,-0.921641861128,6.830398928282
    ));
#680 = CARTESIAN_POINT('',(-16.45808754744,-0.869665690086,
    6.815886338698));
#681 = CARTESIAN_POINT('',(-16.45371879671,-0.817117503119,
    6.802298290876));
#682 = CARTESIAN_POINT('',(-16.44167991771,-0.659308282765,6.76474085756
    ));
#683 = CARTESIAN_POINT('',(-16.43493152672,-0.552480768989,6.74352827634
    ));
#684 = CARTESIAN_POINT('',(-16.429475492,-0.443883323806,6.726272817568)
  );
#685 = CARTESIAN_POINT('',(-16.42535221657,-0.333890515009,
    6.713177059574));
#686 = CARTESIAN_POINT('',(-16.4225919079,-0.222923438752,6.704391503022
    ));
#687 = CARTESIAN_POINT('',(-16.42121212121,-0.111452330434,6.7));
#688 = CARTESIAN_POINT('',(-16.42121212121,7.634420514258E-02,6.7));
#689 = CARTESIAN_POINT('',(-16.42185956024,0.152691944103,6.70206059478)
  );
#690 = CARTESIAN_POINT('',(-16.42315443666,0.228881023622,6.706181988002
    ));
#691 = CARTESIAN_POINT('',(-16.42509319247,0.304757502798,6.712346538155
    ));
#692 = CARTESIAN_POINT('',(-16.42766901128,0.380175588669,6.720520484769
    ));
#693 = CARTESIAN_POINT('',(-16.43087211641,0.454997531806,6.730655674636
    ));
#694 = CARTESIAN_POINT('',(-16.43644601817,0.563171684874,6.748226696816
    ));
#695 = CARTESIAN_POINT('',(-16.43833206823,0.597097143785,6.754164258764
    ));
#696 = CARTESIAN_POINT('',(-16.44034702586,0.630857844684,6.760498095157
    ));
#697 = CARTESIAN_POINT('',(-16.44248961997,0.664442420767,6.767221946771
    ));
#698 = CARTESIAN_POINT('',(-16.44475850158,0.697840192373,6.774329173869
    ));
#699 = CARTESIAN_POINT('',(-16.4471522438,0.731041166991,6.78181275621)
  );
#700 = CARTESIAN_POINT('',(-16.45371879671,0.81711750312,6.802298290876)
  );
#701 = CARTESIAN_POINT('',(-16.45808754744,0.869665690086,6.815886338698
    ));
#702 = CARTESIAN_POINT('',(-16.4627693868,0.921641861128,6.830398928282)
  );
#703 = CARTESIAN_POINT('',(-16.46775777608,0.973012470727,6.845803901191
    ));
#704 = CARTESIAN_POINT('',(-16.47304595621,1.023748782246,6.862068046257
    ));
#705 = CARTESIAN_POINT('',(-16.47862705878,1.073826483319,6.879157697077
    ));
#706 = CARTESIAN_POINT('',(-16.49631836059,1.222779236153,6.933076363292
    ));
#707 = CARTESIAN_POINT('',(-16.50930358218,1.319569685654,6.972328063629
    ));
#708 = CARTESIAN_POINT('',(-16.52339468041,1.413443058256,7.014521889624
    ));
#709 = CARTESIAN_POINT('',(-16.53853647991,1.504304146145,7.059389436564
    ));
#710 = CARTESIAN_POINT('',(-16.55467579327,1.592106759197,7.10667505493)
  );
#711 = CARTESIAN_POINT('',(-16.57176338272,1.676844359006,7.156144469407
    ));
#712 = CARTESIAN_POINT('',(-16.61611820471,1.87824040983,7.282975264929)
  );
#713 = CARTESIAN_POINT('',(-16.6444164682,1.991382654137,7.36258762234)
  );
#714 = CARTESIAN_POINT('',(-16.67451984144,2.098074409184,7.445797882371
    ));
#715 = CARTESIAN_POINT('',(-16.70630562641,2.198472182199,7.532052342276
    ));
#716 = CARTESIAN_POINT('',(-16.73966347941,2.292770300561,7.620879874349
    ));
#717 = CARTESIAN_POINT('',(-16.77449959246,2.381189208077,7.711895615939
    ));
#718 = CARTESIAN_POINT('',(-16.84296336636,2.53755945619,7.887411032528)
  );
#719 = CARTESIAN_POINT('',(-16.87629085489,2.606679593438,7.971498710911
    ));
#720 = CARTESIAN_POINT('',(-16.91066807504,2.6714813836,8.056849509323)
  );
#721 = CARTESIAN_POINT('',(-16.94604237051,2.732111442019,8.143273223361
    ));
#722 = CARTESIAN_POINT('',(-16.98236472911,2.788707047225,8.230606434082
    ));
#723 = CARTESIAN_POINT('',(-17.01959081796,2.841397399372,8.318711312586
    ));
#724 = CARTESIAN_POINT('',(-17.08931598054,2.930921538214,8.481190370536
    ));
#725 = CARTESIAN_POINT('',(-17.12154514595,2.968927160953,8.555356877709
    ));
#726 = CARTESIAN_POINT('',(-17.15434640911,3.004390380661,8.629906799395
    ));
#727 = CARTESIAN_POINT('',(-17.18769723651,3.037373940981,8.704779683275
    ));
#728 = CARTESIAN_POINT('',(-17.22157590495,3.067935245382,8.779921489645
    ));
#729 = CARTESIAN_POINT('',(-17.25596173951,3.096126907115,8.855284309621
    ));
#730 = CARTESIAN_POINT('',(-17.38615129905,3.192705802829,9.137295539861
    ));
#731 = CARTESIAN_POINT('',(-17.48508538965,3.246055107702,9.34504618594)
  );
#732 = CARTESIAN_POINT('',(-17.58727045242,3.283065504241,9.553288040461
    ));
#733 = CARTESIAN_POINT('',(-17.69232562324,3.304411551078,9.761360385552
    ));
#734 = CARTESIAN_POINT('',(-17.79986928288,3.31056053953,9.968708287501)
  );
#735 = CARTESIAN_POINT('',(-17.90953175079,3.301793701738,
    10.174868550198));
#736 = CARTESIAN_POINT('',(-18.13037390273,3.25485802075,10.580334908957
    ));
#737 = CARTESIAN_POINT('',(-18.24143030966,3.21724087526,10.779588632563
    ));
#738 = CARTESIAN_POINT('',(-18.35381892444,3.165282965646,
    10.976895474781));
#739 = CARTESIAN_POINT('',(-18.46714847956,3.098770632291,
    11.171824564497));
#740 = CARTESIAN_POINT('',(-18.58094295317,3.017270059732,
    11.363841765005));
#741 = CARTESIAN_POINT('',(-18.69463897645,2.920139276807,
    11.552312250583));
#742 = CARTESIAN_POINT('',(-18.84385281347,2.769560956595,
    11.795656028432));
#743 = CARTESIAN_POINT('',(-18.88007479988,2.731187255609,
    11.854412814817));
#744 = CARTESIAN_POINT('',(-18.91618668771,2.691042215822,11.91268587489
    ));
#745 = CARTESIAN_POINT('',(-18.95216078191,2.649085494376,
    11.970441960482));
#746 = CARTESIAN_POINT('',(-18.9879660926,2.605272663053,12.027643251912
    ));
#747 = CARTESIAN_POINT('',(-19.02356809775,2.559554367679,
    12.084247131362));
#748 = CARTESIAN_POINT('',(-19.09946564073,2.45721646925,12.204357094498
    ));
#749 = CARTESIAN_POINT('',(-19.13968307945,2.399983863473,
    12.267657037756));
#750 = CARTESIAN_POINT('',(-19.17952472027,2.340091955042,
    12.330036542611));
#751 = CARTESIAN_POINT('',(-19.21892359791,2.277450930404,
    12.391410773477));
#752 = CARTESIAN_POINT('',(-19.25780103404,2.211964818762,
    12.451678479669));
#753 = CARTESIAN_POINT('',(-19.29606578774,2.143529433237,
    12.510721172474));
#754 = CARTESIAN_POINT('',(-19.37485453787,1.993497109659,
    12.631758099582));
#755 = CARTESIAN_POINT('',(-19.41522244939,1.911282665522,
    12.693459053672));
#756 = CARTESIAN_POINT('',(-19.45458473168,1.825225056816,
    12.753333935273));
#757 = CARTESIAN_POINT('',(-19.49277151335,1.735174677515,
    12.811157728426));
#758 = CARTESIAN_POINT('',(-19.52957624077,1.640999091581,
    12.866653811541));
#759 = CARTESIAN_POINT('',(-19.56475665838,1.542587886176,
    12.919496138516));
#760 = CARTESIAN_POINT('',(-19.62083014322,1.369492939201,
    13.003432117833));
#761 = CARTESIAN_POINT('',(-19.64272896106,1.297112448413,
    13.036127352052));
#762 = CARTESIAN_POINT('',(-19.66364232362,1.222696429415,
    13.067275591236));
#763 = CARTESIAN_POINT('',(-19.68346727031,1.146246434611,
    13.096736925395));
#764 = CARTESIAN_POINT('',(-19.70209162065,1.067791153578,
    13.124358407906));
#765 = CARTESIAN_POINT('',(-19.71939779598,0.987392374728,
    13.149979397587));
#766 = CARTESIAN_POINT('',(-19.75848621648,0.784813833881,
    13.207760334728));
#767 = CARTESIAN_POINT('',(-19.7786451684,0.660447201536,13.237476419994
    ));
#768 = CARTESIAN_POINT('',(-19.79533607559,0.53250190754,13.262023204878
    ));
#769 = CARTESIAN_POINT('',(-19.80818180219,0.401588351159,
    13.280884026329));
#770 = CARTESIAN_POINT('',(-19.81687070574,0.268495900407,
    13.293630863255));
#771 = CARTESIAN_POINT('',(-19.82121212121,0.134220434262,13.3));
#772 = CARTESIAN_POINT('',(-19.82121212121,8.881784197001E-16,13.3));
#773 = ORIENTED_EDGE('',*,*,#774,.F.);
#774 = EDGE_CURVE('',#214,#606,#775,.T.);
#775 = LINE('',#776,#777);
#776 = CARTESIAN_POINT('',(-30.,8.082668874373E-16,13.3));
#777 = VECTOR('',#778,1.);
#778 = DIRECTION('',(1.,0.,0.));
#779 = ORIENTED_EDGE('',*,*,#213,.T.);
#780 = ORIENTED_EDGE('',*,*,#774,.T.);
#781 = CYLINDRICAL_SURFACE('',#782,3.3);
#782 = AXIS2_PLACEMENT_3D('',#783,#784,#785);
#783 = CARTESIAN_POINT('',(-30.,0.,10.));
#784 = DIRECTION('',(1.,0.,0.));
#785 = DIRECTION('',(0.,0.,1.));
#786 = ADVANCED_FACE('',(#787,#815),#818,.F.);
#787 = FACE_BOUND('',#788,.F.);
#788 = EDGE_LOOP('',(#789,#795,#796,#797,#798,#806,#813,#814));
#789 = ORIENTED_EDGE('',*,*,#790,.T.);
#790 = EDGE_CURVE('',#392,#589,#791,.T.);
#791 = LINE('',#792,#793);
#792 = CARTESIAN_POINT('',(14.,-3.429011037613E-15,2.));
#793 = VECTOR('',#794,1.);
#794 = DIRECTION('',(0.457956589674,-1.121670143386E-16,0.888974556427)
  );
#795 = ORIENTED_EDGE('',*,*,#588,.F.);
#796 = ORIENTED_EDGE('',*,*,#790,.F.);
#797 = ORIENTED_EDGE('',*,*,#478,.F.);
#798 = ORIENTED_EDGE('',*,*,#799,.F.);
#799 = EDGE_CURVE('',#800,#400,#802,.T.);
#800 = VERTEX_POINT('',#801);
#801 = CARTESIAN_POINT('',(14.,-3.429011037613E-15,2.));
#802 = LINE('',#803,#804);
#803 = CARTESIAN_POINT('',(14.,-3.429011037613E-15,2.));
#804 = VECTOR('',#805,1.);
#805 = DIRECTION('',(0.457956589674,-1.121670143386E-16,0.888974556427)
  );
#806 = ORIENTED_EDGE('',*,*,#807,.T.);
#807 = EDGE_CURVE('',#800,#800,#808,.T.);
#808 = CIRCLE('',#809,14.);
#809 = AXIS2_PLACEMENT_3D('',#810,#811,#812);
#810 = CARTESIAN_POINT('',(0.,0.,2.));
#811 = DIRECTION('',(0.,0.,1.));
#812 = DIRECTION('',(1.,0.,0.));
#813 = ORIENTED_EDGE('',*,*,#799,.T.);
#814 = ORIENTED_EDGE('',*,*,#399,.F.);
#815 = FACE_BOUND('',#816,.F.);
#816 = EDGE_LOOP('',(#817));
#817 = ORIENTED_EDGE('',*,*,#605,.T.);
#818 = CONICAL_SURFACE('',#819,14.,0.475695218855);
#819 = AXIS2_PLACEMENT_3D('',#820,#821,#822);
#820 = CARTESIAN_POINT('',(0.,0.,2.));
#821 = DIRECTION('',(0.,0.,1.));
#822 = DIRECTION('',(1.,0.,0.));
#823 = ADVANCED_FACE('',(#824),#843,.F.);
#824 = FACE_BOUND('',#825,.F.);
#825 = EDGE_LOOP('',(#826,#835,#841,#842));
#826 = ORIENTED_EDGE('',*,*,#827,.F.);
#827 = EDGE_CURVE('',#828,#828,#830,.T.);
#828 = VERTEX_POINT('',#829);
#829 = CARTESIAN_POINT('',(6.1,-1.49406909496E-15,2.));
#830 = CIRCLE('',#831,6.1);
#831 = AXIS2_PLACEMENT_3D('',#832,#833,#834);
#832 = CARTESIAN_POINT('',(0.,0.,2.));
#833 = DIRECTION('',(0.,0.,1.));
#834 = DIRECTION('',(1.,0.,0.));
#835 = ORIENTED_EDGE('',*,*,#836,.F.);
#836 = EDGE_CURVE('',#569,#828,#837,.T.);
#837 = LINE('',#838,#839);
#838 = CARTESIAN_POINT('',(6.1,-1.49406909496E-15,0.));
#839 = VECTOR('',#840,1.);
#840 = DIRECTION('',(0.,0.,1.));
#841 = ORIENTED_EDGE('',*,*,#568,.T.);
#842 = ORIENTED_EDGE('',*,*,#836,.T.);
#843 = CYLINDRICAL_SURFACE('',#844,6.1);
#844 = AXIS2_PLACEMENT_3D('',#845,#846,#847);
#845 = CARTESIAN_POINT('',(0.,0.,0.));
#846 = DIRECTION('',(0.,0.,1.));
#847 = DIRECTION('',(1.,0.,0.));
#848 = ADVANCED_FACE('',(#849,#852),#855,.T.);
#849 = FACE_BOUND('',#850,.T.);
#850 = EDGE_LOOP('',(#851));
#851 = ORIENTED_EDGE('',*,*,#807,.T.);
#852 = FACE_BOUND('',#853,.T.);
#853 = EDGE_LOOP('',(#854));
#854 = ORIENTED_EDGE('',*,*,#827,.F.);
#855 = PLANE('',#856);
#856 = AXIS2_PLACEMENT_3D('',#857,#858,#859);
#857 = CARTESIAN_POINT('',(0.,0.,2.));
#858 = DIRECTION('',(0.,0.,1.));
#859 = DIRECTION('',(1.,0.,0.));
#860 = ( GEOMETRIC_REPRESENTATION_CONTEXT(3) 
GLOBAL_UNCERTAINTY_ASSIGNED_CONTEXT((#864)) GLOBAL_UNIT_ASSIGNED_CONTEXT
((#861,#862,#863)) REPRESENTATION_CONTEXT('Context #1',
  '3D Context with UNIT and UNCERTAINTY') );
#861 = ( LENGTH_UNIT() NAMED_UNIT(*) SI_UNIT(.MILLI.,.METRE.) );
#862 = ( NAMED_UNIT(*) PLANE_ANGLE_UNIT() SI_UNIT($,.RADIAN.) );
#863 = ( NAMED_UNIT(*) SI_UNIT($,.STERADIAN.) SOLID_ANGLE_UNIT() );
#864 = UNCERTAINTY_MEASURE_WITH_UNIT(LENGTH_MEASURE(1.E-07),#861,
  'distance_accuracy_value','confusion accuracy');
#865 = PRODUCT_RELATED_PRODUCT_CATEGORY('part',$,(#7));
ENDSEC;
END-ISO-10303-21;
