999
FreeCAD v1.1 Unknown
  0
SECTION
  2
HEADER
  9
$ACADVER
  1
AC1014
  9
$ACADMAINTVER
 70
     9
  9
$DWGCODEPAGE
  3
ANSI_1252
  9
$TEXTSTYLE
  7
STANDARD
  9
$DIMSTYLE
  2
STANDARD
  9
$DIMTXSTY
  7
STANDARD
  9
$CMLSTYLE
  2
STANDARD
  9
$LUNITS
 70
2
  9
$INSUNITS
 70
4
  9
$PEXTMAX
 10
50
 20
50
 30
50
  9
$PEXTMIN
 10
0
 20
0
 30
0
  9
$HANDSEED
  5
FFFF
  0
ENDSEC
  0
SECTION
  2
CLASSES
  0
CLASS
  1
ACDBDICTIONARYWDFLT
  2
AcDbDictionaryWithDefault
  3
ObjectDBX Classes
 90
        0
280
     0
281
     0
  0
CLASS
  1
XRECORD
  2
AcDbXrecord
  3
ObjectDBX Classes
 90
        0
280
     0
281
     0
  0
CLASS
  1
LWPOLYLINE
  2
AcDbPolyline
  3
ObjectDBX Classes
 90
        0
280
     0
281
     1
  0
ENDSEC
  0
SECTION
  2
TABLES
  0
TABLE
  2
VPORT
  5
20
330
0
100
AcDbSymbolTable
 70
     1
  0
VPORT
  5
21
330
20
100
AcDbSymbolTableRecord
100
AcDbViewportTableRecord
  2
*ACTIVE
 70
     0
  0
ENDTAB
  0
TABLE
  2
LTYPE
  5
22
330
0
100
AcDbSymbolTable
 70
     1
  0
LTYPE
  5
23
330
21
100
AcDbSymbolTableRecord
100
AcDbLinetypeTableRecord
  2
BYBLOCK
 70
     0
  3

 72
    65
 73
     0
 40
0.0
  0
LTYPE
  5
24
330
21
100
AcDbSymbolTableRecord
100
AcDbLinetypeTableRecord
  2
BYLAYER
 70
     0
  3

 72
    65
 73
     0
 40
0.0
  0
LTYPE
  5
25
330
21
100
AcDbSymbolTableRecord
100
AcDbLinetypeTableRecord
  2
CONTINUOUS
 70
     0
  3
Solid line
 72
    65
 73
     0
 40
0.0
  0
ENDTAB
  0
TABLE
  2
LAYER
  5
AC8
330
0
100
AcDbSymbolTable
 70
3
  0
LAYER
  5
AC9
330
AC8
100
AcDbSymbolTableRecord
100
AcDbLayerTableRecord
  2
0
 70
   0
 62
   7
  6
CONTINUOUS
  0
LAYER
  5
ACA
330
AC8
100
AcDbSymbolTableRecord
100
AcDbLayerTableRecord
  2
none
 70
    0
 62
    7
  6
CONTINUOUS
  0
LAYER
  5
ACB
330
AC8
100
AcDbSymbolTableRecord
100
AcDbLayerTableRecord
  2
Part
 70
    0
 62
    7
  6
CONTINUOUS
  0
ENDTAB
  0
TABLE
  2
STYLE
  5
70
330
0
100
AcDbSymbolTable
 70
     2
  0
STYLE
  5
71
330
70
100
AcDbSymbolTableRecord
100
AcDbTextStyleTableRecord
  2
STANDARD
 70
     0
 40
0.0
 41
1.0
 50
0.0
 71
     0
 42
2.5
  3
arial.ttf
  4

  0
STYLE
  5
72
330
70
100
AcDbSymbolTableRecord
100
AcDbTextStyleTableRecord
  2
ANNOTATIVE
 70
     0
 40
0.0
 41
1.0
 50
0.0
 71
     0
 42
2.5
  3
arial.ttf
  4

  0
ENDTAB
  0
TABLE
  2
VIEW
  5
73
330
0
100
AcDbSymbolTable
 70
     0
  0
ENDTAB
  0
TABLE
  2
UCS
  5
74
330
0
100
AcDbSymbolTable
 70
     0
  0
ENDTAB
  0
TABLE
  2
APPID
  5
75
330
0
100
AcDbSymbolTable
 70
     2
  0
APPID
  5
76
330
75
100
AcDbSymbolTableRecord
100
AcDbRegAppTableRecord
  2
ACAD
 70
     0
  0
APPID
  5
77
330
75
100
AcDbSymbolTableRecord
100
AcDbRegAppTableRecord
  2
ACADANNOTATIVE
 70
     0
  0
ENDTAB
  0
TABLE
  2
DIMSTYLE
  5
78
330
0
100
AcDbSymbolTable
 70
     2
  0
DIMSTYLE
105
79
330
78
100
AcDbSymbolTableRecord
100
AcDbDimStyleTableRecord
  2
STANDARD
 70
     0
  3

  4

  5

  6

  7

 40
0.0
 41
2.5
 42
0.625
 43
3.75
 44
1.25
 45
0.0
 46
0.0
 47
0.0
 48
0.0
140
2.5
141
2.5
142
0.0
143
0.03937007874016
144
1.0
145
0.0
146
1.0
147
0.625
 71
     0
 72
     0
 73
     0
 74
     0
 75
     0
 76
     0
 77
     1
 78
     8
170
     0
171
     3
172
     1
173
     0
174
     0
175
     0
176
     0
177
     0
178
     0
270
     2
271
     2
272
     2
273
     2
274
     3
340
71
275
     0
280
     0
281
     0
282
     0
283
     0
284
     8
285
     0
286
     0
287
     3
288
     0
  0
ENDTAB
  0
TABLE
  2
BLOCK_RECORD
  5
A01
330
0
100
AcDbSymbolTable
  70
5
  0
BLOCK_RECORD
  5
A02
330
A01
100
AcDbSymbolTableRecord
100
AcDbBlockTableRecord
  2
*MODEL_SPACE
  0
BLOCK_RECORD
  5
A03
330
A01
100
AcDbSymbolTableRecord
100
AcDbBlockTableRecord
  2
*PAPER_SPACE
  0
ENDTAB
  0
ENDSEC
  0
SECTION
  2
BLOCKS
  0
BLOCK
  5
A04
330
A02
100
AcDbEntity
  8
0
100
AcDbBlockBegin
  2
*MODEL_SPACE
 70
   0
 10
0
 20
0
 30
0
  3
*MODEL_SPACE
  1

  0
ENDBLK
  5
A05
330
A02
100
AcDbEntity
  8
0
100
AcDbBlockEnd
  0
BLOCK
  5
A06
330
A03
100
AcDbEntity
 67
1
  8
0
100
AcDbBlockBegin
  2
*PAPER_SPACE
 70
   0
 10
0
 20
0
 30
0
  3
*PAPER_SPACE
  1

  0
ENDBLK
  5
A07
330
A03
100
AcDbEntity
 67
    1
  8
0
100
AcDbBlockEnd
  0
ENDSEC
  0
SECTION
  2
ENTITIES
  0
LINE
  5
A08
330
A02
100
AcDbEntity
  8
Part
100
AcDbLine
 10
16.000000000
 20
-5.744562647
 30
0.000000000
 11
16.000000000
 21
-5.744562647
 31
8.000000000
  0
ARC
  5
A09
330
A02
100
AcDbEntity
  8
Part
100
AcDbCircle
 10
0.000000000
 20
0.000000000
 30
8.000000000
 40
17.000000000
100
AcDbArc
 50
19.749922796
 51
-19.749922796
  0
LINE
  5
A0A
330
A02
100
AcDbEntity
  8
Part
100
AcDbLine
 10
16.000000000
 20
5.744562647
 30
0.000000000
 11
16.000000000
 21
5.744562647
 31
8.000000000
  0
ARC
  5
A0B
330
A02
100
AcDbEntity
  8
Part
100
AcDbCircle
 10
0.000000000
 20
0.000000000
 30
0.000000000
 40
17.000000000
100
AcDbArc
 50
0.000000000
 51
19.749922796
  0
LINE
  5
A0C
330
A02
100
AcDbEntity
  8
Part
100
AcDbLine
 10
17.000000000
 20
-0.000000000
 30
0.000000000
 11
17.000000000
 21
-0.000000000
 31
12.000000000
  0
ARC
  5
A0D
330
A02
100
AcDbEntity
  8
Part
100
AcDbCircle
 10
0.000000000
 20
0.000000000
 30
12.000000000
 40
17.000000000
100
AcDbArc
 50
0.000000000
 51
36.031879072
  0
LINE
  5
A0E
330
A02
100
AcDbEntity
  8
Part
100
AcDbLine
 10
13.747727085
 20
10.000000000
 30
12.000000000
 11
13.747727085
 21
10.000000000
 31
30.000000000
  0
ARC
  5
A0F
330
A02
100
AcDbEntity
  8
Part
100
AcDbCircle
 10
0.000000000
 20
0.000000000
 30
30.000000000
 40
17.000000000
100
AcDbArc
 50
0.000000000
 51
36.031879072
  0
LINE
  5
A10
330
A02
100
AcDbEntity
  8
Part
100
AcDbLine
 10
17.000000000
 20
-0.000000000
 30
30.000000000
 11
17.000000000
 21
-0.000000000
 31
280.000000000
  0
CIRCLE
  5
A11
330
A02
100
AcDbEntity
  8
Part
100
AcDbCircle
 10
0.000000000
 20
0.000000000
 30
280.000000000
 40
17.000000000
  0
LINE
  5
A12
330
A02
100
AcDbEntity
  8
Part
100
AcDbLine
 10
17.000000000
 20
-0.000000000
 30
30.000000000
 11
17.000000000
 21
-0.000000000
 31
280.000000000
  0
ARC
  5
A13
330
A02
100
AcDbEntity
  8
Part
100
AcDbCircle
 10
0.000000000
 20
0.000000000
 30
30.000000000
 40
17.000000000
100
AcDbArc
 50
-36.031879072
 51
-0.000000000
  0
LINE
  5
A14
330
A02
100
AcDbEntity
  8
Part
100
AcDbLine
 10
13.747727085
 20
-10.000000000
 30
12.000000000
 11
13.747727085
 21
-10.000000000
 31
30.000000000
  0
ARC
  5
A15
330
A02
100
AcDbEntity
  8
Part
100
AcDbCircle
 10
0.000000000
 20
0.000000000
 30
12.000000000
 40
17.000000000
100
AcDbArc
 50
-36.031879072
 51
-0.000000000
  0
LINE
  5
A16
330
A02
100
AcDbEntity
  8
Part
100
AcDbLine
 10
17.000000000
 20
-0.000000000
 30
0.000000000
 11
17.000000000
 21
-0.000000000
 31
12.000000000
  0
ARC
  5
A17
330
A02
100
AcDbEntity
  8
Part
100
AcDbCircle
 10
0.000000000
 20
0.000000000
 30
0.000000000
 40
17.000000000
100
AcDbArc
 50
-19.749922796
 51
-0.000000000
  0
SPLINE
  5
A18
330
A02
100
AcDbEntity
  8
Part
100
AcDbSpline
210
0
220
0
230
1
 70
8
 71
3
 72
20
 73
16
 74
0
 40
0.500350827
 40
0.500350827
 40
0.500350827
 40
0.500350827
 40
0.535372849
 40
0.535372849
 40
0.535372849
 40
0.642637433
 40
0.642637433
 40
0.642637433
 40
0.749902017
 40
0.749902017
 40
0.749902017
 40
0.864722752
 40
0.864722752
 40
0.864722752
 40
1.000000000
 40
1.000000000
 40
1.000000000
 40
1.000000000
 10
-0.000000000
 20
17.000000014
 30
91.249999983
 10
-0.105607564
 20
16.999980840
 30
91.249899276
 10
-0.209228350
 20
16.999033350
 30
91.236808932
 10
-0.310862359
 20
16.997157545
 30
91.210728951
 10
-0.620655907
 20
16.991425984
 30
91.130610208
 10
-0.860892500
 20
16.978840999
 30
90.945600444
 10
-1.017325405
 20
16.969532965
 30
90.726325690
 10
-1.174526161
 20
16.959983055
 30
90.505998341
 10
-1.250112868
 20
16.953852592
 30
90.249901634
 10
-1.250000000
 20
16.953981833
 30
90.000000000
 10
-1.249794941
 20
16.953843320
 30
89.732564660
 10
-1.164739935
 20
16.960820761
 30
89.462861619
 10
-0.987693765
 20
16.971283423
 30
89.233866183
 10
-0.782405924
 20
16.983484169
 30
88.962141772
 10
-0.413318912
 20
17.000331379
 30
88.747287892
 10
0.000000000
 20
17.000000000
 30
88.750000000
  0
SPLINE
  5
A19
330
A02
100
AcDbEntity
  8
Part
100
AcDbSpline
210
0
220
0
230
1
 70
8
 71
3
 72
17
 73
13
 74
0
 40
0.000000000
 40
0.000000000
 40
0.000000000
 40
0.000000000
 40
0.135318424
 40
0.135318424
 40
0.135318424
 40
0.250137546
 40
0.250137546
 40
0.250137546
 40
0.400400437
 40
0.400400437
 40
0.400400437
 40
0.500350827
 40
0.500350827
 40
0.500350827
 40
0.500350827
 10
0.000000000
 20
17.000000000
 30
88.750000000
 10
0.413477408
 20
17.000327888
 30
88.747342069
 10
0.782315514
 20
16.983486473
 30
88.962102591
 10
0.987693765
 20
16.971283423
 30
89.233866183
 10
1.164741421
 20
16.960820666
 30
89.462865355
 10
1.249793652
 20
16.953843404
 30
89.732560210
 10
1.250000000
 20
16.953981833
 30
90.000000000
 10
1.249741114
 20
16.953535610
 30
90.348918150
 10
1.103974082
 20
16.966416196
 30
90.706948648
 10
0.796779987
 20
16.981317430
 30
90.963141553
 10
0.593754769
 20
16.991065189
 30
91.134328354
 10
0.300258153
 20
17.000249187
 30
91.252215058
 10
-0.000000000
 20
17.000000014
 30
91.249999983
  0
SPLINE
  5
A1A
330
A02
100
AcDbEntity
  8
Part
100
AcDbSpline
210
0
220
0
230
1
 70
8
 71
3
 72
17
 73
13
 74
0
 40
0.552865046
 40
0.552865046
 40
0.552865046
 40
0.552865046
 40
0.686040869
 40
0.686040869
 40
0.686040869
 40
0.790895460
 40
0.790895460
 40
0.790895460
 40
0.892098853
 40
0.892098853
 40
0.892098853
 40
1.000000000
 40
1.000000000
 40
1.000000000
 40
1.000000000
 10
-0.000000000
 20
17.000000030
 30
96.600000009
 10
-0.473511823
 20
17.000699711
 30
96.602062262
 10
-0.934882066
 20
16.977482150
 30
96.383167367
 10
-1.232821188
 20
16.955239660
 30
96.019878384
 10
-1.468831601
 20
16.937873128
 30
95.736157176
 10
-1.600993066
 20
16.924207709
 30
95.369045833
 10
-1.600000000
 20
16.924538398
 30
95.000000000
 10
-1.599893738
 20
16.924241726
 30
94.644676947
 10
-1.481663866
 20
16.936825812
 30
94.281775779
 10
-1.232821188
 20
16.955239660
 30
93.980121616
 10
-0.971511974
 20
16.974597197
 30
93.656368437
 10
-0.514855073
 20
17.000461309
 30
93.396953345
 10
0.000000000
 20
17.000000000
 30
93.400000000
  0
SPLINE
  5
A1B
330
A02
100
AcDbEntity
  8
Part
100
AcDbSpline
210
0
220
0
230
1
 70
8
 71
3
 72
17
 73
13
 74
0
 40
0.000000000
 40
0.000000000
 40
0.000000000
 40
0.000000000
 40
0.142470953
 40
0.142470953
 40
0.142470953
 40
0.276387779
 40
0.276387779
 40
0.276387779
 40
0.443995302
 40
0.443995302
 40
0.443995302
 40
0.552865046
 40
0.552865046
 40
0.552865046
 40
0.552865046
 10
0.000000000
 20
17.000000000
 30
93.400000000
 10
0.515072298
 20
17.000455337
 30
93.397025064
 10
0.971388719
 20
16.974601113
 30
93.656317220
 10
1.232821188
 20
16.955239660
 30
93.980121616
 10
1.482049888
 20
16.936793782
 30
94.282733545
 10
1.599601199
 20
16.924266642
 30
94.643673635
 10
1.600000000
 20
16.924538398
 30
95.000000000
 10
1.599200731
 20
16.923820500
 30
95.444328264
 10
1.416479113
 20
16.944695917
 30
95.901197241
 10
1.019878384
 20
16.969379720
 30
96.232821188
 10
0.763835159
 20
16.985138424
 30
96.449174100
 10
0.386916427
 20
17.000418437
 30
96.603106019
 10
-0.000000000
 20
17.000000030
 30
96.600000009
  0
SPLINE
  5
A1C
330
A02
100
AcDbEntity
  8
Part
100
AcDbSpline
210
0
220
0
230
1
 70
8
 71
3
 72
20
 73
16
 74
0
 40
0.500350827
 40
0.500350827
 40
0.500350827
 40
0.500350827
 40
0.535372849
 40
0.535372849
 40
0.535372849
 40
0.642637433
 40
0.642637433
 40
0.642637433
 40
0.749902017
 40
0.749902017
 40
0.749902017
 40
0.864722752
 40
0.864722752
 40
0.864722752
 40
1.000000000
 40
1.000000000
 40
1.000000000
 40
1.000000000
 10
-0.000000000
 20
17.000000014
 30
101.249999983
 10
-0.105607564
 20
16.999980840
 30
101.249899276
 10
-0.209228350
 20
16.999033350
 30
101.236808932
 10
-0.310862359
 20
16.997157545
 30
101.210728951
 10
-0.620655907
 20
16.991425984
 30
101.130610208
 10
-0.860892500
 20
16.978840999
 30
100.945600444
 10
-1.017325405
 20
16.969532965
 30
100.726325690
 10
-1.174526161
 20
16.959983055
 30
100.505998341
 10
-1.250112868
 20
16.953852592
 30
100.249901634
 10
-1.250000000
 20
16.953981833
 30
100.000000000
 10
-1.249794941
 20
16.953843320
 30
99.732564660
 10
-1.164739935
 20
16.960820761
 30
99.462861619
 10
-0.987693765
 20
16.971283423
 30
99.233866183
 10
-0.782405924
 20
16.983484169
 30
98.962141772
 10
-0.413318912
 20
17.000331379
 30
98.747287892
 10
0.000000000
 20
17.000000000
 30
98.750000000
  0
SPLINE
  5
A1D
330
A02
100
AcDbEntity
  8
Part
100
AcDbSpline
210
0
220
0
230
1
 70
8
 71
3
 72
17
 73
13
 74
0
 40
0.000000000
 40
0.000000000
 40
0.000000000
 40
0.000000000
 40
0.135318424
 40
0.135318424
 40
0.135318424
 40
0.250137546
 40
0.250137546
 40
0.250137546
 40
0.400400437
 40
0.400400437
 40
0.400400437
 40
0.500350827
 40
0.500350827
 40
0.500350827
 40
0.500350827
 10
0.000000000
 20
17.000000000
 30
98.750000000
 10
0.413477408
 20
17.000327888
 30
98.747342069
 10
0.782315514
 20
16.983486473
 30
98.962102591
 10
0.987693765
 20
16.971283423
 30
99.233866183
 10
1.164741421
 20
16.960820666
 30
99.462865355
 10
1.249793652
 20
16.953843404
 30
99.732560210
 10
1.250000000
 20
16.953981833
 30
100.000000000
 10
1.249741114
 20
16.953535610
 30
100.348918150
 10
1.103974082
 20
16.966416196
 30
100.706948648
 10
0.796779987
 20
16.981317430
 30
100.963141553
 10
0.593754769
 20
16.991065189
 30
101.134328354
 10
0.300258153
 20
17.000249187
 30
101.252215058
 10
-0.000000000
 20
17.000000014
 30
101.249999983
  0
SPLINE
  5
A1E
330
A02
100
AcDbEntity
  8
Part
100
AcDbSpline
210
0
220
0
230
1
 70
8
 71
3
 72
20
 73
16
 74
0
 40
0.500350827
 40
0.500350827
 40
0.500350827
 40
0.500350827
 40
0.535372849
 40
0.535372849
 40
0.535372849
 40
0.642637433
 40
0.642637433
 40
0.642637433
 40
0.749902017
 40
0.749902017
 40
0.749902017
 40
0.864722752
 40
0.864722752
 40
0.864722752
 40
1.000000000
 40
1.000000000
 40
1.000000000
 40
1.000000000
 10
-0.000000000
 20
17.000000014
 30
166.249999983
 10
-0.105607564
 20
16.999980840
 30
166.249899276
 10
-0.209228350
 20
16.999033350
 30
166.236808932
 10
-0.310862359
 20
16.997157545
 30
166.210728951
 10
-0.620655907
 20
16.991425984
 30
166.130610208
 10
-0.860892500
 20
16.978840999
 30
165.945600444
 10
-1.017325405
 20
16.969532965
 30
165.726325690
 10
-1.174526161
 20
16.959983055
 30
165.505998341
 10
-1.250112868
 20
16.953852592
 30
165.249901634
 10
-1.250000000
 20
16.953981833
 30
165.000000000
 10
-1.249794941
 20
16.953843320
 30
164.732564660
 10
-1.164739935
 20
16.960820761
 30
164.462861619
 10
-0.987693765
 20
16.971283423
 30
164.233866183
 10
-0.782405924
 20
16.983484169
 30
163.962141772
 10
-0.413318912
 20
17.000331379
 30
163.747287892
 10
0.000000000
 20
17.000000000
 30
163.750000000
  0
SPLINE
  5
A1F
330
A02
100
AcDbEntity
  8
Part
100
AcDbSpline
210
0
220
0
230
1
 70
8
 71
3
 72
17
 73
13
 74
0
 40
0.000000000
 40
0.000000000
 40
0.000000000
 40
0.000000000
 40
0.135318424
 40
0.135318424
 40
0.135318424
 40
0.250137546
 40
0.250137546
 40
0.250137546
 40
0.400400437
 40
0.400400437
 40
0.400400437
 40
0.500350827
 40
0.500350827
 40
0.500350827
 40
0.500350827
 10
0.000000000
 20
17.000000000
 30
163.750000000
 10
0.413477408
 20
17.000327888
 30
163.747342069
 10
0.782315514
 20
16.983486473
 30
163.962102591
 10
0.987693765
 20
16.971283423
 30
164.233866183
 10
1.164741421
 20
16.960820666
 30
164.462865355
 10
1.249793652
 20
16.953843404
 30
164.732560210
 10
1.250000000
 20
16.953981833
 30
165.000000000
 10
1.249741114
 20
16.953535610
 30
165.348918150
 10
1.103974082
 20
16.966416196
 30
165.706948648
 10
0.796779987
 20
16.981317430
 30
165.963141553
 10
0.593754769
 20
16.991065189
 30
166.134328354
 10
0.300258153
 20
17.000249187
 30
166.252215058
 10
-0.000000000
 20
17.000000014
 30
166.249999983
  0
SPLINE
  5
A20
330
A02
100
AcDbEntity
  8
Part
100
AcDbSpline
210
0
220
0
230
1
 70
8
 71
3
 72
17
 73
13
 74
0
 40
0.552865040
 40
0.552865040
 40
0.552865040
 40
0.552865040
 40
0.686040865
 40
0.686040865
 40
0.686040865
 40
0.790895457
 40
0.790895457
 40
0.790895457
 40
0.892098852
 40
0.892098852
 40
0.892098852
 40
1.000000000
 40
1.000000000
 40
1.000000000
 40
1.000000000
 10
-0.000000000
 20
17.000000030
 30
171.600000009
 10
-0.473511823
 20
17.000699711
 30
171.602062262
 10
-0.934882066
 20
16.977482150
 30
171.383167367
 10
-1.232821188
 20
16.955239660
 30
171.019878384
 10
-1.468831601
 20
16.937873128
 30
170.736157176
 10
-1.600993066
 20
16.924207709
 30
170.369045833
 10
-1.600000000
 20
16.924538398
 30
170.000000000
 10
-1.599893738
 20
16.924241726
 30
169.644676947
 10
-1.481663866
 20
16.936825812
 30
169.281775779
 10
-1.232821188
 20
16.955239660
 30
168.980121616
 10
-0.971511974
 20
16.974597197
 30
168.656368437
 10
-0.514855073
 20
17.000461309
 30
168.396953345
 10
0.000000000
 20
17.000000000
 30
168.400000000
  0
SPLINE
  5
A21
330
A02
100
AcDbEntity
  8
Part
100
AcDbSpline
210
0
220
0
230
1
 70
8
 71
3
 72
17
 73
13
 74
0
 40
0.000000000
 40
0.000000000
 40
0.000000000
 40
0.000000000
 40
0.142470946
 40
0.142470946
 40
0.142470946
 40
0.276387770
 40
0.276387770
 40
0.276387770
 40
0.443995295
 40
0.443995295
 40
0.443995295
 40
0.552865040
 40
0.552865040
 40
0.552865040
 40
0.552865040
 10
0.000000000
 20
17.000000000
 30
168.400000000
 10
0.515072298
 20
17.000455337
 30
168.397025064
 10
0.971388719
 20
16.974601113
 30
168.656317220
 10
1.232821188
 20
16.955239660
 30
168.980121616
 10
1.482049888
 20
16.936793782
 30
169.282733545
 10
1.599601199
 20
16.924266642
 30
169.643673636
 10
1.600000000
 20
16.924538398
 30
170.000000000
 10
1.599200731
 20
16.923820500
 30
170.444328264
 10
1.416479113
 20
16.944695917
 30
170.901197241
 10
1.019878384
 20
16.969379720
 30
171.232821188
 10
0.763835159
 20
16.985138424
 30
171.449174100
 10
0.386916427
 20
17.000418437
 30
171.603106019
 10
-0.000000000
 20
17.000000030
 30
171.600000009
  0
SPLINE
  5
A22
330
A02
100
AcDbEntity
  8
Part
100
AcDbSpline
210
0
220
0
230
1
 70
8
 71
3
 72
20
 73
16
 74
0
 40
0.500350827
 40
0.500350827
 40
0.500350827
 40
0.500350827
 40
0.535372849
 40
0.535372849
 40
0.535372849
 40
0.642637433
 40
0.642637433
 40
0.642637433
 40
0.749902017
 40
0.749902017
 40
0.749902017
 40
0.864722752
 40
0.864722752
 40
0.864722752
 40
1.000000000
 40
1.000000000
 40
1.000000000
 40
1.000000000
 10
-0.000000000
 20
17.000000014
 30
176.249999983
 10
-0.105607564
 20
16.999980840
 30
176.249899276
 10
-0.209228350
 20
16.999033350
 30
176.236808932
 10
-0.310862359
 20
16.997157545
 30
176.210728951
 10
-0.620655907
 20
16.991425984
 30
176.130610208
 10
-0.860892500
 20
16.978840999
 30
175.945600444
 10
-1.017325405
 20
16.969532965
 30
175.726325690
 10
-1.174526161
 20
16.959983055
 30
175.505998341
 10
-1.250112868
 20
16.953852592
 30
175.249901634
 10
-1.250000000
 20
16.953981833
 30
175.000000000
 10
-1.249794941
 20
16.953843320
 30
174.732564660
 10
-1.164739935
 20
16.960820761
 30
174.462861619
 10
-0.987693765
 20
16.971283423
 30
174.233866183
 10
-0.782405924
 20
16.983484169
 30
173.962141772
 10
-0.413318912
 20
17.000331379
 30
173.747287892
 10
0.000000000
 20
17.000000000
 30
173.750000000
  0
SPLINE
  5
A23
330
A02
100
AcDbEntity
  8
Part
100
AcDbSpline
210
0
220
0
230
1
 70
8
 71
3
 72
17
 73
13
 74
0
 40
0.000000000
 40
0.000000000
 40
0.000000000
 40
0.000000000
 40
0.135318424
 40
0.135318424
 40
0.135318424
 40
0.250137546
 40
0.250137546
 40
0.250137546
 40
0.400400437
 40
0.400400437
 40
0.400400437
 40
0.500350827
 40
0.500350827
 40
0.500350827
 40
0.500350827
 10
0.000000000
 20
17.000000000
 30
173.750000000
 10
0.413477408
 20
17.000327888
 30
173.747342069
 10
0.782315514
 20
16.983486473
 30
173.962102591
 10
0.987693765
 20
16.971283423
 30
174.233866183
 10
1.164741421
 20
16.960820666
 30
174.462865355
 10
1.249793652
 20
16.953843404
 30
174.732560210
 10
1.250000000
 20
16.953981833
 30
175.000000000
 10
1.249741114
 20
16.953535610
 30
175.348918150
 10
1.103974082
 20
16.966416196
 30
175.706948648
 10
0.796779987
 20
16.981317430
 30
175.963141553
 10
0.593754769
 20
16.991065189
 30
176.134328354
 10
0.300258153
 20
17.000249187
 30
176.252215058
 10
-0.000000000
 20
17.000000014
 30
176.249999983
  0
SPLINE
  5
A24
330
A02
100
AcDbEntity
  8
Part
100
AcDbSpline
210
0
220
0
230
1
 70
8
 71
3
 72
20
 73
16
 74
0
 40
0.500350827
 40
0.500350827
 40
0.500350827
 40
0.500350827
 40
0.535372849
 40
0.535372849
 40
0.535372849
 40
0.642637433
 40
0.642637433
 40
0.642637433
 40
0.749902017
 40
0.749902017
 40
0.749902017
 40
0.864722752
 40
0.864722752
 40
0.864722752
 40
1.000000000
 40
1.000000000
 40
1.000000000
 40
1.000000000
 10
-0.000000000
 20
17.000000014
 30
241.249999983
 10
-0.105607564
 20
16.999980840
 30
241.249899276
 10
-0.209228350
 20
16.999033350
 30
241.236808932
 10
-0.310862359
 20
16.997157545
 30
241.210728951
 10
-0.620655907
 20
16.991425984
 30
241.130610208
 10
-0.860892500
 20
16.978840999
 30
240.945600444
 10
-1.017325405
 20
16.969532965
 30
240.726325690
 10
-1.174526161
 20
16.959983055
 30
240.505998341
 10
-1.250112868
 20
16.953852592
 30
240.249901634
 10
-1.250000000
 20
16.953981833
 30
240.000000000
 10
-1.249794941
 20
16.953843320
 30
239.732564660
 10
-1.164739935
 20
16.960820761
 30
239.462861619
 10
-0.987693765
 20
16.971283423
 30
239.233866183
 10
-0.782405924
 20
16.983484169
 30
238.962141772
 10
-0.413318912
 20
17.000331379
 30
238.747287892
 10
0.000000000
 20
17.000000000
 30
238.750000000
  0
SPLINE
  5
A25
330
A02
100
AcDbEntity
  8
Part
100
AcDbSpline
210
0
220
0
230
1
 70
8
 71
3
 72
17
 73
13
 74
0
 40
0.000000000
 40
0.000000000
 40
0.000000000
 40
0.000000000
 40
0.135318424
 40
0.135318424
 40
0.135318424
 40
0.250137546
 40
0.250137546
 40
0.250137546
 40
0.400400437
 40
0.400400437
 40
0.400400437
 40
0.500350827
 40
0.500350827
 40
0.500350827
 40
0.500350827
 10
0.000000000
 20
17.000000000
 30
238.750000000
 10
0.413477408
 20
17.000327888
 30
238.747342069
 10
0.782315514
 20
16.983486473
 30
238.962102591
 10
0.987693765
 20
16.971283423
 30
239.233866183
 10
1.164741421
 20
16.960820666
 30
239.462865355
 10
1.249793652
 20
16.953843404
 30
239.732560210
 10
1.250000000
 20
16.953981833
 30
240.000000000
 10
1.249741114
 20
16.953535610
 30
240.348918150
 10
1.103974082
 20
16.966416196
 30
240.706948648
 10
0.796779987
 20
16.981317430
 30
240.963141553
 10
0.593754769
 20
16.991065189
 30
241.134328354
 10
0.300258153
 20
17.000249187
 30
241.252215058
 10
-0.000000000
 20
17.000000014
 30
241.249999983
  0
SPLINE
  5
A26
330
A02
100
AcDbEntity
  8
Part
100
AcDbSpline
210
0
220
0
230
1
 70
8
 71
3
 72
17
 73
13
 74
0
 40
0.552865046
 40
0.552865046
 40
0.552865046
 40
0.552865046
 40
0.686040869
 40
0.686040869
 40
0.686040869
 40
0.790895460
 40
0.790895460
 40
0.790895460
 40
0.892098854
 40
0.892098854
 40
0.892098854
 40
1.000000000
 40
1.000000000
 40
1.000000000
 40
1.000000000
 10
-0.000000000
 20
17.000000030
 30
246.600000009
 10
-0.473511823
 20
17.000699711
 30
246.602062262
 10
-0.934882066
 20
16.977482150
 30
246.383167367
 10
-1.232821188
 20
16.955239660
 30
246.019878384
 10
-1.468831601
 20
16.937873128
 30
245.736157176
 10
-1.600993066
 20
16.924207709
 30
245.369045833
 10
-1.600000000
 20
16.924538398
 30
245.000000000
 10
-1.599893738
 20
16.924241726
 30
244.644676947
 10
-1.481663866
 20
16.936825812
 30
244.281775779
 10
-1.232821188
 20
16.955239660
 30
243.980121616
 10
-0.971511974
 20
16.974597197
 30
243.656368437
 10
-0.514855073
 20
17.000461309
 30
243.396953345
 10
0.000000000
 20
17.000000000
 30
243.400000000
  0
SPLINE
  5
A27
330
A02
100
AcDbEntity
  8
Part
100
AcDbSpline
210
0
220
0
230
1
 70
8
 71
3
 72
17
 73
13
 74
0
 40
0.000000000
 40
0.000000000
 40
0.000000000
 40
0.000000000
 40
0.142470953
 40
0.142470953
 40
0.142470953
 40
0.276387779
 40
0.276387779
 40
0.276387779
 40
0.443995302
 40
0.443995302
 40
0.443995302
 40
0.552865046
 40
0.552865046
 40
0.552865046
 40
0.552865046
 10
0.000000000
 20
17.000000000
 30
243.400000000
 10
0.515072298
 20
17.000455337
 30
243.397025064
 10
0.971388719
 20
16.974601113
 30
243.656317220
 10
1.232821188
 20
16.955239660
 30
243.980121616
 10
1.482049888
 20
16.936793782
 30
244.282733545
 10
1.599601199
 20
16.924266642
 30
244.643673635
 10
1.600000000
 20
16.924538398
 30
245.000000000
 10
1.599200731
 20
16.923820500
 30
245.444328264
 10
1.416479113
 20
16.944695917
 30
245.901197241
 10
1.019878384
 20
16.969379720
 30
246.232821188
 10
0.763835159
 20
16.985138424
 30
246.449174100
 10
0.386916427
 20
17.000418437
 30
246.603106019
 10
-0.000000000
 20
17.000000030
 30
246.600000009
  0
SPLINE
  5
A28
330
A02
100
AcDbEntity
  8
Part
100
AcDbSpline
210
0
220
0
230
1
 70
8
 71
3
 72
20
 73
16
 74
0
 40
0.500350827
 40
0.500350827
 40
0.500350827
 40
0.500350827
 40
0.535372849
 40
0.535372849
 40
0.535372849
 40
0.642637433
 40
0.642637433
 40
0.642637433
 40
0.749902017
 40
0.749902017
 40
0.749902017
 40
0.864722752
 40
0.864722752
 40
0.864722752
 40
1.000000000
 40
1.000000000
 40
1.000000000
 40
1.000000000
 10
-0.000000000
 20
17.000000014
 30
251.249999983
 10
-0.105607564
 20
16.999980840
 30
251.249899276
 10
-0.209228350
 20
16.999033350
 30
251.236808932
 10
-0.310862359
 20
16.997157545
 30
251.210728951
 10
-0.620655907
 20
16.991425984
 30
251.130610208
 10
-0.860892500
 20
16.978840999
 30
250.945600444
 10
-1.017325405
 20
16.969532965
 30
250.726325690
 10
-1.174526161
 20
16.959983055
 30
250.505998341
 10
-1.250112868
 20
16.953852592
 30
250.249901634
 10
-1.250000000
 20
16.953981833
 30
250.000000000
 10
-1.249794941
 20
16.953843320
 30
249.732564660
 10
-1.164739935
 20
16.960820761
 30
249.462861619
 10
-0.987693765
 20
16.971283423
 30
249.233866183
 10
-0.782405924
 20
16.983484169
 30
248.962141772
 10
-0.413318912
 20
17.000331379
 30
248.747287892
 10
0.000000000
 20
17.000000000
 30
248.750000000
  0
SPLINE
  5
A29
330
A02
100
AcDbEntity
  8
Part
100
AcDbSpline
210
0
220
0
230
1
 70
8
 71
3
 72
17
 73
13
 74
0
 40
0.000000000
 40
0.000000000
 40
0.000000000
 40
0.000000000
 40
0.135318424
 40
0.135318424
 40
0.135318424
 40
0.250137546
 40
0.250137546
 40
0.250137546
 40
0.400400437
 40
0.400400437
 40
0.400400437
 40
0.500350827
 40
0.500350827
 40
0.500350827
 40
0.500350827
 10
0.000000000
 20
17.000000000
 30
248.750000000
 10
0.413477408
 20
17.000327888
 30
248.747342069
 10
0.782315514
 20
16.983486473
 30
248.962102591
 10
0.987693765
 20
16.971283423
 30
249.233866183
 10
1.164741421
 20
16.960820666
 30
249.462865355
 10
1.249793652
 20
16.953843404
 30
249.732560210
 10
1.250000000
 20
16.953981833
 30
250.000000000
 10
1.249741114
 20
16.953535610
 30
250.348918150
 10
1.103974082
 20
16.966416196
 30
250.706948648
 10
0.796779987
 20
16.981317430
 30
250.963141553
 10
0.593754769
 20
16.991065189
 30
251.134328354
 10
0.300258153
 20
17.000249187
 30
251.252215058
 10
-0.000000000
 20
17.000000014
 30
251.249999983
  0
LINE
  5
A2A
330
A02
100
AcDbEntity
  8
Part
100
AcDbLine
 10
16.000000000
 20
-15.099668871
 30
8.000000000
 11
16.000000000
 21
-5.744562647
 31
8.000000000
  0
LINE
  5
A2B
330
A02
100
AcDbEntity
  8
Part
100
AcDbLine
 10
16.000000000
 20
-5.744562647
 30
0.000000000
 11
16.000000000
 21
-5.744562647
 31
8.000000000
  0
LINE
  5
A2C
330
A02
100
AcDbEntity
  8
Part
100
AcDbLine
 10
16.000000000
 20
-15.099668871
 30
0.000000000
 11
16.000000000
 21
-5.744562647
 31
0.000000000
  0
LINE
  5
A2D
330
A02
100
AcDbEntity
  8
Part
100
AcDbLine
 10
16.000000000
 20
-15.099668871
 30
0.000000000
 11
16.000000000
 21
-15.099668871
 31
8.000000000
  0
ARC
  5
A2E
330
A02
100
AcDbEntity
  8
Part
100
AcDbCircle
 10
0.000000000
 20
0.000000000
 30
8.000000000
 40
22.000000000
100
AcDbArc
 50
43.341758227
 51
-43.341758227
  0
LINE
  5
A2F
330
A02
100
AcDbEntity
  8
Part
100
AcDbLine
 10
16.000000000
 20
5.744562647
 30
8.000000000
 11
16.000000000
 21
15.099668871
 31
8.000000000
  0
ARC
  5
A30
330
A02
100
AcDbEntity
  8
Part
100
AcDbCircle
 10
0.000000000
 20
0.000000000
 30
8.000000000
 40
17.000000000
100
AcDbArc
 50
19.749922796
 51
-19.749922796
  0
LINE
  5
A31
330
A02
100
AcDbEntity
  8
Part
100
AcDbLine
 10
16.000000000
 20
-15.099668871
 30
8.000000000
 11
16.000000000
 21
-5.744562647
 31
8.000000000
  0
LINE
  5
A32
330
A02
100
AcDbEntity
  8
Part
100
AcDbLine
 10
16.000000000
 20
5.744562647
 30
8.000000000
 11
16.000000000
 21
15.099668871
 31
8.000000000
  0
LINE
  5
A33
330
A02
100
AcDbEntity
  8
Part
100
AcDbLine
 10
16.000000000
 20
15.099668871
 30
0.000000000
 11
16.000000000
 21
15.099668871
 31
8.000000000
  0
LINE
  5
A34
330
A02
100
AcDbEntity
  8
Part
100
AcDbLine
 10
16.000000000
 20
5.744562647
 30
0.000000000
 11
16.000000000
 21
15.099668871
 31
0.000000000
  0
LINE
  5
A35
330
A02
100
AcDbEntity
  8
Part
100
AcDbLine
 10
16.000000000
 20
5.744562647
 30
0.000000000
 11
16.000000000
 21
5.744562647
 31
8.000000000
  0
ARC
  5
A36
330
A02
100
AcDbEntity
  8
Part
100
AcDbCircle
 10
0.000000000
 20
0.000000000
 30
0.000000000
 40
17.000000000
100
AcDbArc
 50
-19.749922796
 51
-0.000000000
  0
LINE
  5
A37
330
A02
100
AcDbEntity
  8
Part
100
AcDbLine
 10
16.000000000
 20
-15.099668871
 30
0.000000000
 11
16.000000000
 21
-5.744562647
 31
0.000000000
  0
ARC
  5
A38
330
A02
100
AcDbEntity
  8
Part
100
AcDbCircle
 10
0.000000000
 20
0.000000000
 30
0.000000000
 40
17.000000000
100
AcDbArc
 50
0.000000000
 51
19.749922796
  0
ARC
  5
A39
330
A02
100
AcDbEntity
  8
Part
100
AcDbCircle
 10
0.000000000
 20
0.000000000
 30
0.000000000
 40
22.000000000
100
AcDbArc
 50
43.341758227
 51
-43.341758227
  0
LINE
  5
A3A
330
A02
100
AcDbEntity
  8
Part
100
AcDbLine
 10
16.000000000
 20
5.744562647
 30
0.000000000
 11
16.000000000
 21
15.099668871
 31
0.000000000
  0
CIRCLE
  5
A3B
330
A02
100
AcDbEntity
  8
Part
100
AcDbCircle
 10
0.000000000
 20
0.000000000
 30
0.000000000
 40
8.100000000
  0
LINE
  5
A3C
330
A02
100
AcDbEntity
  8
Part
100
AcDbLine
 10
8.000000000
 20
-10.000000000
 30
12.000000000
 11
8.000000000
 21
-1.268857754
 31
12.000000000
  0
ARC
  5
A3D
330
A02
100
AcDbEntity
  8
Part
100
AcDbCircle
 10
0.000000000
 20
0.000000000
 30
12.000000000
 40
8.100000000
100
AcDbArc
 50
-9.012451499
 51
-0.000000000
  0
ARC
  5
A3E
330
A02
100
AcDbEntity
  8
Part
100
AcDbCircle
 10
0.000000000
 20
0.000000000
 30
12.000000000
 40
8.100000000
100
AcDbArc
 50
0.000000000
 51
9.012451499
  0
LINE
  5
A3F
330
A02
100
AcDbEntity
  8
Part
100
AcDbLine
 10
8.000000000
 20
1.268857754
 30
12.000000000
 11
8.000000000
 21
10.000000000
 31
12.000000000
  0
LINE
  5
A40
330
A02
100
AcDbEntity
  8
Part
100
AcDbLine
 10
8.000000000
 20
10.000000000
 30
12.000000000
 11
13.747727085
 21
10.000000000
 31
12.000000000
  0
ARC
  5
A41
330
A02
100
AcDbEntity
  8
Part
100
AcDbCircle
 10
0.000000000
 20
0.000000000
 30
12.000000000
 40
17.000000000
100
AcDbArc
 50
0.000000000
 51
36.031879072
  0
ARC
  5
A42
330
A02
100
AcDbEntity
  8
Part
100
AcDbCircle
 10
0.000000000
 20
0.000000000
 30
12.000000000
 40
17.000000000
100
AcDbArc
 50
-36.031879072
 51
-0.000000000
  0
LINE
  5
A43
330
A02
100
AcDbEntity
  8
Part
100
AcDbLine
 10
8.000000000
 20
-10.000000000
 30
12.000000000
 11
13.747727085
 21
-10.000000000
 31
12.000000000
  0
LINE
  5
A44
330
A02
100
AcDbEntity
  8
Part
100
AcDbLine
 10
8.000000000
 20
10.000000000
 30
12.000000000
 11
13.747727085
 21
10.000000000
 31
12.000000000
  0
LINE
  5
A45
330
A02
100
AcDbEntity
  8
Part
100
AcDbLine
 10
13.747727085
 20
10.000000000
 30
12.000000000
 11
13.747727085
 21
10.000000000
 31
30.000000000
  0
LINE
  5
A46
330
A02
100
AcDbEntity
  8
Part
100
AcDbLine
 10
8.000000000
 20
10.000000000
 30
30.000000000
 11
13.747727085
 21
10.000000000
 31
30.000000000
  0
LINE
  5
A47
330
A02
100
AcDbEntity
  8
Part
100
AcDbLine
 10
8.000000000
 20
10.000000000
 30
12.000000000
 11
8.000000000
 21
10.000000000
 31
30.000000000
  0
LINE
  5
A48
330
A02
100
AcDbEntity
  8
Part
100
AcDbLine
 10
8.000000000
 20
-10.000000000
 30
30.000000000
 11
8.000000000
 21
-1.268857754
 31
30.000000000
  0
ARC
  5
A49
330
A02
100
AcDbEntity
  8
Part
100
AcDbCircle
 10
0.000000000
 20
0.000000000
 30
30.000000000
 40
8.100000000
100
AcDbArc
 50
-9.012451499
 51
-0.000000000
  0
ARC
  5
A4A
330
A02
100
AcDbEntity
  8
Part
100
AcDbCircle
 10
0.000000000
 20
0.000000000
 30
30.000000000
 40
8.100000000
100
AcDbArc
 50
0.000000000
 51
9.012451499
  0
LINE
  5
A4B
330
A02
100
AcDbEntity
  8
Part
100
AcDbLine
 10
8.000000000
 20
1.268857754
 30
30.000000000
 11
8.000000000
 21
10.000000000
 31
30.000000000
  0
LINE
  5
A4C
330
A02
100
AcDbEntity
  8
Part
100
AcDbLine
 10
8.000000000
 20
10.000000000
 30
30.000000000
 11
13.747727085
 21
10.000000000
 31
30.000000000
  0
ARC
  5
A4D
330
A02
100
AcDbEntity
  8
Part
100
AcDbCircle
 10
0.000000000
 20
0.000000000
 30
30.000000000
 40
17.000000000
100
AcDbArc
 50
0.000000000
 51
36.031879072
  0
ARC
  5
A4E
330
A02
100
AcDbEntity
  8
Part
100
AcDbCircle
 10
0.000000000
 20
0.000000000
 30
30.000000000
 40
17.000000000
100
AcDbArc
 50
-36.031879072
 51
-0.000000000
  0
LINE
  5
A4F
330
A02
100
AcDbEntity
  8
Part
100
AcDbLine
 10
8.000000000
 20
-10.000000000
 30
30.000000000
 11
13.747727085
 21
-10.000000000
 31
30.000000000
  0
CIRCLE
  5
A50
330
A02
100
AcDbEntity
  8
Part
100
AcDbCircle
 10
0.000000000
 20
0.000000000
 30
280.000000000
 40
17.000000000
  0
CIRCLE
  5
A51
330
A02
100
AcDbEntity
  8
Part
100
AcDbCircle
 10
-9.192388155
 20
-9.192388155
 30
280.000000000
 40
1.650000000
  0
CIRCLE
  5
A52
330
A02
100
AcDbEntity
  8
Part
100
AcDbCircle
 10
0.000000000
 20
-13.000000000
 30
280.000000000
 40
1.500000000
  0
CIRCLE
  5
A53
330
A02
100
AcDbEntity
  8
Part
100
AcDbCircle
 10
9.192388155
 20
-9.192388155
 30
280.000000000
 40
1.650000000
  0
CIRCLE
  5
A54
330
A02
100
AcDbEntity
  8
Part
100
AcDbCircle
 10
-9.192388155
 20
9.192388155
 30
280.000000000
 40
1.650000000
  0
CIRCLE
  5
A55
330
A02
100
AcDbEntity
  8
Part
100
AcDbCircle
 10
0.000000000
 20
0.000000000
 30
280.000000000
 40
8.100000000
  0
CIRCLE
  5
A56
330
A02
100
AcDbEntity
  8
Part
100
AcDbCircle
 10
0.000000000
 20
13.000000000
 30
280.000000000
 40
1.500000000
  0
CIRCLE
  5
A57
330
A02
100
AcDbEntity
  8
Part
100
AcDbCircle
 10
9.192388155
 20
9.192388155
 30
280.000000000
 40
1.650000000
  0
LINE
  5
A58
330
A02
100
AcDbEntity
  8
Part
100
AcDbLine
 10
8.000000000
 20
-10.000000000
 30
12.000000000
 11
13.747727085
 21
-10.000000000
 31
12.000000000
  0
LINE
  5
A59
330
A02
100
AcDbEntity
  8
Part
100
AcDbLine
 10
13.747727085
 20
-10.000000000
 30
12.000000000
 11
13.747727085
 21
-10.000000000
 31
30.000000000
  0
LINE
  5
A5A
330
A02
100
AcDbEntity
  8
Part
100
AcDbLine
 10
8.000000000
 20
-10.000000000
 30
30.000000000
 11
13.747727085
 21
-10.000000000
 31
30.000000000
  0
LINE
  5
A5B
330
A02
100
AcDbEntity
  8
Part
100
AcDbLine
 10
8.000000000
 20
-10.000000000
 30
12.000000000
 11
8.000000000
 21
-10.000000000
 31
30.000000000
  0
LINE
  5
A5C
330
A02
100
AcDbEntity
  8
Part
100
AcDbLine
 10
-0.000000000
 20
17.000000000
 30
88.750000000
 11
-0.000000000
 21
13.000000000
 31
88.750000000
  0
SPLINE
  5
A5D
330
A02
100
AcDbEntity
  8
Part
100
AcDbSpline
210
0
220
0
230
1
 70
8
 71
3
 72
20
 73
16
 74
0
 40
0.500350827
 40
0.500350827
 40
0.500350827
 40
0.500350827
 40
0.535372849
 40
0.535372849
 40
0.535372849
 40
0.642637433
 40
0.642637433
 40
0.642637433
 40
0.749902017
 40
0.749902017
 40
0.749902017
 40
0.864722752
 40
0.864722752
 40
0.864722752
 40
1.000000000
 40
1.000000000
 40
1.000000000
 40
1.000000000
 10
-0.000000000
 20
17.000000014
 30
91.249999983
 10
-0.105607564
 20
16.999980840
 30
91.249899276
 10
-0.209228350
 20
16.999033350
 30
91.236808932
 10
-0.310862359
 20
16.997157545
 30
91.210728951
 10
-0.620655907
 20
16.991425984
 30
91.130610208
 10
-0.860892500
 20
16.978840999
 30
90.945600444
 10
-1.017325405
 20
16.969532965
 30
90.726325690
 10
-1.174526161
 20
16.959983055
 30
90.505998341
 10
-1.250112868
 20
16.953852592
 30
90.249901634
 10
-1.250000000
 20
16.953981833
 30
90.000000000
 10
-1.249794941
 20
16.953843320
 30
89.732564660
 10
-1.164739935
 20
16.960820761
 30
89.462861619
 10
-0.987693765
 20
16.971283423
 30
89.233866183
 10
-0.782405924
 20
16.983484169
 30
88.962141772
 10
-0.413318912
 20
17.000331379
 30
88.747287892
 10
0.000000000
 20
17.000000000
 30
88.750000000
  0
SPLINE
  5
A5E
330
A02
100
AcDbEntity
  8
Part
100
AcDbSpline
210
0
220
0
230
1
 70
8
 71
3
 72
17
 73
13
 74
0
 40
0.000000000
 40
0.000000000
 40
0.000000000
 40
0.000000000
 40
0.135318424
 40
0.135318424
 40
0.135318424
 40
0.250137546
 40
0.250137546
 40
0.250137546
 40
0.400400437
 40
0.400400437
 40
0.400400437
 40
0.500350827
 40
0.500350827
 40
0.500350827
 40
0.500350827
 10
0.000000000
 20
17.000000000
 30
88.750000000
 10
0.413477408
 20
17.000327888
 30
88.747342069
 10
0.782315514
 20
16.983486473
 30
88.962102591
 10
0.987693765
 20
16.971283423
 30
89.233866183
 10
1.164741421
 20
16.960820666
 30
89.462865355
 10
1.249793652
 20
16.953843404
 30
89.732560210
 10
1.250000000
 20
16.953981833
 30
90.000000000
 10
1.249741114
 20
16.953535610
 30
90.348918150
 10
1.103974082
 20
16.966416196
 30
90.706948648
 10
0.796779987
 20
16.981317430
 30
90.963141553
 10
0.593754769
 20
16.991065189
 30
91.134328354
 10
0.300258153
 20
17.000249187
 30
91.252215058
 10
-0.000000000
 20
17.000000014
 30
91.249999983
  0
LINE
  5
A5F
330
A02
100
AcDbEntity
  8
Part
100
AcDbLine
 10
-0.000000000
 20
17.000000000
 30
88.750000000
 11
-0.000000000
 21
13.000000000
 31
88.750000000
  0
CIRCLE
  5
A60
330
A02
100
AcDbEntity
  8
Part
100
AcDbCircle
 10
0.000000000
 20
13.000000000
 30
90.000000000
 40
1.250000000
  0
LINE
  5
A61
330
A02
100
AcDbEntity
  8
Part
100
AcDbLine
 10
-0.000000000
 20
17.000000000
 30
93.400000000
 11
-0.000000000
 21
11.600000000
 31
93.400000000
  0
SPLINE
  5
A62
330
A02
100
AcDbEntity
  8
Part
100
AcDbSpline
210
0
220
0
230
1
 70
8
 71
3
 72
17
 73
13
 74
0
 40
0.552865046
 40
0.552865046
 40
0.552865046
 40
0.552865046
 40
0.686040869
 40
0.686040869
 40
0.686040869
 40
0.790895460
 40
0.790895460
 40
0.790895460
 40
0.892098853
 40
0.892098853
 40
0.892098853
 40
1.000000000
 40
1.000000000
 40
1.000000000
 40
1.000000000
 10
-0.000000000
 20
17.000000030
 30
96.600000009
 10
-0.473511823
 20
17.000699711
 30
96.602062262
 10
-0.934882066
 20
16.977482150
 30
96.383167367
 10
-1.232821188
 20
16.955239660
 30
96.019878384
 10
-1.468831601
 20
16.937873128
 30
95.736157176
 10
-1.600993066
 20
16.924207709
 30
95.369045833
 10
-1.600000000
 20
16.924538398
 30
95.000000000
 10
-1.599893738
 20
16.924241726
 30
94.644676947
 10
-1.481663866
 20
16.936825812
 30
94.281775779
 10
-1.232821188
 20
16.955239660
 30
93.980121616
 10
-0.971511974
 20
16.974597197
 30
93.656368437
 10
-0.514855073
 20
17.000461309
 30
93.396953345
 10
0.000000000
 20
17.000000000
 30
93.400000000
  0
SPLINE
  5
A63
330
A02
100
AcDbEntity
  8
Part
100
AcDbSpline
210
0
220
0
230
1
 70
8
 71
3
 72
17
 73
13
 74
0
 40
0.000000000
 40
0.000000000
 40
0.000000000
 40
0.000000000
 40
0.142470953
 40
0.142470953
 40
0.142470953
 40
0.276387779
 40
0.276387779
 40
0.276387779
 40
0.443995302
 40
0.443995302
 40
0.443995302
 40
0.552865046
 40
0.552865046
 40
0.552865046
 40
0.552865046
 10
0.000000000
 20
17.000000000
 30
93.400000000
 10
0.515072298
 20
17.000455337
 30
93.397025064
 10
0.971388719
 20
16.974601113
 30
93.656317220
 10
1.232821188
 20
16.955239660
 30
93.980121616
 10
1.482049888
 20
16.936793782
 30
94.282733545
 10
1.599601199
 20
16.924266642
 30
94.643673635
 10
1.600000000
 20
16.924538398
 30
95.000000000
 10
1.599200731
 20
16.923820500
 30
95.444328264
 10
1.416479113
 20
16.944695917
 30
95.901197241
 10
1.019878384
 20
16.969379720
 30
96.232821188
 10
0.763835159
 20
16.985138424
 30
96.449174100
 10
0.386916427
 20
17.000418437
 30
96.603106019
 10
-0.000000000
 20
17.000000030
 30
96.600000009
  0
LINE
  5
A64
330
A02
100
AcDbEntity
  8
Part
100
AcDbLine
 10
-0.000000000
 20
17.000000000
 30
93.400000000
 11
-0.000000000
 21
11.600000000
 31
93.400000000
  0
CIRCLE
  5
A65
330
A02
100
AcDbEntity
  8
Part
100
AcDbCircle
 10
0.000000000
 20
11.600000000
 30
95.000000000
 40
1.600000000
  0
LINE
  5
A66
330
A02
100
AcDbEntity
  8
Part
100
AcDbLine
 10
-0.000000000
 20
17.000000000
 30
98.750000000
 11
-0.000000000
 21
13.000000000
 31
98.750000000
  0
SPLINE
  5
A67
330
A02
100
AcDbEntity
  8
Part
100
AcDbSpline
210
0
220
0
230
1
 70
8
 71
3
 72
20
 73
16
 74
0
 40
0.500350827
 40
0.500350827
 40
0.500350827
 40
0.500350827
 40
0.535372849
 40
0.535372849
 40
0.535372849
 40
0.642637433
 40
0.642637433
 40
0.642637433
 40
0.749902017
 40
0.749902017
 40
0.749902017
 40
0.864722752
 40
0.864722752
 40
0.864722752
 40
1.000000000
 40
1.000000000
 40
1.000000000
 40
1.000000000
 10
-0.000000000
 20
17.000000014
 30
101.249999983
 10
-0.105607564
 20
16.999980840
 30
101.249899276
 10
-0.209228350
 20
16.999033350
 30
101.236808932
 10
-0.310862359
 20
16.997157545
 30
101.210728951
 10
-0.620655907
 20
16.991425984
 30
101.130610208
 10
-0.860892500
 20
16.978840999
 30
100.945600444
 10
-1.017325405
 20
16.969532965
 30
100.726325690
 10
-1.174526161
 20
16.959983055
 30
100.505998341
 10
-1.250112868
 20
16.953852592
 30
100.249901634
 10
-1.250000000
 20
16.953981833
 30
100.000000000
 10
-1.249794941
 20
16.953843320
 30
99.732564660
 10
-1.164739935
 20
16.960820761
 30
99.462861619
 10
-0.987693765
 20
16.971283423
 30
99.233866183
 10
-0.782405924
 20
16.983484169
 30
98.962141772
 10
-0.413318912
 20
17.000331379
 30
98.747287892
 10
0.000000000
 20
17.000000000
 30
98.750000000
  0
SPLINE
  5
A68
330
A02
100
AcDbEntity
  8
Part
100
AcDbSpline
210
0
220
0
230
1
 70
8
 71
3
 72
17
 73
13
 74
0
 40
0.000000000
 40
0.000000000
 40
0.000000000
 40
0.000000000
 40
0.135318424
 40
0.135318424
 40
0.135318424
 40
0.250137546
 40
0.250137546
 40
0.250137546
 40
0.400400437
 40
0.400400437
 40
0.400400437
 40
0.500350827
 40
0.500350827
 40
0.500350827
 40
0.500350827
 10
0.000000000
 20
17.000000000
 30
98.750000000
 10
0.413477408
 20
17.000327888
 30
98.747342069
 10
0.782315514
 20
16.983486473
 30
98.962102591
 10
0.987693765
 20
16.971283423
 30
99.233866183
 10
1.164741421
 20
16.960820666
 30
99.462865355
 10
1.249793652
 20
16.953843404
 30
99.732560210
 10
1.250000000
 20
16.953981833
 30
100.000000000
 10
1.249741114
 20
16.953535610
 30
100.348918150
 10
1.103974082
 20
16.966416196
 30
100.706948648
 10
0.796779987
 20
16.981317430
 30
100.963141553
 10
0.593754769
 20
16.991065189
 30
101.134328354
 10
0.300258153
 20
17.000249187
 30
101.252215058
 10
-0.000000000
 20
17.000000014
 30
101.249999983
  0
LINE
  5
A69
330
A02
100
AcDbEntity
  8
Part
100
AcDbLine
 10
-0.000000000
 20
17.000000000
 30
98.750000000
 11
-0.000000000
 21
13.000000000
 31
98.750000000
  0
CIRCLE
  5
A6A
330
A02
100
AcDbEntity
  8
Part
100
AcDbCircle
 10
0.000000000
 20
13.000000000
 30
100.000000000
 40
1.250000000
  0
LINE
  5
A6B
330
A02
100
AcDbEntity
  8
Part
100
AcDbLine
 10
-0.000000000
 20
17.000000000
 30
163.750000000
 11
-0.000000000
 21
13.000000000
 31
163.750000000
  0
SPLINE
  5
A6C
330
A02
100
AcDbEntity
  8
Part
100
AcDbSpline
210
0
220
0
230
1
 70
8
 71
3
 72
20
 73
16
 74
0
 40
0.500350827
 40
0.500350827
 40
0.500350827
 40
0.500350827
 40
0.535372849
 40
0.535372849
 40
0.535372849
 40
0.642637433
 40
0.642637433
 40
0.642637433
 40
0.749902017
 40
0.749902017
 40
0.749902017
 40
0.864722752
 40
0.864722752
 40
0.864722752
 40
1.000000000
 40
1.000000000
 40
1.000000000
 40
1.000000000
 10
-0.000000000
 20
17.000000014
 30
166.249999983
 10
-0.105607564
 20
16.999980840
 30
166.249899276
 10
-0.209228350
 20
16.999033350
 30
166.236808932
 10
-0.310862359
 20
16.997157545
 30
166.210728951
 10
-0.620655907
 20
16.991425984
 30
166.130610208
 10
-0.860892500
 20
16.978840999
 30
165.945600444
 10
-1.017325405
 20
16.969532965
 30
165.726325690
 10
-1.174526161
 20
16.959983055
 30
165.505998341
 10
-1.250112868
 20
16.953852592
 30
165.249901634
 10
-1.250000000
 20
16.953981833
 30
165.000000000
 10
-1.249794941
 20
16.953843320
 30
164.732564660
 10
-1.164739935
 20
16.960820761
 30
164.462861619
 10
-0.987693765
 20
16.971283423
 30
164.233866183
 10
-0.782405924
 20
16.983484169
 30
163.962141772
 10
-0.413318912
 20
17.000331379
 30
163.747287892
 10
0.000000000
 20
17.000000000
 30
163.750000000
  0
SPLINE
  5
A6D
330
A02
100
AcDbEntity
  8
Part
100
AcDbSpline
210
0
220
0
230
1
 70
8
 71
3
 72
17
 73
13
 74
0
 40
0.000000000
 40
0.000000000
 40
0.000000000
 40
0.000000000
 40
0.135318424
 40
0.135318424
 40
0.135318424
 40
0.250137546
 40
0.250137546
 40
0.250137546
 40
0.400400437
 40
0.400400437
 40
0.400400437
 40
0.500350827
 40
0.500350827
 40
0.500350827
 40
0.500350827
 10
0.000000000
 20
17.000000000
 30
163.750000000
 10
0.413477408
 20
17.000327888
 30
163.747342069
 10
0.782315514
 20
16.983486473
 30
163.962102591
 10
0.987693765
 20
16.971283423
 30
164.233866183
 10
1.164741421
 20
16.960820666
 30
164.462865355
 10
1.249793652
 20
16.953843404
 30
164.732560210
 10
1.250000000
 20
16.953981833
 30
165.000000000
 10
1.249741114
 20
16.953535610
 30
165.348918150
 10
1.103974082
 20
16.966416196
 30
165.706948648
 10
0.796779987
 20
16.981317430
 30
165.963141553
 10
0.593754769
 20
16.991065189
 30
166.134328354
 10
0.300258153
 20
17.000249187
 30
166.252215058
 10
-0.000000000
 20
17.000000014
 30
166.249999983
  0
LINE
  5
A6E
330
A02
100
AcDbEntity
  8
Part
100
AcDbLine
 10
-0.000000000
 20
17.000000000
 30
163.750000000
 11
-0.000000000
 21
13.000000000
 31
163.750000000
  0
CIRCLE
  5
A6F
330
A02
100
AcDbEntity
  8
Part
100
AcDbCircle
 10
0.000000000
 20
13.000000000
 30
165.000000000
 40
1.250000000
  0
LINE
  5
A70
330
A02
100
AcDbEntity
  8
Part
100
AcDbLine
 10
-0.000000000
 20
17.000000000
 30
168.400000000
 11
-0.000000000
 21
11.600000000
 31
168.400000000
  0
SPLINE
  5
A71
330
A02
100
AcDbEntity
  8
Part
100
AcDbSpline
210
0
220
0
230
1
 70
8
 71
3
 72
17
 73
13
 74
0
 40
0.552865040
 40
0.552865040
 40
0.552865040
 40
0.552865040
 40
0.686040865
 40
0.686040865
 40
0.686040865
 40
0.790895457
 40
0.790895457
 40
0.790895457
 40
0.892098852
 40
0.892098852
 40
0.892098852
 40
1.000000000
 40
1.000000000
 40
1.000000000
 40
1.000000000
 10
-0.000000000
 20
17.000000030
 30
171.600000009
 10
-0.473511823
 20
17.000699711
 30
171.602062262
 10
-0.934882066
 20
16.977482150
 30
171.383167367
 10
-1.232821188
 20
16.955239660
 30
171.019878384
 10
-1.468831601
 20
16.937873128
 30
170.736157176
 10
-1.600993066
 20
16.924207709
 30
170.369045833
 10
-1.600000000
 20
16.924538398
 30
170.000000000
 10
-1.599893738
 20
16.924241726
 30
169.644676947
 10
-1.481663866
 20
16.936825812
 30
169.281775779
 10
-1.232821188
 20
16.955239660
 30
168.980121616
 10
-0.971511974
 20
16.974597197
 30
168.656368437
 10
-0.514855073
 20
17.000461309
 30
168.396953345
 10
0.000000000
 20
17.000000000
 30
168.400000000
  0
SPLINE
  5
A72
330
A02
100
AcDbEntity
  8
Part
100
AcDbSpline
210
0
220
0
230
1
 70
8
 71
3
 72
17
 73
13
 74
0
 40
0.000000000
 40
0.000000000
 40
0.000000000
 40
0.000000000
 40
0.142470946
 40
0.142470946
 40
0.142470946
 40
0.276387770
 40
0.276387770
 40
0.276387770
 40
0.443995295
 40
0.443995295
 40
0.443995295
 40
0.552865040
 40
0.552865040
 40
0.552865040
 40
0.552865040
 10
0.000000000
 20
17.000000000
 30
168.400000000
 10
0.515072298
 20
17.000455337
 30
168.397025064
 10
0.971388719
 20
16.974601113
 30
168.656317220
 10
1.232821188
 20
16.955239660
 30
168.980121616
 10
1.482049888
 20
16.936793782
 30
169.282733545
 10
1.599601199
 20
16.924266642
 30
169.643673636
 10
1.600000000
 20
16.924538398
 30
170.000000000
 10
1.599200731
 20
16.923820500
 30
170.444328264
 10
1.416479113
 20
16.944695917
 30
170.901197241
 10
1.019878384
 20
16.969379720
 30
171.232821188
 10
0.763835159
 20
16.985138424
 30
171.449174100
 10
0.386916427
 20
17.000418437
 30
171.603106019
 10
-0.000000000
 20
17.000000030
 30
171.600000009
  0
LINE
  5
A73
330
A02
100
AcDbEntity
  8
Part
100
AcDbLine
 10
-0.000000000
 20
17.000000000
 30
168.400000000
 11
-0.000000000
 21
11.600000000
 31
168.400000000
  0
CIRCLE
  5
A74
330
A02
100
AcDbEntity
  8
Part
100
AcDbCircle
 10
0.000000000
 20
11.600000000
 30
170.000000000
 40
1.600000000
  0
LINE
  5
A75
330
A02
100
AcDbEntity
  8
Part
100
AcDbLine
 10
-0.000000000
 20
17.000000000
 30
173.750000000
 11
-0.000000000
 21
13.000000000
 31
173.750000000
  0
SPLINE
  5
A76
330
A02
100
AcDbEntity
  8
Part
100
AcDbSpline
210
0
220
0
230
1
 70
8
 71
3
 72
20
 73
16
 74
0
 40
0.500350827
 40
0.500350827
 40
0.500350827
 40
0.500350827
 40
0.535372849
 40
0.535372849
 40
0.535372849
 40
0.642637433
 40
0.642637433
 40
0.642637433
 40
0.749902017
 40
0.749902017
 40
0.749902017
 40
0.864722752
 40
0.864722752
 40
0.864722752
 40
1.000000000
 40
1.000000000
 40
1.000000000
 40
1.000000000
 10
-0.000000000
 20
17.000000014
 30
176.249999983
 10
-0.105607564
 20
16.999980840
 30
176.249899276
 10
-0.209228350
 20
16.999033350
 30
176.236808932
 10
-0.310862359
 20
16.997157545
 30
176.210728951
 10
-0.620655907
 20
16.991425984
 30
176.130610208
 10
-0.860892500
 20
16.978840999
 30
175.945600444
 10
-1.017325405
 20
16.969532965
 30
175.726325690
 10
-1.174526161
 20
16.959983055
 30
175.505998341
 10
-1.250112868
 20
16.953852592
 30
175.249901634
 10
-1.250000000
 20
16.953981833
 30
175.000000000
 10
-1.249794941
 20
16.953843320
 30
174.732564660
 10
-1.164739935
 20
16.960820761
 30
174.462861619
 10
-0.987693765
 20
16.971283423
 30
174.233866183
 10
-0.782405924
 20
16.983484169
 30
173.962141772
 10
-0.413318912
 20
17.000331379
 30
173.747287892
 10
0.000000000
 20
17.000000000
 30
173.750000000
  0
SPLINE
  5
A77
330
A02
100
AcDbEntity
  8
Part
100
AcDbSpline
210
0
220
0
230
1
 70
8
 71
3
 72
17
 73
13
 74
0
 40
0.000000000
 40
0.000000000
 40
0.000000000
 40
0.000000000
 40
0.135318424
 40
0.135318424
 40
0.135318424
 40
0.250137546
 40
0.250137546
 40
0.250137546
 40
0.400400437
 40
0.400400437
 40
0.400400437
 40
0.500350827
 40
0.500350827
 40
0.500350827
 40
0.500350827
 10
0.000000000
 20
17.000000000
 30
173.750000000
 10
0.413477408
 20
17.000327888
 30
173.747342069
 10
0.782315514
 20
16.983486473
 30
173.962102591
 10
0.987693765
 20
16.971283423
 30
174.233866183
 10
1.164741421
 20
16.960820666
 30
174.462865355
 10
1.249793652
 20
16.953843404
 30
174.732560210
 10
1.250000000
 20
16.953981833
 30
175.000000000
 10
1.249741114
 20
16.953535610
 30
175.348918150
 10
1.103974082
 20
16.966416196
 30
175.706948648
 10
0.796779987
 20
16.981317430
 30
175.963141553
 10
0.593754769
 20
16.991065189
 30
176.134328354
 10
0.300258153
 20
17.000249187
 30
176.252215058
 10
-0.000000000
 20
17.000000014
 30
176.249999983
  0
LINE
  5
A78
330
A02
100
AcDbEntity
  8
Part
100
AcDbLine
 10
-0.000000000
 20
17.000000000
 30
173.750000000
 11
-0.000000000
 21
13.000000000
 31
173.750000000
  0
CIRCLE
  5
A79
330
A02
100
AcDbEntity
  8
Part
100
AcDbCircle
 10
0.000000000
 20
13.000000000
 30
175.000000000
 40
1.250000000
  0
LINE
  5
A7A
330
A02
100
AcDbEntity
  8
Part
100
AcDbLine
 10
-0.000000000
 20
17.000000000
 30
238.750000000
 11
-0.000000000
 21
13.000000000
 31
238.750000000
  0
SPLINE
  5
A7B
330
A02
100
AcDbEntity
  8
Part
100
AcDbSpline
210
0
220
0
230
1
 70
8
 71
3
 72
20
 73
16
 74
0
 40
0.500350827
 40
0.500350827
 40
0.500350827
 40
0.500350827
 40
0.535372849
 40
0.535372849
 40
0.535372849
 40
0.642637433
 40
0.642637433
 40
0.642637433
 40
0.749902017
 40
0.749902017
 40
0.749902017
 40
0.864722752
 40
0.864722752
 40
0.864722752
 40
1.000000000
 40
1.000000000
 40
1.000000000
 40
1.000000000
 10
-0.000000000
 20
17.000000014
 30
241.249999983
 10
-0.105607564
 20
16.999980840
 30
241.249899276
 10
-0.209228350
 20
16.999033350
 30
241.236808932
 10
-0.310862359
 20
16.997157545
 30
241.210728951
 10
-0.620655907
 20
16.991425984
 30
241.130610208
 10
-0.860892500
 20
16.978840999
 30
240.945600444
 10
-1.017325405
 20
16.969532965
 30
240.726325690
 10
-1.174526161
 20
16.959983055
 30
240.505998341
 10
-1.250112868
 20
16.953852592
 30
240.249901634
 10
-1.250000000
 20
16.953981833
 30
240.000000000
 10
-1.249794941
 20
16.953843320
 30
239.732564660
 10
-1.164739935
 20
16.960820761
 30
239.462861619
 10
-0.987693765
 20
16.971283423
 30
239.233866183
 10
-0.782405924
 20
16.983484169
 30
238.962141772
 10
-0.413318912
 20
17.000331379
 30
238.747287892
 10
0.000000000
 20
17.000000000
 30
238.750000000
  0
SPLINE
  5
A7C
330
A02
100
AcDbEntity
  8
Part
100
AcDbSpline
210
0
220
0
230
1
 70
8
 71
3
 72
17
 73
13
 74
0
 40
0.000000000
 40
0.000000000
 40
0.000000000
 40
0.000000000
 40
0.135318424
 40
0.135318424
 40
0.135318424
 40
0.250137546
 40
0.250137546
 40
0.250137546
 40
0.400400437
 40
0.400400437
 40
0.400400437
 40
0.500350827
 40
0.500350827
 40
0.500350827
 40
0.500350827
 10
0.000000000
 20
17.000000000
 30
238.750000000
 10
0.413477408
 20
17.000327888
 30
238.747342069
 10
0.782315514
 20
16.983486473
 30
238.962102591
 10
0.987693765
 20
16.971283423
 30
239.233866183
 10
1.164741421
 20
16.960820666
 30
239.462865355
 10
1.249793652
 20
16.953843404
 30
239.732560210
 10
1.250000000
 20
16.953981833
 30
240.000000000
 10
1.249741114
 20
16.953535610
 30
240.348918150
 10
1.103974082
 20
16.966416196
 30
240.706948648
 10
0.796779987
 20
16.981317430
 30
240.963141553
 10
0.593754769
 20
16.991065189
 30
241.134328354
 10
0.300258153
 20
17.000249187
 30
241.252215058
 10
-0.000000000
 20
17.000000014
 30
241.249999983
  0
LINE
  5
A7D
330
A02
100
AcDbEntity
  8
Part
100
AcDbLine
 10
-0.000000000
 20
17.000000000
 30
238.750000000
 11
-0.000000000
 21
13.000000000
 31
238.750000000
  0
CIRCLE
  5
A7E
330
A02
100
AcDbEntity
  8
Part
100
AcDbCircle
 10
0.000000000
 20
13.000000000
 30
240.000000000
 40
1.250000000
  0
LINE
  5
A7F
330
A02
100
AcDbEntity
  8
Part
100
AcDbLine
 10
-0.000000000
 20
17.000000000
 30
243.400000000
 11
-0.000000000
 21
11.600000000
 31
243.400000000
  0
SPLINE
  5
A80
330
A02
100
AcDbEntity
  8
Part
100
AcDbSpline
210
0
220
0
230
1
 70
8
 71
3
 72
17
 73
13
 74
0
 40
0.552865046
 40
0.552865046
 40
0.552865046
 40
0.552865046
 40
0.686040869
 40
0.686040869
 40
0.686040869
 40
0.790895460
 40
0.790895460
 40
0.790895460
 40
0.892098854
 40
0.892098854
 40
0.892098854
 40
1.000000000
 40
1.000000000
 40
1.000000000
 40
1.000000000
 10
-0.000000000
 20
17.000000030
 30
246.600000009
 10
-0.473511823
 20
17.000699711
 30
246.602062262
 10
-0.934882066
 20
16.977482150
 30
246.383167367
 10
-1.232821188
 20
16.955239660
 30
246.019878384
 10
-1.468831601
 20
16.937873128
 30
245.736157176
 10
-1.600993066
 20
16.924207709
 30
245.369045833
 10
-1.600000000
 20
16.924538398
 30
245.000000000
 10
-1.599893738
 20
16.924241726
 30
244.644676947
 10
-1.481663866
 20
16.936825812
 30
244.281775779
 10
-1.232821188
 20
16.955239660
 30
243.980121616
 10
-0.971511974
 20
16.974597197
 30
243.656368437
 10
-0.514855073
 20
17.000461309
 30
243.396953345
 10
0.000000000
 20
17.000000000
 30
243.400000000
  0
SPLINE
  5
A81
330
A02
100
AcDbEntity
  8
Part
100
AcDbSpline
210
0
220
0
230
1
 70
8
 71
3
 72
17
 73
13
 74
0
 40
0.000000000
 40
0.000000000
 40
0.000000000
 40
0.000000000
 40
0.142470953
 40
0.142470953
 40
0.142470953
 40
0.276387779
 40
0.276387779
 40
0.276387779
 40
0.443995302
 40
0.443995302
 40
0.443995302
 40
0.552865046
 40
0.552865046
 40
0.552865046
 40
0.552865046
 10
0.000000000
 20
17.000000000
 30
243.400000000
 10
0.515072298
 20
17.000455337
 30
243.397025064
 10
0.971388719
 20
16.974601113
 30
243.656317220
 10
1.232821188
 20
16.955239660
 30
243.980121616
 10
1.482049888
 20
16.936793782
 30
244.282733545
 10
1.599601199
 20
16.924266642
 30
244.643673635
 10
1.600000000
 20
16.924538398
 30
245.000000000
 10
1.599200731
 20
16.923820500
 30
245.444328264
 10
1.416479113
 20
16.944695917
 30
245.901197241
 10
1.019878384
 20
16.969379720
 30
246.232821188
 10
0.763835159
 20
16.985138424
 30
246.449174100
 10
0.386916427
 20
17.000418437
 30
246.603106019
 10
-0.000000000
 20
17.000000030
 30
246.600000009
  0
LINE
  5
A82
330
A02
100
AcDbEntity
  8
Part
100
AcDbLine
 10
-0.000000000
 20
17.000000000
 30
243.400000000
 11
-0.000000000
 21
11.600000000
 31
243.400000000
  0
CIRCLE
  5
A83
330
A02
100
AcDbEntity
  8
Part
100
AcDbCircle
 10
0.000000000
 20
11.600000000
 30
245.000000000
 40
1.600000000
  0
LINE
  5
A84
330
A02
100
AcDbEntity
  8
Part
100
AcDbLine
 10
-0.000000000
 20
17.000000000
 30
248.750000000
 11
-0.000000000
 21
13.000000000
 31
248.750000000
  0
SPLINE
  5
A85
330
A02
100
AcDbEntity
  8
Part
100
AcDbSpline
210
0
220
0
230
1
 70
8
 71
3
 72
20
 73
16
 74
0
 40
0.500350827
 40
0.500350827
 40
0.500350827
 40
0.500350827
 40
0.535372849
 40
0.535372849
 40
0.535372849
 40
0.642637433
 40
0.642637433
 40
0.642637433
 40
0.749902017
 40
0.749902017
 40
0.749902017
 40
0.864722752
 40
0.864722752
 40
0.864722752
 40
1.000000000
 40
1.000000000
 40
1.000000000
 40
1.000000000
 10
-0.000000000
 20
17.000000014
 30
251.249999983
 10
-0.105607564
 20
16.999980840
 30
251.249899276
 10
-0.209228350
 20
16.999033350
 30
251.236808932
 10
-0.310862359
 20
16.997157545
 30
251.210728951
 10
-0.620655907
 20
16.991425984
 30
251.130610208
 10
-0.860892500
 20
16.978840999
 30
250.945600444
 10
-1.017325405
 20
16.969532965
 30
250.726325690
 10
-1.174526161
 20
16.959983055
 30
250.505998341
 10
-1.250112868
 20
16.953852592
 30
250.249901634
 10
-1.250000000
 20
16.953981833
 30
250.000000000
 10
-1.249794941
 20
16.953843320
 30
249.732564660
 10
-1.164739935
 20
16.960820761
 30
249.462861619
 10
-0.987693765
 20
16.971283423
 30
249.233866183
 10
-0.782405924
 20
16.983484169
 30
248.962141772
 10
-0.413318912
 20
17.000331379
 30
248.747287892
 10
0.000000000
 20
17.000000000
 30
248.750000000
  0
SPLINE
  5
A86
330
A02
100
AcDbEntity
  8
Part
100
AcDbSpline
210
0
220
0
230
1
 70
8
 71
3
 72
17
 73
13
 74
0
 40
0.000000000
 40
0.000000000
 40
0.000000000
 40
0.000000000
 40
0.135318424
 40
0.135318424
 40
0.135318424
 40
0.250137546
 40
0.250137546
 40
0.250137546
 40
0.400400437
 40
0.400400437
 40
0.400400437
 40
0.500350827
 40
0.500350827
 40
0.500350827
 40
0.500350827
 10
0.000000000
 20
17.000000000
 30
248.750000000
 10
0.413477408
 20
17.000327888
 30
248.747342069
 10
0.782315514
 20
16.983486473
 30
248.962102591
 10
0.987693765
 20
16.971283423
 30
249.233866183
 10
1.164741421
 20
16.960820666
 30
249.462865355
 10
1.249793652
 20
16.953843404
 30
249.732560210
 10
1.250000000
 20
16.953981833
 30
250.000000000
 10
1.249741114
 20
16.953535610
 30
250.348918150
 10
1.103974082
 20
16.966416196
 30
250.706948648
 10
0.796779987
 20
16.981317430
 30
250.963141553
 10
0.593754769
 20
16.991065189
 30
251.134328354
 10
0.300258153
 20
17.000249187
 30
251.252215058
 10
-0.000000000
 20
17.000000014
 30
251.249999983
  0
LINE
  5
A87
330
A02
100
AcDbEntity
  8
Part
100
AcDbLine
 10
-0.000000000
 20
17.000000000
 30
248.750000000
 11
-0.000000000
 21
13.000000000
 31
248.750000000
  0
CIRCLE
  5
A88
330
A02
100
AcDbEntity
  8
Part
100
AcDbCircle
 10
0.000000000
 20
13.000000000
 30
250.000000000
 40
1.250000000
  0
ARC
  5
A89
330
A02
100
AcDbEntity
  8
Part
100
AcDbCircle
 10
0.000000000
 20
0.000000000
 30
8.000000000
 40
22.000000000
100
AcDbArc
 50
43.341758227
 51
-43.341758227
  0
LINE
  5
A8A
330
A02
100
AcDbEntity
  8
Part
100
AcDbLine
 10
16.000000000
 20
-15.099668871
 30
0.000000000
 11
16.000000000
 21
-15.099668871
 31
8.000000000
  0
ARC
  5
A8B
330
A02
100
AcDbEntity
  8
Part
100
AcDbCircle
 10
0.000000000
 20
0.000000000
 30
0.000000000
 40
22.000000000
100
AcDbArc
 50
43.341758227
 51
-43.341758227
  0
LINE
  5
A8C
330
A02
100
AcDbEntity
  8
Part
100
AcDbLine
 10
16.000000000
 20
15.099668871
 30
0.000000000
 11
16.000000000
 21
15.099668871
 31
8.000000000
  0
LINE
  5
A8D
330
A02
100
AcDbEntity
  8
Part
100
AcDbLine
 10
8.100000000
 20
-0.000000000
 30
30.000000000
 11
8.100000000
 21
-0.000000000
 31
280.000000000
  0
ARC
  5
A8E
330
A02
100
AcDbEntity
  8
Part
100
AcDbCircle
 10
0.000000000
 20
0.000000000
 30
30.000000000
 40
8.100000000
100
AcDbArc
 50
-9.012451499
 51
-0.000000000
  0
LINE
  5
A8F
330
A02
100
AcDbEntity
  8
Part
100
AcDbLine
 10
8.000000000
 20
-1.268857754
 30
12.000000000
 11
8.000000000
 21
-1.268857754
 31
30.000000000
  0
ARC
  5
A90
330
A02
100
AcDbEntity
  8
Part
100
AcDbCircle
 10
0.000000000
 20
0.000000000
 30
12.000000000
 40
8.100000000
100
AcDbArc
 50
-9.012451499
 51
-0.000000000
  0
LINE
  5
A91
330
A02
100
AcDbEntity
  8
Part
100
AcDbLine
 10
8.100000000
 20
-0.000000000
 30
0.000000000
 11
8.100000000
 21
-0.000000000
 31
12.000000000
  0
CIRCLE
  5
A92
330
A02
100
AcDbEntity
  8
Part
100
AcDbCircle
 10
0.000000000
 20
0.000000000
 30
0.000000000
 40
8.100000000
  0
LINE
  5
A93
330
A02
100
AcDbEntity
  8
Part
100
AcDbLine
 10
8.100000000
 20
-0.000000000
 30
0.000000000
 11
8.100000000
 21
-0.000000000
 31
12.000000000
  0
ARC
  5
A94
330
A02
100
AcDbEntity
  8
Part
100
AcDbCircle
 10
0.000000000
 20
0.000000000
 30
12.000000000
 40
8.100000000
100
AcDbArc
 50
0.000000000
 51
9.012451499
  0
LINE
  5
A95
330
A02
100
AcDbEntity
  8
Part
100
AcDbLine
 10
8.000000000
 20
1.268857754
 30
12.000000000
 11
8.000000000
 21
1.268857754
 31
30.000000000
  0
ARC
  5
A96
330
A02
100
AcDbEntity
  8
Part
100
AcDbCircle
 10
0.000000000
 20
0.000000000
 30
30.000000000
 40
8.100000000
100
AcDbArc
 50
0.000000000
 51
9.012451499
  0
LINE
  5
A97
330
A02
100
AcDbEntity
  8
Part
100
AcDbLine
 10
8.100000000
 20
-0.000000000
 30
30.000000000
 11
8.100000000
 21
-0.000000000
 31
280.000000000
  0
CIRCLE
  5
A98
330
A02
100
AcDbEntity
  8
Part
100
AcDbCircle
 10
0.000000000
 20
0.000000000
 30
280.000000000
 40
8.100000000
  0
LINE
  5
A99
330
A02
100
AcDbEntity
  8
Part
100
AcDbLine
 10
8.000000000
 20
-10.000000000
 30
30.000000000
 11
8.000000000
 21
-1.268857754
 31
30.000000000
  0
LINE
  5
A9A
330
A02
100
AcDbEntity
  8
Part
100
AcDbLine
 10
8.000000000
 20
-1.268857754
 30
12.000000000
 11
8.000000000
 21
-1.268857754
 31
30.000000000
  0
LINE
  5
A9B
330
A02
100
AcDbEntity
  8
Part
100
AcDbLine
 10
8.000000000
 20
-10.000000000
 30
12.000000000
 11
8.000000000
 21
-1.268857754
 31
12.000000000
  0
LINE
  5
A9C
330
A02
100
AcDbEntity
  8
Part
100
AcDbLine
 10
8.000000000
 20
-10.000000000
 30
12.000000000
 11
8.000000000
 21
-10.000000000
 31
30.000000000
  0
LINE
  5
A9D
330
A02
100
AcDbEntity
  8
Part
100
AcDbLine
 10
8.000000000
 20
1.268857754
 30
30.000000000
 11
8.000000000
 21
10.000000000
 31
30.000000000
  0
LINE
  5
A9E
330
A02
100
AcDbEntity
  8
Part
100
AcDbLine
 10
8.000000000
 20
10.000000000
 30
12.000000000
 11
8.000000000
 21
10.000000000
 31
30.000000000
  0
LINE
  5
A9F
330
A02
100
AcDbEntity
  8
Part
100
AcDbLine
 10
8.000000000
 20
1.268857754
 30
12.000000000
 11
8.000000000
 21
10.000000000
 31
12.000000000
  0
LINE
  5
AA0
330
A02
100
AcDbEntity
  8
Part
100
AcDbLine
 10
8.000000000
 20
1.268857754
 30
12.000000000
 11
8.000000000
 21
1.268857754
 31
30.000000000
  0
CIRCLE
  5
AA1
330
A02
100
AcDbEntity
  8
Part
100
AcDbCircle
 10
-9.192388155
 20
-9.192388155
 30
280.000000000
 40
1.650000000
  0
LINE
  5
AA2
330
A02
100
AcDbEntity
  8
Part
100
AcDbLine
 10
-7.542388155
 20
-9.192388155
 30
269.000000000
 11
-7.542388155
 21
-9.192388155
 31
280.000000000
  0
CIRCLE
  5
AA3
330
A02
100
AcDbEntity
  8
Part
100
AcDbCircle
 10
-9.192388155
 20
-9.192388155
 30
269.000000000
 40
1.650000000
  0
LINE
  5
AA4
330
A02
100
AcDbEntity
  8
Part
100
AcDbLine
 10
-7.542388155
 20
-9.192388155
 30
269.000000000
 11
-7.542388155
 21
-9.192388155
 31
280.000000000
  0
CIRCLE
  5
AA5
330
A02
100
AcDbEntity
  8
Part
100
AcDbCircle
 10
0.000000000
 20
-13.000000000
 30
280.000000000
 40
1.500000000
  0
LINE
  5
AA6
330
A02
100
AcDbEntity
  8
Part
100
AcDbLine
 10
1.500000000
 20
-13.000000000
 30
274.000000000
 11
1.500000000
 21
-13.000000000
 31
280.000000000
  0
CIRCLE
  5
AA7
330
A02
100
AcDbEntity
  8
Part
100
AcDbCircle
 10
0.000000000
 20
-13.000000000
 30
274.000000000
 40
1.500000000
  0
LINE
  5
AA8
330
A02
100
AcDbEntity
  8
Part
100
AcDbLine
 10
1.500000000
 20
-13.000000000
 30
274.000000000
 11
1.500000000
 21
-13.000000000
 31
280.000000000
  0
CIRCLE
  5
AA9
330
A02
100
AcDbEntity
  8
Part
100
AcDbCircle
 10
9.192388155
 20
-9.192388155
 30
280.000000000
 40
1.650000000
  0
LINE
  5
AAA
330
A02
100
AcDbEntity
  8
Part
100
AcDbLine
 10
10.842388155
 20
-9.192388155
 30
269.000000000
 11
10.842388155
 21
-9.192388155
 31
280.000000000
  0
CIRCLE
  5
AAB
330
A02
100
AcDbEntity
  8
Part
100
AcDbCircle
 10
9.192388155
 20
-9.192388155
 30
269.000000000
 40
1.650000000
  0
LINE
  5
AAC
330
A02
100
AcDbEntity
  8
Part
100
AcDbLine
 10
10.842388155
 20
-9.192388155
 30
269.000000000
 11
10.842388155
 21
-9.192388155
 31
280.000000000
  0
CIRCLE
  5
AAD
330
A02
100
AcDbEntity
  8
Part
100
AcDbCircle
 10
-9.192388155
 20
9.192388155
 30
280.000000000
 40
1.650000000
  0
LINE
  5
AAE
330
A02
100
AcDbEntity
  8
Part
100
AcDbLine
 10
-7.542388155
 20
9.192388155
 30
269.000000000
 11
-7.542388155
 21
9.192388155
 31
280.000000000
  0
CIRCLE
  5
AAF
330
A02
100
AcDbEntity
  8
Part
100
AcDbCircle
 10
-9.192388155
 20
9.192388155
 30
269.000000000
 40
1.650000000
  0
LINE
  5
AB0
330
A02
100
AcDbEntity
  8
Part
100
AcDbLine
 10
-7.542388155
 20
9.192388155
 30
269.000000000
 11
-7.542388155
 21
9.192388155
 31
280.000000000
  0
CIRCLE
  5
AB1
330
A02
100
AcDbEntity
  8
Part
100
AcDbCircle
 10
0.000000000
 20
13.000000000
 30
280.000000000
 40
1.500000000
  0
LINE
  5
AB2
330
A02
100
AcDbEntity
  8
Part
100
AcDbLine
 10
1.500000000
 20
13.000000000
 30
274.000000000
 11
1.500000000
 21
13.000000000
 31
280.000000000
  0
CIRCLE
  5
AB3
330
A02
100
AcDbEntity
  8
Part
100
AcDbCircle
 10
0.000000000
 20
13.000000000
 30
274.000000000
 40
1.500000000
  0
LINE
  5
AB4
330
A02
100
AcDbEntity
  8
Part
100
AcDbLine
 10
1.500000000
 20
13.000000000
 30
274.000000000
 11
1.500000000
 21
13.000000000
 31
280.000000000
  0
CIRCLE
  5
AB5
330
A02
100
AcDbEntity
  8
Part
100
AcDbCircle
 10
9.192388155
 20
9.192388155
 30
280.000000000
 40
1.650000000
  0
LINE
  5
AB6
330
A02
100
AcDbEntity
  8
Part
100
AcDbLine
 10
10.842388155
 20
9.192388155
 30
269.000000000
 11
10.842388155
 21
9.192388155
 31
280.000000000
  0
CIRCLE
  5
AB7
330
A02
100
AcDbEntity
  8
Part
100
AcDbCircle
 10
9.192388155
 20
9.192388155
 30
269.000000000
 40
1.650000000
  0
LINE
  5
AB8
330
A02
100
AcDbEntity
  8
Part
100
AcDbLine
 10
10.842388155
 20
9.192388155
 30
269.000000000
 11
10.842388155
 21
9.192388155
 31
280.000000000
  0
CIRCLE
  5
AB9
330
A02
100
AcDbEntity
  8
Part
100
AcDbCircle
 10
0.000000000
 20
13.000000000
 30
90.000000000
 40
1.250000000
  0
CIRCLE
  5
ABA
330
A02
100
AcDbEntity
  8
Part
100
AcDbCircle
 10
0.000000000
 20
11.600000000
 30
95.000000000
 40
1.600000000
  0
CIRCLE
  5
ABB
330
A02
100
AcDbEntity
  8
Part
100
AcDbCircle
 10
0.000000000
 20
13.000000000
 30
100.000000000
 40
1.250000000
  0
CIRCLE
  5
ABC
330
A02
100
AcDbEntity
  8
Part
100
AcDbCircle
 10
0.000000000
 20
13.000000000
 30
165.000000000
 40
1.250000000
  0
CIRCLE
  5
ABD
330
A02
100
AcDbEntity
  8
Part
100
AcDbCircle
 10
0.000000000
 20
11.600000000
 30
170.000000000
 40
1.600000000
  0
CIRCLE
  5
ABE
330
A02
100
AcDbEntity
  8
Part
100
AcDbCircle
 10
0.000000000
 20
13.000000000
 30
175.000000000
 40
1.250000000
  0
CIRCLE
  5
ABF
330
A02
100
AcDbEntity
  8
Part
100
AcDbCircle
 10
0.000000000
 20
13.000000000
 30
240.000000000
 40
1.250000000
  0
CIRCLE
  5
AC0
330
A02
100
AcDbEntity
  8
Part
100
AcDbCircle
 10
0.000000000
 20
11.600000000
 30
245.000000000
 40
1.600000000
  0
CIRCLE
  5
AC1
330
A02
100
AcDbEntity
  8
Part
100
AcDbCircle
 10
0.000000000
 20
13.000000000
 30
250.000000000
 40
1.250000000
  0
CIRCLE
  5
AC2
330
A02
100
AcDbEntity
  8
Part
100
AcDbCircle
 10
-9.192388155
 20
-9.192388155
 30
269.000000000
 40
1.650000000
  0
CIRCLE
  5
AC3
330
A02
100
AcDbEntity
  8
Part
100
AcDbCircle
 10
0.000000000
 20
-13.000000000
 30
274.000000000
 40
1.500000000
  0
CIRCLE
  5
AC4
330
A02
100
AcDbEntity
  8
Part
100
AcDbCircle
 10
9.192388155
 20
-9.192388155
 30
269.000000000
 40
1.650000000
  0
CIRCLE
  5
AC5
330
A02
100
AcDbEntity
  8
Part
100
AcDbCircle
 10
-9.192388155
 20
9.192388155
 30
269.000000000
 40
1.650000000
  0
CIRCLE
  5
AC6
330
A02
100
AcDbEntity
  8
Part
100
AcDbCircle
 10
0.000000000
 20
13.000000000
 30
274.000000000
 40
1.500000000
  0
CIRCLE
  5
AC7
330
A02
100
AcDbEntity
  8
Part
100
AcDbCircle
 10
9.192388155
 20
9.192388155
 30
269.000000000
 40
1.650000000
  0
ENDSEC
  0
SECTION
  2
OBJECTS
  0
DICTIONARY
  5
F000
330
0
100
AcDbDictionary
  3
ACAD_GROUP
350
F001
  0
DICTIONARY
  5
F001
330
F000
100
AcDbDictionary
  0
ENDSEC
  0
EOF
