<svg xmlns="http://www.w3.org/2000/svg" width="1123" height="794" viewBox="0 0 1123 794">
<rect width="1123" height="794" fill="white"/><rect x="12" y="12" width="1099" height="770" fill="none" stroke="#111" stroke-width="2"/>
<g font-family="Noto Sans CJK KR,sans-serif" fill="#111"><text x="28" y="48" font-size="24" font-weight="bold">ExtruderRearRetainer · v0.8</text>
<text x="28" y="74" font-size="15">단위 mm · 제3각법 · 일반공차 ISO 2768-m · 모서리 burr 제거</text>
<text x="35" y="112" font-size="15">TOP X-Y</text><polyline points="41.00,136.43 41.00,136.43" fill="none" stroke="#263238" stroke-width="0.8"/>
<polyline points="41.00,136.43 41.00,106.00" fill="none" stroke="#263238" stroke-width="0.8"/>
<polyline points="41.00,136.43 41.00,106.00" fill="none" stroke="#263238" stroke-width="0.8"/>
<polyline points="41.00,106.00 41.00,106.00" fill="none" stroke="#263238" stroke-width="0.8"/>
<polyline points="41.00,124.26 41.00,129.28 41.00,124.26 41.00,119.24 41.00,124.26" fill="none" stroke="#263238" stroke-width="0.8"/>
<polyline points="41.00,136.43 65.34,136.43" fill="none" stroke="#263238" stroke-width="0.8"/>
<polyline points="65.34,136.43 65.34,136.43" fill="none" stroke="#263238" stroke-width="0.8"/>
<polyline points="41.00,136.43 65.34,136.43" fill="none" stroke="#263238" stroke-width="0.8"/>
<polyline points="77.51,124.26 77.51,129.28 77.51,124.26 77.51,119.24 77.51,124.26" fill="none" stroke="#263238" stroke-width="0.8"/>
<polyline points="41.00,124.26 77.51,124.26" fill="none" stroke="#263238" stroke-width="0.8"/>
<polyline points="65.34,288.57 65.34,230.43" fill="none" stroke="#263238" stroke-width="0.8"/>
<polyline points="65.34,230.43 65.34,253.48 65.34,264.11 65.34,259.10 65.34,239.96 65.34,212.50 65.34,185.04 65.34,165.90 65.34,160.89 65.34,171.52 65.34,194.57" fill="none" stroke="#263238" stroke-width="0.8"/>
<polyline points="65.34,194.57 65.34,136.43" fill="none" stroke="#263238" stroke-width="0.8"/>
<polyline points="65.34,288.57 65.34,136.43" fill="none" stroke="#263238" stroke-width="0.8"/>
<polyline points="65.34,288.57 65.34,288.57" fill="none" stroke="#263238" stroke-width="0.8"/>
<polyline points="77.51,319.00 77.51,230.43" fill="none" stroke="#263238" stroke-width="0.8"/>
<polyline points="77.51,319.00 77.51,319.00" fill="none" stroke="#263238" stroke-width="0.8"/>
<polyline points="77.51,230.43 77.51,253.48 77.51,264.11 77.51,259.10 77.51,239.96 77.51,212.50 77.51,185.04 77.51,165.90 77.51,160.89 77.51,171.52 77.51,194.57" fill="none" stroke="#263238" stroke-width="0.8"/>
<polyline points="77.51,319.00 77.51,106.00" fill="none" stroke="#263238" stroke-width="0.8"/>
<polyline points="77.51,194.57 77.51,106.00" fill="none" stroke="#263238" stroke-width="0.8"/>
<polyline points="77.51,106.00 77.51,106.00" fill="none" stroke="#263238" stroke-width="0.8"/>
<polyline points="77.51,300.74 77.51,305.76 77.51,300.74 77.51,295.72 77.51,300.74" fill="none" stroke="#263238" stroke-width="0.8"/>
<polyline points="65.34,194.57 77.51,194.57" fill="none" stroke="#263238" stroke-width="0.8"/>
<polyline points="65.34,230.43 77.51,230.43" fill="none" stroke="#263238" stroke-width="0.8"/>
<polyline points="41.00,288.57 65.34,288.57" fill="none" stroke="#263238" stroke-width="0.8"/>
<polyline points="41.00,288.57 65.34,288.57" fill="none" stroke="#263238" stroke-width="0.8"/>
<polyline points="41.00,288.57 41.00,288.57" fill="none" stroke="#263238" stroke-width="0.8"/>
<polyline points="41.00,300.74 77.51,300.74" fill="none" stroke="#263238" stroke-width="0.8"/>
<polyline points="41.00,300.74 41.00,305.76 41.00,300.74 41.00,295.72 41.00,300.74" fill="none" stroke="#263238" stroke-width="0.8"/>
<polyline points="41.00,319.00 41.00,319.00" fill="none" stroke="#263238" stroke-width="0.8"/>
<polyline points="41.00,319.00 41.00,288.57" fill="none" stroke="#263238" stroke-width="0.8"/>
<polyline points="41.00,319.00 41.00,288.57" fill="none" stroke="#263238" stroke-width="0.8"/>
<polyline points="41.00,106.00 77.51,106.00" fill="none" stroke="#263238" stroke-width="0.8"/>
<polyline points="41.00,319.00 77.51,319.00" fill="none" stroke="#263238" stroke-width="0.8"/>
<polyline points="41.00,106.00 77.51,106.00" fill="none" stroke="#263238" stroke-width="0.8"/>
<polyline points="41.00,319.00 77.51,319.00" fill="none" stroke="#263238" stroke-width="0.8"/><text x="400" y="112" font-size="15">FRONT X-Z</text><polyline points="406.00,319.00 406.00,106.00" fill="none" stroke="#263238" stroke-width="0.8"/>
<polyline points="406.00,106.00 406.00,106.00" fill="none" stroke="#263238" stroke-width="0.8"/>
<polyline points="406.00,319.00 406.00,319.00" fill="none" stroke="#263238" stroke-width="0.8"/>
<polyline points="406.00,319.00 406.00,106.00" fill="none" stroke="#263238" stroke-width="0.8"/>
<polyline points="406.00,167.13 406.00,174.16 406.00,181.19 406.00,174.16 406.00,167.13" fill="none" stroke="#263238" stroke-width="0.8"/>
<polyline points="406.00,319.00 440.08,319.00" fill="none" stroke="#263238" stroke-width="0.8"/>
<polyline points="440.08,319.00 440.08,106.00" fill="none" stroke="#263238" stroke-width="0.8"/>
<polyline points="406.00,106.00 440.08,106.00" fill="none" stroke="#263238" stroke-width="0.8"/>
<polyline points="457.12,167.13 457.12,174.16 457.12,181.19 457.12,174.16 457.12,167.13" fill="none" stroke="#263238" stroke-width="0.8"/>
<polyline points="406.00,167.13 457.12,167.13" fill="none" stroke="#263238" stroke-width="0.8"/>
<polyline points="440.08,106.00 440.08,106.00" fill="none" stroke="#263238" stroke-width="0.8"/>
<polyline points="440.08,106.00 440.08,129.61 440.08,166.73 440.08,206.10 440.08,235.78 440.08,246.79 440.08,235.78 440.08,206.10 440.08,166.73 440.08,129.61 440.08,106.00" fill="none" stroke="#263238" stroke-width="0.8"/>
<polyline points="440.08,106.00 440.08,106.00" fill="none" stroke="#263238" stroke-width="0.8"/>
<polyline points="440.08,319.00 440.08,319.00" fill="none" stroke="#263238" stroke-width="0.8"/>
<polyline points="440.08,319.00 440.08,106.00" fill="none" stroke="#263238" stroke-width="0.8"/>
<polyline points="457.12,106.00 457.12,106.00" fill="none" stroke="#263238" stroke-width="0.8"/>
<polyline points="457.12,319.00 457.12,106.00" fill="none" stroke="#263238" stroke-width="0.8"/>
<polyline points="457.12,106.00 457.12,129.61 457.12,166.73 457.12,206.10 457.12,235.78 457.12,246.79 457.12,235.78 457.12,206.10 457.12,166.73 457.12,129.61 457.12,106.00" fill="none" stroke="#263238" stroke-width="0.8"/>
<polyline points="457.12,319.00 457.12,319.00" fill="none" stroke="#263238" stroke-width="0.8"/>
<polyline points="457.12,106.00 457.12,106.00" fill="none" stroke="#263238" stroke-width="0.8"/>
<polyline points="457.12,319.00 457.12,106.00" fill="none" stroke="#263238" stroke-width="0.8"/>
<polyline points="457.12,167.13 457.12,174.16 457.12,181.19 457.12,174.16 457.12,167.13" fill="none" stroke="#263238" stroke-width="0.8"/>
<polyline points="440.08,106.00 457.12,106.00" fill="none" stroke="#263238" stroke-width="0.8"/>
<polyline points="440.08,106.00 457.12,106.00" fill="none" stroke="#263238" stroke-width="0.8"/>
<polyline points="406.00,319.00 440.08,319.00" fill="none" stroke="#263238" stroke-width="0.8"/>
<polyline points="406.00,106.00 440.08,106.00" fill="none" stroke="#263238" stroke-width="0.8"/>
<polyline points="406.00,319.00 406.00,106.00" fill="none" stroke="#263238" stroke-width="0.8"/>
<polyline points="406.00,167.13 457.12,167.13" fill="none" stroke="#263238" stroke-width="0.8"/>
<polyline points="406.00,167.13 406.00,174.16 406.00,181.19 406.00,174.16 406.00,167.13" fill="none" stroke="#263238" stroke-width="0.8"/>
<polyline points="406.00,319.00 406.00,106.00" fill="none" stroke="#263238" stroke-width="0.8"/>
<polyline points="406.00,106.00 406.00,106.00" fill="none" stroke="#263238" stroke-width="0.8"/>
<polyline points="406.00,319.00 406.00,319.00" fill="none" stroke="#263238" stroke-width="0.8"/>
<polyline points="406.00,106.00 457.12,106.00" fill="none" stroke="#263238" stroke-width="0.8"/>
<polyline points="406.00,106.00 457.12,106.00" fill="none" stroke="#263238" stroke-width="0.8"/>
<polyline points="406.00,319.00 457.12,319.00" fill="none" stroke="#263238" stroke-width="0.8"/>
<polyline points="406.00,319.00 457.12,319.00" fill="none" stroke="#263238" stroke-width="0.8"/><text x="765" y="112" font-size="15">SIDE Y-Z</text><polyline points="1026.60,319.00 1026.60,106.00" fill="none" stroke="#263238" stroke-width="0.8"/>
<polyline points="1026.60,106.00 1069.20,106.00" fill="none" stroke="#263238" stroke-width="0.8"/>
<polyline points="1026.60,319.00 1069.20,319.00" fill="none" stroke="#263238" stroke-width="0.8"/>
<polyline points="1069.20,319.00 1069.20,106.00" fill="none" stroke="#263238" stroke-width="0.8"/>
<polyline points="1043.64,167.13 1036.61,174.16 1043.64,181.19 1050.67,174.16 1043.64,167.13" fill="none" stroke="#263238" stroke-width="0.8"/>
<polyline points="1026.60,319.00 1026.60,319.00" fill="none" stroke="#263238" stroke-width="0.8"/>
<polyline points="1026.60,319.00 1026.60,106.00" fill="none" stroke="#263238" stroke-width="0.8"/>
<polyline points="1026.60,106.00 1026.60,106.00" fill="none" stroke="#263238" stroke-width="0.8"/>
<polyline points="1043.64,167.13 1036.61,174.16 1043.64,181.19 1050.67,174.16 1043.64,167.13" fill="none" stroke="#263238" stroke-width="0.8"/>
<polyline points="1043.64,167.13 1043.64,167.13" fill="none" stroke="#263238" stroke-width="0.8"/>
<polyline points="813.60,106.00 895.00,106.00" fill="none" stroke="#263238" stroke-width="0.8"/>
<polyline points="895.00,106.00 862.73,129.61 847.85,166.73 854.87,206.10 881.66,235.78 920.10,246.79 958.54,235.78 985.33,206.10 992.35,166.73 977.47,129.61 945.20,106.00" fill="none" stroke="#263238" stroke-width="0.8"/>
<polyline points="945.20,106.00 1026.60,106.00" fill="none" stroke="#263238" stroke-width="0.8"/>
<polyline points="813.60,319.00 1026.60,319.00" fill="none" stroke="#263238" stroke-width="0.8"/>
<polyline points="813.60,319.00 813.60,106.00" fill="none" stroke="#263238" stroke-width="0.8"/>
<polyline points="771.00,106.00 895.00,106.00" fill="none" stroke="#263238" stroke-width="0.8"/>
<polyline points="771.00,319.00 771.00,106.00" fill="none" stroke="#263238" stroke-width="0.8"/>
<polyline points="895.00,106.00 862.73,129.61 847.85,166.73 854.87,206.10 881.66,235.78 920.10,246.79 958.54,235.78 985.33,206.10 992.35,166.73 977.47,129.61 945.20,106.00" fill="none" stroke="#263238" stroke-width="0.8"/>
<polyline points="771.00,319.00 1069.20,319.00" fill="none" stroke="#263238" stroke-width="0.8"/>
<polyline points="945.20,106.00 1069.20,106.00" fill="none" stroke="#263238" stroke-width="0.8"/>
<polyline points="1069.20,319.00 1069.20,106.00" fill="none" stroke="#263238" stroke-width="0.8"/>
<polyline points="796.56,167.13 789.53,174.16 796.56,181.19 803.59,174.16 796.56,167.13" fill="none" stroke="#263238" stroke-width="0.8"/>
<polyline points="945.20,106.00 945.20,106.00" fill="none" stroke="#263238" stroke-width="0.8"/>
<polyline points="895.00,106.00 895.00,106.00" fill="none" stroke="#263238" stroke-width="0.8"/>
<polyline points="813.60,319.00 813.60,319.00" fill="none" stroke="#263238" stroke-width="0.8"/>
<polyline points="813.60,106.00 813.60,106.00" fill="none" stroke="#263238" stroke-width="0.8"/>
<polyline points="813.60,319.00 813.60,106.00" fill="none" stroke="#263238" stroke-width="0.8"/>
<polyline points="796.56,167.13 796.56,167.13" fill="none" stroke="#263238" stroke-width="0.8"/>
<polyline points="796.56,167.13 789.53,174.16 796.56,181.19 803.59,174.16 796.56,167.13" fill="none" stroke="#263238" stroke-width="0.8"/>
<polyline points="771.00,319.00 771.00,106.00" fill="none" stroke="#263238" stroke-width="0.8"/>
<polyline points="771.00,106.00 813.60,106.00" fill="none" stroke="#263238" stroke-width="0.8"/>
<polyline points="771.00,319.00 813.60,319.00" fill="none" stroke="#263238" stroke-width="0.8"/>
<polyline points="1069.20,106.00 1069.20,106.00" fill="none" stroke="#263238" stroke-width="0.8"/>
<polyline points="771.00,106.00 771.00,106.00" fill="none" stroke="#263238" stroke-width="0.8"/>
<polyline points="1069.20,319.00 1069.20,319.00" fill="none" stroke="#263238" stroke-width="0.8"/>
<polyline points="771.00,319.00 771.00,319.00" fill="none" stroke="#263238" stroke-width="0.8"/>
<text x="28" y="390" font-size="17">ExtruderRearRetainer | EX-MT-05 4 mm S355J2 positive-stop retainer | overall X 12.00, Y 70.00, Z 50.00 mm</text><text x="28" y="423" font-size="16">치수 판정은 CAD/STEP과 RFQ 표를 우선한다. 무단 재료·공차 변경 금지.</text>
<text x="28" y="456" font-size="16">Source: cad/freecad/final_v08/generate.py · Revision: final-design-fabrication-closure-v0.8</text></g></svg>
