ISO-10303-21;
HEADER;
FILE_DESCRIPTION(('FreeCAD Model'),'2;1');
FILE_NAME('Open CASCADE Shape Model','2000-01-01T00:00:00',('FreeCAD'),(
    'FreeCAD'),'Open CASCADE STEP processor 7.9','FreeCAD','Unknown');
FILE_SCHEMA(('AUTOMOTIVE_DESIGN { 1 0 10303 214 1 1 1 1 }'));
ENDSEC;
DATA;
#1 = APPLICATION_PROTOCOL_DEFINITION('international standard',
  'automotive_design',2000,#2);
#2 = APPLICATION_CONTEXT(
  'core data for automotive mechanical design processes');
#3 = SHAPE_DEFINITION_REPRESENTATION(#4,#10);
#4 = PRODUCT_DEFINITION_SHAPE('','',#5);
#5 = PRODUCT_DEFINITION('design','',#6,#9);
#6 = PRODUCT_DEFINITION_FORMATION('','',#7);
#7 = PRODUCT('Open CASCADE STEP translator 7.9 0',
  'Open CASCADE STEP translator 7.9 0','',(#8));
#8 = PRODUCT_CONTEXT('',#2,'mechanical');
#9 = PRODUCT_DEFINITION_CONTEXT('part definition',#2,'design');
#10 = ADVANCED_BREP_SHAPE_REPRESENTATION('',(#11,#15),#692);
#11 = AXIS2_PLACEMENT_3D('',#12,#13,#14);
#12 = CARTESIAN_POINT('',(0.,0.,0.));
#13 = DIRECTION('',(0.,0.,1.));
#14 = DIRECTION('',(1.,0.,-0.));
#15 = MANIFOLD_SOLID_BREP('',#16);
#16 = CLOSED_SHELL('',(#17,#183,#304,#324,#393,#512,#565,#589,#613,#637,
    #661,#678));
#17 = ADVANCED_FACE('',(#18,#114),#178,.T.);
#18 = FACE_BOUND('',#19,.T.);
#19 = EDGE_LOOP('',(#20,#30,#37,#38,#69,#77,#84,#85));
#20 = ORIENTED_EDGE('',*,*,#21,.T.);
#21 = EDGE_CURVE('',#22,#24,#26,.T.);
#22 = VERTEX_POINT('',#23);
#23 = CARTESIAN_POINT('',(9.,3.673940397442E-16,7.5));
#24 = VERTEX_POINT('',#25);
#25 = CARTESIAN_POINT('',(9.,-2.204364238465E-15,24.));
#26 = LINE('',#27,#28);
#27 = CARTESIAN_POINT('',(9.,-2.204364238465E-15,0.));
#28 = VECTOR('',#29,1.);
#29 = DIRECTION('',(0.,0.,1.));
#30 = ORIENTED_EDGE('',*,*,#31,.F.);
#31 = EDGE_CURVE('',#24,#24,#32,.T.);
#32 = CIRCLE('',#33,9.);
#33 = AXIS2_PLACEMENT_3D('',#34,#35,#36);
#34 = CARTESIAN_POINT('',(0.,0.,24.));
#35 = DIRECTION('',(0.,0.,1.));
#36 = DIRECTION('',(1.,0.,0.));
#37 = ORIENTED_EDGE('',*,*,#21,.F.);
#38 = ORIENTED_EDGE('',*,*,#39,.F.);
#39 = EDGE_CURVE('',#40,#22,#42,.T.);
#40 = VERTEX_POINT('',#41);
#41 = CARTESIAN_POINT('',(9.,-2.117804507242E-14,4.5));
#42 = B_SPLINE_CURVE_WITH_KNOTS('',7,(#43,#44,#45,#46,#47,#48,#49,#50,
    #51,#52,#53,#54,#55,#56,#57,#58,#59,#60,#61,#62,#63,#64,#65,#66,#67,
    #68),.UNSPECIFIED.,.F.,.F.,(8,6,6,6,8),(0.,0.248572900018,
    0.500041613595,0.751510327179,1.),.UNSPECIFIED.);
#43 = CARTESIAN_POINT('',(9.,5.74285304839E-16,4.5));
#44 = CARTESIAN_POINT('',(9.,0.196752354316,4.5));
#45 = CARTESIAN_POINT('',(8.994981677791,0.38904208231,4.530108714717));
#46 = CARTESIAN_POINT('',(8.985356016871,0.571418639802,4.587869200938)
  );
#47 = CARTESIAN_POINT('',(8.97233076739,0.73920318941,4.669704449073));
#48 = CARTESIAN_POINT('',(8.957648919279,0.888696353554,4.770961565395)
  );
#49 = CARTESIAN_POINT('',(8.942951739279,1.017537312699,4.88595073427));
#50 = CARTESIAN_POINT('',(8.915669632233,1.234049751147,5.131535889033)
  );
#51 = CARTESIAN_POINT('',(8.902794521891,1.323739120959,5.265151021666)
  );
#52 = CARTESIAN_POINT('',(8.891689469119,1.394739393545,5.405892025439)
  );
#53 = CARTESIAN_POINT('',(8.882985229973,1.447551421951,5.551528031974)
  );
#54 = CARTESIAN_POINT('',(8.877068207584,1.482556068493,5.700203995214)
  );
#55 = CARTESIAN_POINT('',(8.874119674649,1.5,5.85023969968));
#56 = CARTESIAN_POINT('',(8.874119674649,1.5,6.149760300325));
#57 = CARTESIAN_POINT('',(8.877068207585,1.482556068492,6.299796004791)
  );
#58 = CARTESIAN_POINT('',(8.882985229974,1.44755142195,6.448471968027));
#59 = CARTESIAN_POINT('',(8.891689469118,1.394739393545,6.594107974559)
  );
#60 = CARTESIAN_POINT('',(8.902794521891,1.323739120961,6.734848978329)
  );
#61 = CARTESIAN_POINT('',(8.915669632233,1.234049751149,6.868464110964)
  );
#62 = CARTESIAN_POINT('',(8.94294719843,1.017573349148,7.114008390402));
#63 = CARTESIAN_POINT('',(8.957645701685,0.888730036912,7.229021115814)
  );
#64 = CARTESIAN_POINT('',(8.972332726319,0.73919939387,7.330313511867));
#65 = CARTESIAN_POINT('',(8.985361809407,0.571363156581,7.412165462019)
  );
#66 = CARTESIAN_POINT('',(8.994985724621,0.388950875176,7.469915580697)
  );
#67 = CARTESIAN_POINT('',(9.,0.196672967409,7.5));
#68 = CARTESIAN_POINT('',(9.,1.836970198721E-16,7.5));
#69 = ORIENTED_EDGE('',*,*,#70,.F.);
#70 = EDGE_CURVE('',#71,#40,#73,.T.);
#71 = VERTEX_POINT('',#72);
#72 = CARTESIAN_POINT('',(9.,-2.204364238465E-15,0.));
#73 = LINE('',#74,#75);
#74 = CARTESIAN_POINT('',(9.,-2.204364238465E-15,0.));
#75 = VECTOR('',#76,1.);
#76 = DIRECTION('',(0.,0.,1.));
#77 = ORIENTED_EDGE('',*,*,#78,.T.);
#78 = EDGE_CURVE('',#71,#71,#79,.T.);
#79 = CIRCLE('',#80,9.);
#80 = AXIS2_PLACEMENT_3D('',#81,#82,#83);
#81 = CARTESIAN_POINT('',(0.,0.,0.));
#82 = DIRECTION('',(0.,0.,1.));
#83 = DIRECTION('',(1.,0.,0.));
#84 = ORIENTED_EDGE('',*,*,#70,.T.);
#85 = ORIENTED_EDGE('',*,*,#86,.F.);
#86 = EDGE_CURVE('',#22,#40,#87,.T.);
#87 = B_SPLINE_CURVE_WITH_KNOTS('',7,(#88,#89,#90,#91,#92,#93,#94,#95,
    #96,#97,#98,#99,#100,#101,#102,#103,#104,#105,#106,#107,#108,#109,
    #110,#111,#112,#113),.UNSPECIFIED.,.F.,.F.,(8,6,6,6,8),(0.,
    0.248588368001,0.500150743042,0.751566608666,1.),.UNSPECIFIED.);
#88 = CARTESIAN_POINT('',(9.,-8.881784197001E-16,7.5));
#89 = CARTESIAN_POINT('',(9.,-0.196752354316,7.5));
#90 = CARTESIAN_POINT('',(8.994981677791,-0.38904208231,7.469891285284)
  );
#91 = CARTESIAN_POINT('',(8.985356016871,-0.571418639802,7.412130799062)
  );
#92 = CARTESIAN_POINT('',(8.97233076739,-0.73920318941,7.330295550927));
#93 = CARTESIAN_POINT('',(8.957648919279,-0.888696353554,7.229038434605)
  );
#94 = CARTESIAN_POINT('',(8.942951739279,-1.017537312699,7.11404926573)
  );
#95 = CARTESIAN_POINT('',(8.915665376119,-1.234083527926,6.868425798731)
  );
#96 = CARTESIAN_POINT('',(8.902790446617,-1.323763715902,6.734801331065)
  );
#97 = CARTESIAN_POINT('',(8.891689330458,-1.394737340829,6.594086901054)
  );
#98 = CARTESIAN_POINT('',(8.882988961686,-1.447529247328,6.448503302265)
  );
#99 = CARTESIAN_POINT('',(8.87707165107,-1.482535725521,6.299877789616)
  );
#100 = CARTESIAN_POINT('',(8.874119674649,-1.5,6.149847571248));
#101 = CARTESIAN_POINT('',(8.874119674649,-1.5,5.850239699675));
#102 = CARTESIAN_POINT('',(8.877068207585,-1.482556068492,5.70020399521)
  );
#103 = CARTESIAN_POINT('',(8.882985229974,-1.44755142195,5.551528031973)
  );
#104 = CARTESIAN_POINT('',(8.891689469118,-1.394739393545,5.405892025442
    ));
#105 = CARTESIAN_POINT('',(8.902794521891,-1.323739120961,5.26515102167)
  );
#106 = CARTESIAN_POINT('',(8.915669632233,-1.234049751149,5.131535889036
    ));
#107 = CARTESIAN_POINT('',(8.942946976894,-1.017575107276,4.885993603802
    ));
#108 = CARTESIAN_POINT('',(8.95764509484,-0.888735222931,4.770983755363)
  );
#109 = CARTESIAN_POINT('',(8.972332074089,-0.73920665048,4.669690310692)
  );
#110 = CARTESIAN_POINT('',(8.985361698924,-0.571368033722,4.587835006166
    ));
#111 = CARTESIAN_POINT('',(8.994985971112,-0.38895021557,4.53008302271)
  );
#112 = CARTESIAN_POINT('',(9.,-0.196668322753,4.5));
#113 = CARTESIAN_POINT('',(9.,-4.440892098501E-16,4.5));
#114 = FACE_BOUND('',#115,.T.);
#115 = EDGE_LOOP('',(#116,#149));
#116 = ORIENTED_EDGE('',*,*,#117,.T.);
#117 = EDGE_CURVE('',#118,#120,#122,.T.);
#118 = VERTEX_POINT('',#119);
#119 = CARTESIAN_POINT('',(-9.,-1.836970198721E-16,4.5));
#120 = VERTEX_POINT('',#121);
#121 = CARTESIAN_POINT('',(-9.,3.673940397442E-16,7.5));
#122 = B_SPLINE_CURVE_WITH_KNOTS('',7,(#123,#124,#125,#126,#127,#128,
    #129,#130,#131,#132,#133,#134,#135,#136,#137,#138,#139,#140,#141,
    #142,#143,#144,#145,#146,#147,#148),.UNSPECIFIED.,.F.,.F.,(8,6,6,6,8
    ),(0.,0.248572900016,0.500041613596,0.751510327182,1.),
  .UNSPECIFIED.);
#123 = CARTESIAN_POINT('',(-9.,1.125376364455E-15,4.5));
#124 = CARTESIAN_POINT('',(-9.,0.196752354316,4.5));
#125 = CARTESIAN_POINT('',(-8.994981677791,0.38904208231,4.530108714716)
  );
#126 = CARTESIAN_POINT('',(-8.985356016871,0.571418639803,4.587869200938
    ));
#127 = CARTESIAN_POINT('',(-8.97233076739,0.73920318941,4.669704449073)
  );
#128 = CARTESIAN_POINT('',(-8.957648919279,0.888696353554,4.770961565395
    ));
#129 = CARTESIAN_POINT('',(-8.942951739279,1.017537312699,4.88595073427)
  );
#130 = CARTESIAN_POINT('',(-8.915669632233,1.234049751149,5.131535889036
    ));
#131 = CARTESIAN_POINT('',(-8.902794521891,1.323739120961,5.26515102167)
  );
#132 = CARTESIAN_POINT('',(-8.891689469118,1.394739393545,5.405892025441
    ));
#133 = CARTESIAN_POINT('',(-8.882985229974,1.44755142195,5.551528031973)
  );
#134 = CARTESIAN_POINT('',(-8.877068207585,1.482556068492,5.70020399521)
  );
#135 = CARTESIAN_POINT('',(-8.874119674649,1.5,5.850239699675));
#136 = CARTESIAN_POINT('',(-8.874119674649,1.5,6.149760300328));
#137 = CARTESIAN_POINT('',(-8.877068207585,1.482556068491,6.299796004793
    ));
#138 = CARTESIAN_POINT('',(-8.882985229974,1.447551421949,6.448471968028
    ));
#139 = CARTESIAN_POINT('',(-8.891689469118,1.394739393545,6.594107974557
    ));
#140 = CARTESIAN_POINT('',(-8.90279452189,1.323739120962,6.734848978327)
  );
#141 = CARTESIAN_POINT('',(-8.915669632233,1.234049751151,6.868464110962
    ));
#142 = CARTESIAN_POINT('',(-8.94294719843,1.017573349148,7.114008390402)
  );
#143 = CARTESIAN_POINT('',(-8.957645701685,0.888730036912,7.229021115813
    ));
#144 = CARTESIAN_POINT('',(-8.972332726319,0.739199393869,7.330313511868
    ));
#145 = CARTESIAN_POINT('',(-8.985361809407,0.571363156582,7.412165462019
    ));
#146 = CARTESIAN_POINT('',(-8.994985724621,0.388950875176,7.469915580697
    ));
#147 = CARTESIAN_POINT('',(-9.,0.196672967409,7.5));
#148 = CARTESIAN_POINT('',(-9.,7.347880794884E-16,7.5));
#149 = ORIENTED_EDGE('',*,*,#150,.T.);
#150 = EDGE_CURVE('',#120,#118,#151,.T.);
#151 = B_SPLINE_CURVE_WITH_KNOTS('',7,(#152,#153,#154,#155,#156,#157,
    #158,#159,#160,#161,#162,#163,#164,#165,#166,#167,#168,#169,#170,
    #171,#172,#173,#174,#175,#176,#177),.UNSPECIFIED.,.F.,.F.,(8,6,6,6,8
    ),(0.,0.248588379572,0.500150756497,0.751566615353,1.),
  .UNSPECIFIED.);
#152 = CARTESIAN_POINT('',(-9.,6.661338147751E-16,7.5));
#153 = CARTESIAN_POINT('',(-9.,-0.196752354316,7.5));
#154 = CARTESIAN_POINT('',(-8.994981677791,-0.389042082309,
    7.469891285284));
#155 = CARTESIAN_POINT('',(-8.985356016871,-0.571418639803,
    7.412130799062));
#156 = CARTESIAN_POINT('',(-8.97233076739,-0.739203189409,7.330295550928
    ));
#157 = CARTESIAN_POINT('',(-8.957648919279,-0.888696353555,
    7.229038434604));
#158 = CARTESIAN_POINT('',(-8.942951739279,-1.017537312699,7.11404926573
    ));
#159 = CARTESIAN_POINT('',(-8.915665376655,-1.234083523672,
    6.868425803556));
#160 = CARTESIAN_POINT('',(-8.902790445218,-1.323763726861,
    6.734801320556));
#161 = CARTESIAN_POINT('',(-8.891689331957,-1.394737328978,
    6.594086905281));
#162 = CARTESIAN_POINT('',(-8.882988960952,-1.447529253395,
    6.448503312066));
#163 = CARTESIAN_POINT('',(-8.877071651209,-1.482535724256,
    6.299877776983));
#164 = CARTESIAN_POINT('',(-8.874119674649,-1.5,6.149847576404));
#165 = CARTESIAN_POINT('',(-8.874119674649,-1.5,5.850239699674));
#166 = CARTESIAN_POINT('',(-8.877068207585,-1.482556068492,
    5.700203995209));
#167 = CARTESIAN_POINT('',(-8.882985229974,-1.44755142195,5.551528031973
    ));
#168 = CARTESIAN_POINT('',(-8.891689469118,-1.394739393545,
    5.405892025441));
#169 = CARTESIAN_POINT('',(-8.902794521891,-1.323739120961,
    5.265151021671));
#170 = CARTESIAN_POINT('',(-8.915669632233,-1.23404975115,5.131535889036
    ));
#171 = CARTESIAN_POINT('',(-8.942946976894,-1.017575107276,
    4.885993603802));
#172 = CARTESIAN_POINT('',(-8.95764509484,-0.88873522293,4.770983755363)
  );
#173 = CARTESIAN_POINT('',(-8.972332074089,-0.739206650481,
    4.669690310692));
#174 = CARTESIAN_POINT('',(-8.985361698924,-0.571368033721,
    4.587835006166));
#175 = CARTESIAN_POINT('',(-8.994985971112,-0.38895021557,4.53008302271)
  );
#176 = CARTESIAN_POINT('',(-9.,-0.196668322753,4.5));
#177 = CARTESIAN_POINT('',(-9.,1.110223024625E-15,4.5));
#178 = CYLINDRICAL_SURFACE('',#179,9.);
#179 = AXIS2_PLACEMENT_3D('',#180,#181,#182);
#180 = CARTESIAN_POINT('',(0.,0.,0.));
#181 = DIRECTION('',(0.,0.,1.));
#182 = DIRECTION('',(1.,0.,0.));
#183 = ADVANCED_FACE('',(#184),#299,.F.);
#184 = FACE_BOUND('',#185,.F.);
#185 = EDGE_LOOP('',(#186,#187,#195,#247,#297,#298));
#186 = ORIENTED_EDGE('',*,*,#86,.F.);
#187 = ORIENTED_EDGE('',*,*,#188,.F.);
#188 = EDGE_CURVE('',#189,#22,#191,.T.);
#189 = VERTEX_POINT('',#190);
#190 = CARTESIAN_POINT('',(4.025,-3.092233167847E-16,7.5));
#191 = LINE('',#192,#193);
#192 = CARTESIAN_POINT('',(-9.,3.673940397442E-16,7.5));
#193 = VECTOR('',#194,1.);
#194 = DIRECTION('',(1.,0.,0.));
#195 = ORIENTED_EDGE('',*,*,#196,.T.);
#196 = EDGE_CURVE('',#189,#197,#199,.T.);
#197 = VERTEX_POINT('',#198);
#198 = CARTESIAN_POINT('',(4.025,-9.858406733136E-16,4.5));
#199 = B_SPLINE_CURVE_WITH_KNOTS('',6,(#200,#201,#202,#203,#204,#205,
    #206,#207,#208,#209,#210,#211,#212,#213,#214,#215,#216,#217,#218,
    #219,#220,#221,#222,#223,#224,#225,#226,#227,#228,#229,#230,#231,
    #232,#233,#234,#235,#236,#237,#238,#239,#240,#241,#242,#243,#244,
    #245,#246),.UNSPECIFIED.,.F.,.F.,(7,5,5,5,5,5,5,5,5,7),(0.,
    0.144181093929,0.209657321052,0.259866514328,0.480490566641,
    0.519347723982,0.740953703921,0.790535637476,0.857236479925,1.),
  .UNSPECIFIED.);
#200 = CARTESIAN_POINT('',(4.025,-2.22044604925E-16,7.5));
#201 = CARTESIAN_POINT('',(4.025,-0.131229897954,7.5));
#202 = CARTESIAN_POINT('',(4.019865735726,-0.261549791348,7.486222930352
    ));
#203 = CARTESIAN_POINT('',(4.009730527155,-0.38858937697,7.459027333136)
  );
#204 = CARTESIAN_POINT('',(3.995295964544,-0.51006359836,7.419476182986)
  );
#205 = CARTESIAN_POINT('',(3.977770189663,-0.623950142219,7.369324042473
    ));
#206 = CARTESIAN_POINT('',(3.949730266709,-0.776270173474,7.284665913122
    ));
#207 = CARTESIAN_POINT('',(3.940579083124,-0.822128995792,7.256467101176
    ));
#208 = CARTESIAN_POINT('',(3.931128512312,-0.866242849957,7.226646811063
    ));
#209 = CARTESIAN_POINT('',(3.921470980828,-0.908585811157,7.195336989057
    ));
#210 = CARTESIAN_POINT('',(3.911694943832,-0.94913945806,7.162663503272)
  );
#211 = CARTESIAN_POINT('',(3.894359574567,-1.017609061197,7.102738106314
    ));
#212 = CARTESIAN_POINT('',(3.886813506539,-1.046272183958,7.075993725677
    ));
#213 = CARTESIAN_POINT('',(3.879281251402,-1.073881499459,7.04856239065)
  );
#214 = CARTESIAN_POINT('',(3.871796719714,-1.100438385719,7.020489352178
    ));
#215 = CARTESIAN_POINT('',(3.864391659802,-1.125945702553,6.991816199581
    ));
#216 = CARTESIAN_POINT('',(3.825036318988,-1.257896577084,6.834117952725
    ));
#217 = CARTESIAN_POINT('',(3.795038161803,-1.345350326651,6.694623271035
    ));
#218 = CARTESIAN_POINT('',(3.769663436459,-1.412862464206,6.54742395095)
  );
#219 = CARTESIAN_POINT('',(3.750781656104,-1.460698815549,6.395054889689
    ));
#220 = CARTESIAN_POINT('',(3.739457767526,-1.489015817338,6.239611822727
    ));
#221 = CARTESIAN_POINT('',(3.735364086348,-1.499227419914,6.055494731846
    ));
#222 = CARTESIAN_POINT('',(3.734994546005,-1.50014705542,6.027897906233)
  );
#223 = CARTESIAN_POINT('',(3.734869797953,-1.500457137927,6.000288336514
    ));
#224 = CARTESIAN_POINT('',(3.734990280648,-1.500157665062,5.972678678819
    ));
#225 = CARTESIAN_POINT('',(3.735355564694,-1.499248639151,5.945081589125
    ));
#226 = CARTESIAN_POINT('',(3.739436328282,-1.489069510327,5.760264809517
    ));
#227 = CARTESIAN_POINT('',(3.750822085658,-1.460599246316,5.604129326298
    ));
#228 = CARTESIAN_POINT('',(3.769833571041,-1.412437365492,5.451099281707
    ));
#229 = CARTESIAN_POINT('',(3.795389821094,-1.344423973842,5.30329707242)
  );
#230 = CARTESIAN_POINT('',(3.825591015852,-1.256287543543,5.16329363401)
  );
#231 = CARTESIAN_POINT('',(3.865046332064,-1.123691064437,5.005647514136
    ));
#232 = CARTESIAN_POINT('',(3.872364438888,-1.098428646485,4.977375422216
    ));
#233 = CARTESIAN_POINT('',(3.879758352581,-1.072142593066,4.949690732516
    ));
#234 = CARTESIAN_POINT('',(3.887197423929,-1.04483019005,4.922633618696)
  );
#235 = CARTESIAN_POINT('',(3.894648944813,-1.016490157477,4.896247750334
    ));
#236 = CARTESIAN_POINT('',(3.912072395904,-0.947615567477,4.836050759488
    ));
#237 = CARTESIAN_POINT('',(3.922028815237,-0.906239163259,4.802812556054
    ));
#238 = CARTESIAN_POINT('',(3.931859512548,-0.863006063603,4.77099336749)
  );
#239 = CARTESIAN_POINT('',(3.941470709996,-0.817936372607,4.740726773663
    ));
#240 = CARTESIAN_POINT('',(3.950764422026,-0.771058365446,4.712152776573
    ));
#241 = CARTESIAN_POINT('',(3.978637306838,-0.618282631092,4.62819710033)
  );
#242 = CARTESIAN_POINT('',(3.995866170599,-0.505238353999,4.57896138931)
  );
#243 = CARTESIAN_POINT('',(4.010031963585,-0.384800821601,4.540163827221
    ));
#244 = CARTESIAN_POINT('',(4.019968400438,-0.258948427978,4.513501581117
    ));
#245 = CARTESIAN_POINT('',(4.025,-0.129911219701,4.5));
#246 = CARTESIAN_POINT('',(4.025,-6.661338147751E-16,4.5));
#247 = ORIENTED_EDGE('',*,*,#248,.T.);
#248 = EDGE_CURVE('',#197,#189,#249,.T.);
#249 = B_SPLINE_CURVE_WITH_KNOTS('',6,(#250,#251,#252,#253,#254,#255,
    #256,#257,#258,#259,#260,#261,#262,#263,#264,#265,#266,#267,#268,
    #269,#270,#271,#272,#273,#274,#275,#276,#277,#278,#279,#280,#281,
    #282,#283,#284,#285,#286,#287,#288,#289,#290,#291,#292,#293,#294,
    #295,#296),.UNSPECIFIED.,.F.,.F.,(7,5,5,5,5,5,5,5,5,7),(0.,
    0.144181093929,0.209657321052,0.259866514328,0.48049056664,
    0.519347723982,0.74095370392,0.790535637476,0.857236479925,1.),
  .UNSPECIFIED.);
#250 = CARTESIAN_POINT('',(4.025,-9.184850993605E-17,4.5));
#251 = CARTESIAN_POINT('',(4.025,0.131229897954,4.5));
#252 = CARTESIAN_POINT('',(4.019865735726,0.261549791348,4.513777069648)
  );
#253 = CARTESIAN_POINT('',(4.009730527155,0.38858937697,4.540972666864)
  );
#254 = CARTESIAN_POINT('',(3.995295964544,0.51006359836,4.580523817014)
  );
#255 = CARTESIAN_POINT('',(3.977770189663,0.623950142219,4.630675957527)
  );
#256 = CARTESIAN_POINT('',(3.949730266709,0.776270173474,4.715334086878)
  );
#257 = CARTESIAN_POINT('',(3.940579083124,0.822128995792,4.743532898824)
  );
#258 = CARTESIAN_POINT('',(3.931128512312,0.866242849957,4.773353188937)
  );
#259 = CARTESIAN_POINT('',(3.921470980828,0.908585811157,4.804663010943)
  );
#260 = CARTESIAN_POINT('',(3.911694943832,0.94913945806,4.837336496728)
  );
#261 = CARTESIAN_POINT('',(3.894359574567,1.017609061197,4.897261893686)
  );
#262 = CARTESIAN_POINT('',(3.886813506539,1.046272183958,4.924006274323)
  );
#263 = CARTESIAN_POINT('',(3.879281251402,1.073881499459,4.95143760935)
  );
#264 = CARTESIAN_POINT('',(3.871796719714,1.100438385719,4.979510647822)
  );
#265 = CARTESIAN_POINT('',(3.864391659802,1.125945702553,5.008183800419)
  );
#266 = CARTESIAN_POINT('',(3.825036318988,1.257896577084,5.165882047275)
  );
#267 = CARTESIAN_POINT('',(3.795038161803,1.345350326651,5.305376728965)
  );
#268 = CARTESIAN_POINT('',(3.769663436459,1.412862464206,5.45257604905)
  );
#269 = CARTESIAN_POINT('',(3.750781656104,1.460698815549,5.604945110311)
  );
#270 = CARTESIAN_POINT('',(3.739457767526,1.489015817338,5.760388177274)
  );
#271 = CARTESIAN_POINT('',(3.735364086348,1.499227419914,5.944505268154)
  );
#272 = CARTESIAN_POINT('',(3.734994546005,1.50014705542,5.972102093767)
  );
#273 = CARTESIAN_POINT('',(3.734869797953,1.500457137927,5.999711663486)
  );
#274 = CARTESIAN_POINT('',(3.734990280648,1.500157665062,6.027321321181)
  );
#275 = CARTESIAN_POINT('',(3.735355564694,1.499248639151,6.054918410875)
  );
#276 = CARTESIAN_POINT('',(3.739436328282,1.489069510327,6.239735190483)
  );
#277 = CARTESIAN_POINT('',(3.750822085658,1.460599246316,6.395870673702)
  );
#278 = CARTESIAN_POINT('',(3.769833571041,1.412437365492,6.548900718293)
  );
#279 = CARTESIAN_POINT('',(3.795389821094,1.344423973842,6.69670292758)
  );
#280 = CARTESIAN_POINT('',(3.825591015852,1.256287543543,6.83670636599)
  );
#281 = CARTESIAN_POINT('',(3.865046332064,1.123691064437,6.994352485864)
  );
#282 = CARTESIAN_POINT('',(3.872364438888,1.098428646485,7.022624577784)
  );
#283 = CARTESIAN_POINT('',(3.879758352581,1.072142593066,7.050309267484)
  );
#284 = CARTESIAN_POINT('',(3.887197423929,1.04483019005,7.077366381304)
  );
#285 = CARTESIAN_POINT('',(3.894648944813,1.016490157477,7.103752249666)
  );
#286 = CARTESIAN_POINT('',(3.912072395904,0.947615567477,7.163949240512)
  );
#287 = CARTESIAN_POINT('',(3.922028815237,0.906239163259,7.197187443946)
  );
#288 = CARTESIAN_POINT('',(3.931859512548,0.863006063603,7.22900663251)
  );
#289 = CARTESIAN_POINT('',(3.941470709996,0.817936372607,7.259273226337)
  );
#290 = CARTESIAN_POINT('',(3.950764422026,0.771058365446,7.287847223427)
  );
#291 = CARTESIAN_POINT('',(3.978637306838,0.618282631092,7.37180289967)
  );
#292 = CARTESIAN_POINT('',(3.995866170599,0.505238353999,7.42103861069)
  );
#293 = CARTESIAN_POINT('',(4.010031963585,0.384800821601,7.459836172779)
  );
#294 = CARTESIAN_POINT('',(4.019968400438,0.258948427978,7.486498418883)
  );
#295 = CARTESIAN_POINT('',(4.025,0.129911219701,7.5));
#296 = CARTESIAN_POINT('',(4.025,1.836970198721E-16,7.5));
#297 = ORIENTED_EDGE('',*,*,#188,.T.);
#298 = ORIENTED_EDGE('',*,*,#39,.F.);
#299 = CYLINDRICAL_SURFACE('',#300,1.5);
#300 = AXIS2_PLACEMENT_3D('',#301,#302,#303);
#301 = CARTESIAN_POINT('',(-9.,0.,6.));
#302 = DIRECTION('',(1.,0.,0.));
#303 = DIRECTION('',(0.,0.,1.));
#304 = ADVANCED_FACE('',(#305,#308),#319,.F.);
#305 = FACE_BOUND('',#306,.F.);
#306 = EDGE_LOOP('',(#307));
#307 = ORIENTED_EDGE('',*,*,#78,.T.);
#308 = FACE_BOUND('',#309,.F.);
#309 = EDGE_LOOP('',(#310));
#310 = ORIENTED_EDGE('',*,*,#311,.F.);
#311 = EDGE_CURVE('',#312,#312,#314,.T.);
#312 = VERTEX_POINT('',#313);
#313 = CARTESIAN_POINT('',(4.025,-9.858406733136E-16,0.));
#314 = CIRCLE('',#315,4.025);
#315 = AXIS2_PLACEMENT_3D('',#316,#317,#318);
#316 = CARTESIAN_POINT('',(0.,0.,0.));
#317 = DIRECTION('',(0.,0.,1.));
#318 = DIRECTION('',(1.,0.,0.));
#319 = PLANE('',#320);
#320 = AXIS2_PLACEMENT_3D('',#321,#322,#323);
#321 = CARTESIAN_POINT('',(0.,0.,0.));
#322 = DIRECTION('',(0.,0.,1.));
#323 = DIRECTION('',(1.,0.,0.));
#324 = ADVANCED_FACE('',(#325,#328),#388,.T.);
#325 = FACE_BOUND('',#326,.T.);
#326 = EDGE_LOOP('',(#327));
#327 = ORIENTED_EDGE('',*,*,#31,.T.);
#328 = FACE_BOUND('',#329,.T.);
#329 = EDGE_LOOP('',(#330,#341,#350,#358,#366,#374,#382));
#330 = ORIENTED_EDGE('',*,*,#331,.F.);
#331 = EDGE_CURVE('',#332,#334,#336,.T.);
#332 = VERTEX_POINT('',#333);
#333 = CARTESIAN_POINT('',(4.025,-9.858406733136E-16,24.));
#334 = VERTEX_POINT('',#335);
#335 = CARTESIAN_POINT('',(1.326885450972,3.8,24.));
#336 = CIRCLE('',#337,4.025);
#337 = AXIS2_PLACEMENT_3D('',#338,#339,#340);
#338 = CARTESIAN_POINT('',(0.,0.,24.));
#339 = DIRECTION('',(0.,0.,1.));
#340 = DIRECTION('',(1.,0.,0.));
#341 = ORIENTED_EDGE('',*,*,#342,.F.);
#342 = EDGE_CURVE('',#343,#332,#345,.T.);
#343 = VERTEX_POINT('',#344);
#344 = CARTESIAN_POINT('',(-1.326885450972,3.8,24.));
#345 = CIRCLE('',#346,4.025);
#346 = AXIS2_PLACEMENT_3D('',#347,#348,#349);
#347 = CARTESIAN_POINT('',(0.,0.,24.));
#348 = DIRECTION('',(0.,0.,1.));
#349 = DIRECTION('',(1.,0.,0.));
#350 = ORIENTED_EDGE('',*,*,#351,.F.);
#351 = EDGE_CURVE('',#352,#343,#354,.T.);
#352 = VERTEX_POINT('',#353);
#353 = CARTESIAN_POINT('',(-1.55,3.8,24.));
#354 = LINE('',#355,#356);
#355 = CARTESIAN_POINT('',(-1.55,3.8,24.));
#356 = VECTOR('',#357,1.);
#357 = DIRECTION('',(1.,0.,0.));
#358 = ORIENTED_EDGE('',*,*,#359,.T.);
#359 = EDGE_CURVE('',#352,#360,#362,.T.);
#360 = VERTEX_POINT('',#361);
#361 = CARTESIAN_POINT('',(-1.55,6.,24.));
#362 = LINE('',#363,#364);
#363 = CARTESIAN_POINT('',(-1.55,3.8,24.));
#364 = VECTOR('',#365,1.);
#365 = DIRECTION('',(0.,1.,0.));
#366 = ORIENTED_EDGE('',*,*,#367,.T.);
#367 = EDGE_CURVE('',#360,#368,#370,.T.);
#368 = VERTEX_POINT('',#369);
#369 = CARTESIAN_POINT('',(1.55,6.,24.));
#370 = LINE('',#371,#372);
#371 = CARTESIAN_POINT('',(-1.55,6.,24.));
#372 = VECTOR('',#373,1.);
#373 = DIRECTION('',(1.,0.,0.));
#374 = ORIENTED_EDGE('',*,*,#375,.F.);
#375 = EDGE_CURVE('',#376,#368,#378,.T.);
#376 = VERTEX_POINT('',#377);
#377 = CARTESIAN_POINT('',(1.55,3.8,24.));
#378 = LINE('',#379,#380);
#379 = CARTESIAN_POINT('',(1.55,3.8,24.));
#380 = VECTOR('',#381,1.);
#381 = DIRECTION('',(0.,1.,0.));
#382 = ORIENTED_EDGE('',*,*,#383,.F.);
#383 = EDGE_CURVE('',#334,#376,#384,.T.);
#384 = LINE('',#385,#386);
#385 = CARTESIAN_POINT('',(-1.55,3.8,24.));
#386 = VECTOR('',#387,1.);
#387 = DIRECTION('',(1.,0.,0.));
#388 = PLANE('',#389);
#389 = AXIS2_PLACEMENT_3D('',#390,#391,#392);
#390 = CARTESIAN_POINT('',(0.,0.,24.));
#391 = DIRECTION('',(0.,0.,1.));
#392 = DIRECTION('',(1.,0.,0.));
#393 = ADVANCED_FACE('',(#394),#507,.F.);
#394 = FACE_BOUND('',#395,.F.);
#395 = EDGE_LOOP('',(#396,#498,#504,#505,#506));
#396 = ORIENTED_EDGE('',*,*,#397,.F.);
#397 = EDGE_CURVE('',#398,#398,#400,.T.);
#398 = VERTEX_POINT('',#399);
#399 = CARTESIAN_POINT('',(-4.025,3.673940397442E-16,7.5));
#400 = B_SPLINE_CURVE_WITH_KNOTS('',6,(#401,#402,#403,#404,#405,#406,
    #407,#408,#409,#410,#411,#412,#413,#414,#415,#416,#417,#418,#419,
    #420,#421,#422,#423,#424,#425,#426,#427,#428,#429,#430,#431,#432,
    #433,#434,#435,#436,#437,#438,#439,#440,#441,#442,#443,#444,#445,
    #446,#447,#448,#449,#450,#451,#452,#453,#454,#455,#456,#457,#458,
    #459,#460,#461,#462,#463,#464,#465,#466,#467,#468,#469,#470,#471,
    #472,#473,#474,#475,#476,#477,#478,#479,#480,#481,#482,#483,#484,
    #485,#486,#487,#488,#489,#490,#491,#492,#493,#494,#495,#496,#497),
  .UNSPECIFIED.,.T.,.F.,(7,5,5,5,5,5,5,5,5,5,5,5,5,5,5,5,5,5,5,7),(0.,
    7.206436072453E-02,0.104790582462,0.129886060082,0.240158016391,
    0.259579537806,0.370342279589,0.395124241272,0.428462548258,
    0.470845158464,0.530528858825,0.572230883199,0.604958260047,
    0.630054623441,0.740330471929,0.759752678849,0.870519330057,
    0.895302166449,0.928641650151,1.),.UNSPECIFIED.);
#401 = CARTESIAN_POINT('',(-4.025,4.440892098501E-16,7.5));
#402 = CARTESIAN_POINT('',(-4.025,-0.131229897954,7.5));
#403 = CARTESIAN_POINT('',(-4.019865735726,-0.261549791348,
    7.486222930352));
#404 = CARTESIAN_POINT('',(-4.009730527155,-0.38858937697,7.459027333136
    ));
#405 = CARTESIAN_POINT('',(-3.995295964544,-0.51006359836,7.419476182986
    ));
#406 = CARTESIAN_POINT('',(-3.977770189663,-0.623950142219,
    7.369324042473));
#407 = CARTESIAN_POINT('',(-3.949730266709,-0.776270173474,
    7.284665913122));
#408 = CARTESIAN_POINT('',(-3.940579083124,-0.822128995792,
    7.256467101176));
#409 = CARTESIAN_POINT('',(-3.931128512312,-0.866242849957,
    7.226646811063));
#410 = CARTESIAN_POINT('',(-3.921470980828,-0.908585811157,
    7.195336989057));
#411 = CARTESIAN_POINT('',(-3.911694943832,-0.94913945806,7.162663503272
    ));
#412 = CARTESIAN_POINT('',(-3.894359574567,-1.017609061197,
    7.102738106314));
#413 = CARTESIAN_POINT('',(-3.886813506539,-1.046272183958,
    7.075993725677));
#414 = CARTESIAN_POINT('',(-3.879281251402,-1.073881499459,7.04856239065
    ));
#415 = CARTESIAN_POINT('',(-3.871796719714,-1.100438385719,
    7.020489352178));
#416 = CARTESIAN_POINT('',(-3.864391659802,-1.125945702553,
    6.991816199581));
#417 = CARTESIAN_POINT('',(-3.825036318988,-1.257896577084,
    6.834117952725));
#418 = CARTESIAN_POINT('',(-3.795038161803,-1.345350326651,
    6.694623271035));
#419 = CARTESIAN_POINT('',(-3.769663436459,-1.412862464206,6.54742395095
    ));
#420 = CARTESIAN_POINT('',(-3.750781656104,-1.460698815549,
    6.395054889689));
#421 = CARTESIAN_POINT('',(-3.739457767526,-1.489015817338,
    6.239611822727));
#422 = CARTESIAN_POINT('',(-3.735364086348,-1.499227419914,
    6.055494731846));
#423 = CARTESIAN_POINT('',(-3.734994546005,-1.50014705542,6.027897906233
    ));
#424 = CARTESIAN_POINT('',(-3.734869797953,-1.500457137927,
    6.000288336514));
#425 = CARTESIAN_POINT('',(-3.734990280648,-1.500157665062,
    5.972678678819));
#426 = CARTESIAN_POINT('',(-3.735355564694,-1.499248639151,
    5.945081589125));
#427 = CARTESIAN_POINT('',(-3.739436328282,-1.489069510327,
    5.760264809517));
#428 = CARTESIAN_POINT('',(-3.750822085658,-1.460599246316,
    5.604129326298));
#429 = CARTESIAN_POINT('',(-3.769833571041,-1.412437365492,
    5.451099281708));
#430 = CARTESIAN_POINT('',(-3.795389821094,-1.344423973842,5.30329707242
    ));
#431 = CARTESIAN_POINT('',(-3.825591015852,-1.256287543543,5.16329363401
    ));
#432 = CARTESIAN_POINT('',(-3.865046332064,-1.123691064437,
    5.005647514136));
#433 = CARTESIAN_POINT('',(-3.872364438888,-1.098428646485,
    4.977375422216));
#434 = CARTESIAN_POINT('',(-3.879758352581,-1.072142593066,
    4.949690732516));
#435 = CARTESIAN_POINT('',(-3.887197423929,-1.04483019005,4.922633618696
    ));
#436 = CARTESIAN_POINT('',(-3.894648944813,-1.016490157477,
    4.896247750334));
#437 = CARTESIAN_POINT('',(-3.912072395904,-0.947615567477,
    4.836050759488));
#438 = CARTESIAN_POINT('',(-3.922028815237,-0.906239163259,
    4.802812556054));
#439 = CARTESIAN_POINT('',(-3.931859512548,-0.863006063603,4.77099336749
    ));
#440 = CARTESIAN_POINT('',(-3.941470709996,-0.817936372607,
    4.740726773663));
#441 = CARTESIAN_POINT('',(-3.950764422026,-0.771058365446,
    4.712152776573));
#442 = CARTESIAN_POINT('',(-3.970923720705,-0.660562028936,
    4.651431126677));
#443 = CARTESIAN_POINT('',(-3.981544665648,-0.595781860464,
    4.620378383577));
#444 = CARTESIAN_POINT('',(-3.991262314436,-0.52830301724,4.592667754179
    ));
#445 = CARTESIAN_POINT('',(-3.99984704504,-0.458399949715,4.568656635792
    ));
#446 = CARTESIAN_POINT('',(-4.007095025368,-0.386383306686,
    4.548655901188));
#447 = CARTESIAN_POINT('',(-4.020937301827,-0.208687886441,
    4.510793345645));
#448 = CARTESIAN_POINT('',(-4.026049128337,-0.101367686746,
    4.497158409377));
#449 = CARTESIAN_POINT('',(-4.027676572114,7.677956729672E-03,
    4.492898103253));
#450 = CARTESIAN_POINT('',(-4.025627205899,0.116639763517,4.498276404873
    ));
#451 = CARTESIAN_POINT('',(-4.020119712964,0.223711312185,4.512989072613
    ));
#452 = CARTESIAN_POINT('',(-4.005778584212,0.399534566386,4.552290226236
    ));
#453 = CARTESIAN_POINT('',(-3.998449418943,0.470083049734,4.572561368488
    ));
#454 = CARTESIAN_POINT('',(-3.989849753997,0.538543173169,4.596677148915
    ));
#455 = CARTESIAN_POINT('',(-3.980175553214,0.604628363955,4.624338744847
    ));
#456 = CARTESIAN_POINT('',(-3.969645424793,0.668085942484,4.655206245875
    ));
#457 = CARTESIAN_POINT('',(-3.949730266709,0.776270173474,4.715334086878
    ));
#458 = CARTESIAN_POINT('',(-3.940579083124,0.822128995792,4.743532898824
    ));
#459 = CARTESIAN_POINT('',(-3.931128512312,0.866242849957,4.773353188937
    ));
#460 = CARTESIAN_POINT('',(-3.921470980828,0.908585811157,4.804663010943
    ));
#461 = CARTESIAN_POINT('',(-3.911694943832,0.94913945806,4.837336496728)
  );
#462 = CARTESIAN_POINT('',(-3.894359574567,1.017609061197,4.897261893686
    ));
#463 = CARTESIAN_POINT('',(-3.886813506539,1.046272183958,4.924006274323
    ));
#464 = CARTESIAN_POINT('',(-3.879281251402,1.073881499459,4.95143760935)
  );
#465 = CARTESIAN_POINT('',(-3.871796719714,1.100438385719,4.979510647822
    ));
#466 = CARTESIAN_POINT('',(-3.864391659802,1.125945702553,5.008183800419
    ));
#467 = CARTESIAN_POINT('',(-3.825036318988,1.257896577084,5.165882047275
    ));
#468 = CARTESIAN_POINT('',(-3.795038161803,1.345350326651,5.305376728965
    ));
#469 = CARTESIAN_POINT('',(-3.769663436459,1.412862464206,5.45257604905)
  );
#470 = CARTESIAN_POINT('',(-3.750781656104,1.460698815549,5.604945110311
    ));
#471 = CARTESIAN_POINT('',(-3.739457767526,1.489015817338,5.760388177274
    ));
#472 = CARTESIAN_POINT('',(-3.735364086348,1.499227419914,5.944505268154
    ));
#473 = CARTESIAN_POINT('',(-3.734994546005,1.50014705542,5.972102093767)
  );
#474 = CARTESIAN_POINT('',(-3.734869797953,1.500457137927,5.999711663486
    ));
#475 = CARTESIAN_POINT('',(-3.734990280648,1.500157665062,6.027321321181
    ));
#476 = CARTESIAN_POINT('',(-3.735355564694,1.499248639151,6.054918410875
    ));
#477 = CARTESIAN_POINT('',(-3.739436328279,1.489069510334,6.239735190373
    ));
#478 = CARTESIAN_POINT('',(-3.750822085655,1.460599246334,6.395870673891
    ));
#479 = CARTESIAN_POINT('',(-3.769833571072,1.412437365385,6.548900718258
    ));
#480 = CARTESIAN_POINT('',(-3.795389821048,1.344423973997,6.696702927439
    ));
#481 = CARTESIAN_POINT('',(-3.825591015876,1.256287543463,6.836706366086
    ));
#482 = CARTESIAN_POINT('',(-3.865046332064,1.123691064437,6.994352485864
    ));
#483 = CARTESIAN_POINT('',(-3.872364438888,1.098428646485,7.022624577784
    ));
#484 = CARTESIAN_POINT('',(-3.879758352581,1.072142593066,7.050309267484
    ));
#485 = CARTESIAN_POINT('',(-3.887197423929,1.04483019005,7.077366381304)
  );
#486 = CARTESIAN_POINT('',(-3.894648944813,1.016490157477,7.103752249666
    ));
#487 = CARTESIAN_POINT('',(-3.912072395904,0.947615567477,7.163949240512
    ));
#488 = CARTESIAN_POINT('',(-3.922028815237,0.906239163259,7.197187443946
    ));
#489 = CARTESIAN_POINT('',(-3.931859512548,0.863006063603,7.22900663251)
  );
#490 = CARTESIAN_POINT('',(-3.941470709996,0.817936372607,7.259273226337
    ));
#491 = CARTESIAN_POINT('',(-3.950764422026,0.771058365446,7.287847223427
    ));
#492 = CARTESIAN_POINT('',(-3.978637306838,0.618282631092,7.37180289967)
  );
#493 = CARTESIAN_POINT('',(-3.995866170599,0.505238353999,7.42103861069)
  );
#494 = CARTESIAN_POINT('',(-4.010031963585,0.384800821601,7.459836172779
    ));
#495 = CARTESIAN_POINT('',(-4.019968400438,0.258948427978,7.486498418883
    ));
#496 = CARTESIAN_POINT('',(-4.025,0.129911219701,7.5));
#497 = CARTESIAN_POINT('',(-4.025,4.440892098501E-16,7.5));
#498 = ORIENTED_EDGE('',*,*,#499,.F.);
#499 = EDGE_CURVE('',#120,#398,#500,.T.);
#500 = LINE('',#501,#502);
#501 = CARTESIAN_POINT('',(-9.,3.673940397442E-16,7.5));
#502 = VECTOR('',#503,1.);
#503 = DIRECTION('',(1.,0.,0.));
#504 = ORIENTED_EDGE('',*,*,#150,.T.);
#505 = ORIENTED_EDGE('',*,*,#117,.T.);
#506 = ORIENTED_EDGE('',*,*,#499,.T.);
#507 = CYLINDRICAL_SURFACE('',#508,1.5);
#508 = AXIS2_PLACEMENT_3D('',#509,#510,#511);
#509 = CARTESIAN_POINT('',(-9.,0.,6.));
#510 = DIRECTION('',(1.,0.,0.));
#511 = DIRECTION('',(0.,0.,1.));
#512 = ADVANCED_FACE('',(#513,#557),#560,.F.);
#513 = FACE_BOUND('',#514,.F.);
#514 = EDGE_LOOP('',(#515,#516,#522,#523,#531,#540,#546,#547,#548,#549,
    #555,#556));
#515 = ORIENTED_EDGE('',*,*,#196,.F.);
#516 = ORIENTED_EDGE('',*,*,#517,.T.);
#517 = EDGE_CURVE('',#189,#332,#518,.T.);
#518 = LINE('',#519,#520);
#519 = CARTESIAN_POINT('',(4.025,-9.858406733136E-16,0.));
#520 = VECTOR('',#521,1.);
#521 = DIRECTION('',(0.,0.,1.));
#522 = ORIENTED_EDGE('',*,*,#342,.F.);
#523 = ORIENTED_EDGE('',*,*,#524,.F.);
#524 = EDGE_CURVE('',#525,#343,#527,.T.);
#525 = VERTEX_POINT('',#526);
#526 = CARTESIAN_POINT('',(-1.326885450972,3.8,12.));
#527 = LINE('',#528,#529);
#528 = CARTESIAN_POINT('',(-1.326885450972,3.8,0.));
#529 = VECTOR('',#530,1.);
#530 = DIRECTION('',(0.,0.,1.));
#531 = ORIENTED_EDGE('',*,*,#532,.F.);
#532 = EDGE_CURVE('',#533,#525,#535,.T.);
#533 = VERTEX_POINT('',#534);
#534 = CARTESIAN_POINT('',(1.326885450972,3.8,12.));
#535 = CIRCLE('',#536,4.025);
#536 = AXIS2_PLACEMENT_3D('',#537,#538,#539);
#537 = CARTESIAN_POINT('',(0.,0.,12.));
#538 = DIRECTION('',(0.,0.,1.));
#539 = DIRECTION('',(1.,0.,0.));
#540 = ORIENTED_EDGE('',*,*,#541,.T.);
#541 = EDGE_CURVE('',#533,#334,#542,.T.);
#542 = LINE('',#543,#544);
#543 = CARTESIAN_POINT('',(1.326885450972,3.8,0.));
#544 = VECTOR('',#545,1.);
#545 = DIRECTION('',(0.,0.,1.));
#546 = ORIENTED_EDGE('',*,*,#331,.F.);
#547 = ORIENTED_EDGE('',*,*,#517,.F.);
#548 = ORIENTED_EDGE('',*,*,#248,.F.);
#549 = ORIENTED_EDGE('',*,*,#550,.F.);
#550 = EDGE_CURVE('',#312,#197,#551,.T.);
#551 = LINE('',#552,#553);
#552 = CARTESIAN_POINT('',(4.025,-9.858406733136E-16,0.));
#553 = VECTOR('',#554,1.);
#554 = DIRECTION('',(0.,0.,1.));
#555 = ORIENTED_EDGE('',*,*,#311,.T.);
#556 = ORIENTED_EDGE('',*,*,#550,.T.);
#557 = FACE_BOUND('',#558,.F.);
#558 = EDGE_LOOP('',(#559));
#559 = ORIENTED_EDGE('',*,*,#397,.T.);
#560 = CYLINDRICAL_SURFACE('',#561,4.025);
#561 = AXIS2_PLACEMENT_3D('',#562,#563,#564);
#562 = CARTESIAN_POINT('',(0.,0.,0.));
#563 = DIRECTION('',(0.,0.,1.));
#564 = DIRECTION('',(1.,0.,0.));
#565 = ADVANCED_FACE('',(#566),#584,.T.);
#566 = FACE_BOUND('',#567,.T.);
#567 = EDGE_LOOP('',(#568,#576,#577,#578));
#568 = ORIENTED_EDGE('',*,*,#569,.F.);
#569 = EDGE_CURVE('',#533,#570,#572,.T.);
#570 = VERTEX_POINT('',#571);
#571 = CARTESIAN_POINT('',(1.55,3.8,12.));
#572 = LINE('',#573,#574);
#573 = CARTESIAN_POINT('',(-1.55,3.8,12.));
#574 = VECTOR('',#575,1.);
#575 = DIRECTION('',(1.,0.,0.));
#576 = ORIENTED_EDGE('',*,*,#541,.T.);
#577 = ORIENTED_EDGE('',*,*,#383,.T.);
#578 = ORIENTED_EDGE('',*,*,#579,.F.);
#579 = EDGE_CURVE('',#570,#376,#580,.T.);
#580 = LINE('',#581,#582);
#581 = CARTESIAN_POINT('',(1.55,3.8,12.));
#582 = VECTOR('',#583,1.);
#583 = DIRECTION('',(0.,0.,1.));
#584 = PLANE('',#585);
#585 = AXIS2_PLACEMENT_3D('',#586,#587,#588);
#586 = CARTESIAN_POINT('',(-1.55,3.8,12.));
#587 = DIRECTION('',(0.,1.,0.));
#588 = DIRECTION('',(0.,0.,1.));
#589 = ADVANCED_FACE('',(#590),#608,.F.);
#590 = FACE_BOUND('',#591,.F.);
#591 = EDGE_LOOP('',(#592,#593,#601,#607));
#592 = ORIENTED_EDGE('',*,*,#579,.F.);
#593 = ORIENTED_EDGE('',*,*,#594,.T.);
#594 = EDGE_CURVE('',#570,#595,#597,.T.);
#595 = VERTEX_POINT('',#596);
#596 = CARTESIAN_POINT('',(1.55,6.,12.));
#597 = LINE('',#598,#599);
#598 = CARTESIAN_POINT('',(1.55,3.8,12.));
#599 = VECTOR('',#600,1.);
#600 = DIRECTION('',(0.,1.,0.));
#601 = ORIENTED_EDGE('',*,*,#602,.T.);
#602 = EDGE_CURVE('',#595,#368,#603,.T.);
#603 = LINE('',#604,#605);
#604 = CARTESIAN_POINT('',(1.55,6.,12.));
#605 = VECTOR('',#606,1.);
#606 = DIRECTION('',(0.,0.,1.));
#607 = ORIENTED_EDGE('',*,*,#375,.F.);
#608 = PLANE('',#609);
#609 = AXIS2_PLACEMENT_3D('',#610,#611,#612);
#610 = CARTESIAN_POINT('',(1.55,3.8,12.));
#611 = DIRECTION('',(1.,0.,0.));
#612 = DIRECTION('',(0.,0.,1.));
#613 = ADVANCED_FACE('',(#614),#632,.F.);
#614 = FACE_BOUND('',#615,.F.);
#615 = EDGE_LOOP('',(#616,#624,#630,#631));
#616 = ORIENTED_EDGE('',*,*,#617,.F.);
#617 = EDGE_CURVE('',#618,#595,#620,.T.);
#618 = VERTEX_POINT('',#619);
#619 = CARTESIAN_POINT('',(-1.55,6.,12.));
#620 = LINE('',#621,#622);
#621 = CARTESIAN_POINT('',(-1.55,6.,12.));
#622 = VECTOR('',#623,1.);
#623 = DIRECTION('',(1.,0.,0.));
#624 = ORIENTED_EDGE('',*,*,#625,.T.);
#625 = EDGE_CURVE('',#618,#360,#626,.T.);
#626 = LINE('',#627,#628);
#627 = CARTESIAN_POINT('',(-1.55,6.,12.));
#628 = VECTOR('',#629,1.);
#629 = DIRECTION('',(0.,0.,1.));
#630 = ORIENTED_EDGE('',*,*,#367,.T.);
#631 = ORIENTED_EDGE('',*,*,#602,.F.);
#632 = PLANE('',#633);
#633 = AXIS2_PLACEMENT_3D('',#634,#635,#636);
#634 = CARTESIAN_POINT('',(-1.55,6.,12.));
#635 = DIRECTION('',(0.,1.,0.));
#636 = DIRECTION('',(0.,0.,1.));
#637 = ADVANCED_FACE('',(#638),#656,.T.);
#638 = FACE_BOUND('',#639,.T.);
#639 = EDGE_LOOP('',(#640,#648,#654,#655));
#640 = ORIENTED_EDGE('',*,*,#641,.F.);
#641 = EDGE_CURVE('',#642,#352,#644,.T.);
#642 = VERTEX_POINT('',#643);
#643 = CARTESIAN_POINT('',(-1.55,3.8,12.));
#644 = LINE('',#645,#646);
#645 = CARTESIAN_POINT('',(-1.55,3.8,12.));
#646 = VECTOR('',#647,1.);
#647 = DIRECTION('',(0.,0.,1.));
#648 = ORIENTED_EDGE('',*,*,#649,.T.);
#649 = EDGE_CURVE('',#642,#618,#650,.T.);
#650 = LINE('',#651,#652);
#651 = CARTESIAN_POINT('',(-1.55,3.8,12.));
#652 = VECTOR('',#653,1.);
#653 = DIRECTION('',(0.,1.,0.));
#654 = ORIENTED_EDGE('',*,*,#625,.T.);
#655 = ORIENTED_EDGE('',*,*,#359,.F.);
#656 = PLANE('',#657);
#657 = AXIS2_PLACEMENT_3D('',#658,#659,#660);
#658 = CARTESIAN_POINT('',(-1.55,3.8,12.));
#659 = DIRECTION('',(1.,0.,0.));
#660 = DIRECTION('',(0.,0.,1.));
#661 = ADVANCED_FACE('',(#662),#673,.T.);
#662 = FACE_BOUND('',#663,.T.);
#663 = EDGE_LOOP('',(#664,#670,#671,#672));
#664 = ORIENTED_EDGE('',*,*,#665,.F.);
#665 = EDGE_CURVE('',#642,#525,#666,.T.);
#666 = LINE('',#667,#668);
#667 = CARTESIAN_POINT('',(-1.55,3.8,12.));
#668 = VECTOR('',#669,1.);
#669 = DIRECTION('',(1.,0.,0.));
#670 = ORIENTED_EDGE('',*,*,#641,.T.);
#671 = ORIENTED_EDGE('',*,*,#351,.T.);
#672 = ORIENTED_EDGE('',*,*,#524,.F.);
#673 = PLANE('',#674);
#674 = AXIS2_PLACEMENT_3D('',#675,#676,#677);
#675 = CARTESIAN_POINT('',(-1.55,3.8,12.));
#676 = DIRECTION('',(0.,1.,0.));
#677 = DIRECTION('',(0.,0.,1.));
#678 = ADVANCED_FACE('',(#679),#687,.T.);
#679 = FACE_BOUND('',#680,.T.);
#680 = EDGE_LOOP('',(#681,#682,#683,#684,#685,#686));
#681 = ORIENTED_EDGE('',*,*,#617,.F.);
#682 = ORIENTED_EDGE('',*,*,#649,.F.);
#683 = ORIENTED_EDGE('',*,*,#665,.T.);
#684 = ORIENTED_EDGE('',*,*,#532,.F.);
#685 = ORIENTED_EDGE('',*,*,#569,.T.);
#686 = ORIENTED_EDGE('',*,*,#594,.T.);
#687 = PLANE('',#688);
#688 = AXIS2_PLACEMENT_3D('',#689,#690,#691);
#689 = CARTESIAN_POINT('',(-1.55,3.8,12.));
#690 = DIRECTION('',(0.,0.,1.));
#691 = DIRECTION('',(1.,0.,0.));
#692 = ( GEOMETRIC_REPRESENTATION_CONTEXT(3) 
GLOBAL_UNCERTAINTY_ASSIGNED_CONTEXT((#696)) GLOBAL_UNIT_ASSIGNED_CONTEXT
((#693,#694,#695)) REPRESENTATION_CONTEXT('Context #1',
  '3D Context with UNIT and UNCERTAINTY') );
#693 = ( LENGTH_UNIT() NAMED_UNIT(*) SI_UNIT(.MILLI.,.METRE.) );
#694 = ( NAMED_UNIT(*) PLANE_ANGLE_UNIT() SI_UNIT($,.RADIAN.) );
#695 = ( NAMED_UNIT(*) SI_UNIT($,.STERADIAN.) SOLID_ANGLE_UNIT() );
#696 = UNCERTAINTY_MEASURE_WITH_UNIT(LENGTH_MEASURE(1.E-07),#693,
  'distance_accuracy_value','confusion accuracy');
#697 = PRODUCT_RELATED_PRODUCT_CATEGORY('part',$,(#7));
ENDSEC;
END-ISO-10303-21;
