999
FreeCAD v1.1 Unknown
  0
SECTION
  2
HEADER
  9
$ACADVER
  1
AC1014
  9
$ACADMAINTVER
 70
     9
  9
$DWGCODEPAGE
  3
ANSI_1252
  9
$TEXTSTYLE
  7
STANDARD
  9
$DIMSTYLE
  2
STANDARD
  9
$DIMTXSTY
  7
STANDARD
  9
$CMLSTYLE
  2
STANDARD
  9
$LUNITS
 70
2
  9
$INSUNITS
 70
4
  9
$PEXTMAX
 10
50
 20
50
 30
50
  9
$PEXTMIN
 10
0
 20
0
 30
0
  9
$HANDSEED
  5
FFFF
  0
ENDSEC
  0
SECTION
  2
CLASSES
  0
CLASS
  1
ACDBDICTIONARYWDFLT
  2
AcDbDictionaryWithDefault
  3
ObjectDBX Classes
 90
        0
280
     0
281
     0
  0
CLASS
  1
XRECORD
  2
AcDbXrecord
  3
ObjectDBX Classes
 90
        0
280
     0
281
     0
  0
CLASS
  1
LWPOLYLINE
  2
AcDbPolyline
  3
ObjectDBX Classes
 90
        0
280
     0
281
     1
  0
ENDSEC
  0
SECTION
  2
TABLES
  0
TABLE
  2
VPORT
  5
20
330
0
100
AcDbSymbolTable
 70
     1
  0
VPORT
  5
21
330
20
100
AcDbSymbolTableRecord
100
AcDbViewportTableRecord
  2
*ACTIVE
 70
     0
  0
ENDTAB
  0
TABLE
  2
LTYPE
  5
22
330
0
100
AcDbSymbolTable
 70
     1
  0
LTYPE
  5
23
330
21
100
AcDbSymbolTableRecord
100
AcDbLinetypeTableRecord
  2
BYBLOCK
 70
     0
  3

 72
    65
 73
     0
 40
0.0
  0
LTYPE
  5
24
330
21
100
AcDbSymbolTableRecord
100
AcDbLinetypeTableRecord
  2
BYLAYER
 70
     0
  3

 72
    65
 73
     0
 40
0.0
  0
LTYPE
  5
25
330
21
100
AcDbSymbolTableRecord
100
AcDbLinetypeTableRecord
  2
CONTINUOUS
 70
     0
  3
Solid line
 72
    65
 73
     0
 40
0.0
  0
ENDTAB
  0
TABLE
  2
LAYER
  5
A4E
330
0
100
AcDbSymbolTable
 70
3
  0
LAYER
  5
A4F
330
A4E
100
AcDbSymbolTableRecord
100
AcDbLayerTableRecord
  2
0
 70
   0
 62
   7
  6
CONTINUOUS
  0
LAYER
  5
A50
330
A4E
100
AcDbSymbolTableRecord
100
AcDbLayerTableRecord
  2
none
 70
    0
 62
    7
  6
CONTINUOUS
  0
LAYER
  5
A51
330
A4E
100
AcDbSymbolTableRecord
100
AcDbLayerTableRecord
  2
Part
 70
    0
 62
    7
  6
CONTINUOUS
  0
ENDTAB
  0
TABLE
  2
STYLE
  5
70
330
0
100
AcDbSymbolTable
 70
     2
  0
STYLE
  5
71
330
70
100
AcDbSymbolTableRecord
100
AcDbTextStyleTableRecord
  2
STANDARD
 70
     0
 40
0.0
 41
1.0
 50
0.0
 71
     0
 42
2.5
  3
arial.ttf
  4

  0
STYLE
  5
72
330
70
100
AcDbSymbolTableRecord
100
AcDbTextStyleTableRecord
  2
ANNOTATIVE
 70
     0
 40
0.0
 41
1.0
 50
0.0
 71
     0
 42
2.5
  3
arial.ttf
  4

  0
ENDTAB
  0
TABLE
  2
VIEW
  5
73
330
0
100
AcDbSymbolTable
 70
     0
  0
ENDTAB
  0
TABLE
  2
UCS
  5
74
330
0
100
AcDbSymbolTable
 70
     0
  0
ENDTAB
  0
TABLE
  2
APPID
  5
75
330
0
100
AcDbSymbolTable
 70
     2
  0
APPID
  5
76
330
75
100
AcDbSymbolTableRecord
100
AcDbRegAppTableRecord
  2
ACAD
 70
     0
  0
APPID
  5
77
330
75
100
AcDbSymbolTableRecord
100
AcDbRegAppTableRecord
  2
ACADANNOTATIVE
 70
     0
  0
ENDTAB
  0
TABLE
  2
DIMSTYLE
  5
78
330
0
100
AcDbSymbolTable
 70
     2
  0
DIMSTYLE
105
79
330
78
100
AcDbSymbolTableRecord
100
AcDbDimStyleTableRecord
  2
STANDARD
 70
     0
  3

  4

  5

  6

  7

 40
0.0
 41
2.5
 42
0.625
 43
3.75
 44
1.25
 45
0.0
 46
0.0
 47
0.0
 48
0.0
140
2.5
141
2.5
142
0.0
143
0.03937007874016
144
1.0
145
0.0
146
1.0
147
0.625
 71
     0
 72
     0
 73
     0
 74
     0
 75
     0
 76
     0
 77
     1
 78
     8
170
     0
171
     3
172
     1
173
     0
174
     0
175
     0
176
     0
177
     0
178
     0
270
     2
271
     2
272
     2
273
     2
274
     3
340
71
275
     0
280
     0
281
     0
282
     0
283
     0
284
     8
285
     0
286
     0
287
     3
288
     0
  0
ENDTAB
  0
TABLE
  2
BLOCK_RECORD
  5
A01
330
0
100
AcDbSymbolTable
  70
5
  0
BLOCK_RECORD
  5
A02
330
A01
100
AcDbSymbolTableRecord
100
AcDbBlockTableRecord
  2
*MODEL_SPACE
  0
BLOCK_RECORD
  5
A03
330
A01
100
AcDbSymbolTableRecord
100
AcDbBlockTableRecord
  2
*PAPER_SPACE
  0
ENDTAB
  0
ENDSEC
  0
SECTION
  2
BLOCKS
  0
BLOCK
  5
A04
330
A02
100
AcDbEntity
  8
0
100
AcDbBlockBegin
  2
*MODEL_SPACE
 70
   0
 10
0
 20
0
 30
0
  3
*MODEL_SPACE
  1

  0
ENDBLK
  5
A05
330
A02
100
AcDbEntity
  8
0
100
AcDbBlockEnd
  0
BLOCK
  5
A06
330
A03
100
AcDbEntity
 67
1
  8
0
100
AcDbBlockBegin
  2
*PAPER_SPACE
 70
   0
 10
0
 20
0
 30
0
  3
*PAPER_SPACE
  1

  0
ENDBLK
  5
A07
330
A03
100
AcDbEntity
 67
    1
  8
0
100
AcDbBlockEnd
  0
ENDSEC
  0
SECTION
  2
ENTITIES
  0
LINE
  5
A08
330
A02
100
AcDbEntity
  8
Part
100
AcDbLine
 10
9.000000000
 20
-0.000000000
 30
7.500000000
 11
9.000000000
 21
-0.000000000
 31
24.000000000
  0
SPLINE
  5
A09
330
A02
100
AcDbEntity
  8
Part
100
AcDbSpline
210
0
220
0
230
1
 70
8
 71
3
 72
17
 73
13
 74
0
 40
0.000000000
 40
0.000000000
 40
0.000000000
 40
0.000000000
 40
0.248588368
 40
0.248588368
 40
0.248588368
 40
0.500150743
 40
0.500150743
 40
0.500150743
 40
0.751566609
 40
0.751566609
 40
0.751566609
 40
1.000000000
 40
1.000000000
 40
1.000000000
 40
1.000000000
 10
9.000000000
 20
-0.000000000
 30
7.500000000
 10
9.000756027
 20
-0.461897929
 30
7.502653317
 10
8.961248858
 20
-0.877244240
 30
7.279415208
 10
8.929389683
 20
-1.125166604
 30
6.991967798
 10
8.896768077
 20
-1.379031667
 30
6.702731177
 10
8.873563161
 20
-1.499669040
 30
6.348945786
 10
8.874119675
 20
-1.500000000
 30
6.000000000
 10
8.873556243
 20
-1.499714040
 30
5.651223854
 10
8.896774971
 20
-1.378984864
 30
5.297140993
 10
8.929389683
 20
-1.125166604
 30
5.008032202
 10
8.961242397
 20
-0.877356231
 30
4.720631747
 10
9.000764753
 20
-0.461715267
 30
4.497287796
 10
9.000000000
 20
-0.000000000
 30
4.500000000
  0
LINE
  5
A0A
330
A02
100
AcDbEntity
  8
Part
100
AcDbLine
 10
9.000000000
 20
-0.000000000
 30
0.000000000
 11
9.000000000
 21
-0.000000000
 31
4.500000000
  0
CIRCLE
  5
A0B
330
A02
100
AcDbEntity
  8
Part
100
AcDbCircle
 10
0.000000000
 20
0.000000000
 30
0.000000000
 40
9.000000000
  0
LINE
  5
A0C
330
A02
100
AcDbEntity
  8
Part
100
AcDbLine
 10
9.000000000
 20
-0.000000000
 30
0.000000000
 11
9.000000000
 21
-0.000000000
 31
4.500000000
  0
SPLINE
  5
A0D
330
A02
100
AcDbEntity
  8
Part
100
AcDbSpline
210
0
220
0
230
1
 70
8
 71
3
 72
17
 73
13
 74
0
 40
0.000000000
 40
0.000000000
 40
0.000000000
 40
0.000000000
 40
0.248572900
 40
0.248572900
 40
0.248572900
 40
0.500041614
 40
0.500041614
 40
0.500041614
 40
0.751510327
 40
0.751510327
 40
0.751510327
 40
1.000000000
 40
1.000000000
 40
1.000000000
 40
1.000000000
 10
9.000000000
 20
0.000000000
 30
4.500000000
 10
9.000756027
 20
0.461897929
 30
4.497346683
 10
8.961248858
 20
0.877244240
 30
4.720584792
 10
8.929389683
 20
1.125166604
 30
5.008032202
 10
8.896774971
 20
1.378984864
 30
5.297140993
 10
8.873556243
 20
1.499714041
 30
5.651223854
 10
8.874119675
 20
1.500000000
 30
6.000000000
 10
8.873556243
 20
1.499714040
 30
6.348776146
 10
8.896774971
 20
1.378984864
 30
6.702859007
 10
8.929389683
 20
1.125166604
 30
6.991967798
 10
8.961243382
 20
0.877345118
 30
7.279375519
 10
9.000764458
 20
0.461718498
 30
7.502709834
 10
9.000000000
 20
0.000000000
 30
7.500000000
  0
LINE
  5
A0E
330
A02
100
AcDbEntity
  8
Part
100
AcDbLine
 10
9.000000000
 20
-0.000000000
 30
7.500000000
 11
9.000000000
 21
-0.000000000
 31
24.000000000
  0
CIRCLE
  5
A0F
330
A02
100
AcDbEntity
  8
Part
100
AcDbCircle
 10
0.000000000
 20
0.000000000
 30
24.000000000
 40
9.000000000
  0
SPLINE
  5
A10
330
A02
100
AcDbEntity
  8
Part
100
AcDbSpline
210
0
220
0
230
1
 70
8
 71
3
 72
17
 73
13
 74
0
 40
0.000000000
 40
0.000000000
 40
0.000000000
 40
0.000000000
 40
0.248572900
 40
0.248572900
 40
0.248572900
 40
0.500041614
 40
0.500041614
 40
0.500041614
 40
0.751510327
 40
0.751510327
 40
0.751510327
 40
1.000000000
 40
1.000000000
 40
1.000000000
 40
1.000000000
 10
-9.000000000
 20
0.000000000
 30
4.500000000
 10
-9.000756027
 20
0.461897929
 30
4.497346683
 10
-8.961248858
 20
0.877244240
 30
4.720584792
 10
-8.929389683
 20
1.125166604
 30
5.008032202
 10
-8.896774971
 20
1.378984864
 30
5.297140993
 10
-8.873556243
 20
1.499714040
 30
5.651223854
 10
-8.874119675
 20
1.500000000
 30
6.000000000
 10
-8.873556243
 20
1.499714040
 30
6.348776146
 10
-8.896774971
 20
1.378984864
 30
6.702859007
 10
-8.929389683
 20
1.125166604
 30
6.991967798
 10
-8.961243382
 20
0.877345118
 30
7.279375519
 10
-9.000764458
 20
0.461718498
 30
7.502709834
 10
-9.000000000
 20
0.000000000
 30
7.500000000
  0
SPLINE
  5
A11
330
A02
100
AcDbEntity
  8
Part
100
AcDbSpline
210
0
220
0
230
1
 70
8
 71
3
 72
17
 73
13
 74
0
 40
0.000000000
 40
0.000000000
 40
0.000000000
 40
0.000000000
 40
0.248588380
 40
0.248588380
 40
0.248588380
 40
0.500150756
 40
0.500150756
 40
0.500150756
 40
0.751566615
 40
0.751566615
 40
0.751566615
 40
1.000000000
 40
1.000000000
 40
1.000000000
 40
1.000000000
 10
-9.000000000
 20
0.000000000
 30
7.500000000
 10
-9.000756027
 20
-0.461897929
 30
7.502653317
 10
-8.961248858
 20
-0.877244240
 30
7.279415208
 10
-8.929389683
 20
-1.125166604
 30
6.991967798
 10
-8.896768077
 20
-1.379031667
 30
6.702731177
 10
-8.873563161
 20
-1.499669040
 30
6.348945786
 10
-8.874119675
 20
-1.500000000
 30
6.000000000
 10
-8.873556243
 20
-1.499714040
 30
5.651223854
 10
-8.896774971
 20
-1.378984864
 30
5.297140993
 10
-8.929389683
 20
-1.125166604
 30
5.008032202
 10
-8.961242397
 20
-0.877356231
 30
4.720631747
 10
-9.000764753
 20
-0.461715267
 30
4.497287796
 10
-9.000000000
 20
0.000000000
 30
4.500000000
  0
SPLINE
  5
A12
330
A02
100
AcDbEntity
  8
Part
100
AcDbSpline
210
0
220
0
230
1
 70
8
 71
3
 72
17
 73
13
 74
0
 40
0.000000000
 40
0.000000000
 40
0.000000000
 40
0.000000000
 40
0.248588368
 40
0.248588368
 40
0.248588368
 40
0.500150743
 40
0.500150743
 40
0.500150743
 40
0.751566609
 40
0.751566609
 40
0.751566609
 40
1.000000000
 40
1.000000000
 40
1.000000000
 40
1.000000000
 10
9.000000000
 20
-0.000000000
 30
7.500000000
 10
9.000756027
 20
-0.461897929
 30
7.502653317
 10
8.961248858
 20
-0.877244240
 30
7.279415208
 10
8.929389683
 20
-1.125166604
 30
6.991967798
 10
8.896768077
 20
-1.379031667
 30
6.702731177
 10
8.873563161
 20
-1.499669040
 30
6.348945786
 10
8.874119675
 20
-1.500000000
 30
6.000000000
 10
8.873556243
 20
-1.499714040
 30
5.651223854
 10
8.896774971
 20
-1.378984864
 30
5.297140993
 10
8.929389683
 20
-1.125166604
 30
5.008032202
 10
8.961242397
 20
-0.877356231
 30
4.720631747
 10
9.000764753
 20
-0.461715267
 30
4.497287796
 10
9.000000000
 20
-0.000000000
 30
4.500000000
  0
SPLINE
  5
A13
330
A02
100
AcDbEntity
  8
Part
100
AcDbSpline
210
0
220
0
230
1
 70
8
 71
3
 72
17
 73
13
 74
0
 40
0.000000000
 40
0.000000000
 40
0.000000000
 40
0.000000000
 40
0.248572900
 40
0.248572900
 40
0.248572900
 40
0.500041614
 40
0.500041614
 40
0.500041614
 40
0.751510327
 40
0.751510327
 40
0.751510327
 40
1.000000000
 40
1.000000000
 40
1.000000000
 40
1.000000000
 10
9.000000000
 20
0.000000000
 30
4.500000000
 10
9.000756027
 20
0.461897929
 30
4.497346683
 10
8.961248858
 20
0.877244240
 30
4.720584792
 10
8.929389683
 20
1.125166604
 30
5.008032202
 10
8.896774971
 20
1.378984864
 30
5.297140993
 10
8.873556243
 20
1.499714041
 30
5.651223854
 10
8.874119675
 20
1.500000000
 30
6.000000000
 10
8.873556243
 20
1.499714040
 30
6.348776146
 10
8.896774971
 20
1.378984864
 30
6.702859007
 10
8.929389683
 20
1.125166604
 30
6.991967798
 10
8.961243382
 20
0.877345118
 30
7.279375519
 10
9.000764458
 20
0.461718498
 30
7.502709834
 10
9.000000000
 20
0.000000000
 30
7.500000000
  0
LINE
  5
A14
330
A02
100
AcDbEntity
  8
Part
100
AcDbLine
 10
4.025000000
 20
0.000000000
 30
7.500000000
 11
9.000000000
 21
0.000000000
 31
7.500000000
  0
SPLINE
  5
A15
330
A02
100
AcDbEntity
  8
Part
100
AcDbSpline
210
0
220
0
230
1
 70
8
 71
3
 72
23
 73
19
 74
0
 40
0.000000000
 40
0.000000000
 40
0.000000000
 40
0.000000000
 40
0.144181094
 40
0.144181094
 40
0.144181094
 40
0.259866514
 40
0.259866514
 40
0.259866514
 40
0.519347724
 40
0.519347724
 40
0.519347724
 40
0.740953704
 40
0.740953704
 40
0.740953704
 40
0.857236480
 40
0.857236480
 40
0.857236480
 40
1.000000000
 40
1.000000000
 40
1.000000000
 40
1.000000000
 10
4.025000000
 20
-0.000000000
 30
4.500000000
 10
4.025482129
 20
0.262719171
 30
4.499234532
 10
3.997461600
 20
0.519523962
 30
4.571678720
 10
3.958487168
 20
0.728700449
 30
4.688895254
 10
3.925962594
 20
0.897064994
 30
4.784549724
 10
3.892165424
 20
1.037634108
 30
4.900724353
 10
3.857095658
 20
1.150407792
 30
5.037419139
 10
3.780114179
 20
1.403104003
 30
5.340423539
 10
3.726214785
 20
1.517769345
 30
5.714457772
 10
3.735964353
 20
1.497730067
 30
6.082490277
 10
3.742066413
 20
1.480288894
 30
6.396544388
 10
3.792522218
 20
1.364596938
 30
6.707333339
 10
3.857832622
 20
1.147933995
 30
6.965529669
 10
3.893145943
 20
1.034163682
 30
7.102740112
 10
3.927081780
 20
0.892322078
 30
7.219090780
 10
3.959640132
 20
0.722409182
 30
7.314581673
 10
3.998032307
 20
0.514466392
 30
7.429779265
 10
4.025467866
 20
0.260070557
 30
7.500743299
 10
4.025000000
 20
0.000000000
 30
7.500000000
  0
SPLINE
  5
A16
330
A02
100
AcDbEntity
  8
Part
100
AcDbSpline
210
0
220
0
230
1
 70
8
 71
3
 72
23
 73
19
 74
0
 40
0.000000000
 40
0.000000000
 40
0.000000000
 40
0.000000000
 40
0.144181094
 40
0.144181094
 40
0.144181094
 40
0.259866514
 40
0.259866514
 40
0.259866514
 40
0.519347724
 40
0.519347724
 40
0.519347724
 40
0.740953704
 40
0.740953704
 40
0.740953704
 40
0.857236480
 40
0.857236480
 40
0.857236480
 40
1.000000000
 40
1.000000000
 40
1.000000000
 40
1.000000000
 10
4.025000000
 20
-0.000000000
 30
7.500000000
 10
4.025482129
 20
-0.262719171
 30
7.500765468
 10
3.997461600
 20
-0.519523962
 30
7.428321280
 10
3.958487168
 20
-0.728700449
 30
7.311104746
 10
3.925962594
 20
-0.897064994
 30
7.215450276
 10
3.892165424
 20
-1.037634108
 30
7.099275647
 10
3.857095658
 20
-1.150407792
 30
6.962580861
 10
3.780114179
 20
-1.403104003
 30
6.659576461
 10
3.726214785
 20
-1.517769345
 30
6.285542228
 10
3.735964353
 20
-1.497730067
 30
5.917509723
 10
3.742066413
 20
-1.480288894
 30
5.603455612
 10
3.792522218
 20
-1.364596938
 30
5.292666661
 10
3.857832622
 20
-1.147933995
 30
5.034470331
 10
3.893145943
 20
-1.034163682
 30
4.897259888
 10
3.927081780
 20
-0.892322078
 30
4.780909220
 10
3.959640132
 20
-0.722409182
 30
4.685418327
 10
3.998032307
 20
-0.514466392
 30
4.570220735
 10
4.025467866
 20
-0.260070557
 30
4.499256701
 10
4.025000000
 20
-0.000000000
 30
4.500000000
  0
LINE
  5
A17
330
A02
100
AcDbEntity
  8
Part
100
AcDbLine
 10
4.025000000
 20
0.000000000
 30
7.500000000
 11
9.000000000
 21
0.000000000
 31
7.500000000
  0
CIRCLE
  5
A18
330
A02
100
AcDbEntity
  8
Part
100
AcDbCircle
 10
0.000000000
 20
0.000000000
 30
0.000000000
 40
9.000000000
  0
CIRCLE
  5
A19
330
A02
100
AcDbEntity
  8
Part
100
AcDbCircle
 10
0.000000000
 20
0.000000000
 30
0.000000000
 40
4.025000000
  0
CIRCLE
  5
A1A
330
A02
100
AcDbEntity
  8
Part
100
AcDbCircle
 10
0.000000000
 20
0.000000000
 30
24.000000000
 40
9.000000000
  0
ARC
  5
A1B
330
A02
100
AcDbEntity
  8
Part
100
AcDbCircle
 10
0.000000000
 20
0.000000000
 30
24.000000000
 40
4.025000000
100
AcDbArc
 50
0.000000000
 51
70.751800246
  0
LINE
  5
A1C
330
A02
100
AcDbEntity
  8
Part
100
AcDbLine
 10
1.326885451
 20
3.800000000
 30
24.000000000
 11
1.550000000
 21
3.800000000
 31
24.000000000
  0
LINE
  5
A1D
330
A02
100
AcDbEntity
  8
Part
100
AcDbLine
 10
1.550000000
 20
3.800000000
 30
24.000000000
 11
1.550000000
 21
6.000000000
 31
24.000000000
  0
LINE
  5
A1E
330
A02
100
AcDbEntity
  8
Part
100
AcDbLine
 10
-1.550000000
 20
6.000000000
 30
24.000000000
 11
1.550000000
 21
6.000000000
 31
24.000000000
  0
LINE
  5
A1F
330
A02
100
AcDbEntity
  8
Part
100
AcDbLine
 10
-1.550000000
 20
3.800000000
 30
24.000000000
 11
-1.550000000
 21
6.000000000
 31
24.000000000
  0
LINE
  5
A20
330
A02
100
AcDbEntity
  8
Part
100
AcDbLine
 10
-1.550000000
 20
3.800000000
 30
24.000000000
 11
-1.326885451
 21
3.800000000
 31
24.000000000
  0
ARC
  5
A21
330
A02
100
AcDbEntity
  8
Part
100
AcDbCircle
 10
0.000000000
 20
0.000000000
 30
24.000000000
 40
4.025000000
100
AcDbArc
 50
109.248199754
 51
-0.000000000
  0
SPLINE
  5
A22
330
A02
100
AcDbEntity
  8
Part
100
AcDbSpline
210
0
220
0
230
1
 70
9
 71
3
 72
38
 73
34
 74
0
 40
0.000000000
 40
0.000000000
 40
0.000000000
 40
0.000000000
 40
0.072064361
 40
0.072064361
 40
0.072064361
 40
0.129886060
 40
0.129886060
 40
0.129886060
 40
0.240158016
 40
0.240158016
 40
0.240158016
 40
0.370342280
 40
0.370342280
 40
0.370342280
 40
0.470845158
 40
0.470845158
 40
0.470845158
 40
0.530528859
 40
0.530528859
 40
0.530528859
 40
0.604958260
 40
0.604958260
 40
0.604958260
 40
0.740330472
 40
0.740330472
 40
0.740330472
 40
0.870519330
 40
0.870519330
 40
0.870519330
 40
0.928641650
 40
0.928641650
 40
0.928641650
 40
1.000000000
 40
1.000000000
 40
1.000000000
 40
1.000000000
 10
-4.025000000
 20
0.000000000
 30
7.500000000
 10
-4.025482129
 20
-0.262719171
 30
7.500765468
 10
-3.997461600
 20
-0.519523962
 30
7.428321280
 10
-3.958487168
 20
-0.728700449
 30
7.311104746
 10
-3.925962594
 20
-0.897064994
 30
7.215450276
 10
-3.892165424
 20
-1.037634108
 30
7.099275647
 10
-3.857095658
 20
-1.150407792
 30
6.962580861
 10
-3.792163981
 20
-1.365341683
 30
6.705117170
 10
-3.742110945
 20
-1.480215705
 30
6.395730932
 10
-3.735977113
 20
-1.497698238
 30
6.083066157
 10
-3.726116202
 20
-1.517952107
 30
5.713652315
 10
-3.780449637
 20
-1.402493408
 30
5.338138636
 10
-3.857832622
 20
-1.147933995
 30
5.034470331
 10
-3.915854153
 20
-0.953226898
 30
4.801778410
 10
-3.985390004
 20
-0.665281522
 30
4.608143085
 10
-4.012842973
 20
-0.312596024
 30
4.532933633
 10
-4.029408905
 20
-0.104797539
 30
4.488021212
 10
-4.028938509
 20
0.120231863
 30
4.489221157
 10
-4.011677384
 20
0.327214862
 30
4.536124857
 10
-3.990641392
 20
0.586284434
 30
4.593887789
 10
-3.946406540
 20
0.812500426
 30
4.717269214
 10
-3.901883383
 20
0.987892235
 30
4.871253380
 10
-3.818977792
 20
1.308239247
 30
5.153102380
 10
-3.742689481
 20
1.476130823
 30
5.533640154
 10
-3.735977113
 20
1.497698238
 30
5.916933843
 10
-3.726116202
 20
1.517952107
 30
6.286347685
 10
-3.780449637
 20
1.402493409
 30
6.661861364
 10
-3.857832622
 20
1.147933995
 30
6.965529669
 10
-3.893145943
 20
1.034163682
 30
7.102740112
 10
-3.927081780
 20
0.892322078
 30
7.219090780
 10
-3.959640132
 20
0.722409182
 30
7.314581673
 10
-3.998032307
 20
0.514466392
 30
7.429779265
 10
-4.025467866
 20
0.260070557
 30
7.500743299
 10
-4.025000000
 20
0.000000000
 30
7.500000000
  0
LINE
  5
A23
330
A02
100
AcDbEntity
  8
Part
100
AcDbLine
 10
-9.000000000
 20
0.000000000
 30
7.500000000
 11
-4.025000000
 21
0.000000000
 31
7.500000000
  0
SPLINE
  5
A24
330
A02
100
AcDbEntity
  8
Part
100
AcDbSpline
210
0
220
0
230
1
 70
8
 71
3
 72
17
 73
13
 74
0
 40
0.000000000
 40
0.000000000
 40
0.000000000
 40
0.000000000
 40
0.248572900
 40
0.248572900
 40
0.248572900
 40
0.500041614
 40
0.500041614
 40
0.500041614
 40
0.751510327
 40
0.751510327
 40
0.751510327
 40
1.000000000
 40
1.000000000
 40
1.000000000
 40
1.000000000
 10
-9.000000000
 20
0.000000000
 30
4.500000000
 10
-9.000756027
 20
0.461897929
 30
4.497346683
 10
-8.961248858
 20
0.877244240
 30
4.720584792
 10
-8.929389683
 20
1.125166604
 30
5.008032202
 10
-8.896774971
 20
1.378984864
 30
5.297140993
 10
-8.873556243
 20
1.499714040
 30
5.651223854
 10
-8.874119675
 20
1.500000000
 30
6.000000000
 10
-8.873556243
 20
1.499714040
 30
6.348776146
 10
-8.896774971
 20
1.378984864
 30
6.702859007
 10
-8.929389683
 20
1.125166604
 30
6.991967798
 10
-8.961243382
 20
0.877345118
 30
7.279375519
 10
-9.000764458
 20
0.461718498
 30
7.502709834
 10
-9.000000000
 20
0.000000000
 30
7.500000000
  0
SPLINE
  5
A25
330
A02
100
AcDbEntity
  8
Part
100
AcDbSpline
210
0
220
0
230
1
 70
8
 71
3
 72
17
 73
13
 74
0
 40
0.000000000
 40
0.000000000
 40
0.000000000
 40
0.000000000
 40
0.248588380
 40
0.248588380
 40
0.248588380
 40
0.500150756
 40
0.500150756
 40
0.500150756
 40
0.751566615
 40
0.751566615
 40
0.751566615
 40
1.000000000
 40
1.000000000
 40
1.000000000
 40
1.000000000
 10
-9.000000000
 20
0.000000000
 30
7.500000000
 10
-9.000756027
 20
-0.461897929
 30
7.502653317
 10
-8.961248858
 20
-0.877244240
 30
7.279415208
 10
-8.929389683
 20
-1.125166604
 30
6.991967798
 10
-8.896768077
 20
-1.379031667
 30
6.702731177
 10
-8.873563161
 20
-1.499669040
 30
6.348945786
 10
-8.874119675
 20
-1.500000000
 30
6.000000000
 10
-8.873556243
 20
-1.499714040
 30
5.651223854
 10
-8.896774971
 20
-1.378984864
 30
5.297140993
 10
-8.929389683
 20
-1.125166604
 30
5.008032202
 10
-8.961242397
 20
-0.877356231
 30
4.720631747
 10
-9.000764753
 20
-0.461715267
 30
4.497287796
 10
-9.000000000
 20
0.000000000
 30
4.500000000
  0
LINE
  5
A26
330
A02
100
AcDbEntity
  8
Part
100
AcDbLine
 10
-9.000000000
 20
0.000000000
 30
7.500000000
 11
-4.025000000
 21
0.000000000
 31
7.500000000
  0
SPLINE
  5
A27
330
A02
100
AcDbEntity
  8
Part
100
AcDbSpline
210
0
220
0
230
1
 70
8
 71
3
 72
23
 73
19
 74
0
 40
0.000000000
 40
0.000000000
 40
0.000000000
 40
0.000000000
 40
0.144181094
 40
0.144181094
 40
0.144181094
 40
0.259866514
 40
0.259866514
 40
0.259866514
 40
0.519347724
 40
0.519347724
 40
0.519347724
 40
0.740953704
 40
0.740953704
 40
0.740953704
 40
0.857236480
 40
0.857236480
 40
0.857236480
 40
1.000000000
 40
1.000000000
 40
1.000000000
 40
1.000000000
 10
4.025000000
 20
-0.000000000
 30
7.500000000
 10
4.025482129
 20
-0.262719171
 30
7.500765468
 10
3.997461600
 20
-0.519523962
 30
7.428321280
 10
3.958487168
 20
-0.728700449
 30
7.311104746
 10
3.925962594
 20
-0.897064994
 30
7.215450276
 10
3.892165424
 20
-1.037634108
 30
7.099275647
 10
3.857095658
 20
-1.150407792
 30
6.962580861
 10
3.780114179
 20
-1.403104003
 30
6.659576461
 10
3.726214785
 20
-1.517769345
 30
6.285542228
 10
3.735964353
 20
-1.497730067
 30
5.917509723
 10
3.742066413
 20
-1.480288894
 30
5.603455612
 10
3.792522218
 20
-1.364596938
 30
5.292666661
 10
3.857832622
 20
-1.147933995
 30
5.034470331
 10
3.893145943
 20
-1.034163682
 30
4.897259888
 10
3.927081780
 20
-0.892322078
 30
4.780909220
 10
3.959640132
 20
-0.722409182
 30
4.685418327
 10
3.998032307
 20
-0.514466392
 30
4.570220735
 10
4.025467866
 20
-0.260070557
 30
4.499256701
 10
4.025000000
 20
-0.000000000
 30
4.500000000
  0
LINE
  5
A28
330
A02
100
AcDbEntity
  8
Part
100
AcDbLine
 10
4.025000000
 20
-0.000000000
 30
0.000000000
 11
4.025000000
 21
-0.000000000
 31
4.500000000
  0
CIRCLE
  5
A29
330
A02
100
AcDbEntity
  8
Part
100
AcDbCircle
 10
0.000000000
 20
0.000000000
 30
0.000000000
 40
4.025000000
  0
LINE
  5
A2A
330
A02
100
AcDbEntity
  8
Part
100
AcDbLine
 10
4.025000000
 20
-0.000000000
 30
0.000000000
 11
4.025000000
 21
-0.000000000
 31
4.500000000
  0
SPLINE
  5
A2B
330
A02
100
AcDbEntity
  8
Part
100
AcDbSpline
210
0
220
0
230
1
 70
8
 71
3
 72
23
 73
19
 74
0
 40
0.000000000
 40
0.000000000
 40
0.000000000
 40
0.000000000
 40
0.144181094
 40
0.144181094
 40
0.144181094
 40
0.259866514
 40
0.259866514
 40
0.259866514
 40
0.519347724
 40
0.519347724
 40
0.519347724
 40
0.740953704
 40
0.740953704
 40
0.740953704
 40
0.857236480
 40
0.857236480
 40
0.857236480
 40
1.000000000
 40
1.000000000
 40
1.000000000
 40
1.000000000
 10
4.025000000
 20
-0.000000000
 30
4.500000000
 10
4.025482129
 20
0.262719171
 30
4.499234532
 10
3.997461600
 20
0.519523962
 30
4.571678720
 10
3.958487168
 20
0.728700449
 30
4.688895254
 10
3.925962594
 20
0.897064994
 30
4.784549724
 10
3.892165424
 20
1.037634108
 30
4.900724353
 10
3.857095658
 20
1.150407792
 30
5.037419139
 10
3.780114179
 20
1.403104003
 30
5.340423539
 10
3.726214785
 20
1.517769345
 30
5.714457772
 10
3.735964353
 20
1.497730067
 30
6.082490277
 10
3.742066413
 20
1.480288894
 30
6.396544388
 10
3.792522218
 20
1.364596938
 30
6.707333339
 10
3.857832622
 20
1.147933995
 30
6.965529669
 10
3.893145943
 20
1.034163682
 30
7.102740112
 10
3.927081780
 20
0.892322078
 30
7.219090780
 10
3.959640132
 20
0.722409182
 30
7.314581673
 10
3.998032307
 20
0.514466392
 30
7.429779265
 10
4.025467866
 20
0.260070557
 30
7.500743299
 10
4.025000000
 20
0.000000000
 30
7.500000000
  0
LINE
  5
A2C
330
A02
100
AcDbEntity
  8
Part
100
AcDbLine
 10
4.025000000
 20
-0.000000000
 30
7.500000000
 11
4.025000000
 21
-0.000000000
 31
24.000000000
  0
ARC
  5
A2D
330
A02
100
AcDbEntity
  8
Part
100
AcDbCircle
 10
0.000000000
 20
0.000000000
 30
24.000000000
 40
4.025000000
100
AcDbArc
 50
0.000000000
 51
70.751800246
  0
LINE
  5
A2E
330
A02
100
AcDbEntity
  8
Part
100
AcDbLine
 10
1.326885451
 20
3.800000000
 30
12.000000000
 11
1.326885451
 21
3.800000000
 31
24.000000000
  0
ARC
  5
A2F
330
A02
100
AcDbEntity
  8
Part
100
AcDbCircle
 10
0.000000000
 20
0.000000000
 30
12.000000000
 40
4.025000000
100
AcDbArc
 50
70.751800246
 51
109.248199754
  0
LINE
  5
A30
330
A02
100
AcDbEntity
  8
Part
100
AcDbLine
 10
-1.326885451
 20
3.800000000
 30
12.000000000
 11
-1.326885451
 21
3.800000000
 31
24.000000000
  0
ARC
  5
A31
330
A02
100
AcDbEntity
  8
Part
100
AcDbCircle
 10
0.000000000
 20
0.000000000
 30
24.000000000
 40
4.025000000
100
AcDbArc
 50
109.248199754
 51
-0.000000000
  0
LINE
  5
A32
330
A02
100
AcDbEntity
  8
Part
100
AcDbLine
 10
4.025000000
 20
-0.000000000
 30
7.500000000
 11
4.025000000
 21
-0.000000000
 31
24.000000000
  0
SPLINE
  5
A33
330
A02
100
AcDbEntity
  8
Part
100
AcDbSpline
210
0
220
0
230
1
 70
9
 71
3
 72
38
 73
34
 74
0
 40
0.000000000
 40
0.000000000
 40
0.000000000
 40
0.000000000
 40
0.072064361
 40
0.072064361
 40
0.072064361
 40
0.129886060
 40
0.129886060
 40
0.129886060
 40
0.240158016
 40
0.240158016
 40
0.240158016
 40
0.370342280
 40
0.370342280
 40
0.370342280
 40
0.470845158
 40
0.470845158
 40
0.470845158
 40
0.530528859
 40
0.530528859
 40
0.530528859
 40
0.604958260
 40
0.604958260
 40
0.604958260
 40
0.740330472
 40
0.740330472
 40
0.740330472
 40
0.870519330
 40
0.870519330
 40
0.870519330
 40
0.928641650
 40
0.928641650
 40
0.928641650
 40
1.000000000
 40
1.000000000
 40
1.000000000
 40
1.000000000
 10
-4.025000000
 20
0.000000000
 30
7.500000000
 10
-4.025482129
 20
-0.262719171
 30
7.500765468
 10
-3.997461600
 20
-0.519523962
 30
7.428321280
 10
-3.958487168
 20
-0.728700449
 30
7.311104746
 10
-3.925962594
 20
-0.897064994
 30
7.215450276
 10
-3.892165424
 20
-1.037634108
 30
7.099275647
 10
-3.857095658
 20
-1.150407792
 30
6.962580861
 10
-3.792163981
 20
-1.365341683
 30
6.705117170
 10
-3.742110945
 20
-1.480215705
 30
6.395730932
 10
-3.735977113
 20
-1.497698238
 30
6.083066157
 10
-3.726116202
 20
-1.517952107
 30
5.713652315
 10
-3.780449637
 20
-1.402493408
 30
5.338138636
 10
-3.857832622
 20
-1.147933995
 30
5.034470331
 10
-3.915854153
 20
-0.953226898
 30
4.801778410
 10
-3.985390004
 20
-0.665281522
 30
4.608143085
 10
-4.012842973
 20
-0.312596024
 30
4.532933633
 10
-4.029408905
 20
-0.104797539
 30
4.488021212
 10
-4.028938509
 20
0.120231863
 30
4.489221157
 10
-4.011677384
 20
0.327214862
 30
4.536124857
 10
-3.990641392
 20
0.586284434
 30
4.593887789
 10
-3.946406540
 20
0.812500426
 30
4.717269214
 10
-3.901883383
 20
0.987892235
 30
4.871253380
 10
-3.818977792
 20
1.308239247
 30
5.153102380
 10
-3.742689481
 20
1.476130823
 30
5.533640154
 10
-3.735977113
 20
1.497698238
 30
5.916933843
 10
-3.726116202
 20
1.517952107
 30
6.286347685
 10
-3.780449637
 20
1.402493409
 30
6.661861364
 10
-3.857832622
 20
1.147933995
 30
6.965529669
 10
-3.893145943
 20
1.034163682
 30
7.102740112
 10
-3.927081780
 20
0.892322078
 30
7.219090780
 10
-3.959640132
 20
0.722409182
 30
7.314581673
 10
-3.998032307
 20
0.514466392
 30
7.429779265
 10
-4.025467866
 20
0.260070557
 30
7.500743299
 10
-4.025000000
 20
0.000000000
 30
7.500000000
  0
LINE
  5
A34
330
A02
100
AcDbEntity
  8
Part
100
AcDbLine
 10
1.326885451
 20
3.800000000
 30
12.000000000
 11
1.550000000
 21
3.800000000
 31
12.000000000
  0
LINE
  5
A35
330
A02
100
AcDbEntity
  8
Part
100
AcDbLine
 10
1.550000000
 20
3.800000000
 30
12.000000000
 11
1.550000000
 21
3.800000000
 31
24.000000000
  0
LINE
  5
A36
330
A02
100
AcDbEntity
  8
Part
100
AcDbLine
 10
1.326885451
 20
3.800000000
 30
24.000000000
 11
1.550000000
 21
3.800000000
 31
24.000000000
  0
LINE
  5
A37
330
A02
100
AcDbEntity
  8
Part
100
AcDbLine
 10
1.326885451
 20
3.800000000
 30
12.000000000
 11
1.326885451
 21
3.800000000
 31
24.000000000
  0
LINE
  5
A38
330
A02
100
AcDbEntity
  8
Part
100
AcDbLine
 10
1.550000000
 20
3.800000000
 30
12.000000000
 11
1.550000000
 21
3.800000000
 31
24.000000000
  0
LINE
  5
A39
330
A02
100
AcDbEntity
  8
Part
100
AcDbLine
 10
1.550000000
 20
3.800000000
 30
24.000000000
 11
1.550000000
 21
6.000000000
 31
24.000000000
  0
LINE
  5
A3A
330
A02
100
AcDbEntity
  8
Part
100
AcDbLine
 10
1.550000000
 20
6.000000000
 30
12.000000000
 11
1.550000000
 21
6.000000000
 31
24.000000000
  0
LINE
  5
A3B
330
A02
100
AcDbEntity
  8
Part
100
AcDbLine
 10
1.550000000
 20
3.800000000
 30
12.000000000
 11
1.550000000
 21
6.000000000
 31
12.000000000
  0
LINE
  5
A3C
330
A02
100
AcDbEntity
  8
Part
100
AcDbLine
 10
-1.550000000
 20
6.000000000
 30
12.000000000
 11
1.550000000
 21
6.000000000
 31
12.000000000
  0
LINE
  5
A3D
330
A02
100
AcDbEntity
  8
Part
100
AcDbLine
 10
1.550000000
 20
6.000000000
 30
12.000000000
 11
1.550000000
 21
6.000000000
 31
24.000000000
  0
LINE
  5
A3E
330
A02
100
AcDbEntity
  8
Part
100
AcDbLine
 10
-1.550000000
 20
6.000000000
 30
24.000000000
 11
1.550000000
 21
6.000000000
 31
24.000000000
  0
LINE
  5
A3F
330
A02
100
AcDbEntity
  8
Part
100
AcDbLine
 10
-1.550000000
 20
6.000000000
 30
12.000000000
 11
-1.550000000
 21
6.000000000
 31
24.000000000
  0
LINE
  5
A40
330
A02
100
AcDbEntity
  8
Part
100
AcDbLine
 10
-1.550000000
 20
3.800000000
 30
12.000000000
 11
-1.550000000
 21
3.800000000
 31
24.000000000
  0
LINE
  5
A41
330
A02
100
AcDbEntity
  8
Part
100
AcDbLine
 10
-1.550000000
 20
3.800000000
 30
24.000000000
 11
-1.550000000
 21
6.000000000
 31
24.000000000
  0
LINE
  5
A42
330
A02
100
AcDbEntity
  8
Part
100
AcDbLine
 10
-1.550000000
 20
6.000000000
 30
12.000000000
 11
-1.550000000
 21
6.000000000
 31
24.000000000
  0
LINE
  5
A43
330
A02
100
AcDbEntity
  8
Part
100
AcDbLine
 10
-1.550000000
 20
3.800000000
 30
12.000000000
 11
-1.550000000
 21
6.000000000
 31
12.000000000
  0
LINE
  5
A44
330
A02
100
AcDbEntity
  8
Part
100
AcDbLine
 10
-1.550000000
 20
3.800000000
 30
12.000000000
 11
-1.326885451
 21
3.800000000
 31
12.000000000
  0
LINE
  5
A45
330
A02
100
AcDbEntity
  8
Part
100
AcDbLine
 10
-1.326885451
 20
3.800000000
 30
12.000000000
 11
-1.326885451
 21
3.800000000
 31
24.000000000
  0
LINE
  5
A46
330
A02
100
AcDbEntity
  8
Part
100
AcDbLine
 10
-1.550000000
 20
3.800000000
 30
24.000000000
 11
-1.326885451
 21
3.800000000
 31
24.000000000
  0
LINE
  5
A47
330
A02
100
AcDbEntity
  8
Part
100
AcDbLine
 10
-1.550000000
 20
3.800000000
 30
12.000000000
 11
-1.550000000
 21
3.800000000
 31
24.000000000
  0
LINE
  5
A48
330
A02
100
AcDbEntity
  8
Part
100
AcDbLine
 10
-1.550000000
 20
6.000000000
 30
12.000000000
 11
1.550000000
 21
6.000000000
 31
12.000000000
  0
LINE
  5
A49
330
A02
100
AcDbEntity
  8
Part
100
AcDbLine
 10
1.550000000
 20
3.800000000
 30
12.000000000
 11
1.550000000
 21
6.000000000
 31
12.000000000
  0
LINE
  5
A4A
330
A02
100
AcDbEntity
  8
Part
100
AcDbLine
 10
1.326885451
 20
3.800000000
 30
12.000000000
 11
1.550000000
 21
3.800000000
 31
12.000000000
  0
ARC
  5
A4B
330
A02
100
AcDbEntity
  8
Part
100
AcDbCircle
 10
0.000000000
 20
0.000000000
 30
12.000000000
 40
4.025000000
100
AcDbArc
 50
70.751800246
 51
109.248199754
  0
LINE
  5
A4C
330
A02
100
AcDbEntity
  8
Part
100
AcDbLine
 10
-1.550000000
 20
3.800000000
 30
12.000000000
 11
-1.326885451
 21
3.800000000
 31
12.000000000
  0
LINE
  5
A4D
330
A02
100
AcDbEntity
  8
Part
100
AcDbLine
 10
-1.550000000
 20
3.800000000
 30
12.000000000
 11
-1.550000000
 21
6.000000000
 31
12.000000000
  0
ENDSEC
  0
SECTION
  2
OBJECTS
  0
DICTIONARY
  5
F000
330
0
100
AcDbDictionary
  3
ACAD_GROUP
350
F001
  0
DICTIONARY
  5
F001
330
F000
100
AcDbDictionary
  0
ENDSEC
  0
EOF
